solid STL generated by MeshLab
  facet normal  0.000000e+00 -9.961947e-01 -8.715599e-02
    outer loop
      vertex  -2.500000e-03 -6.401250e-04 -1.128713e-04
      vertex   2.500000e-03 -6.500000e-04  0.000000e+00
      vertex  -2.500000e-03 -6.500000e-04  0.000000e+00
    endloop
  endfacet
  facet normal  0.000000e+00 -9.961947e-01  8.715599e-02
    outer loop
      vertex  -2.500000e-03 -6.500000e-04  0.000000e+00
      vertex   2.500000e-03 -6.500000e-04  0.000000e+00
      vertex   2.500000e-03 -6.401250e-04  1.128713e-04
    endloop
  endfacet
  facet normal  0.000000e+00 -9.961947e-01  8.715599e-02
    outer loop
      vertex  -2.500000e-03 -6.500000e-04  0.000000e+00
      vertex   2.500000e-03 -6.401250e-04  1.128713e-04
      vertex  -2.500000e-03 -6.401250e-04  1.128713e-04
    endloop
  endfacet
  facet normal  0.000000e+00 -9.659260e-01  2.588187e-01
    outer loop
      vertex  -2.500000e-03 -6.401250e-04  1.128713e-04
      vertex   2.500000e-03 -6.401250e-04  1.128713e-04
      vertex   2.500000e-03 -6.108002e-04  2.223131e-04
    endloop
  endfacet
  facet normal  0.000000e+00 -9.659260e-01  2.588187e-01
    outer loop
      vertex  -2.500000e-03 -6.401250e-04  1.128713e-04
      vertex   2.500000e-03 -6.108002e-04  2.223131e-04
      vertex  -2.500000e-03 -6.108002e-04  2.223131e-04
    endloop
  endfacet
  facet normal  0.000000e+00 -9.063078e-01  4.226184e-01
    outer loop
      vertex  -2.500000e-03 -6.108002e-04  2.223131e-04
      vertex   2.500000e-03 -6.108002e-04  2.223131e-04
      vertex   2.500000e-03 -5.629165e-04  3.250000e-04
    endloop
  endfacet
  facet normal  0.000000e+00 -9.063078e-01  4.226184e-01
    outer loop
      vertex  -2.500000e-03 -6.108002e-04  2.223131e-04
      vertex   2.500000e-03 -5.629165e-04  3.250000e-04
      vertex  -2.500000e-03 -5.629165e-04  3.250000e-04
    endloop
  endfacet
  facet normal  0.000000e+00 -8.191520e-01  5.735765e-01
    outer loop
      vertex  -2.500000e-03 -5.629165e-04  3.250000e-04
      vertex   2.500000e-03 -5.629165e-04  3.250000e-04
      vertex   2.500000e-03 -4.979289e-04  4.178119e-04
    endloop
  endfacet
  facet normal  0.000000e+00 -8.191520e-01  5.735765e-01
    outer loop
      vertex  -2.500000e-03 -5.629165e-04  3.250000e-04
      vertex   2.500000e-03 -4.979289e-04  4.178119e-04
      vertex  -2.500000e-03 -4.979289e-04  4.178119e-04
    endloop
  endfacet
  facet normal  0.000000e+00 -7.071068e-01  7.071068e-01
    outer loop
      vertex  -2.500000e-03 -4.979289e-04  4.178119e-04
      vertex   2.500000e-03 -4.979289e-04  4.178119e-04
      vertex   2.500000e-03 -4.178119e-04  4.979289e-04
    endloop
  endfacet
  facet normal  0.000000e+00 -7.071068e-01  7.071068e-01
    outer loop
      vertex  -2.500000e-03 -4.979289e-04  4.178119e-04
      vertex   2.500000e-03 -4.178119e-04  4.979289e-04
      vertex  -2.500000e-03 -4.178119e-04  4.979289e-04
    endloop
  endfacet
  facet normal  0.000000e+00 -5.735765e-01  8.191520e-01
    outer loop
      vertex  -2.500000e-03 -4.178119e-04  4.979289e-04
      vertex   2.500000e-03 -4.178119e-04  4.979289e-04
      vertex   2.500000e-03 -3.250000e-04  5.629165e-04
    endloop
  endfacet
  facet normal  0.000000e+00 -5.735765e-01  8.191520e-01
    outer loop
      vertex  -2.500000e-03 -4.178119e-04  4.979289e-04
      vertex   2.500000e-03 -3.250000e-04  5.629165e-04
      vertex  -2.500000e-03 -3.250000e-04  5.629165e-04
    endloop
  endfacet
  facet normal  0.000000e+00 -4.226184e-01  9.063078e-01
    outer loop
      vertex  -2.500000e-03 -3.250000e-04  5.629165e-04
      vertex   2.500000e-03 -3.250000e-04  5.629165e-04
      vertex   2.500000e-03 -2.223131e-04  6.108002e-04
    endloop
  endfacet
  facet normal  0.000000e+00 -4.226184e-01  9.063078e-01
    outer loop
      vertex  -2.500000e-03 -3.250000e-04  5.629165e-04
      vertex   2.500000e-03 -2.223131e-04  6.108002e-04
      vertex  -2.500000e-03 -2.223131e-04  6.108002e-04
    endloop
  endfacet
  facet normal  0.000000e+00 -2.588187e-01  9.659260e-01
    outer loop
      vertex  -2.500000e-03 -2.223131e-04  6.108002e-04
      vertex   2.500000e-03 -2.223131e-04  6.108002e-04
      vertex   2.500000e-03 -1.128713e-04  6.401250e-04
    endloop
  endfacet
  facet normal  0.000000e+00 -2.588187e-01  9.659260e-01
    outer loop
      vertex  -2.500000e-03 -2.223131e-04  6.108002e-04
      vertex   2.500000e-03 -1.128713e-04  6.401250e-04
      vertex  -2.500000e-03 -1.128713e-04  6.401250e-04
    endloop
  endfacet
  facet normal  0.000000e+00 -8.715599e-02  9.961947e-01
    outer loop
      vertex  -2.500000e-03 -1.128713e-04  6.401250e-04
      vertex   2.500000e-03 -1.128713e-04  6.401250e-04
      vertex   2.500000e-03  1.194031e-19  6.500000e-04
    endloop
  endfacet
  facet normal  0.000000e+00 -8.715599e-02  9.961947e-01
    outer loop
      vertex  -2.500000e-03 -1.128713e-04  6.401250e-04
      vertex   2.500000e-03  1.194031e-19  6.500000e-04
      vertex  -2.500000e-03  1.194031e-19  6.500000e-04
    endloop
  endfacet
  facet normal -0.000000e+00  8.715599e-02  9.961947e-01
    outer loop
      vertex  -2.500000e-03  1.194031e-19  6.500000e-04
      vertex   2.500000e-03  1.194031e-19  6.500000e-04
      vertex   2.500000e-03  1.128713e-04  6.401250e-04
    endloop
  endfacet
  facet normal  0.000000e+00  8.715599e-02  9.961947e-01
    outer loop
      vertex  -2.500000e-03  1.194031e-19  6.500000e-04
      vertex   2.500000e-03  1.128713e-04  6.401250e-04
      vertex  -2.500000e-03  1.128713e-04  6.401250e-04
    endloop
  endfacet
  facet normal -0.000000e+00  2.588187e-01  9.659260e-01
    outer loop
      vertex  -2.500000e-03  1.128713e-04  6.401250e-04
      vertex   2.500000e-03  1.128713e-04  6.401250e-04
      vertex   2.500000e-03  2.223131e-04  6.108002e-04
    endloop
  endfacet
  facet normal  0.000000e+00  2.588187e-01  9.659260e-01
    outer loop
      vertex  -2.500000e-03  1.128713e-04  6.401250e-04
      vertex   2.500000e-03  2.223131e-04  6.108002e-04
      vertex  -2.500000e-03  2.223131e-04  6.108002e-04
    endloop
  endfacet
  facet normal -0.000000e+00  4.226184e-01  9.063078e-01
    outer loop
      vertex  -2.500000e-03  2.223131e-04  6.108002e-04
      vertex   2.500000e-03  2.223131e-04  6.108002e-04
      vertex   2.500000e-03  3.250000e-04  5.629165e-04
    endloop
  endfacet
  facet normal  0.000000e+00  4.226184e-01  9.063078e-01
    outer loop
      vertex  -2.500000e-03  2.223131e-04  6.108002e-04
      vertex   2.500000e-03  3.250000e-04  5.629165e-04
      vertex  -2.500000e-03  3.250000e-04  5.629165e-04
    endloop
  endfacet
  facet normal -0.000000e+00  5.735765e-01  8.191520e-01
    outer loop
      vertex  -2.500000e-03  3.250000e-04  5.629165e-04
      vertex   2.500000e-03  3.250000e-04  5.629165e-04
      vertex   2.500000e-03  4.178119e-04  4.979289e-04
    endloop
  endfacet
  facet normal  0.000000e+00  5.735765e-01  8.191520e-01
    outer loop
      vertex  -2.500000e-03  3.250000e-04  5.629165e-04
      vertex   2.500000e-03  4.178119e-04  4.979289e-04
      vertex  -2.500000e-03  4.178119e-04  4.979289e-04
    endloop
  endfacet
  facet normal -0.000000e+00  7.071068e-01  7.071068e-01
    outer loop
      vertex  -2.500000e-03  4.178119e-04  4.979289e-04
      vertex   2.500000e-03  4.178119e-04  4.979289e-04
      vertex   2.500000e-03  4.979289e-04  4.178119e-04
    endloop
  endfacet
  facet normal  0.000000e+00  7.071068e-01  7.071068e-01
    outer loop
      vertex  -2.500000e-03  4.178119e-04  4.979289e-04
      vertex   2.500000e-03  4.979289e-04  4.178119e-04
      vertex  -2.500000e-03  4.979289e-04  4.178119e-04
    endloop
  endfacet
  facet normal -0.000000e+00  8.191520e-01  5.735765e-01
    outer loop
      vertex  -2.500000e-03  4.979289e-04  4.178119e-04
      vertex   2.500000e-03  4.979289e-04  4.178119e-04
      vertex   2.500000e-03  5.629165e-04  3.250000e-04
    endloop
  endfacet
  facet normal  0.000000e+00  8.191520e-01  5.735765e-01
    outer loop
      vertex  -2.500000e-03  4.979289e-04  4.178119e-04
      vertex   2.500000e-03  5.629165e-04  3.250000e-04
      vertex  -2.500000e-03  5.629165e-04  3.250000e-04
    endloop
  endfacet
  facet normal -0.000000e+00  9.063078e-01  4.226184e-01
    outer loop
      vertex  -2.500000e-03  5.629165e-04  3.250000e-04
      vertex   2.500000e-03  5.629165e-04  3.250000e-04
      vertex   2.500000e-03  6.108002e-04  2.223131e-04
    endloop
  endfacet
  facet normal  0.000000e+00  9.063078e-01  4.226184e-01
    outer loop
      vertex  -2.500000e-03  5.629165e-04  3.250000e-04
      vertex   2.500000e-03  6.108002e-04  2.223131e-04
      vertex  -2.500000e-03  6.108002e-04  2.223131e-04
    endloop
  endfacet
  facet normal -0.000000e+00  9.659260e-01  2.588187e-01
    outer loop
      vertex  -2.500000e-03  6.108002e-04  2.223131e-04
      vertex   2.500000e-03  6.108002e-04  2.223131e-04
      vertex   2.500000e-03  6.401250e-04  1.128713e-04
    endloop
  endfacet
  facet normal  0.000000e+00  9.659260e-01  2.588187e-01
    outer loop
      vertex  -2.500000e-03  6.108002e-04  2.223131e-04
      vertex   2.500000e-03  6.401250e-04  1.128713e-04
      vertex  -2.500000e-03  6.401250e-04  1.128713e-04
    endloop
  endfacet
  facet normal -0.000000e+00  9.961947e-01  8.715599e-02
    outer loop
      vertex  -2.500000e-03  6.401250e-04  1.128713e-04
      vertex   2.500000e-03  6.401250e-04  1.128713e-04
      vertex   2.500000e-03  6.500000e-04 -7.960204e-20
    endloop
  endfacet
  facet normal  0.000000e+00  9.961947e-01  8.715599e-02
    outer loop
      vertex  -2.500000e-03  6.401250e-04  1.128713e-04
      vertex   2.500000e-03  6.500000e-04 -7.960204e-20
      vertex  -2.500000e-03  6.500000e-04 -7.960204e-20
    endloop
  endfacet
  facet normal  0.000000e+00  9.961947e-01 -8.715599e-02
    outer loop
      vertex  -2.500000e-03  6.500000e-04 -7.960204e-20
      vertex   2.500000e-03  6.500000e-04 -7.960204e-20
      vertex   2.500000e-03  6.401250e-04 -1.128713e-04
    endloop
  endfacet
  facet normal  0.000000e+00  9.961947e-01 -8.715599e-02
    outer loop
      vertex  -2.500000e-03  6.500000e-04 -7.960204e-20
      vertex   2.500000e-03  6.401250e-04 -1.128713e-04
      vertex  -2.500000e-03  6.401250e-04 -1.128713e-04
    endloop
  endfacet
  facet normal  0.000000e+00  9.659260e-01 -2.588187e-01
    outer loop
      vertex  -2.500000e-03  6.401250e-04 -1.128713e-04
      vertex   2.500000e-03  6.401250e-04 -1.128713e-04
      vertex   2.500000e-03  6.108002e-04 -2.223131e-04
    endloop
  endfacet
  facet normal  0.000000e+00  9.659260e-01 -2.588187e-01
    outer loop
      vertex  -2.500000e-03  6.401250e-04 -1.128713e-04
      vertex   2.500000e-03  6.108002e-04 -2.223131e-04
      vertex  -2.500000e-03  6.108002e-04 -2.223131e-04
    endloop
  endfacet
  facet normal  0.000000e+00  9.063078e-01 -4.226184e-01
    outer loop
      vertex  -2.500000e-03  6.108002e-04 -2.223131e-04
      vertex   2.500000e-03  6.108002e-04 -2.223131e-04
      vertex   2.500000e-03  5.629165e-04 -3.250000e-04
    endloop
  endfacet
  facet normal  0.000000e+00  9.063078e-01 -4.226184e-01
    outer loop
      vertex  -2.500000e-03  6.108002e-04 -2.223131e-04
      vertex   2.500000e-03  5.629165e-04 -3.250000e-04
      vertex  -2.500000e-03  5.629165e-04 -3.250000e-04
    endloop
  endfacet
  facet normal  0.000000e+00  8.191520e-01 -5.735765e-01
    outer loop
      vertex  -2.500000e-03  5.629165e-04 -3.250000e-04
      vertex   2.500000e-03  5.629165e-04 -3.250000e-04
      vertex   2.500000e-03  4.979289e-04 -4.178119e-04
    endloop
  endfacet
  facet normal  0.000000e+00  8.191520e-01 -5.735765e-01
    outer loop
      vertex  -2.500000e-03  5.629165e-04 -3.250000e-04
      vertex   2.500000e-03  4.979289e-04 -4.178119e-04
      vertex  -2.500000e-03  4.979289e-04 -4.178119e-04
    endloop
  endfacet
  facet normal  0.000000e+00  7.071068e-01 -7.071068e-01
    outer loop
      vertex  -2.500000e-03  4.979289e-04 -4.178119e-04
      vertex   2.500000e-03  4.979289e-04 -4.178119e-04
      vertex   2.500000e-03  4.178119e-04 -4.979289e-04
    endloop
  endfacet
  facet normal  0.000000e+00  7.071068e-01 -7.071068e-01
    outer loop
      vertex  -2.500000e-03  4.979289e-04 -4.178119e-04
      vertex   2.500000e-03  4.178119e-04 -4.979289e-04
      vertex  -2.500000e-03  4.178119e-04 -4.979289e-04
    endloop
  endfacet
  facet normal  0.000000e+00  5.735765e-01 -8.191520e-01
    outer loop
      vertex  -2.500000e-03  4.178119e-04 -4.979289e-04
      vertex   2.500000e-03  4.178119e-04 -4.979289e-04
      vertex   2.500000e-03  3.250000e-04 -5.629165e-04
    endloop
  endfacet
  facet normal  0.000000e+00  5.735765e-01 -8.191520e-01
    outer loop
      vertex  -2.500000e-03  4.178119e-04 -4.979289e-04
      vertex   2.500000e-03  3.250000e-04 -5.629165e-04
      vertex  -2.500000e-03  3.250000e-04 -5.629165e-04
    endloop
  endfacet
  facet normal  0.000000e+00  4.226184e-01 -9.063078e-01
    outer loop
      vertex  -2.500000e-03  3.250000e-04 -5.629165e-04
      vertex   2.500000e-03  3.250000e-04 -5.629165e-04
      vertex   2.500000e-03  2.223131e-04 -6.108002e-04
    endloop
  endfacet
  facet normal  0.000000e+00  4.226184e-01 -9.063078e-01
    outer loop
      vertex  -2.500000e-03  3.250000e-04 -5.629165e-04
      vertex   2.500000e-03  2.223131e-04 -6.108002e-04
      vertex  -2.500000e-03  2.223131e-04 -6.108002e-04
    endloop
  endfacet
  facet normal  0.000000e+00  2.588187e-01 -9.659260e-01
    outer loop
      vertex  -2.500000e-03  2.223131e-04 -6.108002e-04
      vertex   2.500000e-03  2.223131e-04 -6.108002e-04
      vertex   2.500000e-03  1.128713e-04 -6.401250e-04
    endloop
  endfacet
  facet normal  0.000000e+00  2.588187e-01 -9.659260e-01
    outer loop
      vertex  -2.500000e-03  2.223131e-04 -6.108002e-04
      vertex   2.500000e-03  1.128713e-04 -6.401250e-04
      vertex  -2.500000e-03  1.128713e-04 -6.401250e-04
    endloop
  endfacet
  facet normal  0.000000e+00  8.715599e-02 -9.961947e-01
    outer loop
      vertex  -2.500000e-03  1.128713e-04 -6.401250e-04
      vertex   2.500000e-03  1.128713e-04 -6.401250e-04
      vertex   2.500000e-03 -3.980102e-20 -6.500000e-04
    endloop
  endfacet
  facet normal  0.000000e+00  8.715599e-02 -9.961947e-01
    outer loop
      vertex  -2.500000e-03  1.128713e-04 -6.401250e-04
      vertex   2.500000e-03 -3.980102e-20 -6.500000e-04
      vertex  -2.500000e-03 -3.980102e-20 -6.500000e-04
    endloop
  endfacet
  facet normal  0.000000e+00 -8.715599e-02 -9.961947e-01
    outer loop
      vertex  -2.500000e-03 -3.980102e-20 -6.500000e-04
      vertex   2.500000e-03 -3.980102e-20 -6.500000e-04
      vertex   2.500000e-03 -1.128713e-04 -6.401250e-04
    endloop
  endfacet
  facet normal  0.000000e+00 -8.715599e-02 -9.961947e-01
    outer loop
      vertex  -2.500000e-03 -3.980102e-20 -6.500000e-04
      vertex   2.500000e-03 -1.128713e-04 -6.401250e-04
      vertex  -2.500000e-03 -1.128713e-04 -6.401250e-04
    endloop
  endfacet
  facet normal  0.000000e+00 -2.588187e-01 -9.659260e-01
    outer loop
      vertex  -2.500000e-03 -1.128713e-04 -6.401250e-04
      vertex   2.500000e-03 -1.128713e-04 -6.401250e-04
      vertex   2.500000e-03 -2.223131e-04 -6.108002e-04
    endloop
  endfacet
  facet normal  0.000000e+00 -2.588187e-01 -9.659260e-01
    outer loop
      vertex  -2.500000e-03 -1.128713e-04 -6.401250e-04
      vertex   2.500000e-03 -2.223131e-04 -6.108002e-04
      vertex  -2.500000e-03 -2.223131e-04 -6.108002e-04
    endloop
  endfacet
  facet normal  0.000000e+00 -4.226184e-01 -9.063078e-01
    outer loop
      vertex  -2.500000e-03 -2.223131e-04 -6.108002e-04
      vertex   2.500000e-03 -2.223131e-04 -6.108002e-04
      vertex   2.500000e-03 -3.250000e-04 -5.629165e-04
    endloop
  endfacet
  facet normal  0.000000e+00 -4.226184e-01 -9.063078e-01
    outer loop
      vertex  -2.500000e-03 -2.223131e-04 -6.108002e-04
      vertex   2.500000e-03 -3.250000e-04 -5.629165e-04
      vertex  -2.500000e-03 -3.250000e-04 -5.629165e-04
    endloop
  endfacet
  facet normal  0.000000e+00 -5.735765e-01 -8.191520e-01
    outer loop
      vertex  -2.500000e-03 -3.250000e-04 -5.629165e-04
      vertex   2.500000e-03 -3.250000e-04 -5.629165e-04
      vertex   2.500000e-03 -4.178119e-04 -4.979289e-04
    endloop
  endfacet
  facet normal  0.000000e+00 -5.735765e-01 -8.191520e-01
    outer loop
      vertex  -2.500000e-03 -3.250000e-04 -5.629165e-04
      vertex   2.500000e-03 -4.178119e-04 -4.979289e-04
      vertex  -2.500000e-03 -4.178119e-04 -4.979289e-04
    endloop
  endfacet
  facet normal  0.000000e+00 -7.071068e-01 -7.071068e-01
    outer loop
      vertex  -2.500000e-03 -4.178119e-04 -4.979289e-04
      vertex   2.500000e-03 -4.178119e-04 -4.979289e-04
      vertex   2.500000e-03 -4.979289e-04 -4.178119e-04
    endloop
  endfacet
  facet normal  0.000000e+00 -7.071068e-01 -7.071068e-01
    outer loop
      vertex  -2.500000e-03 -4.178119e-04 -4.979289e-04
      vertex   2.500000e-03 -4.979289e-04 -4.178119e-04
      vertex  -2.500000e-03 -4.979289e-04 -4.178119e-04
    endloop
  endfacet
  facet normal  0.000000e+00 -8.191520e-01 -5.735765e-01
    outer loop
      vertex  -2.500000e-03 -4.979289e-04 -4.178119e-04
      vertex   2.500000e-03 -4.979289e-04 -4.178119e-04
      vertex   2.500000e-03 -5.629165e-04 -3.250000e-04
    endloop
  endfacet
  facet normal  0.000000e+00 -8.191520e-01 -5.735765e-01
    outer loop
      vertex  -2.500000e-03 -4.979289e-04 -4.178119e-04
      vertex   2.500000e-03 -5.629165e-04 -3.250000e-04
      vertex  -2.500000e-03 -5.629165e-04 -3.250000e-04
    endloop
  endfacet
  facet normal  0.000000e+00 -9.063078e-01 -4.226184e-01
    outer loop
      vertex  -2.500000e-03 -5.629165e-04 -3.250000e-04
      vertex   2.500000e-03 -5.629165e-04 -3.250000e-04
      vertex   2.500000e-03 -6.108002e-04 -2.223131e-04
    endloop
  endfacet
  facet normal  0.000000e+00 -9.063078e-01 -4.226184e-01
    outer loop
      vertex  -2.500000e-03 -5.629165e-04 -3.250000e-04
      vertex   2.500000e-03 -6.108002e-04 -2.223131e-04
      vertex  -2.500000e-03 -6.108002e-04 -2.223131e-04
    endloop
  endfacet
  facet normal  0.000000e+00 -9.659260e-01 -2.588187e-01
    outer loop
      vertex  -2.500000e-03 -6.108002e-04 -2.223131e-04
      vertex   2.500000e-03 -6.108002e-04 -2.223131e-04
      vertex   2.500000e-03 -6.401250e-04 -1.128713e-04
    endloop
  endfacet
  facet normal  0.000000e+00 -9.659260e-01 -2.588187e-01
    outer loop
      vertex  -2.500000e-03 -6.108002e-04 -2.223131e-04
      vertex   2.500000e-03 -6.401250e-04 -1.128713e-04
      vertex  -2.500000e-03 -6.401250e-04 -1.128713e-04
    endloop
  endfacet
  facet normal  0.000000e+00 -9.961947e-01 -8.715599e-02
    outer loop
      vertex  -2.500000e-03 -6.401250e-04 -1.128713e-04
      vertex   2.500000e-03 -6.401250e-04 -1.128713e-04
      vertex   2.500000e-03 -6.500000e-04  0.000000e+00
    endloop
  endfacet
  facet normal -1.000000e+00  0.000000e+00 -0.000000e+00
    outer loop
      vertex  -2.500000e-03  4.178119e-04  4.979289e-04
      vertex  -2.500000e-03  4.979289e-04  4.178119e-04
      vertex  -2.500000e-03 -3.250000e-04 -5.629165e-04
    endloop
  endfacet
  facet normal -1.000000e+00  0.000000e+00 -0.000000e+00
    outer loop
      vertex  -2.500000e-03  4.979289e-04  4.178119e-04
      vertex  -2.500000e-03  5.629165e-04  3.250000e-04
      vertex  -2.500000e-03 -3.250000e-04 -5.629165e-04
    endloop
  endfacet
  facet normal -1.000000e+00  0.000000e+00  0.000000e+00
    outer loop
      vertex  -2.500000e-03 -3.250000e-04 -5.629165e-04
      vertex  -2.500000e-03  5.629165e-04  3.250000e-04
      vertex  -2.500000e-03  6.108002e-04  2.223131e-04
    endloop
  endfacet
  facet normal -1.000000e+00  0.000000e+00  0.000000e+00
    outer loop
      vertex  -2.500000e-03 -3.250000e-04 -5.629165e-04
      vertex  -2.500000e-03  6.108002e-04  2.223131e-04
      vertex  -2.500000e-03  6.401250e-04  1.128713e-04
    endloop
  endfacet
  facet normal -1.000000e+00 -0.000000e+00  0.000000e+00
    outer loop
      vertex  -2.500000e-03  4.178119e-04  4.979289e-04
      vertex  -2.500000e-03 -3.250000e-04 -5.629165e-04
      vertex  -2.500000e-03  3.250000e-04  5.629165e-04
    endloop
  endfacet
  facet normal -1.000000e+00  0.000000e+00  0.000000e+00
    outer loop
      vertex  -2.500000e-03  3.250000e-04  5.629165e-04
      vertex  -2.500000e-03 -3.250000e-04 -5.629165e-04
      vertex  -2.500000e-03 -4.178119e-04 -4.979289e-04
    endloop
  endfacet
  facet normal -1.000000e+00  0.000000e+00  0.000000e+00
    outer loop
      vertex  -2.500000e-03  3.250000e-04  5.629165e-04
      vertex  -2.500000e-03 -4.178119e-04 -4.979289e-04
      vertex  -2.500000e-03 -4.979289e-04 -4.178119e-04
    endloop
  endfacet
  facet normal -1.000000e+00  0.000000e+00  0.000000e+00
    outer loop
      vertex  -2.500000e-03 -4.979289e-04 -4.178119e-04
      vertex  -2.500000e-03 -5.629165e-04 -3.250000e-04
      vertex  -2.500000e-03  3.250000e-04  5.629165e-04
    endloop
  endfacet
  facet normal -1.000000e+00  0.000000e+00  0.000000e+00
    outer loop
      vertex  -2.500000e-03  3.250000e-04  5.629165e-04
      vertex  -2.500000e-03 -5.629165e-04 -3.250000e-04
      vertex  -2.500000e-03 -6.108002e-04 -2.223131e-04
    endloop
  endfacet
  facet normal -1.000000e+00  0.000000e+00  0.000000e+00
    outer loop
      vertex  -2.500000e-03  3.250000e-04  5.629165e-04
      vertex  -2.500000e-03 -6.108002e-04 -2.223131e-04
      vertex  -2.500000e-03 -6.401250e-04 -1.128713e-04
    endloop
  endfacet
  facet normal -1.000000e+00  0.000000e+00  0.000000e+00
    outer loop
      vertex  -2.500000e-03 -6.401250e-04 -1.128713e-04
      vertex  -2.500000e-03 -6.500000e-04  0.000000e+00
      vertex  -2.500000e-03  3.250000e-04  5.629165e-04
    endloop
  endfacet
  facet normal -1.000000e+00  0.000000e+00  0.000000e+00
    outer loop
      vertex  -2.500000e-03  3.250000e-04  5.629165e-04
      vertex  -2.500000e-03 -6.500000e-04  0.000000e+00
      vertex  -2.500000e-03 -6.401250e-04  1.128713e-04
    endloop
  endfacet
  facet normal -1.000000e+00  0.000000e+00  0.000000e+00
    outer loop
      vertex  -2.500000e-03  3.250000e-04  5.629165e-04
      vertex  -2.500000e-03 -6.401250e-04  1.128713e-04
      vertex  -2.500000e-03 -6.108002e-04  2.223131e-04
    endloop
  endfacet
  facet normal -1.000000e+00 -0.000000e+00  0.000000e+00
    outer loop
      vertex  -2.500000e-03  1.128713e-04 -6.401250e-04
      vertex  -2.500000e-03 -3.980102e-20 -6.500000e-04
      vertex  -2.500000e-03  6.401250e-04  1.128713e-04
    endloop
  endfacet
  facet normal -1.000000e+00  0.000000e+00  0.000000e+00
    outer loop
      vertex  -2.500000e-03  6.401250e-04 -1.128713e-04
      vertex  -2.500000e-03  6.108002e-04 -2.223131e-04
      vertex  -2.500000e-03  2.223131e-04 -6.108002e-04
    endloop
  endfacet
  facet normal -1.000000e+00  0.000000e+00  0.000000e+00
    outer loop
      vertex  -2.500000e-03 -6.108002e-04  2.223131e-04
      vertex  -2.500000e-03 -5.629165e-04  3.250000e-04
      vertex  -2.500000e-03  3.250000e-04  5.629165e-04
    endloop
  endfacet
  facet normal -1.000000e+00  0.000000e+00  0.000000e+00
    outer loop
      vertex  -2.500000e-03  3.250000e-04  5.629165e-04
      vertex  -2.500000e-03 -5.629165e-04  3.250000e-04
      vertex  -2.500000e-03 -4.979289e-04  4.178119e-04
    endloop
  endfacet
  facet normal -1.000000e+00  0.000000e+00  0.000000e+00
    outer loop
      vertex  -2.500000e-03  3.250000e-04  5.629165e-04
      vertex  -2.500000e-03 -4.979289e-04  4.178119e-04
      vertex  -2.500000e-03 -4.178119e-04  4.979289e-04
    endloop
  endfacet
  facet normal -1.000000e+00  0.000000e+00  0.000000e+00
    outer loop
      vertex  -2.500000e-03 -4.178119e-04  4.979289e-04
      vertex  -2.500000e-03 -3.250000e-04  5.629165e-04
      vertex  -2.500000e-03  3.250000e-04  5.629165e-04
    endloop
  endfacet
  facet normal -1.000000e+00  0.000000e+00  0.000000e+00
    outer loop
      vertex  -2.500000e-03  3.250000e-04  5.629165e-04
      vertex  -2.500000e-03 -3.250000e-04  5.629165e-04
      vertex  -2.500000e-03 -2.223131e-04  6.108002e-04
    endloop
  endfacet
  facet normal -1.000000e+00  0.000000e+00  0.000000e+00
    outer loop
      vertex  -2.500000e-03  3.250000e-04  5.629165e-04
      vertex  -2.500000e-03 -2.223131e-04  6.108002e-04
      vertex  -2.500000e-03 -1.128713e-04  6.401250e-04
    endloop
  endfacet
  facet normal -1.000000e+00  0.000000e+00  0.000000e+00
    outer loop
      vertex  -2.500000e-03  1.128713e-04 -6.401250e-04
      vertex  -2.500000e-03  6.401250e-04  1.128713e-04
      vertex  -2.500000e-03  2.223131e-04 -6.108002e-04
    endloop
  endfacet
  facet normal -1.000000e+00  0.000000e+00  0.000000e+00
    outer loop
      vertex  -2.500000e-03  2.223131e-04 -6.108002e-04
      vertex  -2.500000e-03  6.401250e-04  1.128713e-04
      vertex  -2.500000e-03  6.500000e-04 -7.960204e-20
    endloop
  endfacet
  facet normal -1.000000e+00  0.000000e+00  0.000000e+00
    outer loop
      vertex  -2.500000e-03  2.223131e-04 -6.108002e-04
      vertex  -2.500000e-03  6.500000e-04 -7.960204e-20
      vertex  -2.500000e-03  6.401250e-04 -1.128713e-04
    endloop
  endfacet
  facet normal -1.000000e+00  0.000000e+00  0.000000e+00
    outer loop
      vertex  -2.500000e-03 -3.980102e-20 -6.500000e-04
      vertex  -2.500000e-03 -1.128713e-04 -6.401250e-04
      vertex  -2.500000e-03  6.401250e-04  1.128713e-04
    endloop
  endfacet
  facet normal -1.000000e+00  0.000000e+00  0.000000e+00
    outer loop
      vertex  -2.500000e-03  6.401250e-04  1.128713e-04
      vertex  -2.500000e-03 -1.128713e-04 -6.401250e-04
      vertex  -2.500000e-03 -2.223131e-04 -6.108002e-04
    endloop
  endfacet
  facet normal -1.000000e+00  0.000000e+00  0.000000e+00
    outer loop
      vertex  -2.500000e-03  6.401250e-04  1.128713e-04
      vertex  -2.500000e-03 -2.223131e-04 -6.108002e-04
      vertex  -2.500000e-03 -3.250000e-04 -5.629165e-04
    endloop
  endfacet
  facet normal -1.000000e+00  0.000000e+00  0.000000e+00
    outer loop
      vertex  -2.500000e-03 -1.128713e-04  6.401250e-04
      vertex  -2.500000e-03  1.194031e-19  6.500000e-04
      vertex  -2.500000e-03  3.250000e-04  5.629165e-04
    endloop
  endfacet
  facet normal -1.000000e+00  0.000000e+00  0.000000e+00
    outer loop
      vertex  -2.500000e-03  3.250000e-04  5.629165e-04
      vertex  -2.500000e-03  1.194031e-19  6.500000e-04
      vertex  -2.500000e-03  1.128713e-04  6.401250e-04
    endloop
  endfacet
  facet normal -1.000000e+00  0.000000e+00  0.000000e+00
    outer loop
      vertex  -2.500000e-03  3.250000e-04  5.629165e-04
      vertex  -2.500000e-03  1.128713e-04  6.401250e-04
      vertex  -2.500000e-03  2.223131e-04  6.108002e-04
    endloop
  endfacet
  facet normal -1.000000e+00  0.000000e+00  0.000000e+00
    outer loop
      vertex  -2.500000e-03  6.108002e-04 -2.223131e-04
      vertex  -2.500000e-03  5.629165e-04 -3.250000e-04
      vertex  -2.500000e-03  2.223131e-04 -6.108002e-04
    endloop
  endfacet
  facet normal -1.000000e+00  0.000000e+00  0.000000e+00
    outer loop
      vertex  -2.500000e-03  2.223131e-04 -6.108002e-04
      vertex  -2.500000e-03  5.629165e-04 -3.250000e-04
      vertex  -2.500000e-03  4.979289e-04 -4.178119e-04
    endloop
  endfacet
  facet normal -1.000000e+00  0.000000e+00  0.000000e+00
    outer loop
      vertex  -2.500000e-03  2.223131e-04 -6.108002e-04
      vertex  -2.500000e-03  4.979289e-04 -4.178119e-04
      vertex  -2.500000e-03  3.250000e-04 -5.629165e-04
    endloop
  endfacet
  facet normal -1.000000e+00  0.000000e+00  0.000000e+00
    outer loop
      vertex  -2.500000e-03  3.250000e-04 -5.629165e-04
      vertex  -2.500000e-03  4.979289e-04 -4.178119e-04
      vertex  -2.500000e-03  4.178119e-04 -4.979289e-04
    endloop
  endfacet
  facet normal  1.000000e+00  0.000000e+00  0.000000e+00
    outer loop
      vertex   2.500000e-03  4.178119e-04  4.979289e-04
      vertex   2.500000e-03  3.250000e-04  5.629165e-04
      vertex   2.500000e-03 -3.250000e-04 -5.629165e-04
    endloop
  endfacet
  facet normal  1.000000e+00 -0.000000e+00  0.000000e+00
    outer loop
      vertex   2.500000e-03 -1.128713e-04 -6.401250e-04
      vertex   2.500000e-03 -3.980102e-20 -6.500000e-04
      vertex   2.500000e-03  4.979289e-04  4.178119e-04
    endloop
  endfacet
  facet normal  1.000000e+00  0.000000e+00 -0.000000e+00
    outer loop
      vertex   2.500000e-03 -3.250000e-04 -5.629165e-04
      vertex   2.500000e-03  3.250000e-04  5.629165e-04
      vertex   2.500000e-03 -4.178119e-04 -4.979289e-04
    endloop
  endfacet
  facet normal  1.000000e+00  0.000000e+00  0.000000e+00
    outer loop
      vertex   2.500000e-03 -4.178119e-04 -4.979289e-04
      vertex   2.500000e-03  3.250000e-04  5.629165e-04
      vertex   2.500000e-03  2.223131e-04  6.108002e-04
    endloop
  endfacet
  facet normal  1.000000e+00  0.000000e+00  0.000000e+00
    outer loop
      vertex   2.500000e-03 -4.178119e-04 -4.979289e-04
      vertex   2.500000e-03  2.223131e-04  6.108002e-04
      vertex   2.500000e-03  1.128713e-04  6.401250e-04
    endloop
  endfacet
  facet normal  1.000000e+00  0.000000e+00  0.000000e+00
    outer loop
      vertex   2.500000e-03  1.128713e-04  6.401250e-04
      vertex   2.500000e-03  1.194031e-19  6.500000e-04
      vertex   2.500000e-03 -4.178119e-04 -4.979289e-04
    endloop
  endfacet
  facet normal  1.000000e+00  0.000000e+00  0.000000e+00
    outer loop
      vertex   2.500000e-03 -4.178119e-04 -4.979289e-04
      vertex   2.500000e-03  1.194031e-19  6.500000e-04
      vertex   2.500000e-03 -1.128713e-04  6.401250e-04
    endloop
  endfacet
  facet normal  1.000000e+00  0.000000e+00  0.000000e+00
    outer loop
      vertex   2.500000e-03 -4.178119e-04 -4.979289e-04
      vertex   2.500000e-03 -1.128713e-04  6.401250e-04
      vertex   2.500000e-03 -2.223131e-04  6.108002e-04
    endloop
  endfacet
  facet normal  1.000000e+00  0.000000e+00  0.000000e+00
    outer loop
      vertex   2.500000e-03  4.178119e-04  4.979289e-04
      vertex   2.500000e-03 -3.250000e-04 -5.629165e-04
      vertex   2.500000e-03  4.979289e-04  4.178119e-04
    endloop
  endfacet
  facet normal  1.000000e+00  0.000000e+00  0.000000e+00
    outer loop
      vertex   2.500000e-03  4.979289e-04  4.178119e-04
      vertex   2.500000e-03 -3.250000e-04 -5.629165e-04
      vertex   2.500000e-03 -2.223131e-04 -6.108002e-04
    endloop
  endfacet
  facet normal  1.000000e+00  0.000000e+00  0.000000e+00
    outer loop
      vertex   2.500000e-03  4.979289e-04  4.178119e-04
      vertex   2.500000e-03 -2.223131e-04 -6.108002e-04
      vertex   2.500000e-03 -1.128713e-04 -6.401250e-04
    endloop
  endfacet
  facet normal  1.000000e+00  0.000000e+00  0.000000e+00
    outer loop
      vertex   2.500000e-03  4.178119e-04 -4.979289e-04
      vertex   2.500000e-03  4.979289e-04 -4.178119e-04
      vertex   2.500000e-03  6.401250e-04  1.128713e-04
    endloop
  endfacet
  facet normal  1.000000e+00  0.000000e+00  0.000000e+00
    outer loop
      vertex   2.500000e-03 -3.980102e-20 -6.500000e-04
      vertex   2.500000e-03  1.128713e-04 -6.401250e-04
      vertex   2.500000e-03  4.979289e-04  4.178119e-04
    endloop
  endfacet
  facet normal  1.000000e+00  0.000000e+00  0.000000e+00
    outer loop
      vertex   2.500000e-03  4.979289e-04  4.178119e-04
      vertex   2.500000e-03  1.128713e-04 -6.401250e-04
      vertex   2.500000e-03  2.223131e-04 -6.108002e-04
    endloop
  endfacet
  facet normal  1.000000e+00  0.000000e+00  0.000000e+00
    outer loop
      vertex   2.500000e-03  4.979289e-04  4.178119e-04
      vertex   2.500000e-03  2.223131e-04 -6.108002e-04
      vertex   2.500000e-03  5.629165e-04  3.250000e-04
    endloop
  endfacet
  facet normal  1.000000e+00  0.000000e+00  0.000000e+00
    outer loop
      vertex   2.500000e-03  5.629165e-04  3.250000e-04
      vertex   2.500000e-03  2.223131e-04 -6.108002e-04
      vertex   2.500000e-03  6.108002e-04  2.223131e-04
    endloop
  endfacet
  facet normal  1.000000e+00  0.000000e+00  0.000000e+00
    outer loop
      vertex   2.500000e-03  6.108002e-04  2.223131e-04
      vertex   2.500000e-03  2.223131e-04 -6.108002e-04
      vertex   2.500000e-03  6.401250e-04  1.128713e-04
    endloop
  endfacet
  facet normal  1.000000e+00  0.000000e+00  0.000000e+00
    outer loop
      vertex   2.500000e-03  6.401250e-04  1.128713e-04
      vertex   2.500000e-03  2.223131e-04 -6.108002e-04
      vertex   2.500000e-03  3.250000e-04 -5.629165e-04
    endloop
  endfacet
  facet normal  1.000000e+00  0.000000e+00  0.000000e+00
    outer loop
      vertex   2.500000e-03  6.401250e-04  1.128713e-04
      vertex   2.500000e-03  3.250000e-04 -5.629165e-04
      vertex   2.500000e-03  4.178119e-04 -4.979289e-04
    endloop
  endfacet
  facet normal  1.000000e+00  0.000000e+00  0.000000e+00
    outer loop
      vertex   2.500000e-03 -2.223131e-04  6.108002e-04
      vertex   2.500000e-03 -3.250000e-04  5.629165e-04
      vertex   2.500000e-03 -4.178119e-04 -4.979289e-04
    endloop
  endfacet
  facet normal  1.000000e+00  0.000000e+00  0.000000e+00
    outer loop
      vertex   2.500000e-03 -4.178119e-04 -4.979289e-04
      vertex   2.500000e-03 -3.250000e-04  5.629165e-04
      vertex   2.500000e-03 -4.178119e-04  4.979289e-04
    endloop
  endfacet
  facet normal  1.000000e+00  0.000000e+00 -0.000000e+00
    outer loop
      vertex   2.500000e-03 -4.178119e-04 -4.979289e-04
      vertex   2.500000e-03 -4.178119e-04  4.979289e-04
      vertex   2.500000e-03 -4.979289e-04  4.178119e-04
    endloop
  endfacet
  facet normal  1.000000e+00  0.000000e+00  0.000000e+00
    outer loop
      vertex   2.500000e-03  4.979289e-04 -4.178119e-04
      vertex   2.500000e-03  5.629165e-04 -3.250000e-04
      vertex   2.500000e-03  6.401250e-04  1.128713e-04
    endloop
  endfacet
  facet normal  1.000000e+00  0.000000e+00  0.000000e+00
    outer loop
      vertex   2.500000e-03  6.401250e-04  1.128713e-04
      vertex   2.500000e-03  5.629165e-04 -3.250000e-04
      vertex   2.500000e-03  6.108002e-04 -2.223131e-04
    endloop
  endfacet
  facet normal  1.000000e+00  0.000000e+00  0.000000e+00
    outer loop
      vertex   2.500000e-03  6.401250e-04  1.128713e-04
      vertex   2.500000e-03  6.108002e-04 -2.223131e-04
      vertex   2.500000e-03  6.500000e-04 -2.388061e-19
    endloop
  endfacet
  facet normal  1.000000e+00  0.000000e+00  0.000000e+00
    outer loop
      vertex   2.500000e-03  6.500000e-04 -2.388061e-19
      vertex   2.500000e-03  6.108002e-04 -2.223131e-04
      vertex   2.500000e-03  6.401250e-04 -1.128713e-04
    endloop
  endfacet
  facet normal  1.000000e+00  0.000000e+00  0.000000e+00
    outer loop
      vertex   2.500000e-03 -6.108002e-04  2.223131e-04
      vertex   2.500000e-03 -6.401250e-04  1.128713e-04
      vertex   2.500000e-03 -6.500000e-04  0.000000e+00
    endloop
  endfacet
  facet normal  1.000000e+00 -0.000000e+00  0.000000e+00
    outer loop
      vertex   2.500000e-03 -6.500000e-04  0.000000e+00
      vertex   2.500000e-03 -6.401250e-04 -1.128713e-04
      vertex   2.500000e-03 -6.108002e-04  2.223131e-04
    endloop
  endfacet
  facet normal  1.000000e+00  0.000000e+00  0.000000e+00
    outer loop
      vertex   2.500000e-03 -6.108002e-04  2.223131e-04
      vertex   2.500000e-03 -6.401250e-04 -1.128713e-04
      vertex   2.500000e-03 -6.108002e-04 -2.223131e-04
    endloop
  endfacet
  facet normal  1.000000e+00  0.000000e+00  0.000000e+00
    outer loop
      vertex   2.500000e-03 -6.108002e-04  2.223131e-04
      vertex   2.500000e-03 -6.108002e-04 -2.223131e-04
      vertex   2.500000e-03 -5.629165e-04 -3.250000e-04
    endloop
  endfacet
  facet normal  1.000000e+00  0.000000e+00  0.000000e+00
    outer loop
      vertex   2.500000e-03 -4.979289e-04  4.178119e-04
      vertex   2.500000e-03 -5.629165e-04  3.250000e-04
      vertex   2.500000e-03 -4.178119e-04 -4.979289e-04
    endloop
  endfacet
  facet normal  1.000000e+00  0.000000e+00  0.000000e+00
    outer loop
      vertex   2.500000e-03 -4.178119e-04 -4.979289e-04
      vertex   2.500000e-03 -5.629165e-04  3.250000e-04
      vertex   2.500000e-03 -6.108002e-04  2.223131e-04
    endloop
  endfacet
  facet normal  1.000000e+00  0.000000e+00  0.000000e+00
    outer loop
      vertex   2.500000e-03 -4.178119e-04 -4.979289e-04
      vertex   2.500000e-03 -6.108002e-04  2.223131e-04
      vertex   2.500000e-03 -4.979289e-04 -4.178119e-04
    endloop
  endfacet
  facet normal  1.000000e+00  0.000000e+00  0.000000e+00
    outer loop
      vertex   2.500000e-03 -4.979289e-04 -4.178119e-04
      vertex   2.500000e-03 -6.108002e-04  2.223131e-04
      vertex   2.500000e-03 -5.629165e-04 -3.250000e-04
    endloop
  endfacet
endsolid vcg
