solid AssimpScene
 facet normal 0.996214 0.0869338 0
  outer loop
  vertex -0 0.0065 0.344
  vertex -0 0.0065 0
  vertex -6.8148e-05 0.00701764 0
  endloop
 endfacet

 facet normal 0.996214 0.0869338 0
  outer loop
  vertex -6.8148e-05 0.00701764 0.374
  vertex -0 0.0065 0.374
  vertex -0 0.0065 0.344
  endloop
 endfacet

 facet normal 0.984769 0.173868 0
  outer loop
  vertex -0 0.0065 0.344
  vertex -6.8148e-05 0.00701764 0
  vertex -6.8148e-05 0.00701764 0.374
  endloop
 endfacet

 facet normal 0.939769 0.341811 0
  outer loop
  vertex -6.8148e-05 0.00701764 0.374
  vertex -6.8148e-05 0.00701764 0
  vertex -0.000267949 0.0075 0
  endloop
 endfacet

 facet normal 0.906214 0.42282 0
  outer loop
  vertex -6.8148e-05 0.00701764 0.374
  vertex -0.000267949 0.0075 0
  vertex -0.000267949 0.0075 0.374
  endloop
 endfacet

 facet normal 0.81928 0.573394 0
  outer loop
  vertex -0.000267949 0.0075 0.374
  vertex -0.000267949 0.0075 0
  vertex -0.000585786 0.00791421 0
  endloop
 endfacet

 facet normal 0.765901 0.642958 0
  outer loop
  vertex -0.000267949 0.0075 0.374
  vertex -0.000585786 0.00791421 0
  vertex -0.000585786 0.00791421 0.374
  endloop
 endfacet

 facet normal 0.642958 0.765901 0
  outer loop
  vertex -0.000585786 0.00791421 0.374
  vertex -0.000585786 0.00791421 0
  vertex -0.001 0.00823205 0
  endloop
 endfacet

 facet normal 0.573394 0.81928 0
  outer loop
  vertex -0.000585786 0.00791421 0.374
  vertex -0.001 0.00823205 0
  vertex -0.001 0.00823205 0.374
  endloop
 endfacet

 facet normal 0.42282 0.906214 0
  outer loop
  vertex -0.001 0.00823205 0.374
  vertex -0.001 0.00823205 0
  vertex -0.00148236 0.00843185 0
  endloop
 endfacet

 facet normal 0.341811 0.939769 0
  outer loop
  vertex -0.001 0.00823205 0.374
  vertex -0.00148236 0.00843185 0
  vertex -0.00148236 0.00843185 0.374
  endloop
 endfacet

 facet normal 0.173868 0.984769 0
  outer loop
  vertex -0.00148236 0.00843185 0.374
  vertex -0.00148236 0.00843185 0
  vertex -0.002 0.0085 0
  endloop
 endfacet

 facet normal 0.0869338 0.996214 0
  outer loop
  vertex -0.00148236 0.00843185 0.374
  vertex -0.002 0.0085 0
  vertex -0.002 0.0085 0.374
  endloop
 endfacet

 facet normal 0 1 0
  outer loop
  vertex -0.015 0.0085 0.374
  vertex -0.002 0.0085 0.374
  vertex -0.015 0.0085 0
  endloop
 endfacet

 facet normal 0 1 0
  outer loop
  vertex -0.015 0.0085 0
  vertex -0.002 0.0085 0.374
  vertex -0.002 0.0085 0
  endloop
 endfacet

 facet normal -0.996214 0.0869338 0
  outer loop
  vertex -0.017 0.0065 0.344
  vertex -0.017 0.0065 0.374
  vertex -0.0169319 0.00701764 0.374
  endloop
 endfacet

 facet normal -0.906214 0.42282 0
  outer loop
  vertex -0.0169319 0.00701764 0
  vertex -0.0167321 0.0075 0.374
  vertex -0.0167321 0.0075 0
  endloop
 endfacet

 facet normal -0.81928 0.573394 0
  outer loop
  vertex -0.0167321 0.0075 0
  vertex -0.0167321 0.0075 0.374
  vertex -0.0164142 0.00791421 0.374
  endloop
 endfacet

 facet normal -0.765901 0.642958 0
  outer loop
  vertex -0.0167321 0.0075 0
  vertex -0.0164142 0.00791421 0.374
  vertex -0.0164142 0.00791421 0
  endloop
 endfacet

 facet normal -0.642958 0.765901 0
  outer loop
  vertex -0.0164142 0.00791421 0
  vertex -0.0164142 0.00791421 0.374
  vertex -0.016 0.00823205 0.374
  endloop
 endfacet

 facet normal -0.573394 0.81928 0
  outer loop
  vertex -0.0164142 0.00791421 0
  vertex -0.016 0.00823205 0.374
  vertex -0.016 0.00823205 0
  endloop
 endfacet

 facet normal -0.42282 0.906214 0
  outer loop
  vertex -0.016 0.00823205 0
  vertex -0.016 0.00823205 0.374
  vertex -0.0155176 0.00843185 0.374
  endloop
 endfacet

 facet normal -0.341811 0.939769 0
  outer loop
  vertex -0.016 0.00823205 0
  vertex -0.0155176 0.00843185 0.374
  vertex -0.0155176 0.00843185 0
  endloop
 endfacet

 facet normal -0.173868 0.984769 0
  outer loop
  vertex -0.0155176 0.00843185 0
  vertex -0.0155176 0.00843185 0.374
  vertex -0.015 0.0085 0.374
  endloop
 endfacet

 facet normal -0.0869338 0.996214 0
  outer loop
  vertex -0.0155176 0.00843185 0
  vertex -0.015 0.0085 0.374
  vertex -0.015 0.0085 0
  endloop
 endfacet

 facet normal -0.996214 0.0869338 0
  outer loop
  vertex -0.017 0.0065 0
  vertex -0.017 0.0065 0.344
  vertex -0.0169319 0.00701764 0
  endloop
 endfacet

 facet normal -0.984769 0.173868 0
  outer loop
  vertex -0.0169319 0.00701764 0
  vertex -0.017 0.0065 0.344
  vertex -0.0169319 0.00701764 0.374
  endloop
 endfacet

 facet normal -0.939769 0.341811 0
  outer loop
  vertex -0.0169319 0.00701764 0
  vertex -0.0169319 0.00701764 0.374
  vertex -0.0167321 0.0075 0.374
  endloop
 endfacet

 facet normal -1 0 0
  outer loop
  vertex -0.017 -0.0065 0.344
  vertex -0.017 -0.00125 0.0111651
  vertex -0.017 -0.00176777 0.0107678
  endloop
 endfacet

 facet normal -1 0 0
  outer loop
  vertex -0.017 -0.00241481 0.00835295
  vertex -0.017 -0.00216506 0.00775
  vertex -0.017 -0.0065 0
  endloop
 endfacet

 facet normal -1 0 0
  outer loop
  vertex -0.017 -0.0065 0
  vertex -0.017 -0.00216506 0.00775
  vertex -0.017 -0.00176777 0.00723223
  endloop
 endfacet

 facet normal -1 0 0
  outer loop
  vertex -0.017 -0.0065 0
  vertex -0.017 -0.00176777 0.00723223
  vertex -0.017 -0.00125 0.00683494
  endloop
 endfacet

 facet normal -1 0 0
  outer loop
  vertex -0.017 0.00176777 0.0107678
  vertex -0.017 0.00125 0.0111651
  vertex -0.017 0.0065 0.344
  endloop
 endfacet

 facet normal -1 0 0
  outer loop
  vertex -0.017 0.00125 0.00683494
  vertex -0.017 0.00176777 0.00723223
  vertex -0.017 0.0065 0
  endloop
 endfacet

 facet normal -1 0 0
  outer loop
  vertex -0.017 0.0065 0
  vertex -0.017 0.00176777 0.00723223
  vertex -0.017 0.00216506 0.00775
  endloop
 endfacet

 facet normal -1 0 0
  outer loop
  vertex -0.017 0.0065 0
  vertex -0.017 0.00216506 0.00775
  vertex -0.017 0.00241481 0.00835295
  endloop
 endfacet

 facet normal -1 0 0
  outer loop
  vertex -0.017 0.00125 0.0111651
  vertex -0.017 0.000647048 0.0114148
  vertex -0.017 0.0065 0.344
  endloop
 endfacet

 facet normal -1 0 0
  outer loop
  vertex -0.017 0.0065 0.344
  vertex -0.017 0.000647048 0.0114148
  vertex -0.017 -0 0.0115
  endloop
 endfacet

 facet normal -1 0 0
  outer loop
  vertex -0.017 0.0065 0.344
  vertex -0.017 -0 0.0115
  vertex -0.017 -0.0065 0.344
  endloop
 endfacet

 facet normal -1 0 0
  outer loop
  vertex -0.017 -0.0065 0.344
  vertex -0.017 -0 0.0115
  vertex -0.017 -0.000647048 0.0114148
  endloop
 endfacet

 facet normal -1 0 0
  outer loop
  vertex -0.017 -0.0065 0.344
  vertex -0.017 -0.000647048 0.0114148
  vertex -0.017 -0.00125 0.0111651
  endloop
 endfacet

 facet normal -1 0 0
  outer loop
  vertex -0.017 -0.00176777 0.0107678
  vertex -0.017 -0.00216506 0.01025
  vertex -0.017 -0.0065 0.344
  endloop
 endfacet

 facet normal -1 0 0
  outer loop
  vertex -0.017 -0.0065 0.344
  vertex -0.017 -0.00216506 0.01025
  vertex -0.017 -0.00241481 0.00964705
  endloop
 endfacet

 facet normal -1 0 0
  outer loop
  vertex -0.017 -0.0065 0.344
  vertex -0.017 -0.00241481 0.00964705
  vertex -0.017 -0.0065 0
  endloop
 endfacet

 facet normal -1 0 0
  outer loop
  vertex -0.017 -0.0065 0
  vertex -0.017 -0.00241481 0.00964705
  vertex -0.017 -0.0025 0.009
  endloop
 endfacet

 facet normal -1 0 0
  outer loop
  vertex -0.017 -0.0065 0
  vertex -0.017 -0.0025 0.009
  vertex -0.017 -0.00241481 0.00835295
  endloop
 endfacet

 facet normal -1 0 0
  outer loop
  vertex -0.017 -0.00125 0.00683494
  vertex -0.017 -0.000647048 0.00658518
  vertex -0.017 -0.0065 0
  endloop
 endfacet

 facet normal -1 0 0
  outer loop
  vertex -0.017 -0.0065 0
  vertex -0.017 -0.000647048 0.00658518
  vertex -0.017 -0 0.0065
  endloop
 endfacet

 facet normal -1 0 0
  outer loop
  vertex -0.017 -0.0065 0
  vertex -0.017 -0 0.0065
  vertex -0.017 0.0065 0
  endloop
 endfacet

 facet normal -1 0 0
  outer loop
  vertex -0.017 0.0065 0
  vertex -0.017 -0 0.0065
  vertex -0.017 0.000647048 0.00658518
  endloop
 endfacet

 facet normal -1 0 0
  outer loop
  vertex -0.017 0.0065 0
  vertex -0.017 0.000647048 0.00658518
  vertex -0.017 0.00125 0.00683494
  endloop
 endfacet

 facet normal -1 0 0
  outer loop
  vertex -0.017 0.00241481 0.00835295
  vertex -0.017 0.0025 0.009
  vertex -0.017 0.0065 0
  endloop
 endfacet

 facet normal -1 0 0
  outer loop
  vertex -0.017 0.0065 0
  vertex -0.017 0.0025 0.009
  vertex -0.017 0.00241481 0.00964705
  endloop
 endfacet

 facet normal -1 0 0
  outer loop
  vertex -0.017 0.0065 0
  vertex -0.017 0.00241481 0.00964705
  vertex -0.017 0.0065 0.344
  endloop
 endfacet

 facet normal -1 0 0
  outer loop
  vertex -0.017 0.0065 0.344
  vertex -0.017 0.00241481 0.00964705
  vertex -0.017 0.00216506 0.01025
  endloop
 endfacet

 facet normal -1 0 0
  outer loop
  vertex -0.017 0.0065 0.344
  vertex -0.017 0.00216506 0.01025
  vertex -0.017 0.00176777 0.0107678
  endloop
 endfacet

 facet normal -0.996214 -0.0869338 0
  outer loop
  vertex -0.017 -0.0065 0.344
  vertex -0.017 -0.0065 0
  vertex -0.0169319 -0.00701764 0
  endloop
 endfacet

 facet normal -0.996214 -0.0869338 0
  outer loop
  vertex -0.0169319 -0.00701764 0.374
  vertex -0.017 -0.0065 0.374
  vertex -0.017 -0.0065 0.344
  endloop
 endfacet

 facet normal -0.984769 -0.173868 0
  outer loop
  vertex -0.017 -0.0065 0.344
  vertex -0.0169319 -0.00701764 0
  vertex -0.0169319 -0.00701764 0.374
  endloop
 endfacet

 facet normal -0.939769 -0.341811 0
  outer loop
  vertex -0.0169319 -0.00701764 0.374
  vertex -0.0169319 -0.00701764 0
  vertex -0.0167321 -0.0075 0
  endloop
 endfacet

 facet normal -0.906214 -0.42282 0
  outer loop
  vertex -0.0169319 -0.00701764 0.374
  vertex -0.0167321 -0.0075 0
  vertex -0.0167321 -0.0075 0.374
  endloop
 endfacet

 facet normal -0.81928 -0.573394 0
  outer loop
  vertex -0.0167321 -0.0075 0.374
  vertex -0.0167321 -0.0075 0
  vertex -0.0164142 -0.00791421 0
  endloop
 endfacet

 facet normal -0.765901 -0.642958 0
  outer loop
  vertex -0.0167321 -0.0075 0.374
  vertex -0.0164142 -0.00791421 0
  vertex -0.0164142 -0.00791421 0.374
  endloop
 endfacet

 facet normal -0.642958 -0.765901 0
  outer loop
  vertex -0.0164142 -0.00791421 0.374
  vertex -0.0164142 -0.00791421 0
  vertex -0.016 -0.00823205 0
  endloop
 endfacet

 facet normal -0.573394 -0.81928 0
  outer loop
  vertex -0.0164142 -0.00791421 0.374
  vertex -0.016 -0.00823205 0
  vertex -0.016 -0.00823205 0.374
  endloop
 endfacet

 facet normal -0.42282 -0.906214 0
  outer loop
  vertex -0.016 -0.00823205 0.374
  vertex -0.016 -0.00823205 0
  vertex -0.0155176 -0.00843185 0
  endloop
 endfacet

 facet normal -0.341811 -0.939769 0
  outer loop
  vertex -0.016 -0.00823205 0.374
  vertex -0.0155176 -0.00843185 0
  vertex -0.0155176 -0.00843185 0.374
  endloop
 endfacet

 facet normal -0.173868 -0.984769 0
  outer loop
  vertex -0.0155176 -0.00843185 0.374
  vertex -0.0155176 -0.00843185 0
  vertex -0.015 -0.0085 0
  endloop
 endfacet

 facet normal -0.0869338 -0.996214 0
  outer loop
  vertex -0.0155176 -0.00843185 0.374
  vertex -0.015 -0.0085 0
  vertex -0.015 -0.0085 0.374
  endloop
 endfacet

 facet normal 0 -1 0
  outer loop
  vertex -0.002 -0.0085 0.374
  vertex -0.015 -0.0085 0.374
  vertex -0.002 -0.0085 0
  endloop
 endfacet

 facet normal 0 -1 0
  outer loop
  vertex -0.002 -0.0085 0
  vertex -0.015 -0.0085 0.374
  vertex -0.015 -0.0085 0
  endloop
 endfacet

 facet normal 0.996214 -0.0869338 0
  outer loop
  vertex 0 -0.0065 0.344
  vertex 0 -0.0065 0.374
  vertex -6.8148e-05 -0.00701764 0.374
  endloop
 endfacet

 facet normal 0.906214 -0.42282 0
  outer loop
  vertex -6.8148e-05 -0.00701764 0
  vertex -0.000267949 -0.0075 0.374
  vertex -0.000267949 -0.0075 0
  endloop
 endfacet

 facet normal 0.81928 -0.573394 0
  outer loop
  vertex -0.000267949 -0.0075 0
  vertex -0.000267949 -0.0075 0.374
  vertex -0.000585786 -0.00791421 0.374
  endloop
 endfacet

 facet normal 0.765901 -0.642958 0
  outer loop
  vertex -0.000267949 -0.0075 0
  vertex -0.000585786 -0.00791421 0.374
  vertex -0.000585786 -0.00791421 0
  endloop
 endfacet

 facet normal 0.642958 -0.765901 0
  outer loop
  vertex -0.000585786 -0.00791421 0
  vertex -0.000585786 -0.00791421 0.374
  vertex -0.001 -0.00823205 0.374
  endloop
 endfacet

 facet normal 0.573394 -0.81928 0
  outer loop
  vertex -0.000585786 -0.00791421 0
  vertex -0.001 -0.00823205 0.374
  vertex -0.001 -0.00823205 0
  endloop
 endfacet

 facet normal 0.42282 -0.906214 0
  outer loop
  vertex -0.001 -0.00823205 0
  vertex -0.001 -0.00823205 0.374
  vertex -0.00148236 -0.00843185 0.374
  endloop
 endfacet

 facet normal 0.341811 -0.939769 0
  outer loop
  vertex -0.001 -0.00823205 0
  vertex -0.00148236 -0.00843185 0.374
  vertex -0.00148236 -0.00843185 0
  endloop
 endfacet

 facet normal 0.173868 -0.984769 0
  outer loop
  vertex -0.00148236 -0.00843185 0
  vertex -0.00148236 -0.00843185 0.374
  vertex -0.002 -0.0085 0.374
  endloop
 endfacet

 facet normal 0.0869338 -0.996214 0
  outer loop
  vertex -0.00148236 -0.00843185 0
  vertex -0.002 -0.0085 0.374
  vertex -0.002 -0.0085 0
  endloop
 endfacet

 facet normal 0.996214 -0.0869338 0
  outer loop
  vertex 0 -0.0065 0
  vertex 0 -0.0065 0.344
  vertex -6.8148e-05 -0.00701764 0
  endloop
 endfacet

 facet normal 0.984769 -0.173868 0
  outer loop
  vertex -6.8148e-05 -0.00701764 0
  vertex 0 -0.0065 0.344
  vertex -6.8148e-05 -0.00701764 0.374
  endloop
 endfacet

 facet normal 0.939769 -0.341811 0
  outer loop
  vertex -6.8148e-05 -0.00701764 0
  vertex -6.8148e-05 -0.00701764 0.374
  vertex -0.000267949 -0.0075 0.374
  endloop
 endfacet

 facet normal 1 0 0
  outer loop
  vertex 0 0.00241481 0.00835295
  vertex 0 0.00216506 0.00775
  vertex -0 0.0065 0
  endloop
 endfacet

 facet normal 1 0 0
  outer loop
  vertex -0 0.0065 0
  vertex 0 0.00216506 0.00775
  vertex 0 0.00176777 0.00723223
  endloop
 endfacet

 facet normal 1 0 0
  outer loop
  vertex -0 0.0065 0
  vertex 0 0.00176777 0.00723223
  vertex 0 0.00125 0.00683494
  endloop
 endfacet

 facet normal 1 0 0
  outer loop
  vertex 0 0.00125 0.00683494
  vertex 0 0.000647048 0.00658518
  vertex -0 0.0065 0
  endloop
 endfacet

 facet normal 1 0 0
  outer loop
  vertex -0 0.0065 0
  vertex 0 0.000647048 0.00658518
  vertex 0 -0 0.0065
  endloop
 endfacet

 facet normal 1 0 0
  outer loop
  vertex -0 0.0065 0
  vertex 0 -0 0.0065
  vertex 0 -0.0065 0
  endloop
 endfacet

 facet normal 1 0 0
  outer loop
  vertex 0 -0.0065 0
  vertex 0 -0 0.0065
  vertex 0 -0.000647048 0.00658518
  endloop
 endfacet

 facet normal 1 0 0
  outer loop
  vertex 0 -0.0065 0
  vertex 0 -0.000647048 0.00658518
  vertex 0 -0.00125 0.00683494
  endloop
 endfacet

 facet normal 1 0 0
  outer loop
  vertex 0 -0.00125 0.00683494
  vertex 0 -0.00176777 0.00723223
  vertex 0 -0.0065 0
  endloop
 endfacet

 facet normal 1 0 0
  outer loop
  vertex 0 -0.0065 0
  vertex 0 -0.00176777 0.00723223
  vertex 0 -0.00216506 0.00775
  endloop
 endfacet

 facet normal 1 0 0
  outer loop
  vertex 0 -0.0065 0
  vertex 0 -0.00216506 0.00775
  vertex 0 -0.00241481 0.00835295
  endloop
 endfacet

 facet normal 1 0 0
  outer loop
  vertex -0 0.0065 0.344
  vertex 0 0.00125 0.0111651
  vertex 0 0.00176777 0.0107678
  endloop
 endfacet

 facet normal 1 0 0
  outer loop
  vertex -0 0.0065 0.344
  vertex 0 -0.00125 0.0111651
  vertex 0 -0.000647048 0.0114148
  endloop
 endfacet

 facet normal 1 0 0
  outer loop
  vertex 0 0.00176777 0.0107678
  vertex 0 0.00216506 0.01025
  vertex -0 0.0065 0.344
  endloop
 endfacet

 facet normal 1 0 0
  outer loop
  vertex -0 0.0065 0.344
  vertex 0 0.00216506 0.01025
  vertex 0 0.00241481 0.00964705
  endloop
 endfacet

 facet normal 1 0 0
  outer loop
  vertex -0 0.0065 0.344
  vertex 0 0.00241481 0.00964705
  vertex -0 0.0065 0
  endloop
 endfacet

 facet normal 1 0 0
  outer loop
  vertex -0 0.0065 0
  vertex 0 0.00241481 0.00964705
  vertex 0 0.0025 0.009
  endloop
 endfacet

 facet normal 1 0 0
  outer loop
  vertex -0 0.0065 0
  vertex 0 0.0025 0.009
  vertex 0 0.00241481 0.00835295
  endloop
 endfacet

 facet normal 1 0 0
  outer loop
  vertex 0 -0.00241481 0.00835295
  vertex 0 -0.0025 0.009
  vertex 0 -0.0065 0
  endloop
 endfacet

 facet normal 1 0 0
  outer loop
  vertex 0 -0.0065 0
  vertex 0 -0.0025 0.009
  vertex 0 -0.00241481 0.00964705
  endloop
 endfacet

 facet normal 1 0 0
  outer loop
  vertex 0 -0.0065 0
  vertex 0 -0.00241481 0.00964705
  vertex 0 -0.0065 0.344
  endloop
 endfacet

 facet normal 1 0 0
  outer loop
  vertex 0 -0.0065 0.344
  vertex 0 -0.00241481 0.00964705
  vertex 0 -0.00216506 0.01025
  endloop
 endfacet

 facet normal 1 0 0
  outer loop
  vertex 0 -0.0065 0.344
  vertex 0 -0.00216506 0.01025
  vertex -0 0.0065 0.344
  endloop
 endfacet

 facet normal 1 0 0
  outer loop
  vertex -0 0.0065 0.344
  vertex 0 -0.00216506 0.01025
  vertex 0 -0.00176777 0.0107678
  endloop
 endfacet

 facet normal 1 0 0
  outer loop
  vertex -0 0.0065 0.344
  vertex 0 -0.00176777 0.0107678
  vertex 0 -0.00125 0.0111651
  endloop
 endfacet

 facet normal 1 0 0
  outer loop
  vertex 0 -0.000647048 0.0114148
  vertex 0 -0 0.0115
  vertex -0 0.0065 0.344
  endloop
 endfacet

 facet normal 1 0 0
  outer loop
  vertex -0 0.0065 0.344
  vertex 0 -0 0.0115
  vertex 0 0.000647048 0.0114148
  endloop
 endfacet

 facet normal 1 0 0
  outer loop
  vertex -0 0.0065 0.344
  vertex 0 0.000647048 0.0114148
  vertex 0 0.00125 0.0111651
  endloop
 endfacet

 facet normal 0 0 1
  outer loop
  vertex -0.002 -0.0085 0.374
  vertex -0.002 0.0085 0.374
  vertex -0.015 -0.0085 0.374
  endloop
 endfacet

 facet normal 0 0 1
  outer loop
  vertex -0.015 -0.0085 0.374
  vertex -0.002 0.0085 0.374
  vertex -0.017 0.0065 0.374
  endloop
 endfacet

 facet normal 0 0 1
  outer loop
  vertex -0.015 -0.0085 0.374
  vertex -0.017 0.0065 0.374
  vertex -0.017 -0.0065 0.374
  endloop
 endfacet

 facet normal 0 0 1
  outer loop
  vertex -0.002 -0.0085 0.374
  vertex -0.00148236 -0.00843185 0.374
  vertex -0.000267949 -0.0075 0.374
  endloop
 endfacet

 facet normal 0 0 1
  outer loop
  vertex -0.000267949 -0.0075 0.374
  vertex -0.00148236 -0.00843185 0.374
  vertex -0.001 -0.00823205 0.374
  endloop
 endfacet

 facet normal 0 0 1
  outer loop
  vertex -0.000267949 -0.0075 0.374
  vertex -0.001 -0.00823205 0.374
  vertex -0.000585786 -0.00791421 0.374
  endloop
 endfacet

 facet normal 0 0 1
  outer loop
  vertex -0.000267949 -0.0075 0.374
  vertex -6.8148e-05 -0.00701764 0.374
  vertex -0.002 -0.0085 0.374
  endloop
 endfacet

 facet normal 0 0 1
  outer loop
  vertex -0.002 -0.0085 0.374
  vertex -6.8148e-05 -0.00701764 0.374
  vertex 0 -0.0065 0.374
  endloop
 endfacet

 facet normal 0 0 1
  outer loop
  vertex -0.002 -0.0085 0.374
  vertex 0 -0.0065 0.374
  vertex -0.002 0.0085 0.374
  endloop
 endfacet

 facet normal 0 0 1
  outer loop
  vertex -0.002 0.0085 0.374
  vertex 0 -0.0065 0.374
  vertex -0 0.0065 0.374
  endloop
 endfacet

 facet normal 0 0 1
  outer loop
  vertex -0.002 0.0085 0.374
  vertex -0 0.0065 0.374
  vertex -6.8148e-05 0.00701764 0.374
  endloop
 endfacet

 facet normal 0 0 1
  outer loop
  vertex -0.001 0.00823205 0.374
  vertex -0.00148236 0.00843185 0.374
  vertex -0.000585786 0.00791421 0.374
  endloop
 endfacet

 facet normal 0 0 1
  outer loop
  vertex -0.000585786 0.00791421 0.374
  vertex -0.00148236 0.00843185 0.374
  vertex -0.002 0.0085 0.374
  endloop
 endfacet

 facet normal 0 0 1
  outer loop
  vertex -0.000585786 0.00791421 0.374
  vertex -0.002 0.0085 0.374
  vertex -0.000267949 0.0075 0.374
  endloop
 endfacet

 facet normal 0 0 1
  outer loop
  vertex -0.000267949 0.0075 0.374
  vertex -0.002 0.0085 0.374
  vertex -6.8148e-05 0.00701764 0.374
  endloop
 endfacet

 facet normal 0 0 1
  outer loop
  vertex -0.0167321 0.0075 0.374
  vertex -0.0155176 0.00843185 0.374
  vertex -0.0164142 0.00791421 0.374
  endloop
 endfacet

 facet normal 0 0 1
  outer loop
  vertex -0.0164142 0.00791421 0.374
  vertex -0.0155176 0.00843185 0.374
  vertex -0.016 0.00823205 0.374
  endloop
 endfacet

 facet normal 0 0 1
  outer loop
  vertex -0.002 0.0085 0.374
  vertex -0.015 0.0085 0.374
  vertex -0.017 0.0065 0.374
  endloop
 endfacet

 facet normal 0 0 1
  outer loop
  vertex -0.017 0.0065 0.374
  vertex -0.015 0.0085 0.374
  vertex -0.0155176 0.00843185 0.374
  endloop
 endfacet

 facet normal 0 0 1
  outer loop
  vertex -0.017 0.0065 0.374
  vertex -0.0155176 0.00843185 0.374
  vertex -0.0169319 0.00701764 0.374
  endloop
 endfacet

 facet normal 0 0 1
  outer loop
  vertex -0.0169319 0.00701764 0.374
  vertex -0.0155176 0.00843185 0.374
  vertex -0.0167321 0.0075 0.374
  endloop
 endfacet

 facet normal 0 0 1
  outer loop
  vertex -0.0167321 -0.0075 0.374
  vertex -0.0164142 -0.00791421 0.374
  vertex -0.016 -0.00823205 0.374
  endloop
 endfacet

 facet normal 0 0 1
  outer loop
  vertex -0.017 -0.0065 0.374
  vertex -0.0169319 -0.00701764 0.374
  vertex -0.015 -0.0085 0.374
  endloop
 endfacet

 facet normal 0 0 1
  outer loop
  vertex -0.015 -0.0085 0.374
  vertex -0.0169319 -0.00701764 0.374
  vertex -0.0167321 -0.0075 0.374
  endloop
 endfacet

 facet normal 0 0 1
  outer loop
  vertex -0.015 -0.0085 0.374
  vertex -0.0167321 -0.0075 0.374
  vertex -0.0155176 -0.00843185 0.374
  endloop
 endfacet

 facet normal 0 0 1
  outer loop
  vertex -0.0155176 -0.00843185 0.374
  vertex -0.0167321 -0.0075 0.374
  vertex -0.016 -0.00823205 0.374
  endloop
 endfacet

 facet normal 0 0 -1
  outer loop
  vertex -0.017 -0.0065 0
  vertex -0.017 0.0065 0
  vertex -0.015 -0.0085 0
  endloop
 endfacet

 facet normal 0 0 -1
  outer loop
  vertex -0.017 -0.0065 0
  vertex -0.015 -0.0085 0
  vertex -0.0169319 -0.00701764 0
  endloop
 endfacet

 facet normal 0 0 -1
  outer loop
  vertex -0.016 -0.00823205 0
  vertex -0.0164142 -0.00791421 0
  vertex -0.0167321 -0.0075 0
  endloop
 endfacet

 facet normal 0 0 -1
  outer loop
  vertex -0.000267949 0.0075 0
  vertex -0.002 0.0085 0
  vertex -0.000585786 0.00791421 0
  endloop
 endfacet

 facet normal 0 0 -1
  outer loop
  vertex -0.000585786 0.00791421 0
  vertex -0.002 0.0085 0
  vertex -0.00148236 0.00843185 0
  endloop
 endfacet

 facet normal 0 0 -1
  outer loop
  vertex -0.000585786 0.00791421 0
  vertex -0.00148236 0.00843185 0
  vertex -0.001 0.00823205 0
  endloop
 endfacet

 facet normal 0 0 -1
  outer loop
  vertex -0.017 0.0065 0
  vertex -0 0.0065 0
  vertex -0.015 -0.0085 0
  endloop
 endfacet

 facet normal 0 0 -1
  outer loop
  vertex -0.015 -0.0085 0
  vertex -0 0.0065 0
  vertex 0 -0.0065 0
  endloop
 endfacet

 facet normal 0 0 -1
  outer loop
  vertex -0.015 -0.0085 0
  vertex 0 -0.0065 0
  vertex -0.002 -0.0085 0
  endloop
 endfacet

 facet normal 0 0 -1
  outer loop
  vertex -0.002 -0.0085 0
  vertex 0 -0.0065 0
  vertex -6.8148e-05 -0.00701764 0
  endloop
 endfacet

 facet normal 0 0 -1
  outer loop
  vertex -0.002 -0.0085 0
  vertex -6.8148e-05 -0.00701764 0
  vertex -0.000267949 -0.0075 0
  endloop
 endfacet

 facet normal 0 0 -1
  outer loop
  vertex -0.0169319 -0.00701764 0
  vertex -0.015 -0.0085 0
  vertex -0.0167321 -0.0075 0
  endloop
 endfacet

 facet normal 0 0 -1
  outer loop
  vertex -0.0167321 -0.0075 0
  vertex -0.015 -0.0085 0
  vertex -0.0155176 -0.00843185 0
  endloop
 endfacet

 facet normal 0 0 -1
  outer loop
  vertex -0.0167321 -0.0075 0
  vertex -0.0155176 -0.00843185 0
  vertex -0.016 -0.00823205 0
  endloop
 endfacet

 facet normal 0 0 -1
  outer loop
  vertex -0.000267949 0.0075 0
  vertex -6.8148e-05 0.00701764 0
  vertex -0.002 0.0085 0
  endloop
 endfacet

 facet normal 0 0 -1
  outer loop
  vertex -0.002 0.0085 0
  vertex -6.8148e-05 0.00701764 0
  vertex -0 0.0065 0
  endloop
 endfacet

 facet normal 0 0 -1
  outer loop
  vertex -0.002 0.0085 0
  vertex -0 0.0065 0
  vertex -0.015 0.0085 0
  endloop
 endfacet

 facet normal 0 0 -1
  outer loop
  vertex -0.015 0.0085 0
  vertex -0 0.0065 0
  vertex -0.017 0.0065 0
  endloop
 endfacet

 facet normal 0 0 -1
  outer loop
  vertex -0.015 0.0085 0
  vertex -0.017 0.0065 0
  vertex -0.0155176 0.00843185 0
  endloop
 endfacet

 facet normal 0 0 -1
  outer loop
  vertex -0.0155176 0.00843185 0
  vertex -0.017 0.0065 0
  vertex -0.0169319 0.00701764 0
  endloop
 endfacet

 facet normal 0 0 -1
  outer loop
  vertex -0.0169319 0.00701764 0
  vertex -0.0167321 0.0075 0
  vertex -0.0155176 0.00843185 0
  endloop
 endfacet

 facet normal 0 0 -1
  outer loop
  vertex -0.0155176 0.00843185 0
  vertex -0.0167321 0.0075 0
  vertex -0.0164142 0.00791421 0
  endloop
 endfacet

 facet normal 0 0 -1
  outer loop
  vertex -0.0155176 0.00843185 0
  vertex -0.0164142 0.00791421 0
  vertex -0.016 0.00823205 0
  endloop
 endfacet

 facet normal 0 0 -1
  outer loop
  vertex -0.000585786 -0.00791421 0
  vertex -0.001 -0.00823205 0
  vertex -0.000267949 -0.0075 0
  endloop
 endfacet

 facet normal 0 0 -1
  outer loop
  vertex -0.000267949 -0.0075 0
  vertex -0.001 -0.00823205 0
  vertex -0.00148236 -0.00843185 0
  endloop
 endfacet

 facet normal 0 0 -1
  outer loop
  vertex -0.000267949 -0.0075 0
  vertex -0.00148236 -0.00843185 0
  vertex -0.002 -0.0085 0
  endloop
 endfacet

 facet normal -1 0 0
  outer loop
  vertex 0 0.0085 0.374
  vertex 0 0.0085 0.344
  vertex -0 0.0065 0.374
  endloop
 endfacet

 facet normal -1 0 0
  outer loop
  vertex -0 0.0065 0.374
  vertex 0 0.0085 0.344
  vertex -0 0.0065 0.344
  endloop
 endfacet

 facet normal -0.804803 0 0.593542
  outer loop
  vertex -0 -0.0085 0.374
  vertex 0.0295 -0.0085 0.414
  vertex 0 -0.0065 0.374
  endloop
 endfacet

 facet normal -0.804803 0 0.593542
  outer loop
  vertex 0 -0.0065 0.374
  vertex 0.0295 -0.0085 0.414
  vertex 0.0295 0.0085 0.414
  endloop
 endfacet

 facet normal -0.804803 0 0.593542
  outer loop
  vertex 0 -0.0065 0.374
  vertex 0.0295 0.0085 0.414
  vertex -0 0.0065 0.374
  endloop
 endfacet

 facet normal -0.804803 0 0.593542
  outer loop
  vertex -0 0.0065 0.374
  vertex 0.0295 0.0085 0.414
  vertex 0 0.0085 0.374
  endloop
 endfacet

 facet normal -1 0 0
  outer loop
  vertex 0 -0.0065 0.344
  vertex 0 -0.0085 0.344
  vertex 0 -0.0065 0.374
  endloop
 endfacet

 facet normal -1 0 0
  outer loop
  vertex 0 -0.0065 0.374
  vertex 0 -0.0085 0.344
  vertex -0 -0.0085 0.374
  endloop
 endfacet

 facet normal 0 0 -1
  outer loop
  vertex 0 0.0085 0.344
  vertex 0.007 0.0085 0.344
  vertex -0 0.0065 0.344
  endloop
 endfacet

 facet normal 0 0 -1
  outer loop
  vertex -0 0.0065 0.344
  vertex 0.007 0.0085 0.344
  vertex 0.007 -0.0085 0.344
  endloop
 endfacet

 facet normal 0 0 -1
  outer loop
  vertex -0 0.0065 0.344
  vertex 0.007 -0.0085 0.344
  vertex 0 -0.0065 0.344
  endloop
 endfacet

 facet normal 0 0 -1
  outer loop
  vertex 0 -0.0065 0.344
  vertex 0.007 -0.0085 0.344
  vertex 0 -0.0085 0.344
  endloop
 endfacet

 facet normal 1 0 0
  outer loop
  vertex 0.007 -0.0085 0.374
  vertex 0.007 -0.0085 0.344
  vertex 0.007 0.0085 0.374
  endloop
 endfacet

 facet normal 1 0 0
  outer loop
  vertex 0.007 0.0085 0.374
  vertex 0.007 -0.0085 0.344
  vertex 0.007 0.0085 0.344
  endloop
 endfacet

 facet normal 0.797539 0 -0.603267
  outer loop
  vertex 0.0365 -0.0085 0.413
  vertex 0.007 -0.0085 0.374
  vertex 0.0365 0.0085 0.413
  endloop
 endfacet

 facet normal 0.797539 0 -0.603267
  outer loop
  vertex 0.0365 0.0085 0.413
  vertex 0.007 -0.0085 0.374
  vertex 0.007 0.0085 0.374
  endloop
 endfacet

 facet normal 1 0 0
  outer loop
  vertex 0.0365 0.000647048 0.531415
  vertex 0.0365 0.00125 0.531165
  vertex 0.0365 0.0035 0.534
  endloop
 endfacet

 facet normal 1 0 0
  outer loop
  vertex 0.0365 0.00125 0.526835
  vertex 0.0365 0.000647048 0.526585
  vertex 0.0365 0.0085 0.413
  endloop
 endfacet

 facet normal 1 0 0
  outer loop
  vertex 0.0365 0.0085 0.413
  vertex 0.0365 0.000647048 0.526585
  vertex 0.0365 0 0.5265
  endloop
 endfacet

 facet normal 1 0 0
  outer loop
  vertex 0.0365 0.0085 0.413
  vertex 0.0365 0 0.5265
  vertex 0.0365 -0.0085 0.413
  endloop
 endfacet

 facet normal 1 0 0
  outer loop
  vertex 0.0365 -0.0085 0.413
  vertex 0.0365 0 0.5265
  vertex 0.0365 -0.000647048 0.526585
  endloop
 endfacet

 facet normal 1 0 0
  outer loop
  vertex 0.0365 -0.000647048 0.526585
  vertex 0.0365 -0.00125 0.526835
  vertex 0.0365 -0.0085 0.413
  endloop
 endfacet

 facet normal 1 0 0
  outer loop
  vertex 0.0365 -0.0085 0.413
  vertex 0.0365 -0.00125 0.526835
  vertex 0.0365 -0.00176777 0.527232
  endloop
 endfacet

 facet normal 1 0 0
  outer loop
  vertex 0.0365 -0.0085 0.413
  vertex 0.0365 -0.00176777 0.527232
  vertex 0.0365 -0.0085 0.529
  endloop
 endfacet

 facet normal 1 0 0
  outer loop
  vertex 0.0365 -0.0085 0.529
  vertex 0.0365 -0.00176777 0.527232
  vertex 0.0365 -0.00216506 0.52775
  endloop
 endfacet

 facet normal 1 0 0
  outer loop
  vertex 0.0365 -0.0085 0.529
  vertex 0.0365 -0.00216506 0.52775
  vertex 0.0365 -0.00241481 0.528353
  endloop
 endfacet

 facet normal 1 0 0
  outer loop
  vertex 0.0365 -0.00176777 0.530768
  vertex 0.0365 -0.00125 0.531165
  vertex 0.0365 -0.0035 0.534
  endloop
 endfacet

 facet normal 1 0 0
  outer loop
  vertex 0.0365 -0.0035 0.534
  vertex 0.0365 -0.00125 0.531165
  vertex 0.0365 -0.000647048 0.531415
  endloop
 endfacet

 facet normal 1 0 0
  outer loop
  vertex 0.0365 -0.0035 0.534
  vertex 0.0365 -0.000647048 0.531415
  vertex 0.0365 0.0035 0.534
  endloop
 endfacet

 facet normal 1 0 0
  outer loop
  vertex 0.0365 0.0035 0.534
  vertex 0.0365 -0.000647048 0.531415
  vertex 0.0365 0 0.5315
  endloop
 endfacet

 facet normal 1 0 0
  outer loop
  vertex 0.0365 0.0035 0.534
  vertex 0.0365 0 0.5315
  vertex 0.0365 0.000647048 0.531415
  endloop
 endfacet

 facet normal 1 0 0
  outer loop
  vertex 0.0365 0.0025 0.529
  vertex 0.0365 0.00241481 0.528353
  vertex 0.0365 0.0085 0.529
  endloop
 endfacet

 facet normal 1 0 0
  outer loop
  vertex 0.0365 0.0085 0.529
  vertex 0.0365 0.00241481 0.528353
  vertex 0.0365 0.00216506 0.52775
  endloop
 endfacet

 facet normal 1 0 0
  outer loop
  vertex 0.0365 0.0085 0.529
  vertex 0.0365 0.00216506 0.52775
  vertex 0.0365 0.0085 0.413
  endloop
 endfacet

 facet normal 1 0 0
  outer loop
  vertex 0.0365 0.0085 0.413
  vertex 0.0365 0.00216506 0.52775
  vertex 0.0365 0.00176777 0.527232
  endloop
 endfacet

 facet normal 1 0 0
  outer loop
  vertex 0.0365 0.0085 0.413
  vertex 0.0365 0.00176777 0.527232
  vertex 0.0365 0.00125 0.526835
  endloop
 endfacet

 facet normal 1 0 0
  outer loop
  vertex 0.0365 -0.00241481 0.528353
  vertex 0.0365 -0.0025 0.529
  vertex 0.0365 -0.0085 0.529
  endloop
 endfacet

 facet normal 1 0 0
  outer loop
  vertex 0.0365 -0.0085 0.529
  vertex 0.0365 -0.0025 0.529
  vertex 0.0365 -0.00241481 0.529647
  endloop
 endfacet

 facet normal 1 0 0
  outer loop
  vertex 0.0365 -0.0085 0.529
  vertex 0.0365 -0.00241481 0.529647
  vertex 0.0365 -0.0035 0.534
  endloop
 endfacet

 facet normal 1 0 0
  outer loop
  vertex 0.0365 -0.0035 0.534
  vertex 0.0365 -0.00241481 0.529647
  vertex 0.0365 -0.00216506 0.53025
  endloop
 endfacet

 facet normal 1 0 0
  outer loop
  vertex 0.0365 -0.0035 0.534
  vertex 0.0365 -0.00216506 0.53025
  vertex 0.0365 -0.00176777 0.530768
  endloop
 endfacet

 facet normal 1 0 0
  outer loop
  vertex 0.0365 0.00125 0.531165
  vertex 0.0365 0.00176777 0.530768
  vertex 0.0365 0.0035 0.534
  endloop
 endfacet

 facet normal 1 0 0
  outer loop
  vertex 0.0365 0.0035 0.534
  vertex 0.0365 0.00176777 0.530768
  vertex 0.0365 0.00216506 0.53025
  endloop
 endfacet

 facet normal 1 0 0
  outer loop
  vertex 0.0365 0.0035 0.534
  vertex 0.0365 0.00216506 0.53025
  vertex 0.0365 0.0085 0.529
  endloop
 endfacet

 facet normal 1 0 0
  outer loop
  vertex 0.0365 0.0085 0.529
  vertex 0.0365 0.00216506 0.53025
  vertex 0.0365 0.00241481 0.529647
  endloop
 endfacet

 facet normal 1 0 0
  outer loop
  vertex 0.0365 0.0085 0.529
  vertex 0.0365 0.00241481 0.529647
  vertex 0.0365 0.0025 0.529
  endloop
 endfacet

 facet normal 0 0 1
  outer loop
  vertex 0.0295 -0.0035 0.534
  vertex 0.0365 -0.0035 0.534
  vertex 0.0295 0.0035 0.534
  endloop
 endfacet

 facet normal 0 0 1
  outer loop
  vertex 0.0295 0.0035 0.534
  vertex 0.0365 -0.0035 0.534
  vertex 0.0365 0.0035 0.534
  endloop
 endfacet

 facet normal -1 0 0
  outer loop
  vertex 0.0295 0.0085 0.529
  vertex 0.0295 0.0085 0.414
  vertex 0.0295 0.0035 0.534
  endloop
 endfacet

 facet normal -1 0 0
  outer loop
  vertex 0.0295 0.0035 0.534
  vertex 0.0295 0.0085 0.414
  vertex 0.0295 -0.0085 0.414
  endloop
 endfacet

 facet normal -1 0 0
  outer loop
  vertex 0.0295 -0.000647048 0.526585
  vertex 0.0295 0 0.5265
  vertex 0.0295 -0.0085 0.414
  endloop
 endfacet

 facet normal -1 0 0
  outer loop
  vertex 0.0295 -0.000647048 0.526585
  vertex 0.0295 -0.0085 0.414
  vertex 0.0295 -0.00125 0.526835
  endloop
 endfacet

 facet normal -1 0 0
  outer loop
  vertex 0.0295 0 0.5265
  vertex 0.0295 0.000647048 0.526585
  vertex 0.0295 -0.0085 0.414
  endloop
 endfacet

 facet normal -1 0 0
  outer loop
  vertex 0.0295 -0.0085 0.414
  vertex 0.0295 0.000647048 0.526585
  vertex 0.0295 0.00125 0.526835
  endloop
 endfacet

 facet normal -1 0 0
  outer loop
  vertex 0.0295 -0.0085 0.414
  vertex 0.0295 0.00125 0.526835
  vertex 0.0295 0.00176777 0.527232
  endloop
 endfacet

 facet normal -1 0 0
  outer loop
  vertex 0.0295 0.00241481 0.529647
  vertex 0.0295 0.00216506 0.53025
  vertex 0.0295 0.0035 0.534
  endloop
 endfacet

 facet normal -1 0 0
  outer loop
  vertex 0.0295 0.0035 0.534
  vertex 0.0295 0.00216506 0.53025
  vertex 0.0295 0.00176777 0.530768
  endloop
 endfacet

 facet normal -1 0 0
  outer loop
  vertex 0.0295 0.0035 0.534
  vertex 0.0295 0.00176777 0.530768
  vertex 0.0295 0.00125 0.531165
  endloop
 endfacet

 facet normal -1 0 0
  outer loop
  vertex 0.0295 0.00125 0.531165
  vertex 0.0295 0.000647048 0.531415
  vertex 0.0295 0.0035 0.534
  endloop
 endfacet

 facet normal -1 0 0
  outer loop
  vertex 0.0295 0.0035 0.534
  vertex 0.0295 0.000647048 0.531415
  vertex 0.0295 0 0.5315
  endloop
 endfacet

 facet normal -1 0 0
  outer loop
  vertex 0.0295 0.0035 0.534
  vertex 0.0295 0 0.5315
  vertex 0.0295 -0.0035 0.534
  endloop
 endfacet

 facet normal -1 0 0
  outer loop
  vertex 0.0295 -0.0035 0.534
  vertex 0.0295 0 0.5315
  vertex 0.0295 -0.000647048 0.531415
  endloop
 endfacet

 facet normal -1 0 0
  outer loop
  vertex 0.0295 -0.0035 0.534
  vertex 0.0295 -0.000647048 0.531415
  vertex 0.0295 -0.00125 0.531165
  endloop
 endfacet

 facet normal -1 0 0
  outer loop
  vertex 0.0295 -0.0025 0.529
  vertex 0.0295 -0.00241481 0.528353
  vertex 0.0295 -0.0085 0.529
  endloop
 endfacet

 facet normal -1 0 0
  outer loop
  vertex 0.0295 -0.0085 0.529
  vertex 0.0295 -0.00241481 0.528353
  vertex 0.0295 -0.00216506 0.52775
  endloop
 endfacet

 facet normal -1 0 0
  outer loop
  vertex 0.0295 -0.0085 0.529
  vertex 0.0295 -0.00216506 0.52775
  vertex 0.0295 -0.0085 0.414
  endloop
 endfacet

 facet normal -1 0 0
  outer loop
  vertex 0.0295 -0.0085 0.414
  vertex 0.0295 -0.00216506 0.52775
  vertex 0.0295 -0.00176777 0.527232
  endloop
 endfacet

 facet normal -1 0 0
  outer loop
  vertex 0.0295 -0.0085 0.414
  vertex 0.0295 -0.00176777 0.527232
  vertex 0.0295 -0.00125 0.526835
  endloop
 endfacet

 facet normal -1 0 0
  outer loop
  vertex 0.0295 0.00176777 0.527232
  vertex 0.0295 0.00216506 0.52775
  vertex 0.0295 -0.0085 0.414
  endloop
 endfacet

 facet normal -1 0 0
  outer loop
  vertex 0.0295 -0.0085 0.414
  vertex 0.0295 0.00216506 0.52775
  vertex 0.0295 0.00241481 0.528353
  endloop
 endfacet

 facet normal -1 0 0
  outer loop
  vertex 0.0295 -0.0085 0.414
  vertex 0.0295 0.00241481 0.528353
  vertex 0.0295 0.0035 0.534
  endloop
 endfacet

 facet normal -1 0 0
  outer loop
  vertex 0.0295 0.0035 0.534
  vertex 0.0295 0.00241481 0.528353
  vertex 0.0295 0.0025 0.529
  endloop
 endfacet

 facet normal -1 0 0
  outer loop
  vertex 0.0295 0.0035 0.534
  vertex 0.0295 0.0025 0.529
  vertex 0.0295 0.00241481 0.529647
  endloop
 endfacet

 facet normal -1 0 0
  outer loop
  vertex 0.0295 -0.00125 0.531165
  vertex 0.0295 -0.00176777 0.530768
  vertex 0.0295 -0.0035 0.534
  endloop
 endfacet

 facet normal -1 0 0
  outer loop
  vertex 0.0295 -0.0035 0.534
  vertex 0.0295 -0.00176777 0.530768
  vertex 0.0295 -0.00216506 0.53025
  endloop
 endfacet

 facet normal -1 0 0
  outer loop
  vertex 0.0295 -0.0035 0.534
  vertex 0.0295 -0.00216506 0.53025
  vertex 0.0295 -0.0085 0.529
  endloop
 endfacet

 facet normal -1 0 0
  outer loop
  vertex 0.0295 -0.0085 0.529
  vertex 0.0295 -0.00216506 0.53025
  vertex 0.0295 -0.00241481 0.529647
  endloop
 endfacet

 facet normal -1 0 0
  outer loop
  vertex 0.0295 -0.0085 0.529
  vertex 0.0295 -0.00241481 0.529647
  vertex 0.0295 -0.0025 0.529
  endloop
 endfacet

 facet normal 0 -1 0
  outer loop
  vertex 0 -0.0085 0.344
  vertex 0.007 -0.0085 0.344
  vertex -0 -0.0085 0.374
  endloop
 endfacet

 facet normal 0 -1 0
  outer loop
  vertex -0 -0.0085 0.374
  vertex 0.007 -0.0085 0.344
  vertex 0.007 -0.0085 0.374
  endloop
 endfacet

 facet normal 0 -1 0
  outer loop
  vertex -0 -0.0085 0.374
  vertex 0.007 -0.0085 0.374
  vertex 0.0295 -0.0085 0.414
  endloop
 endfacet

 facet normal 0 -1 0
  outer loop
  vertex 0.0295 -0.0085 0.414
  vertex 0.007 -0.0085 0.374
  vertex 0.0365 -0.0085 0.413
  endloop
 endfacet

 facet normal 0 -1 0
  outer loop
  vertex 0.0295 -0.0085 0.414
  vertex 0.0365 -0.0085 0.413
  vertex 0.0295 -0.0085 0.529
  endloop
 endfacet

 facet normal 0 -1 0
  outer loop
  vertex 0.0295 -0.0085 0.529
  vertex 0.0365 -0.0085 0.413
  vertex 0.0365 -0.0085 0.529
  endloop
 endfacet

 facet normal 0 1 0
  outer loop
  vertex 0.0295 0.0085 0.529
  vertex 0.0365 0.0085 0.529
  vertex 0.0295 0.0085 0.414
  endloop
 endfacet

 facet normal 0 1 0
  outer loop
  vertex 0.0295 0.0085 0.414
  vertex 0.0365 0.0085 0.529
  vertex 0.0365 0.0085 0.413
  endloop
 endfacet

 facet normal 0 1 0
  outer loop
  vertex 0.0295 0.0085 0.414
  vertex 0.0365 0.0085 0.413
  vertex 0 0.0085 0.374
  endloop
 endfacet

 facet normal 0 1 0
  outer loop
  vertex 0 0.0085 0.374
  vertex 0.0365 0.0085 0.413
  vertex 0.007 0.0085 0.374
  endloop
 endfacet

 facet normal 0 1 0
  outer loop
  vertex 0 0.0085 0.374
  vertex 0.007 0.0085 0.374
  vertex 0 0.0085 0.344
  endloop
 endfacet

 facet normal 0 1 0
  outer loop
  vertex 0 0.0085 0.344
  vertex 0.007 0.0085 0.374
  vertex 0.007 0.0085 0.344
  endloop
 endfacet

 facet normal 1 0 0
  outer loop
  vertex -0.017 -0.0085 0.374
  vertex -0.017 -0.0085 0.344
  vertex -0.017 -0.0065 0.374
  endloop
 endfacet

 facet normal 1 0 0
  outer loop
  vertex -0.017 -0.0065 0.374
  vertex -0.017 -0.0085 0.344
  vertex -0.017 -0.0065 0.344
  endloop
 endfacet

 facet normal 0.804803 0 0.593542
  outer loop
  vertex -0.017 0.0085 0.374
  vertex -0.0465 0.0085 0.414
  vertex -0.017 0.0065 0.374
  endloop
 endfacet

 facet normal 0.804803 0 0.593542
  outer loop
  vertex -0.017 0.0065 0.374
  vertex -0.0465 0.0085 0.414
  vertex -0.0465 -0.0085 0.414
  endloop
 endfacet

 facet normal 0.804803 0 0.593542
  outer loop
  vertex -0.017 0.0065 0.374
  vertex -0.0465 -0.0085 0.414
  vertex -0.017 -0.0065 0.374
  endloop
 endfacet

 facet normal 0.804803 0 0.593542
  outer loop
  vertex -0.017 -0.0065 0.374
  vertex -0.0465 -0.0085 0.414
  vertex -0.017 -0.0085 0.374
  endloop
 endfacet

 facet normal 1 0 0
  outer loop
  vertex -0.0465 0.000647048 0.531415
  vertex -0.0465 0.00125 0.531165
  vertex -0.0465 0.0035 0.534
  endloop
 endfacet

 facet normal 1 0 0
  outer loop
  vertex -0.0465 0.00125 0.526835
  vertex -0.0465 0.000647048 0.526585
  vertex -0.0465 0.0085 0.414
  endloop
 endfacet

 facet normal 1 0 0
  outer loop
  vertex -0.0465 0.0085 0.414
  vertex -0.0465 0.000647048 0.526585
  vertex -0.0465 0 0.5265
  endloop
 endfacet

 facet normal 1 0 0
  outer loop
  vertex -0.0465 0.0085 0.414
  vertex -0.0465 0 0.5265
  vertex -0.0465 -0.0085 0.414
  endloop
 endfacet

 facet normal 1 0 0
  outer loop
  vertex -0.0465 -0.0085 0.414
  vertex -0.0465 0 0.5265
  vertex -0.0465 -0.000647048 0.526585
  endloop
 endfacet

 facet normal 1 0 0
  outer loop
  vertex -0.0465 -0.00176777 0.530768
  vertex -0.0465 -0.00125 0.531165
  vertex -0.0465 -0.0035 0.534
  endloop
 endfacet

 facet normal 1 0 0
  outer loop
  vertex -0.0465 -0.0035 0.534
  vertex -0.0465 -0.00125 0.531165
  vertex -0.0465 -0.000647048 0.531415
  endloop
 endfacet

 facet normal 1 0 0
  outer loop
  vertex -0.0465 -0.0035 0.534
  vertex -0.0465 -0.000647048 0.531415
  vertex -0.0465 0.0035 0.534
  endloop
 endfacet

 facet normal 1 0 0
  outer loop
  vertex -0.0465 0.0035 0.534
  vertex -0.0465 -0.000647048 0.531415
  vertex -0.0465 0 0.5315
  endloop
 endfacet

 facet normal 1 0 0
  outer loop
  vertex -0.0465 0.0035 0.534
  vertex -0.0465 0 0.5315
  vertex -0.0465 0.000647048 0.531415
  endloop
 endfacet

 facet normal 1 0 0
  outer loop
  vertex -0.0465 -0.000647048 0.526585
  vertex -0.0465 -0.00125 0.526835
  vertex -0.0465 -0.0085 0.414
  endloop
 endfacet

 facet normal 1 0 0
  outer loop
  vertex -0.0465 -0.0085 0.414
  vertex -0.0465 -0.00125 0.526835
  vertex -0.0465 -0.00176777 0.527232
  endloop
 endfacet

 facet normal 1 0 0
  outer loop
  vertex -0.0465 -0.0085 0.414
  vertex -0.0465 -0.00176777 0.527232
  vertex -0.0465 -0.0085 0.529
  endloop
 endfacet

 facet normal 1 0 0
  outer loop
  vertex -0.0465 -0.0085 0.529
  vertex -0.0465 -0.00176777 0.527232
  vertex -0.0465 -0.00216506 0.52775
  endloop
 endfacet

 facet normal 1 0 0
  outer loop
  vertex -0.0465 -0.0085 0.529
  vertex -0.0465 -0.00216506 0.52775
  vertex -0.0465 -0.00241481 0.528353
  endloop
 endfacet

 facet normal 1 0 0
  outer loop
  vertex -0.0465 0.0025 0.529
  vertex -0.0465 0.00241481 0.528353
  vertex -0.0465 0.0085 0.529
  endloop
 endfacet

 facet normal 1 0 0
  outer loop
  vertex -0.0465 0.0085 0.529
  vertex -0.0465 0.00241481 0.528353
  vertex -0.0465 0.00216506 0.52775
  endloop
 endfacet

 facet normal 1 0 0
  outer loop
  vertex -0.0465 0.0085 0.529
  vertex -0.0465 0.00216506 0.52775
  vertex -0.0465 0.0085 0.414
  endloop
 endfacet

 facet normal 1 0 0
  outer loop
  vertex -0.0465 0.0085 0.414
  vertex -0.0465 0.00216506 0.52775
  vertex -0.0465 0.00176777 0.527232
  endloop
 endfacet

 facet normal 1 0 0
  outer loop
  vertex -0.0465 0.0085 0.414
  vertex -0.0465 0.00176777 0.527232
  vertex -0.0465 0.00125 0.526835
  endloop
 endfacet

 facet normal 1 0 0
  outer loop
  vertex -0.0465 -0.00241481 0.528353
  vertex -0.0465 -0.0025 0.529
  vertex -0.0465 -0.0085 0.529
  endloop
 endfacet

 facet normal 1 0 0
  outer loop
  vertex -0.0465 -0.0085 0.529
  vertex -0.0465 -0.0025 0.529
  vertex -0.0465 -0.00241481 0.529647
  endloop
 endfacet

 facet normal 1 0 0
  outer loop
  vertex -0.0465 -0.0085 0.529
  vertex -0.0465 -0.00241481 0.529647
  vertex -0.0465 -0.0035 0.534
  endloop
 endfacet

 facet normal 1 0 0
  outer loop
  vertex -0.0465 -0.0035 0.534
  vertex -0.0465 -0.00241481 0.529647
  vertex -0.0465 -0.00216506 0.53025
  endloop
 endfacet

 facet normal 1 0 0
  outer loop
  vertex -0.0465 -0.0035 0.534
  vertex -0.0465 -0.00216506 0.53025
  vertex -0.0465 -0.00176777 0.530768
  endloop
 endfacet

 facet normal 1 0 0
  outer loop
  vertex -0.0465 0.00125 0.531165
  vertex -0.0465 0.00176777 0.530768
  vertex -0.0465 0.0035 0.534
  endloop
 endfacet

 facet normal 1 0 0
  outer loop
  vertex -0.0465 0.0035 0.534
  vertex -0.0465 0.00176777 0.530768
  vertex -0.0465 0.00216506 0.53025
  endloop
 endfacet

 facet normal 1 0 0
  outer loop
  vertex -0.0465 0.0035 0.534
  vertex -0.0465 0.00216506 0.53025
  vertex -0.0465 0.0085 0.529
  endloop
 endfacet

 facet normal 1 0 0
  outer loop
  vertex -0.0465 0.0085 0.529
  vertex -0.0465 0.00216506 0.53025
  vertex -0.0465 0.00241481 0.529647
  endloop
 endfacet

 facet normal 1 0 0
  outer loop
  vertex -0.0465 0.0085 0.529
  vertex -0.0465 0.00241481 0.529647
  vertex -0.0465 0.0025 0.529
  endloop
 endfacet

 facet normal 0 0 1
  outer loop
  vertex -0.0535 -0.0035 0.534
  vertex -0.0465 -0.0035 0.534
  vertex -0.0535 0.0035 0.534
  endloop
 endfacet

 facet normal 0 0 1
  outer loop
  vertex -0.0535 0.0035 0.534
  vertex -0.0465 -0.0035 0.534
  vertex -0.0465 0.0035 0.534
  endloop
 endfacet

 facet normal -1 0 0
  outer loop
  vertex -0.0535 0.0085 0.529
  vertex -0.0535 0.0085 0.413
  vertex -0.0535 0.0035 0.534
  endloop
 endfacet

 facet normal -1 0 0
  outer loop
  vertex -0.0535 0.0035 0.534
  vertex -0.0535 0.0085 0.413
  vertex -0.0535 -0.0085 0.413
  endloop
 endfacet

 facet normal -1 0 0
  outer loop
  vertex -0.0535 -0.000647048 0.526585
  vertex -0.0535 0 0.5265
  vertex -0.0535 -0.0085 0.413
  endloop
 endfacet

 facet normal -1 0 0
  outer loop
  vertex -0.0535 -0.000647048 0.526585
  vertex -0.0535 -0.0085 0.413
  vertex -0.0535 -0.00125 0.526835
  endloop
 endfacet

 facet normal -1 0 0
  outer loop
  vertex -0.0535 0 0.5265
  vertex -0.0535 0.000647048 0.526585
  vertex -0.0535 -0.0085 0.413
  endloop
 endfacet

 facet normal -1 0 0
  outer loop
  vertex -0.0535 -0.0085 0.413
  vertex -0.0535 0.000647048 0.526585
  vertex -0.0535 0.00125 0.526835
  endloop
 endfacet

 facet normal -1 0 0
  outer loop
  vertex -0.0535 -0.0085 0.413
  vertex -0.0535 0.00125 0.526835
  vertex -0.0535 0.00176777 0.527232
  endloop
 endfacet

 facet normal -1 0 0
  outer loop
  vertex -0.0535 0.00241481 0.529647
  vertex -0.0535 0.00216506 0.53025
  vertex -0.0535 0.0035 0.534
  endloop
 endfacet

 facet normal -1 0 0
  outer loop
  vertex -0.0535 0.0035 0.534
  vertex -0.0535 0.00216506 0.53025
  vertex -0.0535 0.00176777 0.530768
  endloop
 endfacet

 facet normal -1 0 0
  outer loop
  vertex -0.0535 0.0035 0.534
  vertex -0.0535 0.00176777 0.530768
  vertex -0.0535 0.00125 0.531165
  endloop
 endfacet

 facet normal -1 0 0
  outer loop
  vertex -0.0535 0.00125 0.531165
  vertex -0.0535 0.000647048 0.531415
  vertex -0.0535 0.0035 0.534
  endloop
 endfacet

 facet normal -1 0 0
  outer loop
  vertex -0.0535 0.0035 0.534
  vertex -0.0535 0.000647048 0.531415
  vertex -0.0535 0 0.5315
  endloop
 endfacet

 facet normal -1 0 0
  outer loop
  vertex -0.0535 0.0035 0.534
  vertex -0.0535 0 0.5315
  vertex -0.0535 -0.0035 0.534
  endloop
 endfacet

 facet normal -1 0 0
  outer loop
  vertex -0.0535 -0.0035 0.534
  vertex -0.0535 0 0.5315
  vertex -0.0535 -0.000647048 0.531415
  endloop
 endfacet

 facet normal -1 0 0
  outer loop
  vertex -0.0535 -0.0035 0.534
  vertex -0.0535 -0.000647048 0.531415
  vertex -0.0535 -0.00125 0.531165
  endloop
 endfacet

 facet normal -1 0 0
  outer loop
  vertex -0.0535 -0.0025 0.529
  vertex -0.0535 -0.00241481 0.528353
  vertex -0.0535 -0.0085 0.529
  endloop
 endfacet

 facet normal -1 0 0
  outer loop
  vertex -0.0535 -0.0085 0.529
  vertex -0.0535 -0.00241481 0.528353
  vertex -0.0535 -0.00216506 0.52775
  endloop
 endfacet

 facet normal -1 0 0
  outer loop
  vertex -0.0535 -0.0085 0.529
  vertex -0.0535 -0.00216506 0.52775
  vertex -0.0535 -0.0085 0.413
  endloop
 endfacet

 facet normal -1 0 0
  outer loop
  vertex -0.0535 -0.0085 0.413
  vertex -0.0535 -0.00216506 0.52775
  vertex -0.0535 -0.00176777 0.527232
  endloop
 endfacet

 facet normal -1 0 0
  outer loop
  vertex -0.0535 -0.0085 0.413
  vertex -0.0535 -0.00176777 0.527232
  vertex -0.0535 -0.00125 0.526835
  endloop
 endfacet

 facet normal -1 0 0
  outer loop
  vertex -0.0535 0.00176777 0.527232
  vertex -0.0535 0.00216506 0.52775
  vertex -0.0535 -0.0085 0.413
  endloop
 endfacet

 facet normal -1 0 0
  outer loop
  vertex -0.0535 -0.0085 0.413
  vertex -0.0535 0.00216506 0.52775
  vertex -0.0535 0.00241481 0.528353
  endloop
 endfacet

 facet normal -1 0 0
  outer loop
  vertex -0.0535 -0.0085 0.413
  vertex -0.0535 0.00241481 0.528353
  vertex -0.0535 0.0035 0.534
  endloop
 endfacet

 facet normal -1 0 0
  outer loop
  vertex -0.0535 0.0035 0.534
  vertex -0.0535 0.00241481 0.528353
  vertex -0.0535 0.0025 0.529
  endloop
 endfacet

 facet normal -1 0 0
  outer loop
  vertex -0.0535 0.0035 0.534
  vertex -0.0535 0.0025 0.529
  vertex -0.0535 0.00241481 0.529647
  endloop
 endfacet

 facet normal -1 0 0
  outer loop
  vertex -0.0535 -0.00125 0.531165
  vertex -0.0535 -0.00176777 0.530768
  vertex -0.0535 -0.0035 0.534
  endloop
 endfacet

 facet normal -1 0 0
  outer loop
  vertex -0.0535 -0.0035 0.534
  vertex -0.0535 -0.00176777 0.530768
  vertex -0.0535 -0.00216506 0.53025
  endloop
 endfacet

 facet normal -1 0 0
  outer loop
  vertex -0.0535 -0.0035 0.534
  vertex -0.0535 -0.00216506 0.53025
  vertex -0.0535 -0.0085 0.529
  endloop
 endfacet

 facet normal -1 0 0
  outer loop
  vertex -0.0535 -0.0085 0.529
  vertex -0.0535 -0.00216506 0.53025
  vertex -0.0535 -0.00241481 0.529647
  endloop
 endfacet

 facet normal -1 0 0
  outer loop
  vertex -0.0535 -0.0085 0.529
  vertex -0.0535 -0.00241481 0.529647
  vertex -0.0535 -0.0025 0.529
  endloop
 endfacet

 facet normal -0.797539 0 -0.603267
  outer loop
  vertex -0.024 -0.0085 0.374
  vertex -0.0535 -0.0085 0.413
  vertex -0.024 0.0085 0.374
  endloop
 endfacet

 facet normal -0.797539 0 -0.603267
  outer loop
  vertex -0.024 0.0085 0.374
  vertex -0.0535 -0.0085 0.413
  vertex -0.0535 0.0085 0.413
  endloop
 endfacet

 facet normal -1 0 0
  outer loop
  vertex -0.024 -0.0085 0.344
  vertex -0.024 -0.0085 0.374
  vertex -0.024 0.0085 0.344
  endloop
 endfacet

 facet normal -1 0 0
  outer loop
  vertex -0.024 0.0085 0.344
  vertex -0.024 -0.0085 0.374
  vertex -0.024 0.0085 0.374
  endloop
 endfacet

 facet normal 0 0 -1
  outer loop
  vertex -0.017 -0.0085 0.344
  vertex -0.024 -0.0085 0.344
  vertex -0.017 -0.0065 0.344
  endloop
 endfacet

 facet normal 0 0 -1
  outer loop
  vertex -0.017 -0.0065 0.344
  vertex -0.024 -0.0085 0.344
  vertex -0.024 0.0085 0.344
  endloop
 endfacet

 facet normal 0 0 -1
  outer loop
  vertex -0.017 -0.0065 0.344
  vertex -0.024 0.0085 0.344
  vertex -0.017 0.0065 0.344
  endloop
 endfacet

 facet normal 0 0 -1
  outer loop
  vertex -0.017 0.0065 0.344
  vertex -0.024 0.0085 0.344
  vertex -0.017 0.0085 0.344
  endloop
 endfacet

 facet normal 1 0 0
  outer loop
  vertex -0.017 0.0065 0.344
  vertex -0.017 0.0085 0.344
  vertex -0.017 0.0065 0.374
  endloop
 endfacet

 facet normal 1 0 0
  outer loop
  vertex -0.017 0.0065 0.374
  vertex -0.017 0.0085 0.344
  vertex -0.017 0.0085 0.374
  endloop
 endfacet

 facet normal 0 -1 0
  outer loop
  vertex -0.0465 -0.0085 0.529
  vertex -0.0535 -0.0085 0.529
  vertex -0.0465 -0.0085 0.414
  endloop
 endfacet

 facet normal 0 -1 0
  outer loop
  vertex -0.0465 -0.0085 0.414
  vertex -0.0535 -0.0085 0.529
  vertex -0.0535 -0.0085 0.413
  endloop
 endfacet

 facet normal 0 -1 0
  outer loop
  vertex -0.0465 -0.0085 0.414
  vertex -0.0535 -0.0085 0.413
  vertex -0.017 -0.0085 0.374
  endloop
 endfacet

 facet normal 0 -1 0
  outer loop
  vertex -0.017 -0.0085 0.374
  vertex -0.0535 -0.0085 0.413
  vertex -0.024 -0.0085 0.374
  endloop
 endfacet

 facet normal 0 -1 0
  outer loop
  vertex -0.017 -0.0085 0.374
  vertex -0.024 -0.0085 0.374
  vertex -0.017 -0.0085 0.344
  endloop
 endfacet

 facet normal 0 -1 0
  outer loop
  vertex -0.017 -0.0085 0.344
  vertex -0.024 -0.0085 0.374
  vertex -0.024 -0.0085 0.344
  endloop
 endfacet

 facet normal 0 1 0
  outer loop
  vertex -0.017 0.0085 0.344
  vertex -0.024 0.0085 0.344
  vertex -0.017 0.0085 0.374
  endloop
 endfacet

 facet normal 0 1 0
  outer loop
  vertex -0.017 0.0085 0.374
  vertex -0.024 0.0085 0.344
  vertex -0.024 0.0085 0.374
  endloop
 endfacet

 facet normal 0 1 0
  outer loop
  vertex -0.017 0.0085 0.374
  vertex -0.024 0.0085 0.374
  vertex -0.0465 0.0085 0.414
  endloop
 endfacet

 facet normal 0 1 0
  outer loop
  vertex -0.0465 0.0085 0.414
  vertex -0.024 0.0085 0.374
  vertex -0.0535 0.0085 0.413
  endloop
 endfacet

 facet normal 0 1 0
  outer loop
  vertex -0.0465 0.0085 0.414
  vertex -0.0535 0.0085 0.413
  vertex -0.0465 0.0085 0.529
  endloop
 endfacet

 facet normal 0 1 0
  outer loop
  vertex -0.0465 0.0085 0.529
  vertex -0.0535 0.0085 0.413
  vertex -0.0535 0.0085 0.529
  endloop
 endfacet

 facet normal 0 0.0869338 0.996214
  outer loop
  vertex -0.0535 -0.000647048 0.526585
  vertex -0.0465 0 0.5265
  vertex -0.0535 0 0.5265
  endloop
 endfacet

 facet normal 0 -0.0869338 0.996214
  outer loop
  vertex -0.0535 0 0.5265
  vertex -0.0465 0 0.5265
  vertex -0.0465 0.000647048 0.526585
  endloop
 endfacet

 facet normal 0 -0.173868 0.984769
  outer loop
  vertex -0.0535 0 0.5265
  vertex -0.0465 0.000647048 0.526585
  vertex -0.0535 0.000647048 0.526585
  endloop
 endfacet

 facet normal 0 -0.341811 0.939769
  outer loop
  vertex -0.0535 0.000647048 0.526585
  vertex -0.0465 0.000647048 0.526585
  vertex -0.0465 0.00125 0.526835
  endloop
 endfacet

 facet normal 0 -0.42282 0.906214
  outer loop
  vertex -0.0535 0.000647048 0.526585
  vertex -0.0465 0.00125 0.526835
  vertex -0.0535 0.00125 0.526835
  endloop
 endfacet

 facet normal 0 -0.573394 0.81928
  outer loop
  vertex -0.0535 0.00125 0.526835
  vertex -0.0465 0.00125 0.526835
  vertex -0.0465 0.00176777 0.527232
  endloop
 endfacet

 facet normal 0 -0.642958 0.765901
  outer loop
  vertex -0.0535 0.00125 0.526835
  vertex -0.0465 0.00176777 0.527232
  vertex -0.0535 0.00176777 0.527232
  endloop
 endfacet

 facet normal 0 -0.765901 0.642958
  outer loop
  vertex -0.0535 0.00176777 0.527232
  vertex -0.0465 0.00176777 0.527232
  vertex -0.0465 0.00216506 0.52775
  endloop
 endfacet

 facet normal 0 -0.81928 0.573394
  outer loop
  vertex -0.0535 0.00176777 0.527232
  vertex -0.0465 0.00216506 0.52775
  vertex -0.0535 0.00216506 0.52775
  endloop
 endfacet

 facet normal 0 -0.906214 0.42282
  outer loop
  vertex -0.0535 0.00216506 0.52775
  vertex -0.0465 0.00216506 0.52775
  vertex -0.0465 0.00241481 0.528353
  endloop
 endfacet

 facet normal 0 -0.939769 0.341811
  outer loop
  vertex -0.0535 0.00216506 0.52775
  vertex -0.0465 0.00241481 0.528353
  vertex -0.0535 0.00241481 0.528353
  endloop
 endfacet

 facet normal 0 -0.984769 0.173868
  outer loop
  vertex -0.0535 0.00241481 0.528353
  vertex -0.0465 0.00241481 0.528353
  vertex -0.0465 0.0025 0.529
  endloop
 endfacet

 facet normal 0 -0.996214 0.0869338
  outer loop
  vertex -0.0535 0.00241481 0.528353
  vertex -0.0465 0.0025 0.529
  vertex -0.0535 0.0025 0.529
  endloop
 endfacet

 facet normal 0 -0.996214 -0.0869338
  outer loop
  vertex -0.0535 0.0025 0.529
  vertex -0.0465 0.0025 0.529
  vertex -0.0465 0.00241481 0.529647
  endloop
 endfacet

 facet normal 0 -0.984769 -0.173868
  outer loop
  vertex -0.0535 0.0025 0.529
  vertex -0.0465 0.00241481 0.529647
  vertex -0.0535 0.00241481 0.529647
  endloop
 endfacet

 facet normal 0 -0.939769 -0.341811
  outer loop
  vertex -0.0535 0.00241481 0.529647
  vertex -0.0465 0.00241481 0.529647
  vertex -0.0465 0.00216506 0.53025
  endloop
 endfacet

 facet normal 0 -0.906214 -0.42282
  outer loop
  vertex -0.0535 0.00241481 0.529647
  vertex -0.0465 0.00216506 0.53025
  vertex -0.0535 0.00216506 0.53025
  endloop
 endfacet

 facet normal 0 -0.81928 -0.573394
  outer loop
  vertex -0.0535 0.00216506 0.53025
  vertex -0.0465 0.00216506 0.53025
  vertex -0.0465 0.00176777 0.530768
  endloop
 endfacet

 facet normal 0 -0.765901 -0.642958
  outer loop
  vertex -0.0535 0.00216506 0.53025
  vertex -0.0465 0.00176777 0.530768
  vertex -0.0535 0.00176777 0.530768
  endloop
 endfacet

 facet normal 0 -0.642958 -0.765901
  outer loop
  vertex -0.0535 0.00176777 0.530768
  vertex -0.0465 0.00176777 0.530768
  vertex -0.0465 0.00125 0.531165
  endloop
 endfacet

 facet normal 0 -0.573394 -0.81928
  outer loop
  vertex -0.0535 0.00176777 0.530768
  vertex -0.0465 0.00125 0.531165
  vertex -0.0535 0.00125 0.531165
  endloop
 endfacet

 facet normal 0 -0.42282 -0.906214
  outer loop
  vertex -0.0535 0.00125 0.531165
  vertex -0.0465 0.00125 0.531165
  vertex -0.0465 0.000647048 0.531415
  endloop
 endfacet

 facet normal 0 -0.341811 -0.939769
  outer loop
  vertex -0.0535 0.00125 0.531165
  vertex -0.0465 0.000647048 0.531415
  vertex -0.0535 0.000647048 0.531415
  endloop
 endfacet

 facet normal 0 -0.173868 -0.984769
  outer loop
  vertex -0.0535 0.000647048 0.531415
  vertex -0.0465 0.000647048 0.531415
  vertex -0.0465 0 0.5315
  endloop
 endfacet

 facet normal 0 -0.0869338 -0.996214
  outer loop
  vertex -0.0535 0.000647048 0.531415
  vertex -0.0465 0 0.5315
  vertex -0.0535 0 0.5315
  endloop
 endfacet

 facet normal 0 0.0869338 -0.996214
  outer loop
  vertex -0.0535 0 0.5315
  vertex -0.0465 0 0.5315
  vertex -0.0465 -0.000647048 0.531415
  endloop
 endfacet

 facet normal 0 0.173868 -0.984769
  outer loop
  vertex -0.0535 0 0.5315
  vertex -0.0465 -0.000647048 0.531415
  vertex -0.0535 -0.000647048 0.531415
  endloop
 endfacet

 facet normal 0 0.341811 -0.939769
  outer loop
  vertex -0.0535 -0.000647048 0.531415
  vertex -0.0465 -0.000647048 0.531415
  vertex -0.0465 -0.00125 0.531165
  endloop
 endfacet

 facet normal 0 0.42282 -0.906214
  outer loop
  vertex -0.0535 -0.000647048 0.531415
  vertex -0.0465 -0.00125 0.531165
  vertex -0.0535 -0.00125 0.531165
  endloop
 endfacet

 facet normal 0 0.573394 -0.81928
  outer loop
  vertex -0.0535 -0.00125 0.531165
  vertex -0.0465 -0.00125 0.531165
  vertex -0.0465 -0.00176777 0.530768
  endloop
 endfacet

 facet normal 0 0.642958 -0.765901
  outer loop
  vertex -0.0535 -0.00125 0.531165
  vertex -0.0465 -0.00176777 0.530768
  vertex -0.0535 -0.00176777 0.530768
  endloop
 endfacet

 facet normal 0 0.765901 -0.642958
  outer loop
  vertex -0.0535 -0.00176777 0.530768
  vertex -0.0465 -0.00176777 0.530768
  vertex -0.0465 -0.00216506 0.53025
  endloop
 endfacet

 facet normal 0 0.81928 -0.573394
  outer loop
  vertex -0.0535 -0.00176777 0.530768
  vertex -0.0465 -0.00216506 0.53025
  vertex -0.0535 -0.00216506 0.53025
  endloop
 endfacet

 facet normal 0 0.906214 -0.42282
  outer loop
  vertex -0.0535 -0.00216506 0.53025
  vertex -0.0465 -0.00216506 0.53025
  vertex -0.0465 -0.00241481 0.529647
  endloop
 endfacet

 facet normal 0 0.939769 -0.341811
  outer loop
  vertex -0.0535 -0.00216506 0.53025
  vertex -0.0465 -0.00241481 0.529647
  vertex -0.0535 -0.00241481 0.529647
  endloop
 endfacet

 facet normal 0 0.984769 -0.173868
  outer loop
  vertex -0.0535 -0.00241481 0.529647
  vertex -0.0465 -0.00241481 0.529647
  vertex -0.0465 -0.0025 0.529
  endloop
 endfacet

 facet normal 0 0.996214 -0.0869338
  outer loop
  vertex -0.0535 -0.00241481 0.529647
  vertex -0.0465 -0.0025 0.529
  vertex -0.0535 -0.0025 0.529
  endloop
 endfacet

 facet normal 0 0.996214 0.0869338
  outer loop
  vertex -0.0535 -0.0025 0.529
  vertex -0.0465 -0.0025 0.529
  vertex -0.0465 -0.00241481 0.528353
  endloop
 endfacet

 facet normal 0 0.984769 0.173868
  outer loop
  vertex -0.0535 -0.0025 0.529
  vertex -0.0465 -0.00241481 0.528353
  vertex -0.0535 -0.00241481 0.528353
  endloop
 endfacet

 facet normal 0 0.939769 0.341811
  outer loop
  vertex -0.0535 -0.00241481 0.528353
  vertex -0.0465 -0.00241481 0.528353
  vertex -0.0465 -0.00216506 0.52775
  endloop
 endfacet

 facet normal 0 0.906214 0.42282
  outer loop
  vertex -0.0535 -0.00241481 0.528353
  vertex -0.0465 -0.00216506 0.52775
  vertex -0.0535 -0.00216506 0.52775
  endloop
 endfacet

 facet normal 0 0.81928 0.573394
  outer loop
  vertex -0.0535 -0.00216506 0.52775
  vertex -0.0465 -0.00216506 0.52775
  vertex -0.0465 -0.00176777 0.527232
  endloop
 endfacet

 facet normal 0 0.765901 0.642958
  outer loop
  vertex -0.0535 -0.00216506 0.52775
  vertex -0.0465 -0.00176777 0.527232
  vertex -0.0535 -0.00176777 0.527232
  endloop
 endfacet

 facet normal 0 0.642958 0.765901
  outer loop
  vertex -0.0535 -0.00176777 0.527232
  vertex -0.0465 -0.00176777 0.527232
  vertex -0.0465 -0.00125 0.526835
  endloop
 endfacet

 facet normal 0 0.573394 0.81928
  outer loop
  vertex -0.0535 -0.00176777 0.527232
  vertex -0.0465 -0.00125 0.526835
  vertex -0.0535 -0.00125 0.526835
  endloop
 endfacet

 facet normal 0 0.42282 0.906214
  outer loop
  vertex -0.0535 -0.00125 0.526835
  vertex -0.0465 -0.00125 0.526835
  vertex -0.0465 -0.000647048 0.526585
  endloop
 endfacet

 facet normal 0 0.341811 0.939769
  outer loop
  vertex -0.0535 -0.00125 0.526835
  vertex -0.0465 -0.000647048 0.526585
  vertex -0.0535 -0.000647048 0.526585
  endloop
 endfacet

 facet normal 0 0.173868 0.984769
  outer loop
  vertex -0.0535 -0.000647048 0.526585
  vertex -0.0465 -0.000647048 0.526585
  vertex -0.0465 0 0.5265
  endloop
 endfacet

 facet normal 0 0.0869338 0.996214
  outer loop
  vertex 0.0295 -0.000647048 0.526585
  vertex 0.0365 0 0.5265
  vertex 0.0295 0 0.5265
  endloop
 endfacet

 facet normal 0 -0.0869338 0.996214
  outer loop
  vertex 0.0295 0 0.5265
  vertex 0.0365 0 0.5265
  vertex 0.0365 0.000647048 0.526585
  endloop
 endfacet

 facet normal 0 -0.173868 0.984769
  outer loop
  vertex 0.0295 0 0.5265
  vertex 0.0365 0.000647048 0.526585
  vertex 0.0295 0.000647048 0.526585
  endloop
 endfacet

 facet normal 0 -0.341811 0.939769
  outer loop
  vertex 0.0295 0.000647048 0.526585
  vertex 0.0365 0.000647048 0.526585
  vertex 0.0365 0.00125 0.526835
  endloop
 endfacet

 facet normal 0 -0.42282 0.906214
  outer loop
  vertex 0.0295 0.000647048 0.526585
  vertex 0.0365 0.00125 0.526835
  vertex 0.0295 0.00125 0.526835
  endloop
 endfacet

 facet normal 0 -0.573394 0.81928
  outer loop
  vertex 0.0295 0.00125 0.526835
  vertex 0.0365 0.00125 0.526835
  vertex 0.0365 0.00176777 0.527232
  endloop
 endfacet

 facet normal 0 -0.642958 0.765901
  outer loop
  vertex 0.0295 0.00125 0.526835
  vertex 0.0365 0.00176777 0.527232
  vertex 0.0295 0.00176777 0.527232
  endloop
 endfacet

 facet normal 0 -0.765901 0.642958
  outer loop
  vertex 0.0295 0.00176777 0.527232
  vertex 0.0365 0.00176777 0.527232
  vertex 0.0365 0.00216506 0.52775
  endloop
 endfacet

 facet normal 0 -0.81928 0.573394
  outer loop
  vertex 0.0295 0.00176777 0.527232
  vertex 0.0365 0.00216506 0.52775
  vertex 0.0295 0.00216506 0.52775
  endloop
 endfacet

 facet normal 0 -0.906214 0.42282
  outer loop
  vertex 0.0295 0.00216506 0.52775
  vertex 0.0365 0.00216506 0.52775
  vertex 0.0365 0.00241481 0.528353
  endloop
 endfacet

 facet normal 0 -0.939769 0.341811
  outer loop
  vertex 0.0295 0.00216506 0.52775
  vertex 0.0365 0.00241481 0.528353
  vertex 0.0295 0.00241481 0.528353
  endloop
 endfacet

 facet normal 0 -0.984769 0.173868
  outer loop
  vertex 0.0295 0.00241481 0.528353
  vertex 0.0365 0.00241481 0.528353
  vertex 0.0365 0.0025 0.529
  endloop
 endfacet

 facet normal 0 -0.996214 0.0869338
  outer loop
  vertex 0.0295 0.00241481 0.528353
  vertex 0.0365 0.0025 0.529
  vertex 0.0295 0.0025 0.529
  endloop
 endfacet

 facet normal 0 -0.996214 -0.0869338
  outer loop
  vertex 0.0295 0.0025 0.529
  vertex 0.0365 0.0025 0.529
  vertex 0.0365 0.00241481 0.529647
  endloop
 endfacet

 facet normal 0 -0.984769 -0.173868
  outer loop
  vertex 0.0295 0.0025 0.529
  vertex 0.0365 0.00241481 0.529647
  vertex 0.0295 0.00241481 0.529647
  endloop
 endfacet

 facet normal 0 -0.939769 -0.341811
  outer loop
  vertex 0.0295 0.00241481 0.529647
  vertex 0.0365 0.00241481 0.529647
  vertex 0.0365 0.00216506 0.53025
  endloop
 endfacet

 facet normal 0 -0.906214 -0.42282
  outer loop
  vertex 0.0295 0.00241481 0.529647
  vertex 0.0365 0.00216506 0.53025
  vertex 0.0295 0.00216506 0.53025
  endloop
 endfacet

 facet normal 0 -0.81928 -0.573394
  outer loop
  vertex 0.0295 0.00216506 0.53025
  vertex 0.0365 0.00216506 0.53025
  vertex 0.0365 0.00176777 0.530768
  endloop
 endfacet

 facet normal 0 -0.765901 -0.642958
  outer loop
  vertex 0.0295 0.00216506 0.53025
  vertex 0.0365 0.00176777 0.530768
  vertex 0.0295 0.00176777 0.530768
  endloop
 endfacet

 facet normal 0 -0.642958 -0.765901
  outer loop
  vertex 0.0295 0.00176777 0.530768
  vertex 0.0365 0.00176777 0.530768
  vertex 0.0365 0.00125 0.531165
  endloop
 endfacet

 facet normal 0 -0.573394 -0.81928
  outer loop
  vertex 0.0295 0.00176777 0.530768
  vertex 0.0365 0.00125 0.531165
  vertex 0.0295 0.00125 0.531165
  endloop
 endfacet

 facet normal 0 -0.42282 -0.906214
  outer loop
  vertex 0.0295 0.00125 0.531165
  vertex 0.0365 0.00125 0.531165
  vertex 0.0365 0.000647048 0.531415
  endloop
 endfacet

 facet normal 0 -0.341811 -0.939769
  outer loop
  vertex 0.0295 0.00125 0.531165
  vertex 0.0365 0.000647048 0.531415
  vertex 0.0295 0.000647048 0.531415
  endloop
 endfacet

 facet normal 0 -0.173868 -0.984769
  outer loop
  vertex 0.0295 0.000647048 0.531415
  vertex 0.0365 0.000647048 0.531415
  vertex 0.0365 0 0.5315
  endloop
 endfacet

 facet normal 0 -0.0869338 -0.996214
  outer loop
  vertex 0.0295 0.000647048 0.531415
  vertex 0.0365 0 0.5315
  vertex 0.0295 0 0.5315
  endloop
 endfacet

 facet normal 0 0.0869338 -0.996214
  outer loop
  vertex 0.0295 0 0.5315
  vertex 0.0365 0 0.5315
  vertex 0.0365 -0.000647048 0.531415
  endloop
 endfacet

 facet normal 0 0.173868 -0.984769
  outer loop
  vertex 0.0295 0 0.5315
  vertex 0.0365 -0.000647048 0.531415
  vertex 0.0295 -0.000647048 0.531415
  endloop
 endfacet

 facet normal 0 0.341811 -0.939769
  outer loop
  vertex 0.0295 -0.000647048 0.531415
  vertex 0.0365 -0.000647048 0.531415
  vertex 0.0365 -0.00125 0.531165
  endloop
 endfacet

 facet normal 0 0.42282 -0.906214
  outer loop
  vertex 0.0295 -0.000647048 0.531415
  vertex 0.0365 -0.00125 0.531165
  vertex 0.0295 -0.00125 0.531165
  endloop
 endfacet

 facet normal 0 0.573394 -0.81928
  outer loop
  vertex 0.0295 -0.00125 0.531165
  vertex 0.0365 -0.00125 0.531165
  vertex 0.0365 -0.00176777 0.530768
  endloop
 endfacet

 facet normal 0 0.642958 -0.765901
  outer loop
  vertex 0.0295 -0.00125 0.531165
  vertex 0.0365 -0.00176777 0.530768
  vertex 0.0295 -0.00176777 0.530768
  endloop
 endfacet

 facet normal 0 0.765901 -0.642958
  outer loop
  vertex 0.0295 -0.00176777 0.530768
  vertex 0.0365 -0.00176777 0.530768
  vertex 0.0365 -0.00216506 0.53025
  endloop
 endfacet

 facet normal 0 0.81928 -0.573394
  outer loop
  vertex 0.0295 -0.00176777 0.530768
  vertex 0.0365 -0.00216506 0.53025
  vertex 0.0295 -0.00216506 0.53025
  endloop
 endfacet

 facet normal 0 0.906214 -0.42282
  outer loop
  vertex 0.0295 -0.00216506 0.53025
  vertex 0.0365 -0.00216506 0.53025
  vertex 0.0365 -0.00241481 0.529647
  endloop
 endfacet

 facet normal 0 0.939769 -0.341811
  outer loop
  vertex 0.0295 -0.00216506 0.53025
  vertex 0.0365 -0.00241481 0.529647
  vertex 0.0295 -0.00241481 0.529647
  endloop
 endfacet

 facet normal 0 0.984769 -0.173868
  outer loop
  vertex 0.0295 -0.00241481 0.529647
  vertex 0.0365 -0.00241481 0.529647
  vertex 0.0365 -0.0025 0.529
  endloop
 endfacet

 facet normal 0 0.996214 -0.0869338
  outer loop
  vertex 0.0295 -0.00241481 0.529647
  vertex 0.0365 -0.0025 0.529
  vertex 0.0295 -0.0025 0.529
  endloop
 endfacet

 facet normal 0 0.996214 0.0869338
  outer loop
  vertex 0.0295 -0.0025 0.529
  vertex 0.0365 -0.0025 0.529
  vertex 0.0365 -0.00241481 0.528353
  endloop
 endfacet

 facet normal 0 0.984769 0.173868
  outer loop
  vertex 0.0295 -0.0025 0.529
  vertex 0.0365 -0.00241481 0.528353
  vertex 0.0295 -0.00241481 0.528353
  endloop
 endfacet

 facet normal 0 0.939769 0.341811
  outer loop
  vertex 0.0295 -0.00241481 0.528353
  vertex 0.0365 -0.00241481 0.528353
  vertex 0.0365 -0.00216506 0.52775
  endloop
 endfacet

 facet normal 0 0.906214 0.42282
  outer loop
  vertex 0.0295 -0.00241481 0.528353
  vertex 0.0365 -0.00216506 0.52775
  vertex 0.0295 -0.00216506 0.52775
  endloop
 endfacet

 facet normal 0 0.81928 0.573394
  outer loop
  vertex 0.0295 -0.00216506 0.52775
  vertex 0.0365 -0.00216506 0.52775
  vertex 0.0365 -0.00176777 0.527232
  endloop
 endfacet

 facet normal 0 0.765901 0.642958
  outer loop
  vertex 0.0295 -0.00216506 0.52775
  vertex 0.0365 -0.00176777 0.527232
  vertex 0.0295 -0.00176777 0.527232
  endloop
 endfacet

 facet normal 0 0.642958 0.765901
  outer loop
  vertex 0.0295 -0.00176777 0.527232
  vertex 0.0365 -0.00176777 0.527232
  vertex 0.0365 -0.00125 0.526835
  endloop
 endfacet

 facet normal 0 0.573394 0.81928
  outer loop
  vertex 0.0295 -0.00176777 0.527232
  vertex 0.0365 -0.00125 0.526835
  vertex 0.0295 -0.00125 0.526835
  endloop
 endfacet

 facet normal 0 0.42282 0.906214
  outer loop
  vertex 0.0295 -0.00125 0.526835
  vertex 0.0365 -0.00125 0.526835
  vertex 0.0365 -0.000647048 0.526585
  endloop
 endfacet

 facet normal 0 0.341811 0.939769
  outer loop
  vertex 0.0295 -0.00125 0.526835
  vertex 0.0365 -0.000647048 0.526585
  vertex 0.0295 -0.000647048 0.526585
  endloop
 endfacet

 facet normal 0 0.173868 0.984769
  outer loop
  vertex 0.0295 -0.000647048 0.526585
  vertex 0.0365 -0.000647048 0.526585
  vertex 0.0365 0 0.5265
  endloop
 endfacet

 facet normal 0 0.0869338 0.996214
  outer loop
  vertex -0.017 -0.000647048 0.00658518
  vertex 0 -0 0.0065
  vertex -0.017 -0 0.0065
  endloop
 endfacet

 facet normal 0 -0.0869338 0.996214
  outer loop
  vertex -0.017 -0 0.0065
  vertex 0 -0 0.0065
  vertex 0 0.000647048 0.00658518
  endloop
 endfacet

 facet normal 0 -0.173868 0.984769
  outer loop
  vertex -0.017 -0 0.0065
  vertex 0 0.000647048 0.00658518
  vertex -0.017 0.000647048 0.00658518
  endloop
 endfacet

 facet normal 0 -0.341811 0.939769
  outer loop
  vertex -0.017 0.000647048 0.00658518
  vertex 0 0.000647048 0.00658518
  vertex 0 0.00125 0.00683494
  endloop
 endfacet

 facet normal 0 -0.42282 0.906214
  outer loop
  vertex -0.017 0.000647048 0.00658518
  vertex 0 0.00125 0.00683494
  vertex -0.017 0.00125 0.00683494
  endloop
 endfacet

 facet normal 0 -0.573394 0.81928
  outer loop
  vertex -0.017 0.00125 0.00683494
  vertex 0 0.00125 0.00683494
  vertex 0 0.00176777 0.00723223
  endloop
 endfacet

 facet normal 0 -0.642958 0.765901
  outer loop
  vertex -0.017 0.00125 0.00683494
  vertex 0 0.00176777 0.00723223
  vertex -0.017 0.00176777 0.00723223
  endloop
 endfacet

 facet normal 0 -0.765901 0.642958
  outer loop
  vertex -0.017 0.00176777 0.00723223
  vertex 0 0.00176777 0.00723223
  vertex 0 0.00216506 0.00775
  endloop
 endfacet

 facet normal 0 -0.81928 0.573394
  outer loop
  vertex -0.017 0.00176777 0.00723223
  vertex 0 0.00216506 0.00775
  vertex -0.017 0.00216506 0.00775
  endloop
 endfacet

 facet normal 0 -0.906214 0.42282
  outer loop
  vertex -0.017 0.00216506 0.00775
  vertex 0 0.00216506 0.00775
  vertex 0 0.00241481 0.00835295
  endloop
 endfacet

 facet normal 0 -0.939769 0.341811
  outer loop
  vertex -0.017 0.00216506 0.00775
  vertex 0 0.00241481 0.00835295
  vertex -0.017 0.00241481 0.00835295
  endloop
 endfacet

 facet normal 0 -0.984769 0.173868
  outer loop
  vertex -0.017 0.00241481 0.00835295
  vertex 0 0.00241481 0.00835295
  vertex 0 0.0025 0.009
  endloop
 endfacet

 facet normal 0 -0.996214 0.0869338
  outer loop
  vertex -0.017 0.00241481 0.00835295
  vertex 0 0.0025 0.009
  vertex -0.017 0.0025 0.009
  endloop
 endfacet

 facet normal 0 -0.996214 -0.0869338
  outer loop
  vertex -0.017 0.0025 0.009
  vertex 0 0.0025 0.009
  vertex 0 0.00241481 0.00964705
  endloop
 endfacet

 facet normal 0 -0.984769 -0.173868
  outer loop
  vertex -0.017 0.0025 0.009
  vertex 0 0.00241481 0.00964705
  vertex -0.017 0.00241481 0.00964705
  endloop
 endfacet

 facet normal 0 -0.939769 -0.341811
  outer loop
  vertex -0.017 0.00241481 0.00964705
  vertex 0 0.00241481 0.00964705
  vertex 0 0.00216506 0.01025
  endloop
 endfacet

 facet normal 0 -0.906214 -0.42282
  outer loop
  vertex -0.017 0.00241481 0.00964705
  vertex 0 0.00216506 0.01025
  vertex -0.017 0.00216506 0.01025
  endloop
 endfacet

 facet normal 0 -0.81928 -0.573394
  outer loop
  vertex -0.017 0.00216506 0.01025
  vertex 0 0.00216506 0.01025
  vertex 0 0.00176777 0.0107678
  endloop
 endfacet

 facet normal 0 -0.765901 -0.642958
  outer loop
  vertex -0.017 0.00216506 0.01025
  vertex 0 0.00176777 0.0107678
  vertex -0.017 0.00176777 0.0107678
  endloop
 endfacet

 facet normal 0 -0.642958 -0.765901
  outer loop
  vertex -0.017 0.00176777 0.0107678
  vertex 0 0.00176777 0.0107678
  vertex 0 0.00125 0.0111651
  endloop
 endfacet

 facet normal 0 -0.573394 -0.81928
  outer loop
  vertex -0.017 0.00176777 0.0107678
  vertex 0 0.00125 0.0111651
  vertex -0.017 0.00125 0.0111651
  endloop
 endfacet

 facet normal 0 -0.42282 -0.906214
  outer loop
  vertex -0.017 0.00125 0.0111651
  vertex 0 0.00125 0.0111651
  vertex 0 0.000647048 0.0114148
  endloop
 endfacet

 facet normal 0 -0.341811 -0.939769
  outer loop
  vertex -0.017 0.00125 0.0111651
  vertex 0 0.000647048 0.0114148
  vertex -0.017 0.000647048 0.0114148
  endloop
 endfacet

 facet normal 0 -0.173868 -0.984769
  outer loop
  vertex -0.017 0.000647048 0.0114148
  vertex 0 0.000647048 0.0114148
  vertex 0 -0 0.0115
  endloop
 endfacet

 facet normal 0 -0.0869338 -0.996214
  outer loop
  vertex -0.017 0.000647048 0.0114148
  vertex 0 -0 0.0115
  vertex -0.017 -0 0.0115
  endloop
 endfacet

 facet normal 0 0.0869338 -0.996214
  outer loop
  vertex -0.017 -0 0.0115
  vertex 0 -0 0.0115
  vertex 0 -0.000647048 0.0114148
  endloop
 endfacet

 facet normal 0 0.173868 -0.984769
  outer loop
  vertex -0.017 -0 0.0115
  vertex 0 -0.000647048 0.0114148
  vertex -0.017 -0.000647048 0.0114148
  endloop
 endfacet

 facet normal 0 0.341811 -0.939769
  outer loop
  vertex -0.017 -0.000647048 0.0114148
  vertex 0 -0.000647048 0.0114148
  vertex 0 -0.00125 0.0111651
  endloop
 endfacet

 facet normal 0 0.42282 -0.906214
  outer loop
  vertex -0.017 -0.000647048 0.0114148
  vertex 0 -0.00125 0.0111651
  vertex -0.017 -0.00125 0.0111651
  endloop
 endfacet

 facet normal 0 0.573394 -0.81928
  outer loop
  vertex -0.017 -0.00125 0.0111651
  vertex 0 -0.00125 0.0111651
  vertex 0 -0.00176777 0.0107678
  endloop
 endfacet

 facet normal 0 0.642958 -0.765901
  outer loop
  vertex -0.017 -0.00125 0.0111651
  vertex 0 -0.00176777 0.0107678
  vertex -0.017 -0.00176777 0.0107678
  endloop
 endfacet

 facet normal 0 0.765901 -0.642958
  outer loop
  vertex -0.017 -0.00176777 0.0107678
  vertex 0 -0.00176777 0.0107678
  vertex 0 -0.00216506 0.01025
  endloop
 endfacet

 facet normal 0 0.81928 -0.573394
  outer loop
  vertex -0.017 -0.00176777 0.0107678
  vertex 0 -0.00216506 0.01025
  vertex -0.017 -0.00216506 0.01025
  endloop
 endfacet

 facet normal 0 0.906214 -0.42282
  outer loop
  vertex -0.017 -0.00216506 0.01025
  vertex 0 -0.00216506 0.01025
  vertex 0 -0.00241481 0.00964705
  endloop
 endfacet

 facet normal 0 0.939769 -0.341811
  outer loop
  vertex -0.017 -0.00216506 0.01025
  vertex 0 -0.00241481 0.00964705
  vertex -0.017 -0.00241481 0.00964705
  endloop
 endfacet

 facet normal 0 0.984769 -0.173868
  outer loop
  vertex -0.017 -0.00241481 0.00964705
  vertex 0 -0.00241481 0.00964705
  vertex 0 -0.0025 0.009
  endloop
 endfacet

 facet normal 0 0.996214 -0.0869338
  outer loop
  vertex -0.017 -0.00241481 0.00964705
  vertex 0 -0.0025 0.009
  vertex -0.017 -0.0025 0.009
  endloop
 endfacet

 facet normal 0 0.996214 0.0869338
  outer loop
  vertex -0.017 -0.0025 0.009
  vertex 0 -0.0025 0.009
  vertex 0 -0.00241481 0.00835295
  endloop
 endfacet

 facet normal 0 0.984769 0.173868
  outer loop
  vertex -0.017 -0.0025 0.009
  vertex 0 -0.00241481 0.00835295
  vertex -0.017 -0.00241481 0.00835295
  endloop
 endfacet

 facet normal 0 0.939769 0.341811
  outer loop
  vertex -0.017 -0.00241481 0.00835295
  vertex 0 -0.00241481 0.00835295
  vertex 0 -0.00216506 0.00775
  endloop
 endfacet

 facet normal 0 0.906214 0.42282
  outer loop
  vertex -0.017 -0.00241481 0.00835295
  vertex 0 -0.00216506 0.00775
  vertex -0.017 -0.00216506 0.00775
  endloop
 endfacet

 facet normal 0 0.81928 0.573394
  outer loop
  vertex -0.017 -0.00216506 0.00775
  vertex 0 -0.00216506 0.00775
  vertex 0 -0.00176777 0.00723223
  endloop
 endfacet

 facet normal 0 0.765901 0.642958
  outer loop
  vertex -0.017 -0.00216506 0.00775
  vertex 0 -0.00176777 0.00723223
  vertex -0.017 -0.00176777 0.00723223
  endloop
 endfacet

 facet normal 0 0.642958 0.765901
  outer loop
  vertex -0.017 -0.00176777 0.00723223
  vertex 0 -0.00176777 0.00723223
  vertex 0 -0.00125 0.00683494
  endloop
 endfacet

 facet normal 0 0.573394 0.81928
  outer loop
  vertex -0.017 -0.00176777 0.00723223
  vertex 0 -0.00125 0.00683494
  vertex -0.017 -0.00125 0.00683494
  endloop
 endfacet

 facet normal 0 0.42282 0.906214
  outer loop
  vertex -0.017 -0.00125 0.00683494
  vertex 0 -0.00125 0.00683494
  vertex 0 -0.000647048 0.00658518
  endloop
 endfacet

 facet normal 0 0.341811 0.939769
  outer loop
  vertex -0.017 -0.00125 0.00683494
  vertex 0 -0.000647048 0.00658518
  vertex -0.017 -0.000647048 0.00658518
  endloop
 endfacet

 facet normal 0 0.173868 0.984769
  outer loop
  vertex -0.017 -0.000647048 0.00658518
  vertex 0 -0.000647048 0.00658518
  vertex 0 -0 0.0065
  endloop
 endfacet

 facet normal 0 0.707107 0.707107
  outer loop
  vertex -0.0535 0.0085 0.529
  vertex -0.0535 0.0035 0.534
  vertex -0.0465 0.0085 0.529
  endloop
 endfacet

 facet normal 0 0.707107 0.707107
  outer loop
  vertex -0.0465 0.0085 0.529
  vertex -0.0535 0.0035 0.534
  vertex -0.0465 0.0035 0.534
  endloop
 endfacet

 facet normal 0 -0.707107 0.707107
  outer loop
  vertex -0.0535 -0.0035 0.534
  vertex -0.0535 -0.0085 0.529
  vertex -0.0465 -0.0035 0.534
  endloop
 endfacet

 facet normal 0 -0.707107 0.707107
  outer loop
  vertex -0.0465 -0.0035 0.534
  vertex -0.0535 -0.0085 0.529
  vertex -0.0465 -0.0085 0.529
  endloop
 endfacet

 facet normal 0 0.707107 0.707107
  outer loop
  vertex 0.0365 0.0035 0.534
  vertex 0.0365 0.0085 0.529
  vertex 0.0295 0.0035 0.534
  endloop
 endfacet

 facet normal 0 0.707107 0.707107
  outer loop
  vertex 0.0295 0.0035 0.534
  vertex 0.0365 0.0085 0.529
  vertex 0.0295 0.0085 0.529
  endloop
 endfacet

 facet normal 0 -0.707107 0.707107
  outer loop
  vertex 0.0365 -0.0085 0.529
  vertex 0.0365 -0.0035 0.534
  vertex 0.0295 -0.0085 0.529
  endloop
 endfacet

 facet normal 0 -0.707107 0.707107
  outer loop
  vertex 0.0295 -0.0085 0.529
  vertex 0.0365 -0.0035 0.534
  vertex 0.0295 -0.0035 0.534
  endloop
 endfacet

endsolid AssimpScene
