solid AssimpScene
 facet normal 0 0 -1
  outer loop
  vertex 0.00865926 0.0319974 0
  vertex 0.009 0.0345856 0
  vertex 0.009 0 0
  endloop
 endfacet

 facet normal 0 0 -1
  outer loop
  vertex 0.00176777 0.00176777 0
  vertex 0.00125 0.00216506 0
  vertex -0.001 0.0245856 0
  endloop
 endfacet

 facet normal 0 0 -1
  outer loop
  vertex 0.00865926 0.0319974 0
  vertex 0.009 0 0
  vertex 0.00766025 0.0295856 0
  endloop
 endfacet

 facet normal 0 0 -1
  outer loop
  vertex 0.00158819 0.0249264 0
  vertex 0.004 0.0259254 0
  vertex 0.009 0 0
  endloop
 endfacet

 facet normal 0 0 -1
  outer loop
  vertex 0.009 0 0
  vertex 0.004 0.0259254 0
  vertex 0.00607107 0.0275146 0
  endloop
 endfacet

 facet normal 0 0 -1
  outer loop
  vertex 0.009 0 0
  vertex 0.00607107 0.0275146 0
  vertex 0.00766025 0.0295856 0
  endloop
 endfacet

 facet normal 0 0 -1
  outer loop
  vertex -0.00176777 0.00176777 0
  vertex -0.00874066 0.032121 0
  vertex -0.00125 0.00216506 0
  endloop
 endfacet

 facet normal 0 0 -1
  outer loop
  vertex -0.00125 0.00216506 0
  vertex -0.00874066 0.032121 0
  vertex -0.0079761 0.0299757 0
  endloop
 endfacet

 facet normal 0 0 -1
  outer loop
  vertex -0.00125 0.00216506 0
  vertex -0.0079761 0.0299757 0
  vertex -0.000647048 0.00241481 0
  endloop
 endfacet

 facet normal 0 0 -1
  outer loop
  vertex -0.000647048 0.00241481 0
  vertex -0.0079761 0.0299757 0
  vertex -0.00674597 0.028059 0
  endloop
 endfacet

 facet normal 0 0 -1
  outer loop
  vertex -0.00176777 0.00176777 0
  vertex -0.00216506 0.00125 0
  vertex -0.00874066 0.032121 0
  endloop
 endfacet

 facet normal 0 0 -1
  outer loop
  vertex -0.00874066 0.032121 0
  vertex -0.00216506 0.00125 0
  vertex -0.009 0 0
  endloop
 endfacet

 facet normal 0 0 -1
  outer loop
  vertex -0.00874066 0.032121 0
  vertex -0.009 0 0
  vertex -0.009 0.0343836 0
  endloop
 endfacet

 facet normal 0 0 -1
  outer loop
  vertex -0.00216506 0.00125 0
  vertex -0.00241481 0.000647048 0
  vertex -0.009 0 0
  endloop
 endfacet

 facet normal 0 0 -1
  outer loop
  vertex -0.009 0 0
  vertex -0.00241481 0.000647048 0
  vertex -0.0025 0 0
  endloop
 endfacet

 facet normal 0 0 -1
  outer loop
  vertex -0.009 0 0
  vertex -0.0025 0 0
  vertex -0.00869333 -0.00232937 0
  endloop
 endfacet

 facet normal 0 0 -1
  outer loop
  vertex -0.00869333 -0.00232937 0
  vertex -0.0025 0 0
  vertex -0.00241481 -0.000647048 0
  endloop
 endfacet

 facet normal 0 0 -1
  outer loop
  vertex -0.00869333 -0.00232937 0
  vertex -0.00241481 -0.000647048 0
  vertex -0.00779423 -0.0045 0
  endloop
 endfacet

 facet normal 0 0 -1
  outer loop
  vertex -0.00779423 -0.0045 0
  vertex -0.00241481 -0.000647048 0
  vertex -0.00216506 -0.00125 0
  endloop
 endfacet

 facet normal 0 0 -1
  outer loop
  vertex -0.00779423 -0.0045 0
  vertex -0.00216506 -0.00125 0
  vertex -0.00636396 -0.00636396 0
  endloop
 endfacet

 facet normal 0 0 -1
  outer loop
  vertex -0.00636396 -0.00636396 0
  vertex -0.00216506 -0.00125 0
  vertex -0.00176777 -0.00176777 0
  endloop
 endfacet

 facet normal 0 0 -1
  outer loop
  vertex -0.00636396 -0.00636396 0
  vertex -0.00176777 -0.00176777 0
  vertex -0.0045 -0.00779423 0
  endloop
 endfacet

 facet normal 0 0 -1
  outer loop
  vertex -0.0045 -0.00779423 0
  vertex -0.00176777 -0.00176777 0
  vertex -0.00125 -0.00216506 0
  endloop
 endfacet

 facet normal 0 0 -1
  outer loop
  vertex -0.0045 -0.00779423 0
  vertex -0.00125 -0.00216506 0
  vertex -0.00232937 -0.00869333 0
  endloop
 endfacet

 facet normal 0 0 -1
  outer loop
  vertex -0.00232937 -0.00869333 0
  vertex -0.00125 -0.00216506 0
  vertex -0.000647048 -0.00241481 0
  endloop
 endfacet

 facet normal 0 0 -1
  outer loop
  vertex -0.00232937 -0.00869333 0
  vertex -0.000647048 -0.00241481 0
  vertex 0 -0.009 0
  endloop
 endfacet

 facet normal 0 0 -1
  outer loop
  vertex 0 -0.009 0
  vertex -0.000647048 -0.00241481 0
  vertex 0 -0.0025 0
  endloop
 endfacet

 facet normal 0 0 -1
  outer loop
  vertex 0 -0.009 0
  vertex 0 -0.0025 0
  vertex 0.00232937 -0.00869333 0
  endloop
 endfacet

 facet normal 0 0 -1
  outer loop
  vertex 0.00232937 -0.00869333 0
  vertex 0 -0.0025 0
  vertex 0.000647048 -0.00241481 0
  endloop
 endfacet

 facet normal 0 0 -1
  outer loop
  vertex 0.00232937 -0.00869333 0
  vertex 0.000647048 -0.00241481 0
  vertex 0.0045 -0.00779423 0
  endloop
 endfacet

 facet normal 0 0 -1
  outer loop
  vertex 0.0045 -0.00779423 0
  vertex 0.000647048 -0.00241481 0
  vertex 0.00125 -0.00216506 0
  endloop
 endfacet

 facet normal 0 0 -1
  outer loop
  vertex 0.0045 -0.00779423 0
  vertex 0.00125 -0.00216506 0
  vertex 0.00636396 -0.00636396 0
  endloop
 endfacet

 facet normal 0 0 -1
  outer loop
  vertex 0.00636396 -0.00636396 0
  vertex 0.00125 -0.00216506 0
  vertex 0.00176777 -0.00176777 0
  endloop
 endfacet

 facet normal 0 0 -1
  outer loop
  vertex 0.00636396 -0.00636396 0
  vertex 0.00176777 -0.00176777 0
  vertex 0.00779423 -0.0045 0
  endloop
 endfacet

 facet normal 0 0 -1
  outer loop
  vertex 0.00779423 -0.0045 0
  vertex 0.00176777 -0.00176777 0
  vertex 0.00216506 -0.00125 0
  endloop
 endfacet

 facet normal 0 0 -1
  outer loop
  vertex 0.00779423 -0.0045 0
  vertex 0.00216506 -0.00125 0
  vertex 0.00869333 -0.00232937 0
  endloop
 endfacet

 facet normal 0 0 -1
  outer loop
  vertex 0.00216506 -0.00125 0
  vertex 0.00241481 -0.000647048 0
  vertex 0.00869333 -0.00232937 0
  endloop
 endfacet

 facet normal 0 0 -1
  outer loop
  vertex 0.00869333 -0.00232937 0
  vertex 0.00241481 -0.000647048 0
  vertex 0.0025 0 0
  endloop
 endfacet

 facet normal 0 0 -1
  outer loop
  vertex 0.00869333 -0.00232937 0
  vertex 0.0025 0 0
  vertex 0.00241481 0.000647048 0
  endloop
 endfacet

 facet normal 0 0 -1
  outer loop
  vertex 0.00125 0.00216506 0
  vertex 0.000647048 0.00241481 0
  vertex -0.001 0.0245856 0
  endloop
 endfacet

 facet normal 0 0 -1
  outer loop
  vertex -0.001 0.0245856 0
  vertex 0.000647048 0.00241481 0
  vertex -0 0.0025 0
  endloop
 endfacet

 facet normal 0 0 -1
  outer loop
  vertex -0.001 0.0245856 0
  vertex -0 0.0025 0
  vertex -0.00316505 0.0252923 0
  endloop
 endfacet

 facet normal 0 0 -1
  outer loop
  vertex -0.00316505 0.0252923 0
  vertex -0 0.0025 0
  vertex -0.000647048 0.00241481 0
  endloop
 endfacet

 facet normal 0 0 -1
  outer loop
  vertex -0.00316505 0.0252923 0
  vertex -0.000647048 0.00241481 0
  vertex -0.00511407 0.0264704 0
  endloop
 endfacet

 facet normal 0 0 -1
  outer loop
  vertex -0.00511407 0.0264704 0
  vertex -0.000647048 0.00241481 0
  vertex -0.00674597 0.028059 0
  endloop
 endfacet

 facet normal 0 0 -1
  outer loop
  vertex 0.009 0 0
  vertex 0.00869333 -0.00232937 0
  vertex 0.00158819 0.0249264 0
  endloop
 endfacet

 facet normal 0 0 -1
  outer loop
  vertex 0.00158819 0.0249264 0
  vertex 0.00869333 -0.00232937 0
  vertex 0.00241481 0.000647048 0
  endloop
 endfacet

 facet normal 0 0 -1
  outer loop
  vertex 0.00158819 0.0249264 0
  vertex 0.00241481 0.000647048 0
  vertex -0.001 0.0245856 0
  endloop
 endfacet

 facet normal 0 0 -1
  outer loop
  vertex -0.001 0.0245856 0
  vertex 0.00241481 0.000647048 0
  vertex 0.00216506 0.00125 0
  endloop
 endfacet

 facet normal 0 0 -1
  outer loop
  vertex -0.001 0.0245856 0
  vertex 0.00216506 0.00125 0
  vertex 0.00176777 0.00176777 0
  endloop
 endfacet

 facet normal 0.996214 0.0869338 0
  outer loop
  vertex -0.00241481 -0.000647048 0.005
  vertex -0.0025 0 0
  vertex -0.0025 -0 0.005
  endloop
 endfacet

 facet normal 0.996214 -0.0869338 0
  outer loop
  vertex -0.0025 -0 0.005
  vertex -0.0025 0 0
  vertex -0.00241481 0.000647048 0
  endloop
 endfacet

 facet normal 0.984769 -0.173868 0
  outer loop
  vertex -0.0025 -0 0.005
  vertex -0.00241481 0.000647048 0
  vertex -0.00241481 0.000647048 0.005
  endloop
 endfacet

 facet normal 0.939769 -0.341811 0
  outer loop
  vertex -0.00241481 0.000647048 0.005
  vertex -0.00241481 0.000647048 0
  vertex -0.00216506 0.00125 0
  endloop
 endfacet

 facet normal 0.906214 -0.42282 0
  outer loop
  vertex -0.00241481 0.000647048 0.005
  vertex -0.00216506 0.00125 0
  vertex -0.00216506 0.00125 0.005
  endloop
 endfacet

 facet normal 0.81928 -0.573394 0
  outer loop
  vertex -0.00216506 0.00125 0.005
  vertex -0.00216506 0.00125 0
  vertex -0.00176777 0.00176777 0
  endloop
 endfacet

 facet normal 0.765901 -0.642958 0
  outer loop
  vertex -0.00216506 0.00125 0.005
  vertex -0.00176777 0.00176777 0
  vertex -0.00176777 0.00176777 0.005
  endloop
 endfacet

 facet normal 0.642958 -0.765901 0
  outer loop
  vertex -0.00176777 0.00176777 0.005
  vertex -0.00176777 0.00176777 0
  vertex -0.00125 0.00216506 0
  endloop
 endfacet

 facet normal 0.573394 -0.81928 0
  outer loop
  vertex -0.00176777 0.00176777 0.005
  vertex -0.00125 0.00216506 0
  vertex -0.00125 0.00216506 0.005
  endloop
 endfacet

 facet normal 0.42282 -0.906214 0
  outer loop
  vertex -0.00125 0.00216506 0.005
  vertex -0.00125 0.00216506 0
  vertex -0.000647048 0.00241481 0
  endloop
 endfacet

 facet normal 0.341811 -0.939769 0
  outer loop
  vertex -0.00125 0.00216506 0.005
  vertex -0.000647048 0.00241481 0
  vertex -0.000647048 0.00241481 0.005
  endloop
 endfacet

 facet normal 0.173868 -0.984769 0
  outer loop
  vertex -0.000647048 0.00241481 0.005
  vertex -0.000647048 0.00241481 0
  vertex -0 0.0025 0
  endloop
 endfacet

 facet normal 0.0869338 -0.996214 0
  outer loop
  vertex -0.000647048 0.00241481 0.005
  vertex -0 0.0025 0
  vertex -0 0.0025 0.005
  endloop
 endfacet

 facet normal -0.0869338 -0.996214 0
  outer loop
  vertex -0 0.0025 0.005
  vertex -0 0.0025 0
  vertex 0.000647048 0.00241481 0
  endloop
 endfacet

 facet normal -0.173868 -0.984769 0
  outer loop
  vertex -0 0.0025 0.005
  vertex 0.000647048 0.00241481 0
  vertex 0.000647048 0.00241481 0.005
  endloop
 endfacet

 facet normal -0.341811 -0.939769 0
  outer loop
  vertex 0.000647048 0.00241481 0.005
  vertex 0.000647048 0.00241481 0
  vertex 0.00125 0.00216506 0
  endloop
 endfacet

 facet normal -0.42282 -0.906214 0
  outer loop
  vertex 0.000647048 0.00241481 0.005
  vertex 0.00125 0.00216506 0
  vertex 0.00125 0.00216506 0.005
  endloop
 endfacet

 facet normal -0.573394 -0.81928 0
  outer loop
  vertex 0.00125 0.00216506 0.005
  vertex 0.00125 0.00216506 0
  vertex 0.00176777 0.00176777 0
  endloop
 endfacet

 facet normal -0.642958 -0.765901 0
  outer loop
  vertex 0.00125 0.00216506 0.005
  vertex 0.00176777 0.00176777 0
  vertex 0.00176777 0.00176777 0.005
  endloop
 endfacet

 facet normal -0.765901 -0.642958 0
  outer loop
  vertex 0.00176777 0.00176777 0.005
  vertex 0.00176777 0.00176777 0
  vertex 0.00216506 0.00125 0
  endloop
 endfacet

 facet normal -0.81928 -0.573394 0
  outer loop
  vertex 0.00176777 0.00176777 0.005
  vertex 0.00216506 0.00125 0
  vertex 0.00216506 0.00125 0.005
  endloop
 endfacet

 facet normal -0.906214 -0.42282 0
  outer loop
  vertex 0.00216506 0.00125 0.005
  vertex 0.00216506 0.00125 0
  vertex 0.00241481 0.000647048 0
  endloop
 endfacet

 facet normal -0.939769 -0.341811 0
  outer loop
  vertex 0.00216506 0.00125 0.005
  vertex 0.00241481 0.000647048 0
  vertex 0.00241481 0.000647048 0.005
  endloop
 endfacet

 facet normal -0.984769 -0.173868 0
  outer loop
  vertex 0.00241481 0.000647048 0.005
  vertex 0.00241481 0.000647048 0
  vertex 0.0025 0 0
  endloop
 endfacet

 facet normal -0.996214 -0.0869338 0
  outer loop
  vertex 0.00241481 0.000647048 0.005
  vertex 0.0025 0 0
  vertex 0.0025 0 0.005
  endloop
 endfacet

 facet normal -0.996214 0.0869338 0
  outer loop
  vertex 0.0025 0 0.005
  vertex 0.0025 0 0
  vertex 0.00241481 -0.000647048 0
  endloop
 endfacet

 facet normal -0.984769 0.173868 0
  outer loop
  vertex 0.0025 0 0.005
  vertex 0.00241481 -0.000647048 0
  vertex 0.00241481 -0.000647048 0.005
  endloop
 endfacet

 facet normal -0.939769 0.341811 0
  outer loop
  vertex 0.00241481 -0.000647048 0.005
  vertex 0.00241481 -0.000647048 0
  vertex 0.00216506 -0.00125 0
  endloop
 endfacet

 facet normal -0.906214 0.42282 0
  outer loop
  vertex 0.00241481 -0.000647048 0.005
  vertex 0.00216506 -0.00125 0
  vertex 0.00216506 -0.00125 0.005
  endloop
 endfacet

 facet normal -0.81928 0.573394 0
  outer loop
  vertex 0.00216506 -0.00125 0.005
  vertex 0.00216506 -0.00125 0
  vertex 0.00176777 -0.00176777 0
  endloop
 endfacet

 facet normal -0.765901 0.642958 0
  outer loop
  vertex 0.00216506 -0.00125 0.005
  vertex 0.00176777 -0.00176777 0
  vertex 0.00176777 -0.00176777 0.005
  endloop
 endfacet

 facet normal -0.642958 0.765901 0
  outer loop
  vertex 0.00176777 -0.00176777 0.005
  vertex 0.00176777 -0.00176777 0
  vertex 0.00125 -0.00216506 0
  endloop
 endfacet

 facet normal -0.573394 0.81928 0
  outer loop
  vertex 0.00176777 -0.00176777 0.005
  vertex 0.00125 -0.00216506 0
  vertex 0.00125 -0.00216506 0.005
  endloop
 endfacet

 facet normal -0.42282 0.906214 0
  outer loop
  vertex 0.00125 -0.00216506 0.005
  vertex 0.00125 -0.00216506 0
  vertex 0.000647048 -0.00241481 0
  endloop
 endfacet

 facet normal -0.341811 0.939769 0
  outer loop
  vertex 0.00125 -0.00216506 0.005
  vertex 0.000647048 -0.00241481 0
  vertex 0.000647048 -0.00241481 0.005
  endloop
 endfacet

 facet normal -0.173868 0.984769 0
  outer loop
  vertex 0.000647048 -0.00241481 0.005
  vertex 0.000647048 -0.00241481 0
  vertex 0 -0.0025 0
  endloop
 endfacet

 facet normal -0.0869338 0.996214 0
  outer loop
  vertex 0.000647048 -0.00241481 0.005
  vertex 0 -0.0025 0
  vertex 0 -0.0025 0.005
  endloop
 endfacet

 facet normal 0.0869338 0.996214 0
  outer loop
  vertex 0 -0.0025 0.005
  vertex 0 -0.0025 0
  vertex -0.000647048 -0.00241481 0
  endloop
 endfacet

 facet normal 0.173868 0.984769 0
  outer loop
  vertex 0 -0.0025 0.005
  vertex -0.000647048 -0.00241481 0
  vertex -0.000647048 -0.00241481 0.005
  endloop
 endfacet

 facet normal 0.341811 0.939769 0
  outer loop
  vertex -0.000647048 -0.00241481 0.005
  vertex -0.000647048 -0.00241481 0
  vertex -0.00125 -0.00216506 0
  endloop
 endfacet

 facet normal 0.42282 0.906214 0
  outer loop
  vertex -0.000647048 -0.00241481 0.005
  vertex -0.00125 -0.00216506 0
  vertex -0.00125 -0.00216506 0.005
  endloop
 endfacet

 facet normal 0.573394 0.81928 0
  outer loop
  vertex -0.00125 -0.00216506 0.005
  vertex -0.00125 -0.00216506 0
  vertex -0.00176777 -0.00176777 0
  endloop
 endfacet

 facet normal 0.642958 0.765901 0
  outer loop
  vertex -0.00125 -0.00216506 0.005
  vertex -0.00176777 -0.00176777 0
  vertex -0.00176777 -0.00176777 0.005
  endloop
 endfacet

 facet normal 0.765901 0.642958 0
  outer loop
  vertex -0.00176777 -0.00176777 0.005
  vertex -0.00176777 -0.00176777 0
  vertex -0.00216506 -0.00125 0
  endloop
 endfacet

 facet normal 0.81928 0.573394 0
  outer loop
  vertex -0.00176777 -0.00176777 0.005
  vertex -0.00216506 -0.00125 0
  vertex -0.00216506 -0.00125 0.005
  endloop
 endfacet

 facet normal 0.906214 0.42282 0
  outer loop
  vertex -0.00216506 -0.00125 0.005
  vertex -0.00216506 -0.00125 0
  vertex -0.00241481 -0.000647048 0
  endloop
 endfacet

 facet normal 0.939769 0.341811 0
  outer loop
  vertex -0.00216506 -0.00125 0.005
  vertex -0.00241481 -0.000647048 0
  vertex -0.00241481 -0.000647048 0.005
  endloop
 endfacet

 facet normal 0.984769 0.173868 0
  outer loop
  vertex -0.00241481 -0.000647048 0.005
  vertex -0.00241481 -0.000647048 0
  vertex -0.0025 0 0
  endloop
 endfacet

 facet normal 0 0 1
  outer loop
  vertex 0.009 0.155914 0.013
  vertex 0.00241481 0.155267 0.013
  vertex 0.00216506 0.154664 0.013
  endloop
 endfacet

 facet normal 0 0 1
  outer loop
  vertex 0.009 0.155914 0.013
  vertex 0.00216506 0.154664 0.013
  vertex 0.009 0 0.013
  endloop
 endfacet

 facet normal 0 0 1
  outer loop
  vertex -0.000647048 0.153499 0.013
  vertex -0.00482963 0.0662941 0.013
  vertex -0.00433013 0.0675 0.013
  endloop
 endfacet

 facet normal 0 0 1
  outer loop
  vertex -0.000647048 0.153499 0.013
  vertex -0.00129409 0.0698296 0.013
  vertex -0 0.153414 0.013
  endloop
 endfacet

 facet normal 0 0 1
  outer loop
  vertex -0 0.153414 0.013
  vertex -0.00129409 0.0698296 0.013
  vertex -0 0.07 0.013
  endloop
 endfacet

 facet normal 0 0 1
  outer loop
  vertex -0 0.153414 0.013
  vertex -0 0.07 0.013
  vertex 0.000647048 0.153499 0.013
  endloop
 endfacet

 facet normal 0 0 1
  outer loop
  vertex -0.009 0.155914 0.013
  vertex -0.009 0 0.013
  vertex -0.00125 0.153749 0.013
  endloop
 endfacet

 facet normal 0 0 1
  outer loop
  vertex -0.00125 0.153749 0.013
  vertex -0.009 0 0.013
  vertex -0.000647048 0.153499 0.013
  endloop
 endfacet

 facet normal 0 0 1
  outer loop
  vertex -0.00216506 0.154664 0.013
  vertex -0.00241481 0.155267 0.013
  vertex -0.00869333 0.158243 0.013
  endloop
 endfacet

 facet normal 0 0 1
  outer loop
  vertex 0.000647048 0.153499 0.013
  vertex -0 0.07 0.013
  vertex 0.00125 0.153749 0.013
  endloop
 endfacet

 facet normal 0 0 1
  outer loop
  vertex 0.00125 0.153749 0.013
  vertex -0 0.07 0.013
  vertex 0.00129409 0.0698296 0.013
  endloop
 endfacet

 facet normal 0 0 1
  outer loop
  vertex 0.00125 0.153749 0.013
  vertex 0.00129409 0.0698296 0.013
  vertex 0.0025 0.0693301 0.013
  endloop
 endfacet

 facet normal 0 0 1
  outer loop
  vertex 0.0025 0.0693301 0.013
  vertex 0.00353553 0.0685355 0.013
  vertex 0.00125 0.153749 0.013
  endloop
 endfacet

 facet normal 0 0 1
  outer loop
  vertex 0.00125 0.153749 0.013
  vertex 0.00353553 0.0685355 0.013
  vertex 0.00433013 0.0675 0.013
  endloop
 endfacet

 facet normal 0 0 1
  outer loop
  vertex 0.00125 0.153749 0.013
  vertex 0.00433013 0.0675 0.013
  vertex 0.00482963 0.0662941 0.013
  endloop
 endfacet

 facet normal 0 0 1
  outer loop
  vertex -0.00433013 0.0675 0.013
  vertex -0.00353553 0.0685355 0.013
  vertex -0.000647048 0.153499 0.013
  endloop
 endfacet

 facet normal 0 0 1
  outer loop
  vertex -0.000647048 0.153499 0.013
  vertex -0.00353553 0.0685355 0.013
  vertex -0.0025 0.0693301 0.013
  endloop
 endfacet

 facet normal 0 0 1
  outer loop
  vertex -0.000647048 0.153499 0.013
  vertex -0.0025 0.0693301 0.013
  vertex -0.00129409 0.0698296 0.013
  endloop
 endfacet

 facet normal 0 0 1
  outer loop
  vertex -0.009 0.155914 0.013
  vertex -0.00125 0.153749 0.013
  vertex -0.00869333 0.158243 0.013
  endloop
 endfacet

 facet normal 0 0 1
  outer loop
  vertex -0.00869333 0.158243 0.013
  vertex -0.00125 0.153749 0.013
  vertex -0.00176777 0.154146 0.013
  endloop
 endfacet

 facet normal 0 0 1
  outer loop
  vertex -0.00869333 0.158243 0.013
  vertex -0.00176777 0.154146 0.013
  vertex -0.00216506 0.154664 0.013
  endloop
 endfacet

 facet normal 0 0 1
  outer loop
  vertex 0.005 0.065 0.013
  vertex 0.005 -0.00748331 0.013
  vertex 0.00636396 -0.00636396 0.013
  endloop
 endfacet

 facet normal 0 0 1
  outer loop
  vertex -0.00482963 0.0662941 0.013
  vertex -0.000647048 0.153499 0.013
  vertex -0.005 0.065 0.013
  endloop
 endfacet

 facet normal 0 0 1
  outer loop
  vertex -0.005 0.065 0.013
  vertex -0.000647048 0.153499 0.013
  vertex -0.009 0 0.013
  endloop
 endfacet

 facet normal 0 0 1
  outer loop
  vertex -0.005 0.065 0.013
  vertex -0.009 0 0.013
  vertex -0.005 -0.00748331 0.013
  endloop
 endfacet

 facet normal 0 0 1
  outer loop
  vertex -0.005 -0.00748331 0.013
  vertex -0.009 0 0.013
  vertex -0.00636396 -0.00636396 0.013
  endloop
 endfacet

 facet normal 0 0 1
  outer loop
  vertex -0.00636396 -0.00636396 0.013
  vertex -0.009 0 0.013
  vertex -0.00869333 -0.00232937 0.013
  endloop
 endfacet

 facet normal 0 0 1
  outer loop
  vertex -0.00636396 -0.00636396 0.013
  vertex -0.00869333 -0.00232937 0.013
  vertex -0.00779423 -0.0045 0.013
  endloop
 endfacet

 facet normal 0 0 1
  outer loop
  vertex -0.00241481 0.155267 0.013
  vertex -0.0025 0.155914 0.013
  vertex -0.00869333 0.158243 0.013
  endloop
 endfacet

 facet normal 0 0 1
  outer loop
  vertex -0.00869333 0.158243 0.013
  vertex -0.0025 0.155914 0.013
  vertex -0.00241481 0.156561 0.013
  endloop
 endfacet

 facet normal 0 0 1
  outer loop
  vertex -0.00869333 0.158243 0.013
  vertex -0.00241481 0.156561 0.013
  vertex -0.00779423 0.160414 0.013
  endloop
 endfacet

 facet normal 0 0 1
  outer loop
  vertex -0.00779423 0.160414 0.013
  vertex -0.00241481 0.156561 0.013
  vertex -0.00216506 0.157164 0.013
  endloop
 endfacet

 facet normal 0 0 1
  outer loop
  vertex -0.00779423 0.160414 0.013
  vertex -0.00216506 0.157164 0.013
  vertex -0.00636396 0.162278 0.013
  endloop
 endfacet

 facet normal 0 0 1
  outer loop
  vertex -0.00636396 0.162278 0.013
  vertex -0.00216506 0.157164 0.013
  vertex -0.00176777 0.157682 0.013
  endloop
 endfacet

 facet normal 0 0 1
  outer loop
  vertex -0.00636396 0.162278 0.013
  vertex -0.00176777 0.157682 0.013
  vertex -0.0045 0.163708 0.013
  endloop
 endfacet

 facet normal 0 0 1
  outer loop
  vertex -0.0045 0.163708 0.013
  vertex -0.00176777 0.157682 0.013
  vertex -0.00125 0.158079 0.013
  endloop
 endfacet

 facet normal 0 0 1
  outer loop
  vertex -0.0045 0.163708 0.013
  vertex -0.00125 0.158079 0.013
  vertex -0.00232937 0.164607 0.013
  endloop
 endfacet

 facet normal 0 0 1
  outer loop
  vertex -0.00232937 0.164607 0.013
  vertex -0.00125 0.158079 0.013
  vertex -0.000647048 0.158329 0.013
  endloop
 endfacet

 facet normal 0 0 1
  outer loop
  vertex -0.00232937 0.164607 0.013
  vertex -0.000647048 0.158329 0.013
  vertex -0 0.164914 0.013
  endloop
 endfacet

 facet normal 0 0 1
  outer loop
  vertex -0 0.164914 0.013
  vertex -0.000647048 0.158329 0.013
  vertex -0 0.158414 0.013
  endloop
 endfacet

 facet normal 0 0 1
  outer loop
  vertex -0 0.164914 0.013
  vertex -0 0.158414 0.013
  vertex 0.00232937 0.164607 0.013
  endloop
 endfacet

 facet normal 0 0 1
  outer loop
  vertex 0.00232937 0.164607 0.013
  vertex -0 0.158414 0.013
  vertex 0.000647048 0.158329 0.013
  endloop
 endfacet

 facet normal 0 0 1
  outer loop
  vertex 0.00232937 0.164607 0.013
  vertex 0.000647048 0.158329 0.013
  vertex 0.0045 0.163708 0.013
  endloop
 endfacet

 facet normal 0 0 1
  outer loop
  vertex 0.0045 0.163708 0.013
  vertex 0.000647048 0.158329 0.013
  vertex 0.00125 0.158079 0.013
  endloop
 endfacet

 facet normal 0 0 1
  outer loop
  vertex 0.0045 0.163708 0.013
  vertex 0.00125 0.158079 0.013
  vertex 0.00636396 0.162278 0.013
  endloop
 endfacet

 facet normal 0 0 1
  outer loop
  vertex 0.00636396 0.162278 0.013
  vertex 0.00125 0.158079 0.013
  vertex 0.00176777 0.157682 0.013
  endloop
 endfacet

 facet normal 0 0 1
  outer loop
  vertex 0.00636396 0.162278 0.013
  vertex 0.00176777 0.157682 0.013
  vertex 0.00779423 0.160414 0.013
  endloop
 endfacet

 facet normal 0 0 1
  outer loop
  vertex 0.00779423 0.160414 0.013
  vertex 0.00176777 0.157682 0.013
  vertex 0.00216506 0.157164 0.013
  endloop
 endfacet

 facet normal 0 0 1
  outer loop
  vertex 0.00779423 0.160414 0.013
  vertex 0.00216506 0.157164 0.013
  vertex 0.00869333 0.158243 0.013
  endloop
 endfacet

 facet normal 0 0 1
  outer loop
  vertex 0.00869333 0.158243 0.013
  vertex 0.00216506 0.157164 0.013
  vertex 0.00241481 0.156561 0.013
  endloop
 endfacet

 facet normal 0 0 1
  outer loop
  vertex 0.00869333 0.158243 0.013
  vertex 0.00241481 0.156561 0.013
  vertex 0.009 0.155914 0.013
  endloop
 endfacet

 facet normal 0 0 1
  outer loop
  vertex 0.009 0.155914 0.013
  vertex 0.00241481 0.156561 0.013
  vertex 0.0025 0.155914 0.013
  endloop
 endfacet

 facet normal 0 0 1
  outer loop
  vertex 0.009 0.155914 0.013
  vertex 0.0025 0.155914 0.013
  vertex 0.00241481 0.155267 0.013
  endloop
 endfacet

 facet normal 0 0 1
  outer loop
  vertex 0.00636396 -0.00636396 0.013
  vertex 0.00779423 -0.0045 0.013
  vertex 0.005 0.065 0.013
  endloop
 endfacet

 facet normal 0 0 1
  outer loop
  vertex 0.005 0.065 0.013
  vertex 0.00779423 -0.0045 0.013
  vertex 0.00869333 -0.00232937 0.013
  endloop
 endfacet

 facet normal 0 0 1
  outer loop
  vertex 0.005 0.065 0.013
  vertex 0.00869333 -0.00232937 0.013
  vertex 0.009 0 0.013
  endloop
 endfacet

 facet normal 0 0 1
  outer loop
  vertex 0.00216506 0.154664 0.013
  vertex 0.00176777 0.154146 0.013
  vertex 0.009 0 0.013
  endloop
 endfacet

 facet normal 0 0 1
  outer loop
  vertex 0.009 0 0.013
  vertex 0.00176777 0.154146 0.013
  vertex 0.00125 0.153749 0.013
  endloop
 endfacet

 facet normal 0 0 1
  outer loop
  vertex 0.009 0 0.013
  vertex 0.00125 0.153749 0.013
  vertex 0.005 0.065 0.013
  endloop
 endfacet

 facet normal 0 0 1
  outer loop
  vertex 0.005 0.065 0.013
  vertex 0.00125 0.153749 0.013
  vertex 0.00482963 0.0662941 0.013
  endloop
 endfacet

 facet normal 0.996214 0.0869338 0
  outer loop
  vertex 0.009 0.155914 0.013
  vertex 0.009 0.155914 -0.012
  vertex 0.00869333 0.158243 -0.012
  endloop
 endfacet

 facet normal 0.984769 0.173868 0
  outer loop
  vertex 0.009 0.155914 0.013
  vertex 0.00869333 0.158243 -0.012
  vertex 0.00869333 0.158243 0.013
  endloop
 endfacet

 facet normal 0.939769 0.341811 0
  outer loop
  vertex 0.00869333 0.158243 0.013
  vertex 0.00869333 0.158243 -0.012
  vertex 0.00779423 0.160414 -0.012
  endloop
 endfacet

 facet normal 0.906214 0.42282 0
  outer loop
  vertex 0.00869333 0.158243 0.013
  vertex 0.00779423 0.160414 -0.012
  vertex 0.00779423 0.160414 0.013
  endloop
 endfacet

 facet normal 0.81928 0.573394 0
  outer loop
  vertex 0.00779423 0.160414 0.013
  vertex 0.00779423 0.160414 -0.012
  vertex 0.00636396 0.162278 -0.012
  endloop
 endfacet

 facet normal 0.765901 0.642958 0
  outer loop
  vertex 0.00779423 0.160414 0.013
  vertex 0.00636396 0.162278 -0.012
  vertex 0.00636396 0.162278 0.013
  endloop
 endfacet

 facet normal 0.642958 0.765901 0
  outer loop
  vertex 0.00636396 0.162278 0.013
  vertex 0.00636396 0.162278 -0.012
  vertex 0.0045 0.163708 -0.012
  endloop
 endfacet

 facet normal 0.573394 0.81928 0
  outer loop
  vertex 0.00636396 0.162278 0.013
  vertex 0.0045 0.163708 -0.012
  vertex 0.0045 0.163708 0.013
  endloop
 endfacet

 facet normal 0.42282 0.906214 0
  outer loop
  vertex 0.0045 0.163708 0.013
  vertex 0.0045 0.163708 -0.012
  vertex 0.00232937 0.164607 -0.012
  endloop
 endfacet

 facet normal 0.341811 0.939769 0
  outer loop
  vertex 0.0045 0.163708 0.013
  vertex 0.00232937 0.164607 -0.012
  vertex 0.00232937 0.164607 0.013
  endloop
 endfacet

 facet normal 0.173868 0.984769 0
  outer loop
  vertex 0.00232937 0.164607 0.013
  vertex 0.00232937 0.164607 -0.012
  vertex -0 0.164914 -0.012
  endloop
 endfacet

 facet normal 0.0869338 0.996214 0
  outer loop
  vertex 0.00232937 0.164607 0.013
  vertex -0 0.164914 -0.012
  vertex -0 0.164914 0.013
  endloop
 endfacet

 facet normal -0.0869338 0.996214 0
  outer loop
  vertex -0 0.164914 0.013
  vertex -0 0.164914 -0.012
  vertex -0.00232937 0.164607 -0.012
  endloop
 endfacet

 facet normal -0.173868 0.984769 0
  outer loop
  vertex -0 0.164914 0.013
  vertex -0.00232937 0.164607 -0.012
  vertex -0.00232937 0.164607 0.013
  endloop
 endfacet

 facet normal -0.341811 0.939769 0
  outer loop
  vertex -0.00232937 0.164607 0.013
  vertex -0.00232937 0.164607 -0.012
  vertex -0.0045 0.163708 -0.012
  endloop
 endfacet

 facet normal -0.42282 0.906214 0
  outer loop
  vertex -0.00232937 0.164607 0.013
  vertex -0.0045 0.163708 -0.012
  vertex -0.0045 0.163708 0.013
  endloop
 endfacet

 facet normal -0.573394 0.81928 0
  outer loop
  vertex -0.0045 0.163708 0.013
  vertex -0.0045 0.163708 -0.012
  vertex -0.00636396 0.162278 -0.012
  endloop
 endfacet

 facet normal -0.642958 0.765901 0
  outer loop
  vertex -0.0045 0.163708 0.013
  vertex -0.00636396 0.162278 -0.012
  vertex -0.00636396 0.162278 0.013
  endloop
 endfacet

 facet normal -0.765901 0.642958 0
  outer loop
  vertex -0.00636396 0.162278 0.013
  vertex -0.00636396 0.162278 -0.012
  vertex -0.00779423 0.160414 -0.012
  endloop
 endfacet

 facet normal -0.81928 0.573394 0
  outer loop
  vertex -0.00636396 0.162278 0.013
  vertex -0.00779423 0.160414 -0.012
  vertex -0.00779423 0.160414 0.013
  endloop
 endfacet

 facet normal -0.906214 0.42282 0
  outer loop
  vertex -0.00779423 0.160414 0.013
  vertex -0.00779423 0.160414 -0.012
  vertex -0.00869333 0.158243 -0.012
  endloop
 endfacet

 facet normal -0.939769 0.341811 0
  outer loop
  vertex -0.00779423 0.160414 0.013
  vertex -0.00869333 0.158243 -0.012
  vertex -0.00869333 0.158243 0.013
  endloop
 endfacet

 facet normal -0.984769 0.173868 0
  outer loop
  vertex -0.00869333 0.158243 0.013
  vertex -0.00869333 0.158243 -0.012
  vertex -0.009 0.155914 -0.012
  endloop
 endfacet

 facet normal -0.996214 0.0869338 0
  outer loop
  vertex -0.00869333 0.158243 0.013
  vertex -0.009 0.155914 -0.012
  vertex -0.009 0.155914 0.013
  endloop
 endfacet

 facet normal -1 0 0
  outer loop
  vertex -0.009 0 0
  vertex -0.009 0 0.013
  vertex -0.009 0.0343836 0
  endloop
 endfacet

 facet normal -1 0 0
  outer loop
  vertex -0.009 0.0343836 0
  vertex -0.009 0 0.013
  vertex -0.009 0.155914 0.013
  endloop
 endfacet

 facet normal -1 0 0
  outer loop
  vertex -0.009 0.0343836 0
  vertex -0.009 0.155914 0.013
  vertex -0.009 0.0343836 -0.012
  endloop
 endfacet

 facet normal -1 0 0
  outer loop
  vertex -0.009 0.0343836 -0.012
  vertex -0.009 0.155914 0.013
  vertex -0.009 0.155914 -0.012
  endloop
 endfacet

 facet normal 0.608678 -0.793418 0
  outer loop
  vertex 0.005 -0.00748331 0.013
  vertex 0.005 -0.00748331 0.005
  vertex 0.00636396 -0.00636396 0
  endloop
 endfacet

 facet normal 0.591207 -0.80652 0
  outer loop
  vertex 0.00636396 -0.00636396 0
  vertex 0.005 -0.00748331 0.005
  vertex 0.0045 -0.00779423 0
  endloop
 endfacet

 facet normal -0.591207 -0.80652 0
  outer loop
  vertex -0.0045 -0.00779423 0.005
  vertex -0.005 -0.00748331 0.005
  vertex -0.00636396 -0.00636396 0
  endloop
 endfacet

 facet normal 0.518765 -0.854917 0
  outer loop
  vertex 0.005 -0.00748331 0.005
  vertex 0.0045 -0.00779423 0.005
  vertex 0.0045 -0.00779423 0
  endloop
 endfacet

 facet normal 0.42282 -0.906214 0
  outer loop
  vertex 0.0045 -0.00779423 0
  vertex 0.0045 -0.00779423 0.005
  vertex 0.00232937 -0.00869333 0.005
  endloop
 endfacet

 facet normal 0.341811 -0.939769 0
  outer loop
  vertex 0.0045 -0.00779423 0
  vertex 0.00232937 -0.00869333 0.005
  vertex 0.00232937 -0.00869333 0
  endloop
 endfacet

 facet normal 0.173868 -0.984769 0
  outer loop
  vertex 0.00232937 -0.00869333 0
  vertex 0.00232937 -0.00869333 0.005
  vertex 0 -0.009 0.005
  endloop
 endfacet

 facet normal 0.0869338 -0.996214 0
  outer loop
  vertex 0.00232937 -0.00869333 0
  vertex 0 -0.009 0.005
  vertex 0 -0.009 0
  endloop
 endfacet

 facet normal -0.0869338 -0.996214 0
  outer loop
  vertex 0 -0.009 0
  vertex 0 -0.009 0.005
  vertex -0.00232937 -0.00869333 0.005
  endloop
 endfacet

 facet normal -0.173868 -0.984769 0
  outer loop
  vertex 0 -0.009 0
  vertex -0.00232937 -0.00869333 0.005
  vertex -0.00232937 -0.00869333 0
  endloop
 endfacet

 facet normal -0.341811 -0.939769 0
  outer loop
  vertex -0.00232937 -0.00869333 0
  vertex -0.00232937 -0.00869333 0.005
  vertex -0.0045 -0.00779423 0.005
  endloop
 endfacet

 facet normal -0.42282 -0.906214 0
  outer loop
  vertex -0.00232937 -0.00869333 0
  vertex -0.0045 -0.00779423 0.005
  vertex -0.0045 -0.00779423 0
  endloop
 endfacet

 facet normal -0.573394 -0.81928 0
  outer loop
  vertex -0.0045 -0.00779423 0
  vertex -0.0045 -0.00779423 0.005
  vertex -0.00636396 -0.00636396 0
  endloop
 endfacet

 facet normal -0.996214 -0.0869338 0
  outer loop
  vertex -0.009 0 0.013
  vertex -0.009 0 0
  vertex -0.00869333 -0.00232937 0
  endloop
 endfacet

 facet normal -0.984769 -0.173868 0
  outer loop
  vertex -0.009 0 0.013
  vertex -0.00869333 -0.00232937 0
  vertex -0.00869333 -0.00232937 0.013
  endloop
 endfacet

 facet normal -0.939769 -0.341811 0
  outer loop
  vertex -0.00869333 -0.00232937 0.013
  vertex -0.00869333 -0.00232937 0
  vertex -0.00779423 -0.0045 0
  endloop
 endfacet

 facet normal -0.906214 -0.42282 0
  outer loop
  vertex -0.00869333 -0.00232937 0.013
  vertex -0.00779423 -0.0045 0
  vertex -0.00779423 -0.0045 0.013
  endloop
 endfacet

 facet normal -0.81928 -0.573394 0
  outer loop
  vertex -0.00779423 -0.0045 0.013
  vertex -0.00779423 -0.0045 0
  vertex -0.00636396 -0.00636396 0
  endloop
 endfacet

 facet normal -0.765901 -0.642958 0
  outer loop
  vertex -0.00779423 -0.0045 0.013
  vertex -0.00636396 -0.00636396 0
  vertex -0.00636396 -0.00636396 0.013
  endloop
 endfacet

 facet normal -0.659412 -0.751782 0
  outer loop
  vertex -0.00636396 -0.00636396 0.013
  vertex -0.00636396 -0.00636396 0
  vertex -0.005 -0.00748331 0.005
  endloop
 endfacet

 facet normal -0.608678 -0.793418 0
  outer loop
  vertex -0.00636396 -0.00636396 0.013
  vertex -0.005 -0.00748331 0.005
  vertex -0.005 -0.00748331 0.013
  endloop
 endfacet

 facet normal 0.659412 -0.751782 0
  outer loop
  vertex 0.005 -0.00748331 0.013
  vertex 0.00636396 -0.00636396 0
  vertex 0.00636396 -0.00636396 0.013
  endloop
 endfacet

 facet normal 0.765901 -0.642958 0
  outer loop
  vertex 0.00636396 -0.00636396 0.013
  vertex 0.00636396 -0.00636396 0
  vertex 0.00779423 -0.0045 0
  endloop
 endfacet

 facet normal 0.81928 -0.573394 0
  outer loop
  vertex 0.00636396 -0.00636396 0.013
  vertex 0.00779423 -0.0045 0
  vertex 0.00779423 -0.0045 0.013
  endloop
 endfacet

 facet normal 0.906214 -0.42282 0
  outer loop
  vertex 0.00779423 -0.0045 0.013
  vertex 0.00779423 -0.0045 0
  vertex 0.00869333 -0.00232937 0
  endloop
 endfacet

 facet normal 0.939769 -0.341811 0
  outer loop
  vertex 0.00779423 -0.0045 0.013
  vertex 0.00869333 -0.00232937 0
  vertex 0.00869333 -0.00232937 0.013
  endloop
 endfacet

 facet normal 0.984769 -0.173868 0
  outer loop
  vertex 0.00869333 -0.00232937 0.013
  vertex 0.00869333 -0.00232937 0
  vertex 0.009 0 0
  endloop
 endfacet

 facet normal 0.996214 -0.0869338 0
  outer loop
  vertex 0.00869333 -0.00232937 0.013
  vertex 0.009 0 0
  vertex 0.009 0 0.013
  endloop
 endfacet

 facet normal 1 0 0
  outer loop
  vertex 0.009 0 0.013
  vertex 0.009 0 0
  vertex 0.009 0.0345856 0
  endloop
 endfacet

 facet normal 1 0 0
  outer loop
  vertex 0.009 0.0345856 -0.012
  vertex 0.009 0.155914 -0.012
  vertex 0.009 0.0345856 0
  endloop
 endfacet

 facet normal 1 0 0
  outer loop
  vertex 0.009 0.0345856 0
  vertex 0.009 0.155914 -0.012
  vertex 0.009 0.155914 0.013
  endloop
 endfacet

 facet normal 1 0 0
  outer loop
  vertex 0.009 0.0345856 0
  vertex 0.009 0.155914 0.013
  vertex 0.009 0 0.013
  endloop
 endfacet

 facet normal 0.996214 0.0869338 0
  outer loop
  vertex -0.00241481 0.155267 0.013
  vertex -0.0025 0.155914 -0.012
  vertex -0.0025 0.155914 0.013
  endloop
 endfacet

 facet normal 0.996214 -0.0869338 0
  outer loop
  vertex -0.0025 0.155914 0.013
  vertex -0.0025 0.155914 -0.012
  vertex -0.00241481 0.156561 -0.012
  endloop
 endfacet

 facet normal 0.984769 -0.173868 0
  outer loop
  vertex -0.0025 0.155914 0.013
  vertex -0.00241481 0.156561 -0.012
  vertex -0.00241481 0.156561 0.013
  endloop
 endfacet

 facet normal 0.939769 -0.341811 0
  outer loop
  vertex -0.00241481 0.156561 0.013
  vertex -0.00241481 0.156561 -0.012
  vertex -0.00216506 0.157164 -0.012
  endloop
 endfacet

 facet normal 0.906214 -0.42282 0
  outer loop
  vertex -0.00241481 0.156561 0.013
  vertex -0.00216506 0.157164 -0.012
  vertex -0.00216506 0.157164 0.013
  endloop
 endfacet

 facet normal 0.81928 -0.573394 0
  outer loop
  vertex -0.00216506 0.157164 0.013
  vertex -0.00216506 0.157164 -0.012
  vertex -0.00176777 0.157682 -0.012
  endloop
 endfacet

 facet normal 0.765901 -0.642958 0
  outer loop
  vertex -0.00216506 0.157164 0.013
  vertex -0.00176777 0.157682 -0.012
  vertex -0.00176777 0.157682 0.013
  endloop
 endfacet

 facet normal 0.642958 -0.765901 0
  outer loop
  vertex -0.00176777 0.157682 0.013
  vertex -0.00176777 0.157682 -0.012
  vertex -0.00125 0.158079 -0.012
  endloop
 endfacet

 facet normal 0.573394 -0.81928 0
  outer loop
  vertex -0.00176777 0.157682 0.013
  vertex -0.00125 0.158079 -0.012
  vertex -0.00125 0.158079 0.013
  endloop
 endfacet

 facet normal 0.42282 -0.906214 0
  outer loop
  vertex -0.00125 0.158079 0.013
  vertex -0.00125 0.158079 -0.012
  vertex -0.000647048 0.158329 -0.012
  endloop
 endfacet

 facet normal 0.341811 -0.939769 0
  outer loop
  vertex -0.00125 0.158079 0.013
  vertex -0.000647048 0.158329 -0.012
  vertex -0.000647048 0.158329 0.013
  endloop
 endfacet

 facet normal 0.173868 -0.984769 0
  outer loop
  vertex -0.000647048 0.158329 0.013
  vertex -0.000647048 0.158329 -0.012
  vertex -0 0.158414 -0.012
  endloop
 endfacet

 facet normal 0.0869338 -0.996214 0
  outer loop
  vertex -0.000647048 0.158329 0.013
  vertex -0 0.158414 -0.012
  vertex -0 0.158414 0.013
  endloop
 endfacet

 facet normal -0.0869338 -0.996214 0
  outer loop
  vertex -0 0.158414 0.013
  vertex -0 0.158414 -0.012
  vertex 0.000647048 0.158329 -0.012
  endloop
 endfacet

 facet normal -0.173868 -0.984769 0
  outer loop
  vertex -0 0.158414 0.013
  vertex 0.000647048 0.158329 -0.012
  vertex 0.000647048 0.158329 0.013
  endloop
 endfacet

 facet normal -0.341811 -0.939769 0
  outer loop
  vertex 0.000647048 0.158329 0.013
  vertex 0.000647048 0.158329 -0.012
  vertex 0.00125 0.158079 -0.012
  endloop
 endfacet

 facet normal -0.42282 -0.906214 0
  outer loop
  vertex 0.000647048 0.158329 0.013
  vertex 0.00125 0.158079 -0.012
  vertex 0.00125 0.158079 0.013
  endloop
 endfacet

 facet normal -0.573394 -0.81928 0
  outer loop
  vertex 0.00125 0.158079 0.013
  vertex 0.00125 0.158079 -0.012
  vertex 0.00176777 0.157682 -0.012
  endloop
 endfacet

 facet normal -0.642958 -0.765901 0
  outer loop
  vertex 0.00125 0.158079 0.013
  vertex 0.00176777 0.157682 -0.012
  vertex 0.00176777 0.157682 0.013
  endloop
 endfacet

 facet normal -0.765901 -0.642958 0
  outer loop
  vertex 0.00176777 0.157682 0.013
  vertex 0.00176777 0.157682 -0.012
  vertex 0.00216506 0.157164 -0.012
  endloop
 endfacet

 facet normal -0.81928 -0.573394 0
  outer loop
  vertex 0.00176777 0.157682 0.013
  vertex 0.00216506 0.157164 -0.012
  vertex 0.00216506 0.157164 0.013
  endloop
 endfacet

 facet normal -0.906214 -0.42282 0
  outer loop
  vertex 0.00216506 0.157164 0.013
  vertex 0.00216506 0.157164 -0.012
  vertex 0.00241481 0.156561 -0.012
  endloop
 endfacet

 facet normal -0.939769 -0.341811 0
  outer loop
  vertex 0.00216506 0.157164 0.013
  vertex 0.00241481 0.156561 -0.012
  vertex 0.00241481 0.156561 0.013
  endloop
 endfacet

 facet normal -0.984769 -0.173868 0
  outer loop
  vertex 0.00241481 0.156561 0.013
  vertex 0.00241481 0.156561 -0.012
  vertex 0.0025 0.155914 -0.012
  endloop
 endfacet

 facet normal -0.996214 -0.0869338 0
  outer loop
  vertex 0.00241481 0.156561 0.013
  vertex 0.0025 0.155914 -0.012
  vertex 0.0025 0.155914 0.013
  endloop
 endfacet

 facet normal -0.996214 0.0869338 0
  outer loop
  vertex 0.0025 0.155914 0.013
  vertex 0.0025 0.155914 -0.012
  vertex 0.00241481 0.155267 -0.012
  endloop
 endfacet

 facet normal -0.984769 0.173868 0
  outer loop
  vertex 0.0025 0.155914 0.013
  vertex 0.00241481 0.155267 -0.012
  vertex 0.00241481 0.155267 0.013
  endloop
 endfacet

 facet normal -0.939769 0.341811 0
  outer loop
  vertex 0.00241481 0.155267 0.013
  vertex 0.00241481 0.155267 -0.012
  vertex 0.00216506 0.154664 -0.012
  endloop
 endfacet

 facet normal -0.906214 0.42282 0
  outer loop
  vertex 0.00241481 0.155267 0.013
  vertex 0.00216506 0.154664 -0.012
  vertex 0.00216506 0.154664 0.013
  endloop
 endfacet

 facet normal -0.81928 0.573394 0
  outer loop
  vertex 0.00216506 0.154664 0.013
  vertex 0.00216506 0.154664 -0.012
  vertex 0.00176777 0.154146 -0.012
  endloop
 endfacet

 facet normal -0.765901 0.642958 0
  outer loop
  vertex 0.00216506 0.154664 0.013
  vertex 0.00176777 0.154146 -0.012
  vertex 0.00176777 0.154146 0.013
  endloop
 endfacet

 facet normal -0.642958 0.765901 0
  outer loop
  vertex 0.00176777 0.154146 0.013
  vertex 0.00176777 0.154146 -0.012
  vertex 0.00125 0.153749 -0.012
  endloop
 endfacet

 facet normal -0.573394 0.81928 0
  outer loop
  vertex 0.00176777 0.154146 0.013
  vertex 0.00125 0.153749 -0.012
  vertex 0.00125 0.153749 0.013
  endloop
 endfacet

 facet normal -0.42282 0.906214 0
  outer loop
  vertex 0.00125 0.153749 0.013
  vertex 0.00125 0.153749 -0.012
  vertex 0.000647048 0.153499 -0.012
  endloop
 endfacet

 facet normal -0.341811 0.939769 0
  outer loop
  vertex 0.00125 0.153749 0.013
  vertex 0.000647048 0.153499 -0.012
  vertex 0.000647048 0.153499 0.013
  endloop
 endfacet

 facet normal -0.173868 0.984769 0
  outer loop
  vertex 0.000647048 0.153499 0.013
  vertex 0.000647048 0.153499 -0.012
  vertex -0 0.153414 -0.012
  endloop
 endfacet

 facet normal -0.0869338 0.996214 0
  outer loop
  vertex 0.000647048 0.153499 0.013
  vertex -0 0.153414 -0.012
  vertex -0 0.153414 0.013
  endloop
 endfacet

 facet normal 0.0869338 0.996214 0
  outer loop
  vertex -0 0.153414 0.013
  vertex -0 0.153414 -0.012
  vertex -0.000647048 0.153499 -0.012
  endloop
 endfacet

 facet normal 0.173868 0.984769 0
  outer loop
  vertex -0 0.153414 0.013
  vertex -0.000647048 0.153499 -0.012
  vertex -0.000647048 0.153499 0.013
  endloop
 endfacet

 facet normal 0.341811 0.939769 0
  outer loop
  vertex -0.000647048 0.153499 0.013
  vertex -0.000647048 0.153499 -0.012
  vertex -0.00125 0.153749 -0.012
  endloop
 endfacet

 facet normal 0.42282 0.906214 0
  outer loop
  vertex -0.000647048 0.153499 0.013
  vertex -0.00125 0.153749 -0.012
  vertex -0.00125 0.153749 0.013
  endloop
 endfacet

 facet normal 0.573394 0.81928 0
  outer loop
  vertex -0.00125 0.153749 0.013
  vertex -0.00125 0.153749 -0.012
  vertex -0.00176777 0.154146 -0.012
  endloop
 endfacet

 facet normal 0.642958 0.765901 0
  outer loop
  vertex -0.00125 0.153749 0.013
  vertex -0.00176777 0.154146 -0.012
  vertex -0.00176777 0.154146 0.013
  endloop
 endfacet

 facet normal 0.765901 0.642958 0
  outer loop
  vertex -0.00176777 0.154146 0.013
  vertex -0.00176777 0.154146 -0.012
  vertex -0.00216506 0.154664 -0.012
  endloop
 endfacet

 facet normal 0.81928 0.573394 0
  outer loop
  vertex -0.00176777 0.154146 0.013
  vertex -0.00216506 0.154664 -0.012
  vertex -0.00216506 0.154664 0.013
  endloop
 endfacet

 facet normal 0.906214 0.42282 0
  outer loop
  vertex -0.00216506 0.154664 0.013
  vertex -0.00216506 0.154664 -0.012
  vertex -0.00241481 0.155267 -0.012
  endloop
 endfacet

 facet normal 0.939769 0.341811 0
  outer loop
  vertex -0.00216506 0.154664 0.013
  vertex -0.00241481 0.155267 -0.012
  vertex -0.00241481 0.155267 0.013
  endloop
 endfacet

 facet normal 0.984769 0.173868 0
  outer loop
  vertex -0.00241481 0.155267 0.013
  vertex -0.00241481 0.155267 -0.012
  vertex -0.0025 0.155914 -0.012
  endloop
 endfacet

 facet normal 1 0 0
  outer loop
  vertex -0.005 0.065 0.013
  vertex -0.005 -0.00748331 0.013
  vertex -0.005 0.065 0.005
  endloop
 endfacet

 facet normal 1 0 0
  outer loop
  vertex -0.005 0.065 0.005
  vertex -0.005 -0.00748331 0.013
  vertex -0.005 -0.00748331 0.005
  endloop
 endfacet

 facet normal -1 0 0
  outer loop
  vertex 0.005 0.065 0.005
  vertex 0.005 -0.00748331 0.005
  vertex 0.005 0.065 0.013
  endloop
 endfacet

 facet normal -1 0 0
  outer loop
  vertex 0.005 0.065 0.013
  vertex 0.005 -0.00748331 0.005
  vertex 0.005 -0.00748331 0.013
  endloop
 endfacet

 facet normal 0 0 1
  outer loop
  vertex 0.00129409 0.0698296 0.005
  vertex -0 0.07 0.005
  vertex 0.005 0.065 0.005
  endloop
 endfacet

 facet normal 0 0 1
  outer loop
  vertex 0.005 0.065 0.005
  vertex 0.00125 0.00216506 0.005
  vertex 0.00176777 0.00176777 0.005
  endloop
 endfacet

 facet normal 0 0 1
  outer loop
  vertex 0.00176777 0.00176777 0.005
  vertex 0.00216506 0.00125 0.005
  vertex 0.005 0.065 0.005
  endloop
 endfacet

 facet normal 0 0 1
  outer loop
  vertex 0.005 0.065 0.005
  vertex 0.00216506 0.00125 0.005
  vertex 0.00241481 0.000647048 0.005
  endloop
 endfacet

 facet normal 0 0 1
  outer loop
  vertex 0.005 0.065 0.005
  vertex 0.00241481 0.000647048 0.005
  vertex 0.005 -0.00748331 0.005
  endloop
 endfacet

 facet normal 0 0 1
  outer loop
  vertex 0.005 -0.00748331 0.005
  vertex 0.00241481 0.000647048 0.005
  vertex 0.0025 0 0.005
  endloop
 endfacet

 facet normal 0 0 1
  outer loop
  vertex 0.005 -0.00748331 0.005
  vertex 0.0025 0 0.005
  vertex 0.00241481 -0.000647048 0.005
  endloop
 endfacet

 facet normal 0 0 1
  outer loop
  vertex 0.00125 0.00216506 0.005
  vertex 0.005 0.065 0.005
  vertex 0.000647048 0.00241481 0.005
  endloop
 endfacet

 facet normal 0 0 1
  outer loop
  vertex 0.000647048 0.00241481 0.005
  vertex 0.005 0.065 0.005
  vertex -0 0.07 0.005
  endloop
 endfacet

 facet normal 0 0 1
  outer loop
  vertex 0.000647048 0.00241481 0.005
  vertex -0 0.07 0.005
  vertex -0 0.0025 0.005
  endloop
 endfacet

 facet normal 0 0 1
  outer loop
  vertex 0.00433013 0.0675 0.005
  vertex 0.00353553 0.0685355 0.005
  vertex 0.0025 0.0693301 0.005
  endloop
 endfacet

 facet normal 0 0 1
  outer loop
  vertex 0.00129409 0.0698296 0.005
  vertex 0.005 0.065 0.005
  vertex 0.0025 0.0693301 0.005
  endloop
 endfacet

 facet normal 0 0 1
  outer loop
  vertex 0.0025 0.0693301 0.005
  vertex 0.005 0.065 0.005
  vertex 0.00482963 0.0662941 0.005
  endloop
 endfacet

 facet normal 0 0 1
  outer loop
  vertex 0.0025 0.0693301 0.005
  vertex 0.00482963 0.0662941 0.005
  vertex 0.00433013 0.0675 0.005
  endloop
 endfacet

 facet normal 0 0 1
  outer loop
  vertex -0.00216506 -0.00125 0.005
  vertex -0.00241481 -0.000647048 0.005
  vertex -0.005 -0.00748331 0.005
  endloop
 endfacet

 facet normal 0 0 1
  outer loop
  vertex 0.00241481 -0.000647048 0.005
  vertex 0.00216506 -0.00125 0.005
  vertex 0.005 -0.00748331 0.005
  endloop
 endfacet

 facet normal 0 0 1
  outer loop
  vertex 0.005 -0.00748331 0.005
  vertex 0.00216506 -0.00125 0.005
  vertex 0.00176777 -0.00176777 0.005
  endloop
 endfacet

 facet normal 0 0 1
  outer loop
  vertex 0.005 -0.00748331 0.005
  vertex 0.00176777 -0.00176777 0.005
  vertex 0.0045 -0.00779423 0.005
  endloop
 endfacet

 facet normal 0 0 1
  outer loop
  vertex 0.0045 -0.00779423 0.005
  vertex 0.00176777 -0.00176777 0.005
  vertex 0.00125 -0.00216506 0.005
  endloop
 endfacet

 facet normal 0 0 1
  outer loop
  vertex 0.0045 -0.00779423 0.005
  vertex 0.00125 -0.00216506 0.005
  vertex 0.00232937 -0.00869333 0.005
  endloop
 endfacet

 facet normal 0 0 1
  outer loop
  vertex 0.00232937 -0.00869333 0.005
  vertex 0.00125 -0.00216506 0.005
  vertex 0.000647048 -0.00241481 0.005
  endloop
 endfacet

 facet normal 0 0 1
  outer loop
  vertex 0.00232937 -0.00869333 0.005
  vertex 0.000647048 -0.00241481 0.005
  vertex 0 -0.009 0.005
  endloop
 endfacet

 facet normal 0 0 1
  outer loop
  vertex 0 -0.009 0.005
  vertex 0.000647048 -0.00241481 0.005
  vertex 0 -0.0025 0.005
  endloop
 endfacet

 facet normal 0 0 1
  outer loop
  vertex 0 -0.009 0.005
  vertex 0 -0.0025 0.005
  vertex -0.00232937 -0.00869333 0.005
  endloop
 endfacet

 facet normal 0 0 1
  outer loop
  vertex -0.00232937 -0.00869333 0.005
  vertex 0 -0.0025 0.005
  vertex -0.000647048 -0.00241481 0.005
  endloop
 endfacet

 facet normal 0 0 1
  outer loop
  vertex -0.00232937 -0.00869333 0.005
  vertex -0.000647048 -0.00241481 0.005
  vertex -0.0045 -0.00779423 0.005
  endloop
 endfacet

 facet normal 0 0 1
  outer loop
  vertex -0.0045 -0.00779423 0.005
  vertex -0.000647048 -0.00241481 0.005
  vertex -0.00125 -0.00216506 0.005
  endloop
 endfacet

 facet normal 0 0 1
  outer loop
  vertex -0.0045 -0.00779423 0.005
  vertex -0.00125 -0.00216506 0.005
  vertex -0.005 -0.00748331 0.005
  endloop
 endfacet

 facet normal 0 0 1
  outer loop
  vertex -0.005 -0.00748331 0.005
  vertex -0.00125 -0.00216506 0.005
  vertex -0.00176777 -0.00176777 0.005
  endloop
 endfacet

 facet normal 0 0 1
  outer loop
  vertex -0.005 -0.00748331 0.005
  vertex -0.00176777 -0.00176777 0.005
  vertex -0.00216506 -0.00125 0.005
  endloop
 endfacet

 facet normal 0 0 1
  outer loop
  vertex -0.00241481 -0.000647048 0.005
  vertex -0.0025 -0 0.005
  vertex -0.005 -0.00748331 0.005
  endloop
 endfacet

 facet normal 0 0 1
  outer loop
  vertex -0.005 -0.00748331 0.005
  vertex -0.0025 -0 0.005
  vertex -0.00241481 0.000647048 0.005
  endloop
 endfacet

 facet normal 0 0 1
  outer loop
  vertex -0.005 -0.00748331 0.005
  vertex -0.00241481 0.000647048 0.005
  vertex -0.005 0.065 0.005
  endloop
 endfacet

 facet normal 0 0 1
  outer loop
  vertex -0.005 0.065 0.005
  vertex -0.00241481 0.000647048 0.005
  vertex -0.00216506 0.00125 0.005
  endloop
 endfacet

 facet normal 0 0 1
  outer loop
  vertex -0.005 0.065 0.005
  vertex -0.00216506 0.00125 0.005
  vertex -0.00176777 0.00176777 0.005
  endloop
 endfacet

 facet normal 0 0 1
  outer loop
  vertex -0.00176777 0.00176777 0.005
  vertex -0.00125 0.00216506 0.005
  vertex -0.005 0.065 0.005
  endloop
 endfacet

 facet normal 0 0 1
  outer loop
  vertex -0.005 0.065 0.005
  vertex -0.00125 0.00216506 0.005
  vertex -0.000647048 0.00241481 0.005
  endloop
 endfacet

 facet normal 0 0 1
  outer loop
  vertex -0.005 0.065 0.005
  vertex -0.000647048 0.00241481 0.005
  vertex -0 0.0025 0.005
  endloop
 endfacet

 facet normal 0 0 1
  outer loop
  vertex -0 0.0025 0.005
  vertex -0 0.07 0.005
  vertex -0.005 0.065 0.005
  endloop
 endfacet

 facet normal 0 0 1
  outer loop
  vertex -0.005 0.065 0.005
  vertex -0 0.07 0.005
  vertex -0.00129409 0.0698296 0.005
  endloop
 endfacet

 facet normal 0 0 1
  outer loop
  vertex -0.005 0.065 0.005
  vertex -0.00129409 0.0698296 0.005
  vertex -0.0025 0.0693301 0.005
  endloop
 endfacet

 facet normal 0 0 1
  outer loop
  vertex -0.0025 0.0693301 0.005
  vertex -0.00353553 0.0685355 0.005
  vertex -0.005 0.065 0.005
  endloop
 endfacet

 facet normal 0 0 1
  outer loop
  vertex -0.005 0.065 0.005
  vertex -0.00353553 0.0685355 0.005
  vertex -0.00433013 0.0675 0.005
  endloop
 endfacet

 facet normal 0 0 1
  outer loop
  vertex -0.005 0.065 0.005
  vertex -0.00433013 0.0675 0.005
  vertex -0.00482963 0.0662941 0.005
  endloop
 endfacet

 facet normal -0.996214 -0.0869338 0
  outer loop
  vertex 0.005 0.065 0.005
  vertex 0.005 0.065 0.013
  vertex 0.00482963 0.0662941 0.013
  endloop
 endfacet

 facet normal -0.984769 -0.173868 0
  outer loop
  vertex 0.005 0.065 0.005
  vertex 0.00482963 0.0662941 0.013
  vertex 0.00482963 0.0662941 0.005
  endloop
 endfacet

 facet normal -0.939769 -0.341811 0
  outer loop
  vertex 0.00482963 0.0662941 0.005
  vertex 0.00482963 0.0662941 0.013
  vertex 0.00433013 0.0675 0.013
  endloop
 endfacet

 facet normal -0.906214 -0.42282 0
  outer loop
  vertex 0.00482963 0.0662941 0.005
  vertex 0.00433013 0.0675 0.013
  vertex 0.00433013 0.0675 0.005
  endloop
 endfacet

 facet normal -0.81928 -0.573394 0
  outer loop
  vertex 0.00433013 0.0675 0.005
  vertex 0.00433013 0.0675 0.013
  vertex 0.00353553 0.0685355 0.013
  endloop
 endfacet

 facet normal -0.765901 -0.642958 0
  outer loop
  vertex 0.00433013 0.0675 0.005
  vertex 0.00353553 0.0685355 0.013
  vertex 0.00353553 0.0685355 0.005
  endloop
 endfacet

 facet normal -0.642958 -0.765901 0
  outer loop
  vertex 0.00353553 0.0685355 0.005
  vertex 0.00353553 0.0685355 0.013
  vertex 0.0025 0.0693301 0.013
  endloop
 endfacet

 facet normal -0.573394 -0.81928 0
  outer loop
  vertex 0.00353553 0.0685355 0.005
  vertex 0.0025 0.0693301 0.013
  vertex 0.0025 0.0693301 0.005
  endloop
 endfacet

 facet normal -0.42282 -0.906214 0
  outer loop
  vertex 0.0025 0.0693301 0.005
  vertex 0.0025 0.0693301 0.013
  vertex 0.00129409 0.0698296 0.013
  endloop
 endfacet

 facet normal -0.341811 -0.939769 0
  outer loop
  vertex 0.0025 0.0693301 0.005
  vertex 0.00129409 0.0698296 0.013
  vertex 0.00129409 0.0698296 0.005
  endloop
 endfacet

 facet normal -0.173868 -0.984769 0
  outer loop
  vertex 0.00129409 0.0698296 0.005
  vertex 0.00129409 0.0698296 0.013
  vertex -0 0.07 0.013
  endloop
 endfacet

 facet normal -0.0869338 -0.996214 0
  outer loop
  vertex 0.00129409 0.0698296 0.005
  vertex -0 0.07 0.013
  vertex -0 0.07 0.005
  endloop
 endfacet

 facet normal 0.0869338 -0.996214 0
  outer loop
  vertex -0 0.07 0.005
  vertex -0 0.07 0.013
  vertex -0.00129409 0.0698296 0.013
  endloop
 endfacet

 facet normal 0.173868 -0.984769 0
  outer loop
  vertex -0 0.07 0.005
  vertex -0.00129409 0.0698296 0.013
  vertex -0.00129409 0.0698296 0.005
  endloop
 endfacet

 facet normal 0.341811 -0.939769 0
  outer loop
  vertex -0.00129409 0.0698296 0.005
  vertex -0.00129409 0.0698296 0.013
  vertex -0.0025 0.0693301 0.013
  endloop
 endfacet

 facet normal 0.42282 -0.906214 0
  outer loop
  vertex -0.00129409 0.0698296 0.005
  vertex -0.0025 0.0693301 0.013
  vertex -0.0025 0.0693301 0.005
  endloop
 endfacet

 facet normal 0.573394 -0.81928 0
  outer loop
  vertex -0.0025 0.0693301 0.005
  vertex -0.0025 0.0693301 0.013
  vertex -0.00353553 0.0685355 0.013
  endloop
 endfacet

 facet normal 0.642958 -0.765901 0
  outer loop
  vertex -0.0025 0.0693301 0.005
  vertex -0.00353553 0.0685355 0.013
  vertex -0.00353553 0.0685355 0.005
  endloop
 endfacet

 facet normal 0.765901 -0.642958 0
  outer loop
  vertex -0.00353553 0.0685355 0.005
  vertex -0.00353553 0.0685355 0.013
  vertex -0.00433013 0.0675 0.013
  endloop
 endfacet

 facet normal 0.81928 -0.573394 0
  outer loop
  vertex -0.00353553 0.0685355 0.005
  vertex -0.00433013 0.0675 0.013
  vertex -0.00433013 0.0675 0.005
  endloop
 endfacet

 facet normal 0.906214 -0.42282 0
  outer loop
  vertex -0.00433013 0.0675 0.005
  vertex -0.00433013 0.0675 0.013
  vertex -0.00482963 0.0662941 0.013
  endloop
 endfacet

 facet normal 0.939769 -0.341811 0
  outer loop
  vertex -0.00433013 0.0675 0.005
  vertex -0.00482963 0.0662941 0.013
  vertex -0.00482963 0.0662941 0.005
  endloop
 endfacet

 facet normal 0.984769 -0.173868 0
  outer loop
  vertex -0.00482963 0.0662941 0.005
  vertex -0.00482963 0.0662941 0.013
  vertex -0.005 0.065 0.013
  endloop
 endfacet

 facet normal 0.996214 -0.0869338 0
  outer loop
  vertex -0.00482963 0.0662941 0.005
  vertex -0.005 0.065 0.013
  vertex -0.005 0.065 0.005
  endloop
 endfacet

 facet normal 0 0 -1
  outer loop
  vertex -0.00176777 0.154146 -0.012
  vertex -0.00125 0.153749 -0.012
  vertex -0.009 0.0343836 -0.012
  endloop
 endfacet

 facet normal 0 0 -1
  outer loop
  vertex 0.00158819 0.0249264 -0.012
  vertex -0.001 0.0245856 -0.012
  vertex 0.009 0.0345856 -0.012
  endloop
 endfacet

 facet normal 0 0 -1
  outer loop
  vertex 0.00766025 0.0295856 -0.012
  vertex 0.00607107 0.0275146 -0.012
  vertex 0.004 0.0259254 -0.012
  endloop
 endfacet

 facet normal 0 0 -1
  outer loop
  vertex -0.00176777 0.154146 -0.012
  vertex -0.009 0.0343836 -0.012
  vertex -0.00216506 0.154664 -0.012
  endloop
 endfacet

 facet normal 0 0 -1
  outer loop
  vertex -0.00216506 0.154664 -0.012
  vertex -0.009 0.0343836 -0.012
  vertex -0.009 0.155914 -0.012
  endloop
 endfacet

 facet normal 0 0 -1
  outer loop
  vertex -0.00216506 0.154664 -0.012
  vertex -0.009 0.155914 -0.012
  vertex -0.00241481 0.155267 -0.012
  endloop
 endfacet

 facet normal 0 0 -1
  outer loop
  vertex -0.00511407 0.0264704 -0.012
  vertex -0.00674597 0.028059 -0.012
  vertex -0.0079761 0.0299757 -0.012
  endloop
 endfacet

 facet normal 0 0 -1
  outer loop
  vertex -0.00125 0.153749 -0.012
  vertex -0.000647048 0.153499 -0.012
  vertex -0.009 0.0343836 -0.012
  endloop
 endfacet

 facet normal 0 0 -1
  outer loop
  vertex -0.009 0.0343836 -0.012
  vertex -0.000647048 0.153499 -0.012
  vertex -0 0.153414 -0.012
  endloop
 endfacet

 facet normal 0 0 -1
  outer loop
  vertex -0.009 0.0343836 -0.012
  vertex -0 0.153414 -0.012
  vertex -0.001 0.0245856 -0.012
  endloop
 endfacet

 facet normal 0 0 -1
  outer loop
  vertex -0.001 0.0245856 -0.012
  vertex -0 0.153414 -0.012
  vertex 0.000647048 0.153499 -0.012
  endloop
 endfacet

 facet normal 0 0 -1
  outer loop
  vertex -0.001 0.0245856 -0.012
  vertex 0.000647048 0.153499 -0.012
  vertex 0.009 0.0345856 -0.012
  endloop
 endfacet

 facet normal 0 0 -1
  outer loop
  vertex 0.009 0.0345856 -0.012
  vertex 0.000647048 0.153499 -0.012
  vertex 0.00125 0.153749 -0.012
  endloop
 endfacet

 facet normal 0 0 -1
  outer loop
  vertex 0.009 0.0345856 -0.012
  vertex 0.00125 0.153749 -0.012
  vertex 0.009 0.155914 -0.012
  endloop
 endfacet

 facet normal 0 0 -1
  outer loop
  vertex 0.009 0.155914 -0.012
  vertex 0.00125 0.153749 -0.012
  vertex 0.00176777 0.154146 -0.012
  endloop
 endfacet

 facet normal 0 0 -1
  outer loop
  vertex 0.009 0.155914 -0.012
  vertex 0.00176777 0.154146 -0.012
  vertex 0.00216506 0.154664 -0.012
  endloop
 endfacet

 facet normal 0 0 -1
  outer loop
  vertex -0.001 0.0245856 -0.012
  vertex -0.00316505 0.0252923 -0.012
  vertex -0.009 0.0343836 -0.012
  endloop
 endfacet

 facet normal 0 0 -1
  outer loop
  vertex -0.009 0.0343836 -0.012
  vertex -0.00316505 0.0252923 -0.012
  vertex -0.00511407 0.0264704 -0.012
  endloop
 endfacet

 facet normal 0 0 -1
  outer loop
  vertex -0.009 0.0343836 -0.012
  vertex -0.00511407 0.0264704 -0.012
  vertex -0.00874066 0.032121 -0.012
  endloop
 endfacet

 facet normal 0 0 -1
  outer loop
  vertex -0.00874066 0.032121 -0.012
  vertex -0.00511407 0.0264704 -0.012
  vertex -0.0079761 0.0299757 -0.012
  endloop
 endfacet

 facet normal 0 0 -1
  outer loop
  vertex 0.00158819 0.0249264 -0.012
  vertex 0.009 0.0345856 -0.012
  vertex 0.004 0.0259254 -0.012
  endloop
 endfacet

 facet normal 0 0 -1
  outer loop
  vertex 0.004 0.0259254 -0.012
  vertex 0.009 0.0345856 -0.012
  vertex 0.00865926 0.0319974 -0.012
  endloop
 endfacet

 facet normal 0 0 -1
  outer loop
  vertex 0.004 0.0259254 -0.012
  vertex 0.00865926 0.0319974 -0.012
  vertex 0.00766025 0.0295856 -0.012
  endloop
 endfacet

 facet normal 0 0 -1
  outer loop
  vertex 0.00216506 0.154664 -0.012
  vertex 0.00241481 0.155267 -0.012
  vertex 0.009 0.155914 -0.012
  endloop
 endfacet

 facet normal 0 0 -1
  outer loop
  vertex 0.009 0.155914 -0.012
  vertex 0.00241481 0.155267 -0.012
  vertex 0.0025 0.155914 -0.012
  endloop
 endfacet

 facet normal 0 0 -1
  outer loop
  vertex 0.009 0.155914 -0.012
  vertex 0.0025 0.155914 -0.012
  vertex 0.00869333 0.158243 -0.012
  endloop
 endfacet

 facet normal 0 0 -1
  outer loop
  vertex 0.00869333 0.158243 -0.012
  vertex 0.0025 0.155914 -0.012
  vertex 0.00241481 0.156561 -0.012
  endloop
 endfacet

 facet normal 0 0 -1
  outer loop
  vertex 0.00869333 0.158243 -0.012
  vertex 0.00241481 0.156561 -0.012
  vertex 0.00779423 0.160414 -0.012
  endloop
 endfacet

 facet normal 0 0 -1
  outer loop
  vertex 0.00779423 0.160414 -0.012
  vertex 0.00241481 0.156561 -0.012
  vertex 0.00216506 0.157164 -0.012
  endloop
 endfacet

 facet normal 0 0 -1
  outer loop
  vertex 0.00779423 0.160414 -0.012
  vertex 0.00216506 0.157164 -0.012
  vertex 0.00636396 0.162278 -0.012
  endloop
 endfacet

 facet normal 0 0 -1
  outer loop
  vertex 0.00636396 0.162278 -0.012
  vertex 0.00216506 0.157164 -0.012
  vertex 0.00176777 0.157682 -0.012
  endloop
 endfacet

 facet normal 0 0 -1
  outer loop
  vertex 0.00636396 0.162278 -0.012
  vertex 0.00176777 0.157682 -0.012
  vertex 0.0045 0.163708 -0.012
  endloop
 endfacet

 facet normal 0 0 -1
  outer loop
  vertex 0.0045 0.163708 -0.012
  vertex 0.00176777 0.157682 -0.012
  vertex 0.00125 0.158079 -0.012
  endloop
 endfacet

 facet normal 0 0 -1
  outer loop
  vertex 0.0045 0.163708 -0.012
  vertex 0.00125 0.158079 -0.012
  vertex 0.00232937 0.164607 -0.012
  endloop
 endfacet

 facet normal 0 0 -1
  outer loop
  vertex 0.00232937 0.164607 -0.012
  vertex 0.00125 0.158079 -0.012
  vertex 0.000647048 0.158329 -0.012
  endloop
 endfacet

 facet normal 0 0 -1
  outer loop
  vertex 0.00232937 0.164607 -0.012
  vertex 0.000647048 0.158329 -0.012
  vertex -0 0.164914 -0.012
  endloop
 endfacet

 facet normal 0 0 -1
  outer loop
  vertex -0 0.164914 -0.012
  vertex 0.000647048 0.158329 -0.012
  vertex -0 0.158414 -0.012
  endloop
 endfacet

 facet normal 0 0 -1
  outer loop
  vertex -0 0.164914 -0.012
  vertex -0 0.158414 -0.012
  vertex -0.00232937 0.164607 -0.012
  endloop
 endfacet

 facet normal 0 0 -1
  outer loop
  vertex -0.00232937 0.164607 -0.012
  vertex -0 0.158414 -0.012
  vertex -0.000647048 0.158329 -0.012
  endloop
 endfacet

 facet normal 0 0 -1
  outer loop
  vertex -0.00232937 0.164607 -0.012
  vertex -0.000647048 0.158329 -0.012
  vertex -0.0045 0.163708 -0.012
  endloop
 endfacet

 facet normal 0 0 -1
  outer loop
  vertex -0.0045 0.163708 -0.012
  vertex -0.000647048 0.158329 -0.012
  vertex -0.00125 0.158079 -0.012
  endloop
 endfacet

 facet normal 0 0 -1
  outer loop
  vertex -0.0045 0.163708 -0.012
  vertex -0.00125 0.158079 -0.012
  vertex -0.00636396 0.162278 -0.012
  endloop
 endfacet

 facet normal 0 0 -1
  outer loop
  vertex -0.00636396 0.162278 -0.012
  vertex -0.00125 0.158079 -0.012
  vertex -0.00176777 0.157682 -0.012
  endloop
 endfacet

 facet normal 0 0 -1
  outer loop
  vertex -0.00636396 0.162278 -0.012
  vertex -0.00176777 0.157682 -0.012
  vertex -0.00779423 0.160414 -0.012
  endloop
 endfacet

 facet normal 0 0 -1
  outer loop
  vertex -0.00779423 0.160414 -0.012
  vertex -0.00176777 0.157682 -0.012
  vertex -0.00216506 0.157164 -0.012
  endloop
 endfacet

 facet normal 0 0 -1
  outer loop
  vertex -0.00779423 0.160414 -0.012
  vertex -0.00216506 0.157164 -0.012
  vertex -0.00869333 0.158243 -0.012
  endloop
 endfacet

 facet normal 0 0 -1
  outer loop
  vertex -0.00869333 0.158243 -0.012
  vertex -0.00216506 0.157164 -0.012
  vertex -0.00241481 0.156561 -0.012
  endloop
 endfacet

 facet normal 0 0 -1
  outer loop
  vertex -0.00869333 0.158243 -0.012
  vertex -0.00241481 0.156561 -0.012
  vertex -0.009 0.155914 -0.012
  endloop
 endfacet

 facet normal 0 0 -1
  outer loop
  vertex -0.009 0.155914 -0.012
  vertex -0.00241481 0.156561 -0.012
  vertex -0.0025 0.155914 -0.012
  endloop
 endfacet

 facet normal 0 0 -1
  outer loop
  vertex -0.009 0.155914 -0.012
  vertex -0.0025 0.155914 -0.012
  vertex -0.00241481 0.155267 -0.012
  endloop
 endfacet

 facet normal 0.996214 -0.0869338 0
  outer loop
  vertex 0.009 0.0345856 -0.012
  vertex 0.009 0.0345856 0
  vertex 0.00865926 0.0319974 0
  endloop
 endfacet

 facet normal 0.984769 -0.173868 0
  outer loop
  vertex 0.009 0.0345856 -0.012
  vertex 0.00865926 0.0319974 0
  vertex 0.00865926 0.0319974 -0.012
  endloop
 endfacet

 facet normal 0.939769 -0.341811 0
  outer loop
  vertex 0.00865926 0.0319974 -0.012
  vertex 0.00865926 0.0319974 0
  vertex 0.00766025 0.0295856 0
  endloop
 endfacet

 facet normal 0.906214 -0.42282 0
  outer loop
  vertex 0.00865926 0.0319974 -0.012
  vertex 0.00766025 0.0295856 0
  vertex 0.00766025 0.0295856 -0.012
  endloop
 endfacet

 facet normal 0.81928 -0.573394 0
  outer loop
  vertex 0.00766025 0.0295856 -0.012
  vertex 0.00766025 0.0295856 0
  vertex 0.00607107 0.0275146 0
  endloop
 endfacet

 facet normal 0.765901 -0.642958 0
  outer loop
  vertex 0.00766025 0.0295856 -0.012
  vertex 0.00607107 0.0275146 0
  vertex 0.00607107 0.0275146 -0.012
  endloop
 endfacet

 facet normal 0.642958 -0.765901 0
  outer loop
  vertex 0.00607107 0.0275146 -0.012
  vertex 0.00607107 0.0275146 0
  vertex 0.004 0.0259254 0
  endloop
 endfacet

 facet normal 0.573394 -0.81928 0
  outer loop
  vertex 0.00607107 0.0275146 -0.012
  vertex 0.004 0.0259254 0
  vertex 0.004 0.0259254 -0.012
  endloop
 endfacet

 facet normal 0.42282 -0.906214 0
  outer loop
  vertex 0.004 0.0259254 -0.012
  vertex 0.004 0.0259254 0
  vertex 0.00158819 0.0249264 0
  endloop
 endfacet

 facet normal 0.341811 -0.939769 0
  outer loop
  vertex 0.004 0.0259254 -0.012
  vertex 0.00158819 0.0249264 0
  vertex 0.00158819 0.0249264 -0.012
  endloop
 endfacet

 facet normal 0.173868 -0.984769 0
  outer loop
  vertex 0.00158819 0.0249264 -0.012
  vertex 0.00158819 0.0249264 0
  vertex -0.001 0.0245856 0
  endloop
 endfacet

 facet normal 0.0869338 -0.996214 0
  outer loop
  vertex 0.00158819 0.0249264 -0.012
  vertex -0.001 0.0245856 0
  vertex -0.001 0.0245856 -0.012
  endloop
 endfacet

 facet normal -0.273751 -0.961801 0
  outer loop
  vertex -0.001 0.0245856 -0.012
  vertex -0.001 0.0245856 0
  vertex -0.00316505 0.0252923 0
  endloop
 endfacet

 facet normal -0.346338 -0.93811 0
  outer loop
  vertex -0.001 0.0245856 -0.012
  vertex -0.00316505 0.0252923 0
  vertex -0.00316505 0.0252923 -0.012
  endloop
 endfacet

 facet normal -0.484271 -0.874918 0
  outer loop
  vertex -0.00316505 0.0252923 -0.012
  vertex -0.00316505 0.0252923 0
  vertex -0.00511407 0.0264704 0
  endloop
 endfacet

 facet normal -0.549616 -0.835417 0
  outer loop
  vertex -0.00316505 0.0252923 -0.012
  vertex -0.00511407 0.0264704 0
  vertex -0.00511407 0.0264704 -0.012
  endloop
 endfacet

 facet normal -0.669674 -0.742655 0
  outer loop
  vertex -0.00511407 0.0264704 -0.012
  vertex -0.00511407 0.0264704 0
  vertex -0.00674597 0.028059 0
  endloop
 endfacet

 facet normal -0.724387 -0.689394 0
  outer loop
  vertex -0.00511407 0.0264704 -0.012
  vertex -0.00674597 0.028059 0
  vertex -0.00674597 0.028059 -0.012
  endloop
 endfacet

 facet normal -0.820342 -0.571873 0
  outer loop
  vertex -0.00674597 0.028059 -0.012
  vertex -0.00674597 0.028059 0
  vertex -0.0079761 0.0299757 0
  endloop
 endfacet

 facet normal -0.861585 -0.507613 0
  outer loop
  vertex -0.00674597 0.028059 -0.012
  vertex -0.0079761 0.0299757 0
  vertex -0.0079761 0.0299757 -0.012
  endloop
 endfacet

 facet normal -0.928462 -0.371428 0
  outer loop
  vertex -0.0079761 0.0299757 -0.012
  vertex -0.0079761 0.0299757 0
  vertex -0.00874066 0.032121 0
  endloop
 endfacet

 facet normal -0.954095 -0.299504 0
  outer loop
  vertex -0.0079761 0.0299757 -0.012
  vertex -0.00874066 0.032121 0
  vertex -0.00874066 0.032121 -0.012
  endloop
 endfacet

 facet normal -0.988424 -0.151719 0
  outer loop
  vertex -0.00874066 0.032121 -0.012
  vertex -0.00874066 0.032121 0
  vertex -0.009 0.0343836 0
  endloop
 endfacet

 facet normal -0.997119 -0.0758595 0
  outer loop
  vertex -0.00874066 0.032121 -0.012
  vertex -0.009 0.0343836 0
  vertex -0.009 0.0343836 -0.012
  endloop
 endfacet

endsolid AssimpScene
