solid STL generated by MeshLab
  facet normal  0.000000e+00  0.000000e+00 -1.000000e+00
    outer loop
      vertex  -3.435000e+01  1.790000e+01 -1.965000e+01
      vertex   3.435000e+01  1.790000e+01 -1.965000e+01
      vertex  -3.435000e+01 -1.790000e+01 -1.965000e+01
    endloop
  endfacet
  facet normal  0.000000e+00  0.000000e+00 -1.000000e+00
    outer loop
      vertex  -3.435000e+01 -1.790000e+01 -1.965000e+01
      vertex   3.435000e+01  1.790000e+01 -1.965000e+01
      vertex   3.435000e+01 -1.790000e+01 -1.965000e+01
    endloop
  endfacet
  facet normal -1.000000e+00 -0.000000e+00 -0.000000e+00
    outer loop
      vertex  -3.435000e+01  1.790000e+01  1.965000e+01
      vertex  -3.435000e+01  1.790000e+01 -1.965000e+01
      vertex  -3.435000e+01 -1.790000e+01  1.965000e+01
    endloop
  endfacet
  facet normal -1.000000e+00  0.000000e+00  0.000000e+00
    outer loop
      vertex  -3.435000e+01 -1.790000e+01  1.965000e+01
      vertex  -3.435000e+01  1.790000e+01 -1.965000e+01
      vertex  -3.435000e+01 -1.790000e+01 -1.965000e+01
    endloop
  endfacet
  facet normal  0.000000e+00  0.000000e+00  1.000000e+00
    outer loop
      vertex   3.435000e+01  1.790000e+01  1.965000e+01
      vertex  -3.435000e+01  1.790000e+01  1.965000e+01
      vertex   3.435000e+01 -1.790000e+01  1.965000e+01
    endloop
  endfacet
  facet normal  0.000000e+00  0.000000e+00  1.000000e+00
    outer loop
      vertex   3.435000e+01 -1.790000e+01  1.965000e+01
      vertex  -3.435000e+01  1.790000e+01  1.965000e+01
      vertex  -3.435000e+01 -1.790000e+01  1.965000e+01
    endloop
  endfacet
  facet normal  1.000000e+00  0.000000e+00 -0.000000e+00
    outer loop
      vertex   3.435000e+01  1.790000e+01 -1.965000e+01
      vertex   3.435000e+01  1.790000e+01  1.965000e+01
      vertex   3.435000e+01 -1.790000e+01 -1.965000e+01
    endloop
  endfacet
  facet normal  1.000000e+00  0.000000e+00  0.000000e+00
    outer loop
      vertex   3.435000e+01 -1.790000e+01 -1.965000e+01
      vertex   3.435000e+01  1.790000e+01  1.965000e+01
      vertex   3.435000e+01 -1.790000e+01  1.965000e+01
    endloop
  endfacet
  facet normal -0.000000e+00  1.000000e+00  0.000000e+00
    outer loop
      vertex  -3.435000e+01  1.790000e+01  1.965000e+01
      vertex   3.435000e+01  1.790000e+01  1.965000e+01
      vertex  -3.435000e+01  1.790000e+01 -1.965000e+01
    endloop
  endfacet
  facet normal  0.000000e+00  1.000000e+00  0.000000e+00
    outer loop
      vertex  -3.435000e+01  1.790000e+01 -1.965000e+01
      vertex   3.435000e+01  1.790000e+01  1.965000e+01
      vertex   3.435000e+01  1.790000e+01 -1.965000e+01
    endloop
  endfacet
  facet normal -0.000000e+00 -1.000000e+00 -0.000000e+00
    outer loop
      vertex   3.435000e+01 -1.790000e+01  1.965000e+01
      vertex  -3.435000e+01 -1.790000e+01  1.965000e+01
      vertex   3.435000e+01 -1.790000e+01 -1.965000e+01
    endloop
  endfacet
  facet normal  0.000000e+00 -1.000000e+00  0.000000e+00
    outer loop
      vertex   3.435000e+01 -1.790000e+01 -1.965000e+01
      vertex  -3.435000e+01 -1.790000e+01  1.965000e+01
      vertex  -3.435000e+01 -1.790000e+01 -1.965000e+01
    endloop
  endfacet
endsolid vcg
