solid gel_phantom_1
   facet normal 0.000000e+00 0.000000e+00 -1.000000e+00
      outer loop
         vertex 0.000000e+00 3.580000e+01 0.000000e+00
         vertex 6.870000e+01 3.580000e+01 0.000000e+00
         vertex 0.000000e+00 1.387779e-14 0.000000e+00
      endloop
   endfacet
   facet normal 0.000000e+00 0.000000e+00 -1.000000e+00
      outer loop
         vertex 0.000000e+00 1.387779e-14 0.000000e+00
         vertex 6.870000e+01 3.580000e+01 0.000000e+00
         vertex 6.870000e+01 1.387779e-14 0.000000e+00
      endloop
   endfacet
   facet normal -1.000000e+00 -0.000000e+00 -0.000000e+00
      outer loop
         vertex 0.000000e+00 3.580000e+01 3.930000e+01
         vertex 0.000000e+00 3.580000e+01 0.000000e+00
         vertex 0.000000e+00 1.387779e-14 3.930000e+01
      endloop
   endfacet
   facet normal -1.000000e+00 0.000000e+00 0.000000e+00
      outer loop
         vertex 0.000000e+00 1.387779e-14 3.930000e+01
         vertex 0.000000e+00 3.580000e+01 0.000000e+00
         vertex 0.000000e+00 1.387779e-14 0.000000e+00
      endloop
   endfacet
   facet normal 0.000000e+00 0.000000e+00 1.000000e+00
      outer loop
         vertex 6.870000e+01 3.580000e+01 3.930000e+01
         vertex 0.000000e+00 3.580000e+01 3.930000e+01
         vertex 6.870000e+01 1.387779e-14 3.930000e+01
      endloop
   endfacet
   facet normal 0.000000e+00 0.000000e+00 1.000000e+00
      outer loop
         vertex 6.870000e+01 1.387779e-14 3.930000e+01
         vertex 0.000000e+00 3.580000e+01 3.930000e+01
         vertex 0.000000e+00 1.387779e-14 3.930000e+01
      endloop
   endfacet
   facet normal 1.000000e+00 0.000000e+00 -0.000000e+00
      outer loop
         vertex 6.870000e+01 3.580000e+01 0.000000e+00
         vertex 6.870000e+01 3.580000e+01 3.930000e+01
         vertex 6.870000e+01 1.387779e-14 0.000000e+00
      endloop
   endfacet
   facet normal 1.000000e+00 0.000000e+00 0.000000e+00
      outer loop
         vertex 6.870000e+01 1.387779e-14 0.000000e+00
         vertex 6.870000e+01 3.580000e+01 3.930000e+01
         vertex 6.870000e+01 1.387779e-14 3.930000e+01
      endloop
   endfacet
   facet normal -0.000000e+00 1.000000e+00 0.000000e+00
      outer loop
         vertex 0.000000e+00 3.580000e+01 3.930000e+01
         vertex 6.870000e+01 3.580000e+01 3.930000e+01
         vertex 0.000000e+00 3.580000e+01 0.000000e+00
      endloop
   endfacet
   facet normal 0.000000e+00 1.000000e+00 0.000000e+00
      outer loop
         vertex 0.000000e+00 3.580000e+01 0.000000e+00
         vertex 6.870000e+01 3.580000e+01 3.930000e+01
         vertex 6.870000e+01 3.580000e+01 0.000000e+00
      endloop
   endfacet
   facet normal -0.000000e+00 -1.000000e+00 -0.000000e+00
      outer loop
         vertex 6.870000e+01 0.000000e+00 3.930000e+01
         vertex 0.000000e+00 0.000000e+00 3.930000e+01
         vertex 6.870000e+01 0.000000e+00 0.000000e+00
      endloop
   endfacet
   facet normal 0.000000e+00 -1.000000e+00 0.000000e+00
      outer loop
         vertex 6.870000e+01 0.000000e+00 0.000000e+00
         vertex 0.000000e+00 0.000000e+00 3.930000e+01
         vertex 0.000000e+00 0.000000e+00 0.000000e+00
      endloop
   endfacet
endsolid