solid lego_support
   facet normal 6.037246e-02 9.981759e-01 0.000000e+00
      outer loop
         vertex 4.782147e+00 8.267084e+01 1.600000e+01
         vertex 4.300000e+00 8.270000e+01 1.600000e+01
         vertex 4.300000e+00 8.270000e+01 3.220000e+01
      endloop
   endfacet
   facet normal -1.802531e-01 9.836203e-01 0.000000e+00
      outer loop
         vertex 4.300000e+00 8.270000e+01 3.220000e+01
         vertex 4.300000e+00 8.270000e+01 1.600000e+01
         vertex 2.881580e+00 8.244007e+01 3.220000e+01
      endloop
   endfacet
   facet normal -1.802531e-01 9.836203e-01 0.000000e+00
      outer loop
         vertex 4.300000e+00 8.270000e+01 1.600000e+01
         vertex 2.881580e+00 8.244007e+01 1.600000e+01
         vertex 2.881580e+00 8.244007e+01 3.220000e+01
      endloop
   endfacet
   facet normal -5.680654e-01 8.229834e-01 0.000000e+00
      outer loop
         vertex 2.881580e+00 8.244007e+01 3.220000e+01
         vertex 2.881580e+00 8.244007e+01 1.600000e+01
         vertex 1.305957e+00 8.135249e+01 1.600000e+01
      endloop
   endfacet
   facet normal -5.680654e-01 8.229834e-01 0.000000e+00
      outer loop
         vertex 2.881580e+00 8.244007e+01 3.220000e+01
         vertex 1.305957e+00 8.135249e+01 1.600000e+01
         vertex 1.305957e+00 8.135249e+01 3.220000e+01
      endloop
   endfacet
   facet normal -8.854561e-01 4.647230e-01 0.000000e+00
      outer loop
         vertex 1.305957e+00 8.135249e+01 3.220000e+01
         vertex 1.305957e+00 8.135249e+01 1.600000e+01
         vertex 4.162327e-01 7.965726e+01 1.600000e+01
      endloop
   endfacet
   facet normal -8.854561e-01 4.647230e-01 0.000000e+00
      outer loop
         vertex 1.305957e+00 8.135249e+01 3.220000e+01
         vertex 4.162327e-01 7.965726e+01 1.600000e+01
         vertex 4.162327e-01 7.965726e+01 3.220000e+01
      endloop
   endfacet
   facet normal -1.000000e+00 0.000000e+00 -0.000000e+00
      outer loop
         vertex 4.162327e-01 7.965726e+01 3.220000e+01
         vertex 4.162327e-01 7.965726e+01 1.600000e+01
         vertex 4.162327e-01 7.774274e+01 1.600000e+01
      endloop
   endfacet
   facet normal -1.000000e+00 -0.000000e+00 0.000000e+00
      outer loop
         vertex 4.162327e-01 7.965726e+01 3.220000e+01
         vertex 4.162327e-01 7.774274e+01 1.600000e+01
         vertex 4.162327e-01 7.774274e+01 3.220000e+01
      endloop
   endfacet
   facet normal -8.854559e-01 -4.647234e-01 -0.000000e+00
      outer loop
         vertex 4.162327e-01 7.774274e+01 3.220000e+01
         vertex 4.162327e-01 7.774274e+01 1.600000e+01
         vertex 1.305957e+00 7.604751e+01 1.600000e+01
      endloop
   endfacet
   facet normal -8.854559e-01 -4.647234e-01 0.000000e+00
      outer loop
         vertex 4.162327e-01 7.774274e+01 3.220000e+01
         vertex 1.305957e+00 7.604751e+01 1.600000e+01
         vertex 1.305957e+00 7.604751e+01 3.220000e+01
      endloop
   endfacet
   facet normal -5.680647e-01 -8.229839e-01 -0.000000e+00
      outer loop
         vertex 1.305957e+00 7.604751e+01 3.220000e+01
         vertex 1.305957e+00 7.604751e+01 1.600000e+01
         vertex 2.881580e+00 7.495994e+01 1.600000e+01
      endloop
   endfacet
   facet normal -5.680647e-01 -8.229839e-01 0.000000e+00
      outer loop
         vertex 1.305957e+00 7.604751e+01 3.220000e+01
         vertex 2.881580e+00 7.495994e+01 1.600000e+01
         vertex 2.881580e+00 7.495994e+01 3.220000e+01
      endloop
   endfacet
   facet normal -1.205367e-01 -9.927089e-01 -0.000000e+00
      outer loop
         vertex 2.881580e+00 7.495994e+01 3.220000e+01
         vertex 2.881580e+00 7.495994e+01 1.600000e+01
         vertex 4.782147e+00 7.472917e+01 1.600000e+01
      endloop
   endfacet
   facet normal -1.205367e-01 -9.927089e-01 0.000000e+00
      outer loop
         vertex 2.881580e+00 7.495994e+01 3.220000e+01
         vertex 4.782147e+00 7.472917e+01 1.600000e+01
         vertex 4.782147e+00 7.472917e+01 3.220000e+01
      endloop
   endfacet
   facet normal 3.546051e-01 -9.350161e-01 0.000000e+00
      outer loop
         vertex 4.782147e+00 7.472917e+01 3.220000e+01
         vertex 4.782147e+00 7.472917e+01 1.600000e+01
         vertex 6.572259e+00 7.540807e+01 1.600000e+01
      endloop
   endfacet
   facet normal 3.546051e-01 -9.350161e-01 0.000000e+00
      outer loop
         vertex 4.782147e+00 7.472917e+01 3.220000e+01
         vertex 6.572259e+00 7.540807e+01 1.600000e+01
         vertex 6.572259e+00 7.540807e+01 3.220000e+01
      endloop
   endfacet
   facet normal 7.485107e-01 -6.631227e-01 0.000000e+00
      outer loop
         vertex 6.572259e+00 7.540807e+01 3.220000e+01
         vertex 6.572259e+00 7.540807e+01 1.600000e+01
         vertex 7.841825e+00 7.684111e+01 1.600000e+01
      endloop
   endfacet
   facet normal 7.485107e-01 -6.631227e-01 0.000000e+00
      outer loop
         vertex 6.572259e+00 7.540807e+01 3.220000e+01
         vertex 7.841825e+00 7.684111e+01 1.600000e+01
         vertex 7.841825e+00 7.684111e+01 3.220000e+01
      endloop
   endfacet
   facet normal 9.709419e-01 -2.393155e-01 0.000000e+00
      outer loop
         vertex 7.841825e+00 7.684111e+01 3.220000e+01
         vertex 7.841825e+00 7.684111e+01 1.600000e+01
         vertex 8.300000e+00 7.870000e+01 1.600000e+01
      endloop
   endfacet
   facet normal 9.709419e-01 -2.393155e-01 0.000000e+00
      outer loop
         vertex 7.841825e+00 7.684111e+01 3.220000e+01
         vertex 8.300000e+00 7.870000e+01 1.600000e+01
         vertex 8.300000e+00 7.870000e+01 3.220000e+01
      endloop
   endfacet
   facet normal 9.709419e-01 2.393155e-01 0.000000e+00
      outer loop
         vertex 8.300000e+00 7.870000e+01 3.220000e+01
         vertex 8.300000e+00 7.870000e+01 1.600000e+01
         vertex 7.841825e+00 8.055889e+01 1.600000e+01
      endloop
   endfacet
   facet normal 9.709419e-01 2.393155e-01 0.000000e+00
      outer loop
         vertex 8.300000e+00 7.870000e+01 3.220000e+01
         vertex 7.841825e+00 8.055889e+01 1.600000e+01
         vertex 7.841825e+00 8.055889e+01 3.220000e+01
      endloop
   endfacet
   facet normal 7.485111e-01 6.631223e-01 0.000000e+00
      outer loop
         vertex 7.841825e+00 8.055889e+01 3.220000e+01
         vertex 7.841825e+00 8.055889e+01 1.600000e+01
         vertex 6.572259e+00 8.199194e+01 1.600000e+01
      endloop
   endfacet
   facet normal 7.485111e-01 6.631223e-01 0.000000e+00
      outer loop
         vertex 7.841825e+00 8.055889e+01 3.220000e+01
         vertex 6.572259e+00 8.199194e+01 1.600000e+01
         vertex 6.572259e+00 8.199194e+01 3.220000e+01
      endloop
   endfacet
   facet normal 3.546051e-01 9.350161e-01 0.000000e+00
      outer loop
         vertex 6.572259e+00 8.199194e+01 3.220000e+01
         vertex 6.572259e+00 8.199194e+01 1.600000e+01
         vertex 4.782147e+00 8.267084e+01 1.600000e+01
      endloop
   endfacet
   facet normal 3.546051e-01 9.350161e-01 0.000000e+00
      outer loop
         vertex 6.572259e+00 8.199194e+01 3.220000e+01
         vertex 4.782147e+00 8.267084e+01 1.600000e+01
         vertex 4.782147e+00 8.267084e+01 3.220000e+01
      endloop
   endfacet
   facet normal 6.037246e-02 9.981759e-01 0.000000e+00
      outer loop
         vertex 4.782147e+00 8.267084e+01 3.220000e+01
         vertex 4.782147e+00 8.267084e+01 1.600000e+01
         vertex 4.300000e+00 8.270000e+01 3.220000e+01
      endloop
   endfacet
   facet normal 0.000000e+00 1.000000e+00 0.000000e+00
      outer loop
         vertex 9.200000e+00 9.570000e+01 4.010000e+01
         vertex 9.200000e+00 9.570000e+01 3.220000e+01
         vertex 0.000000e+00 9.570000e+01 4.010000e+01
      endloop
   endfacet
   facet normal 0.000000e+00 1.000000e+00 0.000000e+00
      outer loop
         vertex 0.000000e+00 9.570000e+01 4.010000e+01
         vertex 9.200000e+00 9.570000e+01 3.220000e+01
         vertex 0.000000e+00 9.570000e+01 3.220000e+01
      endloop
   endfacet
   facet normal 0.000000e+00 0.000000e+00 1.000000e+00
      outer loop
         vertex 2.881580e+00 7.495994e+01 4.010000e+01
         vertex 0.000000e+00 0.000000e+00 4.010000e+01
         vertex 4.782147e+00 7.472917e+01 4.010000e+01
      endloop
   endfacet
   facet normal 0.000000e+00 0.000000e+00 1.000000e+00
      outer loop
         vertex 4.782147e+00 7.472917e+01 4.010000e+01
         vertex 0.000000e+00 0.000000e+00 4.010000e+01
         vertex 9.200000e+00 0.000000e+00 4.010000e+01
      endloop
   endfacet
   facet normal -0.000000e+00 0.000000e+00 1.000000e+00
      outer loop
         vertex 4.782147e+00 7.472917e+01 4.010000e+01
         vertex 9.200000e+00 0.000000e+00 4.010000e+01
         vertex 6.572259e+00 7.540807e+01 4.010000e+01
      endloop
   endfacet
   facet normal 0.000000e+00 0.000000e+00 1.000000e+00
      outer loop
         vertex 2.881580e+00 7.495994e+01 4.010000e+01
         vertex 1.305957e+00 7.604751e+01 4.010000e+01
         vertex 0.000000e+00 0.000000e+00 4.010000e+01
      endloop
   endfacet
   facet normal 0.000000e+00 0.000000e+00 1.000000e+00
      outer loop
         vertex 0.000000e+00 0.000000e+00 4.010000e+01
         vertex 1.305957e+00 7.604751e+01 4.010000e+01
         vertex 4.162327e-01 7.774274e+01 4.010000e+01
      endloop
   endfacet
   facet normal 0.000000e+00 0.000000e+00 1.000000e+00
      outer loop
         vertex 0.000000e+00 0.000000e+00 4.010000e+01
         vertex 4.162327e-01 7.774274e+01 4.010000e+01
         vertex 0.000000e+00 9.570000e+01 4.010000e+01
      endloop
   endfacet
   facet normal 0.000000e+00 0.000000e+00 1.000000e+00
      outer loop
         vertex 0.000000e+00 9.570000e+01 4.010000e+01
         vertex 4.162327e-01 7.774274e+01 4.010000e+01
         vertex 4.162327e-01 7.965726e+01 4.010000e+01
      endloop
   endfacet
   facet normal 0.000000e+00 0.000000e+00 1.000000e+00
      outer loop
         vertex 0.000000e+00 9.570000e+01 4.010000e+01
         vertex 4.162327e-01 7.965726e+01 4.010000e+01
         vertex 1.305957e+00 8.135249e+01 4.010000e+01
      endloop
   endfacet
   facet normal -0.000000e+00 0.000000e+00 1.000000e+00
      outer loop
         vertex 6.572259e+00 8.199194e+01 4.010000e+01
         vertex 7.841825e+00 8.055889e+01 4.010000e+01
         vertex 9.200000e+00 9.570000e+01 4.010000e+01
      endloop
   endfacet
   facet normal 0.000000e+00 0.000000e+00 1.000000e+00
      outer loop
         vertex 9.200000e+00 9.570000e+01 4.010000e+01
         vertex 7.841825e+00 8.055889e+01 4.010000e+01
         vertex 8.300000e+00 7.870000e+01 4.010000e+01
      endloop
   endfacet
   facet normal 0.000000e+00 0.000000e+00 1.000000e+00
      outer loop
         vertex 9.200000e+00 9.570000e+01 4.010000e+01
         vertex 8.300000e+00 7.870000e+01 4.010000e+01
         vertex 9.200000e+00 0.000000e+00 4.010000e+01
      endloop
   endfacet
   facet normal 0.000000e+00 0.000000e+00 1.000000e+00
      outer loop
         vertex 9.200000e+00 0.000000e+00 4.010000e+01
         vertex 8.300000e+00 7.870000e+01 4.010000e+01
         vertex 7.841825e+00 7.684111e+01 4.010000e+01
      endloop
   endfacet
   facet normal 0.000000e+00 0.000000e+00 1.000000e+00
      outer loop
         vertex 9.200000e+00 0.000000e+00 4.010000e+01
         vertex 7.841825e+00 7.684111e+01 4.010000e+01
         vertex 6.572259e+00 7.540807e+01 4.010000e+01
      endloop
   endfacet
   facet normal 0.000000e+00 -0.000000e+00 1.000000e+00
      outer loop
         vertex 1.305957e+00 8.135249e+01 4.010000e+01
         vertex 2.881580e+00 8.244007e+01 4.010000e+01
         vertex 0.000000e+00 9.570000e+01 4.010000e+01
      endloop
   endfacet
   facet normal 0.000000e+00 0.000000e+00 1.000000e+00
      outer loop
         vertex 0.000000e+00 9.570000e+01 4.010000e+01
         vertex 2.881580e+00 8.244007e+01 4.010000e+01
         vertex 4.300000e+00 8.270000e+01 4.010000e+01
      endloop
   endfacet
   facet normal -0.000000e+00 0.000000e+00 1.000000e+00
      outer loop
         vertex 0.000000e+00 9.570000e+01 4.010000e+01
         vertex 4.300000e+00 8.270000e+01 4.010000e+01
         vertex 9.200000e+00 9.570000e+01 4.010000e+01
      endloop
   endfacet
   facet normal 0.000000e+00 0.000000e+00 1.000000e+00
      outer loop
         vertex 9.200000e+00 9.570000e+01 4.010000e+01
         vertex 4.300000e+00 8.270000e+01 4.010000e+01
         vertex 4.782147e+00 8.267084e+01 4.010000e+01
      endloop
   endfacet
   facet normal 0.000000e+00 0.000000e+00 1.000000e+00
      outer loop
         vertex 9.200000e+00 9.570000e+01 4.010000e+01
         vertex 4.782147e+00 8.267084e+01 4.010000e+01
         vertex 6.572259e+00 8.199194e+01 4.010000e+01
      endloop
   endfacet
   facet normal 0.000000e+00 -1.000000e+00 0.000000e+00
      outer loop
         vertex 9.200000e+00 0.000000e+00 3.220000e+01
         vertex 9.200000e+00 0.000000e+00 4.010000e+01
         vertex 0.000000e+00 0.000000e+00 3.220000e+01
      endloop
   endfacet
   facet normal 0.000000e+00 -1.000000e+00 0.000000e+00
      outer loop
         vertex 0.000000e+00 0.000000e+00 3.220000e+01
         vertex 9.200000e+00 0.000000e+00 4.010000e+01
         vertex 0.000000e+00 0.000000e+00 4.010000e+01
      endloop
   endfacet
   facet normal -0.000000e+00 0.000000e+00 -1.000000e+00
      outer loop
         vertex 2.881580e+00 8.244007e+01 3.220000e+01
         vertex 1.305957e+00 8.135249e+01 3.220000e+01
         vertex 0.000000e+00 9.570000e+01 3.220000e+01
      endloop
   endfacet
   facet normal -0.000000e+00 0.000000e+00 -1.000000e+00
      outer loop
         vertex 1.305957e+00 8.135249e+01 3.220000e+01
         vertex 4.162327e-01 7.965726e+01 3.220000e+01
         vertex 0.000000e+00 9.570000e+01 3.220000e+01
      endloop
   endfacet
   facet normal 0.000000e+00 0.000000e+00 -1.000000e+00
      outer loop
         vertex 0.000000e+00 9.570000e+01 3.220000e+01
         vertex 4.162327e-01 7.965726e+01 3.220000e+01
         vertex 4.162327e-01 7.774274e+01 3.220000e+01
      endloop
   endfacet
   facet normal 0.000000e+00 0.000000e+00 -1.000000e+00
      outer loop
         vertex 0.000000e+00 9.570000e+01 3.220000e+01
         vertex 4.162327e-01 7.774274e+01 3.220000e+01
         vertex 0.000000e+00 0.000000e+00 3.220000e+01
      endloop
   endfacet
   facet normal 0.000000e+00 -0.000000e+00 -1.000000e+00
      outer loop
         vertex 4.162327e-01 7.774274e+01 3.220000e+01
         vertex 1.305957e+00 7.604751e+01 3.220000e+01
         vertex 0.000000e+00 0.000000e+00 3.220000e+01
      endloop
   endfacet
   facet normal 0.000000e+00 0.000000e+00 -1.000000e+00
      outer loop
         vertex 0.000000e+00 0.000000e+00 3.220000e+01
         vertex 1.305957e+00 7.604751e+01 3.220000e+01
         vertex 2.881580e+00 7.495994e+01 3.220000e+01
      endloop
   endfacet
   facet normal 0.000000e+00 0.000000e+00 -1.000000e+00
      outer loop
         vertex 0.000000e+00 0.000000e+00 3.220000e+01
         vertex 2.881580e+00 7.495994e+01 3.220000e+01
         vertex 9.200000e+00 0.000000e+00 3.220000e+01
      endloop
   endfacet
   facet normal 0.000000e+00 0.000000e+00 -1.000000e+00
      outer loop
         vertex 9.200000e+00 0.000000e+00 3.220000e+01
         vertex 2.881580e+00 7.495994e+01 3.220000e+01
         vertex 4.782147e+00 7.472917e+01 3.220000e+01
      endloop
   endfacet
   facet normal 0.000000e+00 0.000000e+00 -1.000000e+00
      outer loop
         vertex 9.200000e+00 0.000000e+00 3.220000e+01
         vertex 4.782147e+00 7.472917e+01 3.220000e+01
         vertex 6.572259e+00 7.540807e+01 3.220000e+01
      endloop
   endfacet
   facet normal 0.000000e+00 0.000000e+00 -1.000000e+00
      outer loop
         vertex 6.572259e+00 7.540807e+01 3.220000e+01
         vertex 7.841825e+00 7.684111e+01 3.220000e+01
         vertex 9.200000e+00 0.000000e+00 3.220000e+01
      endloop
   endfacet
   facet normal 0.000000e+00 0.000000e+00 -1.000000e+00
      outer loop
         vertex 9.200000e+00 0.000000e+00 3.220000e+01
         vertex 7.841825e+00 7.684111e+01 3.220000e+01
         vertex 8.300000e+00 7.870000e+01 3.220000e+01
      endloop
   endfacet
   facet normal 0.000000e+00 0.000000e+00 -1.000000e+00
      outer loop
         vertex 9.200000e+00 0.000000e+00 3.220000e+01
         vertex 8.300000e+00 7.870000e+01 3.220000e+01
         vertex 9.200000e+00 9.570000e+01 3.220000e+01
      endloop
   endfacet
   facet normal 0.000000e+00 0.000000e+00 -1.000000e+00
      outer loop
         vertex 9.200000e+00 9.570000e+01 3.220000e+01
         vertex 8.300000e+00 7.870000e+01 3.220000e+01
         vertex 7.841825e+00 8.055889e+01 3.220000e+01
      endloop
   endfacet
   facet normal 0.000000e+00 0.000000e+00 -1.000000e+00
      outer loop
         vertex 7.841825e+00 8.055889e+01 3.220000e+01
         vertex 6.572259e+00 8.199194e+01 3.220000e+01
         vertex 9.200000e+00 9.570000e+01 3.220000e+01
      endloop
   endfacet
   facet normal 0.000000e+00 0.000000e+00 -1.000000e+00
      outer loop
         vertex 9.200000e+00 9.570000e+01 3.220000e+01
         vertex 6.572259e+00 8.199194e+01 3.220000e+01
         vertex 4.782147e+00 8.267084e+01 3.220000e+01
      endloop
   endfacet
   facet normal -0.000000e+00 0.000000e+00 -1.000000e+00
      outer loop
         vertex 9.200000e+00 9.570000e+01 3.220000e+01
         vertex 4.782147e+00 8.267084e+01 3.220000e+01
         vertex 0.000000e+00 9.570000e+01 3.220000e+01
      endloop
   endfacet
   facet normal 0.000000e+00 0.000000e+00 -1.000000e+00
      outer loop
         vertex 0.000000e+00 9.570000e+01 3.220000e+01
         vertex 4.782147e+00 8.267084e+01 3.220000e+01
         vertex 4.300000e+00 8.270000e+01 3.220000e+01
      endloop
   endfacet
   facet normal 0.000000e+00 0.000000e+00 -1.000000e+00
      outer loop
         vertex 0.000000e+00 9.570000e+01 3.220000e+01
         vertex 4.300000e+00 8.270000e+01 3.220000e+01
         vertex 2.881580e+00 8.244007e+01 3.220000e+01
      endloop
   endfacet
   facet normal 1.000000e+00 -0.000000e+00 0.000000e+00
      outer loop
         vertex 9.200000e+00 0.000000e+00 4.010000e+01
         vertex 9.200000e+00 0.000000e+00 3.220000e+01
         vertex 9.200000e+00 9.570000e+01 4.010000e+01
      endloop
   endfacet
   facet normal 1.000000e+00 0.000000e+00 0.000000e+00
      outer loop
         vertex 9.200000e+00 9.570000e+01 4.010000e+01
         vertex 9.200000e+00 0.000000e+00 3.220000e+01
         vertex 9.200000e+00 9.570000e+01 3.220000e+01
      endloop
   endfacet
   facet normal -1.000000e+00 0.000000e+00 0.000000e+00
      outer loop
         vertex 0.000000e+00 0.000000e+00 3.220000e+01
         vertex 0.000000e+00 0.000000e+00 4.010000e+01
         vertex 0.000000e+00 9.570000e+01 3.220000e+01
      endloop
   endfacet
   facet normal -1.000000e+00 0.000000e+00 0.000000e+00
      outer loop
         vertex 0.000000e+00 9.570000e+01 3.220000e+01
         vertex 0.000000e+00 0.000000e+00 4.010000e+01
         vertex 0.000000e+00 9.570000e+01 4.010000e+01
      endloop
   endfacet
   facet normal -1.802531e-01 9.836203e-01 0.000000e+00
      outer loop
         vertex 4.300000e+00 8.270000e+01 4.010000e+01
         vertex 2.881580e+00 8.244007e+01 4.010000e+01
         vertex 2.881580e+00 8.244007e+01 4.800000e+01
      endloop
   endfacet
   facet normal -5.680654e-01 8.229834e-01 0.000000e+00
      outer loop
         vertex 2.881580e+00 8.244007e+01 4.800000e+01
         vertex 2.881580e+00 8.244007e+01 4.010000e+01
         vertex 1.305957e+00 8.135249e+01 4.010000e+01
      endloop
   endfacet
   facet normal -5.680654e-01 8.229834e-01 0.000000e+00
      outer loop
         vertex 2.881580e+00 8.244007e+01 4.800000e+01
         vertex 1.305957e+00 8.135249e+01 4.010000e+01
         vertex 1.305957e+00 8.135249e+01 4.800000e+01
      endloop
   endfacet
   facet normal -8.854561e-01 4.647230e-01 0.000000e+00
      outer loop
         vertex 1.305957e+00 8.135249e+01 4.800000e+01
         vertex 1.305957e+00 8.135249e+01 4.010000e+01
         vertex 4.162327e-01 7.965726e+01 4.010000e+01
      endloop
   endfacet
   facet normal -8.854561e-01 4.647230e-01 0.000000e+00
      outer loop
         vertex 1.305957e+00 8.135249e+01 4.800000e+01
         vertex 4.162327e-01 7.965726e+01 4.010000e+01
         vertex 4.162327e-01 7.965726e+01 4.800000e+01
      endloop
   endfacet
   facet normal -1.000000e+00 0.000000e+00 -0.000000e+00
      outer loop
         vertex 4.162327e-01 7.965726e+01 4.800000e+01
         vertex 4.162327e-01 7.965726e+01 4.010000e+01
         vertex 4.162327e-01 7.774274e+01 4.010000e+01
      endloop
   endfacet
   facet normal -1.000000e+00 -0.000000e+00 0.000000e+00
      outer loop
         vertex 4.162327e-01 7.965726e+01 4.800000e+01
         vertex 4.162327e-01 7.774274e+01 4.010000e+01
         vertex 4.162327e-01 7.774274e+01 4.800000e+01
      endloop
   endfacet
   facet normal -8.854559e-01 -4.647234e-01 -0.000000e+00
      outer loop
         vertex 4.162327e-01 7.774274e+01 4.800000e+01
         vertex 4.162327e-01 7.774274e+01 4.010000e+01
         vertex 1.305957e+00 7.604751e+01 4.010000e+01
      endloop
   endfacet
   facet normal -8.854559e-01 -4.647234e-01 0.000000e+00
      outer loop
         vertex 4.162327e-01 7.774274e+01 4.800000e+01
         vertex 1.305957e+00 7.604751e+01 4.010000e+01
         vertex 1.305957e+00 7.604751e+01 4.800000e+01
      endloop
   endfacet
   facet normal -5.680647e-01 -8.229839e-01 -0.000000e+00
      outer loop
         vertex 1.305957e+00 7.604751e+01 4.800000e+01
         vertex 1.305957e+00 7.604751e+01 4.010000e+01
         vertex 2.881580e+00 7.495994e+01 4.010000e+01
      endloop
   endfacet
   facet normal -5.680647e-01 -8.229839e-01 0.000000e+00
      outer loop
         vertex 1.305957e+00 7.604751e+01 4.800000e+01
         vertex 2.881580e+00 7.495994e+01 4.010000e+01
         vertex 2.881580e+00 7.495994e+01 4.800000e+01
      endloop
   endfacet
   facet normal -1.205367e-01 -9.927089e-01 -0.000000e+00
      outer loop
         vertex 2.881580e+00 7.495994e+01 4.800000e+01
         vertex 2.881580e+00 7.495994e+01 4.010000e+01
         vertex 4.782147e+00 7.472917e+01 4.010000e+01
      endloop
   endfacet
   facet normal -1.205367e-01 -9.927089e-01 0.000000e+00
      outer loop
         vertex 2.881580e+00 7.495994e+01 4.800000e+01
         vertex 4.782147e+00 7.472917e+01 4.010000e+01
         vertex 4.782147e+00 7.472917e+01 4.800000e+01
      endloop
   endfacet
   facet normal 3.546051e-01 -9.350161e-01 0.000000e+00
      outer loop
         vertex 4.782147e+00 7.472917e+01 4.800000e+01
         vertex 4.782147e+00 7.472917e+01 4.010000e+01
         vertex 6.572259e+00 7.540807e+01 4.010000e+01
      endloop
   endfacet
   facet normal 3.546051e-01 -9.350161e-01 0.000000e+00
      outer loop
         vertex 4.782147e+00 7.472917e+01 4.800000e+01
         vertex 6.572259e+00 7.540807e+01 4.010000e+01
         vertex 6.572259e+00 7.540807e+01 4.800000e+01
      endloop
   endfacet
   facet normal 7.485107e-01 -6.631227e-01 0.000000e+00
      outer loop
         vertex 6.572259e+00 7.540807e+01 4.800000e+01
         vertex 6.572259e+00 7.540807e+01 4.010000e+01
         vertex 7.841825e+00 7.684111e+01 4.010000e+01
      endloop
   endfacet
   facet normal 7.485107e-01 -6.631227e-01 0.000000e+00
      outer loop
         vertex 6.572259e+00 7.540807e+01 4.800000e+01
         vertex 7.841825e+00 7.684111e+01 4.010000e+01
         vertex 7.841825e+00 7.684111e+01 4.800000e+01
      endloop
   endfacet
   facet normal 9.709419e-01 -2.393155e-01 0.000000e+00
      outer loop
         vertex 7.841825e+00 7.684111e+01 4.800000e+01
         vertex 7.841825e+00 7.684111e+01 4.010000e+01
         vertex 8.300000e+00 7.870000e+01 4.010000e+01
      endloop
   endfacet
   facet normal 9.709419e-01 -2.393155e-01 0.000000e+00
      outer loop
         vertex 7.841825e+00 7.684111e+01 4.800000e+01
         vertex 8.300000e+00 7.870000e+01 4.010000e+01
         vertex 8.300000e+00 7.870000e+01 4.800000e+01
      endloop
   endfacet
   facet normal 9.709419e-01 2.393155e-01 0.000000e+00
      outer loop
         vertex 8.300000e+00 7.870000e+01 4.800000e+01
         vertex 8.300000e+00 7.870000e+01 4.010000e+01
         vertex 7.841825e+00 8.055889e+01 4.010000e+01
      endloop
   endfacet
   facet normal 9.709419e-01 2.393155e-01 0.000000e+00
      outer loop
         vertex 8.300000e+00 7.870000e+01 4.800000e+01
         vertex 7.841825e+00 8.055889e+01 4.010000e+01
         vertex 7.841825e+00 8.055889e+01 4.800000e+01
      endloop
   endfacet
   facet normal 7.485111e-01 6.631223e-01 0.000000e+00
      outer loop
         vertex 7.841825e+00 8.055889e+01 4.800000e+01
         vertex 7.841825e+00 8.055889e+01 4.010000e+01
         vertex 6.572259e+00 8.199194e+01 4.010000e+01
      endloop
   endfacet
   facet normal 7.485111e-01 6.631223e-01 0.000000e+00
      outer loop
         vertex 7.841825e+00 8.055889e+01 4.800000e+01
         vertex 6.572259e+00 8.199194e+01 4.010000e+01
         vertex 6.572259e+00 8.199194e+01 4.800000e+01
      endloop
   endfacet
   facet normal 3.546051e-01 9.350161e-01 0.000000e+00
      outer loop
         vertex 6.572259e+00 8.199194e+01 4.800000e+01
         vertex 6.572259e+00 8.199194e+01 4.010000e+01
         vertex 4.782147e+00 8.267084e+01 4.010000e+01
      endloop
   endfacet
   facet normal 3.546051e-01 9.350161e-01 0.000000e+00
      outer loop
         vertex 6.572259e+00 8.199194e+01 4.800000e+01
         vertex 4.782147e+00 8.267084e+01 4.010000e+01
         vertex 4.782147e+00 8.267084e+01 4.800000e+01
      endloop
   endfacet
   facet normal 6.037246e-02 9.981759e-01 0.000000e+00
      outer loop
         vertex 4.782147e+00 8.267084e+01 4.800000e+01
         vertex 4.782147e+00 8.267084e+01 4.010000e+01
         vertex 4.300000e+00 8.270000e+01 4.010000e+01
      endloop
   endfacet
   facet normal -1.205294e-01 9.926486e-01 1.102026e-02
      outer loop
         vertex 4.782147e+00 8.267084e+01 4.800000e+01
         vertex 4.300000e+00 8.270000e+01 4.010000e+01
         vertex 2.881580e+00 8.244007e+01 4.800000e+01
      endloop
   endfacet
   facet normal 0.000000e+00 0.000000e+00 1.000000e+00
      outer loop
         vertex 8.300000e+00 7.870000e+01 4.800000e+01
         vertex 7.841825e+00 8.055889e+01 4.800000e+01
         vertex 4.300000e+00 7.870000e+01 4.800000e+01
      endloop
   endfacet
   facet normal 0.000000e+00 -0.000000e+00 1.000000e+00
      outer loop
         vertex 4.782147e+00 7.472917e+01 4.800000e+01
         vertex 6.572259e+00 7.540807e+01 4.800000e+01
         vertex 4.300000e+00 7.870000e+01 4.800000e+01
      endloop
   endfacet
   facet normal 0.000000e+00 0.000000e+00 1.000000e+00
      outer loop
         vertex 4.300000e+00 7.870000e+01 4.800000e+01
         vertex 6.572259e+00 7.540807e+01 4.800000e+01
         vertex 7.841825e+00 7.684111e+01 4.800000e+01
      endloop
   endfacet
   facet normal -0.000000e+00 0.000000e+00 1.000000e+00
      outer loop
         vertex 4.300000e+00 7.870000e+01 4.800000e+01
         vertex 7.841825e+00 7.684111e+01 4.800000e+01
         vertex 8.300000e+00 7.870000e+01 4.800000e+01
      endloop
   endfacet
   facet normal -0.000000e+00 0.000000e+00 1.000000e+00
      outer loop
         vertex 4.162327e-01 7.774274e+01 4.800000e+01
         vertex 1.305957e+00 7.604751e+01 4.800000e+01
         vertex 4.300000e+00 7.870000e+01 4.800000e+01
      endloop
   endfacet
   facet normal 0.000000e+00 0.000000e+00 1.000000e+00
      outer loop
         vertex 4.300000e+00 7.870000e+01 4.800000e+01
         vertex 1.305957e+00 7.604751e+01 4.800000e+01
         vertex 2.881580e+00 7.495994e+01 4.800000e+01
      endloop
   endfacet
   facet normal 0.000000e+00 0.000000e+00 1.000000e+00
      outer loop
         vertex 4.300000e+00 7.870000e+01 4.800000e+01
         vertex 2.881580e+00 7.495994e+01 4.800000e+01
         vertex 4.782147e+00 7.472917e+01 4.800000e+01
      endloop
   endfacet
   facet normal 0.000000e+00 0.000000e+00 1.000000e+00
      outer loop
         vertex 2.881580e+00 8.244007e+01 4.800000e+01
         vertex 1.305957e+00 8.135249e+01 4.800000e+01
         vertex 4.300000e+00 7.870000e+01 4.800000e+01
      endloop
   endfacet
   facet normal 0.000000e+00 0.000000e+00 1.000000e+00
      outer loop
         vertex 4.300000e+00 7.870000e+01 4.800000e+01
         vertex 1.305957e+00 8.135249e+01 4.800000e+01
         vertex 4.162327e-01 7.965726e+01 4.800000e+01
      endloop
   endfacet
   facet normal 0.000000e+00 0.000000e+00 1.000000e+00
      outer loop
         vertex 4.300000e+00 7.870000e+01 4.800000e+01
         vertex 4.162327e-01 7.965726e+01 4.800000e+01
         vertex 4.162327e-01 7.774274e+01 4.800000e+01
      endloop
   endfacet
   facet normal 0.000000e+00 0.000000e+00 1.000000e+00
      outer loop
         vertex 7.841825e+00 8.055889e+01 4.800000e+01
         vertex 6.572259e+00 8.199194e+01 4.800000e+01
         vertex 4.300000e+00 7.870000e+01 4.800000e+01
      endloop
   endfacet
   facet normal 0.000000e+00 0.000000e+00 1.000000e+00
      outer loop
         vertex 4.300000e+00 7.870000e+01 4.800000e+01
         vertex 6.572259e+00 8.199194e+01 4.800000e+01
         vertex 4.782147e+00 8.267084e+01 4.800000e+01
      endloop
   endfacet
   facet normal 0.000000e+00 -0.000000e+00 1.000000e+00
      outer loop
         vertex 4.300000e+00 7.870000e+01 4.800000e+01
         vertex 4.782147e+00 8.267084e+01 4.800000e+01
         vertex 2.881580e+00 8.244007e+01 4.800000e+01
      endloop
   endfacet
   facet normal 0.000000e+00 0.000000e+00 1.000000e+00
      outer loop
         vertex 2.881580e+00 7.495994e+01 1.600000e+01
         vertex 0.000000e+00 0.000000e+00 1.600000e+01
         vertex 4.782147e+00 7.472917e+01 1.600000e+01
      endloop
   endfacet
   facet normal 0.000000e+00 0.000000e+00 1.000000e+00
      outer loop
         vertex 4.782147e+00 7.472917e+01 1.600000e+01
         vertex 0.000000e+00 0.000000e+00 1.600000e+01
         vertex 9.200000e+00 0.000000e+00 1.600000e+01
      endloop
   endfacet
   facet normal -0.000000e+00 0.000000e+00 1.000000e+00
      outer loop
         vertex 4.782147e+00 7.472917e+01 1.600000e+01
         vertex 9.200000e+00 0.000000e+00 1.600000e+01
         vertex 6.572259e+00 7.540807e+01 1.600000e+01
      endloop
   endfacet
   facet normal 0.000000e+00 0.000000e+00 1.000000e+00
      outer loop
         vertex 2.881580e+00 7.495994e+01 1.600000e+01
         vertex 1.305957e+00 7.604751e+01 1.600000e+01
         vertex 0.000000e+00 0.000000e+00 1.600000e+01
      endloop
   endfacet
   facet normal 0.000000e+00 0.000000e+00 1.000000e+00
      outer loop
         vertex 0.000000e+00 0.000000e+00 1.600000e+01
         vertex 1.305957e+00 7.604751e+01 1.600000e+01
         vertex 4.162327e-01 7.774274e+01 1.600000e+01
      endloop
   endfacet
   facet normal 0.000000e+00 0.000000e+00 1.000000e+00
      outer loop
         vertex 0.000000e+00 0.000000e+00 1.600000e+01
         vertex 4.162327e-01 7.774274e+01 1.600000e+01
         vertex 0.000000e+00 9.570000e+01 1.600000e+01
      endloop
   endfacet
   facet normal 0.000000e+00 0.000000e+00 1.000000e+00
      outer loop
         vertex 0.000000e+00 9.570000e+01 1.600000e+01
         vertex 4.162327e-01 7.774274e+01 1.600000e+01
         vertex 4.162327e-01 7.965726e+01 1.600000e+01
      endloop
   endfacet
   facet normal 0.000000e+00 0.000000e+00 1.000000e+00
      outer loop
         vertex 0.000000e+00 9.570000e+01 1.600000e+01
         vertex 4.162327e-01 7.965726e+01 1.600000e+01
         vertex 1.305957e+00 8.135249e+01 1.600000e+01
      endloop
   endfacet
   facet normal -0.000000e+00 0.000000e+00 1.000000e+00
      outer loop
         vertex 6.572259e+00 8.199194e+01 1.600000e+01
         vertex 7.841825e+00 8.055889e+01 1.600000e+01
         vertex 9.200000e+00 9.570000e+01 1.600000e+01
      endloop
   endfacet
   facet normal 0.000000e+00 0.000000e+00 1.000000e+00
      outer loop
         vertex 9.200000e+00 9.570000e+01 1.600000e+01
         vertex 7.841825e+00 8.055889e+01 1.600000e+01
         vertex 8.300000e+00 7.870000e+01 1.600000e+01
      endloop
   endfacet
   facet normal 0.000000e+00 0.000000e+00 1.000000e+00
      outer loop
         vertex 9.200000e+00 9.570000e+01 1.600000e+01
         vertex 8.300000e+00 7.870000e+01 1.600000e+01
         vertex 9.200000e+00 0.000000e+00 1.600000e+01
      endloop
   endfacet
   facet normal 0.000000e+00 0.000000e+00 1.000000e+00
      outer loop
         vertex 9.200000e+00 0.000000e+00 1.600000e+01
         vertex 8.300000e+00 7.870000e+01 1.600000e+01
         vertex 7.841825e+00 7.684111e+01 1.600000e+01
      endloop
   endfacet
   facet normal 0.000000e+00 0.000000e+00 1.000000e+00
      outer loop
         vertex 9.200000e+00 0.000000e+00 1.600000e+01
         vertex 7.841825e+00 7.684111e+01 1.600000e+01
         vertex 6.572259e+00 7.540807e+01 1.600000e+01
      endloop
   endfacet
   facet normal 0.000000e+00 -0.000000e+00 1.000000e+00
      outer loop
         vertex 1.305957e+00 8.135249e+01 1.600000e+01
         vertex 2.881580e+00 8.244007e+01 1.600000e+01
         vertex 0.000000e+00 9.570000e+01 1.600000e+01
      endloop
   endfacet
   facet normal 0.000000e+00 0.000000e+00 1.000000e+00
      outer loop
         vertex 0.000000e+00 9.570000e+01 1.600000e+01
         vertex 2.881580e+00 8.244007e+01 1.600000e+01
         vertex 4.300000e+00 8.270000e+01 1.600000e+01
      endloop
   endfacet
   facet normal -0.000000e+00 0.000000e+00 1.000000e+00
      outer loop
         vertex 0.000000e+00 9.570000e+01 1.600000e+01
         vertex 4.300000e+00 8.270000e+01 1.600000e+01
         vertex 9.200000e+00 9.570000e+01 1.600000e+01
      endloop
   endfacet
   facet normal 0.000000e+00 0.000000e+00 1.000000e+00
      outer loop
         vertex 9.200000e+00 9.570000e+01 1.600000e+01
         vertex 4.300000e+00 8.270000e+01 1.600000e+01
         vertex 4.782147e+00 8.267084e+01 1.600000e+01
      endloop
   endfacet
   facet normal 0.000000e+00 0.000000e+00 1.000000e+00
      outer loop
         vertex 9.200000e+00 9.570000e+01 1.600000e+01
         vertex 4.782147e+00 8.267084e+01 1.600000e+01
         vertex 6.572259e+00 8.199194e+01 1.600000e+01
      endloop
   endfacet
   facet normal 0.000000e+00 -1.000000e+00 0.000000e+00
      outer loop
         vertex 9.200000e+00 0.000000e+00 8.100000e+00
         vertex 9.200000e+00 0.000000e+00 1.600000e+01
         vertex 0.000000e+00 0.000000e+00 8.100000e+00
      endloop
   endfacet
   facet normal 0.000000e+00 -1.000000e+00 0.000000e+00
      outer loop
         vertex 0.000000e+00 0.000000e+00 8.100000e+00
         vertex 9.200000e+00 0.000000e+00 1.600000e+01
         vertex 0.000000e+00 0.000000e+00 1.600000e+01
      endloop
   endfacet
   facet normal 0.000000e+00 0.000000e+00 -1.000000e+00
      outer loop
         vertex 6.572259e+00 8.199194e+01 8.100000e+00
         vertex 4.782147e+00 8.267084e+01 8.100000e+00
         vertex 9.200000e+00 9.570000e+01 8.100000e+00
      endloop
   endfacet
   facet normal -0.000000e+00 0.000000e+00 -1.000000e+00
      outer loop
         vertex 9.200000e+00 9.570000e+01 8.100000e+00
         vertex 4.782147e+00 8.267084e+01 8.100000e+00
         vertex 0.000000e+00 9.570000e+01 8.100000e+00
      endloop
   endfacet
   facet normal 0.000000e+00 0.000000e+00 -1.000000e+00
      outer loop
         vertex 0.000000e+00 9.570000e+01 8.100000e+00
         vertex 4.782147e+00 8.267084e+01 8.100000e+00
         vertex 2.881580e+00 8.244007e+01 8.100000e+00
      endloop
   endfacet
   facet normal 0.000000e+00 0.000000e+00 -1.000000e+00
      outer loop
         vertex 0.000000e+00 9.570000e+01 8.100000e+00
         vertex 2.881580e+00 8.244007e+01 8.100000e+00
         vertex 1.305957e+00 8.135249e+01 8.100000e+00
      endloop
   endfacet
   facet normal -0.000000e+00 0.000000e+00 -1.000000e+00
      outer loop
         vertex 1.305957e+00 8.135249e+01 8.100000e+00
         vertex 4.162327e-01 7.965726e+01 8.100000e+00
         vertex 0.000000e+00 9.570000e+01 8.100000e+00
      endloop
   endfacet
   facet normal 0.000000e+00 0.000000e+00 -1.000000e+00
      outer loop
         vertex 0.000000e+00 9.570000e+01 8.100000e+00
         vertex 4.162327e-01 7.965726e+01 8.100000e+00
         vertex 4.162327e-01 7.774274e+01 8.100000e+00
      endloop
   endfacet
   facet normal 0.000000e+00 0.000000e+00 -1.000000e+00
      outer loop
         vertex 0.000000e+00 9.570000e+01 8.100000e+00
         vertex 4.162327e-01 7.774274e+01 8.100000e+00
         vertex 0.000000e+00 0.000000e+00 8.100000e+00
      endloop
   endfacet
   facet normal 0.000000e+00 0.000000e+00 -1.000000e+00
      outer loop
         vertex 0.000000e+00 0.000000e+00 8.100000e+00
         vertex 4.162327e-01 7.774274e+01 8.100000e+00
         vertex 1.305957e+00 7.604751e+01 8.100000e+00
      endloop
   endfacet
   facet normal 0.000000e+00 0.000000e+00 -1.000000e+00
      outer loop
         vertex 6.572259e+00 7.540807e+01 8.100000e+00
         vertex 7.841825e+00 7.684111e+01 8.100000e+00
         vertex 9.200000e+00 0.000000e+00 8.100000e+00
      endloop
   endfacet
   facet normal 0.000000e+00 0.000000e+00 -1.000000e+00
      outer loop
         vertex 9.200000e+00 0.000000e+00 8.100000e+00
         vertex 7.841825e+00 7.684111e+01 8.100000e+00
         vertex 8.300000e+00 7.870000e+01 8.100000e+00
      endloop
   endfacet
   facet normal 0.000000e+00 0.000000e+00 -1.000000e+00
      outer loop
         vertex 9.200000e+00 0.000000e+00 8.100000e+00
         vertex 8.300000e+00 7.870000e+01 8.100000e+00
         vertex 9.200000e+00 9.570000e+01 8.100000e+00
      endloop
   endfacet
   facet normal 0.000000e+00 0.000000e+00 -1.000000e+00
      outer loop
         vertex 9.200000e+00 9.570000e+01 8.100000e+00
         vertex 8.300000e+00 7.870000e+01 8.100000e+00
         vertex 7.841825e+00 8.055889e+01 8.100000e+00
      endloop
   endfacet
   facet normal 0.000000e+00 0.000000e+00 -1.000000e+00
      outer loop
         vertex 9.200000e+00 9.570000e+01 8.100000e+00
         vertex 7.841825e+00 8.055889e+01 8.100000e+00
         vertex 6.572259e+00 8.199194e+01 8.100000e+00
      endloop
   endfacet
   facet normal 0.000000e+00 -0.000000e+00 -1.000000e+00
      outer loop
         vertex 1.305957e+00 7.604751e+01 8.100000e+00
         vertex 2.881580e+00 7.495994e+01 8.100000e+00
         vertex 0.000000e+00 0.000000e+00 8.100000e+00
      endloop
   endfacet
   facet normal 0.000000e+00 0.000000e+00 -1.000000e+00
      outer loop
         vertex 0.000000e+00 0.000000e+00 8.100000e+00
         vertex 2.881580e+00 7.495994e+01 8.100000e+00
         vertex 4.300000e+00 7.470000e+01 8.100000e+00
      endloop
   endfacet
   facet normal 0.000000e+00 0.000000e+00 -1.000000e+00
      outer loop
         vertex 0.000000e+00 0.000000e+00 8.100000e+00
         vertex 4.300000e+00 7.470000e+01 8.100000e+00
         vertex 9.200000e+00 0.000000e+00 8.100000e+00
      endloop
   endfacet
   facet normal 0.000000e+00 0.000000e+00 -1.000000e+00
      outer loop
         vertex 9.200000e+00 0.000000e+00 8.100000e+00
         vertex 4.300000e+00 7.470000e+01 8.100000e+00
         vertex 4.782147e+00 7.472917e+01 8.100000e+00
      endloop
   endfacet
   facet normal 0.000000e+00 0.000000e+00 -1.000000e+00
      outer loop
         vertex 9.200000e+00 0.000000e+00 8.100000e+00
         vertex 4.782147e+00 7.472917e+01 8.100000e+00
         vertex 6.572259e+00 7.540807e+01 8.100000e+00
      endloop
   endfacet
   facet normal 0.000000e+00 1.000000e+00 0.000000e+00
      outer loop
         vertex 9.200000e+00 9.570000e+01 1.600000e+01
         vertex 9.200000e+00 9.570000e+01 8.100000e+00
         vertex 0.000000e+00 9.570000e+01 1.600000e+01
      endloop
   endfacet
   facet normal 0.000000e+00 1.000000e+00 0.000000e+00
      outer loop
         vertex 0.000000e+00 9.570000e+01 1.600000e+01
         vertex 9.200000e+00 9.570000e+01 8.100000e+00
         vertex 0.000000e+00 9.570000e+01 8.100000e+00
      endloop
   endfacet
   facet normal 1.000000e+00 0.000000e+00 0.000000e+00
      outer loop
         vertex 9.200000e+00 0.000000e+00 8.100000e+00
         vertex 9.200000e+00 9.570000e+01 8.100000e+00
         vertex 9.200000e+00 0.000000e+00 1.600000e+01
      endloop
   endfacet
   facet normal 1.000000e+00 -0.000000e+00 0.000000e+00
      outer loop
         vertex 9.200000e+00 0.000000e+00 1.600000e+01
         vertex 9.200000e+00 9.570000e+01 8.100000e+00
         vertex 9.200000e+00 9.570000e+01 1.600000e+01
      endloop
   endfacet
   facet normal -1.000000e+00 0.000000e+00 0.000000e+00
      outer loop
         vertex 0.000000e+00 9.570000e+01 8.100000e+00
         vertex 0.000000e+00 0.000000e+00 8.100000e+00
         vertex 0.000000e+00 9.570000e+01 1.600000e+01
      endloop
   endfacet
   facet normal -1.000000e+00 -0.000000e+00 0.000000e+00
      outer loop
         vertex 0.000000e+00 9.570000e+01 1.600000e+01
         vertex 0.000000e+00 0.000000e+00 8.100000e+00
         vertex 0.000000e+00 0.000000e+00 1.600000e+01
      endloop
   endfacet
   facet normal -0.000000e+00 0.000000e+00 -1.000000e+00
      outer loop
         vertex 8.300000e+00 7.870000e+01 0.000000e+00
         vertex 7.841825e+00 7.684111e+01 0.000000e+00
         vertex 4.300000e+00 7.870000e+01 0.000000e+00
      endloop
   endfacet
   facet normal 0.000000e+00 -0.000000e+00 -1.000000e+00
      outer loop
         vertex 4.782147e+00 8.267084e+01 0.000000e+00
         vertex 6.572259e+00 8.199194e+01 0.000000e+00
         vertex 4.300000e+00 7.870000e+01 0.000000e+00
      endloop
   endfacet
   facet normal 0.000000e+00 0.000000e+00 -1.000000e+00
      outer loop
         vertex 4.300000e+00 7.870000e+01 0.000000e+00
         vertex 6.572259e+00 8.199194e+01 0.000000e+00
         vertex 7.841825e+00 8.055889e+01 0.000000e+00
      endloop
   endfacet
   facet normal 0.000000e+00 0.000000e+00 -1.000000e+00
      outer loop
         vertex 4.300000e+00 7.870000e+01 0.000000e+00
         vertex 7.841825e+00 8.055889e+01 0.000000e+00
         vertex 8.300000e+00 7.870000e+01 0.000000e+00
      endloop
   endfacet
   facet normal 0.000000e+00 0.000000e+00 -1.000000e+00
      outer loop
         vertex 4.162327e-01 7.965726e+01 0.000000e+00
         vertex 1.305957e+00 8.135249e+01 0.000000e+00
         vertex 4.300000e+00 7.870000e+01 0.000000e+00
      endloop
   endfacet
   facet normal 0.000000e+00 0.000000e+00 -1.000000e+00
      outer loop
         vertex 4.300000e+00 7.870000e+01 0.000000e+00
         vertex 1.305957e+00 8.135249e+01 0.000000e+00
         vertex 2.881580e+00 8.244007e+01 0.000000e+00
      endloop
   endfacet
   facet normal 0.000000e+00 0.000000e+00 -1.000000e+00
      outer loop
         vertex 4.300000e+00 7.870000e+01 0.000000e+00
         vertex 2.881580e+00 8.244007e+01 0.000000e+00
         vertex 4.782147e+00 8.267084e+01 0.000000e+00
      endloop
   endfacet
   facet normal 0.000000e+00 0.000000e+00 -1.000000e+00
      outer loop
         vertex 2.881580e+00 7.495994e+01 0.000000e+00
         vertex 1.305957e+00 7.604751e+01 0.000000e+00
         vertex 4.300000e+00 7.870000e+01 0.000000e+00
      endloop
   endfacet
   facet normal 0.000000e+00 0.000000e+00 -1.000000e+00
      outer loop
         vertex 4.300000e+00 7.870000e+01 0.000000e+00
         vertex 1.305957e+00 7.604751e+01 0.000000e+00
         vertex 4.162327e-01 7.774274e+01 0.000000e+00
      endloop
   endfacet
   facet normal -0.000000e+00 0.000000e+00 -1.000000e+00
      outer loop
         vertex 4.300000e+00 7.870000e+01 0.000000e+00
         vertex 4.162327e-01 7.774274e+01 0.000000e+00
         vertex 4.162327e-01 7.965726e+01 0.000000e+00
      endloop
   endfacet
   facet normal -0.000000e+00 0.000000e+00 -1.000000e+00
      outer loop
         vertex 7.841825e+00 7.684111e+01 0.000000e+00
         vertex 6.572259e+00 7.540807e+01 0.000000e+00
         vertex 4.300000e+00 7.870000e+01 0.000000e+00
      endloop
   endfacet
   facet normal 0.000000e+00 0.000000e+00 -1.000000e+00
      outer loop
         vertex 4.300000e+00 7.870000e+01 0.000000e+00
         vertex 6.572259e+00 7.540807e+01 0.000000e+00
         vertex 4.782147e+00 7.472917e+01 0.000000e+00
      endloop
   endfacet
   facet normal 0.000000e+00 -0.000000e+00 -1.000000e+00
      outer loop
         vertex 4.300000e+00 7.870000e+01 0.000000e+00
         vertex 4.782147e+00 7.472917e+01 0.000000e+00
         vertex 2.881580e+00 7.495994e+01 0.000000e+00
      endloop
   endfacet
   facet normal -1.802556e-01 -9.836198e-01 0.000000e+00
      outer loop
         vertex 4.300000e+00 7.470000e+01 8.100000e+00
         vertex 2.881580e+00 7.495994e+01 8.100000e+00
         vertex 2.881580e+00 7.495994e+01 0.000000e+00
      endloop
   endfacet
   facet normal -5.680647e-01 -8.229839e-01 0.000000e+00
      outer loop
         vertex 2.881580e+00 7.495994e+01 0.000000e+00
         vertex 2.881580e+00 7.495994e+01 8.100000e+00
         vertex 1.305957e+00 7.604751e+01 8.100000e+00
      endloop
   endfacet
   facet normal -5.680647e-01 -8.229839e-01 0.000000e+00
      outer loop
         vertex 2.881580e+00 7.495994e+01 0.000000e+00
         vertex 1.305957e+00 7.604751e+01 8.100000e+00
         vertex 1.305957e+00 7.604751e+01 0.000000e+00
      endloop
   endfacet
   facet normal -8.854559e-01 -4.647234e-01 0.000000e+00
      outer loop
         vertex 1.305957e+00 7.604751e+01 0.000000e+00
         vertex 1.305957e+00 7.604751e+01 8.100000e+00
         vertex 4.162327e-01 7.774274e+01 8.100000e+00
      endloop
   endfacet
   facet normal -8.854559e-01 -4.647234e-01 0.000000e+00
      outer loop
         vertex 1.305957e+00 7.604751e+01 0.000000e+00
         vertex 4.162327e-01 7.774274e+01 8.100000e+00
         vertex 4.162327e-01 7.774274e+01 0.000000e+00
      endloop
   endfacet
   facet normal -1.000000e+00 0.000000e+00 0.000000e+00
      outer loop
         vertex 4.162327e-01 7.774274e+01 0.000000e+00
         vertex 4.162327e-01 7.774274e+01 8.100000e+00
         vertex 4.162327e-01 7.965726e+01 8.100000e+00
      endloop
   endfacet
   facet normal -1.000000e+00 0.000000e+00 0.000000e+00
      outer loop
         vertex 4.162327e-01 7.774274e+01 0.000000e+00
         vertex 4.162327e-01 7.965726e+01 8.100000e+00
         vertex 4.162327e-01 7.965726e+01 0.000000e+00
      endloop
   endfacet
   facet normal -8.854561e-01 4.647230e-01 0.000000e+00
      outer loop
         vertex 4.162327e-01 7.965726e+01 0.000000e+00
         vertex 4.162327e-01 7.965726e+01 8.100000e+00
         vertex 1.305957e+00 8.135249e+01 8.100000e+00
      endloop
   endfacet
   facet normal -8.854561e-01 4.647230e-01 0.000000e+00
      outer loop
         vertex 4.162327e-01 7.965726e+01 0.000000e+00
         vertex 1.305957e+00 8.135249e+01 8.100000e+00
         vertex 1.305957e+00 8.135249e+01 0.000000e+00
      endloop
   endfacet
   facet normal -5.680654e-01 8.229834e-01 0.000000e+00
      outer loop
         vertex 1.305957e+00 8.135249e+01 0.000000e+00
         vertex 1.305957e+00 8.135249e+01 8.100000e+00
         vertex 2.881580e+00 8.244007e+01 8.100000e+00
      endloop
   endfacet
   facet normal -5.680654e-01 8.229834e-01 0.000000e+00
      outer loop
         vertex 1.305957e+00 8.135249e+01 0.000000e+00
         vertex 2.881580e+00 8.244007e+01 8.100000e+00
         vertex 2.881580e+00 8.244007e+01 0.000000e+00
      endloop
   endfacet
   facet normal -1.205367e-01 9.927089e-01 0.000000e+00
      outer loop
         vertex 2.881580e+00 8.244007e+01 0.000000e+00
         vertex 2.881580e+00 8.244007e+01 8.100000e+00
         vertex 4.782147e+00 8.267084e+01 8.100000e+00
      endloop
   endfacet
   facet normal -1.205367e-01 9.927089e-01 0.000000e+00
      outer loop
         vertex 2.881580e+00 8.244007e+01 0.000000e+00
         vertex 4.782147e+00 8.267084e+01 8.100000e+00
         vertex 4.782147e+00 8.267084e+01 0.000000e+00
      endloop
   endfacet
   facet normal 3.546051e-01 9.350161e-01 -0.000000e+00
      outer loop
         vertex 4.782147e+00 8.267084e+01 0.000000e+00
         vertex 4.782147e+00 8.267084e+01 8.100000e+00
         vertex 6.572259e+00 8.199194e+01 8.100000e+00
      endloop
   endfacet
   facet normal 3.546051e-01 9.350161e-01 0.000000e+00
      outer loop
         vertex 4.782147e+00 8.267084e+01 0.000000e+00
         vertex 6.572259e+00 8.199194e+01 8.100000e+00
         vertex 6.572259e+00 8.199194e+01 0.000000e+00
      endloop
   endfacet
   facet normal 7.485111e-01 6.631223e-01 -0.000000e+00
      outer loop
         vertex 6.572259e+00 8.199194e+01 0.000000e+00
         vertex 6.572259e+00 8.199194e+01 8.100000e+00
         vertex 7.841825e+00 8.055889e+01 8.100000e+00
      endloop
   endfacet
   facet normal 7.485111e-01 6.631223e-01 0.000000e+00
      outer loop
         vertex 6.572259e+00 8.199194e+01 0.000000e+00
         vertex 7.841825e+00 8.055889e+01 8.100000e+00
         vertex 7.841825e+00 8.055889e+01 0.000000e+00
      endloop
   endfacet
   facet normal 9.709419e-01 2.393155e-01 -0.000000e+00
      outer loop
         vertex 7.841825e+00 8.055889e+01 0.000000e+00
         vertex 7.841825e+00 8.055889e+01 8.100000e+00
         vertex 8.300000e+00 7.870000e+01 8.100000e+00
      endloop
   endfacet
   facet normal 9.709419e-01 2.393155e-01 0.000000e+00
      outer loop
         vertex 7.841825e+00 8.055889e+01 0.000000e+00
         vertex 8.300000e+00 7.870000e+01 8.100000e+00
         vertex 8.300000e+00 7.870000e+01 0.000000e+00
      endloop
   endfacet
   facet normal 9.709419e-01 -2.393155e-01 0.000000e+00
      outer loop
         vertex 8.300000e+00 7.870000e+01 0.000000e+00
         vertex 8.300000e+00 7.870000e+01 8.100000e+00
         vertex 7.841825e+00 7.684111e+01 8.100000e+00
      endloop
   endfacet
   facet normal 9.709419e-01 -2.393155e-01 0.000000e+00
      outer loop
         vertex 8.300000e+00 7.870000e+01 0.000000e+00
         vertex 7.841825e+00 7.684111e+01 8.100000e+00
         vertex 7.841825e+00 7.684111e+01 0.000000e+00
      endloop
   endfacet
   facet normal 7.485107e-01 -6.631227e-01 0.000000e+00
      outer loop
         vertex 7.841825e+00 7.684111e+01 0.000000e+00
         vertex 7.841825e+00 7.684111e+01 8.100000e+00
         vertex 6.572259e+00 7.540807e+01 8.100000e+00
      endloop
   endfacet
   facet normal 7.485107e-01 -6.631227e-01 0.000000e+00
      outer loop
         vertex 7.841825e+00 7.684111e+01 0.000000e+00
         vertex 6.572259e+00 7.540807e+01 8.100000e+00
         vertex 6.572259e+00 7.540807e+01 0.000000e+00
      endloop
   endfacet
   facet normal 3.546051e-01 -9.350161e-01 0.000000e+00
      outer loop
         vertex 6.572259e+00 7.540807e+01 0.000000e+00
         vertex 6.572259e+00 7.540807e+01 8.100000e+00
         vertex 4.782147e+00 7.472917e+01 8.100000e+00
      endloop
   endfacet
   facet normal 3.546051e-01 -9.350161e-01 0.000000e+00
      outer loop
         vertex 6.572259e+00 7.540807e+01 0.000000e+00
         vertex 4.782147e+00 7.472917e+01 8.100000e+00
         vertex 4.782147e+00 7.472917e+01 0.000000e+00
      endloop
   endfacet
   facet normal 6.038015e-02 -9.981755e-01 0.000000e+00
      outer loop
         vertex 4.782147e+00 7.472917e+01 0.000000e+00
         vertex 4.782147e+00 7.472917e+01 8.100000e+00
         vertex 4.300000e+00 7.470000e+01 8.100000e+00
      endloop
   endfacet
   facet normal -1.205297e-01 -9.926515e-01 -1.074864e-02
      outer loop
         vertex 4.782147e+00 7.472917e+01 0.000000e+00
         vertex 4.300000e+00 7.470000e+01 8.100000e+00
         vertex 2.881580e+00 7.495994e+01 0.000000e+00
      endloop
   endfacet
endsolid