solid lego_support
   facet normal 6.037569e-02 9.981757e-01 0.000000e+00
      outer loop
         vertex 4.758039e+00 8.247229e+01 1.600000e+01
         vertex 4.300000e+00 8.250000e+01 1.600000e+01
         vertex 4.300000e+00 8.250000e+01 3.220000e+01
      endloop
   endfacet
   facet normal -1.802550e-01 9.836199e-01 0.000000e+00
      outer loop
         vertex 4.300000e+00 8.250000e+01 3.220000e+01
         vertex 4.300000e+00 8.250000e+01 1.600000e+01
         vertex 2.952501e+00 8.225306e+01 3.220000e+01
      endloop
   endfacet
   facet normal -1.802550e-01 9.836199e-01 0.000000e+00
      outer loop
         vertex 4.300000e+00 8.250000e+01 1.600000e+01
         vertex 2.952501e+00 8.225306e+01 1.600000e+01
         vertex 2.952501e+00 8.225306e+01 3.220000e+01
      endloop
   endfacet
   facet normal -5.680643e-01 8.229842e-01 0.000000e+00
      outer loop
         vertex 2.952501e+00 8.225306e+01 3.220000e+01
         vertex 2.952501e+00 8.225306e+01 1.600000e+01
         vertex 1.455659e+00 8.121987e+01 1.600000e+01
      endloop
   endfacet
   facet normal -5.680643e-01 8.229842e-01 0.000000e+00
      outer loop
         vertex 2.952501e+00 8.225306e+01 3.220000e+01
         vertex 1.455659e+00 8.121987e+01 1.600000e+01
         vertex 1.455659e+00 8.121987e+01 3.220000e+01
      endloop
   endfacet
   facet normal -8.854561e-01 4.647230e-01 0.000000e+00
      outer loop
         vertex 1.455659e+00 8.121987e+01 3.220000e+01
         vertex 1.455659e+00 8.121987e+01 1.600000e+01
         vertex 6.104211e-01 7.960940e+01 1.600000e+01
      endloop
   endfacet
   facet normal -8.854561e-01 4.647230e-01 0.000000e+00
      outer loop
         vertex 1.455659e+00 8.121987e+01 3.220000e+01
         vertex 6.104211e-01 7.960940e+01 1.600000e+01
         vertex 6.104211e-01 7.960940e+01 3.220000e+01
      endloop
   endfacet
   facet normal -1.000000e+00 0.000000e+00 -0.000000e+00
      outer loop
         vertex 6.104211e-01 7.960940e+01 3.220000e+01
         vertex 6.104211e-01 7.960940e+01 1.600000e+01
         vertex 6.104211e-01 7.779060e+01 1.600000e+01
      endloop
   endfacet
   facet normal -1.000000e+00 -0.000000e+00 0.000000e+00
      outer loop
         vertex 6.104211e-01 7.960940e+01 3.220000e+01
         vertex 6.104211e-01 7.779060e+01 1.600000e+01
         vertex 6.104211e-01 7.779060e+01 3.220000e+01
      endloop
   endfacet
   facet normal -8.854561e-01 -4.647230e-01 -0.000000e+00
      outer loop
         vertex 6.104211e-01 7.779060e+01 3.220000e+01
         vertex 6.104211e-01 7.779060e+01 1.600000e+01
         vertex 1.455659e+00 7.618013e+01 1.600000e+01
      endloop
   endfacet
   facet normal -8.854561e-01 -4.647230e-01 0.000000e+00
      outer loop
         vertex 6.104211e-01 7.779060e+01 3.220000e+01
         vertex 1.455659e+00 7.618013e+01 1.600000e+01
         vertex 1.455659e+00 7.618013e+01 3.220000e+01
      endloop
   endfacet
   facet normal -5.680650e-01 -8.229837e-01 -0.000000e+00
      outer loop
         vertex 1.455659e+00 7.618013e+01 3.220000e+01
         vertex 1.455659e+00 7.618013e+01 1.600000e+01
         vertex 2.952501e+00 7.514694e+01 1.600000e+01
      endloop
   endfacet
   facet normal -5.680650e-01 -8.229837e-01 0.000000e+00
      outer loop
         vertex 1.455659e+00 7.618013e+01 3.220000e+01
         vertex 2.952501e+00 7.514694e+01 1.600000e+01
         vertex 2.952501e+00 7.514694e+01 3.220000e+01
      endloop
   endfacet
   facet normal -1.205364e-01 -9.927089e-01 -0.000000e+00
      outer loop
         vertex 2.952501e+00 7.514694e+01 3.220000e+01
         vertex 2.952501e+00 7.514694e+01 1.600000e+01
         vertex 4.758039e+00 7.492771e+01 1.600000e+01
      endloop
   endfacet
   facet normal -1.205364e-01 -9.927089e-01 0.000000e+00
      outer loop
         vertex 2.952501e+00 7.514694e+01 3.220000e+01
         vertex 4.758039e+00 7.492771e+01 1.600000e+01
         vertex 4.758039e+00 7.492771e+01 3.220000e+01
      endloop
   endfacet
   facet normal 3.546052e-01 -9.350161e-01 0.000000e+00
      outer loop
         vertex 4.758039e+00 7.492771e+01 3.220000e+01
         vertex 4.758039e+00 7.492771e+01 1.600000e+01
         vertex 6.458646e+00 7.557266e+01 1.600000e+01
      endloop
   endfacet
   facet normal 3.546052e-01 -9.350161e-01 0.000000e+00
      outer loop
         vertex 4.758039e+00 7.492771e+01 3.220000e+01
         vertex 6.458646e+00 7.557266e+01 1.600000e+01
         vertex 6.458646e+00 7.557266e+01 3.220000e+01
      endloop
   endfacet
   facet normal 7.485107e-01 -6.631227e-01 0.000000e+00
      outer loop
         vertex 6.458646e+00 7.557266e+01 3.220000e+01
         vertex 6.458646e+00 7.557266e+01 1.600000e+01
         vertex 7.664733e+00 7.693405e+01 1.600000e+01
      endloop
   endfacet
   facet normal 7.485107e-01 -6.631227e-01 0.000000e+00
      outer loop
         vertex 6.458646e+00 7.557266e+01 3.220000e+01
         vertex 7.664733e+00 7.693405e+01 1.600000e+01
         vertex 7.664733e+00 7.693405e+01 3.220000e+01
      endloop
   endfacet
   facet normal 9.709418e-01 -2.393157e-01 0.000000e+00
      outer loop
         vertex 7.664733e+00 7.693405e+01 3.220000e+01
         vertex 7.664733e+00 7.693405e+01 1.600000e+01
         vertex 8.100000e+00 7.870000e+01 1.600000e+01
      endloop
   endfacet
   facet normal 9.709418e-01 -2.393157e-01 0.000000e+00
      outer loop
         vertex 7.664733e+00 7.693405e+01 3.220000e+01
         vertex 8.100000e+00 7.870000e+01 1.600000e+01
         vertex 8.100000e+00 7.870000e+01 3.220000e+01
      endloop
   endfacet
   facet normal 9.709419e-01 2.393155e-01 0.000000e+00
      outer loop
         vertex 8.100000e+00 7.870000e+01 3.220000e+01
         vertex 8.100000e+00 7.870000e+01 1.600000e+01
         vertex 7.664733e+00 8.046595e+01 1.600000e+01
      endloop
   endfacet
   facet normal 9.709419e-01 2.393155e-01 0.000000e+00
      outer loop
         vertex 8.100000e+00 7.870000e+01 3.220000e+01
         vertex 7.664733e+00 8.046595e+01 1.600000e+01
         vertex 7.664733e+00 8.046595e+01 3.220000e+01
      endloop
   endfacet
   facet normal 7.485103e-01 6.631232e-01 0.000000e+00
      outer loop
         vertex 7.664733e+00 8.046595e+01 3.220000e+01
         vertex 7.664733e+00 8.046595e+01 1.600000e+01
         vertex 6.458646e+00 8.182734e+01 1.600000e+01
      endloop
   endfacet
   facet normal 7.485103e-01 6.631232e-01 0.000000e+00
      outer loop
         vertex 7.664733e+00 8.046595e+01 3.220000e+01
         vertex 6.458646e+00 8.182734e+01 1.600000e+01
         vertex 6.458646e+00 8.182734e+01 3.220000e+01
      endloop
   endfacet
   facet normal 3.546052e-01 9.350161e-01 0.000000e+00
      outer loop
         vertex 6.458646e+00 8.182734e+01 3.220000e+01
         vertex 6.458646e+00 8.182734e+01 1.600000e+01
         vertex 4.758039e+00 8.247229e+01 1.600000e+01
      endloop
   endfacet
   facet normal 3.546052e-01 9.350161e-01 0.000000e+00
      outer loop
         vertex 6.458646e+00 8.182734e+01 3.220000e+01
         vertex 4.758039e+00 8.247229e+01 1.600000e+01
         vertex 4.758039e+00 8.247229e+01 3.220000e+01
      endloop
   endfacet
   facet normal 6.037569e-02 9.981757e-01 0.000000e+00
      outer loop
         vertex 4.758039e+00 8.247229e+01 3.220000e+01
         vertex 4.758039e+00 8.247229e+01 1.600000e+01
         vertex 4.300000e+00 8.250000e+01 3.220000e+01
      endloop
   endfacet
   facet normal 0.000000e+00 1.000000e+00 0.000000e+00
      outer loop
         vertex 9.200000e+00 9.570000e+01 4.010000e+01
         vertex 9.200000e+00 9.570000e+01 3.220000e+01
         vertex 0.000000e+00 9.570000e+01 4.010000e+01
      endloop
   endfacet
   facet normal 0.000000e+00 1.000000e+00 0.000000e+00
      outer loop
         vertex 0.000000e+00 9.570000e+01 4.010000e+01
         vertex 9.200000e+00 9.570000e+01 3.220000e+01
         vertex 0.000000e+00 9.570000e+01 3.220000e+01
      endloop
   endfacet
   facet normal 0.000000e+00 0.000000e+00 1.000000e+00
      outer loop
         vertex 2.952501e+00 7.514694e+01 4.010000e+01
         vertex 0.000000e+00 0.000000e+00 4.010000e+01
         vertex 4.758039e+00 7.492771e+01 4.010000e+01
      endloop
   endfacet
   facet normal 0.000000e+00 0.000000e+00 1.000000e+00
      outer loop
         vertex 4.758039e+00 7.492771e+01 4.010000e+01
         vertex 0.000000e+00 0.000000e+00 4.010000e+01
         vertex 9.200000e+00 0.000000e+00 4.010000e+01
      endloop
   endfacet
   facet normal -0.000000e+00 0.000000e+00 1.000000e+00
      outer loop
         vertex 4.758039e+00 7.492771e+01 4.010000e+01
         vertex 9.200000e+00 0.000000e+00 4.010000e+01
         vertex 6.458646e+00 7.557266e+01 4.010000e+01
      endloop
   endfacet
   facet normal -0.000000e+00 0.000000e+00 1.000000e+00
      outer loop
         vertex 6.458646e+00 8.182734e+01 4.010000e+01
         vertex 7.664733e+00 8.046595e+01 4.010000e+01
         vertex 9.200000e+00 9.570000e+01 4.010000e+01
      endloop
   endfacet
   facet normal 0.000000e+00 0.000000e+00 1.000000e+00
      outer loop
         vertex 9.200000e+00 9.570000e+01 4.010000e+01
         vertex 7.664733e+00 8.046595e+01 4.010000e+01
         vertex 8.100000e+00 7.870000e+01 4.010000e+01
      endloop
   endfacet
   facet normal 0.000000e+00 0.000000e+00 1.000000e+00
      outer loop
         vertex 9.200000e+00 9.570000e+01 4.010000e+01
         vertex 8.100000e+00 7.870000e+01 4.010000e+01
         vertex 9.200000e+00 0.000000e+00 4.010000e+01
      endloop
   endfacet
   facet normal 0.000000e+00 0.000000e+00 1.000000e+00
      outer loop
         vertex 9.200000e+00 0.000000e+00 4.010000e+01
         vertex 8.100000e+00 7.870000e+01 4.010000e+01
         vertex 7.664733e+00 7.693405e+01 4.010000e+01
      endloop
   endfacet
   facet normal 0.000000e+00 0.000000e+00 1.000000e+00
      outer loop
         vertex 9.200000e+00 0.000000e+00 4.010000e+01
         vertex 7.664733e+00 7.693405e+01 4.010000e+01
         vertex 6.458646e+00 7.557266e+01 4.010000e+01
      endloop
   endfacet
   facet normal 0.000000e+00 0.000000e+00 1.000000e+00
      outer loop
         vertex 2.952501e+00 7.514694e+01 4.010000e+01
         vertex 1.455659e+00 7.618013e+01 4.010000e+01
         vertex 0.000000e+00 0.000000e+00 4.010000e+01
      endloop
   endfacet
   facet normal 0.000000e+00 0.000000e+00 1.000000e+00
      outer loop
         vertex 0.000000e+00 0.000000e+00 4.010000e+01
         vertex 1.455659e+00 7.618013e+01 4.010000e+01
         vertex 6.104211e-01 7.779060e+01 4.010000e+01
      endloop
   endfacet
   facet normal 0.000000e+00 0.000000e+00 1.000000e+00
      outer loop
         vertex 0.000000e+00 0.000000e+00 4.010000e+01
         vertex 6.104211e-01 7.779060e+01 4.010000e+01
         vertex 0.000000e+00 9.570000e+01 4.010000e+01
      endloop
   endfacet
   facet normal 0.000000e+00 0.000000e+00 1.000000e+00
      outer loop
         vertex 0.000000e+00 9.570000e+01 4.010000e+01
         vertex 6.104211e-01 7.779060e+01 4.010000e+01
         vertex 6.104211e-01 7.960940e+01 4.010000e+01
      endloop
   endfacet
   facet normal 0.000000e+00 0.000000e+00 1.000000e+00
      outer loop
         vertex 0.000000e+00 9.570000e+01 4.010000e+01
         vertex 6.104211e-01 7.960940e+01 4.010000e+01
         vertex 1.455659e+00 8.121987e+01 4.010000e+01
      endloop
   endfacet
   facet normal 0.000000e+00 -0.000000e+00 1.000000e+00
      outer loop
         vertex 1.455659e+00 8.121987e+01 4.010000e+01
         vertex 2.952501e+00 8.225306e+01 4.010000e+01
         vertex 0.000000e+00 9.570000e+01 4.010000e+01
      endloop
   endfacet
   facet normal 0.000000e+00 0.000000e+00 1.000000e+00
      outer loop
         vertex 0.000000e+00 9.570000e+01 4.010000e+01
         vertex 2.952501e+00 8.225306e+01 4.010000e+01
         vertex 4.300000e+00 8.250000e+01 4.010000e+01
      endloop
   endfacet
   facet normal -0.000000e+00 0.000000e+00 1.000000e+00
      outer loop
         vertex 0.000000e+00 9.570000e+01 4.010000e+01
         vertex 4.300000e+00 8.250000e+01 4.010000e+01
         vertex 9.200000e+00 9.570000e+01 4.010000e+01
      endloop
   endfacet
   facet normal 0.000000e+00 0.000000e+00 1.000000e+00
      outer loop
         vertex 9.200000e+00 9.570000e+01 4.010000e+01
         vertex 4.300000e+00 8.250000e+01 4.010000e+01
         vertex 4.758039e+00 8.247229e+01 4.010000e+01
      endloop
   endfacet
   facet normal 0.000000e+00 0.000000e+00 1.000000e+00
      outer loop
         vertex 9.200000e+00 9.570000e+01 4.010000e+01
         vertex 4.758039e+00 8.247229e+01 4.010000e+01
         vertex 6.458646e+00 8.182734e+01 4.010000e+01
      endloop
   endfacet
   facet normal 0.000000e+00 -1.000000e+00 0.000000e+00
      outer loop
         vertex 9.200000e+00 0.000000e+00 3.220000e+01
         vertex 9.200000e+00 0.000000e+00 4.010000e+01
         vertex 0.000000e+00 0.000000e+00 3.220000e+01
      endloop
   endfacet
   facet normal 0.000000e+00 -1.000000e+00 0.000000e+00
      outer loop
         vertex 0.000000e+00 0.000000e+00 3.220000e+01
         vertex 9.200000e+00 0.000000e+00 4.010000e+01
         vertex 0.000000e+00 0.000000e+00 4.010000e+01
      endloop
   endfacet
   facet normal -0.000000e+00 0.000000e+00 -1.000000e+00
      outer loop
         vertex 2.952501e+00 8.225306e+01 3.220000e+01
         vertex 1.455659e+00 8.121987e+01 3.220000e+01
         vertex 0.000000e+00 9.570000e+01 3.220000e+01
      endloop
   endfacet
   facet normal 0.000000e+00 0.000000e+00 -1.000000e+00
      outer loop
         vertex 0.000000e+00 0.000000e+00 3.220000e+01
         vertex 2.952501e+00 7.514694e+01 3.220000e+01
         vertex 9.200000e+00 0.000000e+00 3.220000e+01
      endloop
   endfacet
   facet normal 0.000000e+00 0.000000e+00 -1.000000e+00
      outer loop
         vertex 9.200000e+00 0.000000e+00 3.220000e+01
         vertex 2.952501e+00 7.514694e+01 3.220000e+01
         vertex 4.758039e+00 7.492771e+01 3.220000e+01
      endloop
   endfacet
   facet normal 0.000000e+00 0.000000e+00 -1.000000e+00
      outer loop
         vertex 9.200000e+00 0.000000e+00 3.220000e+01
         vertex 4.758039e+00 7.492771e+01 3.220000e+01
         vertex 6.458646e+00 7.557266e+01 3.220000e+01
      endloop
   endfacet
   facet normal -0.000000e+00 0.000000e+00 -1.000000e+00
      outer loop
         vertex 1.455659e+00 8.121987e+01 3.220000e+01
         vertex 6.104211e-01 7.960940e+01 3.220000e+01
         vertex 0.000000e+00 9.570000e+01 3.220000e+01
      endloop
   endfacet
   facet normal 0.000000e+00 0.000000e+00 -1.000000e+00
      outer loop
         vertex 0.000000e+00 9.570000e+01 3.220000e+01
         vertex 6.104211e-01 7.960940e+01 3.220000e+01
         vertex 6.104211e-01 7.779060e+01 3.220000e+01
      endloop
   endfacet
   facet normal 0.000000e+00 0.000000e+00 -1.000000e+00
      outer loop
         vertex 0.000000e+00 9.570000e+01 3.220000e+01
         vertex 6.104211e-01 7.779060e+01 3.220000e+01
         vertex 0.000000e+00 0.000000e+00 3.220000e+01
      endloop
   endfacet
   facet normal 0.000000e+00 0.000000e+00 -1.000000e+00
      outer loop
         vertex 0.000000e+00 0.000000e+00 3.220000e+01
         vertex 6.104211e-01 7.779060e+01 3.220000e+01
         vertex 1.455659e+00 7.618013e+01 3.220000e+01
      endloop
   endfacet
   facet normal 0.000000e+00 0.000000e+00 -1.000000e+00
      outer loop
         vertex 0.000000e+00 0.000000e+00 3.220000e+01
         vertex 1.455659e+00 7.618013e+01 3.220000e+01
         vertex 2.952501e+00 7.514694e+01 3.220000e+01
      endloop
   endfacet
   facet normal 0.000000e+00 0.000000e+00 -1.000000e+00
      outer loop
         vertex 6.458646e+00 7.557266e+01 3.220000e+01
         vertex 7.664733e+00 7.693405e+01 3.220000e+01
         vertex 9.200000e+00 0.000000e+00 3.220000e+01
      endloop
   endfacet
   facet normal 0.000000e+00 0.000000e+00 -1.000000e+00
      outer loop
         vertex 9.200000e+00 0.000000e+00 3.220000e+01
         vertex 7.664733e+00 7.693405e+01 3.220000e+01
         vertex 8.100000e+00 7.870000e+01 3.220000e+01
      endloop
   endfacet
   facet normal 0.000000e+00 0.000000e+00 -1.000000e+00
      outer loop
         vertex 9.200000e+00 0.000000e+00 3.220000e+01
         vertex 8.100000e+00 7.870000e+01 3.220000e+01
         vertex 9.200000e+00 9.570000e+01 3.220000e+01
      endloop
   endfacet
   facet normal 0.000000e+00 0.000000e+00 -1.000000e+00
      outer loop
         vertex 9.200000e+00 9.570000e+01 3.220000e+01
         vertex 8.100000e+00 7.870000e+01 3.220000e+01
         vertex 7.664733e+00 8.046595e+01 3.220000e+01
      endloop
   endfacet
   facet normal 0.000000e+00 0.000000e+00 -1.000000e+00
      outer loop
         vertex 7.664733e+00 8.046595e+01 3.220000e+01
         vertex 6.458646e+00 8.182734e+01 3.220000e+01
         vertex 9.200000e+00 9.570000e+01 3.220000e+01
      endloop
   endfacet
   facet normal 0.000000e+00 0.000000e+00 -1.000000e+00
      outer loop
         vertex 9.200000e+00 9.570000e+01 3.220000e+01
         vertex 6.458646e+00 8.182734e+01 3.220000e+01
         vertex 4.758039e+00 8.247229e+01 3.220000e+01
      endloop
   endfacet
   facet normal -0.000000e+00 0.000000e+00 -1.000000e+00
      outer loop
         vertex 9.200000e+00 9.570000e+01 3.220000e+01
         vertex 4.758039e+00 8.247229e+01 3.220000e+01
         vertex 0.000000e+00 9.570000e+01 3.220000e+01
      endloop
   endfacet
   facet normal 0.000000e+00 0.000000e+00 -1.000000e+00
      outer loop
         vertex 0.000000e+00 9.570000e+01 3.220000e+01
         vertex 4.758039e+00 8.247229e+01 3.220000e+01
         vertex 4.300000e+00 8.250000e+01 3.220000e+01
      endloop
   endfacet
   facet normal 0.000000e+00 0.000000e+00 -1.000000e+00
      outer loop
         vertex 0.000000e+00 9.570000e+01 3.220000e+01
         vertex 4.300000e+00 8.250000e+01 3.220000e+01
         vertex 2.952501e+00 8.225306e+01 3.220000e+01
      endloop
   endfacet
   facet normal 1.000000e+00 -0.000000e+00 0.000000e+00
      outer loop
         vertex 9.200000e+00 0.000000e+00 4.010000e+01
         vertex 9.200000e+00 0.000000e+00 3.220000e+01
         vertex 9.200000e+00 9.570000e+01 4.010000e+01
      endloop
   endfacet
   facet normal 1.000000e+00 0.000000e+00 0.000000e+00
      outer loop
         vertex 9.200000e+00 9.570000e+01 4.010000e+01
         vertex 9.200000e+00 0.000000e+00 3.220000e+01
         vertex 9.200000e+00 9.570000e+01 3.220000e+01
      endloop
   endfacet
   facet normal -1.000000e+00 0.000000e+00 0.000000e+00
      outer loop
         vertex 0.000000e+00 0.000000e+00 3.220000e+01
         vertex 0.000000e+00 0.000000e+00 4.010000e+01
         vertex 0.000000e+00 9.570000e+01 3.220000e+01
      endloop
   endfacet
   facet normal -1.000000e+00 0.000000e+00 0.000000e+00
      outer loop
         vertex 0.000000e+00 9.570000e+01 3.220000e+01
         vertex 0.000000e+00 0.000000e+00 4.010000e+01
         vertex 0.000000e+00 9.570000e+01 4.010000e+01
      endloop
   endfacet
   facet normal -1.802550e-01 9.836199e-01 0.000000e+00
      outer loop
         vertex 4.300000e+00 8.250000e+01 4.010000e+01
         vertex 2.952501e+00 8.225306e+01 4.010000e+01
         vertex 2.952501e+00 8.225306e+01 4.800000e+01
      endloop
   endfacet
   facet normal -5.680643e-01 8.229842e-01 0.000000e+00
      outer loop
         vertex 2.952501e+00 8.225306e+01 4.800000e+01
         vertex 2.952501e+00 8.225306e+01 4.010000e+01
         vertex 1.455659e+00 8.121987e+01 4.010000e+01
      endloop
   endfacet
   facet normal -5.680643e-01 8.229842e-01 0.000000e+00
      outer loop
         vertex 2.952501e+00 8.225306e+01 4.800000e+01
         vertex 1.455659e+00 8.121987e+01 4.010000e+01
         vertex 1.455659e+00 8.121987e+01 4.800000e+01
      endloop
   endfacet
   facet normal -8.854561e-01 4.647230e-01 0.000000e+00
      outer loop
         vertex 1.455659e+00 8.121987e+01 4.800000e+01
         vertex 1.455659e+00 8.121987e+01 4.010000e+01
         vertex 6.104211e-01 7.960940e+01 4.010000e+01
      endloop
   endfacet
   facet normal -8.854561e-01 4.647230e-01 0.000000e+00
      outer loop
         vertex 1.455659e+00 8.121987e+01 4.800000e+01
         vertex 6.104211e-01 7.960940e+01 4.010000e+01
         vertex 6.104211e-01 7.960940e+01 4.800000e+01
      endloop
   endfacet
   facet normal -1.000000e+00 0.000000e+00 -0.000000e+00
      outer loop
         vertex 6.104211e-01 7.960940e+01 4.800000e+01
         vertex 6.104211e-01 7.960940e+01 4.010000e+01
         vertex 6.104211e-01 7.779060e+01 4.010000e+01
      endloop
   endfacet
   facet normal -1.000000e+00 -0.000000e+00 0.000000e+00
      outer loop
         vertex 6.104211e-01 7.960940e+01 4.800000e+01
         vertex 6.104211e-01 7.779060e+01 4.010000e+01
         vertex 6.104211e-01 7.779060e+01 4.800000e+01
      endloop
   endfacet
   facet normal -8.854561e-01 -4.647230e-01 -0.000000e+00
      outer loop
         vertex 6.104211e-01 7.779060e+01 4.800000e+01
         vertex 6.104211e-01 7.779060e+01 4.010000e+01
         vertex 1.455659e+00 7.618013e+01 4.010000e+01
      endloop
   endfacet
   facet normal -8.854561e-01 -4.647230e-01 0.000000e+00
      outer loop
         vertex 6.104211e-01 7.779060e+01 4.800000e+01
         vertex 1.455659e+00 7.618013e+01 4.010000e+01
         vertex 1.455659e+00 7.618013e+01 4.800000e+01
      endloop
   endfacet
   facet normal -5.680650e-01 -8.229837e-01 -0.000000e+00
      outer loop
         vertex 1.455659e+00 7.618013e+01 4.800000e+01
         vertex 1.455659e+00 7.618013e+01 4.010000e+01
         vertex 2.952501e+00 7.514694e+01 4.010000e+01
      endloop
   endfacet
   facet normal -5.680650e-01 -8.229837e-01 0.000000e+00
      outer loop
         vertex 1.455659e+00 7.618013e+01 4.800000e+01
         vertex 2.952501e+00 7.514694e+01 4.010000e+01
         vertex 2.952501e+00 7.514694e+01 4.800000e+01
      endloop
   endfacet
   facet normal -1.205364e-01 -9.927089e-01 -0.000000e+00
      outer loop
         vertex 2.952501e+00 7.514694e+01 4.800000e+01
         vertex 2.952501e+00 7.514694e+01 4.010000e+01
         vertex 4.758039e+00 7.492771e+01 4.010000e+01
      endloop
   endfacet
   facet normal -1.205364e-01 -9.927089e-01 0.000000e+00
      outer loop
         vertex 2.952501e+00 7.514694e+01 4.800000e+01
         vertex 4.758039e+00 7.492771e+01 4.010000e+01
         vertex 4.758039e+00 7.492771e+01 4.800000e+01
      endloop
   endfacet
   facet normal 3.546052e-01 -9.350161e-01 0.000000e+00
      outer loop
         vertex 4.758039e+00 7.492771e+01 4.800000e+01
         vertex 4.758039e+00 7.492771e+01 4.010000e+01
         vertex 6.458646e+00 7.557266e+01 4.010000e+01
      endloop
   endfacet
   facet normal 3.546052e-01 -9.350161e-01 0.000000e+00
      outer loop
         vertex 4.758039e+00 7.492771e+01 4.800000e+01
         vertex 6.458646e+00 7.557266e+01 4.010000e+01
         vertex 6.458646e+00 7.557266e+01 4.800000e+01
      endloop
   endfacet
   facet normal 7.485107e-01 -6.631227e-01 0.000000e+00
      outer loop
         vertex 6.458646e+00 7.557266e+01 4.800000e+01
         vertex 6.458646e+00 7.557266e+01 4.010000e+01
         vertex 7.664733e+00 7.693405e+01 4.010000e+01
      endloop
   endfacet
   facet normal 7.485107e-01 -6.631227e-01 0.000000e+00
      outer loop
         vertex 6.458646e+00 7.557266e+01 4.800000e+01
         vertex 7.664733e+00 7.693405e+01 4.010000e+01
         vertex 7.664733e+00 7.693405e+01 4.800000e+01
      endloop
   endfacet
   facet normal 9.709418e-01 -2.393157e-01 0.000000e+00
      outer loop
         vertex 7.664733e+00 7.693405e+01 4.800000e+01
         vertex 7.664733e+00 7.693405e+01 4.010000e+01
         vertex 8.100000e+00 7.870000e+01 4.010000e+01
      endloop
   endfacet
   facet normal 9.709418e-01 -2.393157e-01 0.000000e+00
      outer loop
         vertex 7.664733e+00 7.693405e+01 4.800000e+01
         vertex 8.100000e+00 7.870000e+01 4.010000e+01
         vertex 8.100000e+00 7.870000e+01 4.800000e+01
      endloop
   endfacet
   facet normal 9.709419e-01 2.393155e-01 0.000000e+00
      outer loop
         vertex 8.100000e+00 7.870000e+01 4.800000e+01
         vertex 8.100000e+00 7.870000e+01 4.010000e+01
         vertex 7.664733e+00 8.046595e+01 4.010000e+01
      endloop
   endfacet
   facet normal 9.709419e-01 2.393155e-01 0.000000e+00
      outer loop
         vertex 8.100000e+00 7.870000e+01 4.800000e+01
         vertex 7.664733e+00 8.046595e+01 4.010000e+01
         vertex 7.664733e+00 8.046595e+01 4.800000e+01
      endloop
   endfacet
   facet normal 7.485103e-01 6.631232e-01 0.000000e+00
      outer loop
         vertex 7.664733e+00 8.046595e+01 4.800000e+01
         vertex 7.664733e+00 8.046595e+01 4.010000e+01
         vertex 6.458646e+00 8.182734e+01 4.010000e+01
      endloop
   endfacet
   facet normal 7.485103e-01 6.631232e-01 0.000000e+00
      outer loop
         vertex 7.664733e+00 8.046595e+01 4.800000e+01
         vertex 6.458646e+00 8.182734e+01 4.010000e+01
         vertex 6.458646e+00 8.182734e+01 4.800000e+01
      endloop
   endfacet
   facet normal 3.546052e-01 9.350161e-01 0.000000e+00
      outer loop
         vertex 6.458646e+00 8.182734e+01 4.800000e+01
         vertex 6.458646e+00 8.182734e+01 4.010000e+01
         vertex 4.758039e+00 8.247229e+01 4.010000e+01
      endloop
   endfacet
   facet normal 3.546052e-01 9.350161e-01 0.000000e+00
      outer loop
         vertex 6.458646e+00 8.182734e+01 4.800000e+01
         vertex 4.758039e+00 8.247229e+01 4.010000e+01
         vertex 4.758039e+00 8.247229e+01 4.800000e+01
      endloop
   endfacet
   facet normal 6.037569e-02 9.981757e-01 0.000000e+00
      outer loop
         vertex 4.758039e+00 8.247229e+01 4.800000e+01
         vertex 4.758039e+00 8.247229e+01 4.010000e+01
         vertex 4.300000e+00 8.250000e+01 4.010000e+01
      endloop
   endfacet
   facet normal -1.205308e-01 9.926544e-01 1.046953e-02
      outer loop
         vertex 4.758039e+00 8.247229e+01 4.800000e+01
         vertex 4.300000e+00 8.250000e+01 4.010000e+01
         vertex 2.952501e+00 8.225306e+01 4.800000e+01
      endloop
   endfacet
   facet normal 0.000000e+00 0.000000e+00 1.000000e+00
      outer loop
         vertex 8.100000e+00 7.870000e+01 4.800000e+01
         vertex 7.664733e+00 8.046595e+01 4.800000e+01
         vertex 4.300000e+00 7.870000e+01 4.800000e+01
      endloop
   endfacet
   facet normal 0.000000e+00 -0.000000e+00 1.000000e+00
      outer loop
         vertex 4.758039e+00 7.492771e+01 4.800000e+01
         vertex 6.458646e+00 7.557266e+01 4.800000e+01
         vertex 4.300000e+00 7.870000e+01 4.800000e+01
      endloop
   endfacet
   facet normal 0.000000e+00 0.000000e+00 1.000000e+00
      outer loop
         vertex 4.300000e+00 7.870000e+01 4.800000e+01
         vertex 6.458646e+00 7.557266e+01 4.800000e+01
         vertex 7.664733e+00 7.693405e+01 4.800000e+01
      endloop
   endfacet
   facet normal -0.000000e+00 0.000000e+00 1.000000e+00
      outer loop
         vertex 4.300000e+00 7.870000e+01 4.800000e+01
         vertex 7.664733e+00 7.693405e+01 4.800000e+01
         vertex 8.100000e+00 7.870000e+01 4.800000e+01
      endloop
   endfacet
   facet normal -0.000000e+00 0.000000e+00 1.000000e+00
      outer loop
         vertex 6.104211e-01 7.779060e+01 4.800000e+01
         vertex 1.455659e+00 7.618013e+01 4.800000e+01
         vertex 4.300000e+00 7.870000e+01 4.800000e+01
      endloop
   endfacet
   facet normal 0.000000e+00 0.000000e+00 1.000000e+00
      outer loop
         vertex 4.300000e+00 7.870000e+01 4.800000e+01
         vertex 1.455659e+00 7.618013e+01 4.800000e+01
         vertex 2.952501e+00 7.514694e+01 4.800000e+01
      endloop
   endfacet
   facet normal 0.000000e+00 0.000000e+00 1.000000e+00
      outer loop
         vertex 4.300000e+00 7.870000e+01 4.800000e+01
         vertex 2.952501e+00 7.514694e+01 4.800000e+01
         vertex 4.758039e+00 7.492771e+01 4.800000e+01
      endloop
   endfacet
   facet normal 0.000000e+00 0.000000e+00 1.000000e+00
      outer loop
         vertex 2.952501e+00 8.225306e+01 4.800000e+01
         vertex 1.455659e+00 8.121987e+01 4.800000e+01
         vertex 4.300000e+00 7.870000e+01 4.800000e+01
      endloop
   endfacet
   facet normal 0.000000e+00 0.000000e+00 1.000000e+00
      outer loop
         vertex 4.300000e+00 7.870000e+01 4.800000e+01
         vertex 1.455659e+00 8.121987e+01 4.800000e+01
         vertex 6.104211e-01 7.960940e+01 4.800000e+01
      endloop
   endfacet
   facet normal 0.000000e+00 0.000000e+00 1.000000e+00
      outer loop
         vertex 4.300000e+00 7.870000e+01 4.800000e+01
         vertex 6.104211e-01 7.960940e+01 4.800000e+01
         vertex 6.104211e-01 7.779060e+01 4.800000e+01
      endloop
   endfacet
   facet normal 0.000000e+00 0.000000e+00 1.000000e+00
      outer loop
         vertex 7.664733e+00 8.046595e+01 4.800000e+01
         vertex 6.458646e+00 8.182734e+01 4.800000e+01
         vertex 4.300000e+00 7.870000e+01 4.800000e+01
      endloop
   endfacet
   facet normal 0.000000e+00 0.000000e+00 1.000000e+00
      outer loop
         vertex 4.300000e+00 7.870000e+01 4.800000e+01
         vertex 6.458646e+00 8.182734e+01 4.800000e+01
         vertex 4.758039e+00 8.247229e+01 4.800000e+01
      endloop
   endfacet
   facet normal 0.000000e+00 -0.000000e+00 1.000000e+00
      outer loop
         vertex 4.300000e+00 7.870000e+01 4.800000e+01
         vertex 4.758039e+00 8.247229e+01 4.800000e+01
         vertex 2.952501e+00 8.225306e+01 4.800000e+01
      endloop
   endfacet
   facet normal 0.000000e+00 0.000000e+00 1.000000e+00
      outer loop
         vertex 2.952501e+00 7.514694e+01 1.600000e+01
         vertex 0.000000e+00 0.000000e+00 1.600000e+01
         vertex 4.758039e+00 7.492771e+01 1.600000e+01
      endloop
   endfacet
   facet normal 0.000000e+00 0.000000e+00 1.000000e+00
      outer loop
         vertex 4.758039e+00 7.492771e+01 1.600000e+01
         vertex 0.000000e+00 0.000000e+00 1.600000e+01
         vertex 9.200000e+00 0.000000e+00 1.600000e+01
      endloop
   endfacet
   facet normal -0.000000e+00 0.000000e+00 1.000000e+00
      outer loop
         vertex 4.758039e+00 7.492771e+01 1.600000e+01
         vertex 9.200000e+00 0.000000e+00 1.600000e+01
         vertex 6.458646e+00 7.557266e+01 1.600000e+01
      endloop
   endfacet
   facet normal -0.000000e+00 0.000000e+00 1.000000e+00
      outer loop
         vertex 6.458646e+00 8.182734e+01 1.600000e+01
         vertex 7.664733e+00 8.046595e+01 1.600000e+01
         vertex 9.200000e+00 9.570000e+01 1.600000e+01
      endloop
   endfacet
   facet normal 0.000000e+00 0.000000e+00 1.000000e+00
      outer loop
         vertex 9.200000e+00 9.570000e+01 1.600000e+01
         vertex 7.664733e+00 8.046595e+01 1.600000e+01
         vertex 8.100000e+00 7.870000e+01 1.600000e+01
      endloop
   endfacet
   facet normal 0.000000e+00 0.000000e+00 1.000000e+00
      outer loop
         vertex 9.200000e+00 9.570000e+01 1.600000e+01
         vertex 8.100000e+00 7.870000e+01 1.600000e+01
         vertex 9.200000e+00 0.000000e+00 1.600000e+01
      endloop
   endfacet
   facet normal 0.000000e+00 0.000000e+00 1.000000e+00
      outer loop
         vertex 9.200000e+00 0.000000e+00 1.600000e+01
         vertex 8.100000e+00 7.870000e+01 1.600000e+01
         vertex 7.664733e+00 7.693405e+01 1.600000e+01
      endloop
   endfacet
   facet normal 0.000000e+00 0.000000e+00 1.000000e+00
      outer loop
         vertex 9.200000e+00 0.000000e+00 1.600000e+01
         vertex 7.664733e+00 7.693405e+01 1.600000e+01
         vertex 6.458646e+00 7.557266e+01 1.600000e+01
      endloop
   endfacet
   facet normal 0.000000e+00 0.000000e+00 1.000000e+00
      outer loop
         vertex 2.952501e+00 7.514694e+01 1.600000e+01
         vertex 1.455659e+00 7.618013e+01 1.600000e+01
         vertex 0.000000e+00 0.000000e+00 1.600000e+01
      endloop
   endfacet
   facet normal 0.000000e+00 0.000000e+00 1.000000e+00
      outer loop
         vertex 0.000000e+00 0.000000e+00 1.600000e+01
         vertex 1.455659e+00 7.618013e+01 1.600000e+01
         vertex 6.104211e-01 7.779060e+01 1.600000e+01
      endloop
   endfacet
   facet normal 0.000000e+00 0.000000e+00 1.000000e+00
      outer loop
         vertex 0.000000e+00 0.000000e+00 1.600000e+01
         vertex 6.104211e-01 7.779060e+01 1.600000e+01
         vertex 0.000000e+00 9.570000e+01 1.600000e+01
      endloop
   endfacet
   facet normal 0.000000e+00 0.000000e+00 1.000000e+00
      outer loop
         vertex 0.000000e+00 9.570000e+01 1.600000e+01
         vertex 6.104211e-01 7.779060e+01 1.600000e+01
         vertex 6.104211e-01 7.960940e+01 1.600000e+01
      endloop
   endfacet
   facet normal 0.000000e+00 0.000000e+00 1.000000e+00
      outer loop
         vertex 0.000000e+00 9.570000e+01 1.600000e+01
         vertex 6.104211e-01 7.960940e+01 1.600000e+01
         vertex 1.455659e+00 8.121987e+01 1.600000e+01
      endloop
   endfacet
   facet normal 0.000000e+00 -0.000000e+00 1.000000e+00
      outer loop
         vertex 1.455659e+00 8.121987e+01 1.600000e+01
         vertex 2.952501e+00 8.225306e+01 1.600000e+01
         vertex 0.000000e+00 9.570000e+01 1.600000e+01
      endloop
   endfacet
   facet normal 0.000000e+00 0.000000e+00 1.000000e+00
      outer loop
         vertex 0.000000e+00 9.570000e+01 1.600000e+01
         vertex 2.952501e+00 8.225306e+01 1.600000e+01
         vertex 4.300000e+00 8.250000e+01 1.600000e+01
      endloop
   endfacet
   facet normal -0.000000e+00 0.000000e+00 1.000000e+00
      outer loop
         vertex 0.000000e+00 9.570000e+01 1.600000e+01
         vertex 4.300000e+00 8.250000e+01 1.600000e+01
         vertex 9.200000e+00 9.570000e+01 1.600000e+01
      endloop
   endfacet
   facet normal 0.000000e+00 0.000000e+00 1.000000e+00
      outer loop
         vertex 9.200000e+00 9.570000e+01 1.600000e+01
         vertex 4.300000e+00 8.250000e+01 1.600000e+01
         vertex 4.758039e+00 8.247229e+01 1.600000e+01
      endloop
   endfacet
   facet normal 0.000000e+00 0.000000e+00 1.000000e+00
      outer loop
         vertex 9.200000e+00 9.570000e+01 1.600000e+01
         vertex 4.758039e+00 8.247229e+01 1.600000e+01
         vertex 6.458646e+00 8.182734e+01 1.600000e+01
      endloop
   endfacet
   facet normal 0.000000e+00 -1.000000e+00 0.000000e+00
      outer loop
         vertex 9.200000e+00 0.000000e+00 8.100000e+00
         vertex 9.200000e+00 0.000000e+00 1.600000e+01
         vertex 0.000000e+00 0.000000e+00 8.100000e+00
      endloop
   endfacet
   facet normal 0.000000e+00 -1.000000e+00 0.000000e+00
      outer loop
         vertex 0.000000e+00 0.000000e+00 8.100000e+00
         vertex 9.200000e+00 0.000000e+00 1.600000e+01
         vertex 0.000000e+00 0.000000e+00 1.600000e+01
      endloop
   endfacet
   facet normal 0.000000e+00 0.000000e+00 -1.000000e+00
      outer loop
         vertex 6.458646e+00 8.182734e+01 8.100000e+00
         vertex 4.758039e+00 8.247229e+01 8.100000e+00
         vertex 9.200000e+00 9.570000e+01 8.100000e+00
      endloop
   endfacet
   facet normal -0.000000e+00 0.000000e+00 -1.000000e+00
      outer loop
         vertex 9.200000e+00 9.570000e+01 8.100000e+00
         vertex 4.758039e+00 8.247229e+01 8.100000e+00
         vertex 0.000000e+00 9.570000e+01 8.100000e+00
      endloop
   endfacet
   facet normal 0.000000e+00 0.000000e+00 -1.000000e+00
      outer loop
         vertex 0.000000e+00 9.570000e+01 8.100000e+00
         vertex 4.758039e+00 8.247229e+01 8.100000e+00
         vertex 2.952501e+00 8.225306e+01 8.100000e+00
      endloop
   endfacet
   facet normal 0.000000e+00 0.000000e+00 -1.000000e+00
      outer loop
         vertex 0.000000e+00 9.570000e+01 8.100000e+00
         vertex 2.952501e+00 8.225306e+01 8.100000e+00
         vertex 1.455659e+00 8.121987e+01 8.100000e+00
      endloop
   endfacet
   facet normal -0.000000e+00 0.000000e+00 -1.000000e+00
      outer loop
         vertex 1.455659e+00 8.121987e+01 8.100000e+00
         vertex 6.104211e-01 7.960940e+01 8.100000e+00
         vertex 0.000000e+00 9.570000e+01 8.100000e+00
      endloop
   endfacet
   facet normal 0.000000e+00 0.000000e+00 -1.000000e+00
      outer loop
         vertex 0.000000e+00 9.570000e+01 8.100000e+00
         vertex 6.104211e-01 7.960940e+01 8.100000e+00
         vertex 6.104211e-01 7.779060e+01 8.100000e+00
      endloop
   endfacet
   facet normal 0.000000e+00 0.000000e+00 -1.000000e+00
      outer loop
         vertex 0.000000e+00 9.570000e+01 8.100000e+00
         vertex 6.104211e-01 7.779060e+01 8.100000e+00
         vertex 0.000000e+00 0.000000e+00 8.100000e+00
      endloop
   endfacet
   facet normal 0.000000e+00 0.000000e+00 -1.000000e+00
      outer loop
         vertex 0.000000e+00 0.000000e+00 8.100000e+00
         vertex 6.104211e-01 7.779060e+01 8.100000e+00
         vertex 1.455659e+00 7.618013e+01 8.100000e+00
      endloop
   endfacet
   facet normal 0.000000e+00 0.000000e+00 -1.000000e+00
      outer loop
         vertex 6.458646e+00 7.557266e+01 8.100000e+00
         vertex 7.664733e+00 7.693405e+01 8.100000e+00
         vertex 9.200000e+00 0.000000e+00 8.100000e+00
      endloop
   endfacet
   facet normal 0.000000e+00 0.000000e+00 -1.000000e+00
      outer loop
         vertex 9.200000e+00 0.000000e+00 8.100000e+00
         vertex 7.664733e+00 7.693405e+01 8.100000e+00
         vertex 8.100000e+00 7.870000e+01 8.100000e+00
      endloop
   endfacet
   facet normal 0.000000e+00 0.000000e+00 -1.000000e+00
      outer loop
         vertex 9.200000e+00 0.000000e+00 8.100000e+00
         vertex 8.100000e+00 7.870000e+01 8.100000e+00
         vertex 9.200000e+00 9.570000e+01 8.100000e+00
      endloop
   endfacet
   facet normal 0.000000e+00 0.000000e+00 -1.000000e+00
      outer loop
         vertex 9.200000e+00 9.570000e+01 8.100000e+00
         vertex 8.100000e+00 7.870000e+01 8.100000e+00
         vertex 7.664733e+00 8.046595e+01 8.100000e+00
      endloop
   endfacet
   facet normal 0.000000e+00 0.000000e+00 -1.000000e+00
      outer loop
         vertex 9.200000e+00 9.570000e+01 8.100000e+00
         vertex 7.664733e+00 8.046595e+01 8.100000e+00
         vertex 6.458646e+00 8.182734e+01 8.100000e+00
      endloop
   endfacet
   facet normal 0.000000e+00 -0.000000e+00 -1.000000e+00
      outer loop
         vertex 1.455659e+00 7.618013e+01 8.100000e+00
         vertex 2.952501e+00 7.514694e+01 8.100000e+00
         vertex 0.000000e+00 0.000000e+00 8.100000e+00
      endloop
   endfacet
   facet normal 0.000000e+00 0.000000e+00 -1.000000e+00
      outer loop
         vertex 0.000000e+00 0.000000e+00 8.100000e+00
         vertex 2.952501e+00 7.514694e+01 8.100000e+00
         vertex 4.300000e+00 7.490000e+01 8.100000e+00
      endloop
   endfacet
   facet normal 0.000000e+00 0.000000e+00 -1.000000e+00
      outer loop
         vertex 0.000000e+00 0.000000e+00 8.100000e+00
         vertex 4.300000e+00 7.490000e+01 8.100000e+00
         vertex 9.200000e+00 0.000000e+00 8.100000e+00
      endloop
   endfacet
   facet normal 0.000000e+00 0.000000e+00 -1.000000e+00
      outer loop
         vertex 9.200000e+00 0.000000e+00 8.100000e+00
         vertex 4.300000e+00 7.490000e+01 8.100000e+00
         vertex 4.758039e+00 7.492771e+01 8.100000e+00
      endloop
   endfacet
   facet normal 0.000000e+00 0.000000e+00 -1.000000e+00
      outer loop
         vertex 9.200000e+00 0.000000e+00 8.100000e+00
         vertex 4.758039e+00 7.492771e+01 8.100000e+00
         vertex 6.458646e+00 7.557266e+01 8.100000e+00
      endloop
   endfacet
   facet normal 0.000000e+00 1.000000e+00 0.000000e+00
      outer loop
         vertex 9.200000e+00 9.570000e+01 1.600000e+01
         vertex 9.200000e+00 9.570000e+01 8.100000e+00
         vertex 0.000000e+00 9.570000e+01 1.600000e+01
      endloop
   endfacet
   facet normal 0.000000e+00 1.000000e+00 0.000000e+00
      outer loop
         vertex 0.000000e+00 9.570000e+01 1.600000e+01
         vertex 9.200000e+00 9.570000e+01 8.100000e+00
         vertex 0.000000e+00 9.570000e+01 8.100000e+00
      endloop
   endfacet
   facet normal 1.000000e+00 0.000000e+00 0.000000e+00
      outer loop
         vertex 9.200000e+00 0.000000e+00 8.100000e+00
         vertex 9.200000e+00 9.570000e+01 8.100000e+00
         vertex 9.200000e+00 0.000000e+00 1.600000e+01
      endloop
   endfacet
   facet normal 1.000000e+00 -0.000000e+00 0.000000e+00
      outer loop
         vertex 9.200000e+00 0.000000e+00 1.600000e+01
         vertex 9.200000e+00 9.570000e+01 8.100000e+00
         vertex 9.200000e+00 9.570000e+01 1.600000e+01
      endloop
   endfacet
   facet normal -1.000000e+00 0.000000e+00 0.000000e+00
      outer loop
         vertex 0.000000e+00 9.570000e+01 8.100000e+00
         vertex 0.000000e+00 0.000000e+00 8.100000e+00
         vertex 0.000000e+00 9.570000e+01 1.600000e+01
      endloop
   endfacet
   facet normal -1.000000e+00 -0.000000e+00 0.000000e+00
      outer loop
         vertex 0.000000e+00 9.570000e+01 1.600000e+01
         vertex 0.000000e+00 0.000000e+00 8.100000e+00
         vertex 0.000000e+00 0.000000e+00 1.600000e+01
      endloop
   endfacet
   facet normal -0.000000e+00 0.000000e+00 -1.000000e+00
      outer loop
         vertex 8.100000e+00 7.870000e+01 0.000000e+00
         vertex 7.664733e+00 7.693405e+01 0.000000e+00
         vertex 4.300000e+00 7.870000e+01 0.000000e+00
      endloop
   endfacet
   facet normal 0.000000e+00 -0.000000e+00 -1.000000e+00
      outer loop
         vertex 4.758039e+00 8.247229e+01 0.000000e+00
         vertex 6.458646e+00 8.182734e+01 0.000000e+00
         vertex 4.300000e+00 7.870000e+01 0.000000e+00
      endloop
   endfacet
   facet normal 0.000000e+00 0.000000e+00 -1.000000e+00
      outer loop
         vertex 4.300000e+00 7.870000e+01 0.000000e+00
         vertex 6.458646e+00 8.182734e+01 0.000000e+00
         vertex 7.664733e+00 8.046595e+01 0.000000e+00
      endloop
   endfacet
   facet normal 0.000000e+00 0.000000e+00 -1.000000e+00
      outer loop
         vertex 4.300000e+00 7.870000e+01 0.000000e+00
         vertex 7.664733e+00 8.046595e+01 0.000000e+00
         vertex 8.100000e+00 7.870000e+01 0.000000e+00
      endloop
   endfacet
   facet normal 0.000000e+00 0.000000e+00 -1.000000e+00
      outer loop
         vertex 6.104211e-01 7.960940e+01 0.000000e+00
         vertex 1.455659e+00 8.121987e+01 0.000000e+00
         vertex 4.300000e+00 7.870000e+01 0.000000e+00
      endloop
   endfacet
   facet normal 0.000000e+00 0.000000e+00 -1.000000e+00
      outer loop
         vertex 4.300000e+00 7.870000e+01 0.000000e+00
         vertex 1.455659e+00 8.121987e+01 0.000000e+00
         vertex 2.952501e+00 8.225306e+01 0.000000e+00
      endloop
   endfacet
   facet normal 0.000000e+00 0.000000e+00 -1.000000e+00
      outer loop
         vertex 4.300000e+00 7.870000e+01 0.000000e+00
         vertex 2.952501e+00 8.225306e+01 0.000000e+00
         vertex 4.758039e+00 8.247229e+01 0.000000e+00
      endloop
   endfacet
   facet normal 0.000000e+00 0.000000e+00 -1.000000e+00
      outer loop
         vertex 2.952501e+00 7.514694e+01 0.000000e+00
         vertex 1.455659e+00 7.618013e+01 0.000000e+00
         vertex 4.300000e+00 7.870000e+01 0.000000e+00
      endloop
   endfacet
   facet normal 0.000000e+00 0.000000e+00 -1.000000e+00
      outer loop
         vertex 4.300000e+00 7.870000e+01 0.000000e+00
         vertex 1.455659e+00 7.618013e+01 0.000000e+00
         vertex 6.104211e-01 7.779060e+01 0.000000e+00
      endloop
   endfacet
   facet normal -0.000000e+00 0.000000e+00 -1.000000e+00
      outer loop
         vertex 4.300000e+00 7.870000e+01 0.000000e+00
         vertex 6.104211e-01 7.779060e+01 0.000000e+00
         vertex 6.104211e-01 7.960940e+01 0.000000e+00
      endloop
   endfacet
   facet normal -0.000000e+00 0.000000e+00 -1.000000e+00
      outer loop
         vertex 7.664733e+00 7.693405e+01 0.000000e+00
         vertex 6.458646e+00 7.557266e+01 0.000000e+00
         vertex 4.300000e+00 7.870000e+01 0.000000e+00
      endloop
   endfacet
   facet normal 0.000000e+00 0.000000e+00 -1.000000e+00
      outer loop
         vertex 4.300000e+00 7.870000e+01 0.000000e+00
         vertex 6.458646e+00 7.557266e+01 0.000000e+00
         vertex 4.758039e+00 7.492771e+01 0.000000e+00
      endloop
   endfacet
   facet normal 0.000000e+00 -0.000000e+00 -1.000000e+00
      outer loop
         vertex 4.300000e+00 7.870000e+01 0.000000e+00
         vertex 4.758039e+00 7.492771e+01 0.000000e+00
         vertex 2.952501e+00 7.514694e+01 0.000000e+00
      endloop
   endfacet
   facet normal -1.802550e-01 -9.836199e-01 0.000000e+00
      outer loop
         vertex 4.300000e+00 7.490000e+01 8.100000e+00
         vertex 2.952501e+00 7.514694e+01 8.100000e+00
         vertex 2.952501e+00 7.514694e+01 0.000000e+00
      endloop
   endfacet
   facet normal -5.680650e-01 -8.229837e-01 0.000000e+00
      outer loop
         vertex 2.952501e+00 7.514694e+01 0.000000e+00
         vertex 2.952501e+00 7.514694e+01 8.100000e+00
         vertex 1.455659e+00 7.618013e+01 8.100000e+00
      endloop
   endfacet
   facet normal -5.680650e-01 -8.229837e-01 0.000000e+00
      outer loop
         vertex 2.952501e+00 7.514694e+01 0.000000e+00
         vertex 1.455659e+00 7.618013e+01 8.100000e+00
         vertex 1.455659e+00 7.618013e+01 0.000000e+00
      endloop
   endfacet
   facet normal -8.854561e-01 -4.647230e-01 0.000000e+00
      outer loop
         vertex 1.455659e+00 7.618013e+01 0.000000e+00
         vertex 1.455659e+00 7.618013e+01 8.100000e+00
         vertex 6.104211e-01 7.779060e+01 8.100000e+00
      endloop
   endfacet
   facet normal -8.854561e-01 -4.647230e-01 0.000000e+00
      outer loop
         vertex 1.455659e+00 7.618013e+01 0.000000e+00
         vertex 6.104211e-01 7.779060e+01 8.100000e+00
         vertex 6.104211e-01 7.779060e+01 0.000000e+00
      endloop
   endfacet
   facet normal -1.000000e+00 0.000000e+00 0.000000e+00
      outer loop
         vertex 6.104211e-01 7.779060e+01 0.000000e+00
         vertex 6.104211e-01 7.779060e+01 8.100000e+00
         vertex 6.104211e-01 7.960940e+01 8.100000e+00
      endloop
   endfacet
   facet normal -1.000000e+00 0.000000e+00 0.000000e+00
      outer loop
         vertex 6.104211e-01 7.779060e+01 0.000000e+00
         vertex 6.104211e-01 7.960940e+01 8.100000e+00
         vertex 6.104211e-01 7.960940e+01 0.000000e+00
      endloop
   endfacet
   facet normal -8.854561e-01 4.647230e-01 0.000000e+00
      outer loop
         vertex 6.104211e-01 7.960940e+01 0.000000e+00
         vertex 6.104211e-01 7.960940e+01 8.100000e+00
         vertex 1.455659e+00 8.121987e+01 8.100000e+00
      endloop
   endfacet
   facet normal -8.854561e-01 4.647230e-01 0.000000e+00
      outer loop
         vertex 6.104211e-01 7.960940e+01 0.000000e+00
         vertex 1.455659e+00 8.121987e+01 8.100000e+00
         vertex 1.455659e+00 8.121987e+01 0.000000e+00
      endloop
   endfacet
   facet normal -5.680643e-01 8.229842e-01 0.000000e+00
      outer loop
         vertex 1.455659e+00 8.121987e+01 0.000000e+00
         vertex 1.455659e+00 8.121987e+01 8.100000e+00
         vertex 2.952501e+00 8.225306e+01 8.100000e+00
      endloop
   endfacet
   facet normal -5.680643e-01 8.229842e-01 0.000000e+00
      outer loop
         vertex 1.455659e+00 8.121987e+01 0.000000e+00
         vertex 2.952501e+00 8.225306e+01 8.100000e+00
         vertex 2.952501e+00 8.225306e+01 0.000000e+00
      endloop
   endfacet
   facet normal -1.205374e-01 9.927088e-01 0.000000e+00
      outer loop
         vertex 2.952501e+00 8.225306e+01 0.000000e+00
         vertex 2.952501e+00 8.225306e+01 8.100000e+00
         vertex 4.758039e+00 8.247229e+01 8.100000e+00
      endloop
   endfacet
   facet normal -1.205374e-01 9.927088e-01 0.000000e+00
      outer loop
         vertex 2.952501e+00 8.225306e+01 0.000000e+00
         vertex 4.758039e+00 8.247229e+01 8.100000e+00
         vertex 4.758039e+00 8.247229e+01 0.000000e+00
      endloop
   endfacet
   facet normal 3.546052e-01 9.350161e-01 -0.000000e+00
      outer loop
         vertex 4.758039e+00 8.247229e+01 0.000000e+00
         vertex 4.758039e+00 8.247229e+01 8.100000e+00
         vertex 6.458646e+00 8.182734e+01 8.100000e+00
      endloop
   endfacet
   facet normal 3.546052e-01 9.350161e-01 0.000000e+00
      outer loop
         vertex 4.758039e+00 8.247229e+01 0.000000e+00
         vertex 6.458646e+00 8.182734e+01 8.100000e+00
         vertex 6.458646e+00 8.182734e+01 0.000000e+00
      endloop
   endfacet
   facet normal 7.485103e-01 6.631232e-01 -0.000000e+00
      outer loop
         vertex 6.458646e+00 8.182734e+01 0.000000e+00
         vertex 6.458646e+00 8.182734e+01 8.100000e+00
         vertex 7.664733e+00 8.046595e+01 8.100000e+00
      endloop
   endfacet
   facet normal 7.485103e-01 6.631232e-01 0.000000e+00
      outer loop
         vertex 6.458646e+00 8.182734e+01 0.000000e+00
         vertex 7.664733e+00 8.046595e+01 8.100000e+00
         vertex 7.664733e+00 8.046595e+01 0.000000e+00
      endloop
   endfacet
   facet normal 9.709419e-01 2.393155e-01 -0.000000e+00
      outer loop
         vertex 7.664733e+00 8.046595e+01 0.000000e+00
         vertex 7.664733e+00 8.046595e+01 8.100000e+00
         vertex 8.100000e+00 7.870000e+01 8.100000e+00
      endloop
   endfacet
   facet normal 9.709419e-01 2.393155e-01 0.000000e+00
      outer loop
         vertex 7.664733e+00 8.046595e+01 0.000000e+00
         vertex 8.100000e+00 7.870000e+01 8.100000e+00
         vertex 8.100000e+00 7.870000e+01 0.000000e+00
      endloop
   endfacet
   facet normal 9.709418e-01 -2.393157e-01 0.000000e+00
      outer loop
         vertex 8.100000e+00 7.870000e+01 0.000000e+00
         vertex 8.100000e+00 7.870000e+01 8.100000e+00
         vertex 7.664733e+00 7.693405e+01 8.100000e+00
      endloop
   endfacet
   facet normal 9.709418e-01 -2.393157e-01 0.000000e+00
      outer loop
         vertex 8.100000e+00 7.870000e+01 0.000000e+00
         vertex 7.664733e+00 7.693405e+01 8.100000e+00
         vertex 7.664733e+00 7.693405e+01 0.000000e+00
      endloop
   endfacet
   facet normal 7.485107e-01 -6.631227e-01 0.000000e+00
      outer loop
         vertex 7.664733e+00 7.693405e+01 0.000000e+00
         vertex 7.664733e+00 7.693405e+01 8.100000e+00
         vertex 6.458646e+00 7.557266e+01 8.100000e+00
      endloop
   endfacet
   facet normal 7.485107e-01 -6.631227e-01 0.000000e+00
      outer loop
         vertex 7.664733e+00 7.693405e+01 0.000000e+00
         vertex 6.458646e+00 7.557266e+01 8.100000e+00
         vertex 6.458646e+00 7.557266e+01 0.000000e+00
      endloop
   endfacet
   facet normal 3.546052e-01 -9.350161e-01 0.000000e+00
      outer loop
         vertex 6.458646e+00 7.557266e+01 0.000000e+00
         vertex 6.458646e+00 7.557266e+01 8.100000e+00
         vertex 4.758039e+00 7.492771e+01 8.100000e+00
      endloop
   endfacet
   facet normal 3.546052e-01 -9.350161e-01 0.000000e+00
      outer loop
         vertex 6.458646e+00 7.557266e+01 0.000000e+00
         vertex 4.758039e+00 7.492771e+01 8.100000e+00
         vertex 4.758039e+00 7.492771e+01 0.000000e+00
      endloop
   endfacet
   facet normal 6.037974e-02 -9.981755e-01 0.000000e+00
      outer loop
         vertex 4.758039e+00 7.492771e+01 0.000000e+00
         vertex 4.758039e+00 7.492771e+01 8.100000e+00
         vertex 4.300000e+00 7.490000e+01 8.100000e+00
      endloop
   endfacet
   facet normal -1.205301e-01 -9.926572e-01 -1.021123e-02
      outer loop
         vertex 4.758039e+00 7.492771e+01 0.000000e+00
         vertex 4.300000e+00 7.490000e+01 8.100000e+00
         vertex 2.952501e+00 7.514694e+01 0.000000e+00
      endloop
   endfacet
endsolid