solid STL generated by MeshLab
  facet normal  9.846778e-01  1.729747e-01 -2.212228e-02
    outer loop
      vertex   3.469131e+00  3.133298e+01 -2.934074e-02
      vertex   3.475198e+00  3.128301e+01 -1.499996e-01
      vertex   3.064683e+00  3.261595e+01 -8.000000e+00
    endloop
  endfacet
  facet normal  9.921681e-01  1.209107e-01  3.135453e-02
    outer loop
      vertex   3.491717e+00  3.110000e+01  5.330105e-01
      vertex   3.475198e+00  3.128301e+01  3.500004e-01
      vertex   3.064683e+00  3.261595e+01  8.200001e+00
    endloop
  endfacet
  facet normal  9.846798e-01  1.729627e-01  2.212454e-02
    outer loop
      vertex   3.064683e+00  3.261595e+01  8.200001e+00
      vertex   3.475198e+00  3.128301e+01  3.500004e-01
      vertex   3.469132e+00  3.133298e+01  2.293396e-01
    endloop
  endfacet
  facet normal  9.740223e-01  2.260769e-01  1.303435e-02
    outer loop
      vertex   3.064683e+00  3.261595e+01  8.200001e+00
      vertex   3.469132e+00  3.133298e+01  2.293396e-01
      vertex   3.466912e+00  3.135000e+01  1.000004e-01
    endloop
  endfacet
  facet normal  9.846817e-01 -1.729524e-01  2.212628e-02
    outer loop
      vertex   3.469136e+00  3.036706e+01  2.294903e-01
      vertex   3.475198e+00  3.041699e+01  3.500004e-01
      vertex   3.064683e+00  2.908405e+01  8.200001e+00
    endloop
  endfacet
  facet normal  9.921681e-01  1.209107e-01 -3.135453e-02
    outer loop
      vertex   3.475198e+00  3.128301e+01 -1.499996e-01
      vertex   3.491717e+00  3.110000e+01 -3.330097e-01
      vertex   3.064683e+00  3.261595e+01 -8.000000e+00
    endloop
  endfacet
  facet normal  9.968329e-01  6.740788e-02 -4.219316e-02
    outer loop
      vertex   3.064683e+00  3.261595e+01 -8.000000e+00
      vertex   3.491717e+00  3.110000e+01 -3.330097e-01
      vertex   3.497728e+00  3.097993e+01 -3.828201e-01
    endloop
  endfacet
  facet normal  9.709349e-01  2.393135e-01 -3.798897e-03
    outer loop
      vertex   3.064683e+00  3.261595e+01 -8.000000e+00
      vertex   3.497728e+00  3.097993e+01 -3.828201e-01
      vertex   3.499950e+00  3.085000e+01 -8.000000e+00
    endloop
  endfacet
  facet normal  9.998538e-01  1.709759e-02 -0.000000e+00
    outer loop
      vertex   3.499950e+00  3.085000e+01 -8.000000e+00
      vertex   3.497728e+00  3.097993e+01 -3.828201e-01
      vertex   3.499950e+00  3.085000e+01 -3.999996e-01
    endloop
  endfacet
  facet normal  9.709420e-01 -2.393152e-01  0.000000e+00
    outer loop
      vertex   3.499950e+00  3.085000e+01 -8.000000e+00
      vertex   3.499950e+00  3.085000e+01 -3.999996e-01
      vertex   3.064683e+00  2.908405e+01 -8.000000e+00
    endloop
  endfacet
  facet normal  9.983819e-01 -2.378502e-02 -5.165259e-02
    outer loop
      vertex   3.064683e+00  2.908405e+01 -8.000000e+00
      vertex   3.499950e+00  3.085000e+01 -3.999996e-01
      vertex   3.497749e+00  3.072066e+01 -3.829803e-01
    endloop
  endfacet
  facet normal  9.968384e-01 -6.731569e-02 -4.221167e-02
    outer loop
      vertex   3.064683e+00  2.908405e+01 -8.000000e+00
      vertex   3.497749e+00  3.072066e+01 -3.829803e-01
      vertex   3.491717e+00  3.060000e+01 -3.330097e-01
    endloop
  endfacet
  facet normal  9.921681e-01 -1.209107e-01 -3.135453e-02
    outer loop
      vertex   3.491717e+00  3.060000e+01 -3.330097e-01
      vertex   3.475198e+00  3.041699e+01 -1.499996e-01
      vertex   3.064683e+00  2.908405e+01 -8.000000e+00
    endloop
  endfacet
  facet normal  9.846839e-01 -1.729393e-01 -2.212864e-02
    outer loop
      vertex   3.064683e+00  2.908405e+01 -8.000000e+00
      vertex   3.475198e+00  3.041699e+01 -1.499996e-01
      vertex   3.469140e+00  3.036709e+01 -2.959061e-02
    endloop
  endfacet
  facet normal  9.740478e-01 -2.259658e-01 -1.305286e-02
    outer loop
      vertex   3.064683e+00  2.908405e+01 -8.000000e+00
      vertex   3.469140e+00  3.036709e+01 -2.959061e-02
      vertex   3.466912e+00  3.035000e+01  1.000004e-01
    endloop
  endfacet
  facet normal  9.740381e-01 -2.260078e-01  1.304588e-02
    outer loop
      vertex   3.469136e+00  3.036706e+01  2.294903e-01
      vertex   3.064683e+00  2.908405e+01  8.200001e+00
      vertex   3.466912e+00  3.035000e+01  1.000004e-01
    endloop
  endfacet
  facet normal  9.921681e-01 -1.209107e-01  3.135453e-02
    outer loop
      vertex   3.475198e+00  3.041699e+01  3.500004e-01
      vertex   3.491717e+00  3.060000e+01  5.330105e-01
      vertex   3.064683e+00  2.908405e+01  8.200001e+00
    endloop
  endfacet
  facet normal  9.968371e-01 -6.733651e-02  4.220751e-02
    outer loop
      vertex   3.064683e+00  2.908405e+01  8.200001e+00
      vertex   3.491717e+00  3.060000e+01  5.330105e-01
      vertex   3.497743e+00  3.072050e+01  5.829391e-01
    endloop
  endfacet
  facet normal  9.709349e-01 -2.393135e-01  3.787297e-03
    outer loop
      vertex   3.064683e+00  2.908405e+01  8.200001e+00
      vertex   3.497743e+00  3.072050e+01  5.829391e-01
      vertex   3.499950e+00  3.085000e+01  8.200001e+00
    endloop
  endfacet
  facet normal  9.998548e-01 -1.704038e-02  0.000000e+00
    outer loop
      vertex   3.499950e+00  3.085000e+01  8.200001e+00
      vertex   3.497743e+00  3.072050e+01  5.829391e-01
      vertex   3.499950e+00  3.085000e+01  6.000004e-01
    endloop
  endfacet
  facet normal  9.709420e-01  2.393152e-01  0.000000e+00
    outer loop
      vertex   3.499950e+00  3.085000e+01  8.200001e+00
      vertex   3.499950e+00  3.085000e+01  6.000004e-01
      vertex   3.064683e+00  3.261595e+01  8.200001e+00
    endloop
  endfacet
  facet normal  9.983813e-01  2.383382e-02  5.164123e-02
    outer loop
      vertex   3.064683e+00  3.261595e+01  8.200001e+00
      vertex   3.499950e+00  3.085000e+01  6.000004e-01
      vertex   3.497740e+00  3.097958e+01  5.829201e-01
    endloop
  endfacet
  facet normal  9.968364e-01  6.734981e-02  4.220483e-02
    outer loop
      vertex   3.064683e+00  3.261595e+01  8.200001e+00
      vertex   3.497740e+00  3.097958e+01  5.829201e-01
      vertex   3.491717e+00  3.110000e+01  5.330105e-01
    endloop
  endfacet
  facet normal  9.530504e-01 -3.028115e-01  0.000000e+00
    outer loop
      vertex   3.466912e+00  3.035000e+01  1.000004e-01
      vertex   3.064683e+00  2.908405e+01  8.200001e+00
      vertex   3.064683e+00  2.908405e+01 -8.000000e+00
    endloop
  endfacet
  facet normal  7.485104e-01 -6.631231e-01  0.000000e+00
    outer loop
      vertex   3.064683e+00  2.908405e+01 -8.000000e+00
      vertex   3.064683e+00  2.908405e+01  8.200001e+00
      vertex   1.858596e+00  2.772266e+01  8.200001e+00
    endloop
  endfacet
  facet normal  7.485104e-01 -6.631231e-01  0.000000e+00
    outer loop
      vertex   3.064683e+00  2.908405e+01 -8.000000e+00
      vertex   1.858596e+00  2.772266e+01  8.200001e+00
      vertex   1.858596e+00  2.772266e+01 -8.000000e+00
    endloop
  endfacet
  facet normal  3.546029e-01 -9.350170e-01  0.000000e+00
    outer loop
      vertex   1.858596e+00  2.772266e+01 -8.000000e+00
      vertex   1.858596e+00  2.772266e+01  8.200001e+00
      vertex   1.579890e-01  2.707771e+01  8.200001e+00
    endloop
  endfacet
  facet normal  3.546029e-01 -9.350170e-01  0.000000e+00
    outer loop
      vertex   1.858596e+00  2.772266e+01 -8.000000e+00
      vertex   1.579890e-01  2.707771e+01  8.200001e+00
      vertex   1.579890e-01  2.707771e+01 -8.000000e+00
    endloop
  endfacet
  facet normal -1.205359e-01 -9.927090e-01  0.000000e+00
    outer loop
      vertex   1.579890e-01  2.707771e+01 -8.000000e+00
      vertex   1.579890e-01  2.707771e+01  8.200001e+00
      vertex  -1.647549e+00  2.729694e+01  8.200001e+00
    endloop
  endfacet
  facet normal -1.205359e-01 -9.927090e-01  0.000000e+00
    outer loop
      vertex   1.579890e-01  2.707771e+01 -8.000000e+00
      vertex  -1.647549e+00  2.729694e+01  8.200001e+00
      vertex  -1.647549e+00  2.729694e+01 -8.000000e+00
    endloop
  endfacet
  facet normal -5.680626e-01 -8.229854e-01  0.000000e+00
    outer loop
      vertex  -1.647549e+00  2.729694e+01 -8.000000e+00
      vertex  -1.647549e+00  2.729694e+01  8.200001e+00
      vertex  -3.144391e+00  2.833013e+01  8.200001e+00
    endloop
  endfacet
  facet normal -5.680626e-01 -8.229854e-01  0.000000e+00
    outer loop
      vertex  -1.647549e+00  2.729694e+01 -8.000000e+00
      vertex  -3.144391e+00  2.833013e+01  8.200001e+00
      vertex  -3.144391e+00  2.833013e+01 -8.000000e+00
    endloop
  endfacet
  facet normal -8.854578e-01 -4.647198e-01  0.000000e+00
    outer loop
      vertex  -3.144391e+00  2.833013e+01 -8.000000e+00
      vertex  -3.144391e+00  2.833013e+01  8.200001e+00
      vertex  -3.989629e+00  2.994061e+01  8.200001e+00
    endloop
  endfacet
  facet normal -8.854578e-01 -4.647198e-01  0.000000e+00
    outer loop
      vertex  -3.144391e+00  2.833013e+01 -8.000000e+00
      vertex  -3.989629e+00  2.994061e+01  8.200001e+00
      vertex  -3.989629e+00  2.994061e+01 -8.000000e+00
    endloop
  endfacet
  facet normal -1.000000e+00  0.000000e+00  0.000000e+00
    outer loop
      vertex  -3.989629e+00  2.994061e+01 -8.000000e+00
      vertex  -3.989629e+00  2.994061e+01  8.200001e+00
      vertex  -3.989629e+00  3.175940e+01  8.200001e+00
    endloop
  endfacet
  facet normal -1.000000e+00  0.000000e+00  0.000000e+00
    outer loop
      vertex  -3.989629e+00  2.994061e+01 -8.000000e+00
      vertex  -3.989629e+00  3.175940e+01  8.200001e+00
      vertex  -3.989629e+00  3.175940e+01 -8.000000e+00
    endloop
  endfacet
  facet normal -8.854564e-01  4.647224e-01  0.000000e+00
    outer loop
      vertex  -3.989629e+00  3.175940e+01 -8.000000e+00
      vertex  -3.989629e+00  3.175940e+01  8.200001e+00
      vertex  -3.144391e+00  3.336987e+01  8.200001e+00
    endloop
  endfacet
  facet normal -8.854564e-01  4.647224e-01  0.000000e+00
    outer loop
      vertex  -3.989629e+00  3.175940e+01 -8.000000e+00
      vertex  -3.144391e+00  3.336987e+01  8.200001e+00
      vertex  -3.144391e+00  3.336987e+01 -8.000000e+00
    endloop
  endfacet
  facet normal -5.680633e-01  8.229849e-01  0.000000e+00
    outer loop
      vertex  -3.144391e+00  3.336987e+01 -8.000000e+00
      vertex  -3.144391e+00  3.336987e+01  8.200001e+00
      vertex  -1.647549e+00  3.440306e+01  8.200001e+00
    endloop
  endfacet
  facet normal -5.680633e-01  8.229849e-01  0.000000e+00
    outer loop
      vertex  -3.144391e+00  3.336987e+01 -8.000000e+00
      vertex  -1.647549e+00  3.440306e+01  8.200001e+00
      vertex  -1.647549e+00  3.440306e+01 -8.000000e+00
    endloop
  endfacet
  facet normal -1.802566e-01  9.836196e-01  0.000000e+00
    outer loop
      vertex  -1.647549e+00  3.440306e+01 -8.000000e+00
      vertex  -1.647549e+00  3.440306e+01  8.200001e+00
      vertex  -3.000498e-01  3.465000e+01 -8.000000e+00
    endloop
  endfacet
  facet normal -1.802566e-01  9.836196e-01  0.000000e+00
    outer loop
      vertex  -3.000498e-01  3.465000e+01 -8.000000e+00
      vertex  -1.647549e+00  3.440306e+01  8.200001e+00
      vertex  -3.000498e-01  3.465000e+01  8.200001e+00
    endloop
  endfacet
  facet normal  6.038657e-02  9.981751e-01 -0.000000e+00
    outer loop
      vertex  -3.000498e-01  3.465000e+01 -8.000000e+00
      vertex  -3.000498e-01  3.465000e+01  8.200001e+00
      vertex   1.579890e-01  3.462229e+01 -8.000000e+00
    endloop
  endfacet
  facet normal  6.038657e-02  9.981751e-01  0.000000e+00
    outer loop
      vertex  -3.000498e-01  3.465000e+01  8.200001e+00
      vertex   1.579890e-01  3.462229e+01  8.200001e+00
      vertex   1.579890e-01  3.462229e+01 -8.000000e+00
    endloop
  endfacet
  facet normal  3.546029e-01  9.350170e-01 -0.000000e+00
    outer loop
      vertex   1.579890e-01  3.462229e+01 -8.000000e+00
      vertex   1.579890e-01  3.462229e+01  8.200001e+00
      vertex   1.858596e+00  3.397734e+01  8.200001e+00
    endloop
  endfacet
  facet normal  3.546029e-01  9.350170e-01  0.000000e+00
    outer loop
      vertex   1.579890e-01  3.462229e+01 -8.000000e+00
      vertex   1.858596e+00  3.397734e+01  8.200001e+00
      vertex   1.858596e+00  3.397734e+01 -8.000000e+00
    endloop
  endfacet
  facet normal  7.485104e-01  6.631231e-01 -0.000000e+00
    outer loop
      vertex   1.858596e+00  3.397734e+01 -8.000000e+00
      vertex   1.858596e+00  3.397734e+01  8.200001e+00
      vertex   3.064683e+00  3.261595e+01  8.200001e+00
    endloop
  endfacet
  facet normal  7.485104e-01  6.631231e-01  0.000000e+00
    outer loop
      vertex   1.858596e+00  3.397734e+01 -8.000000e+00
      vertex   3.064683e+00  3.261595e+01  8.200001e+00
      vertex   3.064683e+00  3.261595e+01 -8.000000e+00
    endloop
  endfacet
  facet normal  9.530504e-01  3.028115e-01 -0.000000e+00
    outer loop
      vertex   3.064683e+00  3.261595e+01 -8.000000e+00
      vertex   3.064683e+00  3.261595e+01  8.200001e+00
      vertex   3.466912e+00  3.135000e+01  1.000004e-01
    endloop
  endfacet
  facet normal  9.740276e-01  2.260536e-01 -1.303819e-02
    outer loop
      vertex   3.064683e+00  3.261595e+01 -8.000000e+00
      vertex   3.466912e+00  3.135000e+01  1.000004e-01
      vertex   3.469131e+00  3.133298e+01 -2.934074e-02
    endloop
  endfacet
  facet normal  0.000000e+00  1.000000e+00  0.000000e+00
    outer loop
      vertex   4.599950e+00  4.785000e+01  1.610000e+01
      vertex   4.599950e+00  4.785000e+01  8.200001e+00
      vertex  -4.600050e+00  4.785000e+01  1.610000e+01
    endloop
  endfacet
  facet normal  0.000000e+00  1.000000e+00  0.000000e+00
    outer loop
      vertex  -4.600050e+00  4.785000e+01  1.610000e+01
      vertex   4.599950e+00  4.785000e+01  8.200001e+00
      vertex  -4.600050e+00  4.785000e+01  8.200001e+00
    endloop
  endfacet
  facet normal  0.000000e+00  0.000000e+00  1.000000e+00
    outer loop
      vertex  -1.647549e+00  2.729694e+01  1.610000e+01
      vertex  -4.600050e+00 -4.785000e+01  1.610000e+01
      vertex   1.579890e-01  2.707771e+01  1.610000e+01
    endloop
  endfacet
  facet normal  0.000000e+00  0.000000e+00  1.000000e+00
    outer loop
      vertex   1.579890e-01  2.707771e+01  1.610000e+01
      vertex  -4.600050e+00 -4.785000e+01  1.610000e+01
      vertex   4.599950e+00 -4.785000e+01  1.610000e+01
    endloop
  endfacet
  facet normal -0.000000e+00  0.000000e+00  1.000000e+00
    outer loop
      vertex   1.579890e-01  2.707771e+01  1.610000e+01
      vertex   4.599950e+00 -4.785000e+01  1.610000e+01
      vertex   1.858596e+00  2.772266e+01  1.610000e+01
    endloop
  endfacet
  facet normal -0.000000e+00  0.000000e+00  1.000000e+00
    outer loop
      vertex   1.858596e+00  3.397734e+01  1.610000e+01
      vertex   3.064683e+00  3.261595e+01  1.610000e+01
      vertex   4.599950e+00  4.785000e+01  1.610000e+01
    endloop
  endfacet
  facet normal  0.000000e+00  0.000000e+00  1.000000e+00
    outer loop
      vertex   4.599950e+00  4.785000e+01  1.610000e+01
      vertex   3.064683e+00  3.261595e+01  1.610000e+01
      vertex   3.499950e+00  3.085000e+01  1.610000e+01
    endloop
  endfacet
  facet normal  0.000000e+00  0.000000e+00  1.000000e+00
    outer loop
      vertex   4.599950e+00  4.785000e+01  1.610000e+01
      vertex   3.499950e+00  3.085000e+01  1.610000e+01
      vertex   4.599950e+00 -4.785000e+01  1.610000e+01
    endloop
  endfacet
  facet normal  0.000000e+00  0.000000e+00  1.000000e+00
    outer loop
      vertex   4.599950e+00 -4.785000e+01  1.610000e+01
      vertex   3.499950e+00  3.085000e+01  1.610000e+01
      vertex   3.064683e+00  2.908405e+01  1.610000e+01
    endloop
  endfacet
  facet normal  0.000000e+00  0.000000e+00  1.000000e+00
    outer loop
      vertex   4.599950e+00 -4.785000e+01  1.610000e+01
      vertex   3.064683e+00  2.908405e+01  1.610000e+01
      vertex   1.858596e+00  2.772266e+01  1.610000e+01
    endloop
  endfacet
  facet normal  0.000000e+00  0.000000e+00  1.000000e+00
    outer loop
      vertex  -1.647549e+00  2.729694e+01  1.610000e+01
      vertex  -3.144391e+00  2.833013e+01  1.610000e+01
      vertex  -4.600050e+00 -4.785000e+01  1.610000e+01
    endloop
  endfacet
  facet normal  0.000000e+00  0.000000e+00  1.000000e+00
    outer loop
      vertex  -4.600050e+00 -4.785000e+01  1.610000e+01
      vertex  -3.144391e+00  2.833013e+01  1.610000e+01
      vertex  -3.989629e+00  2.994061e+01  1.610000e+01
    endloop
  endfacet
  facet normal  0.000000e+00  0.000000e+00  1.000000e+00
    outer loop
      vertex  -4.600050e+00 -4.785000e+01  1.610000e+01
      vertex  -3.989629e+00  2.994061e+01  1.610000e+01
      vertex  -4.600050e+00  4.785000e+01  1.610000e+01
    endloop
  endfacet
  facet normal  0.000000e+00  0.000000e+00  1.000000e+00
    outer loop
      vertex  -4.600050e+00  4.785000e+01  1.610000e+01
      vertex  -3.989629e+00  2.994061e+01  1.610000e+01
      vertex  -3.989629e+00  3.175940e+01  1.610000e+01
    endloop
  endfacet
  facet normal  0.000000e+00  0.000000e+00  1.000000e+00
    outer loop
      vertex  -4.600050e+00  4.785000e+01  1.610000e+01
      vertex  -3.989629e+00  3.175940e+01  1.610000e+01
      vertex  -3.144391e+00  3.336987e+01  1.610000e+01
    endloop
  endfacet
  facet normal  0.000000e+00 -0.000000e+00  1.000000e+00
    outer loop
      vertex  -3.144391e+00  3.336987e+01  1.610000e+01
      vertex  -1.647549e+00  3.440306e+01  1.610000e+01
      vertex  -4.600050e+00  4.785000e+01  1.610000e+01
    endloop
  endfacet
  facet normal  0.000000e+00  0.000000e+00  1.000000e+00
    outer loop
      vertex  -4.600050e+00  4.785000e+01  1.610000e+01
      vertex  -1.647549e+00  3.440306e+01  1.610000e+01
      vertex  -3.000498e-01  3.465000e+01  1.610000e+01
    endloop
  endfacet
  facet normal -0.000000e+00  0.000000e+00  1.000000e+00
    outer loop
      vertex  -4.600050e+00  4.785000e+01  1.610000e+01
      vertex  -3.000498e-01  3.465000e+01  1.610000e+01
      vertex   4.599950e+00  4.785000e+01  1.610000e+01
    endloop
  endfacet
  facet normal  0.000000e+00  0.000000e+00  1.000000e+00
    outer loop
      vertex   4.599950e+00  4.785000e+01  1.610000e+01
      vertex  -3.000498e-01  3.465000e+01  1.610000e+01
      vertex   1.579890e-01  3.462229e+01  1.610000e+01
    endloop
  endfacet
  facet normal  0.000000e+00  0.000000e+00  1.000000e+00
    outer loop
      vertex   4.599950e+00  4.785000e+01  1.610000e+01
      vertex   1.579890e-01  3.462229e+01  1.610000e+01
      vertex   1.858596e+00  3.397734e+01  1.610000e+01
    endloop
  endfacet
  facet normal  0.000000e+00 -1.000000e+00  0.000000e+00
    outer loop
      vertex   4.599950e+00 -4.785000e+01  8.200001e+00
      vertex   4.599950e+00 -4.785000e+01  1.610000e+01
      vertex  -4.600050e+00 -4.785000e+01  8.200001e+00
    endloop
  endfacet
  facet normal  0.000000e+00 -1.000000e+00  0.000000e+00
    outer loop
      vertex  -4.600050e+00 -4.785000e+01  8.200001e+00
      vertex   4.599950e+00 -4.785000e+01  1.610000e+01
      vertex  -4.600050e+00 -4.785000e+01  1.610000e+01
    endloop
  endfacet
  facet normal -0.000000e+00  0.000000e+00 -1.000000e+00
    outer loop
      vertex  -1.647549e+00  3.440306e+01  8.200001e+00
      vertex  -3.144391e+00  3.336987e+01  8.200001e+00
      vertex  -4.600050e+00  4.785000e+01  8.200001e+00
    endloop
  endfacet
  facet normal  0.000000e+00  0.000000e+00 -1.000000e+00
    outer loop
      vertex  -4.600050e+00 -4.785000e+01  8.200001e+00
      vertex  -1.647549e+00  2.729694e+01  8.200001e+00
      vertex   4.599950e+00 -4.785000e+01  8.200001e+00
    endloop
  endfacet
  facet normal  0.000000e+00  0.000000e+00 -1.000000e+00
    outer loop
      vertex   4.599950e+00 -4.785000e+01  8.200001e+00
      vertex  -1.647549e+00  2.729694e+01  8.200001e+00
      vertex   1.579890e-01  2.707771e+01  8.200001e+00
    endloop
  endfacet
  facet normal  0.000000e+00  0.000000e+00 -1.000000e+00
    outer loop
      vertex   4.599950e+00 -4.785000e+01  8.200001e+00
      vertex   1.579890e-01  2.707771e+01  8.200001e+00
      vertex   1.858596e+00  2.772266e+01  8.200001e+00
    endloop
  endfacet
  facet normal -0.000000e+00  0.000000e+00 -1.000000e+00
    outer loop
      vertex  -3.144391e+00  3.336987e+01  8.200001e+00
      vertex  -3.989629e+00  3.175940e+01  8.200001e+00
      vertex  -4.600050e+00  4.785000e+01  8.200001e+00
    endloop
  endfacet
  facet normal  0.000000e+00  0.000000e+00 -1.000000e+00
    outer loop
      vertex  -4.600050e+00  4.785000e+01  8.200001e+00
      vertex  -3.989629e+00  3.175940e+01  8.200001e+00
      vertex  -3.989629e+00  2.994061e+01  8.200001e+00
    endloop
  endfacet
  facet normal  0.000000e+00  0.000000e+00 -1.000000e+00
    outer loop
      vertex  -4.600050e+00  4.785000e+01  8.200001e+00
      vertex  -3.989629e+00  2.994061e+01  8.200001e+00
      vertex  -4.600050e+00 -4.785000e+01  8.200001e+00
    endloop
  endfacet
  facet normal  0.000000e+00  0.000000e+00 -1.000000e+00
    outer loop
      vertex  -4.600050e+00 -4.785000e+01  8.200001e+00
      vertex  -3.989629e+00  2.994061e+01  8.200001e+00
      vertex  -3.144391e+00  2.833013e+01  8.200001e+00
    endloop
  endfacet
  facet normal  0.000000e+00  0.000000e+00 -1.000000e+00
    outer loop
      vertex  -4.600050e+00 -4.785000e+01  8.200001e+00
      vertex  -3.144391e+00  2.833013e+01  8.200001e+00
      vertex  -1.647549e+00  2.729694e+01  8.200001e+00
    endloop
  endfacet
  facet normal  0.000000e+00  0.000000e+00 -1.000000e+00
    outer loop
      vertex   1.858596e+00  2.772266e+01  8.200001e+00
      vertex   3.064683e+00  2.908405e+01  8.200001e+00
      vertex   4.599950e+00 -4.785000e+01  8.200001e+00
    endloop
  endfacet
  facet normal  0.000000e+00  0.000000e+00 -1.000000e+00
    outer loop
      vertex   4.599950e+00 -4.785000e+01  8.200001e+00
      vertex   3.064683e+00  2.908405e+01  8.200001e+00
      vertex   3.499950e+00  3.085000e+01  8.200001e+00
    endloop
  endfacet
  facet normal  0.000000e+00  0.000000e+00 -1.000000e+00
    outer loop
      vertex   4.599950e+00 -4.785000e+01  8.200001e+00
      vertex   3.499950e+00  3.085000e+01  8.200001e+00
      vertex   4.599950e+00  4.785000e+01  8.200001e+00
    endloop
  endfacet
  facet normal  0.000000e+00  0.000000e+00 -1.000000e+00
    outer loop
      vertex   4.599950e+00  4.785000e+01  8.200001e+00
      vertex   3.499950e+00  3.085000e+01  8.200001e+00
      vertex   3.064683e+00  3.261595e+01  8.200001e+00
    endloop
  endfacet
  facet normal  0.000000e+00  0.000000e+00 -1.000000e+00
    outer loop
      vertex   3.064683e+00  3.261595e+01  8.200001e+00
      vertex   1.858596e+00  3.397734e+01  8.200001e+00
      vertex   4.599950e+00  4.785000e+01  8.200001e+00
    endloop
  endfacet
  facet normal  0.000000e+00  0.000000e+00 -1.000000e+00
    outer loop
      vertex   4.599950e+00  4.785000e+01  8.200001e+00
      vertex   1.858596e+00  3.397734e+01  8.200001e+00
      vertex   1.579890e-01  3.462229e+01  8.200001e+00
    endloop
  endfacet
  facet normal -0.000000e+00  0.000000e+00 -1.000000e+00
    outer loop
      vertex   4.599950e+00  4.785000e+01  8.200001e+00
      vertex   1.579890e-01  3.462229e+01  8.200001e+00
      vertex  -4.600050e+00  4.785000e+01  8.200001e+00
    endloop
  endfacet
  facet normal  0.000000e+00  0.000000e+00 -1.000000e+00
    outer loop
      vertex  -4.600050e+00  4.785000e+01  8.200001e+00
      vertex   1.579890e-01  3.462229e+01  8.200001e+00
      vertex  -3.000498e-01  3.465000e+01  8.200001e+00
    endloop
  endfacet
  facet normal  0.000000e+00  0.000000e+00 -1.000000e+00
    outer loop
      vertex  -4.600050e+00  4.785000e+01  8.200001e+00
      vertex  -3.000498e-01  3.465000e+01  8.200001e+00
      vertex  -1.647549e+00  3.440306e+01  8.200001e+00
    endloop
  endfacet
  facet normal  1.000000e+00 -0.000000e+00  0.000000e+00
    outer loop
      vertex   4.599950e+00 -4.785000e+01  1.610000e+01
      vertex   4.599950e+00 -4.785000e+01  8.200001e+00
      vertex   4.599950e+00  4.785000e+01  1.610000e+01
    endloop
  endfacet
  facet normal  1.000000e+00  0.000000e+00  0.000000e+00
    outer loop
      vertex   4.599950e+00  4.785000e+01  1.610000e+01
      vertex   4.599950e+00 -4.785000e+01  8.200001e+00
      vertex   4.599950e+00  4.785000e+01  8.200001e+00
    endloop
  endfacet
  facet normal -1.000000e+00  0.000000e+00  0.000000e+00
    outer loop
      vertex  -4.600050e+00 -4.785000e+01  8.200001e+00
      vertex  -4.600050e+00 -4.785000e+01  1.610000e+01
      vertex  -4.600050e+00  4.785000e+01  8.200001e+00
    endloop
  endfacet
  facet normal -1.000000e+00  0.000000e+00  0.000000e+00
    outer loop
      vertex  -4.600050e+00  4.785000e+01  8.200001e+00
      vertex  -4.600050e+00 -4.785000e+01  1.610000e+01
      vertex  -4.600050e+00  4.785000e+01  1.610000e+01
    endloop
  endfacet
  facet normal -1.802566e-01  9.836196e-01  0.000000e+00
    outer loop
      vertex  -3.000498e-01  3.465000e+01  1.610000e+01
      vertex  -1.647549e+00  3.440306e+01  1.610000e+01
      vertex  -1.647549e+00  3.440306e+01  2.400000e+01
    endloop
  endfacet
  facet normal -5.680633e-01  8.229848e-01  0.000000e+00
    outer loop
      vertex  -1.647549e+00  3.440306e+01  2.400000e+01
      vertex  -1.647549e+00  3.440306e+01  1.610000e+01
      vertex  -3.144391e+00  3.336987e+01  1.610000e+01
    endloop
  endfacet
  facet normal -5.680633e-01  8.229848e-01  0.000000e+00
    outer loop
      vertex  -1.647549e+00  3.440306e+01  2.400000e+01
      vertex  -3.144391e+00  3.336987e+01  1.610000e+01
      vertex  -3.144391e+00  3.336987e+01  2.400000e+01
    endloop
  endfacet
  facet normal -8.854564e-01  4.647224e-01  0.000000e+00
    outer loop
      vertex  -3.144391e+00  3.336987e+01  2.400000e+01
      vertex  -3.144391e+00  3.336987e+01  1.610000e+01
      vertex  -3.989629e+00  3.175940e+01  1.610000e+01
    endloop
  endfacet
  facet normal -8.854564e-01  4.647224e-01  0.000000e+00
    outer loop
      vertex  -3.144391e+00  3.336987e+01  2.400000e+01
      vertex  -3.989629e+00  3.175940e+01  1.610000e+01
      vertex  -3.989629e+00  3.175940e+01  2.400000e+01
    endloop
  endfacet
  facet normal -1.000000e+00  0.000000e+00 -0.000000e+00
    outer loop
      vertex  -3.989629e+00  3.175940e+01  2.400000e+01
      vertex  -3.989629e+00  3.175940e+01  1.610000e+01
      vertex  -3.989629e+00  2.994061e+01  1.610000e+01
    endloop
  endfacet
  facet normal -1.000000e+00 -0.000000e+00  0.000000e+00
    outer loop
      vertex  -3.989629e+00  3.175940e+01  2.400000e+01
      vertex  -3.989629e+00  2.994061e+01  1.610000e+01
      vertex  -3.989629e+00  2.994061e+01  2.400000e+01
    endloop
  endfacet
  facet normal -8.854578e-01 -4.647198e-01 -0.000000e+00
    outer loop
      vertex  -3.989629e+00  2.994061e+01  2.400000e+01
      vertex  -3.989629e+00  2.994061e+01  1.610000e+01
      vertex  -3.144391e+00  2.833013e+01  1.610000e+01
    endloop
  endfacet
  facet normal -8.854578e-01 -4.647198e-01  0.000000e+00
    outer loop
      vertex  -3.989629e+00  2.994061e+01  2.400000e+01
      vertex  -3.144391e+00  2.833013e+01  1.610000e+01
      vertex  -3.144391e+00  2.833013e+01  2.400000e+01
    endloop
  endfacet
  facet normal -5.680627e-01 -8.229854e-01 -0.000000e+00
    outer loop
      vertex  -3.144391e+00  2.833013e+01  2.400000e+01
      vertex  -3.144391e+00  2.833013e+01  1.610000e+01
      vertex  -1.647549e+00  2.729694e+01  1.610000e+01
    endloop
  endfacet
  facet normal -5.680627e-01 -8.229854e-01  0.000000e+00
    outer loop
      vertex  -3.144391e+00  2.833013e+01  2.400000e+01
      vertex  -1.647549e+00  2.729694e+01  1.610000e+01
      vertex  -1.647549e+00  2.729694e+01  2.400000e+01
    endloop
  endfacet
  facet normal -1.205359e-01 -9.927090e-01 -0.000000e+00
    outer loop
      vertex  -1.647549e+00  2.729694e+01  2.400000e+01
      vertex  -1.647549e+00  2.729694e+01  1.610000e+01
      vertex   1.579890e-01  2.707771e+01  1.610000e+01
    endloop
  endfacet
  facet normal -1.205359e-01 -9.927090e-01  0.000000e+00
    outer loop
      vertex  -1.647549e+00  2.729694e+01  2.400000e+01
      vertex   1.579890e-01  2.707771e+01  1.610000e+01
      vertex   1.579890e-01  2.707771e+01  2.400000e+01
    endloop
  endfacet
  facet normal  3.546028e-01 -9.350170e-01  0.000000e+00
    outer loop
      vertex   1.579890e-01  2.707771e+01  2.400000e+01
      vertex   1.579890e-01  2.707771e+01  1.610000e+01
      vertex   1.858596e+00  2.772266e+01  1.610000e+01
    endloop
  endfacet
  facet normal  3.546028e-01 -9.350170e-01  0.000000e+00
    outer loop
      vertex   1.579890e-01  2.707771e+01  2.400000e+01
      vertex   1.858596e+00  2.772266e+01  1.610000e+01
      vertex   1.858596e+00  2.772266e+01  2.400000e+01
    endloop
  endfacet
  facet normal  7.485104e-01 -6.631231e-01  0.000000e+00
    outer loop
      vertex   1.858596e+00  2.772266e+01  2.400000e+01
      vertex   1.858596e+00  2.772266e+01  1.610000e+01
      vertex   3.064683e+00  2.908405e+01  1.610000e+01
    endloop
  endfacet
  facet normal  7.485104e-01 -6.631231e-01  0.000000e+00
    outer loop
      vertex   1.858596e+00  2.772266e+01  2.400000e+01
      vertex   3.064683e+00  2.908405e+01  1.610000e+01
      vertex   3.064683e+00  2.908405e+01  2.400000e+01
    endloop
  endfacet
  facet normal  9.709419e-01 -2.393152e-01  0.000000e+00
    outer loop
      vertex   3.064683e+00  2.908405e+01  2.400000e+01
      vertex   3.064683e+00  2.908405e+01  1.610000e+01
      vertex   3.499950e+00  3.085000e+01  1.610000e+01
    endloop
  endfacet
  facet normal  9.709419e-01 -2.393152e-01  0.000000e+00
    outer loop
      vertex   3.064683e+00  2.908405e+01  2.400000e+01
      vertex   3.499950e+00  3.085000e+01  1.610000e+01
      vertex   3.499950e+00  3.085000e+01  2.400000e+01
    endloop
  endfacet
  facet normal  9.709419e-01  2.393152e-01  0.000000e+00
    outer loop
      vertex   3.499950e+00  3.085000e+01  2.400000e+01
      vertex   3.499950e+00  3.085000e+01  1.610000e+01
      vertex   3.064683e+00  3.261595e+01  1.610000e+01
    endloop
  endfacet
  facet normal  9.709419e-01  2.393152e-01  0.000000e+00
    outer loop
      vertex   3.499950e+00  3.085000e+01  2.400000e+01
      vertex   3.064683e+00  3.261595e+01  1.610000e+01
      vertex   3.064683e+00  3.261595e+01  2.400000e+01
    endloop
  endfacet
  facet normal  7.485104e-01  6.631231e-01  0.000000e+00
    outer loop
      vertex   3.064683e+00  3.261595e+01  2.400000e+01
      vertex   3.064683e+00  3.261595e+01  1.610000e+01
      vertex   1.858596e+00  3.397734e+01  1.610000e+01
    endloop
  endfacet
  facet normal  7.485104e-01  6.631231e-01  0.000000e+00
    outer loop
      vertex   3.064683e+00  3.261595e+01  2.400000e+01
      vertex   1.858596e+00  3.397734e+01  1.610000e+01
      vertex   1.858596e+00  3.397734e+01  2.400000e+01
    endloop
  endfacet
  facet normal  3.546028e-01  9.350170e-01  0.000000e+00
    outer loop
      vertex   1.858596e+00  3.397734e+01  2.400000e+01
      vertex   1.858596e+00  3.397734e+01  1.610000e+01
      vertex   1.579890e-01  3.462229e+01  1.610000e+01
    endloop
  endfacet
  facet normal  3.546028e-01  9.350170e-01  0.000000e+00
    outer loop
      vertex   1.858596e+00  3.397734e+01  2.400000e+01
      vertex   1.579890e-01  3.462229e+01  1.610000e+01
      vertex   1.579890e-01  3.462229e+01  2.400000e+01
    endloop
  endfacet
  facet normal  6.038657e-02  9.981751e-01  0.000000e+00
    outer loop
      vertex   1.579890e-01  3.462229e+01  2.400000e+01
      vertex   1.579890e-01  3.462229e+01  1.610000e+01
      vertex  -3.000498e-01  3.465000e+01  1.610000e+01
    endloop
  endfacet
  facet normal -1.205293e-01  9.926546e-01  1.047007e-02
    outer loop
      vertex   1.579890e-01  3.462229e+01  2.400000e+01
      vertex  -3.000498e-01  3.465000e+01  1.610000e+01
      vertex  -1.647549e+00  3.440306e+01  2.400000e+01
    endloop
  endfacet
  facet normal  0.000000e+00  0.000000e+00  1.000000e+00
    outer loop
      vertex   3.499950e+00  3.085000e+01  2.400000e+01
      vertex   3.064683e+00  3.261595e+01  2.400000e+01
      vertex  -3.000498e-01  3.085000e+01  2.400000e+01
    endloop
  endfacet
  facet normal  0.000000e+00 -0.000000e+00  1.000000e+00
    outer loop
      vertex   1.579890e-01  2.707771e+01  2.400000e+01
      vertex   1.858596e+00  2.772266e+01  2.400000e+01
      vertex  -3.000498e-01  3.085000e+01  2.400000e+01
    endloop
  endfacet
  facet normal  0.000000e+00  0.000000e+00  1.000000e+00
    outer loop
      vertex  -3.000498e-01  3.085000e+01  2.400000e+01
      vertex   1.858596e+00  2.772266e+01  2.400000e+01
      vertex   3.064683e+00  2.908405e+01  2.400000e+01
    endloop
  endfacet
  facet normal -0.000000e+00  0.000000e+00  1.000000e+00
    outer loop
      vertex  -3.000498e-01  3.085000e+01  2.400000e+01
      vertex   3.064683e+00  2.908405e+01  2.400000e+01
      vertex   3.499950e+00  3.085000e+01  2.400000e+01
    endloop
  endfacet
  facet normal -0.000000e+00  0.000000e+00  1.000000e+00
    outer loop
      vertex  -3.989629e+00  2.994061e+01  2.400000e+01
      vertex  -3.144391e+00  2.833013e+01  2.400000e+01
      vertex  -3.000498e-01  3.085000e+01  2.400000e+01
    endloop
  endfacet
  facet normal  0.000000e+00  0.000000e+00  1.000000e+00
    outer loop
      vertex  -3.000498e-01  3.085000e+01  2.400000e+01
      vertex  -3.144391e+00  2.833013e+01  2.400000e+01
      vertex  -1.647549e+00  2.729694e+01  2.400000e+01
    endloop
  endfacet
  facet normal  0.000000e+00  0.000000e+00  1.000000e+00
    outer loop
      vertex  -3.000498e-01  3.085000e+01  2.400000e+01
      vertex  -1.647549e+00  2.729694e+01  2.400000e+01
      vertex   1.579890e-01  2.707771e+01  2.400000e+01
    endloop
  endfacet
  facet normal  0.000000e+00  0.000000e+00  1.000000e+00
    outer loop
      vertex  -1.647549e+00  3.440306e+01  2.400000e+01
      vertex  -3.144391e+00  3.336987e+01  2.400000e+01
      vertex  -3.000498e-01  3.085000e+01  2.400000e+01
    endloop
  endfacet
  facet normal  0.000000e+00  0.000000e+00  1.000000e+00
    outer loop
      vertex  -3.000498e-01  3.085000e+01  2.400000e+01
      vertex  -3.144391e+00  3.336987e+01  2.400000e+01
      vertex  -3.989629e+00  3.175940e+01  2.400000e+01
    endloop
  endfacet
  facet normal  0.000000e+00  0.000000e+00  1.000000e+00
    outer loop
      vertex  -3.000498e-01  3.085000e+01  2.400000e+01
      vertex  -3.989629e+00  3.175940e+01  2.400000e+01
      vertex  -3.989629e+00  2.994061e+01  2.400000e+01
    endloop
  endfacet
  facet normal  0.000000e+00  0.000000e+00  1.000000e+00
    outer loop
      vertex   3.064683e+00  3.261595e+01  2.400000e+01
      vertex   1.858596e+00  3.397734e+01  2.400000e+01
      vertex  -3.000498e-01  3.085000e+01  2.400000e+01
    endloop
  endfacet
  facet normal  0.000000e+00  0.000000e+00  1.000000e+00
    outer loop
      vertex  -3.000498e-01  3.085000e+01  2.400000e+01
      vertex   1.858596e+00  3.397734e+01  2.400000e+01
      vertex   1.579890e-01  3.462229e+01  2.400000e+01
    endloop
  endfacet
  facet normal  0.000000e+00 -0.000000e+00  1.000000e+00
    outer loop
      vertex  -3.000498e-01  3.085000e+01  2.400000e+01
      vertex   1.579890e-01  3.462229e+01  2.400000e+01
      vertex  -1.647549e+00  3.440306e+01  2.400000e+01
    endloop
  endfacet
  facet normal  0.000000e+00  0.000000e+00  1.000000e+00
    outer loop
      vertex  -1.647549e+00  2.729694e+01 -8.000000e+00
      vertex  -4.600050e+00 -4.785000e+01 -8.000000e+00
      vertex   1.579890e-01  2.707771e+01 -8.000000e+00
    endloop
  endfacet
  facet normal  0.000000e+00  0.000000e+00  1.000000e+00
    outer loop
      vertex   1.579890e-01  2.707771e+01 -8.000000e+00
      vertex  -4.600050e+00 -4.785000e+01 -8.000000e+00
      vertex   4.599950e+00 -4.785000e+01 -8.000000e+00
    endloop
  endfacet
  facet normal -0.000000e+00  0.000000e+00  1.000000e+00
    outer loop
      vertex   1.579890e-01  2.707771e+01 -8.000000e+00
      vertex   4.599950e+00 -4.785000e+01 -8.000000e+00
      vertex   1.858596e+00  2.772266e+01 -8.000000e+00
    endloop
  endfacet
  facet normal -0.000000e+00  0.000000e+00  1.000000e+00
    outer loop
      vertex   1.858596e+00  3.397734e+01 -8.000000e+00
      vertex   3.064683e+00  3.261595e+01 -8.000000e+00
      vertex   4.599950e+00  4.785000e+01 -8.000000e+00
    endloop
  endfacet
  facet normal  0.000000e+00  0.000000e+00  1.000000e+00
    outer loop
      vertex   4.599950e+00  4.785000e+01 -8.000000e+00
      vertex   3.064683e+00  3.261595e+01 -8.000000e+00
      vertex   3.499950e+00  3.085000e+01 -8.000000e+00
    endloop
  endfacet
  facet normal  0.000000e+00  0.000000e+00  1.000000e+00
    outer loop
      vertex   4.599950e+00  4.785000e+01 -8.000000e+00
      vertex   3.499950e+00  3.085000e+01 -8.000000e+00
      vertex   4.599950e+00 -4.785000e+01 -8.000000e+00
    endloop
  endfacet
  facet normal  0.000000e+00  0.000000e+00  1.000000e+00
    outer loop
      vertex   4.599950e+00 -4.785000e+01 -8.000000e+00
      vertex   3.499950e+00  3.085000e+01 -8.000000e+00
      vertex   3.064683e+00  2.908405e+01 -8.000000e+00
    endloop
  endfacet
  facet normal  0.000000e+00  0.000000e+00  1.000000e+00
    outer loop
      vertex   4.599950e+00 -4.785000e+01 -8.000000e+00
      vertex   3.064683e+00  2.908405e+01 -8.000000e+00
      vertex   1.858596e+00  2.772266e+01 -8.000000e+00
    endloop
  endfacet
  facet normal  0.000000e+00  0.000000e+00  1.000000e+00
    outer loop
      vertex  -1.647549e+00  2.729694e+01 -8.000000e+00
      vertex  -3.144391e+00  2.833013e+01 -8.000000e+00
      vertex  -4.600050e+00 -4.785000e+01 -8.000000e+00
    endloop
  endfacet
  facet normal  0.000000e+00  0.000000e+00  1.000000e+00
    outer loop
      vertex  -4.600050e+00 -4.785000e+01 -8.000000e+00
      vertex  -3.144391e+00  2.833013e+01 -8.000000e+00
      vertex  -3.989629e+00  2.994061e+01 -8.000000e+00
    endloop
  endfacet
  facet normal  0.000000e+00  0.000000e+00  1.000000e+00
    outer loop
      vertex  -4.600050e+00 -4.785000e+01 -8.000000e+00
      vertex  -3.989629e+00  2.994061e+01 -8.000000e+00
      vertex  -4.600050e+00  4.785000e+01 -8.000000e+00
    endloop
  endfacet
  facet normal  0.000000e+00  0.000000e+00  1.000000e+00
    outer loop
      vertex  -4.600050e+00  4.785000e+01 -8.000000e+00
      vertex  -3.989629e+00  2.994061e+01 -8.000000e+00
      vertex  -3.989629e+00  3.175940e+01 -8.000000e+00
    endloop
  endfacet
  facet normal  0.000000e+00  0.000000e+00  1.000000e+00
    outer loop
      vertex  -4.600050e+00  4.785000e+01 -8.000000e+00
      vertex  -3.989629e+00  3.175940e+01 -8.000000e+00
      vertex  -3.144391e+00  3.336987e+01 -8.000000e+00
    endloop
  endfacet
  facet normal  0.000000e+00 -0.000000e+00  1.000000e+00
    outer loop
      vertex  -3.144391e+00  3.336987e+01 -8.000000e+00
      vertex  -1.647549e+00  3.440306e+01 -8.000000e+00
      vertex  -4.600050e+00  4.785000e+01 -8.000000e+00
    endloop
  endfacet
  facet normal  0.000000e+00  0.000000e+00  1.000000e+00
    outer loop
      vertex  -4.600050e+00  4.785000e+01 -8.000000e+00
      vertex  -1.647549e+00  3.440306e+01 -8.000000e+00
      vertex  -3.000498e-01  3.465000e+01 -8.000000e+00
    endloop
  endfacet
  facet normal -0.000000e+00  0.000000e+00  1.000000e+00
    outer loop
      vertex  -4.600050e+00  4.785000e+01 -8.000000e+00
      vertex  -3.000498e-01  3.465000e+01 -8.000000e+00
      vertex   4.599950e+00  4.785000e+01 -8.000000e+00
    endloop
  endfacet
  facet normal  0.000000e+00  0.000000e+00  1.000000e+00
    outer loop
      vertex   4.599950e+00  4.785000e+01 -8.000000e+00
      vertex  -3.000498e-01  3.465000e+01 -8.000000e+00
      vertex   1.579890e-01  3.462229e+01 -8.000000e+00
    endloop
  endfacet
  facet normal  0.000000e+00  0.000000e+00  1.000000e+00
    outer loop
      vertex   4.599950e+00  4.785000e+01 -8.000000e+00
      vertex   1.579890e-01  3.462229e+01 -8.000000e+00
      vertex   1.858596e+00  3.397734e+01 -8.000000e+00
    endloop
  endfacet
  facet normal  0.000000e+00 -1.000000e+00  0.000000e+00
    outer loop
      vertex   4.599950e+00 -4.785000e+01 -1.590000e+01
      vertex   4.599950e+00 -4.785000e+01 -8.000000e+00
      vertex  -4.600050e+00 -4.785000e+01 -1.590000e+01
    endloop
  endfacet
  facet normal  0.000000e+00 -1.000000e+00  0.000000e+00
    outer loop
      vertex  -4.600050e+00 -4.785000e+01 -1.590000e+01
      vertex   4.599950e+00 -4.785000e+01 -8.000000e+00
      vertex  -4.600050e+00 -4.785000e+01 -8.000000e+00
    endloop
  endfacet
  facet normal  0.000000e+00  0.000000e+00 -1.000000e+00
    outer loop
      vertex   1.858596e+00  3.397734e+01 -1.590000e+01
      vertex   1.579890e-01  3.462229e+01 -1.590000e+01
      vertex   4.599950e+00  4.785000e+01 -1.590000e+01
    endloop
  endfacet
  facet normal -0.000000e+00  0.000000e+00 -1.000000e+00
    outer loop
      vertex   4.599950e+00  4.785000e+01 -1.590000e+01
      vertex   1.579890e-01  3.462229e+01 -1.590000e+01
      vertex  -4.600050e+00  4.785000e+01 -1.590000e+01
    endloop
  endfacet
  facet normal  0.000000e+00  0.000000e+00 -1.000000e+00
    outer loop
      vertex  -4.600050e+00  4.785000e+01 -1.590000e+01
      vertex   1.579890e-01  3.462229e+01 -1.590000e+01
      vertex  -1.647549e+00  3.440306e+01 -1.590000e+01
    endloop
  endfacet
  facet normal  0.000000e+00  0.000000e+00 -1.000000e+00
    outer loop
      vertex  -4.600050e+00  4.785000e+01 -1.590000e+01
      vertex  -1.647549e+00  3.440306e+01 -1.590000e+01
      vertex  -3.144391e+00  3.336987e+01 -1.590000e+01
    endloop
  endfacet
  facet normal -0.000000e+00  0.000000e+00 -1.000000e+00
    outer loop
      vertex  -3.144391e+00  3.336987e+01 -1.590000e+01
      vertex  -3.989629e+00  3.175940e+01 -1.590000e+01
      vertex  -4.600050e+00  4.785000e+01 -1.590000e+01
    endloop
  endfacet
  facet normal  0.000000e+00  0.000000e+00 -1.000000e+00
    outer loop
      vertex  -4.600050e+00  4.785000e+01 -1.590000e+01
      vertex  -3.989629e+00  3.175940e+01 -1.590000e+01
      vertex  -3.989629e+00  2.994061e+01 -1.590000e+01
    endloop
  endfacet
  facet normal  0.000000e+00  0.000000e+00 -1.000000e+00
    outer loop
      vertex  -4.600050e+00  4.785000e+01 -1.590000e+01
      vertex  -3.989629e+00  2.994061e+01 -1.590000e+01
      vertex  -4.600050e+00 -4.785000e+01 -1.590000e+01
    endloop
  endfacet
  facet normal  0.000000e+00  0.000000e+00 -1.000000e+00
    outer loop
      vertex  -4.600050e+00 -4.785000e+01 -1.590000e+01
      vertex  -3.989629e+00  2.994061e+01 -1.590000e+01
      vertex  -3.144391e+00  2.833013e+01 -1.590000e+01
    endloop
  endfacet
  facet normal  0.000000e+00  0.000000e+00 -1.000000e+00
    outer loop
      vertex   1.858596e+00  2.772266e+01 -1.590000e+01
      vertex   3.064683e+00  2.908405e+01 -1.590000e+01
      vertex   4.599950e+00 -4.785000e+01 -1.590000e+01
    endloop
  endfacet
  facet normal  0.000000e+00  0.000000e+00 -1.000000e+00
    outer loop
      vertex   4.599950e+00 -4.785000e+01 -1.590000e+01
      vertex   3.064683e+00  2.908405e+01 -1.590000e+01
      vertex   3.499950e+00  3.085000e+01 -1.590000e+01
    endloop
  endfacet
  facet normal  0.000000e+00  0.000000e+00 -1.000000e+00
    outer loop
      vertex   4.599950e+00 -4.785000e+01 -1.590000e+01
      vertex   3.499950e+00  3.085000e+01 -1.590000e+01
      vertex   4.599950e+00  4.785000e+01 -1.590000e+01
    endloop
  endfacet
  facet normal  0.000000e+00  0.000000e+00 -1.000000e+00
    outer loop
      vertex   4.599950e+00  4.785000e+01 -1.590000e+01
      vertex   3.499950e+00  3.085000e+01 -1.590000e+01
      vertex   3.064683e+00  3.261595e+01 -1.590000e+01
    endloop
  endfacet
  facet normal  0.000000e+00  0.000000e+00 -1.000000e+00
    outer loop
      vertex   4.599950e+00  4.785000e+01 -1.590000e+01
      vertex   3.064683e+00  3.261595e+01 -1.590000e+01
      vertex   1.858596e+00  3.397734e+01 -1.590000e+01
    endloop
  endfacet
  facet normal  0.000000e+00 -0.000000e+00 -1.000000e+00
    outer loop
      vertex  -3.144391e+00  2.833013e+01 -1.590000e+01
      vertex  -1.647549e+00  2.729694e+01 -1.590000e+01
      vertex  -4.600050e+00 -4.785000e+01 -1.590000e+01
    endloop
  endfacet
  facet normal  0.000000e+00  0.000000e+00 -1.000000e+00
    outer loop
      vertex  -4.600050e+00 -4.785000e+01 -1.590000e+01
      vertex  -1.647549e+00  2.729694e+01 -1.590000e+01
      vertex  -3.000498e-01  2.705000e+01 -1.590000e+01
    endloop
  endfacet
  facet normal  0.000000e+00  0.000000e+00 -1.000000e+00
    outer loop
      vertex  -4.600050e+00 -4.785000e+01 -1.590000e+01
      vertex  -3.000498e-01  2.705000e+01 -1.590000e+01
      vertex   4.599950e+00 -4.785000e+01 -1.590000e+01
    endloop
  endfacet
  facet normal  0.000000e+00  0.000000e+00 -1.000000e+00
    outer loop
      vertex   4.599950e+00 -4.785000e+01 -1.590000e+01
      vertex  -3.000498e-01  2.705000e+01 -1.590000e+01
      vertex   1.579890e-01  2.707771e+01 -1.590000e+01
    endloop
  endfacet
  facet normal  0.000000e+00  0.000000e+00 -1.000000e+00
    outer loop
      vertex   4.599950e+00 -4.785000e+01 -1.590000e+01
      vertex   1.579890e-01  2.707771e+01 -1.590000e+01
      vertex   1.858596e+00  2.772266e+01 -1.590000e+01
    endloop
  endfacet
  facet normal  0.000000e+00  1.000000e+00  0.000000e+00
    outer loop
      vertex   4.599950e+00  4.785000e+01 -8.000000e+00
      vertex   4.599950e+00  4.785000e+01 -1.590000e+01
      vertex  -4.600050e+00  4.785000e+01 -8.000000e+00
    endloop
  endfacet
  facet normal  0.000000e+00  1.000000e+00  0.000000e+00
    outer loop
      vertex  -4.600050e+00  4.785000e+01 -8.000000e+00
      vertex   4.599950e+00  4.785000e+01 -1.590000e+01
      vertex  -4.600050e+00  4.785000e+01 -1.590000e+01
    endloop
  endfacet
  facet normal  1.000000e+00  0.000000e+00  0.000000e+00
    outer loop
      vertex   4.599950e+00 -4.785000e+01 -1.590000e+01
      vertex   4.599950e+00  4.785000e+01 -1.590000e+01
      vertex   4.599950e+00 -4.785000e+01 -8.000000e+00
    endloop
  endfacet
  facet normal  1.000000e+00 -0.000000e+00  0.000000e+00
    outer loop
      vertex   4.599950e+00 -4.785000e+01 -8.000000e+00
      vertex   4.599950e+00  4.785000e+01 -1.590000e+01
      vertex   4.599950e+00  4.785000e+01 -8.000000e+00
    endloop
  endfacet
  facet normal -1.000000e+00  0.000000e+00  0.000000e+00
    outer loop
      vertex  -4.600050e+00  4.785000e+01 -1.590000e+01
      vertex  -4.600050e+00 -4.785000e+01 -1.590000e+01
      vertex  -4.600050e+00  4.785000e+01 -8.000000e+00
    endloop
  endfacet
  facet normal -1.000000e+00 -0.000000e+00  0.000000e+00
    outer loop
      vertex  -4.600050e+00  4.785000e+01 -8.000000e+00
      vertex  -4.600050e+00 -4.785000e+01 -1.590000e+01
      vertex  -4.600050e+00 -4.785000e+01 -8.000000e+00
    endloop
  endfacet
  facet normal -0.000000e+00  0.000000e+00 -1.000000e+00
    outer loop
      vertex   3.499950e+00  3.085000e+01 -2.400000e+01
      vertex   3.064683e+00  2.908405e+01 -2.400000e+01
      vertex  -3.000498e-01  3.085000e+01 -2.400000e+01
    endloop
  endfacet
  facet normal  0.000000e+00 -0.000000e+00 -1.000000e+00
    outer loop
      vertex   1.579890e-01  3.462229e+01 -2.400000e+01
      vertex   1.858596e+00  3.397734e+01 -2.400000e+01
      vertex  -3.000498e-01  3.085000e+01 -2.400000e+01
    endloop
  endfacet
  facet normal  0.000000e+00  0.000000e+00 -1.000000e+00
    outer loop
      vertex  -3.000498e-01  3.085000e+01 -2.400000e+01
      vertex   1.858596e+00  3.397734e+01 -2.400000e+01
      vertex   3.064683e+00  3.261595e+01 -2.400000e+01
    endloop
  endfacet
  facet normal  0.000000e+00  0.000000e+00 -1.000000e+00
    outer loop
      vertex  -3.000498e-01  3.085000e+01 -2.400000e+01
      vertex   3.064683e+00  3.261595e+01 -2.400000e+01
      vertex   3.499950e+00  3.085000e+01 -2.400000e+01
    endloop
  endfacet
  facet normal  0.000000e+00  0.000000e+00 -1.000000e+00
    outer loop
      vertex  -3.989629e+00  3.175940e+01 -2.400000e+01
      vertex  -3.144391e+00  3.336987e+01 -2.400000e+01
      vertex  -3.000498e-01  3.085000e+01 -2.400000e+01
    endloop
  endfacet
  facet normal  0.000000e+00  0.000000e+00 -1.000000e+00
    outer loop
      vertex  -3.000498e-01  3.085000e+01 -2.400000e+01
      vertex  -3.144391e+00  3.336987e+01 -2.400000e+01
      vertex  -1.647549e+00  3.440306e+01 -2.400000e+01
    endloop
  endfacet
  facet normal  0.000000e+00  0.000000e+00 -1.000000e+00
    outer loop
      vertex  -3.000498e-01  3.085000e+01 -2.400000e+01
      vertex  -1.647549e+00  3.440306e+01 -2.400000e+01
      vertex   1.579890e-01  3.462229e+01 -2.400000e+01
    endloop
  endfacet
  facet normal  0.000000e+00  0.000000e+00 -1.000000e+00
    outer loop
      vertex  -1.647549e+00  2.729694e+01 -2.400000e+01
      vertex  -3.144391e+00  2.833013e+01 -2.400000e+01
      vertex  -3.000498e-01  3.085000e+01 -2.400000e+01
    endloop
  endfacet
  facet normal  0.000000e+00  0.000000e+00 -1.000000e+00
    outer loop
      vertex  -3.000498e-01  3.085000e+01 -2.400000e+01
      vertex  -3.144391e+00  2.833013e+01 -2.400000e+01
      vertex  -3.989629e+00  2.994061e+01 -2.400000e+01
    endloop
  endfacet
  facet normal -0.000000e+00  0.000000e+00 -1.000000e+00
    outer loop
      vertex  -3.000498e-01  3.085000e+01 -2.400000e+01
      vertex  -3.989629e+00  2.994061e+01 -2.400000e+01
      vertex  -3.989629e+00  3.175940e+01 -2.400000e+01
    endloop
  endfacet
  facet normal -0.000000e+00  0.000000e+00 -1.000000e+00
    outer loop
      vertex   3.064683e+00  2.908405e+01 -2.400000e+01
      vertex   1.858596e+00  2.772266e+01 -2.400000e+01
      vertex  -3.000498e-01  3.085000e+01 -2.400000e+01
    endloop
  endfacet
  facet normal  0.000000e+00  0.000000e+00 -1.000000e+00
    outer loop
      vertex  -3.000498e-01  3.085000e+01 -2.400000e+01
      vertex   1.858596e+00  2.772266e+01 -2.400000e+01
      vertex   1.579890e-01  2.707771e+01 -2.400000e+01
    endloop
  endfacet
  facet normal  0.000000e+00 -0.000000e+00 -1.000000e+00
    outer loop
      vertex  -3.000498e-01  3.085000e+01 -2.400000e+01
      vertex   1.579890e-01  2.707771e+01 -2.400000e+01
      vertex  -1.647549e+00  2.729694e+01 -2.400000e+01
    endloop
  endfacet
  facet normal -1.802566e-01 -9.836196e-01  0.000000e+00
    outer loop
      vertex  -3.000498e-01  2.705000e+01 -1.590000e+01
      vertex  -1.647549e+00  2.729694e+01 -1.590000e+01
      vertex  -1.647549e+00  2.729694e+01 -2.400000e+01
    endloop
  endfacet
  facet normal -5.680626e-01 -8.229854e-01  0.000000e+00
    outer loop
      vertex  -1.647549e+00  2.729694e+01 -2.400000e+01
      vertex  -1.647549e+00  2.729694e+01 -1.590000e+01
      vertex  -3.144391e+00  2.833013e+01 -1.590000e+01
    endloop
  endfacet
  facet normal -5.680626e-01 -8.229854e-01  0.000000e+00
    outer loop
      vertex  -1.647549e+00  2.729694e+01 -2.400000e+01
      vertex  -3.144391e+00  2.833013e+01 -1.590000e+01
      vertex  -3.144391e+00  2.833013e+01 -2.400000e+01
    endloop
  endfacet
  facet normal -8.854578e-01 -4.647198e-01  0.000000e+00
    outer loop
      vertex  -3.144391e+00  2.833013e+01 -2.400000e+01
      vertex  -3.144391e+00  2.833013e+01 -1.590000e+01
      vertex  -3.989629e+00  2.994061e+01 -1.590000e+01
    endloop
  endfacet
  facet normal -8.854578e-01 -4.647198e-01  0.000000e+00
    outer loop
      vertex  -3.144391e+00  2.833013e+01 -2.400000e+01
      vertex  -3.989629e+00  2.994061e+01 -1.590000e+01
      vertex  -3.989629e+00  2.994061e+01 -2.400000e+01
    endloop
  endfacet
  facet normal -1.000000e+00  0.000000e+00  0.000000e+00
    outer loop
      vertex  -3.989629e+00  2.994061e+01 -2.400000e+01
      vertex  -3.989629e+00  2.994061e+01 -1.590000e+01
      vertex  -3.989629e+00  3.175940e+01 -1.590000e+01
    endloop
  endfacet
  facet normal -1.000000e+00  0.000000e+00  0.000000e+00
    outer loop
      vertex  -3.989629e+00  2.994061e+01 -2.400000e+01
      vertex  -3.989629e+00  3.175940e+01 -1.590000e+01
      vertex  -3.989629e+00  3.175940e+01 -2.400000e+01
    endloop
  endfacet
  facet normal -8.854564e-01  4.647224e-01  0.000000e+00
    outer loop
      vertex  -3.989629e+00  3.175940e+01 -2.400000e+01
      vertex  -3.989629e+00  3.175940e+01 -1.590000e+01
      vertex  -3.144391e+00  3.336987e+01 -1.590000e+01
    endloop
  endfacet
  facet normal -8.854564e-01  4.647224e-01  0.000000e+00
    outer loop
      vertex  -3.989629e+00  3.175940e+01 -2.400000e+01
      vertex  -3.144391e+00  3.336987e+01 -1.590000e+01
      vertex  -3.144391e+00  3.336987e+01 -2.400000e+01
    endloop
  endfacet
  facet normal -5.680633e-01  8.229849e-01  0.000000e+00
    outer loop
      vertex  -3.144391e+00  3.336987e+01 -2.400000e+01
      vertex  -3.144391e+00  3.336987e+01 -1.590000e+01
      vertex  -1.647549e+00  3.440306e+01 -1.590000e+01
    endloop
  endfacet
  facet normal -5.680633e-01  8.229849e-01  0.000000e+00
    outer loop
      vertex  -3.144391e+00  3.336987e+01 -2.400000e+01
      vertex  -1.647549e+00  3.440306e+01 -1.590000e+01
      vertex  -1.647549e+00  3.440306e+01 -2.400000e+01
    endloop
  endfacet
  facet normal -1.205359e-01  9.927090e-01  0.000000e+00
    outer loop
      vertex  -1.647549e+00  3.440306e+01 -2.400000e+01
      vertex  -1.647549e+00  3.440306e+01 -1.590000e+01
      vertex   1.579890e-01  3.462229e+01 -1.590000e+01
    endloop
  endfacet
  facet normal -1.205359e-01  9.927090e-01  0.000000e+00
    outer loop
      vertex  -1.647549e+00  3.440306e+01 -2.400000e+01
      vertex   1.579890e-01  3.462229e+01 -1.590000e+01
      vertex   1.579890e-01  3.462229e+01 -2.400000e+01
    endloop
  endfacet
  facet normal  3.546029e-01  9.350170e-01 -0.000000e+00
    outer loop
      vertex   1.579890e-01  3.462229e+01 -2.400000e+01
      vertex   1.579890e-01  3.462229e+01 -1.590000e+01
      vertex   1.858596e+00  3.397734e+01 -1.590000e+01
    endloop
  endfacet
  facet normal  3.546029e-01  9.350170e-01  0.000000e+00
    outer loop
      vertex   1.579890e-01  3.462229e+01 -2.400000e+01
      vertex   1.858596e+00  3.397734e+01 -1.590000e+01
      vertex   1.858596e+00  3.397734e+01 -2.400000e+01
    endloop
  endfacet
  facet normal  7.485104e-01  6.631231e-01 -0.000000e+00
    outer loop
      vertex   1.858596e+00  3.397734e+01 -2.400000e+01
      vertex   1.858596e+00  3.397734e+01 -1.590000e+01
      vertex   3.064683e+00  3.261595e+01 -1.590000e+01
    endloop
  endfacet
  facet normal  7.485104e-01  6.631231e-01  0.000000e+00
    outer loop
      vertex   1.858596e+00  3.397734e+01 -2.400000e+01
      vertex   3.064683e+00  3.261595e+01 -1.590000e+01
      vertex   3.064683e+00  3.261595e+01 -2.400000e+01
    endloop
  endfacet
  facet normal  9.709420e-01  2.393152e-01 -0.000000e+00
    outer loop
      vertex   3.064683e+00  3.261595e+01 -2.400000e+01
      vertex   3.064683e+00  3.261595e+01 -1.590000e+01
      vertex   3.499950e+00  3.085000e+01 -1.590000e+01
    endloop
  endfacet
  facet normal  9.709420e-01  2.393152e-01  0.000000e+00
    outer loop
      vertex   3.064683e+00  3.261595e+01 -2.400000e+01
      vertex   3.499950e+00  3.085000e+01 -1.590000e+01
      vertex   3.499950e+00  3.085000e+01 -2.400000e+01
    endloop
  endfacet
  facet normal  9.709420e-01 -2.393152e-01  0.000000e+00
    outer loop
      vertex   3.499950e+00  3.085000e+01 -2.400000e+01
      vertex   3.499950e+00  3.085000e+01 -1.590000e+01
      vertex   3.064683e+00  2.908405e+01 -1.590000e+01
    endloop
  endfacet
  facet normal  9.709420e-01 -2.393152e-01  0.000000e+00
    outer loop
      vertex   3.499950e+00  3.085000e+01 -2.400000e+01
      vertex   3.064683e+00  2.908405e+01 -1.590000e+01
      vertex   3.064683e+00  2.908405e+01 -2.400000e+01
    endloop
  endfacet
  facet normal  7.485104e-01 -6.631231e-01  0.000000e+00
    outer loop
      vertex   3.064683e+00  2.908405e+01 -2.400000e+01
      vertex   3.064683e+00  2.908405e+01 -1.590000e+01
      vertex   1.858596e+00  2.772266e+01 -1.590000e+01
    endloop
  endfacet
  facet normal  7.485104e-01 -6.631231e-01  0.000000e+00
    outer loop
      vertex   3.064683e+00  2.908405e+01 -2.400000e+01
      vertex   1.858596e+00  2.772266e+01 -1.590000e+01
      vertex   1.858596e+00  2.772266e+01 -2.400000e+01
    endloop
  endfacet
  facet normal  3.546029e-01 -9.350170e-01  0.000000e+00
    outer loop
      vertex   1.858596e+00  2.772266e+01 -2.400000e+01
      vertex   1.858596e+00  2.772266e+01 -1.590000e+01
      vertex   1.579890e-01  2.707771e+01 -1.590000e+01
    endloop
  endfacet
  facet normal  3.546029e-01 -9.350170e-01  0.000000e+00
    outer loop
      vertex   1.858596e+00  2.772266e+01 -2.400000e+01
      vertex   1.579890e-01  2.707771e+01 -1.590000e+01
      vertex   1.579890e-01  2.707771e+01 -2.400000e+01
    endloop
  endfacet
  facet normal  6.038657e-02 -9.981751e-01  0.000000e+00
    outer loop
      vertex   1.579890e-01  2.707771e+01 -2.400000e+01
      vertex   1.579890e-01  2.707771e+01 -1.590000e+01
      vertex  -3.000498e-01  2.705000e+01 -1.590000e+01
    endloop
  endfacet
  facet normal -1.205297e-01 -9.926572e-01 -1.021157e-02
    outer loop
      vertex   1.579890e-01  2.707771e+01 -2.400000e+01
      vertex  -3.000498e-01  2.705000e+01 -1.590000e+01
      vertex  -1.647549e+00  2.729694e+01 -2.400000e+01
    endloop
  endfacet
  facet normal  1.506081e-02 -9.658138e-01 -2.587990e-01
    outer loop
      vertex   4.600050e+00  3.041699e+01 -1.499996e-01
      vertex   4.600050e+00  3.035000e+01  1.000004e-01
      vertex   3.469140e+00  3.036709e+01 -2.959061e-02
    endloop
  endfacet
  facet normal  0.000000e+00 -3.827858e-01  9.238372e-01
    outer loop
      vertex   3.497743e+00  3.072050e+01  5.829391e-01
      vertex   3.491717e+00  3.060000e+01  5.330105e-01
      vertex   4.600050e+00  3.060000e+01  5.330105e-01
    endloop
  endfacet
  facet normal  0.000000e+00 -7.071068e-01  7.071068e-01
    outer loop
      vertex   4.600050e+00  3.060000e+01  5.330105e-01
      vertex   3.491717e+00  3.060000e+01  5.330105e-01
      vertex   3.475198e+00  3.041699e+01  3.500004e-01
    endloop
  endfacet
  facet normal  0.000000e+00 -7.071067e-01  7.071069e-01
    outer loop
      vertex   4.600050e+00  3.060000e+01  5.330105e-01
      vertex   3.475198e+00  3.041699e+01  3.500004e-01
      vertex   4.600050e+00  3.041699e+01  3.500004e-01
    endloop
  endfacet
  facet normal  0.000000e+00 -9.238425e-01  3.827727e-01
    outer loop
      vertex   4.600050e+00  3.041699e+01  3.500004e-01
      vertex   3.475198e+00  3.041699e+01  3.500004e-01
      vertex   3.469136e+00  3.036706e+01  2.294903e-01
    endloop
  endfacet
  facet normal  1.506368e-02 -9.658137e-01  2.587990e-01
    outer loop
      vertex   4.600050e+00  3.041699e+01  3.500004e-01
      vertex   3.469136e+00  3.036706e+01  2.294903e-01
      vertex   4.600050e+00  3.035000e+01  1.000004e-01
    endloop
  endfacet
  facet normal  0.000000e+00 -9.914333e-01  1.306139e-01
    outer loop
      vertex   4.600050e+00  3.035000e+01  1.000004e-01
      vertex   3.469136e+00  3.036706e+01  2.294903e-01
      vertex   3.466912e+00  3.035000e+01  1.000004e-01
    endloop
  endfacet
  facet normal -0.000000e+00 -9.914163e-01 -1.307433e-01
    outer loop
      vertex   4.600050e+00  3.035000e+01  1.000004e-01
      vertex   3.466912e+00  3.035000e+01  1.000004e-01
      vertex   3.469140e+00  3.036709e+01 -2.959061e-02
    endloop
  endfacet
  facet normal  3.055440e-02 -1.310701e-01  9.909021e-01
    outer loop
      vertex   3.497743e+00  3.072050e+01  5.829391e-01
      vertex   4.600050e+00  3.060000e+01  5.330105e-01
      vertex   3.499950e+00  3.085000e+01  6.000004e-01
    endloop
  endfacet
  facet normal  0.000000e+00 -2.588284e-01  9.659234e-01
    outer loop
      vertex   3.499950e+00  3.085000e+01  6.000004e-01
      vertex   4.600050e+00  3.060000e+01  5.330105e-01
      vertex   4.600050e+00  3.085000e+01  6.000004e-01
    endloop
  endfacet
  facet normal -0.000000e+00  1.306829e-01  9.914242e-01
    outer loop
      vertex   3.499950e+00  3.085000e+01  6.000004e-01
      vertex   4.600050e+00  3.085000e+01  6.000004e-01
      vertex   3.497740e+00  3.097958e+01  5.829201e-01
    endloop
  endfacet
  facet normal  1.545715e-02  2.587975e-01  9.658079e-01
    outer loop
      vertex   3.497740e+00  3.097958e+01  5.829201e-01
      vertex   4.600050e+00  3.085000e+01  6.000004e-01
      vertex   4.600050e+00  3.110000e+01  5.330105e-01
    endloop
  endfacet
  facet normal  0.000000e+00  3.828786e-01  9.237986e-01
    outer loop
      vertex   3.497740e+00  3.097958e+01  5.829201e-01
      vertex   4.600050e+00  3.110000e+01  5.330105e-01
      vertex   3.491717e+00  3.110000e+01  5.330105e-01
    endloop
  endfacet
  facet normal -0.000000e+00  7.071068e-01  7.071068e-01
    outer loop
      vertex   3.491717e+00  3.110000e+01  5.330105e-01
      vertex   4.600050e+00  3.110000e+01  5.330105e-01
      vertex   4.600050e+00  3.128301e+01  3.500004e-01
    endloop
  endfacet
  facet normal  0.000000e+00  7.071067e-01  7.071068e-01
    outer loop
      vertex   3.491717e+00  3.110000e+01  5.330105e-01
      vertex   4.600050e+00  3.128301e+01  3.500004e-01
      vertex   3.475198e+00  3.128301e+01  3.500004e-01
    endloop
  endfacet
  facet normal -0.000000e+00  9.239083e-01  3.826140e-01
    outer loop
      vertex   3.475198e+00  3.128301e+01  3.500004e-01
      vertex   4.600050e+00  3.128301e+01  3.500004e-01
      vertex   3.469132e+00  3.133298e+01  2.293396e-01
    endloop
  endfacet
  facet normal  1.506172e-02  9.658138e-01  2.587990e-01
    outer loop
      vertex   3.469132e+00  3.133298e+01  2.293396e-01
      vertex   4.600050e+00  3.128301e+01  3.500004e-01
      vertex   4.600050e+00  3.135000e+01  1.000004e-01
    endloop
  endfacet
  facet normal  0.000000e+00  9.914514e-01  1.304761e-01
    outer loop
      vertex   3.469132e+00  3.133298e+01  2.293396e-01
      vertex   4.600050e+00  3.135000e+01  1.000004e-01
      vertex   3.466912e+00  3.135000e+01  1.000004e-01
    endloop
  endfacet
  facet normal  0.000000e+00  9.914517e-01 -1.304742e-01
    outer loop
      vertex   3.466912e+00  3.135000e+01  1.000004e-01
      vertex   4.600050e+00  3.135000e+01  1.000004e-01
      vertex   3.469131e+00  3.133298e+01 -2.934074e-02
    endloop
  endfacet
  facet normal  1.506216e-02  9.658138e-01 -2.587991e-01
    outer loop
      vertex   3.469131e+00  3.133298e+01 -2.934074e-02
      vertex   4.600050e+00  3.135000e+01  1.000004e-01
      vertex   4.600050e+00  3.128301e+01 -1.499996e-01
    endloop
  endfacet
  facet normal  0.000000e+00  9.239061e-01 -3.826193e-01
    outer loop
      vertex   3.469131e+00  3.133298e+01 -2.934074e-02
      vertex   4.600050e+00  3.128301e+01 -1.499996e-01
      vertex   3.475198e+00  3.128301e+01 -1.499996e-01
    endloop
  endfacet
  facet normal  0.000000e+00  7.071067e-01 -7.071068e-01
    outer loop
      vertex   3.475198e+00  3.128301e+01 -1.499996e-01
      vertex   4.600050e+00  3.128301e+01 -1.499996e-01
      vertex   4.600050e+00  3.110000e+01 -3.330097e-01
    endloop
  endfacet
  facet normal  0.000000e+00  7.071068e-01 -7.071068e-01
    outer loop
      vertex   3.475198e+00  3.128301e+01 -1.499996e-01
      vertex   4.600050e+00  3.110000e+01 -3.330097e-01
      vertex   3.491717e+00  3.110000e+01 -3.330097e-01
    endloop
  endfacet
  facet normal  0.000000e+00 -9.238116e-01 -3.828472e-01
    outer loop
      vertex   3.469140e+00  3.036709e+01 -2.959061e-02
      vertex   3.475198e+00  3.041699e+01 -1.499996e-01
      vertex   4.600050e+00  3.041699e+01 -1.499996e-01
    endloop
  endfacet
  facet normal -0.000000e+00 -7.071067e-01 -7.071068e-01
    outer loop
      vertex   4.600050e+00  3.041699e+01 -1.499996e-01
      vertex   3.475198e+00  3.041699e+01 -1.499996e-01
      vertex   3.491717e+00  3.060000e+01 -3.330097e-01
    endloop
  endfacet
  facet normal  0.000000e+00 -7.071067e-01 -7.071068e-01
    outer loop
      vertex   4.600050e+00  3.041699e+01 -1.499996e-01
      vertex   3.491717e+00  3.060000e+01 -3.330097e-01
      vertex   4.600050e+00  3.060000e+01 -3.330097e-01
    endloop
  endfacet
  facet normal -0.000000e+00 -3.826315e-01 -9.239011e-01
    outer loop
      vertex   4.600050e+00  3.060000e+01 -3.330097e-01
      vertex   3.491717e+00  3.060000e+01 -3.330097e-01
      vertex   3.497749e+00  3.072066e+01 -3.829803e-01
    endloop
  endfacet
  facet normal  1.545475e-02 -2.587975e-01 -9.658080e-01
    outer loop
      vertex   4.600050e+00  3.060000e+01 -3.330097e-01
      vertex   3.497749e+00  3.072066e+01 -3.829803e-01
      vertex   4.600050e+00  3.085000e+01 -3.999996e-01
    endloop
  endfacet
  facet normal -0.000000e+00 -1.304600e-01 -9.914535e-01
    outer loop
      vertex   4.600050e+00  3.085000e+01 -3.999996e-01
      vertex   3.497749e+00  3.072066e+01 -3.829803e-01
      vertex   3.499950e+00  3.085000e+01 -3.999996e-01
    endloop
  endfacet
  facet normal  0.000000e+00  2.588284e-01 -9.659234e-01
    outer loop
      vertex   4.600050e+00  3.085000e+01 -3.999996e-01
      vertex   3.499950e+00  3.085000e+01 -3.999996e-01
      vertex   4.600050e+00  3.110000e+01 -3.330097e-01
    endloop
  endfacet
  facet normal  3.044623e-02  1.315307e-01 -9.908444e-01
    outer loop
      vertex   4.600050e+00  3.110000e+01 -3.330097e-01
      vertex   3.499950e+00  3.085000e+01 -3.999996e-01
      vertex   3.497728e+00  3.097993e+01 -3.828201e-01
    endloop
  endfacet
  facet normal  0.000000e+00  3.831823e-01 -9.236727e-01
    outer loop
      vertex   4.600050e+00  3.110000e+01 -3.330097e-01
      vertex   3.497728e+00  3.097993e+01 -3.828201e-01
      vertex   3.491717e+00  3.110000e+01 -3.330097e-01
    endloop
  endfacet
  facet normal  1.000000e+00 -0.000000e+00  0.000000e+00
    outer loop
      vertex   4.600050e+00  3.041699e+01 -1.499996e-01
      vertex   4.600050e+00  3.060000e+01 -3.330097e-01
      vertex   4.600050e+00  3.085000e+01  1.000004e-01
    endloop
  endfacet
  facet normal  1.000000e+00  0.000000e+00  0.000000e+00
    outer loop
      vertex   4.600050e+00  3.085000e+01  1.000004e-01
      vertex   4.600050e+00  3.060000e+01 -3.330097e-01
      vertex   4.600050e+00  3.085000e+01 -3.999996e-01
    endloop
  endfacet
  facet normal  1.000000e+00  0.000000e+00  0.000000e+00
    outer loop
      vertex   4.600050e+00  3.085000e+01  1.000004e-01
      vertex   4.600050e+00  3.085000e+01 -3.999996e-01
      vertex   4.600050e+00  3.110000e+01 -3.330097e-01
    endloop
  endfacet
  facet normal  1.000000e+00  0.000000e+00  0.000000e+00
    outer loop
      vertex   4.600050e+00  3.060000e+01  5.330105e-01
      vertex   4.600050e+00  3.041699e+01  3.500004e-01
      vertex   4.600050e+00  3.085000e+01  1.000004e-01
    endloop
  endfacet
  facet normal  1.000000e+00  0.000000e+00  0.000000e+00
    outer loop
      vertex   4.600050e+00  3.085000e+01  1.000004e-01
      vertex   4.600050e+00  3.041699e+01  3.500004e-01
      vertex   4.600050e+00  3.035000e+01  1.000004e-01
    endloop
  endfacet
  facet normal  1.000000e+00  0.000000e+00  0.000000e+00
    outer loop
      vertex   4.600050e+00  3.085000e+01  1.000004e-01
      vertex   4.600050e+00  3.035000e+01  1.000004e-01
      vertex   4.600050e+00  3.041699e+01 -1.499996e-01
    endloop
  endfacet
  facet normal  1.000000e+00  0.000000e+00  0.000000e+00
    outer loop
      vertex   4.600050e+00  3.128301e+01  3.500004e-01
      vertex   4.600050e+00  3.110000e+01  5.330105e-01
      vertex   4.600050e+00  3.085000e+01  1.000004e-01
    endloop
  endfacet
  facet normal  1.000000e+00  0.000000e+00  0.000000e+00
    outer loop
      vertex   4.600050e+00  3.085000e+01  1.000004e-01
      vertex   4.600050e+00  3.110000e+01  5.330105e-01
      vertex   4.600050e+00  3.085000e+01  6.000004e-01
    endloop
  endfacet
  facet normal  1.000000e+00  0.000000e+00 -0.000000e+00
    outer loop
      vertex   4.600050e+00  3.085000e+01  1.000004e-01
      vertex   4.600050e+00  3.085000e+01  6.000004e-01
      vertex   4.600050e+00  3.060000e+01  5.330105e-01
    endloop
  endfacet
  facet normal  1.000000e+00  0.000000e+00 -0.000000e+00
    outer loop
      vertex   4.600050e+00  3.110000e+01 -3.330097e-01
      vertex   4.600050e+00  3.128301e+01 -1.499996e-01
      vertex   4.600050e+00  3.085000e+01  1.000004e-01
    endloop
  endfacet
  facet normal  1.000000e+00 -0.000000e+00  0.000000e+00
    outer loop
      vertex   4.600050e+00  3.085000e+01  1.000004e-01
      vertex   4.600050e+00  3.128301e+01 -1.499996e-01
      vertex   4.600050e+00  3.135000e+01  1.000004e-01
    endloop
  endfacet
  facet normal  1.000000e+00  0.000000e+00  0.000000e+00
    outer loop
      vertex   4.600050e+00  3.085000e+01  1.000004e-01
      vertex   4.600050e+00  3.135000e+01  1.000004e-01
      vertex   4.600050e+00  3.128301e+01  3.500004e-01
    endloop
  endfacet
endsolid vcg
