solid STL generated by MeshLab
  facet normal  6.038657e-02  9.981751e-01  0.000000e+00
    outer loop
      vertex   1.580391e-01  3.462229e+01 -8.000000e+00
      vertex  -2.999997e-01  3.465000e+01 -8.000000e+00
      vertex  -2.999997e-01  3.465000e+01  8.200001e+00
    endloop
  endfacet
  facet normal -1.802566e-01  9.836196e-01  0.000000e+00
    outer loop
      vertex  -2.999997e-01  3.465000e+01  8.200001e+00
      vertex  -2.999997e-01  3.465000e+01 -8.000000e+00
      vertex  -1.647499e+00  3.440306e+01  8.200001e+00
    endloop
  endfacet
  facet normal -1.802566e-01  9.836196e-01  0.000000e+00
    outer loop
      vertex  -2.999997e-01  3.465000e+01 -8.000000e+00
      vertex  -1.647499e+00  3.440306e+01 -8.000000e+00
      vertex  -1.647499e+00  3.440306e+01  8.200001e+00
    endloop
  endfacet
  facet normal -5.680619e-01  8.229858e-01  0.000000e+00
    outer loop
      vertex  -1.647499e+00  3.440306e+01  8.200001e+00
      vertex  -1.647499e+00  3.440306e+01 -8.000000e+00
      vertex  -3.144341e+00  3.336987e+01 -8.000000e+00
    endloop
  endfacet
  facet normal -5.680619e-01  8.229858e-01  0.000000e+00
    outer loop
      vertex  -1.647499e+00  3.440306e+01  8.200001e+00
      vertex  -3.144341e+00  3.336987e+01 -8.000000e+00
      vertex  -3.144341e+00  3.336987e+01  8.200001e+00
    endloop
  endfacet
  facet normal -8.854569e-01  4.647214e-01  0.000000e+00
    outer loop
      vertex  -3.144341e+00  3.336987e+01  8.200001e+00
      vertex  -3.144341e+00  3.336987e+01 -8.000000e+00
      vertex  -3.989579e+00  3.175940e+01 -8.000000e+00
    endloop
  endfacet
  facet normal -8.854569e-01  4.647214e-01  0.000000e+00
    outer loop
      vertex  -3.144341e+00  3.336987e+01  8.200001e+00
      vertex  -3.989579e+00  3.175940e+01 -8.000000e+00
      vertex  -3.989579e+00  3.175940e+01  8.200001e+00
    endloop
  endfacet
  facet normal -1.000000e+00  0.000000e+00 -0.000000e+00
    outer loop
      vertex  -3.989579e+00  3.175940e+01  8.200001e+00
      vertex  -3.989579e+00  3.175940e+01 -8.000000e+00
      vertex  -3.989579e+00  2.994061e+01 -8.000000e+00
    endloop
  endfacet
  facet normal -1.000000e+00 -0.000000e+00  0.000000e+00
    outer loop
      vertex  -3.989579e+00  3.175940e+01  8.200001e+00
      vertex  -3.989579e+00  2.994061e+01 -8.000000e+00
      vertex  -3.989579e+00  2.994061e+01  8.200001e+00
    endloop
  endfacet
  facet normal -8.854569e-01 -4.647214e-01 -0.000000e+00
    outer loop
      vertex  -3.989579e+00  2.994061e+01  8.200001e+00
      vertex  -3.989579e+00  2.994061e+01 -8.000000e+00
      vertex  -3.144341e+00  2.833013e+01 -8.000000e+00
    endloop
  endfacet
  facet normal -8.854569e-01 -4.647214e-01  0.000000e+00
    outer loop
      vertex  -3.989579e+00  2.994061e+01  8.200001e+00
      vertex  -3.144341e+00  2.833013e+01 -8.000000e+00
      vertex  -3.144341e+00  2.833013e+01  8.200001e+00
    endloop
  endfacet
  facet normal -5.680619e-01 -8.229858e-01 -0.000000e+00
    outer loop
      vertex  -3.144341e+00  2.833013e+01  8.200001e+00
      vertex  -3.144341e+00  2.833013e+01 -8.000000e+00
      vertex  -1.647499e+00  2.729694e+01 -8.000000e+00
    endloop
  endfacet
  facet normal -5.680619e-01 -8.229858e-01  0.000000e+00
    outer loop
      vertex  -3.144341e+00  2.833013e+01  8.200001e+00
      vertex  -1.647499e+00  2.729694e+01 -8.000000e+00
      vertex  -1.647499e+00  2.729694e+01  8.200001e+00
    endloop
  endfacet
  facet normal -1.205360e-01 -9.927090e-01 -0.000000e+00
    outer loop
      vertex  -1.647499e+00  2.729694e+01  8.200001e+00
      vertex  -1.647499e+00  2.729694e+01 -8.000000e+00
      vertex   1.580391e-01  2.707771e+01 -8.000000e+00
    endloop
  endfacet
  facet normal -1.205360e-01 -9.927090e-01  0.000000e+00
    outer loop
      vertex  -1.647499e+00  2.729694e+01  8.200001e+00
      vertex   1.580391e-01  2.707771e+01 -8.000000e+00
      vertex   1.580391e-01  2.707771e+01  8.200001e+00
    endloop
  endfacet
  facet normal  3.546029e-01 -9.350170e-01  0.000000e+00
    outer loop
      vertex   1.580391e-01  2.707771e+01  8.200001e+00
      vertex   1.580391e-01  2.707771e+01 -8.000000e+00
      vertex   1.858646e+00  2.772266e+01 -8.000000e+00
    endloop
  endfacet
  facet normal  3.546029e-01 -9.350170e-01  0.000000e+00
    outer loop
      vertex   1.580391e-01  2.707771e+01  8.200001e+00
      vertex   1.858646e+00  2.772266e+01 -8.000000e+00
      vertex   1.858646e+00  2.772266e+01  8.200001e+00
    endloop
  endfacet
  facet normal  7.485104e-01 -6.631231e-01  0.000000e+00
    outer loop
      vertex   1.858646e+00  2.772266e+01  8.200001e+00
      vertex   1.858646e+00  2.772266e+01 -8.000000e+00
      vertex   3.064733e+00  2.908405e+01 -8.000000e+00
    endloop
  endfacet
  facet normal  7.485104e-01 -6.631231e-01  0.000000e+00
    outer loop
      vertex   1.858646e+00  2.772266e+01  8.200001e+00
      vertex   3.064733e+00  2.908405e+01 -8.000000e+00
      vertex   3.064733e+00  2.908405e+01  8.200001e+00
    endloop
  endfacet
  facet normal  9.709417e-01 -2.393162e-01  0.000000e+00
    outer loop
      vertex   3.064733e+00  2.908405e+01  8.200001e+00
      vertex   3.064733e+00  2.908405e+01 -8.000000e+00
      vertex   3.500000e+00  3.085000e+01 -8.000000e+00
    endloop
  endfacet
  facet normal  9.709417e-01 -2.393162e-01  0.000000e+00
    outer loop
      vertex   3.064733e+00  2.908405e+01  8.200001e+00
      vertex   3.500000e+00  3.085000e+01 -8.000000e+00
      vertex   3.500000e+00  3.085000e+01  8.200001e+00
    endloop
  endfacet
  facet normal  9.709419e-01  2.393152e-01  0.000000e+00
    outer loop
      vertex   3.500000e+00  3.085000e+01  8.200001e+00
      vertex   3.500000e+00  3.085000e+01 -8.000000e+00
      vertex   3.064733e+00  3.261595e+01 -8.000000e+00
    endloop
  endfacet
  facet normal  9.709419e-01  2.393152e-01  0.000000e+00
    outer loop
      vertex   3.500000e+00  3.085000e+01  8.200001e+00
      vertex   3.064733e+00  3.261595e+01 -8.000000e+00
      vertex   3.064733e+00  3.261595e+01  8.200001e+00
    endloop
  endfacet
  facet normal  7.485104e-01  6.631231e-01  0.000000e+00
    outer loop
      vertex   3.064733e+00  3.261595e+01  8.200001e+00
      vertex   3.064733e+00  3.261595e+01 -8.000000e+00
      vertex   1.858646e+00  3.397734e+01 -8.000000e+00
    endloop
  endfacet
  facet normal  7.485104e-01  6.631231e-01  0.000000e+00
    outer loop
      vertex   3.064733e+00  3.261595e+01  8.200001e+00
      vertex   1.858646e+00  3.397734e+01 -8.000000e+00
      vertex   1.858646e+00  3.397734e+01  8.200001e+00
    endloop
  endfacet
  facet normal  3.546029e-01  9.350170e-01  0.000000e+00
    outer loop
      vertex   1.858646e+00  3.397734e+01  8.200001e+00
      vertex   1.858646e+00  3.397734e+01 -8.000000e+00
      vertex   1.580391e-01  3.462229e+01 -8.000000e+00
    endloop
  endfacet
  facet normal  3.546029e-01  9.350170e-01  0.000000e+00
    outer loop
      vertex   1.858646e+00  3.397734e+01  8.200001e+00
      vertex   1.580391e-01  3.462229e+01 -8.000000e+00
      vertex   1.580391e-01  3.462229e+01  8.200001e+00
    endloop
  endfacet
  facet normal  6.038657e-02  9.981751e-01  0.000000e+00
    outer loop
      vertex   1.580391e-01  3.462229e+01  8.200001e+00
      vertex   1.580391e-01  3.462229e+01 -8.000000e+00
      vertex  -2.999997e-01  3.465000e+01  8.200001e+00
    endloop
  endfacet
  facet normal  0.000000e+00  1.000000e+00  0.000000e+00
    outer loop
      vertex   4.600000e+00  4.785000e+01  1.610000e+01
      vertex   4.600000e+00  4.785000e+01  8.200001e+00
      vertex  -4.600000e+00  4.785000e+01  1.610000e+01
    endloop
  endfacet
  facet normal  0.000000e+00  1.000000e+00  0.000000e+00
    outer loop
      vertex  -4.600000e+00  4.785000e+01  1.610000e+01
      vertex   4.600000e+00  4.785000e+01  8.200001e+00
      vertex  -4.600000e+00  4.785000e+01  8.200001e+00
    endloop
  endfacet
  facet normal  0.000000e+00  0.000000e+00  1.000000e+00
    outer loop
      vertex  -1.647499e+00  2.729694e+01  1.610000e+01
      vertex  -4.600000e+00 -4.785000e+01  1.610000e+01
      vertex   1.580391e-01  2.707771e+01  1.610000e+01
    endloop
  endfacet
  facet normal  0.000000e+00  0.000000e+00  1.000000e+00
    outer loop
      vertex   1.580391e-01  2.707771e+01  1.610000e+01
      vertex  -4.600000e+00 -4.785000e+01  1.610000e+01
      vertex   4.600000e+00 -4.785000e+01  1.610000e+01
    endloop
  endfacet
  facet normal -0.000000e+00  0.000000e+00  1.000000e+00
    outer loop
      vertex   1.580391e-01  2.707771e+01  1.610000e+01
      vertex   4.600000e+00 -4.785000e+01  1.610000e+01
      vertex   1.858646e+00  2.772266e+01  1.610000e+01
    endloop
  endfacet
  facet normal -0.000000e+00  0.000000e+00  1.000000e+00
    outer loop
      vertex   1.858646e+00  3.397734e+01  1.610000e+01
      vertex   3.064733e+00  3.261595e+01  1.610000e+01
      vertex   4.600000e+00  4.785000e+01  1.610000e+01
    endloop
  endfacet
  facet normal  0.000000e+00  0.000000e+00  1.000000e+00
    outer loop
      vertex   4.600000e+00  4.785000e+01  1.610000e+01
      vertex   3.064733e+00  3.261595e+01  1.610000e+01
      vertex   3.500000e+00  3.085000e+01  1.610000e+01
    endloop
  endfacet
  facet normal  0.000000e+00  0.000000e+00  1.000000e+00
    outer loop
      vertex   4.600000e+00  4.785000e+01  1.610000e+01
      vertex   3.500000e+00  3.085000e+01  1.610000e+01
      vertex   4.600000e+00 -4.785000e+01  1.610000e+01
    endloop
  endfacet
  facet normal  0.000000e+00  0.000000e+00  1.000000e+00
    outer loop
      vertex   4.600000e+00 -4.785000e+01  1.610000e+01
      vertex   3.500000e+00  3.085000e+01  1.610000e+01
      vertex   3.064733e+00  2.908405e+01  1.610000e+01
    endloop
  endfacet
  facet normal  0.000000e+00  0.000000e+00  1.000000e+00
    outer loop
      vertex   4.600000e+00 -4.785000e+01  1.610000e+01
      vertex   3.064733e+00  2.908405e+01  1.610000e+01
      vertex   1.858646e+00  2.772266e+01  1.610000e+01
    endloop
  endfacet
  facet normal  0.000000e+00  0.000000e+00  1.000000e+00
    outer loop
      vertex  -1.647499e+00  2.729694e+01  1.610000e+01
      vertex  -3.144341e+00  2.833013e+01  1.610000e+01
      vertex  -4.600000e+00 -4.785000e+01  1.610000e+01
    endloop
  endfacet
  facet normal  0.000000e+00  0.000000e+00  1.000000e+00
    outer loop
      vertex  -4.600000e+00 -4.785000e+01  1.610000e+01
      vertex  -3.144341e+00  2.833013e+01  1.610000e+01
      vertex  -3.989579e+00  2.994061e+01  1.610000e+01
    endloop
  endfacet
  facet normal  0.000000e+00  0.000000e+00  1.000000e+00
    outer loop
      vertex  -4.600000e+00 -4.785000e+01  1.610000e+01
      vertex  -3.989579e+00  2.994061e+01  1.610000e+01
      vertex  -4.600000e+00  4.785000e+01  1.610000e+01
    endloop
  endfacet
  facet normal  0.000000e+00  0.000000e+00  1.000000e+00
    outer loop
      vertex  -4.600000e+00  4.785000e+01  1.610000e+01
      vertex  -3.989579e+00  2.994061e+01  1.610000e+01
      vertex  -3.989579e+00  3.175940e+01  1.610000e+01
    endloop
  endfacet
  facet normal  0.000000e+00  0.000000e+00  1.000000e+00
    outer loop
      vertex  -4.600000e+00  4.785000e+01  1.610000e+01
      vertex  -3.989579e+00  3.175940e+01  1.610000e+01
      vertex  -3.144341e+00  3.336987e+01  1.610000e+01
    endloop
  endfacet
  facet normal  0.000000e+00 -0.000000e+00  1.000000e+00
    outer loop
      vertex  -3.144341e+00  3.336987e+01  1.610000e+01
      vertex  -1.647499e+00  3.440306e+01  1.610000e+01
      vertex  -4.600000e+00  4.785000e+01  1.610000e+01
    endloop
  endfacet
  facet normal  0.000000e+00  0.000000e+00  1.000000e+00
    outer loop
      vertex  -4.600000e+00  4.785000e+01  1.610000e+01
      vertex  -1.647499e+00  3.440306e+01  1.610000e+01
      vertex  -2.999997e-01  3.465000e+01  1.610000e+01
    endloop
  endfacet
  facet normal -0.000000e+00  0.000000e+00  1.000000e+00
    outer loop
      vertex  -4.600000e+00  4.785000e+01  1.610000e+01
      vertex  -2.999997e-01  3.465000e+01  1.610000e+01
      vertex   4.600000e+00  4.785000e+01  1.610000e+01
    endloop
  endfacet
  facet normal  0.000000e+00  0.000000e+00  1.000000e+00
    outer loop
      vertex   4.600000e+00  4.785000e+01  1.610000e+01
      vertex  -2.999997e-01  3.465000e+01  1.610000e+01
      vertex   1.580391e-01  3.462229e+01  1.610000e+01
    endloop
  endfacet
  facet normal  0.000000e+00  0.000000e+00  1.000000e+00
    outer loop
      vertex   4.600000e+00  4.785000e+01  1.610000e+01
      vertex   1.580391e-01  3.462229e+01  1.610000e+01
      vertex   1.858646e+00  3.397734e+01  1.610000e+01
    endloop
  endfacet
  facet normal  0.000000e+00 -1.000000e+00  0.000000e+00
    outer loop
      vertex   4.600000e+00 -4.785000e+01  8.200001e+00
      vertex   4.600000e+00 -4.785000e+01  1.610000e+01
      vertex  -4.600000e+00 -4.785000e+01  8.200001e+00
    endloop
  endfacet
  facet normal  0.000000e+00 -1.000000e+00  0.000000e+00
    outer loop
      vertex  -4.600000e+00 -4.785000e+01  8.200001e+00
      vertex   4.600000e+00 -4.785000e+01  1.610000e+01
      vertex  -4.600000e+00 -4.785000e+01  1.610000e+01
    endloop
  endfacet
  facet normal -0.000000e+00  0.000000e+00 -1.000000e+00
    outer loop
      vertex  -1.647499e+00  3.440306e+01  8.200001e+00
      vertex  -3.144341e+00  3.336987e+01  8.200001e+00
      vertex  -4.600000e+00  4.785000e+01  8.200001e+00
    endloop
  endfacet
  facet normal  0.000000e+00  0.000000e+00 -1.000000e+00
    outer loop
      vertex  -4.600000e+00 -4.785000e+01  8.200001e+00
      vertex  -1.647499e+00  2.729694e+01  8.200001e+00
      vertex   4.600000e+00 -4.785000e+01  8.200001e+00
    endloop
  endfacet
  facet normal  0.000000e+00  0.000000e+00 -1.000000e+00
    outer loop
      vertex   4.600000e+00 -4.785000e+01  8.200001e+00
      vertex  -1.647499e+00  2.729694e+01  8.200001e+00
      vertex   1.580391e-01  2.707771e+01  8.200001e+00
    endloop
  endfacet
  facet normal  0.000000e+00  0.000000e+00 -1.000000e+00
    outer loop
      vertex   4.600000e+00 -4.785000e+01  8.200001e+00
      vertex   1.580391e-01  2.707771e+01  8.200001e+00
      vertex   1.858646e+00  2.772266e+01  8.200001e+00
    endloop
  endfacet
  facet normal -0.000000e+00  0.000000e+00 -1.000000e+00
    outer loop
      vertex  -3.144341e+00  3.336987e+01  8.200001e+00
      vertex  -3.989579e+00  3.175940e+01  8.200001e+00
      vertex  -4.600000e+00  4.785000e+01  8.200001e+00
    endloop
  endfacet
  facet normal  0.000000e+00  0.000000e+00 -1.000000e+00
    outer loop
      vertex  -4.600000e+00  4.785000e+01  8.200001e+00
      vertex  -3.989579e+00  3.175940e+01  8.200001e+00
      vertex  -3.989579e+00  2.994061e+01  8.200001e+00
    endloop
  endfacet
  facet normal  0.000000e+00  0.000000e+00 -1.000000e+00
    outer loop
      vertex  -4.600000e+00  4.785000e+01  8.200001e+00
      vertex  -3.989579e+00  2.994061e+01  8.200001e+00
      vertex  -4.600000e+00 -4.785000e+01  8.200001e+00
    endloop
  endfacet
  facet normal  0.000000e+00  0.000000e+00 -1.000000e+00
    outer loop
      vertex  -4.600000e+00 -4.785000e+01  8.200001e+00
      vertex  -3.989579e+00  2.994061e+01  8.200001e+00
      vertex  -3.144341e+00  2.833013e+01  8.200001e+00
    endloop
  endfacet
  facet normal  0.000000e+00  0.000000e+00 -1.000000e+00
    outer loop
      vertex  -4.600000e+00 -4.785000e+01  8.200001e+00
      vertex  -3.144341e+00  2.833013e+01  8.200001e+00
      vertex  -1.647499e+00  2.729694e+01  8.200001e+00
    endloop
  endfacet
  facet normal  0.000000e+00  0.000000e+00 -1.000000e+00
    outer loop
      vertex   1.858646e+00  2.772266e+01  8.200001e+00
      vertex   3.064733e+00  2.908405e+01  8.200001e+00
      vertex   4.600000e+00 -4.785000e+01  8.200001e+00
    endloop
  endfacet
  facet normal  0.000000e+00  0.000000e+00 -1.000000e+00
    outer loop
      vertex   4.600000e+00 -4.785000e+01  8.200001e+00
      vertex   3.064733e+00  2.908405e+01  8.200001e+00
      vertex   3.500000e+00  3.085000e+01  8.200001e+00
    endloop
  endfacet
  facet normal  0.000000e+00  0.000000e+00 -1.000000e+00
    outer loop
      vertex   4.600000e+00 -4.785000e+01  8.200001e+00
      vertex   3.500000e+00  3.085000e+01  8.200001e+00
      vertex   4.600000e+00  4.785000e+01  8.200001e+00
    endloop
  endfacet
  facet normal  0.000000e+00  0.000000e+00 -1.000000e+00
    outer loop
      vertex   4.600000e+00  4.785000e+01  8.200001e+00
      vertex   3.500000e+00  3.085000e+01  8.200001e+00
      vertex   3.064733e+00  3.261595e+01  8.200001e+00
    endloop
  endfacet
  facet normal  0.000000e+00  0.000000e+00 -1.000000e+00
    outer loop
      vertex   3.064733e+00  3.261595e+01  8.200001e+00
      vertex   1.858646e+00  3.397734e+01  8.200001e+00
      vertex   4.600000e+00  4.785000e+01  8.200001e+00
    endloop
  endfacet
  facet normal  0.000000e+00  0.000000e+00 -1.000000e+00
    outer loop
      vertex   4.600000e+00  4.785000e+01  8.200001e+00
      vertex   1.858646e+00  3.397734e+01  8.200001e+00
      vertex   1.580391e-01  3.462229e+01  8.200001e+00
    endloop
  endfacet
  facet normal -0.000000e+00  0.000000e+00 -1.000000e+00
    outer loop
      vertex   4.600000e+00  4.785000e+01  8.200001e+00
      vertex   1.580391e-01  3.462229e+01  8.200001e+00
      vertex  -4.600000e+00  4.785000e+01  8.200001e+00
    endloop
  endfacet
  facet normal  0.000000e+00  0.000000e+00 -1.000000e+00
    outer loop
      vertex  -4.600000e+00  4.785000e+01  8.200001e+00
      vertex   1.580391e-01  3.462229e+01  8.200001e+00
      vertex  -2.999997e-01  3.465000e+01  8.200001e+00
    endloop
  endfacet
  facet normal  0.000000e+00  0.000000e+00 -1.000000e+00
    outer loop
      vertex  -4.600000e+00  4.785000e+01  8.200001e+00
      vertex  -2.999997e-01  3.465000e+01  8.200001e+00
      vertex  -1.647499e+00  3.440306e+01  8.200001e+00
    endloop
  endfacet
  facet normal  1.000000e+00 -0.000000e+00  0.000000e+00
    outer loop
      vertex   4.600000e+00 -4.785000e+01  1.610000e+01
      vertex   4.600000e+00 -4.785000e+01  8.200001e+00
      vertex   4.600000e+00  4.785000e+01  1.610000e+01
    endloop
  endfacet
  facet normal  1.000000e+00  0.000000e+00  0.000000e+00
    outer loop
      vertex   4.600000e+00  4.785000e+01  1.610000e+01
      vertex   4.600000e+00 -4.785000e+01  8.200001e+00
      vertex   4.600000e+00  4.785000e+01  8.200001e+00
    endloop
  endfacet
  facet normal -1.000000e+00  0.000000e+00  0.000000e+00
    outer loop
      vertex  -4.600000e+00 -4.785000e+01  8.200001e+00
      vertex  -4.600000e+00 -4.785000e+01  1.610000e+01
      vertex  -4.600000e+00  4.785000e+01  8.200001e+00
    endloop
  endfacet
  facet normal -1.000000e+00  0.000000e+00  0.000000e+00
    outer loop
      vertex  -4.600000e+00  4.785000e+01  8.200001e+00
      vertex  -4.600000e+00 -4.785000e+01  1.610000e+01
      vertex  -4.600000e+00  4.785000e+01  1.610000e+01
    endloop
  endfacet
  facet normal -1.802566e-01  9.836196e-01  0.000000e+00
    outer loop
      vertex  -2.999997e-01  3.465000e+01  1.610000e+01
      vertex  -1.647499e+00  3.440306e+01  1.610000e+01
      vertex  -1.647499e+00  3.440306e+01  2.400000e+01
    endloop
  endfacet
  facet normal -5.680619e-01  8.229858e-01  0.000000e+00
    outer loop
      vertex  -1.647499e+00  3.440306e+01  2.400000e+01
      vertex  -1.647499e+00  3.440306e+01  1.610000e+01
      vertex  -3.144341e+00  3.336987e+01  1.610000e+01
    endloop
  endfacet
  facet normal -5.680619e-01  8.229858e-01  0.000000e+00
    outer loop
      vertex  -1.647499e+00  3.440306e+01  2.400000e+01
      vertex  -3.144341e+00  3.336987e+01  1.610000e+01
      vertex  -3.144341e+00  3.336987e+01  2.400000e+01
    endloop
  endfacet
  facet normal -8.854569e-01  4.647214e-01  0.000000e+00
    outer loop
      vertex  -3.144341e+00  3.336987e+01  2.400000e+01
      vertex  -3.144341e+00  3.336987e+01  1.610000e+01
      vertex  -3.989579e+00  3.175940e+01  1.610000e+01
    endloop
  endfacet
  facet normal -8.854569e-01  4.647214e-01  0.000000e+00
    outer loop
      vertex  -3.144341e+00  3.336987e+01  2.400000e+01
      vertex  -3.989579e+00  3.175940e+01  1.610000e+01
      vertex  -3.989579e+00  3.175940e+01  2.400000e+01
    endloop
  endfacet
  facet normal -1.000000e+00  0.000000e+00 -0.000000e+00
    outer loop
      vertex  -3.989579e+00  3.175940e+01  2.400000e+01
      vertex  -3.989579e+00  3.175940e+01  1.610000e+01
      vertex  -3.989579e+00  2.994061e+01  1.610000e+01
    endloop
  endfacet
  facet normal -1.000000e+00 -0.000000e+00  0.000000e+00
    outer loop
      vertex  -3.989579e+00  3.175940e+01  2.400000e+01
      vertex  -3.989579e+00  2.994061e+01  1.610000e+01
      vertex  -3.989579e+00  2.994061e+01  2.400000e+01
    endloop
  endfacet
  facet normal -8.854569e-01 -4.647214e-01 -0.000000e+00
    outer loop
      vertex  -3.989579e+00  2.994061e+01  2.400000e+01
      vertex  -3.989579e+00  2.994061e+01  1.610000e+01
      vertex  -3.144341e+00  2.833013e+01  1.610000e+01
    endloop
  endfacet
  facet normal -8.854569e-01 -4.647214e-01  0.000000e+00
    outer loop
      vertex  -3.989579e+00  2.994061e+01  2.400000e+01
      vertex  -3.144341e+00  2.833013e+01  1.610000e+01
      vertex  -3.144341e+00  2.833013e+01  2.400000e+01
    endloop
  endfacet
  facet normal -5.680619e-01 -8.229858e-01 -0.000000e+00
    outer loop
      vertex  -3.144341e+00  2.833013e+01  2.400000e+01
      vertex  -3.144341e+00  2.833013e+01  1.610000e+01
      vertex  -1.647499e+00  2.729694e+01  1.610000e+01
    endloop
  endfacet
  facet normal -5.680619e-01 -8.229858e-01  0.000000e+00
    outer loop
      vertex  -3.144341e+00  2.833013e+01  2.400000e+01
      vertex  -1.647499e+00  2.729694e+01  1.610000e+01
      vertex  -1.647499e+00  2.729694e+01  2.400000e+01
    endloop
  endfacet
  facet normal -1.205359e-01 -9.927090e-01 -0.000000e+00
    outer loop
      vertex  -1.647499e+00  2.729694e+01  2.400000e+01
      vertex  -1.647499e+00  2.729694e+01  1.610000e+01
      vertex   1.580391e-01  2.707771e+01  1.610000e+01
    endloop
  endfacet
  facet normal -1.205359e-01 -9.927090e-01  0.000000e+00
    outer loop
      vertex  -1.647499e+00  2.729694e+01  2.400000e+01
      vertex   1.580391e-01  2.707771e+01  1.610000e+01
      vertex   1.580391e-01  2.707771e+01  2.400000e+01
    endloop
  endfacet
  facet normal  3.546029e-01 -9.350170e-01  0.000000e+00
    outer loop
      vertex   1.580391e-01  2.707771e+01  2.400000e+01
      vertex   1.580391e-01  2.707771e+01  1.610000e+01
      vertex   1.858646e+00  2.772266e+01  1.610000e+01
    endloop
  endfacet
  facet normal  3.546029e-01 -9.350170e-01  0.000000e+00
    outer loop
      vertex   1.580391e-01  2.707771e+01  2.400000e+01
      vertex   1.858646e+00  2.772266e+01  1.610000e+01
      vertex   1.858646e+00  2.772266e+01  2.400000e+01
    endloop
  endfacet
  facet normal  7.485103e-01 -6.631231e-01  0.000000e+00
    outer loop
      vertex   1.858646e+00  2.772266e+01  2.400000e+01
      vertex   1.858646e+00  2.772266e+01  1.610000e+01
      vertex   3.064733e+00  2.908405e+01  1.610000e+01
    endloop
  endfacet
  facet normal  7.485103e-01 -6.631231e-01  0.000000e+00
    outer loop
      vertex   1.858646e+00  2.772266e+01  2.400000e+01
      vertex   3.064733e+00  2.908405e+01  1.610000e+01
      vertex   3.064733e+00  2.908405e+01  2.400000e+01
    endloop
  endfacet
  facet normal  9.709417e-01 -2.393162e-01  0.000000e+00
    outer loop
      vertex   3.064733e+00  2.908405e+01  2.400000e+01
      vertex   3.064733e+00  2.908405e+01  1.610000e+01
      vertex   3.500000e+00  3.085000e+01  1.610000e+01
    endloop
  endfacet
  facet normal  9.709417e-01 -2.393162e-01  0.000000e+00
    outer loop
      vertex   3.064733e+00  2.908405e+01  2.400000e+01
      vertex   3.500000e+00  3.085000e+01  1.610000e+01
      vertex   3.500000e+00  3.085000e+01  2.400000e+01
    endloop
  endfacet
  facet normal  9.709420e-01  2.393152e-01  0.000000e+00
    outer loop
      vertex   3.500000e+00  3.085000e+01  2.400000e+01
      vertex   3.500000e+00  3.085000e+01  1.610000e+01
      vertex   3.064733e+00  3.261595e+01  1.610000e+01
    endloop
  endfacet
  facet normal  9.709420e-01  2.393152e-01  0.000000e+00
    outer loop
      vertex   3.500000e+00  3.085000e+01  2.400000e+01
      vertex   3.064733e+00  3.261595e+01  1.610000e+01
      vertex   3.064733e+00  3.261595e+01  2.400000e+01
    endloop
  endfacet
  facet normal  7.485103e-01  6.631231e-01  0.000000e+00
    outer loop
      vertex   3.064733e+00  3.261595e+01  2.400000e+01
      vertex   3.064733e+00  3.261595e+01  1.610000e+01
      vertex   1.858646e+00  3.397734e+01  1.610000e+01
    endloop
  endfacet
  facet normal  7.485103e-01  6.631231e-01  0.000000e+00
    outer loop
      vertex   3.064733e+00  3.261595e+01  2.400000e+01
      vertex   1.858646e+00  3.397734e+01  1.610000e+01
      vertex   1.858646e+00  3.397734e+01  2.400000e+01
    endloop
  endfacet
  facet normal  3.546029e-01  9.350170e-01  0.000000e+00
    outer loop
      vertex   1.858646e+00  3.397734e+01  2.400000e+01
      vertex   1.858646e+00  3.397734e+01  1.610000e+01
      vertex   1.580391e-01  3.462229e+01  1.610000e+01
    endloop
  endfacet
  facet normal  3.546029e-01  9.350170e-01  0.000000e+00
    outer loop
      vertex   1.858646e+00  3.397734e+01  2.400000e+01
      vertex   1.580391e-01  3.462229e+01  1.610000e+01
      vertex   1.580391e-01  3.462229e+01  2.400000e+01
    endloop
  endfacet
  facet normal  6.038656e-02  9.981751e-01  0.000000e+00
    outer loop
      vertex   1.580391e-01  3.462229e+01  2.400000e+01
      vertex   1.580391e-01  3.462229e+01  1.610000e+01
      vertex  -2.999997e-01  3.465000e+01  1.610000e+01
    endloop
  endfacet
  facet normal -1.205293e-01  9.926546e-01  1.047007e-02
    outer loop
      vertex   1.580391e-01  3.462229e+01  2.400000e+01
      vertex  -2.999997e-01  3.465000e+01  1.610000e+01
      vertex  -1.647499e+00  3.440306e+01  2.400000e+01
    endloop
  endfacet
  facet normal  0.000000e+00  0.000000e+00  1.000000e+00
    outer loop
      vertex   3.500000e+00  3.085000e+01  2.400000e+01
      vertex   3.064733e+00  3.261595e+01  2.400000e+01
      vertex  -2.999997e-01  3.085000e+01  2.400000e+01
    endloop
  endfacet
  facet normal  0.000000e+00 -0.000000e+00  1.000000e+00
    outer loop
      vertex   1.580391e-01  2.707771e+01  2.400000e+01
      vertex   1.858646e+00  2.772266e+01  2.400000e+01
      vertex  -2.999997e-01  3.085000e+01  2.400000e+01
    endloop
  endfacet
  facet normal  0.000000e+00  0.000000e+00  1.000000e+00
    outer loop
      vertex  -2.999997e-01  3.085000e+01  2.400000e+01
      vertex   1.858646e+00  2.772266e+01  2.400000e+01
      vertex   3.064733e+00  2.908405e+01  2.400000e+01
    endloop
  endfacet
  facet normal -0.000000e+00  0.000000e+00  1.000000e+00
    outer loop
      vertex  -2.999997e-01  3.085000e+01  2.400000e+01
      vertex   3.064733e+00  2.908405e+01  2.400000e+01
      vertex   3.500000e+00  3.085000e+01  2.400000e+01
    endloop
  endfacet
  facet normal -0.000000e+00  0.000000e+00  1.000000e+00
    outer loop
      vertex  -3.989579e+00  2.994061e+01  2.400000e+01
      vertex  -3.144341e+00  2.833013e+01  2.400000e+01
      vertex  -2.999997e-01  3.085000e+01  2.400000e+01
    endloop
  endfacet
  facet normal  0.000000e+00  0.000000e+00  1.000000e+00
    outer loop
      vertex  -2.999997e-01  3.085000e+01  2.400000e+01
      vertex  -3.144341e+00  2.833013e+01  2.400000e+01
      vertex  -1.647499e+00  2.729694e+01  2.400000e+01
    endloop
  endfacet
  facet normal  0.000000e+00  0.000000e+00  1.000000e+00
    outer loop
      vertex  -2.999997e-01  3.085000e+01  2.400000e+01
      vertex  -1.647499e+00  2.729694e+01  2.400000e+01
      vertex   1.580391e-01  2.707771e+01  2.400000e+01
    endloop
  endfacet
  facet normal  0.000000e+00  0.000000e+00  1.000000e+00
    outer loop
      vertex  -1.647499e+00  3.440306e+01  2.400000e+01
      vertex  -3.144341e+00  3.336987e+01  2.400000e+01
      vertex  -2.999997e-01  3.085000e+01  2.400000e+01
    endloop
  endfacet
  facet normal  0.000000e+00  0.000000e+00  1.000000e+00
    outer loop
      vertex  -2.999997e-01  3.085000e+01  2.400000e+01
      vertex  -3.144341e+00  3.336987e+01  2.400000e+01
      vertex  -3.989579e+00  3.175940e+01  2.400000e+01
    endloop
  endfacet
  facet normal  0.000000e+00  0.000000e+00  1.000000e+00
    outer loop
      vertex  -2.999997e-01  3.085000e+01  2.400000e+01
      vertex  -3.989579e+00  3.175940e+01  2.400000e+01
      vertex  -3.989579e+00  2.994061e+01  2.400000e+01
    endloop
  endfacet
  facet normal  0.000000e+00  0.000000e+00  1.000000e+00
    outer loop
      vertex   3.064733e+00  3.261595e+01  2.400000e+01
      vertex   1.858646e+00  3.397734e+01  2.400000e+01
      vertex  -2.999997e-01  3.085000e+01  2.400000e+01
    endloop
  endfacet
  facet normal  0.000000e+00  0.000000e+00  1.000000e+00
    outer loop
      vertex  -2.999997e-01  3.085000e+01  2.400000e+01
      vertex   1.858646e+00  3.397734e+01  2.400000e+01
      vertex   1.580391e-01  3.462229e+01  2.400000e+01
    endloop
  endfacet
  facet normal  0.000000e+00 -0.000000e+00  1.000000e+00
    outer loop
      vertex  -2.999997e-01  3.085000e+01  2.400000e+01
      vertex   1.580391e-01  3.462229e+01  2.400000e+01
      vertex  -1.647499e+00  3.440306e+01  2.400000e+01
    endloop
  endfacet
  facet normal  0.000000e+00  0.000000e+00  1.000000e+00
    outer loop
      vertex  -1.647499e+00  2.729694e+01 -8.000000e+00
      vertex  -4.600000e+00 -4.785000e+01 -8.000000e+00
      vertex   1.580391e-01  2.707771e+01 -8.000000e+00
    endloop
  endfacet
  facet normal  0.000000e+00  0.000000e+00  1.000000e+00
    outer loop
      vertex   1.580391e-01  2.707771e+01 -8.000000e+00
      vertex  -4.600000e+00 -4.785000e+01 -8.000000e+00
      vertex   4.600000e+00 -4.785000e+01 -8.000000e+00
    endloop
  endfacet
  facet normal -0.000000e+00  0.000000e+00  1.000000e+00
    outer loop
      vertex   1.580391e-01  2.707771e+01 -8.000000e+00
      vertex   4.600000e+00 -4.785000e+01 -8.000000e+00
      vertex   1.858646e+00  2.772266e+01 -8.000000e+00
    endloop
  endfacet
  facet normal -0.000000e+00  0.000000e+00  1.000000e+00
    outer loop
      vertex   1.858646e+00  3.397734e+01 -8.000000e+00
      vertex   3.064733e+00  3.261595e+01 -8.000000e+00
      vertex   4.600000e+00  4.785000e+01 -8.000000e+00
    endloop
  endfacet
  facet normal  0.000000e+00  0.000000e+00  1.000000e+00
    outer loop
      vertex   4.600000e+00  4.785000e+01 -8.000000e+00
      vertex   3.064733e+00  3.261595e+01 -8.000000e+00
      vertex   3.500000e+00  3.085000e+01 -8.000000e+00
    endloop
  endfacet
  facet normal  0.000000e+00  0.000000e+00  1.000000e+00
    outer loop
      vertex   4.600000e+00  4.785000e+01 -8.000000e+00
      vertex   3.500000e+00  3.085000e+01 -8.000000e+00
      vertex   4.600000e+00 -4.785000e+01 -8.000000e+00
    endloop
  endfacet
  facet normal  0.000000e+00  0.000000e+00  1.000000e+00
    outer loop
      vertex   4.600000e+00 -4.785000e+01 -8.000000e+00
      vertex   3.500000e+00  3.085000e+01 -8.000000e+00
      vertex   3.064733e+00  2.908405e+01 -8.000000e+00
    endloop
  endfacet
  facet normal  0.000000e+00  0.000000e+00  1.000000e+00
    outer loop
      vertex   4.600000e+00 -4.785000e+01 -8.000000e+00
      vertex   3.064733e+00  2.908405e+01 -8.000000e+00
      vertex   1.858646e+00  2.772266e+01 -8.000000e+00
    endloop
  endfacet
  facet normal  0.000000e+00  0.000000e+00  1.000000e+00
    outer loop
      vertex  -1.647499e+00  2.729694e+01 -8.000000e+00
      vertex  -3.144341e+00  2.833013e+01 -8.000000e+00
      vertex  -4.600000e+00 -4.785000e+01 -8.000000e+00
    endloop
  endfacet
  facet normal  0.000000e+00  0.000000e+00  1.000000e+00
    outer loop
      vertex  -4.600000e+00 -4.785000e+01 -8.000000e+00
      vertex  -3.144341e+00  2.833013e+01 -8.000000e+00
      vertex  -3.989579e+00  2.994061e+01 -8.000000e+00
    endloop
  endfacet
  facet normal  0.000000e+00  0.000000e+00  1.000000e+00
    outer loop
      vertex  -4.600000e+00 -4.785000e+01 -8.000000e+00
      vertex  -3.989579e+00  2.994061e+01 -8.000000e+00
      vertex  -4.600000e+00  4.785000e+01 -8.000000e+00
    endloop
  endfacet
  facet normal  0.000000e+00  0.000000e+00  1.000000e+00
    outer loop
      vertex  -4.600000e+00  4.785000e+01 -8.000000e+00
      vertex  -3.989579e+00  2.994061e+01 -8.000000e+00
      vertex  -3.989579e+00  3.175940e+01 -8.000000e+00
    endloop
  endfacet
  facet normal  0.000000e+00  0.000000e+00  1.000000e+00
    outer loop
      vertex  -4.600000e+00  4.785000e+01 -8.000000e+00
      vertex  -3.989579e+00  3.175940e+01 -8.000000e+00
      vertex  -3.144341e+00  3.336987e+01 -8.000000e+00
    endloop
  endfacet
  facet normal  0.000000e+00 -0.000000e+00  1.000000e+00
    outer loop
      vertex  -3.144341e+00  3.336987e+01 -8.000000e+00
      vertex  -1.647499e+00  3.440306e+01 -8.000000e+00
      vertex  -4.600000e+00  4.785000e+01 -8.000000e+00
    endloop
  endfacet
  facet normal  0.000000e+00  0.000000e+00  1.000000e+00
    outer loop
      vertex  -4.600000e+00  4.785000e+01 -8.000000e+00
      vertex  -1.647499e+00  3.440306e+01 -8.000000e+00
      vertex  -2.999997e-01  3.465000e+01 -8.000000e+00
    endloop
  endfacet
  facet normal -0.000000e+00  0.000000e+00  1.000000e+00
    outer loop
      vertex  -4.600000e+00  4.785000e+01 -8.000000e+00
      vertex  -2.999997e-01  3.465000e+01 -8.000000e+00
      vertex   4.600000e+00  4.785000e+01 -8.000000e+00
    endloop
  endfacet
  facet normal  0.000000e+00  0.000000e+00  1.000000e+00
    outer loop
      vertex   4.600000e+00  4.785000e+01 -8.000000e+00
      vertex  -2.999997e-01  3.465000e+01 -8.000000e+00
      vertex   1.580391e-01  3.462229e+01 -8.000000e+00
    endloop
  endfacet
  facet normal  0.000000e+00  0.000000e+00  1.000000e+00
    outer loop
      vertex   4.600000e+00  4.785000e+01 -8.000000e+00
      vertex   1.580391e-01  3.462229e+01 -8.000000e+00
      vertex   1.858646e+00  3.397734e+01 -8.000000e+00
    endloop
  endfacet
  facet normal  0.000000e+00 -1.000000e+00  0.000000e+00
    outer loop
      vertex   4.600000e+00 -4.785000e+01 -1.590000e+01
      vertex   4.600000e+00 -4.785000e+01 -8.000000e+00
      vertex  -4.600000e+00 -4.785000e+01 -1.590000e+01
    endloop
  endfacet
  facet normal  0.000000e+00 -1.000000e+00  0.000000e+00
    outer loop
      vertex  -4.600000e+00 -4.785000e+01 -1.590000e+01
      vertex   4.600000e+00 -4.785000e+01 -8.000000e+00
      vertex  -4.600000e+00 -4.785000e+01 -8.000000e+00
    endloop
  endfacet
  facet normal  0.000000e+00  0.000000e+00 -1.000000e+00
    outer loop
      vertex   1.858646e+00  3.397734e+01 -1.590000e+01
      vertex   1.580391e-01  3.462229e+01 -1.590000e+01
      vertex   4.600000e+00  4.785000e+01 -1.590000e+01
    endloop
  endfacet
  facet normal -0.000000e+00  0.000000e+00 -1.000000e+00
    outer loop
      vertex   4.600000e+00  4.785000e+01 -1.590000e+01
      vertex   1.580391e-01  3.462229e+01 -1.590000e+01
      vertex  -4.600000e+00  4.785000e+01 -1.590000e+01
    endloop
  endfacet
  facet normal  0.000000e+00  0.000000e+00 -1.000000e+00
    outer loop
      vertex  -4.600000e+00  4.785000e+01 -1.590000e+01
      vertex   1.580391e-01  3.462229e+01 -1.590000e+01
      vertex  -1.647499e+00  3.440306e+01 -1.590000e+01
    endloop
  endfacet
  facet normal  0.000000e+00  0.000000e+00 -1.000000e+00
    outer loop
      vertex  -4.600000e+00  4.785000e+01 -1.590000e+01
      vertex  -1.647499e+00  3.440306e+01 -1.590000e+01
      vertex  -3.144341e+00  3.336987e+01 -1.590000e+01
    endloop
  endfacet
  facet normal -0.000000e+00  0.000000e+00 -1.000000e+00
    outer loop
      vertex  -3.144341e+00  3.336987e+01 -1.590000e+01
      vertex  -3.989579e+00  3.175940e+01 -1.590000e+01
      vertex  -4.600000e+00  4.785000e+01 -1.590000e+01
    endloop
  endfacet
  facet normal  0.000000e+00  0.000000e+00 -1.000000e+00
    outer loop
      vertex  -4.600000e+00  4.785000e+01 -1.590000e+01
      vertex  -3.989579e+00  3.175940e+01 -1.590000e+01
      vertex  -3.989579e+00  2.994061e+01 -1.590000e+01
    endloop
  endfacet
  facet normal  0.000000e+00  0.000000e+00 -1.000000e+00
    outer loop
      vertex  -4.600000e+00  4.785000e+01 -1.590000e+01
      vertex  -3.989579e+00  2.994061e+01 -1.590000e+01
      vertex  -4.600000e+00 -4.785000e+01 -1.590000e+01
    endloop
  endfacet
  facet normal  0.000000e+00  0.000000e+00 -1.000000e+00
    outer loop
      vertex  -4.600000e+00 -4.785000e+01 -1.590000e+01
      vertex  -3.989579e+00  2.994061e+01 -1.590000e+01
      vertex  -3.144341e+00  2.833013e+01 -1.590000e+01
    endloop
  endfacet
  facet normal  0.000000e+00  0.000000e+00 -1.000000e+00
    outer loop
      vertex   1.858646e+00  2.772266e+01 -1.590000e+01
      vertex   3.064733e+00  2.908405e+01 -1.590000e+01
      vertex   4.600000e+00 -4.785000e+01 -1.590000e+01
    endloop
  endfacet
  facet normal  0.000000e+00  0.000000e+00 -1.000000e+00
    outer loop
      vertex   4.600000e+00 -4.785000e+01 -1.590000e+01
      vertex   3.064733e+00  2.908405e+01 -1.590000e+01
      vertex   3.500000e+00  3.085000e+01 -1.590000e+01
    endloop
  endfacet
  facet normal  0.000000e+00  0.000000e+00 -1.000000e+00
    outer loop
      vertex   4.600000e+00 -4.785000e+01 -1.590000e+01
      vertex   3.500000e+00  3.085000e+01 -1.590000e+01
      vertex   4.600000e+00  4.785000e+01 -1.590000e+01
    endloop
  endfacet
  facet normal  0.000000e+00  0.000000e+00 -1.000000e+00
    outer loop
      vertex   4.600000e+00  4.785000e+01 -1.590000e+01
      vertex   3.500000e+00  3.085000e+01 -1.590000e+01
      vertex   3.064733e+00  3.261595e+01 -1.590000e+01
    endloop
  endfacet
  facet normal  0.000000e+00  0.000000e+00 -1.000000e+00
    outer loop
      vertex   4.600000e+00  4.785000e+01 -1.590000e+01
      vertex   3.064733e+00  3.261595e+01 -1.590000e+01
      vertex   1.858646e+00  3.397734e+01 -1.590000e+01
    endloop
  endfacet
  facet normal  0.000000e+00 -0.000000e+00 -1.000000e+00
    outer loop
      vertex  -3.144341e+00  2.833013e+01 -1.590000e+01
      vertex  -1.647499e+00  2.729694e+01 -1.590000e+01
      vertex  -4.600000e+00 -4.785000e+01 -1.590000e+01
    endloop
  endfacet
  facet normal  0.000000e+00  0.000000e+00 -1.000000e+00
    outer loop
      vertex  -4.600000e+00 -4.785000e+01 -1.590000e+01
      vertex  -1.647499e+00  2.729694e+01 -1.590000e+01
      vertex  -2.999997e-01  2.705000e+01 -1.590000e+01
    endloop
  endfacet
  facet normal  0.000000e+00  0.000000e+00 -1.000000e+00
    outer loop
      vertex  -4.600000e+00 -4.785000e+01 -1.590000e+01
      vertex  -2.999997e-01  2.705000e+01 -1.590000e+01
      vertex   4.600000e+00 -4.785000e+01 -1.590000e+01
    endloop
  endfacet
  facet normal  0.000000e+00  0.000000e+00 -1.000000e+00
    outer loop
      vertex   4.600000e+00 -4.785000e+01 -1.590000e+01
      vertex  -2.999997e-01  2.705000e+01 -1.590000e+01
      vertex   1.580391e-01  2.707771e+01 -1.590000e+01
    endloop
  endfacet
  facet normal  0.000000e+00  0.000000e+00 -1.000000e+00
    outer loop
      vertex   4.600000e+00 -4.785000e+01 -1.590000e+01
      vertex   1.580391e-01  2.707771e+01 -1.590000e+01
      vertex   1.858646e+00  2.772266e+01 -1.590000e+01
    endloop
  endfacet
  facet normal  0.000000e+00  1.000000e+00  0.000000e+00
    outer loop
      vertex   4.600000e+00  4.785000e+01 -8.000000e+00
      vertex   4.600000e+00  4.785000e+01 -1.590000e+01
      vertex  -4.600000e+00  4.785000e+01 -8.000000e+00
    endloop
  endfacet
  facet normal  0.000000e+00  1.000000e+00  0.000000e+00
    outer loop
      vertex  -4.600000e+00  4.785000e+01 -8.000000e+00
      vertex   4.600000e+00  4.785000e+01 -1.590000e+01
      vertex  -4.600000e+00  4.785000e+01 -1.590000e+01
    endloop
  endfacet
  facet normal  1.000000e+00  0.000000e+00  0.000000e+00
    outer loop
      vertex   4.600000e+00 -4.785000e+01 -1.590000e+01
      vertex   4.600000e+00  4.785000e+01 -1.590000e+01
      vertex   4.600000e+00 -4.785000e+01 -8.000000e+00
    endloop
  endfacet
  facet normal  1.000000e+00 -0.000000e+00  0.000000e+00
    outer loop
      vertex   4.600000e+00 -4.785000e+01 -8.000000e+00
      vertex   4.600000e+00  4.785000e+01 -1.590000e+01
      vertex   4.600000e+00  4.785000e+01 -8.000000e+00
    endloop
  endfacet
  facet normal -1.000000e+00  0.000000e+00  0.000000e+00
    outer loop
      vertex  -4.600000e+00  4.785000e+01 -1.590000e+01
      vertex  -4.600000e+00 -4.785000e+01 -1.590000e+01
      vertex  -4.600000e+00  4.785000e+01 -8.000000e+00
    endloop
  endfacet
  facet normal -1.000000e+00 -0.000000e+00  0.000000e+00
    outer loop
      vertex  -4.600000e+00  4.785000e+01 -8.000000e+00
      vertex  -4.600000e+00 -4.785000e+01 -1.590000e+01
      vertex  -4.600000e+00 -4.785000e+01 -8.000000e+00
    endloop
  endfacet
  facet normal -0.000000e+00  0.000000e+00 -1.000000e+00
    outer loop
      vertex   3.500000e+00  3.085000e+01 -2.400000e+01
      vertex   3.064733e+00  2.908405e+01 -2.400000e+01
      vertex  -2.999997e-01  3.085000e+01 -2.400000e+01
    endloop
  endfacet
  facet normal  0.000000e+00 -0.000000e+00 -1.000000e+00
    outer loop
      vertex   1.580391e-01  3.462229e+01 -2.400000e+01
      vertex   1.858646e+00  3.397734e+01 -2.400000e+01
      vertex  -2.999997e-01  3.085000e+01 -2.400000e+01
    endloop
  endfacet
  facet normal  0.000000e+00  0.000000e+00 -1.000000e+00
    outer loop
      vertex  -2.999997e-01  3.085000e+01 -2.400000e+01
      vertex   1.858646e+00  3.397734e+01 -2.400000e+01
      vertex   3.064733e+00  3.261595e+01 -2.400000e+01
    endloop
  endfacet
  facet normal  0.000000e+00  0.000000e+00 -1.000000e+00
    outer loop
      vertex  -2.999997e-01  3.085000e+01 -2.400000e+01
      vertex   3.064733e+00  3.261595e+01 -2.400000e+01
      vertex   3.500000e+00  3.085000e+01 -2.400000e+01
    endloop
  endfacet
  facet normal  0.000000e+00  0.000000e+00 -1.000000e+00
    outer loop
      vertex  -3.989579e+00  3.175940e+01 -2.400000e+01
      vertex  -3.144341e+00  3.336987e+01 -2.400000e+01
      vertex  -2.999997e-01  3.085000e+01 -2.400000e+01
    endloop
  endfacet
  facet normal  0.000000e+00  0.000000e+00 -1.000000e+00
    outer loop
      vertex  -2.999997e-01  3.085000e+01 -2.400000e+01
      vertex  -3.144341e+00  3.336987e+01 -2.400000e+01
      vertex  -1.647499e+00  3.440306e+01 -2.400000e+01
    endloop
  endfacet
  facet normal  0.000000e+00  0.000000e+00 -1.000000e+00
    outer loop
      vertex  -2.999997e-01  3.085000e+01 -2.400000e+01
      vertex  -1.647499e+00  3.440306e+01 -2.400000e+01
      vertex   1.580391e-01  3.462229e+01 -2.400000e+01
    endloop
  endfacet
  facet normal  0.000000e+00  0.000000e+00 -1.000000e+00
    outer loop
      vertex  -1.647499e+00  2.729694e+01 -2.400000e+01
      vertex  -3.144341e+00  2.833013e+01 -2.400000e+01
      vertex  -2.999997e-01  3.085000e+01 -2.400000e+01
    endloop
  endfacet
  facet normal  0.000000e+00  0.000000e+00 -1.000000e+00
    outer loop
      vertex  -2.999997e-01  3.085000e+01 -2.400000e+01
      vertex  -3.144341e+00  2.833013e+01 -2.400000e+01
      vertex  -3.989579e+00  2.994061e+01 -2.400000e+01
    endloop
  endfacet
  facet normal -0.000000e+00  0.000000e+00 -1.000000e+00
    outer loop
      vertex  -2.999997e-01  3.085000e+01 -2.400000e+01
      vertex  -3.989579e+00  2.994061e+01 -2.400000e+01
      vertex  -3.989579e+00  3.175940e+01 -2.400000e+01
    endloop
  endfacet
  facet normal -0.000000e+00  0.000000e+00 -1.000000e+00
    outer loop
      vertex   3.064733e+00  2.908405e+01 -2.400000e+01
      vertex   1.858646e+00  2.772266e+01 -2.400000e+01
      vertex  -2.999997e-01  3.085000e+01 -2.400000e+01
    endloop
  endfacet
  facet normal  0.000000e+00  0.000000e+00 -1.000000e+00
    outer loop
      vertex  -2.999997e-01  3.085000e+01 -2.400000e+01
      vertex   1.858646e+00  2.772266e+01 -2.400000e+01
      vertex   1.580391e-01  2.707771e+01 -2.400000e+01
    endloop
  endfacet
  facet normal  0.000000e+00 -0.000000e+00 -1.000000e+00
    outer loop
      vertex  -2.999997e-01  3.085000e+01 -2.400000e+01
      vertex   1.580391e-01  2.707771e+01 -2.400000e+01
      vertex  -1.647499e+00  2.729694e+01 -2.400000e+01
    endloop
  endfacet
  facet normal -1.802566e-01 -9.836196e-01  0.000000e+00
    outer loop
      vertex  -2.999997e-01  2.705000e+01 -1.590000e+01
      vertex  -1.647499e+00  2.729694e+01 -1.590000e+01
      vertex  -1.647499e+00  2.729694e+01 -2.400000e+01
    endloop
  endfacet
  facet normal -5.680619e-01 -8.229858e-01  0.000000e+00
    outer loop
      vertex  -1.647499e+00  2.729694e+01 -2.400000e+01
      vertex  -1.647499e+00  2.729694e+01 -1.590000e+01
      vertex  -3.144341e+00  2.833013e+01 -1.590000e+01
    endloop
  endfacet
  facet normal -5.680619e-01 -8.229858e-01  0.000000e+00
    outer loop
      vertex  -1.647499e+00  2.729694e+01 -2.400000e+01
      vertex  -3.144341e+00  2.833013e+01 -1.590000e+01
      vertex  -3.144341e+00  2.833013e+01 -2.400000e+01
    endloop
  endfacet
  facet normal -8.854569e-01 -4.647214e-01  0.000000e+00
    outer loop
      vertex  -3.144341e+00  2.833013e+01 -2.400000e+01
      vertex  -3.144341e+00  2.833013e+01 -1.590000e+01
      vertex  -3.989579e+00  2.994061e+01 -1.590000e+01
    endloop
  endfacet
  facet normal -8.854569e-01 -4.647214e-01  0.000000e+00
    outer loop
      vertex  -3.144341e+00  2.833013e+01 -2.400000e+01
      vertex  -3.989579e+00  2.994061e+01 -1.590000e+01
      vertex  -3.989579e+00  2.994061e+01 -2.400000e+01
    endloop
  endfacet
  facet normal -1.000000e+00  0.000000e+00  0.000000e+00
    outer loop
      vertex  -3.989579e+00  2.994061e+01 -2.400000e+01
      vertex  -3.989579e+00  2.994061e+01 -1.590000e+01
      vertex  -3.989579e+00  3.175940e+01 -1.590000e+01
    endloop
  endfacet
  facet normal -1.000000e+00  0.000000e+00  0.000000e+00
    outer loop
      vertex  -3.989579e+00  2.994061e+01 -2.400000e+01
      vertex  -3.989579e+00  3.175940e+01 -1.590000e+01
      vertex  -3.989579e+00  3.175940e+01 -2.400000e+01
    endloop
  endfacet
  facet normal -8.854569e-01  4.647214e-01  0.000000e+00
    outer loop
      vertex  -3.989579e+00  3.175940e+01 -2.400000e+01
      vertex  -3.989579e+00  3.175940e+01 -1.590000e+01
      vertex  -3.144341e+00  3.336987e+01 -1.590000e+01
    endloop
  endfacet
  facet normal -8.854569e-01  4.647214e-01  0.000000e+00
    outer loop
      vertex  -3.989579e+00  3.175940e+01 -2.400000e+01
      vertex  -3.144341e+00  3.336987e+01 -1.590000e+01
      vertex  -3.144341e+00  3.336987e+01 -2.400000e+01
    endloop
  endfacet
  facet normal -5.680619e-01  8.229858e-01  0.000000e+00
    outer loop
      vertex  -3.144341e+00  3.336987e+01 -2.400000e+01
      vertex  -3.144341e+00  3.336987e+01 -1.590000e+01
      vertex  -1.647499e+00  3.440306e+01 -1.590000e+01
    endloop
  endfacet
  facet normal -5.680619e-01  8.229858e-01  0.000000e+00
    outer loop
      vertex  -3.144341e+00  3.336987e+01 -2.400000e+01
      vertex  -1.647499e+00  3.440306e+01 -1.590000e+01
      vertex  -1.647499e+00  3.440306e+01 -2.400000e+01
    endloop
  endfacet
  facet normal -1.205360e-01  9.927090e-01  0.000000e+00
    outer loop
      vertex  -1.647499e+00  3.440306e+01 -2.400000e+01
      vertex  -1.647499e+00  3.440306e+01 -1.590000e+01
      vertex   1.580391e-01  3.462229e+01 -1.590000e+01
    endloop
  endfacet
  facet normal -1.205360e-01  9.927090e-01  0.000000e+00
    outer loop
      vertex  -1.647499e+00  3.440306e+01 -2.400000e+01
      vertex   1.580391e-01  3.462229e+01 -1.590000e+01
      vertex   1.580391e-01  3.462229e+01 -2.400000e+01
    endloop
  endfacet
  facet normal  3.546029e-01  9.350170e-01 -0.000000e+00
    outer loop
      vertex   1.580391e-01  3.462229e+01 -2.400000e+01
      vertex   1.580391e-01  3.462229e+01 -1.590000e+01
      vertex   1.858646e+00  3.397734e+01 -1.590000e+01
    endloop
  endfacet
  facet normal  3.546029e-01  9.350170e-01  0.000000e+00
    outer loop
      vertex   1.580391e-01  3.462229e+01 -2.400000e+01
      vertex   1.858646e+00  3.397734e+01 -1.590000e+01
      vertex   1.858646e+00  3.397734e+01 -2.400000e+01
    endloop
  endfacet
  facet normal  7.485104e-01  6.631231e-01 -0.000000e+00
    outer loop
      vertex   1.858646e+00  3.397734e+01 -2.400000e+01
      vertex   1.858646e+00  3.397734e+01 -1.590000e+01
      vertex   3.064733e+00  3.261595e+01 -1.590000e+01
    endloop
  endfacet
  facet normal  7.485104e-01  6.631231e-01  0.000000e+00
    outer loop
      vertex   1.858646e+00  3.397734e+01 -2.400000e+01
      vertex   3.064733e+00  3.261595e+01 -1.590000e+01
      vertex   3.064733e+00  3.261595e+01 -2.400000e+01
    endloop
  endfacet
  facet normal  9.709419e-01  2.393152e-01 -0.000000e+00
    outer loop
      vertex   3.064733e+00  3.261595e+01 -2.400000e+01
      vertex   3.064733e+00  3.261595e+01 -1.590000e+01
      vertex   3.500000e+00  3.085000e+01 -1.590000e+01
    endloop
  endfacet
  facet normal  9.709419e-01  2.393152e-01  0.000000e+00
    outer loop
      vertex   3.064733e+00  3.261595e+01 -2.400000e+01
      vertex   3.500000e+00  3.085000e+01 -1.590000e+01
      vertex   3.500000e+00  3.085000e+01 -2.400000e+01
    endloop
  endfacet
  facet normal  9.709417e-01 -2.393162e-01  0.000000e+00
    outer loop
      vertex   3.500000e+00  3.085000e+01 -2.400000e+01
      vertex   3.500000e+00  3.085000e+01 -1.590000e+01
      vertex   3.064733e+00  2.908405e+01 -1.590000e+01
    endloop
  endfacet
  facet normal  9.709417e-01 -2.393162e-01  0.000000e+00
    outer loop
      vertex   3.500000e+00  3.085000e+01 -2.400000e+01
      vertex   3.064733e+00  2.908405e+01 -1.590000e+01
      vertex   3.064733e+00  2.908405e+01 -2.400000e+01
    endloop
  endfacet
  facet normal  7.485104e-01 -6.631231e-01  0.000000e+00
    outer loop
      vertex   3.064733e+00  2.908405e+01 -2.400000e+01
      vertex   3.064733e+00  2.908405e+01 -1.590000e+01
      vertex   1.858646e+00  2.772266e+01 -1.590000e+01
    endloop
  endfacet
  facet normal  7.485104e-01 -6.631231e-01  0.000000e+00
    outer loop
      vertex   3.064733e+00  2.908405e+01 -2.400000e+01
      vertex   1.858646e+00  2.772266e+01 -1.590000e+01
      vertex   1.858646e+00  2.772266e+01 -2.400000e+01
    endloop
  endfacet
  facet normal  3.546029e-01 -9.350170e-01  0.000000e+00
    outer loop
      vertex   1.858646e+00  2.772266e+01 -2.400000e+01
      vertex   1.858646e+00  2.772266e+01 -1.590000e+01
      vertex   1.580391e-01  2.707771e+01 -1.590000e+01
    endloop
  endfacet
  facet normal  3.546029e-01 -9.350170e-01  0.000000e+00
    outer loop
      vertex   1.858646e+00  2.772266e+01 -2.400000e+01
      vertex   1.580391e-01  2.707771e+01 -1.590000e+01
      vertex   1.580391e-01  2.707771e+01 -2.400000e+01
    endloop
  endfacet
  facet normal  6.038657e-02 -9.981751e-01  0.000000e+00
    outer loop
      vertex   1.580391e-01  2.707771e+01 -2.400000e+01
      vertex   1.580391e-01  2.707771e+01 -1.590000e+01
      vertex  -2.999997e-01  2.705000e+01 -1.590000e+01
    endloop
  endfacet
  facet normal -1.205297e-01 -9.926572e-01 -1.021157e-02
    outer loop
      vertex   1.580391e-01  2.707771e+01 -2.400000e+01
      vertex  -2.999997e-01  2.705000e+01 -1.590000e+01
      vertex  -1.647499e+00  2.729694e+01 -2.400000e+01
    endloop
  endfacet
endsolid vcg
