solid lego_platform
   facet normal 0.000000e+00 -1.000000e+00 0.000000e+00
      outer loop
         vertex 6.370000e+01 1.930000e+01 3.980000e+01
         vertex 8.775000e+01 1.930000e+01 3.980000e+01
         vertex 6.370000e+01 1.930000e+01 5.600000e+01
      endloop
   endfacet
   facet normal 0.000000e+00 -1.000000e+00 0.000000e+00
      outer loop
         vertex 6.370000e+01 1.930000e+01 5.600000e+01
         vertex 8.775000e+01 1.930000e+01 3.980000e+01
         vertex 8.775000e+01 1.930000e+01 5.600000e+01
      endloop
   endfacet
   facet normal 0.000000e+00 -1.000000e+00 0.000000e+00
      outer loop
         vertex 6.370000e+01 1.930000e+01 7.950000e+00
         vertex 8.775000e+01 1.930000e+01 7.950000e+00
         vertex 6.370000e+01 1.930000e+01 3.200000e+01
      endloop
   endfacet
   facet normal 0.000000e+00 -1.000000e+00 0.000000e+00
      outer loop
         vertex 6.370000e+01 1.930000e+01 3.200000e+01
         vertex 8.775000e+01 1.930000e+01 7.950000e+00
         vertex 8.775000e+01 1.930000e+01 3.200000e+01
      endloop
   endfacet
   facet normal 0.000000e+00 -1.000000e+00 0.000000e+00
      outer loop
         vertex 3.980000e+01 1.930000e+01 3.200000e+01
         vertex 3.980000e+01 1.930000e+01 7.950000e+00
         vertex 5.590000e+01 1.930000e+01 3.200000e+01
      endloop
   endfacet
   facet normal 0.000000e+00 -1.000000e+00 -0.000000e+00
      outer loop
         vertex 5.590000e+01 1.930000e+01 3.200000e+01
         vertex 3.980000e+01 1.930000e+01 7.950000e+00
         vertex 5.590000e+01 1.930000e+01 7.950000e+00
      endloop
   endfacet
   facet normal 0.000000e+00 -1.000000e+00 0.000000e+00
      outer loop
         vertex 3.200000e+01 1.930000e+01 3.980000e+01
         vertex 3.200000e+01 1.930000e+01 5.600000e+01
         vertex 7.950000e+00 1.930000e+01 3.980000e+01
      endloop
   endfacet
   facet normal 0.000000e+00 -1.000000e+00 0.000000e+00
      outer loop
         vertex 7.950000e+00 1.930000e+01 3.980000e+01
         vertex 3.200000e+01 1.930000e+01 5.600000e+01
         vertex 7.950000e+00 1.930000e+01 5.600000e+01
      endloop
   endfacet
   facet normal 0.000000e+00 -1.000000e+00 0.000000e+00
      outer loop
         vertex 3.200000e+01 1.930000e+01 6.370000e+01
         vertex 3.200000e+01 1.930000e+01 8.775000e+01
         vertex 7.950000e+00 1.930000e+01 6.370000e+01
      endloop
   endfacet
   facet normal 0.000000e+00 -1.000000e+00 0.000000e+00
      outer loop
         vertex 7.950000e+00 1.930000e+01 6.370000e+01
         vertex 3.200000e+01 1.930000e+01 8.775000e+01
         vertex 7.950000e+00 1.930000e+01 8.775000e+01
      endloop
   endfacet
   facet normal 0.000000e+00 -1.000000e+00 0.000000e+00
      outer loop
         vertex 3.980000e+01 1.930000e+01 6.370000e+01
         vertex 5.590000e+01 1.930000e+01 6.370000e+01
         vertex 3.980000e+01 1.930000e+01 8.775000e+01
      endloop
   endfacet
   facet normal 0.000000e+00 -1.000000e+00 0.000000e+00
      outer loop
         vertex 3.980000e+01 1.930000e+01 8.775000e+01
         vertex 5.590000e+01 1.930000e+01 6.370000e+01
         vertex 5.590000e+01 1.930000e+01 8.775000e+01
      endloop
   endfacet
   facet normal 0.000000e+00 -1.000000e+00 0.000000e+00
      outer loop
         vertex 8.775000e+01 1.930000e+01 6.370000e+01
         vertex 8.775000e+01 1.930000e+01 8.775000e+01
         vertex 6.370000e+01 1.930000e+01 6.370000e+01
      endloop
   endfacet
   facet normal 0.000000e+00 -1.000000e+00 0.000000e+00
      outer loop
         vertex 6.370000e+01 1.930000e+01 6.370000e+01
         vertex 8.775000e+01 1.930000e+01 8.775000e+01
         vertex 6.370000e+01 1.930000e+01 8.775000e+01
      endloop
   endfacet
   facet normal 0.000000e+00 0.000000e+00 -1.000000e+00
      outer loop
         vertex 3.200000e+01 1.930000e+01 7.950000e+00
         vertex 7.950000e+00 1.930000e+01 7.950000e+00
         vertex 7.950000e+00 2.890000e+01 7.950000e+00
      endloop
   endfacet
   facet normal 0.000000e+00 0.000000e+00 -1.000000e+00
      outer loop
         vertex 8.775000e+01 1.930000e+01 7.950000e+00
         vertex 6.370000e+01 1.930000e+01 7.950000e+00
         vertex 8.775000e+01 2.890000e+01 7.950000e+00
      endloop
   endfacet
   facet normal 0.000000e+00 0.000000e+00 -1.000000e+00
      outer loop
         vertex 8.775000e+01 2.890000e+01 7.950000e+00
         vertex 6.370000e+01 1.930000e+01 7.950000e+00
         vertex 5.590000e+01 1.930000e+01 7.950000e+00
      endloop
   endfacet
   facet normal -0.000000e+00 0.000000e+00 -1.000000e+00
      outer loop
         vertex 8.775000e+01 2.890000e+01 7.950000e+00
         vertex 5.590000e+01 1.930000e+01 7.950000e+00
         vertex 7.950000e+00 2.890000e+01 7.950000e+00
      endloop
   endfacet
   facet normal 0.000000e+00 0.000000e+00 -1.000000e+00
      outer loop
         vertex 7.950000e+00 2.890000e+01 7.950000e+00
         vertex 5.590000e+01 1.930000e+01 7.950000e+00
         vertex 3.980000e+01 1.930000e+01 7.950000e+00
      endloop
   endfacet
   facet normal 0.000000e+00 0.000000e+00 -1.000000e+00
      outer loop
         vertex 7.950000e+00 2.890000e+01 7.950000e+00
         vertex 3.980000e+01 1.930000e+01 7.950000e+00
         vertex 3.200000e+01 1.930000e+01 7.950000e+00
      endloop
   endfacet
   facet normal -1.000000e+00 0.000000e+00 0.000000e+00
      outer loop
         vertex 7.950000e+00 1.930000e+01 6.370000e+01
         vertex 7.950000e+00 1.930000e+01 8.775000e+01
         vertex 7.950000e+00 2.890000e+01 8.775000e+01
      endloop
   endfacet
   facet normal -1.000000e+00 0.000000e+00 0.000000e+00
      outer loop
         vertex 7.950000e+00 1.930000e+01 7.950000e+00
         vertex 7.950000e+00 1.930000e+01 3.200000e+01
         vertex 7.950000e+00 2.890000e+01 7.950000e+00
      endloop
   endfacet
   facet normal -1.000000e+00 0.000000e+00 0.000000e+00
      outer loop
         vertex 7.950000e+00 2.890000e+01 7.950000e+00
         vertex 7.950000e+00 1.930000e+01 3.200000e+01
         vertex 7.950000e+00 1.930000e+01 3.980000e+01
      endloop
   endfacet
   facet normal -1.000000e+00 0.000000e+00 0.000000e+00
      outer loop
         vertex 7.950000e+00 2.890000e+01 7.950000e+00
         vertex 7.950000e+00 1.930000e+01 3.980000e+01
         vertex 7.950000e+00 2.890000e+01 8.775000e+01
      endloop
   endfacet
   facet normal -1.000000e+00 0.000000e+00 0.000000e+00
      outer loop
         vertex 7.950000e+00 2.890000e+01 8.775000e+01
         vertex 7.950000e+00 1.930000e+01 3.980000e+01
         vertex 7.950000e+00 1.930000e+01 5.600000e+01
      endloop
   endfacet
   facet normal -1.000000e+00 0.000000e+00 0.000000e+00
      outer loop
         vertex 7.950000e+00 2.890000e+01 8.775000e+01
         vertex 7.950000e+00 1.930000e+01 5.600000e+01
         vertex 7.950000e+00 1.930000e+01 6.370000e+01
      endloop
   endfacet
   facet normal 0.000000e+00 0.000000e+00 1.000000e+00
      outer loop
         vertex 6.370000e+01 1.930000e+01 8.775000e+01
         vertex 8.775000e+01 1.930000e+01 8.775000e+01
         vertex 8.775000e+01 2.890000e+01 8.775000e+01
      endloop
   endfacet
   facet normal 0.000000e+00 0.000000e+00 1.000000e+00
      outer loop
         vertex 7.950000e+00 1.930000e+01 8.775000e+01
         vertex 3.200000e+01 1.930000e+01 8.775000e+01
         vertex 7.950000e+00 2.890000e+01 8.775000e+01
      endloop
   endfacet
   facet normal 0.000000e+00 0.000000e+00 1.000000e+00
      outer loop
         vertex 7.950000e+00 2.890000e+01 8.775000e+01
         vertex 3.200000e+01 1.930000e+01 8.775000e+01
         vertex 3.980000e+01 1.930000e+01 8.775000e+01
      endloop
   endfacet
   facet normal -0.000000e+00 0.000000e+00 1.000000e+00
      outer loop
         vertex 7.950000e+00 2.890000e+01 8.775000e+01
         vertex 3.980000e+01 1.930000e+01 8.775000e+01
         vertex 8.775000e+01 2.890000e+01 8.775000e+01
      endloop
   endfacet
   facet normal 0.000000e+00 0.000000e+00 1.000000e+00
      outer loop
         vertex 8.775000e+01 2.890000e+01 8.775000e+01
         vertex 3.980000e+01 1.930000e+01 8.775000e+01
         vertex 5.590000e+01 1.930000e+01 8.775000e+01
      endloop
   endfacet
   facet normal 0.000000e+00 0.000000e+00 1.000000e+00
      outer loop
         vertex 8.775000e+01 2.890000e+01 8.775000e+01
         vertex 5.590000e+01 1.930000e+01 8.775000e+01
         vertex 6.370000e+01 1.930000e+01 8.775000e+01
      endloop
   endfacet
   facet normal 1.000000e+00 0.000000e+00 0.000000e+00
      outer loop
         vertex 8.775000e+01 2.890000e+01 8.775000e+01
         vertex 8.775000e+01 1.930000e+01 8.775000e+01
         vertex 8.775000e+01 1.930000e+01 6.370000e+01
      endloop
   endfacet
   facet normal 1.000000e+00 -0.000000e+00 0.000000e+00
      outer loop
         vertex 8.775000e+01 1.930000e+01 6.370000e+01
         vertex 8.775000e+01 1.930000e+01 5.600000e+01
         vertex 8.775000e+01 2.890000e+01 8.775000e+01
      endloop
   endfacet
   facet normal 1.000000e+00 0.000000e+00 0.000000e+00
      outer loop
         vertex 8.775000e+01 2.890000e+01 8.775000e+01
         vertex 8.775000e+01 1.930000e+01 5.600000e+01
         vertex 8.775000e+01 1.930000e+01 3.980000e+01
      endloop
   endfacet
   facet normal 1.000000e+00 0.000000e+00 0.000000e+00
      outer loop
         vertex 8.775000e+01 2.890000e+01 8.775000e+01
         vertex 8.775000e+01 1.930000e+01 3.980000e+01
         vertex 8.775000e+01 2.890000e+01 7.950000e+00
      endloop
   endfacet
   facet normal 1.000000e+00 0.000000e+00 0.000000e+00
      outer loop
         vertex 8.775000e+01 2.890000e+01 7.950000e+00
         vertex 8.775000e+01 1.930000e+01 3.980000e+01
         vertex 8.775000e+01 1.930000e+01 3.200000e+01
      endloop
   endfacet
   facet normal 1.000000e+00 0.000000e+00 0.000000e+00
      outer loop
         vertex 8.775000e+01 2.890000e+01 7.950000e+00
         vertex 8.775000e+01 1.930000e+01 3.200000e+01
         vertex 8.775000e+01 1.930000e+01 7.950000e+00
      endloop
   endfacet
   facet normal -0.000000e+00 1.000000e+00 0.000000e+00
      outer loop
         vertex 7.950000e+00 2.890000e+01 8.775000e+01
         vertex 8.775000e+01 2.890000e+01 8.775000e+01
         vertex 7.950000e+00 2.890000e+01 7.950000e+00
      endloop
   endfacet
   facet normal 0.000000e+00 1.000000e+00 0.000000e+00
      outer loop
         vertex 7.950000e+00 2.890000e+01 7.950000e+00
         vertex 8.775000e+01 2.890000e+01 8.775000e+01
         vertex 8.775000e+01 2.890000e+01 7.950000e+00
      endloop
   endfacet
   facet normal 0.000000e+00 -1.000000e+00 0.000000e+00
      outer loop
         vertex 7.950000e+00 1.930000e+01 3.200000e+01
         vertex 7.950000e+00 1.930000e+01 7.950000e+00
         vertex 3.200000e+01 1.930000e+01 3.200000e+01
      endloop
   endfacet
   facet normal 0.000000e+00 -1.000000e+00 -0.000000e+00
      outer loop
         vertex 3.200000e+01 1.930000e+01 3.200000e+01
         vertex 7.950000e+00 1.930000e+01 7.950000e+00
         vertex 3.200000e+01 1.930000e+01 7.950000e+00
      endloop
   endfacet
   facet normal 0.000000e+00 1.000000e+00 0.000000e+00
      outer loop
         vertex 3.980000e+01 1.930000e+01 7.950000e+00
         vertex 3.980000e+01 1.930000e+01 0.000000e+00
         vertex 3.200000e+01 1.930000e+01 7.950000e+00
      endloop
   endfacet
   facet normal 0.000000e+00 1.000000e+00 0.000000e+00
      outer loop
         vertex 3.200000e+01 1.930000e+01 7.950000e+00
         vertex 3.980000e+01 1.930000e+01 0.000000e+00
         vertex 3.200000e+01 1.930000e+01 0.000000e+00
      endloop
   endfacet
   facet normal 0.000000e+00 1.000000e+00 0.000000e+00
      outer loop
         vertex 6.370000e+01 1.930000e+01 7.950000e+00
         vertex 6.370000e+01 1.930000e+01 0.000000e+00
         vertex 5.590000e+01 1.930000e+01 7.950000e+00
      endloop
   endfacet
   facet normal 0.000000e+00 1.000000e+00 0.000000e+00
      outer loop
         vertex 5.590000e+01 1.930000e+01 7.950000e+00
         vertex 6.370000e+01 1.930000e+01 0.000000e+00
         vertex 5.590000e+01 1.930000e+01 0.000000e+00
      endloop
   endfacet
   facet normal -0.000000e+00 1.000000e+00 0.000000e+00
      outer loop
         vertex 8.775000e+01 1.930000e+01 3.980000e+01
         vertex 9.570000e+01 1.930000e+01 3.980000e+01
         vertex 8.775000e+01 1.930000e+01 3.200000e+01
      endloop
   endfacet
   facet normal 0.000000e+00 1.000000e+00 0.000000e+00
      outer loop
         vertex 8.775000e+01 1.930000e+01 3.200000e+01
         vertex 9.570000e+01 1.930000e+01 3.980000e+01
         vertex 9.570000e+01 1.930000e+01 3.200000e+01
      endloop
   endfacet
   facet normal -0.000000e+00 1.000000e+00 0.000000e+00
      outer loop
         vertex 8.775000e+01 1.930000e+01 6.370000e+01
         vertex 9.570000e+01 1.930000e+01 6.370000e+01
         vertex 8.775000e+01 1.930000e+01 5.600000e+01
      endloop
   endfacet
   facet normal 0.000000e+00 1.000000e+00 0.000000e+00
      outer loop
         vertex 8.775000e+01 1.930000e+01 5.600000e+01
         vertex 9.570000e+01 1.930000e+01 6.370000e+01
         vertex 9.570000e+01 1.930000e+01 5.600000e+01
      endloop
   endfacet
   facet normal -0.000000e+00 1.000000e+00 0.000000e+00
      outer loop
         vertex 3.200000e+01 1.930000e+01 9.570000e+01
         vertex 3.980000e+01 1.930000e+01 9.570000e+01
         vertex 3.200000e+01 1.930000e+01 8.775000e+01
      endloop
   endfacet
   facet normal 0.000000e+00 1.000000e+00 0.000000e+00
      outer loop
         vertex 3.200000e+01 1.930000e+01 8.775000e+01
         vertex 3.980000e+01 1.930000e+01 9.570000e+01
         vertex 3.980000e+01 1.930000e+01 8.775000e+01
      endloop
   endfacet
   facet normal -0.000000e+00 1.000000e+00 0.000000e+00
      outer loop
         vertex 5.590000e+01 1.930000e+01 9.570000e+01
         vertex 6.370000e+01 1.930000e+01 9.570000e+01
         vertex 5.590000e+01 1.930000e+01 8.775000e+01
      endloop
   endfacet
   facet normal 0.000000e+00 1.000000e+00 0.000000e+00
      outer loop
         vertex 5.590000e+01 1.930000e+01 8.775000e+01
         vertex 6.370000e+01 1.930000e+01 9.570000e+01
         vertex 6.370000e+01 1.930000e+01 8.775000e+01
      endloop
   endfacet
   facet normal 0.000000e+00 1.000000e+00 0.000000e+00
      outer loop
         vertex 0.000000e+00 1.930000e+01 3.200000e+01
         vertex 0.000000e+00 1.930000e+01 3.980000e+01
         vertex 7.950000e+00 1.930000e+01 3.200000e+01
      endloop
   endfacet
   facet normal 0.000000e+00 1.000000e+00 -0.000000e+00
      outer loop
         vertex 7.950000e+00 1.930000e+01 3.200000e+01
         vertex 0.000000e+00 1.930000e+01 3.980000e+01
         vertex 7.950000e+00 1.930000e+01 3.980000e+01
      endloop
   endfacet
   facet normal -0.000000e+00 0.000000e+00 1.000000e+00
      outer loop
         vertex 6.370000e+01 1.930000e+01 6.370000e+01
         vertex 6.370000e+01 0.000000e+00 6.370000e+01
         vertex 8.775000e+01 1.930000e+01 6.370000e+01
      endloop
   endfacet
   facet normal 0.000000e+00 0.000000e+00 1.000000e+00
      outer loop
         vertex 8.775000e+01 1.930000e+01 6.370000e+01
         vertex 6.370000e+01 0.000000e+00 6.370000e+01
         vertex 9.570000e+01 0.000000e+00 6.370000e+01
      endloop
   endfacet
   facet normal -0.000000e+00 0.000000e+00 1.000000e+00
      outer loop
         vertex 8.775000e+01 1.930000e+01 6.370000e+01
         vertex 9.570000e+01 0.000000e+00 6.370000e+01
         vertex 9.570000e+01 1.930000e+01 6.370000e+01
      endloop
   endfacet
   facet normal 1.000000e+00 0.000000e+00 0.000000e+00
      outer loop
         vertex 6.370000e+01 1.930000e+01 9.570000e+01
         vertex 6.370000e+01 0.000000e+00 9.570000e+01
         vertex 6.370000e+01 1.930000e+01 8.775000e+01
      endloop
   endfacet
   facet normal 1.000000e+00 0.000000e+00 0.000000e+00
      outer loop
         vertex 6.370000e+01 1.930000e+01 8.775000e+01
         vertex 6.370000e+01 0.000000e+00 9.570000e+01
         vertex 6.370000e+01 0.000000e+00 6.370000e+01
      endloop
   endfacet
   facet normal 1.000000e+00 0.000000e+00 0.000000e+00
      outer loop
         vertex 6.370000e+01 1.930000e+01 8.775000e+01
         vertex 6.370000e+01 0.000000e+00 6.370000e+01
         vertex 6.370000e+01 1.930000e+01 6.370000e+01
      endloop
   endfacet
   facet normal 0.000000e+00 0.000000e+00 1.000000e+00
      outer loop
         vertex 5.590000e+01 0.000000e+00 9.570000e+01
         vertex 6.370000e+01 0.000000e+00 9.570000e+01
         vertex 5.590000e+01 1.930000e+01 9.570000e+01
      endloop
   endfacet
   facet normal -0.000000e+00 0.000000e+00 1.000000e+00
      outer loop
         vertex 5.590000e+01 1.930000e+01 9.570000e+01
         vertex 6.370000e+01 0.000000e+00 9.570000e+01
         vertex 6.370000e+01 1.930000e+01 9.570000e+01
      endloop
   endfacet
   facet normal -1.000000e+00 0.000000e+00 0.000000e+00
      outer loop
         vertex 5.590000e+01 1.930000e+01 6.370000e+01
         vertex 5.590000e+01 0.000000e+00 6.370000e+01
         vertex 5.590000e+01 1.930000e+01 8.775000e+01
      endloop
   endfacet
   facet normal -1.000000e+00 -0.000000e+00 0.000000e+00
      outer loop
         vertex 5.590000e+01 1.930000e+01 8.775000e+01
         vertex 5.590000e+01 0.000000e+00 6.370000e+01
         vertex 5.590000e+01 0.000000e+00 9.570000e+01
      endloop
   endfacet
   facet normal -1.000000e+00 0.000000e+00 0.000000e+00
      outer loop
         vertex 5.590000e+01 1.930000e+01 8.775000e+01
         vertex 5.590000e+01 0.000000e+00 9.570000e+01
         vertex 5.590000e+01 1.930000e+01 9.570000e+01
      endloop
   endfacet
   facet normal 0.000000e+00 0.000000e+00 1.000000e+00
      outer loop
         vertex 3.980000e+01 0.000000e+00 6.370000e+01
         vertex 5.590000e+01 0.000000e+00 6.370000e+01
         vertex 3.980000e+01 1.930000e+01 6.370000e+01
      endloop
   endfacet
   facet normal -0.000000e+00 0.000000e+00 1.000000e+00
      outer loop
         vertex 3.980000e+01 1.930000e+01 6.370000e+01
         vertex 5.590000e+01 0.000000e+00 6.370000e+01
         vertex 5.590000e+01 1.930000e+01 6.370000e+01
      endloop
   endfacet
   facet normal 1.000000e+00 0.000000e+00 0.000000e+00
      outer loop
         vertex 3.980000e+01 1.930000e+01 9.570000e+01
         vertex 3.980000e+01 0.000000e+00 9.570000e+01
         vertex 3.980000e+01 1.930000e+01 8.775000e+01
      endloop
   endfacet
   facet normal 1.000000e+00 0.000000e+00 0.000000e+00
      outer loop
         vertex 3.980000e+01 1.930000e+01 8.775000e+01
         vertex 3.980000e+01 0.000000e+00 9.570000e+01
         vertex 3.980000e+01 0.000000e+00 6.370000e+01
      endloop
   endfacet
   facet normal 1.000000e+00 0.000000e+00 0.000000e+00
      outer loop
         vertex 3.980000e+01 1.930000e+01 8.775000e+01
         vertex 3.980000e+01 0.000000e+00 6.370000e+01
         vertex 3.980000e+01 1.930000e+01 6.370000e+01
      endloop
   endfacet
   facet normal 0.000000e+00 0.000000e+00 1.000000e+00
      outer loop
         vertex 3.200000e+01 0.000000e+00 9.570000e+01
         vertex 3.980000e+01 0.000000e+00 9.570000e+01
         vertex 3.200000e+01 1.930000e+01 9.570000e+01
      endloop
   endfacet
   facet normal -0.000000e+00 0.000000e+00 1.000000e+00
      outer loop
         vertex 3.200000e+01 1.930000e+01 9.570000e+01
         vertex 3.980000e+01 0.000000e+00 9.570000e+01
         vertex 3.980000e+01 1.930000e+01 9.570000e+01
      endloop
   endfacet
   facet normal -1.000000e+00 0.000000e+00 0.000000e+00
      outer loop
         vertex 3.200000e+01 1.930000e+01 6.370000e+01
         vertex 3.200000e+01 0.000000e+00 6.370000e+01
         vertex 3.200000e+01 1.930000e+01 8.775000e+01
      endloop
   endfacet
   facet normal -1.000000e+00 -0.000000e+00 0.000000e+00
      outer loop
         vertex 3.200000e+01 1.930000e+01 8.775000e+01
         vertex 3.200000e+01 0.000000e+00 6.370000e+01
         vertex 3.200000e+01 0.000000e+00 9.570000e+01
      endloop
   endfacet
   facet normal -1.000000e+00 0.000000e+00 0.000000e+00
      outer loop
         vertex 3.200000e+01 1.930000e+01 8.775000e+01
         vertex 3.200000e+01 0.000000e+00 9.570000e+01
         vertex 3.200000e+01 1.930000e+01 9.570000e+01
      endloop
   endfacet
   facet normal -0.000000e+00 0.000000e+00 1.000000e+00
      outer loop
         vertex 1.842231e+00 1.930000e+01 6.370000e+01
         vertex 1.842231e+00 0.000000e+00 6.370000e+01
         vertex 7.950000e+00 1.930000e+01 6.370000e+01
      endloop
   endfacet
   facet normal 0.000000e+00 0.000000e+00 1.000000e+00
      outer loop
         vertex 7.950000e+00 1.930000e+01 6.370000e+01
         vertex 1.842231e+00 0.000000e+00 6.370000e+01
         vertex 3.200000e+01 0.000000e+00 6.370000e+01
      endloop
   endfacet
   facet normal -0.000000e+00 0.000000e+00 1.000000e+00
      outer loop
         vertex 7.950000e+00 1.930000e+01 6.370000e+01
         vertex 3.200000e+01 0.000000e+00 6.370000e+01
         vertex 3.200000e+01 1.930000e+01 6.370000e+01
      endloop
   endfacet
   facet normal -1.000000e+00 0.000000e+00 0.000000e+00
      outer loop
         vertex 1.842231e+00 0.000000e+00 5.600000e+01
         vertex 1.842231e+00 0.000000e+00 6.370000e+01
         vertex 1.842231e+00 1.930000e+01 5.600000e+01
      endloop
   endfacet
   facet normal -1.000000e+00 0.000000e+00 0.000000e+00
      outer loop
         vertex 1.842231e+00 1.930000e+01 5.600000e+01
         vertex 1.842231e+00 0.000000e+00 6.370000e+01
         vertex 1.842231e+00 1.930000e+01 6.370000e+01
      endloop
   endfacet
   facet normal -0.000000e+00 -0.000000e+00 -1.000000e+00
      outer loop
         vertex 3.200000e+01 1.930000e+01 5.600000e+01
         vertex 3.200000e+01 0.000000e+00 5.600000e+01
         vertex 7.950000e+00 1.930000e+01 5.600000e+01
      endloop
   endfacet
   facet normal 0.000000e+00 -0.000000e+00 -1.000000e+00
      outer loop
         vertex 7.950000e+00 1.930000e+01 5.600000e+01
         vertex 3.200000e+01 0.000000e+00 5.600000e+01
         vertex 1.842231e+00 0.000000e+00 5.600000e+01
      endloop
   endfacet
   facet normal -0.000000e+00 0.000000e+00 -1.000000e+00
      outer loop
         vertex 7.950000e+00 1.930000e+01 5.600000e+01
         vertex 1.842231e+00 0.000000e+00 5.600000e+01
         vertex 1.842231e+00 1.930000e+01 5.600000e+01
      endloop
   endfacet
   facet normal -1.000000e+00 0.000000e+00 0.000000e+00
      outer loop
         vertex 3.200000e+01 0.000000e+00 3.980000e+01
         vertex 3.200000e+01 0.000000e+00 5.600000e+01
         vertex 3.200000e+01 1.930000e+01 3.980000e+01
      endloop
   endfacet
   facet normal -1.000000e+00 0.000000e+00 0.000000e+00
      outer loop
         vertex 3.200000e+01 1.930000e+01 3.980000e+01
         vertex 3.200000e+01 0.000000e+00 5.600000e+01
         vertex 3.200000e+01 1.930000e+01 5.600000e+01
      endloop
   endfacet
   facet normal -0.000000e+00 0.000000e+00 1.000000e+00
      outer loop
         vertex 0.000000e+00 1.930000e+01 3.980000e+01
         vertex 0.000000e+00 0.000000e+00 3.980000e+01
         vertex 7.950000e+00 1.930000e+01 3.980000e+01
      endloop
   endfacet
   facet normal 0.000000e+00 0.000000e+00 1.000000e+00
      outer loop
         vertex 7.950000e+00 1.930000e+01 3.980000e+01
         vertex 0.000000e+00 0.000000e+00 3.980000e+01
         vertex 3.200000e+01 0.000000e+00 3.980000e+01
      endloop
   endfacet
   facet normal -0.000000e+00 0.000000e+00 1.000000e+00
      outer loop
         vertex 7.950000e+00 1.930000e+01 3.980000e+01
         vertex 3.200000e+01 0.000000e+00 3.980000e+01
         vertex 3.200000e+01 1.930000e+01 3.980000e+01
      endloop
   endfacet
   facet normal -1.000000e+00 0.000000e+00 0.000000e+00
      outer loop
         vertex 0.000000e+00 0.000000e+00 3.200000e+01
         vertex 0.000000e+00 0.000000e+00 3.980000e+01
         vertex 0.000000e+00 1.930000e+01 3.200000e+01
      endloop
   endfacet
   facet normal -1.000000e+00 0.000000e+00 0.000000e+00
      outer loop
         vertex 0.000000e+00 1.930000e+01 3.200000e+01
         vertex 0.000000e+00 0.000000e+00 3.980000e+01
         vertex 0.000000e+00 1.930000e+01 3.980000e+01
      endloop
   endfacet
   facet normal -0.000000e+00 -0.000000e+00 -1.000000e+00
      outer loop
         vertex 3.200000e+01 1.930000e+01 3.200000e+01
         vertex 3.200000e+01 0.000000e+00 3.200000e+01
         vertex 7.950000e+00 1.930000e+01 3.200000e+01
      endloop
   endfacet
   facet normal 0.000000e+00 -0.000000e+00 -1.000000e+00
      outer loop
         vertex 7.950000e+00 1.930000e+01 3.200000e+01
         vertex 3.200000e+01 0.000000e+00 3.200000e+01
         vertex 0.000000e+00 0.000000e+00 3.200000e+01
      endloop
   endfacet
   facet normal -0.000000e+00 0.000000e+00 -1.000000e+00
      outer loop
         vertex 7.950000e+00 1.930000e+01 3.200000e+01
         vertex 0.000000e+00 0.000000e+00 3.200000e+01
         vertex 0.000000e+00 1.930000e+01 3.200000e+01
      endloop
   endfacet
   facet normal -1.000000e+00 0.000000e+00 0.000000e+00
      outer loop
         vertex 3.200000e+01 1.930000e+01 0.000000e+00
         vertex 3.200000e+01 0.000000e+00 0.000000e+00
         vertex 3.200000e+01 1.930000e+01 7.950000e+00
      endloop
   endfacet
   facet normal -1.000000e+00 -0.000000e+00 0.000000e+00
      outer loop
         vertex 3.200000e+01 1.930000e+01 7.950000e+00
         vertex 3.200000e+01 0.000000e+00 0.000000e+00
         vertex 3.200000e+01 0.000000e+00 3.200000e+01
      endloop
   endfacet
   facet normal -1.000000e+00 0.000000e+00 0.000000e+00
      outer loop
         vertex 3.200000e+01 1.930000e+01 7.950000e+00
         vertex 3.200000e+01 0.000000e+00 3.200000e+01
         vertex 3.200000e+01 1.930000e+01 3.200000e+01
      endloop
   endfacet
   facet normal 0.000000e+00 0.000000e+00 -1.000000e+00
      outer loop
         vertex 3.980000e+01 0.000000e+00 0.000000e+00
         vertex 3.200000e+01 0.000000e+00 0.000000e+00
         vertex 3.980000e+01 1.930000e+01 0.000000e+00
      endloop
   endfacet
   facet normal -0.000000e+00 0.000000e+00 -1.000000e+00
      outer loop
         vertex 3.980000e+01 1.930000e+01 0.000000e+00
         vertex 3.200000e+01 0.000000e+00 0.000000e+00
         vertex 3.200000e+01 1.930000e+01 0.000000e+00
      endloop
   endfacet
   facet normal 1.000000e+00 0.000000e+00 0.000000e+00
      outer loop
         vertex 3.980000e+01 1.930000e+01 3.200000e+01
         vertex 3.980000e+01 0.000000e+00 3.200000e+01
         vertex 3.980000e+01 1.930000e+01 7.950000e+00
      endloop
   endfacet
   facet normal 1.000000e+00 0.000000e+00 0.000000e+00
      outer loop
         vertex 3.980000e+01 1.930000e+01 7.950000e+00
         vertex 3.980000e+01 0.000000e+00 3.200000e+01
         vertex 3.980000e+01 0.000000e+00 0.000000e+00
      endloop
   endfacet
   facet normal 1.000000e+00 0.000000e+00 0.000000e+00
      outer loop
         vertex 3.980000e+01 1.930000e+01 7.950000e+00
         vertex 3.980000e+01 0.000000e+00 0.000000e+00
         vertex 3.980000e+01 1.930000e+01 0.000000e+00
      endloop
   endfacet
   facet normal 0.000000e+00 0.000000e+00 -1.000000e+00
      outer loop
         vertex 5.590000e+01 0.000000e+00 3.200000e+01
         vertex 3.980000e+01 0.000000e+00 3.200000e+01
         vertex 5.590000e+01 1.930000e+01 3.200000e+01
      endloop
   endfacet
   facet normal -0.000000e+00 0.000000e+00 -1.000000e+00
      outer loop
         vertex 5.590000e+01 1.930000e+01 3.200000e+01
         vertex 3.980000e+01 0.000000e+00 3.200000e+01
         vertex 3.980000e+01 1.930000e+01 3.200000e+01
      endloop
   endfacet
   facet normal -1.000000e+00 0.000000e+00 0.000000e+00
      outer loop
         vertex 5.590000e+01 1.930000e+01 0.000000e+00
         vertex 5.590000e+01 0.000000e+00 0.000000e+00
         vertex 5.590000e+01 1.930000e+01 7.950000e+00
      endloop
   endfacet
   facet normal -1.000000e+00 -0.000000e+00 0.000000e+00
      outer loop
         vertex 5.590000e+01 1.930000e+01 7.950000e+00
         vertex 5.590000e+01 0.000000e+00 0.000000e+00
         vertex 5.590000e+01 0.000000e+00 3.200000e+01
      endloop
   endfacet
   facet normal -1.000000e+00 0.000000e+00 0.000000e+00
      outer loop
         vertex 5.590000e+01 1.930000e+01 7.950000e+00
         vertex 5.590000e+01 0.000000e+00 3.200000e+01
         vertex 5.590000e+01 1.930000e+01 3.200000e+01
      endloop
   endfacet
   facet normal 0.000000e+00 0.000000e+00 -1.000000e+00
      outer loop
         vertex 6.370000e+01 0.000000e+00 0.000000e+00
         vertex 5.590000e+01 0.000000e+00 0.000000e+00
         vertex 6.370000e+01 1.930000e+01 0.000000e+00
      endloop
   endfacet
   facet normal -0.000000e+00 0.000000e+00 -1.000000e+00
      outer loop
         vertex 6.370000e+01 1.930000e+01 0.000000e+00
         vertex 5.590000e+01 0.000000e+00 0.000000e+00
         vertex 5.590000e+01 1.930000e+01 0.000000e+00
      endloop
   endfacet
   facet normal 1.000000e+00 0.000000e+00 0.000000e+00
      outer loop
         vertex 6.370000e+01 1.930000e+01 3.200000e+01
         vertex 6.370000e+01 0.000000e+00 3.200000e+01
         vertex 6.370000e+01 1.930000e+01 7.950000e+00
      endloop
   endfacet
   facet normal 1.000000e+00 0.000000e+00 0.000000e+00
      outer loop
         vertex 6.370000e+01 1.930000e+01 7.950000e+00
         vertex 6.370000e+01 0.000000e+00 3.200000e+01
         vertex 6.370000e+01 0.000000e+00 0.000000e+00
      endloop
   endfacet
   facet normal 1.000000e+00 0.000000e+00 0.000000e+00
      outer loop
         vertex 6.370000e+01 1.930000e+01 7.950000e+00
         vertex 6.370000e+01 0.000000e+00 0.000000e+00
         vertex 6.370000e+01 1.930000e+01 0.000000e+00
      endloop
   endfacet
   facet normal -0.000000e+00 -0.000000e+00 -1.000000e+00
      outer loop
         vertex 9.570000e+01 1.930000e+01 3.200000e+01
         vertex 9.570000e+01 0.000000e+00 3.200000e+01
         vertex 8.775000e+01 1.930000e+01 3.200000e+01
      endloop
   endfacet
   facet normal 0.000000e+00 -0.000000e+00 -1.000000e+00
      outer loop
         vertex 8.775000e+01 1.930000e+01 3.200000e+01
         vertex 9.570000e+01 0.000000e+00 3.200000e+01
         vertex 6.370000e+01 0.000000e+00 3.200000e+01
      endloop
   endfacet
   facet normal -0.000000e+00 0.000000e+00 -1.000000e+00
      outer loop
         vertex 8.775000e+01 1.930000e+01 3.200000e+01
         vertex 6.370000e+01 0.000000e+00 3.200000e+01
         vertex 6.370000e+01 1.930000e+01 3.200000e+01
      endloop
   endfacet
   facet normal 1.000000e+00 -0.000000e+00 0.000000e+00
      outer loop
         vertex 9.570000e+01 0.000000e+00 3.980000e+01
         vertex 9.570000e+01 0.000000e+00 3.200000e+01
         vertex 9.570000e+01 1.930000e+01 3.980000e+01
      endloop
   endfacet
   facet normal 1.000000e+00 0.000000e+00 0.000000e+00
      outer loop
         vertex 9.570000e+01 1.930000e+01 3.980000e+01
         vertex 9.570000e+01 0.000000e+00 3.200000e+01
         vertex 9.570000e+01 1.930000e+01 3.200000e+01
      endloop
   endfacet
   facet normal -0.000000e+00 0.000000e+00 1.000000e+00
      outer loop
         vertex 6.370000e+01 1.930000e+01 3.980000e+01
         vertex 6.370000e+01 0.000000e+00 3.980000e+01
         vertex 8.775000e+01 1.930000e+01 3.980000e+01
      endloop
   endfacet
   facet normal 0.000000e+00 0.000000e+00 1.000000e+00
      outer loop
         vertex 8.775000e+01 1.930000e+01 3.980000e+01
         vertex 6.370000e+01 0.000000e+00 3.980000e+01
         vertex 9.570000e+01 0.000000e+00 3.980000e+01
      endloop
   endfacet
   facet normal -0.000000e+00 0.000000e+00 1.000000e+00
      outer loop
         vertex 8.775000e+01 1.930000e+01 3.980000e+01
         vertex 9.570000e+01 0.000000e+00 3.980000e+01
         vertex 9.570000e+01 1.930000e+01 3.980000e+01
      endloop
   endfacet
   facet normal 1.000000e+00 -0.000000e+00 0.000000e+00
      outer loop
         vertex 6.370000e+01 0.000000e+00 5.600000e+01
         vertex 6.370000e+01 0.000000e+00 3.980000e+01
         vertex 6.370000e+01 1.930000e+01 5.600000e+01
      endloop
   endfacet
   facet normal 1.000000e+00 0.000000e+00 0.000000e+00
      outer loop
         vertex 6.370000e+01 1.930000e+01 5.600000e+01
         vertex 6.370000e+01 0.000000e+00 3.980000e+01
         vertex 6.370000e+01 1.930000e+01 3.980000e+01
      endloop
   endfacet
   facet normal -0.000000e+00 -0.000000e+00 -1.000000e+00
      outer loop
         vertex 9.570000e+01 1.930000e+01 5.600000e+01
         vertex 9.570000e+01 0.000000e+00 5.600000e+01
         vertex 8.775000e+01 1.930000e+01 5.600000e+01
      endloop
   endfacet
   facet normal 0.000000e+00 -0.000000e+00 -1.000000e+00
      outer loop
         vertex 8.775000e+01 1.930000e+01 5.600000e+01
         vertex 9.570000e+01 0.000000e+00 5.600000e+01
         vertex 6.370000e+01 0.000000e+00 5.600000e+01
      endloop
   endfacet
   facet normal -0.000000e+00 0.000000e+00 -1.000000e+00
      outer loop
         vertex 8.775000e+01 1.930000e+01 5.600000e+01
         vertex 6.370000e+01 0.000000e+00 5.600000e+01
         vertex 6.370000e+01 1.930000e+01 5.600000e+01
      endloop
   endfacet
   facet normal 1.000000e+00 -0.000000e+00 0.000000e+00
      outer loop
         vertex 9.570000e+01 0.000000e+00 6.370000e+01
         vertex 9.570000e+01 0.000000e+00 5.600000e+01
         vertex 9.570000e+01 1.930000e+01 6.370000e+01
      endloop
   endfacet
   facet normal 1.000000e+00 0.000000e+00 0.000000e+00
      outer loop
         vertex 9.570000e+01 1.930000e+01 6.370000e+01
         vertex 9.570000e+01 0.000000e+00 5.600000e+01
         vertex 9.570000e+01 1.930000e+01 5.600000e+01
      endloop
   endfacet
   facet normal 0.000000e+00 -1.000000e+00 0.000000e+00
      outer loop
         vertex 3.200000e+01 0.000000e+00 3.200000e+01
         vertex 3.200000e+01 0.000000e+00 0.000000e+00
         vertex 3.980000e+01 0.000000e+00 0.000000e+00
      endloop
   endfacet
   facet normal 0.000000e+00 -1.000000e+00 0.000000e+00
      outer loop
         vertex 6.370000e+01 0.000000e+00 6.370000e+01
         vertex 6.370000e+01 0.000000e+00 9.570000e+01
         vertex 5.590000e+01 0.000000e+00 9.570000e+01
      endloop
   endfacet
   facet normal 0.000000e+00 -1.000000e+00 0.000000e+00
      outer loop
         vertex 6.370000e+01 0.000000e+00 5.600000e+01
         vertex 9.570000e+01 0.000000e+00 5.600000e+01
         vertex 9.570000e+01 0.000000e+00 6.370000e+01
      endloop
   endfacet
   facet normal -0.000000e+00 -1.000000e+00 0.000000e+00
      outer loop
         vertex 3.200000e+01 0.000000e+00 3.980000e+01
         vertex 0.000000e+00 0.000000e+00 3.980000e+01
         vertex 0.000000e+00 0.000000e+00 3.200000e+01
      endloop
   endfacet
   facet normal 0.000000e+00 -1.000000e+00 0.000000e+00
      outer loop
         vertex 5.590000e+01 0.000000e+00 3.200000e+01
         vertex 5.590000e+01 0.000000e+00 0.000000e+00
         vertex 6.370000e+01 0.000000e+00 0.000000e+00
      endloop
   endfacet
   facet normal 0.000000e+00 -1.000000e+00 0.000000e+00
      outer loop
         vertex 3.980000e+01 0.000000e+00 6.370000e+01
         vertex 3.980000e+01 0.000000e+00 9.570000e+01
         vertex 3.200000e+01 0.000000e+00 9.570000e+01
      endloop
   endfacet
   facet normal 0.000000e+00 -1.000000e+00 0.000000e+00
      outer loop
         vertex 5.590000e+01 0.000000e+00 9.570000e+01
         vertex 5.590000e+01 0.000000e+00 6.370000e+01
         vertex 6.370000e+01 0.000000e+00 6.370000e+01
      endloop
   endfacet
   facet normal -0.000000e+00 -1.000000e+00 0.000000e+00
      outer loop
         vertex 6.370000e+01 0.000000e+00 6.370000e+01
         vertex 5.590000e+01 0.000000e+00 6.370000e+01
         vertex 3.200000e+01 0.000000e+00 3.200000e+01
      endloop
   endfacet
   facet normal 0.000000e+00 -1.000000e+00 0.000000e+00
      outer loop
         vertex 6.370000e+01 0.000000e+00 6.370000e+01
         vertex 3.200000e+01 0.000000e+00 3.200000e+01
         vertex 3.980000e+01 0.000000e+00 3.200000e+01
      endloop
   endfacet
   facet normal -0.000000e+00 -1.000000e+00 -0.000000e+00
      outer loop
         vertex 3.980000e+01 0.000000e+00 3.200000e+01
         vertex 3.200000e+01 0.000000e+00 3.200000e+01
         vertex 3.980000e+01 0.000000e+00 0.000000e+00
      endloop
   endfacet
   facet normal 0.000000e+00 -1.000000e+00 0.000000e+00
      outer loop
         vertex 9.570000e+01 0.000000e+00 3.200000e+01
         vertex 9.570000e+01 0.000000e+00 3.980000e+01
         vertex 6.370000e+01 0.000000e+00 3.200000e+01
      endloop
   endfacet
   facet normal 0.000000e+00 -1.000000e+00 0.000000e+00
      outer loop
         vertex 6.370000e+01 0.000000e+00 3.200000e+01
         vertex 9.570000e+01 0.000000e+00 3.980000e+01
         vertex 6.370000e+01 0.000000e+00 3.980000e+01
      endloop
   endfacet
   facet normal 0.000000e+00 -1.000000e+00 0.000000e+00
      outer loop
         vertex 1.842231e+00 0.000000e+00 6.370000e+01
         vertex 1.842231e+00 0.000000e+00 5.600000e+01
         vertex 3.200000e+01 0.000000e+00 6.370000e+01
      endloop
   endfacet
   facet normal 0.000000e+00 -1.000000e+00 -0.000000e+00
      outer loop
         vertex 3.200000e+01 0.000000e+00 6.370000e+01
         vertex 1.842231e+00 0.000000e+00 5.600000e+01
         vertex 3.200000e+01 0.000000e+00 5.600000e+01
      endloop
   endfacet
   facet normal 0.000000e+00 -1.000000e+00 0.000000e+00
      outer loop
         vertex 6.370000e+01 0.000000e+00 0.000000e+00
         vertex 6.370000e+01 0.000000e+00 3.200000e+01
         vertex 5.590000e+01 0.000000e+00 3.200000e+01
      endloop
   endfacet
   facet normal 0.000000e+00 -1.000000e+00 0.000000e+00
      outer loop
         vertex 5.590000e+01 0.000000e+00 3.200000e+01
         vertex 6.370000e+01 0.000000e+00 3.200000e+01
         vertex 6.370000e+01 0.000000e+00 3.980000e+01
      endloop
   endfacet
   facet normal 0.000000e+00 -1.000000e+00 0.000000e+00
      outer loop
         vertex 5.590000e+01 0.000000e+00 3.200000e+01
         vertex 6.370000e+01 0.000000e+00 3.980000e+01
         vertex 3.980000e+01 0.000000e+00 3.200000e+01
      endloop
   endfacet
   facet normal 0.000000e+00 -1.000000e+00 0.000000e+00
      outer loop
         vertex 3.980000e+01 0.000000e+00 3.200000e+01
         vertex 6.370000e+01 0.000000e+00 3.980000e+01
         vertex 6.370000e+01 0.000000e+00 5.600000e+01
      endloop
   endfacet
   facet normal 0.000000e+00 -1.000000e+00 0.000000e+00
      outer loop
         vertex 3.980000e+01 0.000000e+00 3.200000e+01
         vertex 6.370000e+01 0.000000e+00 5.600000e+01
         vertex 6.370000e+01 0.000000e+00 6.370000e+01
      endloop
   endfacet
   facet normal 0.000000e+00 -1.000000e+00 0.000000e+00
      outer loop
         vertex 6.370000e+01 0.000000e+00 6.370000e+01
         vertex 6.370000e+01 0.000000e+00 5.600000e+01
         vertex 9.570000e+01 0.000000e+00 6.370000e+01
      endloop
   endfacet
   facet normal 0.000000e+00 -1.000000e+00 0.000000e+00
      outer loop
         vertex 3.200000e+01 0.000000e+00 9.570000e+01
         vertex 3.200000e+01 0.000000e+00 6.370000e+01
         vertex 3.980000e+01 0.000000e+00 6.370000e+01
      endloop
   endfacet
   facet normal -0.000000e+00 -1.000000e+00 0.000000e+00
      outer loop
         vertex 3.980000e+01 0.000000e+00 6.370000e+01
         vertex 3.200000e+01 0.000000e+00 6.370000e+01
         vertex 3.200000e+01 0.000000e+00 5.600000e+01
      endloop
   endfacet
   facet normal 0.000000e+00 -1.000000e+00 -0.000000e+00
      outer loop
         vertex 3.980000e+01 0.000000e+00 6.370000e+01
         vertex 3.200000e+01 0.000000e+00 5.600000e+01
         vertex 5.590000e+01 0.000000e+00 6.370000e+01
      endloop
   endfacet
   facet normal 0.000000e+00 -1.000000e+00 0.000000e+00
      outer loop
         vertex 5.590000e+01 0.000000e+00 6.370000e+01
         vertex 3.200000e+01 0.000000e+00 5.600000e+01
         vertex 3.200000e+01 0.000000e+00 3.980000e+01
      endloop
   endfacet
   facet normal 0.000000e+00 -1.000000e+00 0.000000e+00
      outer loop
         vertex 5.590000e+01 0.000000e+00 6.370000e+01
         vertex 3.200000e+01 0.000000e+00 3.980000e+01
         vertex 3.200000e+01 0.000000e+00 3.200000e+01
      endloop
   endfacet
   facet normal 0.000000e+00 -1.000000e+00 0.000000e+00
      outer loop
         vertex 3.200000e+01 0.000000e+00 3.200000e+01
         vertex 3.200000e+01 0.000000e+00 3.980000e+01
         vertex 0.000000e+00 0.000000e+00 3.200000e+01
      endloop
   endfacet
   facet normal 0.000000e+00 1.000000e+00 0.000000e+00
      outer loop
         vertex 1.842231e+00 1.930000e+01 5.600000e+01
         vertex 1.842231e+00 1.930000e+01 6.370000e+01
         vertex 7.950000e+00 1.930000e+01 5.600000e+01
      endloop
   endfacet
   facet normal 0.000000e+00 1.000000e+00 -0.000000e+00
      outer loop
         vertex 7.950000e+00 1.930000e+01 5.600000e+01
         vertex 1.842231e+00 1.930000e+01 6.370000e+01
         vertex 7.950000e+00 1.930000e+01 6.370000e+01
      endloop
   endfacet
endsolid