solid lego_support
   facet normal 6.037798e-02 9.981756e-01 0.000000e+00
      outer loop
         vertex 4.770093e+00 8.257157e+01 1.600000e+01
         vertex 4.300000e+00 8.260000e+01 1.600000e+01
         vertex 4.300000e+00 8.260000e+01 3.220000e+01
      endloop
   endfacet
   facet normal -1.802566e-01 9.836196e-01 0.000000e+00
      outer loop
         vertex 4.300000e+00 8.260000e+01 3.220000e+01
         vertex 4.300000e+00 8.260000e+01 1.600000e+01
         vertex 2.917041e+00 8.234656e+01 3.220000e+01
      endloop
   endfacet
   facet normal -1.802566e-01 9.836196e-01 0.000000e+00
      outer loop
         vertex 4.300000e+00 8.260000e+01 1.600000e+01
         vertex 2.917041e+00 8.234656e+01 1.600000e+01
         vertex 2.917041e+00 8.234656e+01 3.220000e+01
      endloop
   endfacet
   facet normal -5.680649e-01 8.229838e-01 0.000000e+00
      outer loop
         vertex 2.917041e+00 8.234656e+01 3.220000e+01
         vertex 2.917041e+00 8.234656e+01 1.600000e+01
         vertex 1.380808e+00 8.128618e+01 1.600000e+01
      endloop
   endfacet
   facet normal -5.680649e-01 8.229838e-01 0.000000e+00
      outer loop
         vertex 2.917041e+00 8.234656e+01 3.220000e+01
         vertex 1.380808e+00 8.128618e+01 1.600000e+01
         vertex 1.380808e+00 8.128618e+01 3.220000e+01
      endloop
   endfacet
   facet normal -8.854559e-01 4.647234e-01 0.000000e+00
      outer loop
         vertex 1.380808e+00 8.128618e+01 3.220000e+01
         vertex 1.380808e+00 8.128618e+01 1.600000e+01
         vertex 5.133269e-01 7.963333e+01 1.600000e+01
      endloop
   endfacet
   facet normal -8.854559e-01 4.647234e-01 0.000000e+00
      outer loop
         vertex 1.380808e+00 8.128618e+01 3.220000e+01
         vertex 5.133269e-01 7.963333e+01 1.600000e+01
         vertex 5.133269e-01 7.963333e+01 3.220000e+01
      endloop
   endfacet
   facet normal -1.000000e+00 0.000000e+00 -0.000000e+00
      outer loop
         vertex 5.133269e-01 7.963333e+01 3.220000e+01
         vertex 5.133269e-01 7.963333e+01 1.600000e+01
         vertex 5.133269e-01 7.776667e+01 1.600000e+01
      endloop
   endfacet
   facet normal -1.000000e+00 -0.000000e+00 0.000000e+00
      outer loop
         vertex 5.133269e-01 7.963333e+01 3.220000e+01
         vertex 5.133269e-01 7.776667e+01 1.600000e+01
         vertex 5.133269e-01 7.776667e+01 3.220000e+01
      endloop
   endfacet
   facet normal -8.854561e-01 -4.647230e-01 -0.000000e+00
      outer loop
         vertex 5.133269e-01 7.776667e+01 3.220000e+01
         vertex 5.133269e-01 7.776667e+01 1.600000e+01
         vertex 1.380808e+00 7.611382e+01 1.600000e+01
      endloop
   endfacet
   facet normal -8.854561e-01 -4.647230e-01 0.000000e+00
      outer loop
         vertex 5.133269e-01 7.776667e+01 3.220000e+01
         vertex 1.380808e+00 7.611382e+01 1.600000e+01
         vertex 1.380808e+00 7.611382e+01 3.220000e+01
      endloop
   endfacet
   facet normal -5.680649e-01 -8.229838e-01 -0.000000e+00
      outer loop
         vertex 1.380808e+00 7.611382e+01 3.220000e+01
         vertex 1.380808e+00 7.611382e+01 1.600000e+01
         vertex 2.917041e+00 7.505344e+01 1.600000e+01
      endloop
   endfacet
   facet normal -5.680649e-01 -8.229838e-01 0.000000e+00
      outer loop
         vertex 1.380808e+00 7.611382e+01 3.220000e+01
         vertex 2.917041e+00 7.505344e+01 1.600000e+01
         vertex 2.917041e+00 7.505344e+01 3.220000e+01
      endloop
   endfacet
   facet normal -1.205360e-01 -9.927090e-01 -0.000000e+00
      outer loop
         vertex 2.917041e+00 7.505344e+01 3.220000e+01
         vertex 2.917041e+00 7.505344e+01 1.600000e+01
         vertex 4.770093e+00 7.482844e+01 1.600000e+01
      endloop
   endfacet
   facet normal -1.205360e-01 -9.927090e-01 0.000000e+00
      outer loop
         vertex 2.917041e+00 7.505344e+01 3.220000e+01
         vertex 4.770093e+00 7.482844e+01 1.600000e+01
         vertex 4.770093e+00 7.482844e+01 3.220000e+01
      endloop
   endfacet
   facet normal 3.546043e-01 -9.350165e-01 0.000000e+00
      outer loop
         vertex 4.770093e+00 7.482844e+01 3.220000e+01
         vertex 4.770093e+00 7.482844e+01 1.600000e+01
         vertex 6.515453e+00 7.549036e+01 1.600000e+01
      endloop
   endfacet
   facet normal 3.546043e-01 -9.350165e-01 0.000000e+00
      outer loop
         vertex 4.770093e+00 7.482844e+01 3.220000e+01
         vertex 6.515453e+00 7.549036e+01 1.600000e+01
         vertex 6.515453e+00 7.549036e+01 3.220000e+01
      endloop
   endfacet
   facet normal 7.485108e-01 -6.631227e-01 0.000000e+00
      outer loop
         vertex 6.515453e+00 7.549036e+01 3.220000e+01
         vertex 6.515453e+00 7.549036e+01 1.600000e+01
         vertex 7.753279e+00 7.688758e+01 1.600000e+01
      endloop
   endfacet
   facet normal 7.485108e-01 -6.631227e-01 0.000000e+00
      outer loop
         vertex 6.515453e+00 7.549036e+01 3.220000e+01
         vertex 7.753279e+00 7.688758e+01 1.600000e+01
         vertex 7.753279e+00 7.688758e+01 3.220000e+01
      endloop
   endfacet
   facet normal 9.709418e-01 -2.393156e-01 0.000000e+00
      outer loop
         vertex 7.753279e+00 7.688758e+01 3.220000e+01
         vertex 7.753279e+00 7.688758e+01 1.600000e+01
         vertex 8.200000e+00 7.870000e+01 1.600000e+01
      endloop
   endfacet
   facet normal 9.709418e-01 -2.393156e-01 0.000000e+00
      outer loop
         vertex 7.753279e+00 7.688758e+01 3.220000e+01
         vertex 8.200000e+00 7.870000e+01 1.600000e+01
         vertex 8.200000e+00 7.870000e+01 3.220000e+01
      endloop
   endfacet
   facet normal 9.709418e-01 2.393158e-01 0.000000e+00
      outer loop
         vertex 8.200000e+00 7.870000e+01 3.220000e+01
         vertex 8.200000e+00 7.870000e+01 1.600000e+01
         vertex 7.753279e+00 8.051242e+01 1.600000e+01
      endloop
   endfacet
   facet normal 9.709418e-01 2.393158e-01 0.000000e+00
      outer loop
         vertex 8.200000e+00 7.870000e+01 3.220000e+01
         vertex 7.753279e+00 8.051242e+01 1.600000e+01
         vertex 7.753279e+00 8.051242e+01 3.220000e+01
      endloop
   endfacet
   facet normal 7.485112e-01 6.631222e-01 0.000000e+00
      outer loop
         vertex 7.753279e+00 8.051242e+01 3.220000e+01
         vertex 7.753279e+00 8.051242e+01 1.600000e+01
         vertex 6.515453e+00 8.190964e+01 1.600000e+01
      endloop
   endfacet
   facet normal 7.485112e-01 6.631222e-01 0.000000e+00
      outer loop
         vertex 7.753279e+00 8.051242e+01 3.220000e+01
         vertex 6.515453e+00 8.190964e+01 1.600000e+01
         vertex 6.515453e+00 8.190964e+01 3.220000e+01
      endloop
   endfacet
   facet normal 3.546052e-01 9.350161e-01 0.000000e+00
      outer loop
         vertex 6.515453e+00 8.190964e+01 3.220000e+01
         vertex 6.515453e+00 8.190964e+01 1.600000e+01
         vertex 4.770093e+00 8.257157e+01 1.600000e+01
      endloop
   endfacet
   facet normal 3.546052e-01 9.350161e-01 0.000000e+00
      outer loop
         vertex 6.515453e+00 8.190964e+01 3.220000e+01
         vertex 4.770093e+00 8.257157e+01 1.600000e+01
         vertex 4.770093e+00 8.257157e+01 3.220000e+01
      endloop
   endfacet
   facet normal 6.037798e-02 9.981756e-01 0.000000e+00
      outer loop
         vertex 4.770093e+00 8.257157e+01 3.220000e+01
         vertex 4.770093e+00 8.257157e+01 1.600000e+01
         vertex 4.300000e+00 8.260000e+01 3.220000e+01
      endloop
   endfacet
   facet normal 0.000000e+00 1.000000e+00 0.000000e+00
      outer loop
         vertex 9.200000e+00 9.570000e+01 4.010000e+01
         vertex 9.200000e+00 9.570000e+01 3.220000e+01
         vertex 0.000000e+00 9.570000e+01 4.010000e+01
      endloop
   endfacet
   facet normal 0.000000e+00 1.000000e+00 0.000000e+00
      outer loop
         vertex 0.000000e+00 9.570000e+01 4.010000e+01
         vertex 9.200000e+00 9.570000e+01 3.220000e+01
         vertex 0.000000e+00 9.570000e+01 3.220000e+01
      endloop
   endfacet
   facet normal 0.000000e+00 0.000000e+00 1.000000e+00
      outer loop
         vertex 2.917041e+00 7.505344e+01 4.010000e+01
         vertex 0.000000e+00 0.000000e+00 4.010000e+01
         vertex 4.770093e+00 7.482844e+01 4.010000e+01
      endloop
   endfacet
   facet normal 0.000000e+00 0.000000e+00 1.000000e+00
      outer loop
         vertex 4.770093e+00 7.482844e+01 4.010000e+01
         vertex 0.000000e+00 0.000000e+00 4.010000e+01
         vertex 9.200000e+00 0.000000e+00 4.010000e+01
      endloop
   endfacet
   facet normal -0.000000e+00 0.000000e+00 1.000000e+00
      outer loop
         vertex 4.770093e+00 7.482844e+01 4.010000e+01
         vertex 9.200000e+00 0.000000e+00 4.010000e+01
         vertex 6.515453e+00 7.549036e+01 4.010000e+01
      endloop
   endfacet
   facet normal 0.000000e+00 0.000000e+00 1.000000e+00
      outer loop
         vertex 2.917041e+00 7.505344e+01 4.010000e+01
         vertex 1.380808e+00 7.611382e+01 4.010000e+01
         vertex 0.000000e+00 0.000000e+00 4.010000e+01
      endloop
   endfacet
   facet normal 0.000000e+00 0.000000e+00 1.000000e+00
      outer loop
         vertex 0.000000e+00 0.000000e+00 4.010000e+01
         vertex 1.380808e+00 7.611382e+01 4.010000e+01
         vertex 5.133269e-01 7.776667e+01 4.010000e+01
      endloop
   endfacet
   facet normal 0.000000e+00 0.000000e+00 1.000000e+00
      outer loop
         vertex 0.000000e+00 0.000000e+00 4.010000e+01
         vertex 5.133269e-01 7.776667e+01 4.010000e+01
         vertex 0.000000e+00 9.570000e+01 4.010000e+01
      endloop
   endfacet
   facet normal 0.000000e+00 0.000000e+00 1.000000e+00
      outer loop
         vertex 0.000000e+00 9.570000e+01 4.010000e+01
         vertex 5.133269e-01 7.776667e+01 4.010000e+01
         vertex 5.133269e-01 7.963333e+01 4.010000e+01
      endloop
   endfacet
   facet normal 0.000000e+00 0.000000e+00 1.000000e+00
      outer loop
         vertex 0.000000e+00 9.570000e+01 4.010000e+01
         vertex 5.133269e-01 7.963333e+01 4.010000e+01
         vertex 1.380808e+00 8.128618e+01 4.010000e+01
      endloop
   endfacet
   facet normal -0.000000e+00 0.000000e+00 1.000000e+00
      outer loop
         vertex 6.515453e+00 8.190964e+01 4.010000e+01
         vertex 7.753279e+00 8.051242e+01 4.010000e+01
         vertex 9.200000e+00 9.570000e+01 4.010000e+01
      endloop
   endfacet
   facet normal 0.000000e+00 0.000000e+00 1.000000e+00
      outer loop
         vertex 9.200000e+00 9.570000e+01 4.010000e+01
         vertex 7.753279e+00 8.051242e+01 4.010000e+01
         vertex 8.200000e+00 7.870000e+01 4.010000e+01
      endloop
   endfacet
   facet normal 0.000000e+00 0.000000e+00 1.000000e+00
      outer loop
         vertex 9.200000e+00 9.570000e+01 4.010000e+01
         vertex 8.200000e+00 7.870000e+01 4.010000e+01
         vertex 9.200000e+00 0.000000e+00 4.010000e+01
      endloop
   endfacet
   facet normal 0.000000e+00 0.000000e+00 1.000000e+00
      outer loop
         vertex 9.200000e+00 0.000000e+00 4.010000e+01
         vertex 8.200000e+00 7.870000e+01 4.010000e+01
         vertex 7.753279e+00 7.688758e+01 4.010000e+01
      endloop
   endfacet
   facet normal 0.000000e+00 0.000000e+00 1.000000e+00
      outer loop
         vertex 9.200000e+00 0.000000e+00 4.010000e+01
         vertex 7.753279e+00 7.688758e+01 4.010000e+01
         vertex 6.515453e+00 7.549036e+01 4.010000e+01
      endloop
   endfacet
   facet normal 0.000000e+00 -0.000000e+00 1.000000e+00
      outer loop
         vertex 1.380808e+00 8.128618e+01 4.010000e+01
         vertex 2.917041e+00 8.234656e+01 4.010000e+01
         vertex 0.000000e+00 9.570000e+01 4.010000e+01
      endloop
   endfacet
   facet normal 0.000000e+00 0.000000e+00 1.000000e+00
      outer loop
         vertex 0.000000e+00 9.570000e+01 4.010000e+01
         vertex 2.917041e+00 8.234656e+01 4.010000e+01
         vertex 4.300000e+00 8.260000e+01 4.010000e+01
      endloop
   endfacet
   facet normal -0.000000e+00 0.000000e+00 1.000000e+00
      outer loop
         vertex 0.000000e+00 9.570000e+01 4.010000e+01
         vertex 4.300000e+00 8.260000e+01 4.010000e+01
         vertex 9.200000e+00 9.570000e+01 4.010000e+01
      endloop
   endfacet
   facet normal 0.000000e+00 0.000000e+00 1.000000e+00
      outer loop
         vertex 9.200000e+00 9.570000e+01 4.010000e+01
         vertex 4.300000e+00 8.260000e+01 4.010000e+01
         vertex 4.770093e+00 8.257157e+01 4.010000e+01
      endloop
   endfacet
   facet normal 0.000000e+00 0.000000e+00 1.000000e+00
      outer loop
         vertex 9.200000e+00 9.570000e+01 4.010000e+01
         vertex 4.770093e+00 8.257157e+01 4.010000e+01
         vertex 6.515453e+00 8.190964e+01 4.010000e+01
      endloop
   endfacet
   facet normal 0.000000e+00 -1.000000e+00 0.000000e+00
      outer loop
         vertex 9.200000e+00 0.000000e+00 3.220000e+01
         vertex 9.200000e+00 0.000000e+00 4.010000e+01
         vertex 0.000000e+00 0.000000e+00 3.220000e+01
      endloop
   endfacet
   facet normal 0.000000e+00 -1.000000e+00 0.000000e+00
      outer loop
         vertex 0.000000e+00 0.000000e+00 3.220000e+01
         vertex 9.200000e+00 0.000000e+00 4.010000e+01
         vertex 0.000000e+00 0.000000e+00 4.010000e+01
      endloop
   endfacet
   facet normal -0.000000e+00 0.000000e+00 -1.000000e+00
      outer loop
         vertex 2.917041e+00 8.234656e+01 3.220000e+01
         vertex 1.380808e+00 8.128618e+01 3.220000e+01
         vertex 0.000000e+00 9.570000e+01 3.220000e+01
      endloop
   endfacet
   facet normal -0.000000e+00 0.000000e+00 -1.000000e+00
      outer loop
         vertex 1.380808e+00 8.128618e+01 3.220000e+01
         vertex 5.133269e-01 7.963333e+01 3.220000e+01
         vertex 0.000000e+00 9.570000e+01 3.220000e+01
      endloop
   endfacet
   facet normal 0.000000e+00 0.000000e+00 -1.000000e+00
      outer loop
         vertex 0.000000e+00 9.570000e+01 3.220000e+01
         vertex 5.133269e-01 7.963333e+01 3.220000e+01
         vertex 5.133269e-01 7.776667e+01 3.220000e+01
      endloop
   endfacet
   facet normal 0.000000e+00 0.000000e+00 -1.000000e+00
      outer loop
         vertex 0.000000e+00 9.570000e+01 3.220000e+01
         vertex 5.133269e-01 7.776667e+01 3.220000e+01
         vertex 0.000000e+00 0.000000e+00 3.220000e+01
      endloop
   endfacet
   facet normal 0.000000e+00 -0.000000e+00 -1.000000e+00
      outer loop
         vertex 5.133269e-01 7.776667e+01 3.220000e+01
         vertex 1.380808e+00 7.611382e+01 3.220000e+01
         vertex 0.000000e+00 0.000000e+00 3.220000e+01
      endloop
   endfacet
   facet normal 0.000000e+00 0.000000e+00 -1.000000e+00
      outer loop
         vertex 0.000000e+00 0.000000e+00 3.220000e+01
         vertex 1.380808e+00 7.611382e+01 3.220000e+01
         vertex 2.917041e+00 7.505344e+01 3.220000e+01
      endloop
   endfacet
   facet normal 0.000000e+00 0.000000e+00 -1.000000e+00
      outer loop
         vertex 0.000000e+00 0.000000e+00 3.220000e+01
         vertex 2.917041e+00 7.505344e+01 3.220000e+01
         vertex 9.200000e+00 0.000000e+00 3.220000e+01
      endloop
   endfacet
   facet normal 0.000000e+00 0.000000e+00 -1.000000e+00
      outer loop
         vertex 9.200000e+00 0.000000e+00 3.220000e+01
         vertex 2.917041e+00 7.505344e+01 3.220000e+01
         vertex 4.770093e+00 7.482844e+01 3.220000e+01
      endloop
   endfacet
   facet normal 0.000000e+00 0.000000e+00 -1.000000e+00
      outer loop
         vertex 9.200000e+00 0.000000e+00 3.220000e+01
         vertex 4.770093e+00 7.482844e+01 3.220000e+01
         vertex 6.515453e+00 7.549036e+01 3.220000e+01
      endloop
   endfacet
   facet normal 0.000000e+00 0.000000e+00 -1.000000e+00
      outer loop
         vertex 6.515453e+00 7.549036e+01 3.220000e+01
         vertex 7.753279e+00 7.688758e+01 3.220000e+01
         vertex 9.200000e+00 0.000000e+00 3.220000e+01
      endloop
   endfacet
   facet normal 0.000000e+00 0.000000e+00 -1.000000e+00
      outer loop
         vertex 9.200000e+00 0.000000e+00 3.220000e+01
         vertex 7.753279e+00 7.688758e+01 3.220000e+01
         vertex 8.200000e+00 7.870000e+01 3.220000e+01
      endloop
   endfacet
   facet normal 0.000000e+00 0.000000e+00 -1.000000e+00
      outer loop
         vertex 9.200000e+00 0.000000e+00 3.220000e+01
         vertex 8.200000e+00 7.870000e+01 3.220000e+01
         vertex 9.200000e+00 9.570000e+01 3.220000e+01
      endloop
   endfacet
   facet normal 0.000000e+00 0.000000e+00 -1.000000e+00
      outer loop
         vertex 9.200000e+00 9.570000e+01 3.220000e+01
         vertex 8.200000e+00 7.870000e+01 3.220000e+01
         vertex 7.753279e+00 8.051242e+01 3.220000e+01
      endloop
   endfacet
   facet normal 0.000000e+00 0.000000e+00 -1.000000e+00
      outer loop
         vertex 7.753279e+00 8.051242e+01 3.220000e+01
         vertex 6.515453e+00 8.190964e+01 3.220000e+01
         vertex 9.200000e+00 9.570000e+01 3.220000e+01
      endloop
   endfacet
   facet normal 0.000000e+00 0.000000e+00 -1.000000e+00
      outer loop
         vertex 9.200000e+00 9.570000e+01 3.220000e+01
         vertex 6.515453e+00 8.190964e+01 3.220000e+01
         vertex 4.770093e+00 8.257157e+01 3.220000e+01
      endloop
   endfacet
   facet normal -0.000000e+00 0.000000e+00 -1.000000e+00
      outer loop
         vertex 9.200000e+00 9.570000e+01 3.220000e+01
         vertex 4.770093e+00 8.257157e+01 3.220000e+01
         vertex 0.000000e+00 9.570000e+01 3.220000e+01
      endloop
   endfacet
   facet normal 0.000000e+00 0.000000e+00 -1.000000e+00
      outer loop
         vertex 0.000000e+00 9.570000e+01 3.220000e+01
         vertex 4.770093e+00 8.257157e+01 3.220000e+01
         vertex 4.300000e+00 8.260000e+01 3.220000e+01
      endloop
   endfacet
   facet normal 0.000000e+00 0.000000e+00 -1.000000e+00
      outer loop
         vertex 0.000000e+00 9.570000e+01 3.220000e+01
         vertex 4.300000e+00 8.260000e+01 3.220000e+01
         vertex 2.917041e+00 8.234656e+01 3.220000e+01
      endloop
   endfacet
   facet normal 1.000000e+00 -0.000000e+00 0.000000e+00
      outer loop
         vertex 9.200000e+00 0.000000e+00 4.010000e+01
         vertex 9.200000e+00 0.000000e+00 3.220000e+01
         vertex 9.200000e+00 9.570000e+01 4.010000e+01
      endloop
   endfacet
   facet normal 1.000000e+00 0.000000e+00 0.000000e+00
      outer loop
         vertex 9.200000e+00 9.570000e+01 4.010000e+01
         vertex 9.200000e+00 0.000000e+00 3.220000e+01
         vertex 9.200000e+00 9.570000e+01 3.220000e+01
      endloop
   endfacet
   facet normal -1.000000e+00 0.000000e+00 0.000000e+00
      outer loop
         vertex 0.000000e+00 0.000000e+00 3.220000e+01
         vertex 0.000000e+00 0.000000e+00 4.010000e+01
         vertex 0.000000e+00 9.570000e+01 3.220000e+01
      endloop
   endfacet
   facet normal -1.000000e+00 0.000000e+00 0.000000e+00
      outer loop
         vertex 0.000000e+00 9.570000e+01 3.220000e+01
         vertex 0.000000e+00 0.000000e+00 4.010000e+01
         vertex 0.000000e+00 9.570000e+01 4.010000e+01
      endloop
   endfacet
   facet normal -1.802566e-01 9.836196e-01 0.000000e+00
      outer loop
         vertex 4.300000e+00 8.260000e+01 4.010000e+01
         vertex 2.917041e+00 8.234656e+01 4.010000e+01
         vertex 2.917041e+00 8.234656e+01 4.800000e+01
      endloop
   endfacet
   facet normal -5.680649e-01 8.229838e-01 0.000000e+00
      outer loop
         vertex 2.917041e+00 8.234656e+01 4.800000e+01
         vertex 2.917041e+00 8.234656e+01 4.010000e+01
         vertex 1.380808e+00 8.128618e+01 4.010000e+01
      endloop
   endfacet
   facet normal -5.680649e-01 8.229838e-01 0.000000e+00
      outer loop
         vertex 2.917041e+00 8.234656e+01 4.800000e+01
         vertex 1.380808e+00 8.128618e+01 4.010000e+01
         vertex 1.380808e+00 8.128618e+01 4.800000e+01
      endloop
   endfacet
   facet normal -8.854559e-01 4.647234e-01 0.000000e+00
      outer loop
         vertex 1.380808e+00 8.128618e+01 4.800000e+01
         vertex 1.380808e+00 8.128618e+01 4.010000e+01
         vertex 5.133269e-01 7.963333e+01 4.010000e+01
      endloop
   endfacet
   facet normal -8.854559e-01 4.647234e-01 0.000000e+00
      outer loop
         vertex 1.380808e+00 8.128618e+01 4.800000e+01
         vertex 5.133269e-01 7.963333e+01 4.010000e+01
         vertex 5.133269e-01 7.963333e+01 4.800000e+01
      endloop
   endfacet
   facet normal -1.000000e+00 0.000000e+00 -0.000000e+00
      outer loop
         vertex 5.133269e-01 7.963333e+01 4.800000e+01
         vertex 5.133269e-01 7.963333e+01 4.010000e+01
         vertex 5.133269e-01 7.776667e+01 4.010000e+01
      endloop
   endfacet
   facet normal -1.000000e+00 -0.000000e+00 0.000000e+00
      outer loop
         vertex 5.133269e-01 7.963333e+01 4.800000e+01
         vertex 5.133269e-01 7.776667e+01 4.010000e+01
         vertex 5.133269e-01 7.776667e+01 4.800000e+01
      endloop
   endfacet
   facet normal -8.854561e-01 -4.647230e-01 -0.000000e+00
      outer loop
         vertex 5.133269e-01 7.776667e+01 4.800000e+01
         vertex 5.133269e-01 7.776667e+01 4.010000e+01
         vertex 1.380808e+00 7.611382e+01 4.010000e+01
      endloop
   endfacet
   facet normal -8.854561e-01 -4.647230e-01 0.000000e+00
      outer loop
         vertex 5.133269e-01 7.776667e+01 4.800000e+01
         vertex 1.380808e+00 7.611382e+01 4.010000e+01
         vertex 1.380808e+00 7.611382e+01 4.800000e+01
      endloop
   endfacet
   facet normal -5.680649e-01 -8.229838e-01 -0.000000e+00
      outer loop
         vertex 1.380808e+00 7.611382e+01 4.800000e+01
         vertex 1.380808e+00 7.611382e+01 4.010000e+01
         vertex 2.917041e+00 7.505344e+01 4.010000e+01
      endloop
   endfacet
   facet normal -5.680649e-01 -8.229838e-01 0.000000e+00
      outer loop
         vertex 1.380808e+00 7.611382e+01 4.800000e+01
         vertex 2.917041e+00 7.505344e+01 4.010000e+01
         vertex 2.917041e+00 7.505344e+01 4.800000e+01
      endloop
   endfacet
   facet normal -1.205360e-01 -9.927090e-01 -0.000000e+00
      outer loop
         vertex 2.917041e+00 7.505344e+01 4.800000e+01
         vertex 2.917041e+00 7.505344e+01 4.010000e+01
         vertex 4.770093e+00 7.482844e+01 4.010000e+01
      endloop
   endfacet
   facet normal -1.205360e-01 -9.927090e-01 0.000000e+00
      outer loop
         vertex 2.917041e+00 7.505344e+01 4.800000e+01
         vertex 4.770093e+00 7.482844e+01 4.010000e+01
         vertex 4.770093e+00 7.482844e+01 4.800000e+01
      endloop
   endfacet
   facet normal 3.546043e-01 -9.350165e-01 0.000000e+00
      outer loop
         vertex 4.770093e+00 7.482844e+01 4.800000e+01
         vertex 4.770093e+00 7.482844e+01 4.010000e+01
         vertex 6.515453e+00 7.549036e+01 4.010000e+01
      endloop
   endfacet
   facet normal 3.546043e-01 -9.350165e-01 0.000000e+00
      outer loop
         vertex 4.770093e+00 7.482844e+01 4.800000e+01
         vertex 6.515453e+00 7.549036e+01 4.010000e+01
         vertex 6.515453e+00 7.549036e+01 4.800000e+01
      endloop
   endfacet
   facet normal 7.485108e-01 -6.631227e-01 0.000000e+00
      outer loop
         vertex 6.515453e+00 7.549036e+01 4.800000e+01
         vertex 6.515453e+00 7.549036e+01 4.010000e+01
         vertex 7.753279e+00 7.688758e+01 4.010000e+01
      endloop
   endfacet
   facet normal 7.485108e-01 -6.631227e-01 0.000000e+00
      outer loop
         vertex 6.515453e+00 7.549036e+01 4.800000e+01
         vertex 7.753279e+00 7.688758e+01 4.010000e+01
         vertex 7.753279e+00 7.688758e+01 4.800000e+01
      endloop
   endfacet
   facet normal 9.709418e-01 -2.393156e-01 0.000000e+00
      outer loop
         vertex 7.753279e+00 7.688758e+01 4.800000e+01
         vertex 7.753279e+00 7.688758e+01 4.010000e+01
         vertex 8.200000e+00 7.870000e+01 4.010000e+01
      endloop
   endfacet
   facet normal 9.709418e-01 -2.393156e-01 0.000000e+00
      outer loop
         vertex 7.753279e+00 7.688758e+01 4.800000e+01
         vertex 8.200000e+00 7.870000e+01 4.010000e+01
         vertex 8.200000e+00 7.870000e+01 4.800000e+01
      endloop
   endfacet
   facet normal 9.709418e-01 2.393158e-01 0.000000e+00
      outer loop
         vertex 8.200000e+00 7.870000e+01 4.800000e+01
         vertex 8.200000e+00 7.870000e+01 4.010000e+01
         vertex 7.753279e+00 8.051242e+01 4.010000e+01
      endloop
   endfacet
   facet normal 9.709418e-01 2.393158e-01 0.000000e+00
      outer loop
         vertex 8.200000e+00 7.870000e+01 4.800000e+01
         vertex 7.753279e+00 8.051242e+01 4.010000e+01
         vertex 7.753279e+00 8.051242e+01 4.800000e+01
      endloop
   endfacet
   facet normal 7.485112e-01 6.631222e-01 0.000000e+00
      outer loop
         vertex 7.753279e+00 8.051242e+01 4.800000e+01
         vertex 7.753279e+00 8.051242e+01 4.010000e+01
         vertex 6.515453e+00 8.190964e+01 4.010000e+01
      endloop
   endfacet
   facet normal 7.485112e-01 6.631222e-01 0.000000e+00
      outer loop
         vertex 7.753279e+00 8.051242e+01 4.800000e+01
         vertex 6.515453e+00 8.190964e+01 4.010000e+01
         vertex 6.515453e+00 8.190964e+01 4.800000e+01
      endloop
   endfacet
   facet normal 3.546052e-01 9.350161e-01 0.000000e+00
      outer loop
         vertex 6.515453e+00 8.190964e+01 4.800000e+01
         vertex 6.515453e+00 8.190964e+01 4.010000e+01
         vertex 4.770093e+00 8.257157e+01 4.010000e+01
      endloop
   endfacet
   facet normal 3.546052e-01 9.350161e-01 0.000000e+00
      outer loop
         vertex 6.515453e+00 8.190964e+01 4.800000e+01
         vertex 4.770093e+00 8.257157e+01 4.010000e+01
         vertex 4.770093e+00 8.257157e+01 4.800000e+01
      endloop
   endfacet
   facet normal 6.037798e-02 9.981756e-01 0.000000e+00
      outer loop
         vertex 4.770093e+00 8.257157e+01 4.800000e+01
         vertex 4.770093e+00 8.257157e+01 4.010000e+01
         vertex 4.300000e+00 8.260000e+01 4.010000e+01
      endloop
   endfacet
   facet normal -1.205311e-01 9.926514e-01 1.074519e-02
      outer loop
         vertex 4.770093e+00 8.257157e+01 4.800000e+01
         vertex 4.300000e+00 8.260000e+01 4.010000e+01
         vertex 2.917041e+00 8.234656e+01 4.800000e+01
      endloop
   endfacet
   facet normal 0.000000e+00 0.000000e+00 1.000000e+00
      outer loop
         vertex 8.200000e+00 7.870000e+01 4.800000e+01
         vertex 7.753279e+00 8.051242e+01 4.800000e+01
         vertex 4.300000e+00 7.870000e+01 4.800000e+01
      endloop
   endfacet
   facet normal 0.000000e+00 -0.000000e+00 1.000000e+00
      outer loop
         vertex 4.770093e+00 7.482844e+01 4.800000e+01
         vertex 6.515453e+00 7.549036e+01 4.800000e+01
         vertex 4.300000e+00 7.870000e+01 4.800000e+01
      endloop
   endfacet
   facet normal 0.000000e+00 0.000000e+00 1.000000e+00
      outer loop
         vertex 4.300000e+00 7.870000e+01 4.800000e+01
         vertex 6.515453e+00 7.549036e+01 4.800000e+01
         vertex 7.753279e+00 7.688758e+01 4.800000e+01
      endloop
   endfacet
   facet normal -0.000000e+00 0.000000e+00 1.000000e+00
      outer loop
         vertex 4.300000e+00 7.870000e+01 4.800000e+01
         vertex 7.753279e+00 7.688758e+01 4.800000e+01
         vertex 8.200000e+00 7.870000e+01 4.800000e+01
      endloop
   endfacet
   facet normal -0.000000e+00 0.000000e+00 1.000000e+00
      outer loop
         vertex 5.133269e-01 7.776667e+01 4.800000e+01
         vertex 1.380808e+00 7.611382e+01 4.800000e+01
         vertex 4.300000e+00 7.870000e+01 4.800000e+01
      endloop
   endfacet
   facet normal 0.000000e+00 0.000000e+00 1.000000e+00
      outer loop
         vertex 4.300000e+00 7.870000e+01 4.800000e+01
         vertex 1.380808e+00 7.611382e+01 4.800000e+01
         vertex 2.917041e+00 7.505344e+01 4.800000e+01
      endloop
   endfacet
   facet normal 0.000000e+00 0.000000e+00 1.000000e+00
      outer loop
         vertex 4.300000e+00 7.870000e+01 4.800000e+01
         vertex 2.917041e+00 7.505344e+01 4.800000e+01
         vertex 4.770093e+00 7.482844e+01 4.800000e+01
      endloop
   endfacet
   facet normal 0.000000e+00 0.000000e+00 1.000000e+00
      outer loop
         vertex 2.917041e+00 8.234656e+01 4.800000e+01
         vertex 1.380808e+00 8.128618e+01 4.800000e+01
         vertex 4.300000e+00 7.870000e+01 4.800000e+01
      endloop
   endfacet
   facet normal 0.000000e+00 0.000000e+00 1.000000e+00
      outer loop
         vertex 4.300000e+00 7.870000e+01 4.800000e+01
         vertex 1.380808e+00 8.128618e+01 4.800000e+01
         vertex 5.133269e-01 7.963333e+01 4.800000e+01
      endloop
   endfacet
   facet normal 0.000000e+00 0.000000e+00 1.000000e+00
      outer loop
         vertex 4.300000e+00 7.870000e+01 4.800000e+01
         vertex 5.133269e-01 7.963333e+01 4.800000e+01
         vertex 5.133269e-01 7.776667e+01 4.800000e+01
      endloop
   endfacet
   facet normal 0.000000e+00 0.000000e+00 1.000000e+00
      outer loop
         vertex 7.753279e+00 8.051242e+01 4.800000e+01
         vertex 6.515453e+00 8.190964e+01 4.800000e+01
         vertex 4.300000e+00 7.870000e+01 4.800000e+01
      endloop
   endfacet
   facet normal 0.000000e+00 0.000000e+00 1.000000e+00
      outer loop
         vertex 4.300000e+00 7.870000e+01 4.800000e+01
         vertex 6.515453e+00 8.190964e+01 4.800000e+01
         vertex 4.770093e+00 8.257157e+01 4.800000e+01
      endloop
   endfacet
   facet normal 0.000000e+00 -0.000000e+00 1.000000e+00
      outer loop
         vertex 4.300000e+00 7.870000e+01 4.800000e+01
         vertex 4.770093e+00 8.257157e+01 4.800000e+01
         vertex 2.917041e+00 8.234656e+01 4.800000e+01
      endloop
   endfacet
   facet normal 0.000000e+00 0.000000e+00 1.000000e+00
      outer loop
         vertex 2.917041e+00 7.505344e+01 1.600000e+01
         vertex 0.000000e+00 0.000000e+00 1.600000e+01
         vertex 4.770093e+00 7.482844e+01 1.600000e+01
      endloop
   endfacet
   facet normal 0.000000e+00 0.000000e+00 1.000000e+00
      outer loop
         vertex 4.770093e+00 7.482844e+01 1.600000e+01
         vertex 0.000000e+00 0.000000e+00 1.600000e+01
         vertex 9.200000e+00 0.000000e+00 1.600000e+01
      endloop
   endfacet
   facet normal -0.000000e+00 0.000000e+00 1.000000e+00
      outer loop
         vertex 4.770093e+00 7.482844e+01 1.600000e+01
         vertex 9.200000e+00 0.000000e+00 1.600000e+01
         vertex 6.515453e+00 7.549036e+01 1.600000e+01
      endloop
   endfacet
   facet normal 0.000000e+00 0.000000e+00 1.000000e+00
      outer loop
         vertex 2.917041e+00 7.505344e+01 1.600000e+01
         vertex 1.380808e+00 7.611382e+01 1.600000e+01
         vertex 0.000000e+00 0.000000e+00 1.600000e+01
      endloop
   endfacet
   facet normal 0.000000e+00 0.000000e+00 1.000000e+00
      outer loop
         vertex 0.000000e+00 0.000000e+00 1.600000e+01
         vertex 1.380808e+00 7.611382e+01 1.600000e+01
         vertex 5.133269e-01 7.776667e+01 1.600000e+01
      endloop
   endfacet
   facet normal 0.000000e+00 0.000000e+00 1.000000e+00
      outer loop
         vertex 0.000000e+00 0.000000e+00 1.600000e+01
         vertex 5.133269e-01 7.776667e+01 1.600000e+01
         vertex 0.000000e+00 9.570000e+01 1.600000e+01
      endloop
   endfacet
   facet normal 0.000000e+00 0.000000e+00 1.000000e+00
      outer loop
         vertex 0.000000e+00 9.570000e+01 1.600000e+01
         vertex 5.133269e-01 7.776667e+01 1.600000e+01
         vertex 5.133269e-01 7.963333e+01 1.600000e+01
      endloop
   endfacet
   facet normal 0.000000e+00 0.000000e+00 1.000000e+00
      outer loop
         vertex 0.000000e+00 9.570000e+01 1.600000e+01
         vertex 5.133269e-01 7.963333e+01 1.600000e+01
         vertex 1.380808e+00 8.128618e+01 1.600000e+01
      endloop
   endfacet
   facet normal -0.000000e+00 0.000000e+00 1.000000e+00
      outer loop
         vertex 6.515453e+00 8.190964e+01 1.600000e+01
         vertex 7.753279e+00 8.051242e+01 1.600000e+01
         vertex 9.200000e+00 9.570000e+01 1.600000e+01
      endloop
   endfacet
   facet normal 0.000000e+00 0.000000e+00 1.000000e+00
      outer loop
         vertex 9.200000e+00 9.570000e+01 1.600000e+01
         vertex 7.753279e+00 8.051242e+01 1.600000e+01
         vertex 8.200000e+00 7.870000e+01 1.600000e+01
      endloop
   endfacet
   facet normal 0.000000e+00 0.000000e+00 1.000000e+00
      outer loop
         vertex 9.200000e+00 9.570000e+01 1.600000e+01
         vertex 8.200000e+00 7.870000e+01 1.600000e+01
         vertex 9.200000e+00 0.000000e+00 1.600000e+01
      endloop
   endfacet
   facet normal 0.000000e+00 0.000000e+00 1.000000e+00
      outer loop
         vertex 9.200000e+00 0.000000e+00 1.600000e+01
         vertex 8.200000e+00 7.870000e+01 1.600000e+01
         vertex 7.753279e+00 7.688758e+01 1.600000e+01
      endloop
   endfacet
   facet normal 0.000000e+00 0.000000e+00 1.000000e+00
      outer loop
         vertex 9.200000e+00 0.000000e+00 1.600000e+01
         vertex 7.753279e+00 7.688758e+01 1.600000e+01
         vertex 6.515453e+00 7.549036e+01 1.600000e+01
      endloop
   endfacet
   facet normal 0.000000e+00 -0.000000e+00 1.000000e+00
      outer loop
         vertex 1.380808e+00 8.128618e+01 1.600000e+01
         vertex 2.917041e+00 8.234656e+01 1.600000e+01
         vertex 0.000000e+00 9.570000e+01 1.600000e+01
      endloop
   endfacet
   facet normal 0.000000e+00 0.000000e+00 1.000000e+00
      outer loop
         vertex 0.000000e+00 9.570000e+01 1.600000e+01
         vertex 2.917041e+00 8.234656e+01 1.600000e+01
         vertex 4.300000e+00 8.260000e+01 1.600000e+01
      endloop
   endfacet
   facet normal -0.000000e+00 0.000000e+00 1.000000e+00
      outer loop
         vertex 0.000000e+00 9.570000e+01 1.600000e+01
         vertex 4.300000e+00 8.260000e+01 1.600000e+01
         vertex 9.200000e+00 9.570000e+01 1.600000e+01
      endloop
   endfacet
   facet normal 0.000000e+00 0.000000e+00 1.000000e+00
      outer loop
         vertex 9.200000e+00 9.570000e+01 1.600000e+01
         vertex 4.300000e+00 8.260000e+01 1.600000e+01
         vertex 4.770093e+00 8.257157e+01 1.600000e+01
      endloop
   endfacet
   facet normal 0.000000e+00 0.000000e+00 1.000000e+00
      outer loop
         vertex 9.200000e+00 9.570000e+01 1.600000e+01
         vertex 4.770093e+00 8.257157e+01 1.600000e+01
         vertex 6.515453e+00 8.190964e+01 1.600000e+01
      endloop
   endfacet
   facet normal 0.000000e+00 -1.000000e+00 0.000000e+00
      outer loop
         vertex 9.200000e+00 0.000000e+00 8.100000e+00
         vertex 9.200000e+00 0.000000e+00 1.600000e+01
         vertex 0.000000e+00 0.000000e+00 8.100000e+00
      endloop
   endfacet
   facet normal 0.000000e+00 -1.000000e+00 0.000000e+00
      outer loop
         vertex 0.000000e+00 0.000000e+00 8.100000e+00
         vertex 9.200000e+00 0.000000e+00 1.600000e+01
         vertex 0.000000e+00 0.000000e+00 1.600000e+01
      endloop
   endfacet
   facet normal 0.000000e+00 0.000000e+00 -1.000000e+00
      outer loop
         vertex 6.515453e+00 8.190964e+01 8.100000e+00
         vertex 4.770093e+00 8.257157e+01 8.100000e+00
         vertex 9.200000e+00 9.570000e+01 8.100000e+00
      endloop
   endfacet
   facet normal -0.000000e+00 0.000000e+00 -1.000000e+00
      outer loop
         vertex 1.380808e+00 8.128618e+01 8.100000e+00
         vertex 5.133269e-01 7.963333e+01 8.100000e+00
         vertex 0.000000e+00 9.570000e+01 8.100000e+00
      endloop
   endfacet
   facet normal 0.000000e+00 0.000000e+00 -1.000000e+00
      outer loop
         vertex 0.000000e+00 9.570000e+01 8.100000e+00
         vertex 5.133269e-01 7.963333e+01 8.100000e+00
         vertex 5.133269e-01 7.776667e+01 8.100000e+00
      endloop
   endfacet
   facet normal 0.000000e+00 0.000000e+00 -1.000000e+00
      outer loop
         vertex 0.000000e+00 9.570000e+01 8.100000e+00
         vertex 5.133269e-01 7.776667e+01 8.100000e+00
         vertex 0.000000e+00 0.000000e+00 8.100000e+00
      endloop
   endfacet
   facet normal 0.000000e+00 0.000000e+00 -1.000000e+00
      outer loop
         vertex 0.000000e+00 0.000000e+00 8.100000e+00
         vertex 5.133269e-01 7.776667e+01 8.100000e+00
         vertex 1.380808e+00 7.611382e+01 8.100000e+00
      endloop
   endfacet
   facet normal -0.000000e+00 0.000000e+00 -1.000000e+00
      outer loop
         vertex 9.200000e+00 9.570000e+01 8.100000e+00
         vertex 4.770093e+00 8.257157e+01 8.100000e+00
         vertex 0.000000e+00 9.570000e+01 8.100000e+00
      endloop
   endfacet
   facet normal 0.000000e+00 0.000000e+00 -1.000000e+00
      outer loop
         vertex 0.000000e+00 9.570000e+01 8.100000e+00
         vertex 4.770093e+00 8.257157e+01 8.100000e+00
         vertex 2.917041e+00 8.234656e+01 8.100000e+00
      endloop
   endfacet
   facet normal 0.000000e+00 0.000000e+00 -1.000000e+00
      outer loop
         vertex 0.000000e+00 9.570000e+01 8.100000e+00
         vertex 2.917041e+00 8.234656e+01 8.100000e+00
         vertex 1.380808e+00 8.128618e+01 8.100000e+00
      endloop
   endfacet
   facet normal 0.000000e+00 0.000000e+00 -1.000000e+00
      outer loop
         vertex 6.515453e+00 7.549036e+01 8.100000e+00
         vertex 7.753279e+00 7.688758e+01 8.100000e+00
         vertex 9.200000e+00 0.000000e+00 8.100000e+00
      endloop
   endfacet
   facet normal 0.000000e+00 0.000000e+00 -1.000000e+00
      outer loop
         vertex 9.200000e+00 0.000000e+00 8.100000e+00
         vertex 7.753279e+00 7.688758e+01 8.100000e+00
         vertex 8.200000e+00 7.870000e+01 8.100000e+00
      endloop
   endfacet
   facet normal 0.000000e+00 0.000000e+00 -1.000000e+00
      outer loop
         vertex 9.200000e+00 0.000000e+00 8.100000e+00
         vertex 8.200000e+00 7.870000e+01 8.100000e+00
         vertex 9.200000e+00 9.570000e+01 8.100000e+00
      endloop
   endfacet
   facet normal 0.000000e+00 0.000000e+00 -1.000000e+00
      outer loop
         vertex 9.200000e+00 9.570000e+01 8.100000e+00
         vertex 8.200000e+00 7.870000e+01 8.100000e+00
         vertex 7.753279e+00 8.051242e+01 8.100000e+00
      endloop
   endfacet
   facet normal 0.000000e+00 0.000000e+00 -1.000000e+00
      outer loop
         vertex 9.200000e+00 9.570000e+01 8.100000e+00
         vertex 7.753279e+00 8.051242e+01 8.100000e+00
         vertex 6.515453e+00 8.190964e+01 8.100000e+00
      endloop
   endfacet
   facet normal 0.000000e+00 -0.000000e+00 -1.000000e+00
      outer loop
         vertex 1.380808e+00 7.611382e+01 8.100000e+00
         vertex 2.917041e+00 7.505344e+01 8.100000e+00
         vertex 0.000000e+00 0.000000e+00 8.100000e+00
      endloop
   endfacet
   facet normal 0.000000e+00 0.000000e+00 -1.000000e+00
      outer loop
         vertex 0.000000e+00 0.000000e+00 8.100000e+00
         vertex 2.917041e+00 7.505344e+01 8.100000e+00
         vertex 4.300000e+00 7.480000e+01 8.100000e+00
      endloop
   endfacet
   facet normal 0.000000e+00 0.000000e+00 -1.000000e+00
      outer loop
         vertex 0.000000e+00 0.000000e+00 8.100000e+00
         vertex 4.300000e+00 7.480000e+01 8.100000e+00
         vertex 9.200000e+00 0.000000e+00 8.100000e+00
      endloop
   endfacet
   facet normal 0.000000e+00 0.000000e+00 -1.000000e+00
      outer loop
         vertex 9.200000e+00 0.000000e+00 8.100000e+00
         vertex 4.300000e+00 7.480000e+01 8.100000e+00
         vertex 4.770093e+00 7.482844e+01 8.100000e+00
      endloop
   endfacet
   facet normal 0.000000e+00 0.000000e+00 -1.000000e+00
      outer loop
         vertex 9.200000e+00 0.000000e+00 8.100000e+00
         vertex 4.770093e+00 7.482844e+01 8.100000e+00
         vertex 6.515453e+00 7.549036e+01 8.100000e+00
      endloop
   endfacet
   facet normal 0.000000e+00 1.000000e+00 0.000000e+00
      outer loop
         vertex 9.200000e+00 9.570000e+01 1.600000e+01
         vertex 9.200000e+00 9.570000e+01 8.100000e+00
         vertex 0.000000e+00 9.570000e+01 1.600000e+01
      endloop
   endfacet
   facet normal 0.000000e+00 1.000000e+00 0.000000e+00
      outer loop
         vertex 0.000000e+00 9.570000e+01 1.600000e+01
         vertex 9.200000e+00 9.570000e+01 8.100000e+00
         vertex 0.000000e+00 9.570000e+01 8.100000e+00
      endloop
   endfacet
   facet normal 1.000000e+00 0.000000e+00 0.000000e+00
      outer loop
         vertex 9.200000e+00 0.000000e+00 8.100000e+00
         vertex 9.200000e+00 9.570000e+01 8.100000e+00
         vertex 9.200000e+00 0.000000e+00 1.600000e+01
      endloop
   endfacet
   facet normal 1.000000e+00 -0.000000e+00 0.000000e+00
      outer loop
         vertex 9.200000e+00 0.000000e+00 1.600000e+01
         vertex 9.200000e+00 9.570000e+01 8.100000e+00
         vertex 9.200000e+00 9.570000e+01 1.600000e+01
      endloop
   endfacet
   facet normal -1.000000e+00 0.000000e+00 0.000000e+00
      outer loop
         vertex 0.000000e+00 9.570000e+01 8.100000e+00
         vertex 0.000000e+00 0.000000e+00 8.100000e+00
         vertex 0.000000e+00 9.570000e+01 1.600000e+01
      endloop
   endfacet
   facet normal -1.000000e+00 -0.000000e+00 0.000000e+00
      outer loop
         vertex 0.000000e+00 9.570000e+01 1.600000e+01
         vertex 0.000000e+00 0.000000e+00 8.100000e+00
         vertex 0.000000e+00 0.000000e+00 1.600000e+01
      endloop
   endfacet
   facet normal -0.000000e+00 0.000000e+00 -1.000000e+00
      outer loop
         vertex 8.200000e+00 7.870000e+01 0.000000e+00
         vertex 7.753279e+00 7.688758e+01 0.000000e+00
         vertex 4.300000e+00 7.870000e+01 0.000000e+00
      endloop
   endfacet
   facet normal 0.000000e+00 -0.000000e+00 -1.000000e+00
      outer loop
         vertex 4.770093e+00 8.257157e+01 0.000000e+00
         vertex 6.515453e+00 8.190964e+01 0.000000e+00
         vertex 4.300000e+00 7.870000e+01 0.000000e+00
      endloop
   endfacet
   facet normal 0.000000e+00 0.000000e+00 -1.000000e+00
      outer loop
         vertex 4.300000e+00 7.870000e+01 0.000000e+00
         vertex 6.515453e+00 8.190964e+01 0.000000e+00
         vertex 7.753279e+00 8.051242e+01 0.000000e+00
      endloop
   endfacet
   facet normal 0.000000e+00 0.000000e+00 -1.000000e+00
      outer loop
         vertex 4.300000e+00 7.870000e+01 0.000000e+00
         vertex 7.753279e+00 8.051242e+01 0.000000e+00
         vertex 8.200000e+00 7.870000e+01 0.000000e+00
      endloop
   endfacet
   facet normal 0.000000e+00 0.000000e+00 -1.000000e+00
      outer loop
         vertex 5.133269e-01 7.963333e+01 0.000000e+00
         vertex 1.380808e+00 8.128618e+01 0.000000e+00
         vertex 4.300000e+00 7.870000e+01 0.000000e+00
      endloop
   endfacet
   facet normal 0.000000e+00 0.000000e+00 -1.000000e+00
      outer loop
         vertex 4.300000e+00 7.870000e+01 0.000000e+00
         vertex 1.380808e+00 8.128618e+01 0.000000e+00
         vertex 2.917041e+00 8.234656e+01 0.000000e+00
      endloop
   endfacet
   facet normal 0.000000e+00 0.000000e+00 -1.000000e+00
      outer loop
         vertex 4.300000e+00 7.870000e+01 0.000000e+00
         vertex 2.917041e+00 8.234656e+01 0.000000e+00
         vertex 4.770093e+00 8.257157e+01 0.000000e+00
      endloop
   endfacet
   facet normal 0.000000e+00 0.000000e+00 -1.000000e+00
      outer loop
         vertex 2.917041e+00 7.505344e+01 0.000000e+00
         vertex 1.380808e+00 7.611382e+01 0.000000e+00
         vertex 4.300000e+00 7.870000e+01 0.000000e+00
      endloop
   endfacet
   facet normal 0.000000e+00 0.000000e+00 -1.000000e+00
      outer loop
         vertex 4.300000e+00 7.870000e+01 0.000000e+00
         vertex 1.380808e+00 7.611382e+01 0.000000e+00
         vertex 5.133269e-01 7.776667e+01 0.000000e+00
      endloop
   endfacet
   facet normal -0.000000e+00 0.000000e+00 -1.000000e+00
      outer loop
         vertex 4.300000e+00 7.870000e+01 0.000000e+00
         vertex 5.133269e-01 7.776667e+01 0.000000e+00
         vertex 5.133269e-01 7.963333e+01 0.000000e+00
      endloop
   endfacet
   facet normal -0.000000e+00 0.000000e+00 -1.000000e+00
      outer loop
         vertex 7.753279e+00 7.688758e+01 0.000000e+00
         vertex 6.515453e+00 7.549036e+01 0.000000e+00
         vertex 4.300000e+00 7.870000e+01 0.000000e+00
      endloop
   endfacet
   facet normal 0.000000e+00 0.000000e+00 -1.000000e+00
      outer loop
         vertex 4.300000e+00 7.870000e+01 0.000000e+00
         vertex 6.515453e+00 7.549036e+01 0.000000e+00
         vertex 4.770093e+00 7.482844e+01 0.000000e+00
      endloop
   endfacet
   facet normal 0.000000e+00 -0.000000e+00 -1.000000e+00
      outer loop
         vertex 4.300000e+00 7.870000e+01 0.000000e+00
         vertex 4.770093e+00 7.482844e+01 0.000000e+00
         vertex 2.917041e+00 7.505344e+01 0.000000e+00
      endloop
   endfacet
   facet normal -1.802553e-01 -9.836199e-01 0.000000e+00
      outer loop
         vertex 4.300000e+00 7.480000e+01 8.100000e+00
         vertex 2.917041e+00 7.505344e+01 8.100000e+00
         vertex 2.917041e+00 7.505344e+01 0.000000e+00
      endloop
   endfacet
   facet normal -5.680649e-01 -8.229838e-01 0.000000e+00
      outer loop
         vertex 2.917041e+00 7.505344e+01 0.000000e+00
         vertex 2.917041e+00 7.505344e+01 8.100000e+00
         vertex 1.380808e+00 7.611382e+01 8.100000e+00
      endloop
   endfacet
   facet normal -5.680649e-01 -8.229838e-01 0.000000e+00
      outer loop
         vertex 2.917041e+00 7.505344e+01 0.000000e+00
         vertex 1.380808e+00 7.611382e+01 8.100000e+00
         vertex 1.380808e+00 7.611382e+01 0.000000e+00
      endloop
   endfacet
   facet normal -8.854561e-01 -4.647230e-01 0.000000e+00
      outer loop
         vertex 1.380808e+00 7.611382e+01 0.000000e+00
         vertex 1.380808e+00 7.611382e+01 8.100000e+00
         vertex 5.133269e-01 7.776667e+01 8.100000e+00
      endloop
   endfacet
   facet normal -8.854561e-01 -4.647230e-01 0.000000e+00
      outer loop
         vertex 1.380808e+00 7.611382e+01 0.000000e+00
         vertex 5.133269e-01 7.776667e+01 8.100000e+00
         vertex 5.133269e-01 7.776667e+01 0.000000e+00
      endloop
   endfacet
   facet normal -1.000000e+00 0.000000e+00 0.000000e+00
      outer loop
         vertex 5.133269e-01 7.776667e+01 0.000000e+00
         vertex 5.133269e-01 7.776667e+01 8.100000e+00
         vertex 5.133269e-01 7.963333e+01 8.100000e+00
      endloop
   endfacet
   facet normal -1.000000e+00 0.000000e+00 0.000000e+00
      outer loop
         vertex 5.133269e-01 7.776667e+01 0.000000e+00
         vertex 5.133269e-01 7.963333e+01 8.100000e+00
         vertex 5.133269e-01 7.963333e+01 0.000000e+00
      endloop
   endfacet
   facet normal -8.854559e-01 4.647234e-01 0.000000e+00
      outer loop
         vertex 5.133269e-01 7.963333e+01 0.000000e+00
         vertex 5.133269e-01 7.963333e+01 8.100000e+00
         vertex 1.380808e+00 8.128618e+01 8.100000e+00
      endloop
   endfacet
   facet normal -8.854559e-01 4.647234e-01 0.000000e+00
      outer loop
         vertex 5.133269e-01 7.963333e+01 0.000000e+00
         vertex 1.380808e+00 8.128618e+01 8.100000e+00
         vertex 1.380808e+00 8.128618e+01 0.000000e+00
      endloop
   endfacet
   facet normal -5.680649e-01 8.229838e-01 0.000000e+00
      outer loop
         vertex 1.380808e+00 8.128618e+01 0.000000e+00
         vertex 1.380808e+00 8.128618e+01 8.100000e+00
         vertex 2.917041e+00 8.234656e+01 8.100000e+00
      endloop
   endfacet
   facet normal -5.680649e-01 8.229838e-01 0.000000e+00
      outer loop
         vertex 1.380808e+00 8.128618e+01 0.000000e+00
         vertex 2.917041e+00 8.234656e+01 8.100000e+00
         vertex 2.917041e+00 8.234656e+01 0.000000e+00
      endloop
   endfacet
   facet normal -1.205380e-01 9.927087e-01 0.000000e+00
      outer loop
         vertex 2.917041e+00 8.234656e+01 0.000000e+00
         vertex 2.917041e+00 8.234656e+01 8.100000e+00
         vertex 4.770093e+00 8.257157e+01 8.100000e+00
      endloop
   endfacet
   facet normal -1.205380e-01 9.927087e-01 0.000000e+00
      outer loop
         vertex 2.917041e+00 8.234656e+01 0.000000e+00
         vertex 4.770093e+00 8.257157e+01 8.100000e+00
         vertex 4.770093e+00 8.257157e+01 0.000000e+00
      endloop
   endfacet
   facet normal 3.546052e-01 9.350161e-01 -0.000000e+00
      outer loop
         vertex 4.770093e+00 8.257157e+01 0.000000e+00
         vertex 4.770093e+00 8.257157e+01 8.100000e+00
         vertex 6.515453e+00 8.190964e+01 8.100000e+00
      endloop
   endfacet
   facet normal 3.546052e-01 9.350161e-01 0.000000e+00
      outer loop
         vertex 4.770093e+00 8.257157e+01 0.000000e+00
         vertex 6.515453e+00 8.190964e+01 8.100000e+00
         vertex 6.515453e+00 8.190964e+01 0.000000e+00
      endloop
   endfacet
   facet normal 7.485112e-01 6.631222e-01 -0.000000e+00
      outer loop
         vertex 6.515453e+00 8.190964e+01 0.000000e+00
         vertex 6.515453e+00 8.190964e+01 8.100000e+00
         vertex 7.753279e+00 8.051242e+01 8.100000e+00
      endloop
   endfacet
   facet normal 7.485112e-01 6.631222e-01 0.000000e+00
      outer loop
         vertex 6.515453e+00 8.190964e+01 0.000000e+00
         vertex 7.753279e+00 8.051242e+01 8.100000e+00
         vertex 7.753279e+00 8.051242e+01 0.000000e+00
      endloop
   endfacet
   facet normal 9.709418e-01 2.393158e-01 -0.000000e+00
      outer loop
         vertex 7.753279e+00 8.051242e+01 0.000000e+00
         vertex 7.753279e+00 8.051242e+01 8.100000e+00
         vertex 8.200000e+00 7.870000e+01 8.100000e+00
      endloop
   endfacet
   facet normal 9.709418e-01 2.393158e-01 0.000000e+00
      outer loop
         vertex 7.753279e+00 8.051242e+01 0.000000e+00
         vertex 8.200000e+00 7.870000e+01 8.100000e+00
         vertex 8.200000e+00 7.870000e+01 0.000000e+00
      endloop
   endfacet
   facet normal 9.709418e-01 -2.393156e-01 0.000000e+00
      outer loop
         vertex 8.200000e+00 7.870000e+01 0.000000e+00
         vertex 8.200000e+00 7.870000e+01 8.100000e+00
         vertex 7.753279e+00 7.688758e+01 8.100000e+00
      endloop
   endfacet
   facet normal 9.709418e-01 -2.393156e-01 0.000000e+00
      outer loop
         vertex 8.200000e+00 7.870000e+01 0.000000e+00
         vertex 7.753279e+00 7.688758e+01 8.100000e+00
         vertex 7.753279e+00 7.688758e+01 0.000000e+00
      endloop
   endfacet
   facet normal 7.485108e-01 -6.631227e-01 0.000000e+00
      outer loop
         vertex 7.753279e+00 7.688758e+01 0.000000e+00
         vertex 7.753279e+00 7.688758e+01 8.100000e+00
         vertex 6.515453e+00 7.549036e+01 8.100000e+00
      endloop
   endfacet
   facet normal 7.485108e-01 -6.631227e-01 0.000000e+00
      outer loop
         vertex 7.753279e+00 7.688758e+01 0.000000e+00
         vertex 6.515453e+00 7.549036e+01 8.100000e+00
         vertex 6.515453e+00 7.549036e+01 0.000000e+00
      endloop
   endfacet
   facet normal 3.546043e-01 -9.350165e-01 0.000000e+00
      outer loop
         vertex 6.515453e+00 7.549036e+01 0.000000e+00
         vertex 6.515453e+00 7.549036e+01 8.100000e+00
         vertex 4.770093e+00 7.482844e+01 8.100000e+00
      endloop
   endfacet
   facet normal 3.546043e-01 -9.350165e-01 0.000000e+00
      outer loop
         vertex 6.515453e+00 7.549036e+01 0.000000e+00
         vertex 4.770093e+00 7.482844e+01 8.100000e+00
         vertex 4.770093e+00 7.482844e+01 0.000000e+00
      endloop
   endfacet
   facet normal 6.038192e-02 -9.981753e-01 0.000000e+00
      outer loop
         vertex 4.770093e+00 7.482844e+01 0.000000e+00
         vertex 4.770093e+00 7.482844e+01 8.100000e+00
         vertex 4.300000e+00 7.480000e+01 8.100000e+00
      endloop
   endfacet
   facet normal -1.205294e-01 -9.926544e-01 -1.048002e-02
      outer loop
         vertex 4.770093e+00 7.482844e+01 0.000000e+00
         vertex 4.300000e+00 7.480000e+01 8.100000e+00
         vertex 2.917041e+00 7.505344e+01 0.000000e+00
      endloop
   endfacet
endsolid