solid STL generated by MeshLab
  facet normal  9.659261e-01  2.588180e-01  0.000000e+00
    outer loop
      vertex   2.600000e+00  3.085000e+01  8.200001e+00
      vertex   2.211474e+00  3.230000e+01 -8.000000e+00
      vertex   2.211474e+00  3.230000e+01  8.200001e+00
    endloop
  endfacet
  facet normal  7.071055e-01  7.071080e-01  0.000000e+00
    outer loop
      vertex   2.211474e+00  3.230000e+01  8.200001e+00
      vertex   2.211474e+00  3.230000e+01 -8.000000e+00
      vertex   1.150000e+00  3.336147e+01 -8.000000e+00
    endloop
  endfacet
  facet normal  7.071055e-01  7.071080e-01  0.000000e+00
    outer loop
      vertex   2.211474e+00  3.230000e+01  8.200001e+00
      vertex   1.150000e+00  3.336147e+01 -8.000000e+00
      vertex   1.150000e+00  3.336147e+01  8.200001e+00
    endloop
  endfacet
  facet normal  2.588195e-01  9.659258e-01  0.000000e+00
    outer loop
      vertex   1.150000e+00  3.336147e+01  8.200001e+00
      vertex   1.150000e+00  3.336147e+01 -8.000000e+00
      vertex  -2.999997e-01  3.375000e+01 -8.000000e+00
    endloop
  endfacet
  facet normal  2.588195e-01  9.659258e-01  0.000000e+00
    outer loop
      vertex   1.150000e+00  3.336147e+01  8.200001e+00
      vertex  -2.999997e-01  3.375000e+01 -8.000000e+00
      vertex  -2.999997e-01  3.375000e+01  8.200001e+00
    endloop
  endfacet
  facet normal -2.588194e-01  9.659258e-01  0.000000e+00
    outer loop
      vertex  -2.999997e-01  3.375000e+01  8.200001e+00
      vertex  -2.999997e-01  3.375000e+01 -8.000000e+00
      vertex  -1.750000e+00  3.336147e+01 -8.000000e+00
    endloop
  endfacet
  facet normal -2.588194e-01  9.659258e-01  0.000000e+00
    outer loop
      vertex  -2.999997e-01  3.375000e+01  8.200001e+00
      vertex  -1.750000e+00  3.336147e+01 -8.000000e+00
      vertex  -1.750000e+00  3.336147e+01  8.200001e+00
    endloop
  endfacet
  facet normal -7.071055e-01  7.071080e-01  0.000000e+00
    outer loop
      vertex  -1.750000e+00  3.336147e+01  8.200001e+00
      vertex  -1.750000e+00  3.336147e+01 -8.000000e+00
      vertex  -2.811474e+00  3.230000e+01 -8.000000e+00
    endloop
  endfacet
  facet normal -7.071055e-01  7.071080e-01  0.000000e+00
    outer loop
      vertex  -1.750000e+00  3.336147e+01  8.200001e+00
      vertex  -2.811474e+00  3.230000e+01 -8.000000e+00
      vertex  -2.811474e+00  3.230000e+01  8.200001e+00
    endloop
  endfacet
  facet normal -9.659261e-01  2.588180e-01  0.000000e+00
    outer loop
      vertex  -2.811474e+00  3.230000e+01  8.200001e+00
      vertex  -2.811474e+00  3.230000e+01 -8.000000e+00
      vertex  -3.200000e+00  3.085000e+01 -8.000000e+00
    endloop
  endfacet
  facet normal -9.659261e-01  2.588180e-01  0.000000e+00
    outer loop
      vertex  -2.811474e+00  3.230000e+01  8.200001e+00
      vertex  -3.200000e+00  3.085000e+01 -8.000000e+00
      vertex  -3.200000e+00  3.085000e+01  8.200001e+00
    endloop
  endfacet
  facet normal -9.659258e-01 -2.588193e-01 -0.000000e+00
    outer loop
      vertex  -3.200000e+00  3.085000e+01  8.200001e+00
      vertex  -3.200000e+00  3.085000e+01 -8.000000e+00
      vertex  -2.811474e+00  2.940000e+01 -8.000000e+00
    endloop
  endfacet
  facet normal -9.659258e-01 -2.588193e-01  0.000000e+00
    outer loop
      vertex  -3.200000e+00  3.085000e+01  8.200001e+00
      vertex  -2.811474e+00  2.940000e+01 -8.000000e+00
      vertex  -2.811474e+00  2.940000e+01  8.200001e+00
    endloop
  endfacet
  facet normal -7.071055e-01 -7.071080e-01 -0.000000e+00
    outer loop
      vertex  -2.811474e+00  2.940000e+01  8.200001e+00
      vertex  -2.811474e+00  2.940000e+01 -8.000000e+00
      vertex  -1.750000e+00  2.833853e+01 -8.000000e+00
    endloop
  endfacet
  facet normal -7.071055e-01 -7.071080e-01  0.000000e+00
    outer loop
      vertex  -2.811474e+00  2.940000e+01  8.200001e+00
      vertex  -1.750000e+00  2.833853e+01 -8.000000e+00
      vertex  -1.750000e+00  2.833853e+01  8.200001e+00
    endloop
  endfacet
  facet normal -2.588194e-01 -9.659258e-01 -0.000000e+00
    outer loop
      vertex  -1.750000e+00  2.833853e+01  8.200001e+00
      vertex  -1.750000e+00  2.833853e+01 -8.000000e+00
      vertex  -2.999997e-01  2.795000e+01 -8.000000e+00
    endloop
  endfacet
  facet normal -2.588194e-01 -9.659258e-01  0.000000e+00
    outer loop
      vertex  -1.750000e+00  2.833853e+01  8.200001e+00
      vertex  -2.999997e-01  2.795000e+01 -8.000000e+00
      vertex  -2.999997e-01  2.795000e+01  8.200001e+00
    endloop
  endfacet
  facet normal  2.588195e-01 -9.659258e-01  0.000000e+00
    outer loop
      vertex  -2.999997e-01  2.795000e+01  8.200001e+00
      vertex  -2.999997e-01  2.795000e+01 -8.000000e+00
      vertex   1.150000e+00  2.833853e+01 -8.000000e+00
    endloop
  endfacet
  facet normal  2.588195e-01 -9.659258e-01  0.000000e+00
    outer loop
      vertex  -2.999997e-01  2.795000e+01  8.200001e+00
      vertex   1.150000e+00  2.833853e+01 -8.000000e+00
      vertex   1.150000e+00  2.833853e+01  8.200001e+00
    endloop
  endfacet
  facet normal  7.071055e-01 -7.071080e-01  0.000000e+00
    outer loop
      vertex   1.150000e+00  2.833853e+01  8.200001e+00
      vertex   1.150000e+00  2.833853e+01 -8.000000e+00
      vertex   2.211474e+00  2.940000e+01 -8.000000e+00
    endloop
  endfacet
  facet normal  7.071055e-01 -7.071080e-01  0.000000e+00
    outer loop
      vertex   1.150000e+00  2.833853e+01  8.200001e+00
      vertex   2.211474e+00  2.940000e+01 -8.000000e+00
      vertex   2.211474e+00  2.940000e+01  8.200001e+00
    endloop
  endfacet
  facet normal  9.659258e-01 -2.588193e-01  0.000000e+00
    outer loop
      vertex   2.211474e+00  2.940000e+01  8.200001e+00
      vertex   2.211474e+00  2.940000e+01 -8.000000e+00
      vertex   2.600000e+00  3.085000e+01 -8.000000e+00
    endloop
  endfacet
  facet normal  9.659258e-01 -2.588193e-01  0.000000e+00
    outer loop
      vertex   2.211474e+00  2.940000e+01  8.200001e+00
      vertex   2.600000e+00  3.085000e+01 -8.000000e+00
      vertex   2.600000e+00  3.085000e+01  8.200001e+00
    endloop
  endfacet
  facet normal  9.659261e-01  2.588180e-01  0.000000e+00
    outer loop
      vertex   2.600000e+00  3.085000e+01  8.200001e+00
      vertex   2.600000e+00  3.085000e+01 -8.000000e+00
      vertex   2.211474e+00  3.230000e+01 -8.000000e+00
    endloop
  endfacet
  facet normal  0.000000e+00  1.000000e+00  0.000000e+00
    outer loop
      vertex   4.600000e+00  4.785000e+01  1.610000e+01
      vertex   4.600000e+00  4.785000e+01  8.200001e+00
      vertex  -4.600000e+00  4.785000e+01  1.610000e+01
    endloop
  endfacet
  facet normal  0.000000e+00  1.000000e+00  0.000000e+00
    outer loop
      vertex  -4.600000e+00  4.785000e+01  1.610000e+01
      vertex   4.600000e+00  4.785000e+01  8.200001e+00
      vertex  -4.600000e+00  4.785000e+01  8.200001e+00
    endloop
  endfacet
  facet normal  0.000000e+00  0.000000e+00  1.000000e+00
    outer loop
      vertex   4.600000e+00 -4.785000e+01  1.610000e+01
      vertex   1.150000e+00  2.833853e+01  1.610000e+01
      vertex  -4.600000e+00 -4.785000e+01  1.610000e+01
    endloop
  endfacet
  facet normal  0.000000e+00  0.000000e+00  1.000000e+00
    outer loop
      vertex  -4.600000e+00 -4.785000e+01  1.610000e+01
      vertex   1.150000e+00  2.833853e+01  1.610000e+01
      vertex  -2.999997e-01  2.795000e+01  1.610000e+01
    endloop
  endfacet
  facet normal  0.000000e+00  0.000000e+00  1.000000e+00
    outer loop
      vertex  -4.600000e+00 -4.785000e+01  1.610000e+01
      vertex  -2.999997e-01  2.795000e+01  1.610000e+01
      vertex  -1.750000e+00  2.833853e+01  1.610000e+01
    endloop
  endfacet
  facet normal  0.000000e+00  0.000000e+00  1.000000e+00
    outer loop
      vertex  -1.750000e+00  2.833853e+01  1.610000e+01
      vertex  -2.811474e+00  2.940000e+01  1.610000e+01
      vertex  -4.600000e+00 -4.785000e+01  1.610000e+01
    endloop
  endfacet
  facet normal  0.000000e+00  0.000000e+00  1.000000e+00
    outer loop
      vertex  -4.600000e+00 -4.785000e+01  1.610000e+01
      vertex  -2.811474e+00  2.940000e+01  1.610000e+01
      vertex  -3.200000e+00  3.085000e+01  1.610000e+01
    endloop
  endfacet
  facet normal  0.000000e+00  0.000000e+00  1.000000e+00
    outer loop
      vertex  -4.600000e+00 -4.785000e+01  1.610000e+01
      vertex  -3.200000e+00  3.085000e+01  1.610000e+01
      vertex  -4.600000e+00  4.785000e+01  1.610000e+01
    endloop
  endfacet
  facet normal  0.000000e+00  0.000000e+00  1.000000e+00
    outer loop
      vertex  -4.600000e+00  4.785000e+01  1.610000e+01
      vertex  -3.200000e+00  3.085000e+01  1.610000e+01
      vertex  -2.811474e+00  3.230000e+01  1.610000e+01
    endloop
  endfacet
  facet normal  0.000000e+00 -0.000000e+00  1.000000e+00
    outer loop
      vertex   1.150000e+00  3.336147e+01  1.610000e+01
      vertex   4.600000e+00  4.785000e+01  1.610000e+01
      vertex  -2.999997e-01  3.375000e+01  1.610000e+01
    endloop
  endfacet
  facet normal  0.000000e+00 -0.000000e+00  1.000000e+00
    outer loop
      vertex  -2.999997e-01  3.375000e+01  1.610000e+01
      vertex   4.600000e+00  4.785000e+01  1.610000e+01
      vertex  -4.600000e+00  4.785000e+01  1.610000e+01
    endloop
  endfacet
  facet normal  0.000000e+00  0.000000e+00  1.000000e+00
    outer loop
      vertex  -2.999997e-01  3.375000e+01  1.610000e+01
      vertex  -4.600000e+00  4.785000e+01  1.610000e+01
      vertex  -1.750000e+00  3.336147e+01  1.610000e+01
    endloop
  endfacet
  facet normal  0.000000e+00  0.000000e+00  1.000000e+00
    outer loop
      vertex  -1.750000e+00  3.336147e+01  1.610000e+01
      vertex  -4.600000e+00  4.785000e+01  1.610000e+01
      vertex  -2.811474e+00  3.230000e+01  1.610000e+01
    endloop
  endfacet
  facet normal -0.000000e+00  0.000000e+00  1.000000e+00
    outer loop
      vertex   1.150000e+00  3.336147e+01  1.610000e+01
      vertex   2.211474e+00  3.230000e+01  1.610000e+01
      vertex   4.600000e+00  4.785000e+01  1.610000e+01
    endloop
  endfacet
  facet normal  0.000000e+00  0.000000e+00  1.000000e+00
    outer loop
      vertex   4.600000e+00  4.785000e+01  1.610000e+01
      vertex   2.211474e+00  3.230000e+01  1.610000e+01
      vertex   2.600000e+00  3.085000e+01  1.610000e+01
    endloop
  endfacet
  facet normal  0.000000e+00  0.000000e+00  1.000000e+00
    outer loop
      vertex   4.600000e+00  4.785000e+01  1.610000e+01
      vertex   2.600000e+00  3.085000e+01  1.610000e+01
      vertex   4.600000e+00 -4.785000e+01  1.610000e+01
    endloop
  endfacet
  facet normal  0.000000e+00  0.000000e+00  1.000000e+00
    outer loop
      vertex   4.600000e+00 -4.785000e+01  1.610000e+01
      vertex   2.600000e+00  3.085000e+01  1.610000e+01
      vertex   2.211474e+00  2.940000e+01  1.610000e+01
    endloop
  endfacet
  facet normal  0.000000e+00  0.000000e+00  1.000000e+00
    outer loop
      vertex   4.600000e+00 -4.785000e+01  1.610000e+01
      vertex   2.211474e+00  2.940000e+01  1.610000e+01
      vertex   1.150000e+00  2.833853e+01  1.610000e+01
    endloop
  endfacet
  facet normal  0.000000e+00 -1.000000e+00  0.000000e+00
    outer loop
      vertex   4.600000e+00 -4.785000e+01  8.200001e+00
      vertex   4.600000e+00 -4.785000e+01  1.610000e+01
      vertex  -4.600000e+00 -4.785000e+01  8.200001e+00
    endloop
  endfacet
  facet normal  0.000000e+00 -1.000000e+00  0.000000e+00
    outer loop
      vertex  -4.600000e+00 -4.785000e+01  8.200001e+00
      vertex   4.600000e+00 -4.785000e+01  1.610000e+01
      vertex  -4.600000e+00 -4.785000e+01  1.610000e+01
    endloop
  endfacet
  facet normal  0.000000e+00 -0.000000e+00 -1.000000e+00
    outer loop
      vertex  -1.750000e+00  2.833853e+01  8.200001e+00
      vertex  -2.999997e-01  2.795000e+01  8.200001e+00
      vertex  -4.600000e+00 -4.785000e+01  8.200001e+00
    endloop
  endfacet
  facet normal  0.000000e+00 -0.000000e+00 -1.000000e+00
    outer loop
      vertex   4.600000e+00  4.785000e+01  8.200001e+00
      vertex   4.600000e+00 -4.785000e+01  8.200001e+00
      vertex   2.600000e+00  3.085000e+01  8.200001e+00
    endloop
  endfacet
  facet normal  0.000000e+00 -0.000000e+00 -1.000000e+00
    outer loop
      vertex   2.600000e+00  3.085000e+01  8.200001e+00
      vertex   4.600000e+00 -4.785000e+01  8.200001e+00
      vertex   2.211474e+00  2.940000e+01  8.200001e+00
    endloop
  endfacet
  facet normal  0.000000e+00  0.000000e+00 -1.000000e+00
    outer loop
      vertex   2.600000e+00  3.085000e+01  8.200001e+00
      vertex   2.211474e+00  3.230000e+01  8.200001e+00
      vertex   4.600000e+00  4.785000e+01  8.200001e+00
    endloop
  endfacet
  facet normal  0.000000e+00  0.000000e+00 -1.000000e+00
    outer loop
      vertex   4.600000e+00  4.785000e+01  8.200001e+00
      vertex   2.211474e+00  3.230000e+01  8.200001e+00
      vertex   1.150000e+00  3.336147e+01  8.200001e+00
    endloop
  endfacet
  facet normal -0.000000e+00  0.000000e+00 -1.000000e+00
    outer loop
      vertex   4.600000e+00  4.785000e+01  8.200001e+00
      vertex   1.150000e+00  3.336147e+01  8.200001e+00
      vertex  -4.600000e+00  4.785000e+01  8.200001e+00
    endloop
  endfacet
  facet normal  0.000000e+00  0.000000e+00 -1.000000e+00
    outer loop
      vertex  -4.600000e+00  4.785000e+01  8.200001e+00
      vertex   1.150000e+00  3.336147e+01  8.200001e+00
      vertex  -2.999997e-01  3.375000e+01  8.200001e+00
    endloop
  endfacet
  facet normal  0.000000e+00  0.000000e+00 -1.000000e+00
    outer loop
      vertex  -4.600000e+00  4.785000e+01  8.200001e+00
      vertex  -2.999997e-01  3.375000e+01  8.200001e+00
      vertex  -1.750000e+00  3.336147e+01  8.200001e+00
    endloop
  endfacet
  facet normal  0.000000e+00  0.000000e+00 -1.000000e+00
    outer loop
      vertex  -4.600000e+00 -4.785000e+01  8.200001e+00
      vertex  -2.999997e-01  2.795000e+01  8.200001e+00
      vertex   4.600000e+00 -4.785000e+01  8.200001e+00
    endloop
  endfacet
  facet normal  0.000000e+00  0.000000e+00 -1.000000e+00
    outer loop
      vertex   4.600000e+00 -4.785000e+01  8.200001e+00
      vertex  -2.999997e-01  2.795000e+01  8.200001e+00
      vertex   1.150000e+00  2.833853e+01  8.200001e+00
    endloop
  endfacet
  facet normal  0.000000e+00  0.000000e+00 -1.000000e+00
    outer loop
      vertex   4.600000e+00 -4.785000e+01  8.200001e+00
      vertex   1.150000e+00  2.833853e+01  8.200001e+00
      vertex   2.211474e+00  2.940000e+01  8.200001e+00
    endloop
  endfacet
  facet normal -0.000000e+00  0.000000e+00 -1.000000e+00
    outer loop
      vertex  -1.750000e+00  3.336147e+01  8.200001e+00
      vertex  -2.811474e+00  3.230000e+01  8.200001e+00
      vertex  -4.600000e+00  4.785000e+01  8.200001e+00
    endloop
  endfacet
  facet normal  0.000000e+00  0.000000e+00 -1.000000e+00
    outer loop
      vertex  -4.600000e+00  4.785000e+01  8.200001e+00
      vertex  -2.811474e+00  3.230000e+01  8.200001e+00
      vertex  -3.200000e+00  3.085000e+01  8.200001e+00
    endloop
  endfacet
  facet normal  0.000000e+00  0.000000e+00 -1.000000e+00
    outer loop
      vertex  -4.600000e+00  4.785000e+01  8.200001e+00
      vertex  -3.200000e+00  3.085000e+01  8.200001e+00
      vertex  -4.600000e+00 -4.785000e+01  8.200001e+00
    endloop
  endfacet
  facet normal  0.000000e+00  0.000000e+00 -1.000000e+00
    outer loop
      vertex  -4.600000e+00 -4.785000e+01  8.200001e+00
      vertex  -3.200000e+00  3.085000e+01  8.200001e+00
      vertex  -2.811474e+00  2.940000e+01  8.200001e+00
    endloop
  endfacet
  facet normal  0.000000e+00  0.000000e+00 -1.000000e+00
    outer loop
      vertex  -4.600000e+00 -4.785000e+01  8.200001e+00
      vertex  -2.811474e+00  2.940000e+01  8.200001e+00
      vertex  -1.750000e+00  2.833853e+01  8.200001e+00
    endloop
  endfacet
  facet normal  1.000000e+00 -0.000000e+00  0.000000e+00
    outer loop
      vertex   4.600000e+00 -4.785000e+01  1.610000e+01
      vertex   4.600000e+00 -4.785000e+01  8.200001e+00
      vertex   4.600000e+00  4.785000e+01  1.610000e+01
    endloop
  endfacet
  facet normal  1.000000e+00  0.000000e+00  0.000000e+00
    outer loop
      vertex   4.600000e+00  4.785000e+01  1.610000e+01
      vertex   4.600000e+00 -4.785000e+01  8.200001e+00
      vertex   4.600000e+00  4.785000e+01  8.200001e+00
    endloop
  endfacet
  facet normal -1.000000e+00  0.000000e+00  0.000000e+00
    outer loop
      vertex  -4.600000e+00 -4.785000e+01  8.200001e+00
      vertex  -4.600000e+00 -4.785000e+01  1.610000e+01
      vertex  -4.600000e+00  4.785000e+01  8.200001e+00
    endloop
  endfacet
  facet normal -1.000000e+00  0.000000e+00  0.000000e+00
    outer loop
      vertex  -4.600000e+00  4.785000e+01  8.200001e+00
      vertex  -4.600000e+00 -4.785000e+01  1.610000e+01
      vertex  -4.600000e+00  4.785000e+01  1.610000e+01
    endloop
  endfacet
  facet normal  9.659261e-01  2.588181e-01  0.000000e+00
    outer loop
      vertex   2.600000e+00  3.085000e+01  2.400000e+01
      vertex   2.211474e+00  3.230000e+01  1.610000e+01
      vertex   2.211474e+00  3.230000e+01  2.400000e+01
    endloop
  endfacet
  facet normal  7.071055e-01  7.071080e-01  0.000000e+00
    outer loop
      vertex   2.211474e+00  3.230000e+01  2.400000e+01
      vertex   2.211474e+00  3.230000e+01  1.610000e+01
      vertex   1.150000e+00  3.336147e+01  1.610000e+01
    endloop
  endfacet
  facet normal  7.071055e-01  7.071080e-01  0.000000e+00
    outer loop
      vertex   2.211474e+00  3.230000e+01  2.400000e+01
      vertex   1.150000e+00  3.336147e+01  1.610000e+01
      vertex   1.150000e+00  3.336147e+01  2.400000e+01
    endloop
  endfacet
  facet normal  2.588194e-01  9.659258e-01  0.000000e+00
    outer loop
      vertex   1.150000e+00  3.336147e+01  2.400000e+01
      vertex   1.150000e+00  3.336147e+01  1.610000e+01
      vertex  -2.999997e-01  3.375000e+01  1.610000e+01
    endloop
  endfacet
  facet normal  2.588194e-01  9.659258e-01  0.000000e+00
    outer loop
      vertex   1.150000e+00  3.336147e+01  2.400000e+01
      vertex  -2.999997e-01  3.375000e+01  1.610000e+01
      vertex  -2.999997e-01  3.375000e+01  2.400000e+01
    endloop
  endfacet
  facet normal -2.588193e-01  9.659258e-01  0.000000e+00
    outer loop
      vertex  -2.999997e-01  3.375000e+01  2.400000e+01
      vertex  -2.999997e-01  3.375000e+01  1.610000e+01
      vertex  -1.750000e+00  3.336147e+01  1.610000e+01
    endloop
  endfacet
  facet normal -2.588193e-01  9.659258e-01  0.000000e+00
    outer loop
      vertex  -2.999997e-01  3.375000e+01  2.400000e+01
      vertex  -1.750000e+00  3.336147e+01  1.610000e+01
      vertex  -1.750000e+00  3.336147e+01  2.400000e+01
    endloop
  endfacet
  facet normal -7.071055e-01  7.071080e-01  0.000000e+00
    outer loop
      vertex  -1.750000e+00  3.336147e+01  2.400000e+01
      vertex  -1.750000e+00  3.336147e+01  1.610000e+01
      vertex  -2.811474e+00  3.230000e+01  1.610000e+01
    endloop
  endfacet
  facet normal -7.071055e-01  7.071080e-01  0.000000e+00
    outer loop
      vertex  -1.750000e+00  3.336147e+01  2.400000e+01
      vertex  -2.811474e+00  3.230000e+01  1.610000e+01
      vertex  -2.811474e+00  3.230000e+01  2.400000e+01
    endloop
  endfacet
  facet normal -9.659261e-01  2.588181e-01  0.000000e+00
    outer loop
      vertex  -2.811474e+00  3.230000e+01  2.400000e+01
      vertex  -2.811474e+00  3.230000e+01  1.610000e+01
      vertex  -3.200000e+00  3.085000e+01  1.610000e+01
    endloop
  endfacet
  facet normal -9.659261e-01  2.588181e-01  0.000000e+00
    outer loop
      vertex  -2.811474e+00  3.230000e+01  2.400000e+01
      vertex  -3.200000e+00  3.085000e+01  1.610000e+01
      vertex  -3.200000e+00  3.085000e+01  2.400000e+01
    endloop
  endfacet
  facet normal -9.659258e-01 -2.588193e-01 -0.000000e+00
    outer loop
      vertex  -3.200000e+00  3.085000e+01  2.400000e+01
      vertex  -3.200000e+00  3.085000e+01  1.610000e+01
      vertex  -2.811474e+00  2.940000e+01  1.610000e+01
    endloop
  endfacet
  facet normal -9.659258e-01 -2.588193e-01  0.000000e+00
    outer loop
      vertex  -3.200000e+00  3.085000e+01  2.400000e+01
      vertex  -2.811474e+00  2.940000e+01  1.610000e+01
      vertex  -2.811474e+00  2.940000e+01  2.400000e+01
    endloop
  endfacet
  facet normal -7.071055e-01 -7.071080e-01 -0.000000e+00
    outer loop
      vertex  -2.811474e+00  2.940000e+01  2.400000e+01
      vertex  -2.811474e+00  2.940000e+01  1.610000e+01
      vertex  -1.750000e+00  2.833853e+01  1.610000e+01
    endloop
  endfacet
  facet normal -7.071055e-01 -7.071080e-01  0.000000e+00
    outer loop
      vertex  -2.811474e+00  2.940000e+01  2.400000e+01
      vertex  -1.750000e+00  2.833853e+01  1.610000e+01
      vertex  -1.750000e+00  2.833853e+01  2.400000e+01
    endloop
  endfacet
  facet normal -2.588193e-01 -9.659258e-01 -0.000000e+00
    outer loop
      vertex  -1.750000e+00  2.833853e+01  2.400000e+01
      vertex  -1.750000e+00  2.833853e+01  1.610000e+01
      vertex  -2.999997e-01  2.795000e+01  1.610000e+01
    endloop
  endfacet
  facet normal -2.588193e-01 -9.659258e-01  0.000000e+00
    outer loop
      vertex  -1.750000e+00  2.833853e+01  2.400000e+01
      vertex  -2.999997e-01  2.795000e+01  1.610000e+01
      vertex  -2.999997e-01  2.795000e+01  2.400000e+01
    endloop
  endfacet
  facet normal  2.588194e-01 -9.659258e-01  0.000000e+00
    outer loop
      vertex  -2.999997e-01  2.795000e+01  2.400000e+01
      vertex  -2.999997e-01  2.795000e+01  1.610000e+01
      vertex   1.150000e+00  2.833853e+01  1.610000e+01
    endloop
  endfacet
  facet normal  2.588194e-01 -9.659258e-01  0.000000e+00
    outer loop
      vertex  -2.999997e-01  2.795000e+01  2.400000e+01
      vertex   1.150000e+00  2.833853e+01  1.610000e+01
      vertex   1.150000e+00  2.833853e+01  2.400000e+01
    endloop
  endfacet
  facet normal  7.071055e-01 -7.071080e-01  0.000000e+00
    outer loop
      vertex   1.150000e+00  2.833853e+01  2.400000e+01
      vertex   1.150000e+00  2.833853e+01  1.610000e+01
      vertex   2.211474e+00  2.940000e+01  1.610000e+01
    endloop
  endfacet
  facet normal  7.071055e-01 -7.071080e-01  0.000000e+00
    outer loop
      vertex   1.150000e+00  2.833853e+01  2.400000e+01
      vertex   2.211474e+00  2.940000e+01  1.610000e+01
      vertex   2.211474e+00  2.940000e+01  2.400000e+01
    endloop
  endfacet
  facet normal  9.659258e-01 -2.588193e-01  0.000000e+00
    outer loop
      vertex   2.211474e+00  2.940000e+01  2.400000e+01
      vertex   2.211474e+00  2.940000e+01  1.610000e+01
      vertex   2.600000e+00  3.085000e+01  1.610000e+01
    endloop
  endfacet
  facet normal  9.659258e-01 -2.588193e-01  0.000000e+00
    outer loop
      vertex   2.211474e+00  2.940000e+01  2.400000e+01
      vertex   2.600000e+00  3.085000e+01  1.610000e+01
      vertex   2.600000e+00  3.085000e+01  2.400000e+01
    endloop
  endfacet
  facet normal  9.659261e-01  2.588181e-01  0.000000e+00
    outer loop
      vertex   2.600000e+00  3.085000e+01  2.400000e+01
      vertex   2.600000e+00  3.085000e+01  1.610000e+01
      vertex   2.211474e+00  3.230000e+01  1.610000e+01
    endloop
  endfacet
  facet normal  0.000000e+00 -0.000000e+00  1.000000e+00
    outer loop
      vertex   1.150000e+00  2.833853e+01  2.400000e+01
      vertex   2.211474e+00  2.940000e+01  2.400000e+01
      vertex  -2.999997e-01  3.085000e+01  2.400000e+01
    endloop
  endfacet
  facet normal -0.000000e+00  0.000000e+00  1.000000e+00
    outer loop
      vertex  -2.999997e-01  3.085000e+01  2.400000e+01
      vertex   2.211474e+00  2.940000e+01  2.400000e+01
      vertex   2.600000e+00  3.085000e+01  2.400000e+01
    endloop
  endfacet
  facet normal  0.000000e+00  0.000000e+00  1.000000e+00
    outer loop
      vertex  -2.999997e-01  3.085000e+01  2.400000e+01
      vertex   2.600000e+00  3.085000e+01  2.400000e+01
      vertex   2.211474e+00  3.230000e+01  2.400000e+01
    endloop
  endfacet
  facet normal -0.000000e+00  0.000000e+00  1.000000e+00
    outer loop
      vertex  -2.811474e+00  2.940000e+01  2.400000e+01
      vertex  -1.750000e+00  2.833853e+01  2.400000e+01
      vertex  -2.999997e-01  3.085000e+01  2.400000e+01
    endloop
  endfacet
  facet normal  0.000000e+00  0.000000e+00  1.000000e+00
    outer loop
      vertex  -2.999997e-01  3.085000e+01  2.400000e+01
      vertex  -1.750000e+00  2.833853e+01  2.400000e+01
      vertex  -2.999997e-01  2.795000e+01  2.400000e+01
    endloop
  endfacet
  facet normal  0.000000e+00  0.000000e+00  1.000000e+00
    outer loop
      vertex  -2.999997e-01  3.085000e+01  2.400000e+01
      vertex  -2.999997e-01  2.795000e+01  2.400000e+01
      vertex   1.150000e+00  2.833853e+01  2.400000e+01
    endloop
  endfacet
  facet normal  0.000000e+00  0.000000e+00  1.000000e+00
    outer loop
      vertex  -1.750000e+00  3.336147e+01  2.400000e+01
      vertex  -2.811474e+00  3.230000e+01  2.400000e+01
      vertex  -2.999997e-01  3.085000e+01  2.400000e+01
    endloop
  endfacet
  facet normal  0.000000e+00  0.000000e+00  1.000000e+00
    outer loop
      vertex  -2.999997e-01  3.085000e+01  2.400000e+01
      vertex  -2.811474e+00  3.230000e+01  2.400000e+01
      vertex  -3.200000e+00  3.085000e+01  2.400000e+01
    endloop
  endfacet
  facet normal  0.000000e+00  0.000000e+00  1.000000e+00
    outer loop
      vertex  -2.999997e-01  3.085000e+01  2.400000e+01
      vertex  -3.200000e+00  3.085000e+01  2.400000e+01
      vertex  -2.811474e+00  2.940000e+01  2.400000e+01
    endloop
  endfacet
  facet normal  0.000000e+00  0.000000e+00  1.000000e+00
    outer loop
      vertex   2.211474e+00  3.230000e+01  2.400000e+01
      vertex   1.150000e+00  3.336147e+01  2.400000e+01
      vertex  -2.999997e-01  3.085000e+01  2.400000e+01
    endloop
  endfacet
  facet normal  0.000000e+00  0.000000e+00  1.000000e+00
    outer loop
      vertex  -2.999997e-01  3.085000e+01  2.400000e+01
      vertex   1.150000e+00  3.336147e+01  2.400000e+01
      vertex  -2.999997e-01  3.375000e+01  2.400000e+01
    endloop
  endfacet
  facet normal  0.000000e+00 -0.000000e+00  1.000000e+00
    outer loop
      vertex  -2.999997e-01  3.085000e+01  2.400000e+01
      vertex  -2.999997e-01  3.375000e+01  2.400000e+01
      vertex  -1.750000e+00  3.336147e+01  2.400000e+01
    endloop
  endfacet
  facet normal  0.000000e+00  0.000000e+00  1.000000e+00
    outer loop
      vertex   4.600000e+00 -4.785000e+01 -8.000000e+00
      vertex   1.150000e+00  2.833853e+01 -8.000000e+00
      vertex  -4.600000e+00 -4.785000e+01 -8.000000e+00
    endloop
  endfacet
  facet normal  0.000000e+00  0.000000e+00  1.000000e+00
    outer loop
      vertex  -4.600000e+00 -4.785000e+01 -8.000000e+00
      vertex   1.150000e+00  2.833853e+01 -8.000000e+00
      vertex  -2.999997e-01  2.795000e+01 -8.000000e+00
    endloop
  endfacet
  facet normal  0.000000e+00  0.000000e+00  1.000000e+00
    outer loop
      vertex  -4.600000e+00 -4.785000e+01 -8.000000e+00
      vertex  -2.999997e-01  2.795000e+01 -8.000000e+00
      vertex  -1.750000e+00  2.833853e+01 -8.000000e+00
    endloop
  endfacet
  facet normal  0.000000e+00  0.000000e+00  1.000000e+00
    outer loop
      vertex  -1.750000e+00  2.833853e+01 -8.000000e+00
      vertex  -2.811474e+00  2.940000e+01 -8.000000e+00
      vertex  -4.600000e+00 -4.785000e+01 -8.000000e+00
    endloop
  endfacet
  facet normal  0.000000e+00  0.000000e+00  1.000000e+00
    outer loop
      vertex  -4.600000e+00 -4.785000e+01 -8.000000e+00
      vertex  -2.811474e+00  2.940000e+01 -8.000000e+00
      vertex  -3.200000e+00  3.085000e+01 -8.000000e+00
    endloop
  endfacet
  facet normal  0.000000e+00  0.000000e+00  1.000000e+00
    outer loop
      vertex  -4.600000e+00 -4.785000e+01 -8.000000e+00
      vertex  -3.200000e+00  3.085000e+01 -8.000000e+00
      vertex  -4.600000e+00  4.785000e+01 -8.000000e+00
    endloop
  endfacet
  facet normal  0.000000e+00  0.000000e+00  1.000000e+00
    outer loop
      vertex  -4.600000e+00  4.785000e+01 -8.000000e+00
      vertex  -3.200000e+00  3.085000e+01 -8.000000e+00
      vertex  -2.811474e+00  3.230000e+01 -8.000000e+00
    endloop
  endfacet
  facet normal  0.000000e+00 -0.000000e+00  1.000000e+00
    outer loop
      vertex   1.150000e+00  3.336147e+01 -8.000000e+00
      vertex   4.600000e+00  4.785000e+01 -8.000000e+00
      vertex  -2.999997e-01  3.375000e+01 -8.000000e+00
    endloop
  endfacet
  facet normal  0.000000e+00 -0.000000e+00  1.000000e+00
    outer loop
      vertex  -2.999997e-01  3.375000e+01 -8.000000e+00
      vertex   4.600000e+00  4.785000e+01 -8.000000e+00
      vertex  -4.600000e+00  4.785000e+01 -8.000000e+00
    endloop
  endfacet
  facet normal  0.000000e+00  0.000000e+00  1.000000e+00
    outer loop
      vertex  -2.999997e-01  3.375000e+01 -8.000000e+00
      vertex  -4.600000e+00  4.785000e+01 -8.000000e+00
      vertex  -1.750000e+00  3.336147e+01 -8.000000e+00
    endloop
  endfacet
  facet normal  0.000000e+00  0.000000e+00  1.000000e+00
    outer loop
      vertex  -1.750000e+00  3.336147e+01 -8.000000e+00
      vertex  -4.600000e+00  4.785000e+01 -8.000000e+00
      vertex  -2.811474e+00  3.230000e+01 -8.000000e+00
    endloop
  endfacet
  facet normal -0.000000e+00  0.000000e+00  1.000000e+00
    outer loop
      vertex   1.150000e+00  3.336147e+01 -8.000000e+00
      vertex   2.211474e+00  3.230000e+01 -8.000000e+00
      vertex   4.600000e+00  4.785000e+01 -8.000000e+00
    endloop
  endfacet
  facet normal  0.000000e+00  0.000000e+00  1.000000e+00
    outer loop
      vertex   4.600000e+00  4.785000e+01 -8.000000e+00
      vertex   2.211474e+00  3.230000e+01 -8.000000e+00
      vertex   2.600000e+00  3.085000e+01 -8.000000e+00
    endloop
  endfacet
  facet normal  0.000000e+00  0.000000e+00  1.000000e+00
    outer loop
      vertex   4.600000e+00  4.785000e+01 -8.000000e+00
      vertex   2.600000e+00  3.085000e+01 -8.000000e+00
      vertex   4.600000e+00 -4.785000e+01 -8.000000e+00
    endloop
  endfacet
  facet normal  0.000000e+00  0.000000e+00  1.000000e+00
    outer loop
      vertex   4.600000e+00 -4.785000e+01 -8.000000e+00
      vertex   2.600000e+00  3.085000e+01 -8.000000e+00
      vertex   2.211474e+00  2.940000e+01 -8.000000e+00
    endloop
  endfacet
  facet normal  0.000000e+00  0.000000e+00  1.000000e+00
    outer loop
      vertex   4.600000e+00 -4.785000e+01 -8.000000e+00
      vertex   2.211474e+00  2.940000e+01 -8.000000e+00
      vertex   1.150000e+00  2.833853e+01 -8.000000e+00
    endloop
  endfacet
  facet normal  0.000000e+00 -1.000000e+00  0.000000e+00
    outer loop
      vertex   4.600000e+00 -4.785000e+01 -1.590000e+01
      vertex   4.600000e+00 -4.785000e+01 -8.000000e+00
      vertex  -4.600000e+00 -4.785000e+01 -1.590000e+01
    endloop
  endfacet
  facet normal  0.000000e+00 -1.000000e+00  0.000000e+00
    outer loop
      vertex  -4.600000e+00 -4.785000e+01 -1.590000e+01
      vertex   4.600000e+00 -4.785000e+01 -8.000000e+00
      vertex  -4.600000e+00 -4.785000e+01 -8.000000e+00
    endloop
  endfacet
  facet normal  0.000000e+00 -0.000000e+00 -1.000000e+00
    outer loop
      vertex  -1.750000e+00  2.833853e+01 -1.590000e+01
      vertex  -2.999997e-01  2.795000e+01 -1.590000e+01
      vertex  -4.600000e+00 -4.785000e+01 -1.590000e+01
    endloop
  endfacet
  facet normal  0.000000e+00 -0.000000e+00 -1.000000e+00
    outer loop
      vertex   4.600000e+00  4.785000e+01 -1.590000e+01
      vertex   4.600000e+00 -4.785000e+01 -1.590000e+01
      vertex   2.600000e+00  3.085000e+01 -1.590000e+01
    endloop
  endfacet
  facet normal  0.000000e+00 -0.000000e+00 -1.000000e+00
    outer loop
      vertex   2.600000e+00  3.085000e+01 -1.590000e+01
      vertex   4.600000e+00 -4.785000e+01 -1.590000e+01
      vertex   2.211474e+00  2.940000e+01 -1.590000e+01
    endloop
  endfacet
  facet normal  0.000000e+00  0.000000e+00 -1.000000e+00
    outer loop
      vertex   2.600000e+00  3.085000e+01 -1.590000e+01
      vertex   2.211474e+00  3.230000e+01 -1.590000e+01
      vertex   4.600000e+00  4.785000e+01 -1.590000e+01
    endloop
  endfacet
  facet normal  0.000000e+00  0.000000e+00 -1.000000e+00
    outer loop
      vertex   4.600000e+00  4.785000e+01 -1.590000e+01
      vertex   2.211474e+00  3.230000e+01 -1.590000e+01
      vertex   1.150000e+00  3.336147e+01 -1.590000e+01
    endloop
  endfacet
  facet normal -0.000000e+00  0.000000e+00 -1.000000e+00
    outer loop
      vertex   4.600000e+00  4.785000e+01 -1.590000e+01
      vertex   1.150000e+00  3.336147e+01 -1.590000e+01
      vertex  -4.600000e+00  4.785000e+01 -1.590000e+01
    endloop
  endfacet
  facet normal  0.000000e+00  0.000000e+00 -1.000000e+00
    outer loop
      vertex  -4.600000e+00  4.785000e+01 -1.590000e+01
      vertex   1.150000e+00  3.336147e+01 -1.590000e+01
      vertex  -2.999997e-01  3.375000e+01 -1.590000e+01
    endloop
  endfacet
  facet normal  0.000000e+00  0.000000e+00 -1.000000e+00
    outer loop
      vertex  -4.600000e+00  4.785000e+01 -1.590000e+01
      vertex  -2.999997e-01  3.375000e+01 -1.590000e+01
      vertex  -1.750000e+00  3.336147e+01 -1.590000e+01
    endloop
  endfacet
  facet normal  0.000000e+00  0.000000e+00 -1.000000e+00
    outer loop
      vertex  -4.600000e+00 -4.785000e+01 -1.590000e+01
      vertex  -2.999997e-01  2.795000e+01 -1.590000e+01
      vertex   4.600000e+00 -4.785000e+01 -1.590000e+01
    endloop
  endfacet
  facet normal  0.000000e+00  0.000000e+00 -1.000000e+00
    outer loop
      vertex   4.600000e+00 -4.785000e+01 -1.590000e+01
      vertex  -2.999997e-01  2.795000e+01 -1.590000e+01
      vertex   1.150000e+00  2.833853e+01 -1.590000e+01
    endloop
  endfacet
  facet normal  0.000000e+00  0.000000e+00 -1.000000e+00
    outer loop
      vertex   4.600000e+00 -4.785000e+01 -1.590000e+01
      vertex   1.150000e+00  2.833853e+01 -1.590000e+01
      vertex   2.211474e+00  2.940000e+01 -1.590000e+01
    endloop
  endfacet
  facet normal -0.000000e+00  0.000000e+00 -1.000000e+00
    outer loop
      vertex  -1.750000e+00  3.336147e+01 -1.590000e+01
      vertex  -2.811474e+00  3.230000e+01 -1.590000e+01
      vertex  -4.600000e+00  4.785000e+01 -1.590000e+01
    endloop
  endfacet
  facet normal  0.000000e+00  0.000000e+00 -1.000000e+00
    outer loop
      vertex  -4.600000e+00  4.785000e+01 -1.590000e+01
      vertex  -2.811474e+00  3.230000e+01 -1.590000e+01
      vertex  -3.200000e+00  3.085000e+01 -1.590000e+01
    endloop
  endfacet
  facet normal  0.000000e+00  0.000000e+00 -1.000000e+00
    outer loop
      vertex  -4.600000e+00  4.785000e+01 -1.590000e+01
      vertex  -3.200000e+00  3.085000e+01 -1.590000e+01
      vertex  -4.600000e+00 -4.785000e+01 -1.590000e+01
    endloop
  endfacet
  facet normal  0.000000e+00  0.000000e+00 -1.000000e+00
    outer loop
      vertex  -4.600000e+00 -4.785000e+01 -1.590000e+01
      vertex  -3.200000e+00  3.085000e+01 -1.590000e+01
      vertex  -2.811474e+00  2.940000e+01 -1.590000e+01
    endloop
  endfacet
  facet normal  0.000000e+00  0.000000e+00 -1.000000e+00
    outer loop
      vertex  -4.600000e+00 -4.785000e+01 -1.590000e+01
      vertex  -2.811474e+00  2.940000e+01 -1.590000e+01
      vertex  -1.750000e+00  2.833853e+01 -1.590000e+01
    endloop
  endfacet
  facet normal  0.000000e+00  1.000000e+00  0.000000e+00
    outer loop
      vertex   4.600000e+00  4.785000e+01 -8.000000e+00
      vertex   4.600000e+00  4.785000e+01 -1.590000e+01
      vertex  -4.600000e+00  4.785000e+01 -8.000000e+00
    endloop
  endfacet
  facet normal  0.000000e+00  1.000000e+00  0.000000e+00
    outer loop
      vertex  -4.600000e+00  4.785000e+01 -8.000000e+00
      vertex   4.600000e+00  4.785000e+01 -1.590000e+01
      vertex  -4.600000e+00  4.785000e+01 -1.590000e+01
    endloop
  endfacet
  facet normal  1.000000e+00  0.000000e+00  0.000000e+00
    outer loop
      vertex   4.600000e+00 -4.785000e+01 -1.590000e+01
      vertex   4.600000e+00  4.785000e+01 -1.590000e+01
      vertex   4.600000e+00 -4.785000e+01 -8.000000e+00
    endloop
  endfacet
  facet normal  1.000000e+00 -0.000000e+00  0.000000e+00
    outer loop
      vertex   4.600000e+00 -4.785000e+01 -8.000000e+00
      vertex   4.600000e+00  4.785000e+01 -1.590000e+01
      vertex   4.600000e+00  4.785000e+01 -8.000000e+00
    endloop
  endfacet
  facet normal -1.000000e+00  0.000000e+00  0.000000e+00
    outer loop
      vertex  -4.600000e+00  4.785000e+01 -1.590000e+01
      vertex  -4.600000e+00 -4.785000e+01 -1.590000e+01
      vertex  -4.600000e+00  4.785000e+01 -8.000000e+00
    endloop
  endfacet
  facet normal -1.000000e+00 -0.000000e+00  0.000000e+00
    outer loop
      vertex  -4.600000e+00  4.785000e+01 -8.000000e+00
      vertex  -4.600000e+00 -4.785000e+01 -1.590000e+01
      vertex  -4.600000e+00 -4.785000e+01 -8.000000e+00
    endloop
  endfacet
  facet normal  0.000000e+00 -0.000000e+00 -1.000000e+00
    outer loop
      vertex   1.150000e+00  3.336147e+01 -2.400000e+01
      vertex   2.211474e+00  3.230000e+01 -2.400000e+01
      vertex  -2.999997e-01  3.085000e+01 -2.400000e+01
    endloop
  endfacet
  facet normal  0.000000e+00  0.000000e+00 -1.000000e+00
    outer loop
      vertex  -2.999997e-01  3.085000e+01 -2.400000e+01
      vertex   2.211474e+00  3.230000e+01 -2.400000e+01
      vertex   2.600000e+00  3.085000e+01 -2.400000e+01
    endloop
  endfacet
  facet normal  0.000000e+00  0.000000e+00 -1.000000e+00
    outer loop
      vertex  -2.999997e-01  3.085000e+01 -2.400000e+01
      vertex   2.600000e+00  3.085000e+01 -2.400000e+01
      vertex   2.211474e+00  2.940000e+01 -2.400000e+01
    endloop
  endfacet
  facet normal  0.000000e+00  0.000000e+00 -1.000000e+00
    outer loop
      vertex  -2.811474e+00  3.230000e+01 -2.400000e+01
      vertex  -1.750000e+00  3.336147e+01 -2.400000e+01
      vertex  -2.999997e-01  3.085000e+01 -2.400000e+01
    endloop
  endfacet
  facet normal  0.000000e+00  0.000000e+00 -1.000000e+00
    outer loop
      vertex  -2.999997e-01  3.085000e+01 -2.400000e+01
      vertex  -1.750000e+00  3.336147e+01 -2.400000e+01
      vertex  -2.999997e-01  3.375000e+01 -2.400000e+01
    endloop
  endfacet
  facet normal  0.000000e+00  0.000000e+00 -1.000000e+00
    outer loop
      vertex  -2.999997e-01  3.085000e+01 -2.400000e+01
      vertex  -2.999997e-01  3.375000e+01 -2.400000e+01
      vertex   1.150000e+00  3.336147e+01 -2.400000e+01
    endloop
  endfacet
  facet normal  0.000000e+00  0.000000e+00 -1.000000e+00
    outer loop
      vertex  -1.750000e+00  2.833853e+01 -2.400000e+01
      vertex  -2.811474e+00  2.940000e+01 -2.400000e+01
      vertex  -2.999997e-01  3.085000e+01 -2.400000e+01
    endloop
  endfacet
  facet normal -0.000000e+00  0.000000e+00 -1.000000e+00
    outer loop
      vertex  -2.999997e-01  3.085000e+01 -2.400000e+01
      vertex  -2.811474e+00  2.940000e+01 -2.400000e+01
      vertex  -3.200000e+00  3.085000e+01 -2.400000e+01
    endloop
  endfacet
  facet normal  0.000000e+00  0.000000e+00 -1.000000e+00
    outer loop
      vertex  -2.999997e-01  3.085000e+01 -2.400000e+01
      vertex  -3.200000e+00  3.085000e+01 -2.400000e+01
      vertex  -2.811474e+00  3.230000e+01 -2.400000e+01
    endloop
  endfacet
  facet normal -0.000000e+00  0.000000e+00 -1.000000e+00
    outer loop
      vertex   2.211474e+00  2.940000e+01 -2.400000e+01
      vertex   1.150000e+00  2.833853e+01 -2.400000e+01
      vertex  -2.999997e-01  3.085000e+01 -2.400000e+01
    endloop
  endfacet
  facet normal  0.000000e+00  0.000000e+00 -1.000000e+00
    outer loop
      vertex  -2.999997e-01  3.085000e+01 -2.400000e+01
      vertex   1.150000e+00  2.833853e+01 -2.400000e+01
      vertex  -2.999997e-01  2.795000e+01 -2.400000e+01
    endloop
  endfacet
  facet normal  0.000000e+00 -0.000000e+00 -1.000000e+00
    outer loop
      vertex  -2.999997e-01  3.085000e+01 -2.400000e+01
      vertex  -2.999997e-01  2.795000e+01 -2.400000e+01
      vertex  -1.750000e+00  2.833853e+01 -2.400000e+01
    endloop
  endfacet
  facet normal  9.659261e-01  2.588180e-01  0.000000e+00
    outer loop
      vertex   2.600000e+00  3.085000e+01 -1.590000e+01
      vertex   2.211474e+00  3.230000e+01 -2.400000e+01
      vertex   2.211474e+00  3.230000e+01 -1.590000e+01
    endloop
  endfacet
  facet normal  7.071055e-01  7.071080e-01  0.000000e+00
    outer loop
      vertex   2.211474e+00  3.230000e+01 -1.590000e+01
      vertex   2.211474e+00  3.230000e+01 -2.400000e+01
      vertex   1.150000e+00  3.336147e+01 -2.400000e+01
    endloop
  endfacet
  facet normal  7.071055e-01  7.071080e-01  0.000000e+00
    outer loop
      vertex   2.211474e+00  3.230000e+01 -1.590000e+01
      vertex   1.150000e+00  3.336147e+01 -2.400000e+01
      vertex   1.150000e+00  3.336147e+01 -1.590000e+01
    endloop
  endfacet
  facet normal  2.588195e-01  9.659258e-01  0.000000e+00
    outer loop
      vertex   1.150000e+00  3.336147e+01 -1.590000e+01
      vertex   1.150000e+00  3.336147e+01 -2.400000e+01
      vertex  -2.999997e-01  3.375000e+01 -2.400000e+01
    endloop
  endfacet
  facet normal  2.588195e-01  9.659258e-01  0.000000e+00
    outer loop
      vertex   1.150000e+00  3.336147e+01 -1.590000e+01
      vertex  -2.999997e-01  3.375000e+01 -2.400000e+01
      vertex  -2.999997e-01  3.375000e+01 -1.590000e+01
    endloop
  endfacet
  facet normal -2.588194e-01  9.659258e-01  0.000000e+00
    outer loop
      vertex  -2.999997e-01  3.375000e+01 -1.590000e+01
      vertex  -2.999997e-01  3.375000e+01 -2.400000e+01
      vertex  -1.750000e+00  3.336147e+01 -2.400000e+01
    endloop
  endfacet
  facet normal -2.588194e-01  9.659258e-01  0.000000e+00
    outer loop
      vertex  -2.999997e-01  3.375000e+01 -1.590000e+01
      vertex  -1.750000e+00  3.336147e+01 -2.400000e+01
      vertex  -1.750000e+00  3.336147e+01 -1.590000e+01
    endloop
  endfacet
  facet normal -7.071055e-01  7.071080e-01  0.000000e+00
    outer loop
      vertex  -1.750000e+00  3.336147e+01 -1.590000e+01
      vertex  -1.750000e+00  3.336147e+01 -2.400000e+01
      vertex  -2.811474e+00  3.230000e+01 -2.400000e+01
    endloop
  endfacet
  facet normal -7.071055e-01  7.071080e-01  0.000000e+00
    outer loop
      vertex  -1.750000e+00  3.336147e+01 -1.590000e+01
      vertex  -2.811474e+00  3.230000e+01 -2.400000e+01
      vertex  -2.811474e+00  3.230000e+01 -1.590000e+01
    endloop
  endfacet
  facet normal -9.659261e-01  2.588180e-01  0.000000e+00
    outer loop
      vertex  -2.811474e+00  3.230000e+01 -1.590000e+01
      vertex  -2.811474e+00  3.230000e+01 -2.400000e+01
      vertex  -3.200000e+00  3.085000e+01 -2.400000e+01
    endloop
  endfacet
  facet normal -9.659261e-01  2.588180e-01  0.000000e+00
    outer loop
      vertex  -2.811474e+00  3.230000e+01 -1.590000e+01
      vertex  -3.200000e+00  3.085000e+01 -2.400000e+01
      vertex  -3.200000e+00  3.085000e+01 -1.590000e+01
    endloop
  endfacet
  facet normal -9.659258e-01 -2.588193e-01 -0.000000e+00
    outer loop
      vertex  -3.200000e+00  3.085000e+01 -1.590000e+01
      vertex  -3.200000e+00  3.085000e+01 -2.400000e+01
      vertex  -2.811474e+00  2.940000e+01 -2.400000e+01
    endloop
  endfacet
  facet normal -9.659258e-01 -2.588193e-01  0.000000e+00
    outer loop
      vertex  -3.200000e+00  3.085000e+01 -1.590000e+01
      vertex  -2.811474e+00  2.940000e+01 -2.400000e+01
      vertex  -2.811474e+00  2.940000e+01 -1.590000e+01
    endloop
  endfacet
  facet normal -7.071055e-01 -7.071080e-01 -0.000000e+00
    outer loop
      vertex  -2.811474e+00  2.940000e+01 -1.590000e+01
      vertex  -2.811474e+00  2.940000e+01 -2.400000e+01
      vertex  -1.750000e+00  2.833853e+01 -2.400000e+01
    endloop
  endfacet
  facet normal -7.071055e-01 -7.071080e-01  0.000000e+00
    outer loop
      vertex  -2.811474e+00  2.940000e+01 -1.590000e+01
      vertex  -1.750000e+00  2.833853e+01 -2.400000e+01
      vertex  -1.750000e+00  2.833853e+01 -1.590000e+01
    endloop
  endfacet
  facet normal -2.588194e-01 -9.659258e-01 -0.000000e+00
    outer loop
      vertex  -1.750000e+00  2.833853e+01 -1.590000e+01
      vertex  -1.750000e+00  2.833853e+01 -2.400000e+01
      vertex  -2.999997e-01  2.795000e+01 -2.400000e+01
    endloop
  endfacet
  facet normal -2.588194e-01 -9.659258e-01  0.000000e+00
    outer loop
      vertex  -1.750000e+00  2.833853e+01 -1.590000e+01
      vertex  -2.999997e-01  2.795000e+01 -2.400000e+01
      vertex  -2.999997e-01  2.795000e+01 -1.590000e+01
    endloop
  endfacet
  facet normal  2.588195e-01 -9.659258e-01  0.000000e+00
    outer loop
      vertex  -2.999997e-01  2.795000e+01 -1.590000e+01
      vertex  -2.999997e-01  2.795000e+01 -2.400000e+01
      vertex   1.150000e+00  2.833853e+01 -2.400000e+01
    endloop
  endfacet
  facet normal  2.588195e-01 -9.659258e-01  0.000000e+00
    outer loop
      vertex  -2.999997e-01  2.795000e+01 -1.590000e+01
      vertex   1.150000e+00  2.833853e+01 -2.400000e+01
      vertex   1.150000e+00  2.833853e+01 -1.590000e+01
    endloop
  endfacet
  facet normal  7.071055e-01 -7.071080e-01  0.000000e+00
    outer loop
      vertex   1.150000e+00  2.833853e+01 -1.590000e+01
      vertex   1.150000e+00  2.833853e+01 -2.400000e+01
      vertex   2.211474e+00  2.940000e+01 -2.400000e+01
    endloop
  endfacet
  facet normal  7.071055e-01 -7.071080e-01  0.000000e+00
    outer loop
      vertex   1.150000e+00  2.833853e+01 -1.590000e+01
      vertex   2.211474e+00  2.940000e+01 -2.400000e+01
      vertex   2.211474e+00  2.940000e+01 -1.590000e+01
    endloop
  endfacet
  facet normal  9.659258e-01 -2.588193e-01  0.000000e+00
    outer loop
      vertex   2.211474e+00  2.940000e+01 -1.590000e+01
      vertex   2.211474e+00  2.940000e+01 -2.400000e+01
      vertex   2.600000e+00  3.085000e+01 -2.400000e+01
    endloop
  endfacet
  facet normal  9.659258e-01 -2.588193e-01  0.000000e+00
    outer loop
      vertex   2.211474e+00  2.940000e+01 -1.590000e+01
      vertex   2.600000e+00  3.085000e+01 -2.400000e+01
      vertex   2.600000e+00  3.085000e+01 -1.590000e+01
    endloop
  endfacet
  facet normal  9.659261e-01  2.588180e-01  0.000000e+00
    outer loop
      vertex   2.600000e+00  3.085000e+01 -1.590000e+01
      vertex   2.600000e+00  3.085000e+01 -2.400000e+01
      vertex   2.211474e+00  3.230000e+01 -2.400000e+01
    endloop
  endfacet
endsolid vcg
