solid lego_support
   facet normal 9.659258e-01 2.588190e-01 0.000000e+00
      outer loop
         vertex 7.200000e+00 7.870000e+01 3.220000e+01
         vertex 6.811474e+00 8.015000e+01 1.600000e+01
         vertex 6.811474e+00 8.015000e+01 3.220000e+01
      endloop
   endfacet
   facet normal 7.071066e-01 7.071069e-01 0.000000e+00
      outer loop
         vertex 6.811474e+00 8.015000e+01 3.220000e+01
         vertex 6.811474e+00 8.015000e+01 1.600000e+01
         vertex 5.750000e+00 8.121147e+01 1.600000e+01
      endloop
   endfacet
   facet normal 7.071066e-01 7.071069e-01 0.000000e+00
      outer loop
         vertex 6.811474e+00 8.015000e+01 3.220000e+01
         vertex 5.750000e+00 8.121147e+01 1.600000e+01
         vertex 5.750000e+00 8.121147e+01 3.220000e+01
      endloop
   endfacet
   facet normal 2.588185e-01 9.659260e-01 0.000000e+00
      outer loop
         vertex 5.750000e+00 8.121147e+01 3.220000e+01
         vertex 5.750000e+00 8.121147e+01 1.600000e+01
         vertex 4.300000e+00 8.160000e+01 1.600000e+01
      endloop
   endfacet
   facet normal 2.588185e-01 9.659260e-01 0.000000e+00
      outer loop
         vertex 5.750000e+00 8.121147e+01 3.220000e+01
         vertex 4.300000e+00 8.160000e+01 1.600000e+01
         vertex 4.300000e+00 8.160000e+01 3.220000e+01
      endloop
   endfacet
   facet normal -2.588185e-01 9.659260e-01 0.000000e+00
      outer loop
         vertex 4.300000e+00 8.160000e+01 3.220000e+01
         vertex 4.300000e+00 8.160000e+01 1.600000e+01
         vertex 2.850000e+00 8.121147e+01 1.600000e+01
      endloop
   endfacet
   facet normal -2.588185e-01 9.659260e-01 0.000000e+00
      outer loop
         vertex 4.300000e+00 8.160000e+01 3.220000e+01
         vertex 2.850000e+00 8.121147e+01 1.600000e+01
         vertex 2.850000e+00 8.121147e+01 3.220000e+01
      endloop
   endfacet
   facet normal -7.071065e-01 7.071070e-01 0.000000e+00
      outer loop
         vertex 2.850000e+00 8.121147e+01 3.220000e+01
         vertex 2.850000e+00 8.121147e+01 1.600000e+01
         vertex 1.788526e+00 8.015000e+01 1.600000e+01
      endloop
   endfacet
   facet normal -7.071065e-01 7.071070e-01 0.000000e+00
      outer loop
         vertex 2.850000e+00 8.121147e+01 3.220000e+01
         vertex 1.788526e+00 8.015000e+01 1.600000e+01
         vertex 1.788526e+00 8.015000e+01 3.220000e+01
      endloop
   endfacet
   facet normal -9.659258e-01 2.588190e-01 0.000000e+00
      outer loop
         vertex 1.788526e+00 8.015000e+01 3.220000e+01
         vertex 1.788526e+00 8.015000e+01 1.600000e+01
         vertex 1.400000e+00 7.870000e+01 1.600000e+01
      endloop
   endfacet
   facet normal -9.659258e-01 2.588190e-01 0.000000e+00
      outer loop
         vertex 1.788526e+00 8.015000e+01 3.220000e+01
         vertex 1.400000e+00 7.870000e+01 1.600000e+01
         vertex 1.400000e+00 7.870000e+01 3.220000e+01
      endloop
   endfacet
   facet normal -9.659258e-01 -2.588190e-01 -0.000000e+00
      outer loop
         vertex 1.400000e+00 7.870000e+01 3.220000e+01
         vertex 1.400000e+00 7.870000e+01 1.600000e+01
         vertex 1.788526e+00 7.725000e+01 1.600000e+01
      endloop
   endfacet
   facet normal -9.659258e-01 -2.588190e-01 0.000000e+00
      outer loop
         vertex 1.400000e+00 7.870000e+01 3.220000e+01
         vertex 1.788526e+00 7.725000e+01 1.600000e+01
         vertex 1.788526e+00 7.725000e+01 3.220000e+01
      endloop
   endfacet
   facet normal -7.071065e-01 -7.071070e-01 -0.000000e+00
      outer loop
         vertex 1.788526e+00 7.725000e+01 3.220000e+01
         vertex 1.788526e+00 7.725000e+01 1.600000e+01
         vertex 2.850000e+00 7.618853e+01 1.600000e+01
      endloop
   endfacet
   facet normal -7.071065e-01 -7.071070e-01 0.000000e+00
      outer loop
         vertex 1.788526e+00 7.725000e+01 3.220000e+01
         vertex 2.850000e+00 7.618853e+01 1.600000e+01
         vertex 2.850000e+00 7.618853e+01 3.220000e+01
      endloop
   endfacet
   facet normal -2.588196e-01 -9.659257e-01 -0.000000e+00
      outer loop
         vertex 2.850000e+00 7.618853e+01 3.220000e+01
         vertex 2.850000e+00 7.618853e+01 1.600000e+01
         vertex 4.300000e+00 7.580000e+01 1.600000e+01
      endloop
   endfacet
   facet normal -2.588196e-01 -9.659257e-01 0.000000e+00
      outer loop
         vertex 2.850000e+00 7.618853e+01 3.220000e+01
         vertex 4.300000e+00 7.580000e+01 1.600000e+01
         vertex 4.300000e+00 7.580000e+01 3.220000e+01
      endloop
   endfacet
   facet normal 2.588197e-01 -9.659257e-01 0.000000e+00
      outer loop
         vertex 4.300000e+00 7.580000e+01 3.220000e+01
         vertex 4.300000e+00 7.580000e+01 1.600000e+01
         vertex 5.750000e+00 7.618853e+01 1.600000e+01
      endloop
   endfacet
   facet normal 2.588197e-01 -9.659257e-01 0.000000e+00
      outer loop
         vertex 4.300000e+00 7.580000e+01 3.220000e+01
         vertex 5.750000e+00 7.618853e+01 1.600000e+01
         vertex 5.750000e+00 7.618853e+01 3.220000e+01
      endloop
   endfacet
   facet normal 7.071066e-01 -7.071069e-01 0.000000e+00
      outer loop
         vertex 5.750000e+00 7.618853e+01 3.220000e+01
         vertex 5.750000e+00 7.618853e+01 1.600000e+01
         vertex 6.811474e+00 7.725000e+01 1.600000e+01
      endloop
   endfacet
   facet normal 7.071066e-01 -7.071069e-01 0.000000e+00
      outer loop
         vertex 5.750000e+00 7.618853e+01 3.220000e+01
         vertex 6.811474e+00 7.725000e+01 1.600000e+01
         vertex 6.811474e+00 7.725000e+01 3.220000e+01
      endloop
   endfacet
   facet normal 9.659258e-01 -2.588190e-01 0.000000e+00
      outer loop
         vertex 6.811474e+00 7.725000e+01 3.220000e+01
         vertex 6.811474e+00 7.725000e+01 1.600000e+01
         vertex 7.200000e+00 7.870000e+01 1.600000e+01
      endloop
   endfacet
   facet normal 9.659258e-01 -2.588190e-01 0.000000e+00
      outer loop
         vertex 6.811474e+00 7.725000e+01 3.220000e+01
         vertex 7.200000e+00 7.870000e+01 1.600000e+01
         vertex 7.200000e+00 7.870000e+01 3.220000e+01
      endloop
   endfacet
   facet normal 9.659258e-01 2.588190e-01 0.000000e+00
      outer loop
         vertex 7.200000e+00 7.870000e+01 3.220000e+01
         vertex 7.200000e+00 7.870000e+01 1.600000e+01
         vertex 6.811474e+00 8.015000e+01 1.600000e+01
      endloop
   endfacet
   facet normal 0.000000e+00 1.000000e+00 0.000000e+00
      outer loop
         vertex 9.200000e+00 9.570000e+01 4.010000e+01
         vertex 9.200000e+00 9.570000e+01 3.220000e+01
         vertex 0.000000e+00 9.570000e+01 4.010000e+01
      endloop
   endfacet
   facet normal 0.000000e+00 1.000000e+00 0.000000e+00
      outer loop
         vertex 0.000000e+00 9.570000e+01 4.010000e+01
         vertex 9.200000e+00 9.570000e+01 3.220000e+01
         vertex 0.000000e+00 9.570000e+01 3.220000e+01
      endloop
   endfacet
   facet normal 0.000000e+00 0.000000e+00 1.000000e+00
      outer loop
         vertex 9.200000e+00 0.000000e+00 4.010000e+01
         vertex 5.750000e+00 7.618853e+01 4.010000e+01
         vertex 0.000000e+00 0.000000e+00 4.010000e+01
      endloop
   endfacet
   facet normal 0.000000e+00 0.000000e+00 1.000000e+00
      outer loop
         vertex 0.000000e+00 0.000000e+00 4.010000e+01
         vertex 5.750000e+00 7.618853e+01 4.010000e+01
         vertex 4.300000e+00 7.580000e+01 4.010000e+01
      endloop
   endfacet
   facet normal 0.000000e+00 0.000000e+00 1.000000e+00
      outer loop
         vertex 0.000000e+00 0.000000e+00 4.010000e+01
         vertex 4.300000e+00 7.580000e+01 4.010000e+01
         vertex 2.850000e+00 7.618853e+01 4.010000e+01
      endloop
   endfacet
   facet normal 0.000000e+00 0.000000e+00 1.000000e+00
      outer loop
         vertex 2.850000e+00 7.618853e+01 4.010000e+01
         vertex 1.788526e+00 7.725000e+01 4.010000e+01
         vertex 0.000000e+00 0.000000e+00 4.010000e+01
      endloop
   endfacet
   facet normal 0.000000e+00 0.000000e+00 1.000000e+00
      outer loop
         vertex 0.000000e+00 0.000000e+00 4.010000e+01
         vertex 1.788526e+00 7.725000e+01 4.010000e+01
         vertex 1.400000e+00 7.870000e+01 4.010000e+01
      endloop
   endfacet
   facet normal 0.000000e+00 0.000000e+00 1.000000e+00
      outer loop
         vertex 0.000000e+00 0.000000e+00 4.010000e+01
         vertex 1.400000e+00 7.870000e+01 4.010000e+01
         vertex 0.000000e+00 9.570000e+01 4.010000e+01
      endloop
   endfacet
   facet normal 0.000000e+00 0.000000e+00 1.000000e+00
      outer loop
         vertex 0.000000e+00 9.570000e+01 4.010000e+01
         vertex 1.400000e+00 7.870000e+01 4.010000e+01
         vertex 1.788526e+00 8.015000e+01 4.010000e+01
      endloop
   endfacet
   facet normal 0.000000e+00 -0.000000e+00 1.000000e+00
      outer loop
         vertex 5.750000e+00 8.121147e+01 4.010000e+01
         vertex 9.200000e+00 9.570000e+01 4.010000e+01
         vertex 4.300000e+00 8.160000e+01 4.010000e+01
      endloop
   endfacet
   facet normal 0.000000e+00 -0.000000e+00 1.000000e+00
      outer loop
         vertex 4.300000e+00 8.160000e+01 4.010000e+01
         vertex 9.200000e+00 9.570000e+01 4.010000e+01
         vertex 0.000000e+00 9.570000e+01 4.010000e+01
      endloop
   endfacet
   facet normal 0.000000e+00 0.000000e+00 1.000000e+00
      outer loop
         vertex 4.300000e+00 8.160000e+01 4.010000e+01
         vertex 0.000000e+00 9.570000e+01 4.010000e+01
         vertex 2.850000e+00 8.121147e+01 4.010000e+01
      endloop
   endfacet
   facet normal 0.000000e+00 0.000000e+00 1.000000e+00
      outer loop
         vertex 2.850000e+00 8.121147e+01 4.010000e+01
         vertex 0.000000e+00 9.570000e+01 4.010000e+01
         vertex 1.788526e+00 8.015000e+01 4.010000e+01
      endloop
   endfacet
   facet normal -0.000000e+00 0.000000e+00 1.000000e+00
      outer loop
         vertex 5.750000e+00 8.121147e+01 4.010000e+01
         vertex 6.811474e+00 8.015000e+01 4.010000e+01
         vertex 9.200000e+00 9.570000e+01 4.010000e+01
      endloop
   endfacet
   facet normal 0.000000e+00 0.000000e+00 1.000000e+00
      outer loop
         vertex 9.200000e+00 9.570000e+01 4.010000e+01
         vertex 6.811474e+00 8.015000e+01 4.010000e+01
         vertex 7.200000e+00 7.870000e+01 4.010000e+01
      endloop
   endfacet
   facet normal 0.000000e+00 0.000000e+00 1.000000e+00
      outer loop
         vertex 9.200000e+00 9.570000e+01 4.010000e+01
         vertex 7.200000e+00 7.870000e+01 4.010000e+01
         vertex 9.200000e+00 0.000000e+00 4.010000e+01
      endloop
   endfacet
   facet normal 0.000000e+00 0.000000e+00 1.000000e+00
      outer loop
         vertex 9.200000e+00 0.000000e+00 4.010000e+01
         vertex 7.200000e+00 7.870000e+01 4.010000e+01
         vertex 6.811474e+00 7.725000e+01 4.010000e+01
      endloop
   endfacet
   facet normal 0.000000e+00 0.000000e+00 1.000000e+00
      outer loop
         vertex 9.200000e+00 0.000000e+00 4.010000e+01
         vertex 6.811474e+00 7.725000e+01 4.010000e+01
         vertex 5.750000e+00 7.618853e+01 4.010000e+01
      endloop
   endfacet
   facet normal 0.000000e+00 -1.000000e+00 0.000000e+00
      outer loop
         vertex 9.200000e+00 0.000000e+00 3.220000e+01
         vertex 9.200000e+00 0.000000e+00 4.010000e+01
         vertex 0.000000e+00 0.000000e+00 3.220000e+01
      endloop
   endfacet
   facet normal 0.000000e+00 -1.000000e+00 0.000000e+00
      outer loop
         vertex 0.000000e+00 0.000000e+00 3.220000e+01
         vertex 9.200000e+00 0.000000e+00 4.010000e+01
         vertex 0.000000e+00 0.000000e+00 4.010000e+01
      endloop
   endfacet
   facet normal 0.000000e+00 -0.000000e+00 -1.000000e+00
      outer loop
         vertex 2.850000e+00 7.618853e+01 3.220000e+01
         vertex 4.300000e+00 7.580000e+01 3.220000e+01
         vertex 0.000000e+00 0.000000e+00 3.220000e+01
      endloop
   endfacet
   facet normal 0.000000e+00 -0.000000e+00 -1.000000e+00
      outer loop
         vertex 9.200000e+00 9.570000e+01 3.220000e+01
         vertex 9.200000e+00 0.000000e+00 3.220000e+01
         vertex 7.200000e+00 7.870000e+01 3.220000e+01
      endloop
   endfacet
   facet normal 0.000000e+00 -0.000000e+00 -1.000000e+00
      outer loop
         vertex 7.200000e+00 7.870000e+01 3.220000e+01
         vertex 9.200000e+00 0.000000e+00 3.220000e+01
         vertex 6.811474e+00 7.725000e+01 3.220000e+01
      endloop
   endfacet
   facet normal 0.000000e+00 0.000000e+00 -1.000000e+00
      outer loop
         vertex 7.200000e+00 7.870000e+01 3.220000e+01
         vertex 6.811474e+00 8.015000e+01 3.220000e+01
         vertex 9.200000e+00 9.570000e+01 3.220000e+01
      endloop
   endfacet
   facet normal 0.000000e+00 0.000000e+00 -1.000000e+00
      outer loop
         vertex 9.200000e+00 9.570000e+01 3.220000e+01
         vertex 6.811474e+00 8.015000e+01 3.220000e+01
         vertex 5.750000e+00 8.121147e+01 3.220000e+01
      endloop
   endfacet
   facet normal -0.000000e+00 0.000000e+00 -1.000000e+00
      outer loop
         vertex 9.200000e+00 9.570000e+01 3.220000e+01
         vertex 5.750000e+00 8.121147e+01 3.220000e+01
         vertex 0.000000e+00 9.570000e+01 3.220000e+01
      endloop
   endfacet
   facet normal 0.000000e+00 0.000000e+00 -1.000000e+00
      outer loop
         vertex 0.000000e+00 9.570000e+01 3.220000e+01
         vertex 5.750000e+00 8.121147e+01 3.220000e+01
         vertex 4.300000e+00 8.160000e+01 3.220000e+01
      endloop
   endfacet
   facet normal 0.000000e+00 0.000000e+00 -1.000000e+00
      outer loop
         vertex 0.000000e+00 9.570000e+01 3.220000e+01
         vertex 4.300000e+00 8.160000e+01 3.220000e+01
         vertex 2.850000e+00 8.121147e+01 3.220000e+01
      endloop
   endfacet
   facet normal 0.000000e+00 0.000000e+00 -1.000000e+00
      outer loop
         vertex 0.000000e+00 0.000000e+00 3.220000e+01
         vertex 4.300000e+00 7.580000e+01 3.220000e+01
         vertex 9.200000e+00 0.000000e+00 3.220000e+01
      endloop
   endfacet
   facet normal 0.000000e+00 0.000000e+00 -1.000000e+00
      outer loop
         vertex 9.200000e+00 0.000000e+00 3.220000e+01
         vertex 4.300000e+00 7.580000e+01 3.220000e+01
         vertex 5.750000e+00 7.618853e+01 3.220000e+01
      endloop
   endfacet
   facet normal 0.000000e+00 0.000000e+00 -1.000000e+00
      outer loop
         vertex 9.200000e+00 0.000000e+00 3.220000e+01
         vertex 5.750000e+00 7.618853e+01 3.220000e+01
         vertex 6.811474e+00 7.725000e+01 3.220000e+01
      endloop
   endfacet
   facet normal -0.000000e+00 0.000000e+00 -1.000000e+00
      outer loop
         vertex 2.850000e+00 8.121147e+01 3.220000e+01
         vertex 1.788526e+00 8.015000e+01 3.220000e+01
         vertex 0.000000e+00 9.570000e+01 3.220000e+01
      endloop
   endfacet
   facet normal 0.000000e+00 0.000000e+00 -1.000000e+00
      outer loop
         vertex 0.000000e+00 9.570000e+01 3.220000e+01
         vertex 1.788526e+00 8.015000e+01 3.220000e+01
         vertex 1.400000e+00 7.870000e+01 3.220000e+01
      endloop
   endfacet
   facet normal 0.000000e+00 0.000000e+00 -1.000000e+00
      outer loop
         vertex 0.000000e+00 9.570000e+01 3.220000e+01
         vertex 1.400000e+00 7.870000e+01 3.220000e+01
         vertex 0.000000e+00 0.000000e+00 3.220000e+01
      endloop
   endfacet
   facet normal 0.000000e+00 0.000000e+00 -1.000000e+00
      outer loop
         vertex 0.000000e+00 0.000000e+00 3.220000e+01
         vertex 1.400000e+00 7.870000e+01 3.220000e+01
         vertex 1.788526e+00 7.725000e+01 3.220000e+01
      endloop
   endfacet
   facet normal 0.000000e+00 0.000000e+00 -1.000000e+00
      outer loop
         vertex 0.000000e+00 0.000000e+00 3.220000e+01
         vertex 1.788526e+00 7.725000e+01 3.220000e+01
         vertex 2.850000e+00 7.618853e+01 3.220000e+01
      endloop
   endfacet
   facet normal 1.000000e+00 -0.000000e+00 0.000000e+00
      outer loop
         vertex 9.200000e+00 0.000000e+00 4.010000e+01
         vertex 9.200000e+00 0.000000e+00 3.220000e+01
         vertex 9.200000e+00 9.570000e+01 4.010000e+01
      endloop
   endfacet
   facet normal 1.000000e+00 0.000000e+00 0.000000e+00
      outer loop
         vertex 9.200000e+00 9.570000e+01 4.010000e+01
         vertex 9.200000e+00 0.000000e+00 3.220000e+01
         vertex 9.200000e+00 9.570000e+01 3.220000e+01
      endloop
   endfacet
   facet normal -1.000000e+00 0.000000e+00 0.000000e+00
      outer loop
         vertex 0.000000e+00 0.000000e+00 3.220000e+01
         vertex 0.000000e+00 0.000000e+00 4.010000e+01
         vertex 0.000000e+00 9.570000e+01 3.220000e+01
      endloop
   endfacet
   facet normal -1.000000e+00 0.000000e+00 0.000000e+00
      outer loop
         vertex 0.000000e+00 9.570000e+01 3.220000e+01
         vertex 0.000000e+00 0.000000e+00 4.010000e+01
         vertex 0.000000e+00 9.570000e+01 4.010000e+01
      endloop
   endfacet
   facet normal 9.659258e-01 2.588190e-01 0.000000e+00
      outer loop
         vertex 7.200000e+00 7.870000e+01 4.800000e+01
         vertex 6.811474e+00 8.015000e+01 4.010000e+01
         vertex 6.811474e+00 8.015000e+01 4.800000e+01
      endloop
   endfacet
   facet normal 7.071066e-01 7.071069e-01 0.000000e+00
      outer loop
         vertex 6.811474e+00 8.015000e+01 4.800000e+01
         vertex 6.811474e+00 8.015000e+01 4.010000e+01
         vertex 5.750000e+00 8.121147e+01 4.010000e+01
      endloop
   endfacet
   facet normal 7.071066e-01 7.071069e-01 0.000000e+00
      outer loop
         vertex 6.811474e+00 8.015000e+01 4.800000e+01
         vertex 5.750000e+00 8.121147e+01 4.010000e+01
         vertex 5.750000e+00 8.121147e+01 4.800000e+01
      endloop
   endfacet
   facet normal 2.588185e-01 9.659260e-01 0.000000e+00
      outer loop
         vertex 5.750000e+00 8.121147e+01 4.800000e+01
         vertex 5.750000e+00 8.121147e+01 4.010000e+01
         vertex 4.300000e+00 8.160000e+01 4.010000e+01
      endloop
   endfacet
   facet normal 2.588185e-01 9.659260e-01 0.000000e+00
      outer loop
         vertex 5.750000e+00 8.121147e+01 4.800000e+01
         vertex 4.300000e+00 8.160000e+01 4.010000e+01
         vertex 4.300000e+00 8.160000e+01 4.800000e+01
      endloop
   endfacet
   facet normal -2.588185e-01 9.659260e-01 0.000000e+00
      outer loop
         vertex 4.300000e+00 8.160000e+01 4.800000e+01
         vertex 4.300000e+00 8.160000e+01 4.010000e+01
         vertex 2.850000e+00 8.121147e+01 4.010000e+01
      endloop
   endfacet
   facet normal -2.588185e-01 9.659260e-01 0.000000e+00
      outer loop
         vertex 4.300000e+00 8.160000e+01 4.800000e+01
         vertex 2.850000e+00 8.121147e+01 4.010000e+01
         vertex 2.850000e+00 8.121147e+01 4.800000e+01
      endloop
   endfacet
   facet normal -7.071065e-01 7.071070e-01 0.000000e+00
      outer loop
         vertex 2.850000e+00 8.121147e+01 4.800000e+01
         vertex 2.850000e+00 8.121147e+01 4.010000e+01
         vertex 1.788526e+00 8.015000e+01 4.010000e+01
      endloop
   endfacet
   facet normal -7.071065e-01 7.071070e-01 0.000000e+00
      outer loop
         vertex 2.850000e+00 8.121147e+01 4.800000e+01
         vertex 1.788526e+00 8.015000e+01 4.010000e+01
         vertex 1.788526e+00 8.015000e+01 4.800000e+01
      endloop
   endfacet
   facet normal -9.659258e-01 2.588190e-01 0.000000e+00
      outer loop
         vertex 1.788526e+00 8.015000e+01 4.800000e+01
         vertex 1.788526e+00 8.015000e+01 4.010000e+01
         vertex 1.400000e+00 7.870000e+01 4.010000e+01
      endloop
   endfacet
   facet normal -9.659258e-01 2.588190e-01 0.000000e+00
      outer loop
         vertex 1.788526e+00 8.015000e+01 4.800000e+01
         vertex 1.400000e+00 7.870000e+01 4.010000e+01
         vertex 1.400000e+00 7.870000e+01 4.800000e+01
      endloop
   endfacet
   facet normal -9.659258e-01 -2.588190e-01 -0.000000e+00
      outer loop
         vertex 1.400000e+00 7.870000e+01 4.800000e+01
         vertex 1.400000e+00 7.870000e+01 4.010000e+01
         vertex 1.788526e+00 7.725000e+01 4.010000e+01
      endloop
   endfacet
   facet normal -9.659258e-01 -2.588190e-01 0.000000e+00
      outer loop
         vertex 1.400000e+00 7.870000e+01 4.800000e+01
         vertex 1.788526e+00 7.725000e+01 4.010000e+01
         vertex 1.788526e+00 7.725000e+01 4.800000e+01
      endloop
   endfacet
   facet normal -7.071065e-01 -7.071070e-01 -0.000000e+00
      outer loop
         vertex 1.788526e+00 7.725000e+01 4.800000e+01
         vertex 1.788526e+00 7.725000e+01 4.010000e+01
         vertex 2.850000e+00 7.618853e+01 4.010000e+01
      endloop
   endfacet
   facet normal -7.071065e-01 -7.071070e-01 0.000000e+00
      outer loop
         vertex 1.788526e+00 7.725000e+01 4.800000e+01
         vertex 2.850000e+00 7.618853e+01 4.010000e+01
         vertex 2.850000e+00 7.618853e+01 4.800000e+01
      endloop
   endfacet
   facet normal -2.588196e-01 -9.659257e-01 -0.000000e+00
      outer loop
         vertex 2.850000e+00 7.618853e+01 4.800000e+01
         vertex 2.850000e+00 7.618853e+01 4.010000e+01
         vertex 4.300000e+00 7.580000e+01 4.010000e+01
      endloop
   endfacet
   facet normal -2.588196e-01 -9.659257e-01 0.000000e+00
      outer loop
         vertex 2.850000e+00 7.618853e+01 4.800000e+01
         vertex 4.300000e+00 7.580000e+01 4.010000e+01
         vertex 4.300000e+00 7.580000e+01 4.800000e+01
      endloop
   endfacet
   facet normal 2.588197e-01 -9.659257e-01 0.000000e+00
      outer loop
         vertex 4.300000e+00 7.580000e+01 4.800000e+01
         vertex 4.300000e+00 7.580000e+01 4.010000e+01
         vertex 5.750000e+00 7.618853e+01 4.010000e+01
      endloop
   endfacet
   facet normal 2.588197e-01 -9.659257e-01 0.000000e+00
      outer loop
         vertex 4.300000e+00 7.580000e+01 4.800000e+01
         vertex 5.750000e+00 7.618853e+01 4.010000e+01
         vertex 5.750000e+00 7.618853e+01 4.800000e+01
      endloop
   endfacet
   facet normal 7.071066e-01 -7.071069e-01 0.000000e+00
      outer loop
         vertex 5.750000e+00 7.618853e+01 4.800000e+01
         vertex 5.750000e+00 7.618853e+01 4.010000e+01
         vertex 6.811474e+00 7.725000e+01 4.010000e+01
      endloop
   endfacet
   facet normal 7.071066e-01 -7.071069e-01 0.000000e+00
      outer loop
         vertex 5.750000e+00 7.618853e+01 4.800000e+01
         vertex 6.811474e+00 7.725000e+01 4.010000e+01
         vertex 6.811474e+00 7.725000e+01 4.800000e+01
      endloop
   endfacet
   facet normal 9.659258e-01 -2.588190e-01 0.000000e+00
      outer loop
         vertex 6.811474e+00 7.725000e+01 4.800000e+01
         vertex 6.811474e+00 7.725000e+01 4.010000e+01
         vertex 7.200000e+00 7.870000e+01 4.010000e+01
      endloop
   endfacet
   facet normal 9.659258e-01 -2.588190e-01 0.000000e+00
      outer loop
         vertex 6.811474e+00 7.725000e+01 4.800000e+01
         vertex 7.200000e+00 7.870000e+01 4.010000e+01
         vertex 7.200000e+00 7.870000e+01 4.800000e+01
      endloop
   endfacet
   facet normal 9.659258e-01 2.588190e-01 0.000000e+00
      outer loop
         vertex 7.200000e+00 7.870000e+01 4.800000e+01
         vertex 7.200000e+00 7.870000e+01 4.010000e+01
         vertex 6.811474e+00 8.015000e+01 4.010000e+01
      endloop
   endfacet
   facet normal 0.000000e+00 -0.000000e+00 1.000000e+00
      outer loop
         vertex 5.750000e+00 7.618853e+01 4.800000e+01
         vertex 6.811474e+00 7.725000e+01 4.800000e+01
         vertex 4.300000e+00 7.870000e+01 4.800000e+01
      endloop
   endfacet
   facet normal -0.000000e+00 0.000000e+00 1.000000e+00
      outer loop
         vertex 4.300000e+00 7.870000e+01 4.800000e+01
         vertex 6.811474e+00 7.725000e+01 4.800000e+01
         vertex 7.200000e+00 7.870000e+01 4.800000e+01
      endloop
   endfacet
   facet normal 0.000000e+00 0.000000e+00 1.000000e+00
      outer loop
         vertex 4.300000e+00 7.870000e+01 4.800000e+01
         vertex 7.200000e+00 7.870000e+01 4.800000e+01
         vertex 6.811474e+00 8.015000e+01 4.800000e+01
      endloop
   endfacet
   facet normal -0.000000e+00 0.000000e+00 1.000000e+00
      outer loop
         vertex 1.788526e+00 7.725000e+01 4.800000e+01
         vertex 2.850000e+00 7.618853e+01 4.800000e+01
         vertex 4.300000e+00 7.870000e+01 4.800000e+01
      endloop
   endfacet
   facet normal 0.000000e+00 0.000000e+00 1.000000e+00
      outer loop
         vertex 4.300000e+00 7.870000e+01 4.800000e+01
         vertex 2.850000e+00 7.618853e+01 4.800000e+01
         vertex 4.300000e+00 7.580000e+01 4.800000e+01
      endloop
   endfacet
   facet normal 0.000000e+00 0.000000e+00 1.000000e+00
      outer loop
         vertex 4.300000e+00 7.870000e+01 4.800000e+01
         vertex 4.300000e+00 7.580000e+01 4.800000e+01
         vertex 5.750000e+00 7.618853e+01 4.800000e+01
      endloop
   endfacet
   facet normal 0.000000e+00 0.000000e+00 1.000000e+00
      outer loop
         vertex 2.850000e+00 8.121147e+01 4.800000e+01
         vertex 1.788526e+00 8.015000e+01 4.800000e+01
         vertex 4.300000e+00 7.870000e+01 4.800000e+01
      endloop
   endfacet
   facet normal 0.000000e+00 0.000000e+00 1.000000e+00
      outer loop
         vertex 4.300000e+00 7.870000e+01 4.800000e+01
         vertex 1.788526e+00 8.015000e+01 4.800000e+01
         vertex 1.400000e+00 7.870000e+01 4.800000e+01
      endloop
   endfacet
   facet normal 0.000000e+00 0.000000e+00 1.000000e+00
      outer loop
         vertex 4.300000e+00 7.870000e+01 4.800000e+01
         vertex 1.400000e+00 7.870000e+01 4.800000e+01
         vertex 1.788526e+00 7.725000e+01 4.800000e+01
      endloop
   endfacet
   facet normal 0.000000e+00 0.000000e+00 1.000000e+00
      outer loop
         vertex 6.811474e+00 8.015000e+01 4.800000e+01
         vertex 5.750000e+00 8.121147e+01 4.800000e+01
         vertex 4.300000e+00 7.870000e+01 4.800000e+01
      endloop
   endfacet
   facet normal 0.000000e+00 0.000000e+00 1.000000e+00
      outer loop
         vertex 4.300000e+00 7.870000e+01 4.800000e+01
         vertex 5.750000e+00 8.121147e+01 4.800000e+01
         vertex 4.300000e+00 8.160000e+01 4.800000e+01
      endloop
   endfacet
   facet normal 0.000000e+00 -0.000000e+00 1.000000e+00
      outer loop
         vertex 4.300000e+00 7.870000e+01 4.800000e+01
         vertex 4.300000e+00 8.160000e+01 4.800000e+01
         vertex 2.850000e+00 8.121147e+01 4.800000e+01
      endloop
   endfacet
   facet normal 0.000000e+00 0.000000e+00 1.000000e+00
      outer loop
         vertex 9.200000e+00 0.000000e+00 1.600000e+01
         vertex 5.750000e+00 7.618853e+01 1.600000e+01
         vertex 0.000000e+00 0.000000e+00 1.600000e+01
      endloop
   endfacet
   facet normal 0.000000e+00 0.000000e+00 1.000000e+00
      outer loop
         vertex 0.000000e+00 0.000000e+00 1.600000e+01
         vertex 5.750000e+00 7.618853e+01 1.600000e+01
         vertex 4.300000e+00 7.580000e+01 1.600000e+01
      endloop
   endfacet
   facet normal 0.000000e+00 0.000000e+00 1.000000e+00
      outer loop
         vertex 0.000000e+00 0.000000e+00 1.600000e+01
         vertex 4.300000e+00 7.580000e+01 1.600000e+01
         vertex 2.850000e+00 7.618853e+01 1.600000e+01
      endloop
   endfacet
   facet normal 0.000000e+00 0.000000e+00 1.000000e+00
      outer loop
         vertex 2.850000e+00 7.618853e+01 1.600000e+01
         vertex 1.788526e+00 7.725000e+01 1.600000e+01
         vertex 0.000000e+00 0.000000e+00 1.600000e+01
      endloop
   endfacet
   facet normal 0.000000e+00 0.000000e+00 1.000000e+00
      outer loop
         vertex 0.000000e+00 0.000000e+00 1.600000e+01
         vertex 1.788526e+00 7.725000e+01 1.600000e+01
         vertex 1.400000e+00 7.870000e+01 1.600000e+01
      endloop
   endfacet
   facet normal 0.000000e+00 0.000000e+00 1.000000e+00
      outer loop
         vertex 0.000000e+00 0.000000e+00 1.600000e+01
         vertex 1.400000e+00 7.870000e+01 1.600000e+01
         vertex 0.000000e+00 9.570000e+01 1.600000e+01
      endloop
   endfacet
   facet normal 0.000000e+00 0.000000e+00 1.000000e+00
      outer loop
         vertex 0.000000e+00 9.570000e+01 1.600000e+01
         vertex 1.400000e+00 7.870000e+01 1.600000e+01
         vertex 1.788526e+00 8.015000e+01 1.600000e+01
      endloop
   endfacet
   facet normal 0.000000e+00 -0.000000e+00 1.000000e+00
      outer loop
         vertex 5.750000e+00 8.121147e+01 1.600000e+01
         vertex 9.200000e+00 9.570000e+01 1.600000e+01
         vertex 4.300000e+00 8.160000e+01 1.600000e+01
      endloop
   endfacet
   facet normal 0.000000e+00 -0.000000e+00 1.000000e+00
      outer loop
         vertex 4.300000e+00 8.160000e+01 1.600000e+01
         vertex 9.200000e+00 9.570000e+01 1.600000e+01
         vertex 0.000000e+00 9.570000e+01 1.600000e+01
      endloop
   endfacet
   facet normal 0.000000e+00 0.000000e+00 1.000000e+00
      outer loop
         vertex 4.300000e+00 8.160000e+01 1.600000e+01
         vertex 0.000000e+00 9.570000e+01 1.600000e+01
         vertex 2.850000e+00 8.121147e+01 1.600000e+01
      endloop
   endfacet
   facet normal 0.000000e+00 0.000000e+00 1.000000e+00
      outer loop
         vertex 2.850000e+00 8.121147e+01 1.600000e+01
         vertex 0.000000e+00 9.570000e+01 1.600000e+01
         vertex 1.788526e+00 8.015000e+01 1.600000e+01
      endloop
   endfacet
   facet normal -0.000000e+00 0.000000e+00 1.000000e+00
      outer loop
         vertex 5.750000e+00 8.121147e+01 1.600000e+01
         vertex 6.811474e+00 8.015000e+01 1.600000e+01
         vertex 9.200000e+00 9.570000e+01 1.600000e+01
      endloop
   endfacet
   facet normal 0.000000e+00 0.000000e+00 1.000000e+00
      outer loop
         vertex 9.200000e+00 9.570000e+01 1.600000e+01
         vertex 6.811474e+00 8.015000e+01 1.600000e+01
         vertex 7.200000e+00 7.870000e+01 1.600000e+01
      endloop
   endfacet
   facet normal 0.000000e+00 0.000000e+00 1.000000e+00
      outer loop
         vertex 9.200000e+00 9.570000e+01 1.600000e+01
         vertex 7.200000e+00 7.870000e+01 1.600000e+01
         vertex 9.200000e+00 0.000000e+00 1.600000e+01
      endloop
   endfacet
   facet normal 0.000000e+00 0.000000e+00 1.000000e+00
      outer loop
         vertex 9.200000e+00 0.000000e+00 1.600000e+01
         vertex 7.200000e+00 7.870000e+01 1.600000e+01
         vertex 6.811474e+00 7.725000e+01 1.600000e+01
      endloop
   endfacet
   facet normal 0.000000e+00 0.000000e+00 1.000000e+00
      outer loop
         vertex 9.200000e+00 0.000000e+00 1.600000e+01
         vertex 6.811474e+00 7.725000e+01 1.600000e+01
         vertex 5.750000e+00 7.618853e+01 1.600000e+01
      endloop
   endfacet
   facet normal 0.000000e+00 -1.000000e+00 0.000000e+00
      outer loop
         vertex 9.200000e+00 0.000000e+00 8.100000e+00
         vertex 9.200000e+00 0.000000e+00 1.600000e+01
         vertex 0.000000e+00 0.000000e+00 8.100000e+00
      endloop
   endfacet
   facet normal 0.000000e+00 -1.000000e+00 0.000000e+00
      outer loop
         vertex 0.000000e+00 0.000000e+00 8.100000e+00
         vertex 9.200000e+00 0.000000e+00 1.600000e+01
         vertex 0.000000e+00 0.000000e+00 1.600000e+01
      endloop
   endfacet
   facet normal 0.000000e+00 -0.000000e+00 -1.000000e+00
      outer loop
         vertex 2.850000e+00 7.618853e+01 8.100000e+00
         vertex 4.300000e+00 7.580000e+01 8.100000e+00
         vertex 0.000000e+00 0.000000e+00 8.100000e+00
      endloop
   endfacet
   facet normal 0.000000e+00 -0.000000e+00 -1.000000e+00
      outer loop
         vertex 9.200000e+00 9.570000e+01 8.100000e+00
         vertex 9.200000e+00 0.000000e+00 8.100000e+00
         vertex 7.200000e+00 7.870000e+01 8.100000e+00
      endloop
   endfacet
   facet normal 0.000000e+00 -0.000000e+00 -1.000000e+00
      outer loop
         vertex 7.200000e+00 7.870000e+01 8.100000e+00
         vertex 9.200000e+00 0.000000e+00 8.100000e+00
         vertex 6.811474e+00 7.725000e+01 8.100000e+00
      endloop
   endfacet
   facet normal 0.000000e+00 0.000000e+00 -1.000000e+00
      outer loop
         vertex 7.200000e+00 7.870000e+01 8.100000e+00
         vertex 6.811474e+00 8.015000e+01 8.100000e+00
         vertex 9.200000e+00 9.570000e+01 8.100000e+00
      endloop
   endfacet
   facet normal 0.000000e+00 0.000000e+00 -1.000000e+00
      outer loop
         vertex 9.200000e+00 9.570000e+01 8.100000e+00
         vertex 6.811474e+00 8.015000e+01 8.100000e+00
         vertex 5.750000e+00 8.121147e+01 8.100000e+00
      endloop
   endfacet
   facet normal -0.000000e+00 0.000000e+00 -1.000000e+00
      outer loop
         vertex 9.200000e+00 9.570000e+01 8.100000e+00
         vertex 5.750000e+00 8.121147e+01 8.100000e+00
         vertex 0.000000e+00 9.570000e+01 8.100000e+00
      endloop
   endfacet
   facet normal 0.000000e+00 0.000000e+00 -1.000000e+00
      outer loop
         vertex 0.000000e+00 9.570000e+01 8.100000e+00
         vertex 5.750000e+00 8.121147e+01 8.100000e+00
         vertex 4.300000e+00 8.160000e+01 8.100000e+00
      endloop
   endfacet
   facet normal 0.000000e+00 0.000000e+00 -1.000000e+00
      outer loop
         vertex 0.000000e+00 9.570000e+01 8.100000e+00
         vertex 4.300000e+00 8.160000e+01 8.100000e+00
         vertex 2.850000e+00 8.121147e+01 8.100000e+00
      endloop
   endfacet
   facet normal 0.000000e+00 0.000000e+00 -1.000000e+00
      outer loop
         vertex 0.000000e+00 0.000000e+00 8.100000e+00
         vertex 4.300000e+00 7.580000e+01 8.100000e+00
         vertex 9.200000e+00 0.000000e+00 8.100000e+00
      endloop
   endfacet
   facet normal 0.000000e+00 0.000000e+00 -1.000000e+00
      outer loop
         vertex 9.200000e+00 0.000000e+00 8.100000e+00
         vertex 4.300000e+00 7.580000e+01 8.100000e+00
         vertex 5.750000e+00 7.618853e+01 8.100000e+00
      endloop
   endfacet
   facet normal 0.000000e+00 0.000000e+00 -1.000000e+00
      outer loop
         vertex 9.200000e+00 0.000000e+00 8.100000e+00
         vertex 5.750000e+00 7.618853e+01 8.100000e+00
         vertex 6.811474e+00 7.725000e+01 8.100000e+00
      endloop
   endfacet
   facet normal -0.000000e+00 0.000000e+00 -1.000000e+00
      outer loop
         vertex 2.850000e+00 8.121147e+01 8.100000e+00
         vertex 1.788526e+00 8.015000e+01 8.100000e+00
         vertex 0.000000e+00 9.570000e+01 8.100000e+00
      endloop
   endfacet
   facet normal 0.000000e+00 0.000000e+00 -1.000000e+00
      outer loop
         vertex 0.000000e+00 9.570000e+01 8.100000e+00
         vertex 1.788526e+00 8.015000e+01 8.100000e+00
         vertex 1.400000e+00 7.870000e+01 8.100000e+00
      endloop
   endfacet
   facet normal 0.000000e+00 0.000000e+00 -1.000000e+00
      outer loop
         vertex 0.000000e+00 9.570000e+01 8.100000e+00
         vertex 1.400000e+00 7.870000e+01 8.100000e+00
         vertex 0.000000e+00 0.000000e+00 8.100000e+00
      endloop
   endfacet
   facet normal 0.000000e+00 0.000000e+00 -1.000000e+00
      outer loop
         vertex 0.000000e+00 0.000000e+00 8.100000e+00
         vertex 1.400000e+00 7.870000e+01 8.100000e+00
         vertex 1.788526e+00 7.725000e+01 8.100000e+00
      endloop
   endfacet
   facet normal 0.000000e+00 0.000000e+00 -1.000000e+00
      outer loop
         vertex 0.000000e+00 0.000000e+00 8.100000e+00
         vertex 1.788526e+00 7.725000e+01 8.100000e+00
         vertex 2.850000e+00 7.618853e+01 8.100000e+00
      endloop
   endfacet
   facet normal 0.000000e+00 1.000000e+00 0.000000e+00
      outer loop
         vertex 9.200000e+00 9.570000e+01 1.600000e+01
         vertex 9.200000e+00 9.570000e+01 8.100000e+00
         vertex 0.000000e+00 9.570000e+01 1.600000e+01
      endloop
   endfacet
   facet normal 0.000000e+00 1.000000e+00 0.000000e+00
      outer loop
         vertex 0.000000e+00 9.570000e+01 1.600000e+01
         vertex 9.200000e+00 9.570000e+01 8.100000e+00
         vertex 0.000000e+00 9.570000e+01 8.100000e+00
      endloop
   endfacet
   facet normal 1.000000e+00 0.000000e+00 0.000000e+00
      outer loop
         vertex 9.200000e+00 0.000000e+00 8.100000e+00
         vertex 9.200000e+00 9.570000e+01 8.100000e+00
         vertex 9.200000e+00 0.000000e+00 1.600000e+01
      endloop
   endfacet
   facet normal 1.000000e+00 -0.000000e+00 0.000000e+00
      outer loop
         vertex 9.200000e+00 0.000000e+00 1.600000e+01
         vertex 9.200000e+00 9.570000e+01 8.100000e+00
         vertex 9.200000e+00 9.570000e+01 1.600000e+01
      endloop
   endfacet
   facet normal -1.000000e+00 0.000000e+00 0.000000e+00
      outer loop
         vertex 0.000000e+00 9.570000e+01 8.100000e+00
         vertex 0.000000e+00 0.000000e+00 8.100000e+00
         vertex 0.000000e+00 9.570000e+01 1.600000e+01
      endloop
   endfacet
   facet normal -1.000000e+00 -0.000000e+00 0.000000e+00
      outer loop
         vertex 0.000000e+00 9.570000e+01 1.600000e+01
         vertex 0.000000e+00 0.000000e+00 8.100000e+00
         vertex 0.000000e+00 0.000000e+00 1.600000e+01
      endloop
   endfacet
   facet normal 0.000000e+00 -0.000000e+00 -1.000000e+00
      outer loop
         vertex 5.750000e+00 8.121147e+01 0.000000e+00
         vertex 6.811474e+00 8.015000e+01 0.000000e+00
         vertex 4.300000e+00 7.870000e+01 0.000000e+00
      endloop
   endfacet
   facet normal 0.000000e+00 0.000000e+00 -1.000000e+00
      outer loop
         vertex 4.300000e+00 7.870000e+01 0.000000e+00
         vertex 6.811474e+00 8.015000e+01 0.000000e+00
         vertex 7.200000e+00 7.870000e+01 0.000000e+00
      endloop
   endfacet
   facet normal 0.000000e+00 0.000000e+00 -1.000000e+00
      outer loop
         vertex 4.300000e+00 7.870000e+01 0.000000e+00
         vertex 7.200000e+00 7.870000e+01 0.000000e+00
         vertex 6.811474e+00 7.725000e+01 0.000000e+00
      endloop
   endfacet
   facet normal 0.000000e+00 0.000000e+00 -1.000000e+00
      outer loop
         vertex 1.788526e+00 8.015000e+01 0.000000e+00
         vertex 2.850000e+00 8.121147e+01 0.000000e+00
         vertex 4.300000e+00 7.870000e+01 0.000000e+00
      endloop
   endfacet
   facet normal 0.000000e+00 0.000000e+00 -1.000000e+00
      outer loop
         vertex 4.300000e+00 7.870000e+01 0.000000e+00
         vertex 2.850000e+00 8.121147e+01 0.000000e+00
         vertex 4.300000e+00 8.160000e+01 0.000000e+00
      endloop
   endfacet
   facet normal 0.000000e+00 0.000000e+00 -1.000000e+00
      outer loop
         vertex 4.300000e+00 7.870000e+01 0.000000e+00
         vertex 4.300000e+00 8.160000e+01 0.000000e+00
         vertex 5.750000e+00 8.121147e+01 0.000000e+00
      endloop
   endfacet
   facet normal 0.000000e+00 0.000000e+00 -1.000000e+00
      outer loop
         vertex 2.850000e+00 7.618853e+01 0.000000e+00
         vertex 1.788526e+00 7.725000e+01 0.000000e+00
         vertex 4.300000e+00 7.870000e+01 0.000000e+00
      endloop
   endfacet
   facet normal -0.000000e+00 0.000000e+00 -1.000000e+00
      outer loop
         vertex 4.300000e+00 7.870000e+01 0.000000e+00
         vertex 1.788526e+00 7.725000e+01 0.000000e+00
         vertex 1.400000e+00 7.870000e+01 0.000000e+00
      endloop
   endfacet
   facet normal 0.000000e+00 0.000000e+00 -1.000000e+00
      outer loop
         vertex 4.300000e+00 7.870000e+01 0.000000e+00
         vertex 1.400000e+00 7.870000e+01 0.000000e+00
         vertex 1.788526e+00 8.015000e+01 0.000000e+00
      endloop
   endfacet
   facet normal -0.000000e+00 0.000000e+00 -1.000000e+00
      outer loop
         vertex 6.811474e+00 7.725000e+01 0.000000e+00
         vertex 5.750000e+00 7.618853e+01 0.000000e+00
         vertex 4.300000e+00 7.870000e+01 0.000000e+00
      endloop
   endfacet
   facet normal 0.000000e+00 0.000000e+00 -1.000000e+00
      outer loop
         vertex 4.300000e+00 7.870000e+01 0.000000e+00
         vertex 5.750000e+00 7.618853e+01 0.000000e+00
         vertex 4.300000e+00 7.580000e+01 0.000000e+00
      endloop
   endfacet
   facet normal 0.000000e+00 -0.000000e+00 -1.000000e+00
      outer loop
         vertex 4.300000e+00 7.870000e+01 0.000000e+00
         vertex 4.300000e+00 7.580000e+01 0.000000e+00
         vertex 2.850000e+00 7.618853e+01 0.000000e+00
      endloop
   endfacet
   facet normal 9.659258e-01 2.588190e-01 0.000000e+00
      outer loop
         vertex 7.200000e+00 7.870000e+01 8.100000e+00
         vertex 6.811474e+00 8.015000e+01 0.000000e+00
         vertex 6.811474e+00 8.015000e+01 8.100000e+00
      endloop
   endfacet
   facet normal 7.071066e-01 7.071069e-01 0.000000e+00
      outer loop
         vertex 6.811474e+00 8.015000e+01 8.100000e+00
         vertex 6.811474e+00 8.015000e+01 0.000000e+00
         vertex 5.750000e+00 8.121147e+01 0.000000e+00
      endloop
   endfacet
   facet normal 7.071066e-01 7.071069e-01 0.000000e+00
      outer loop
         vertex 6.811474e+00 8.015000e+01 8.100000e+00
         vertex 5.750000e+00 8.121147e+01 0.000000e+00
         vertex 5.750000e+00 8.121147e+01 8.100000e+00
      endloop
   endfacet
   facet normal 2.588185e-01 9.659260e-01 0.000000e+00
      outer loop
         vertex 5.750000e+00 8.121147e+01 8.100000e+00
         vertex 5.750000e+00 8.121147e+01 0.000000e+00
         vertex 4.300000e+00 8.160000e+01 0.000000e+00
      endloop
   endfacet
   facet normal 2.588185e-01 9.659260e-01 0.000000e+00
      outer loop
         vertex 5.750000e+00 8.121147e+01 8.100000e+00
         vertex 4.300000e+00 8.160000e+01 0.000000e+00
         vertex 4.300000e+00 8.160000e+01 8.100000e+00
      endloop
   endfacet
   facet normal -2.588185e-01 9.659260e-01 0.000000e+00
      outer loop
         vertex 4.300000e+00 8.160000e+01 8.100000e+00
         vertex 4.300000e+00 8.160000e+01 0.000000e+00
         vertex 2.850000e+00 8.121147e+01 0.000000e+00
      endloop
   endfacet
   facet normal -2.588185e-01 9.659260e-01 0.000000e+00
      outer loop
         vertex 4.300000e+00 8.160000e+01 8.100000e+00
         vertex 2.850000e+00 8.121147e+01 0.000000e+00
         vertex 2.850000e+00 8.121147e+01 8.100000e+00
      endloop
   endfacet
   facet normal -7.071065e-01 7.071070e-01 0.000000e+00
      outer loop
         vertex 2.850000e+00 8.121147e+01 8.100000e+00
         vertex 2.850000e+00 8.121147e+01 0.000000e+00
         vertex 1.788526e+00 8.015000e+01 0.000000e+00
      endloop
   endfacet
   facet normal -7.071065e-01 7.071070e-01 0.000000e+00
      outer loop
         vertex 2.850000e+00 8.121147e+01 8.100000e+00
         vertex 1.788526e+00 8.015000e+01 0.000000e+00
         vertex 1.788526e+00 8.015000e+01 8.100000e+00
      endloop
   endfacet
   facet normal -9.659258e-01 2.588190e-01 0.000000e+00
      outer loop
         vertex 1.788526e+00 8.015000e+01 8.100000e+00
         vertex 1.788526e+00 8.015000e+01 0.000000e+00
         vertex 1.400000e+00 7.870000e+01 0.000000e+00
      endloop
   endfacet
   facet normal -9.659258e-01 2.588190e-01 0.000000e+00
      outer loop
         vertex 1.788526e+00 8.015000e+01 8.100000e+00
         vertex 1.400000e+00 7.870000e+01 0.000000e+00
         vertex 1.400000e+00 7.870000e+01 8.100000e+00
      endloop
   endfacet
   facet normal -9.659258e-01 -2.588190e-01 -0.000000e+00
      outer loop
         vertex 1.400000e+00 7.870000e+01 8.100000e+00
         vertex 1.400000e+00 7.870000e+01 0.000000e+00
         vertex 1.788526e+00 7.725000e+01 0.000000e+00
      endloop
   endfacet
   facet normal -9.659258e-01 -2.588190e-01 0.000000e+00
      outer loop
         vertex 1.400000e+00 7.870000e+01 8.100000e+00
         vertex 1.788526e+00 7.725000e+01 0.000000e+00
         vertex 1.788526e+00 7.725000e+01 8.100000e+00
      endloop
   endfacet
   facet normal -7.071065e-01 -7.071070e-01 -0.000000e+00
      outer loop
         vertex 1.788526e+00 7.725000e+01 8.100000e+00
         vertex 1.788526e+00 7.725000e+01 0.000000e+00
         vertex 2.850000e+00 7.618853e+01 0.000000e+00
      endloop
   endfacet
   facet normal -7.071065e-01 -7.071070e-01 0.000000e+00
      outer loop
         vertex 1.788526e+00 7.725000e+01 8.100000e+00
         vertex 2.850000e+00 7.618853e+01 0.000000e+00
         vertex 2.850000e+00 7.618853e+01 8.100000e+00
      endloop
   endfacet
   facet normal -2.588196e-01 -9.659257e-01 -0.000000e+00
      outer loop
         vertex 2.850000e+00 7.618853e+01 8.100000e+00
         vertex 2.850000e+00 7.618853e+01 0.000000e+00
         vertex 4.300000e+00 7.580000e+01 0.000000e+00
      endloop
   endfacet
   facet normal -2.588196e-01 -9.659257e-01 0.000000e+00
      outer loop
         vertex 2.850000e+00 7.618853e+01 8.100000e+00
         vertex 4.300000e+00 7.580000e+01 0.000000e+00
         vertex 4.300000e+00 7.580000e+01 8.100000e+00
      endloop
   endfacet
   facet normal 2.588197e-01 -9.659257e-01 0.000000e+00
      outer loop
         vertex 4.300000e+00 7.580000e+01 8.100000e+00
         vertex 4.300000e+00 7.580000e+01 0.000000e+00
         vertex 5.750000e+00 7.618853e+01 0.000000e+00
      endloop
   endfacet
   facet normal 2.588197e-01 -9.659257e-01 0.000000e+00
      outer loop
         vertex 4.300000e+00 7.580000e+01 8.100000e+00
         vertex 5.750000e+00 7.618853e+01 0.000000e+00
         vertex 5.750000e+00 7.618853e+01 8.100000e+00
      endloop
   endfacet
   facet normal 7.071066e-01 -7.071069e-01 0.000000e+00
      outer loop
         vertex 5.750000e+00 7.618853e+01 8.100000e+00
         vertex 5.750000e+00 7.618853e+01 0.000000e+00
         vertex 6.811474e+00 7.725000e+01 0.000000e+00
      endloop
   endfacet
   facet normal 7.071066e-01 -7.071069e-01 0.000000e+00
      outer loop
         vertex 5.750000e+00 7.618853e+01 8.100000e+00
         vertex 6.811474e+00 7.725000e+01 0.000000e+00
         vertex 6.811474e+00 7.725000e+01 8.100000e+00
      endloop
   endfacet
   facet normal 9.659258e-01 -2.588190e-01 0.000000e+00
      outer loop
         vertex 6.811474e+00 7.725000e+01 8.100000e+00
         vertex 6.811474e+00 7.725000e+01 0.000000e+00
         vertex 7.200000e+00 7.870000e+01 0.000000e+00
      endloop
   endfacet
   facet normal 9.659258e-01 -2.588190e-01 0.000000e+00
      outer loop
         vertex 6.811474e+00 7.725000e+01 8.100000e+00
         vertex 7.200000e+00 7.870000e+01 0.000000e+00
         vertex 7.200000e+00 7.870000e+01 8.100000e+00
      endloop
   endfacet
   facet normal 9.659258e-01 2.588190e-01 0.000000e+00
      outer loop
         vertex 7.200000e+00 7.870000e+01 8.100000e+00
         vertex 7.200000e+00 7.870000e+01 0.000000e+00
         vertex 6.811474e+00 8.015000e+01 0.000000e+00
      endloop
   endfacet
endsolid