solid Exported from Blender-2.81 (sub 16)
facet normal -1.000000 0.000000 0.000000
outer loop
vertex -34.349998 8.950000 9.825000
vertex -34.349998 8.950000 19.650000
vertex -34.349998 17.900000 19.650000
endloop
endfacet
facet normal -1.000000 0.000000 0.000000
outer loop
vertex -34.349998 8.950000 9.825000
vertex -34.349998 17.900000 19.650000
vertex -34.349998 17.900000 9.825000
endloop
endfacet
facet normal 0.000000 1.000000 0.000000
outer loop
vertex 28.624998 17.900000 9.825000
vertex 28.624998 17.900000 19.650000
vertex 34.349998 17.900000 19.650000
endloop
endfacet
facet normal 0.000000 1.000000 0.000000
outer loop
vertex 28.624998 17.900000 9.825000
vertex 34.349998 17.900000 19.650000
vertex 34.349998 17.900000 9.825000
endloop
endfacet
facet normal 1.000000 0.000000 0.000000
outer loop
vertex 34.349998 -8.950000 9.825000
vertex 34.349998 -8.950000 19.650000
vertex 34.349998 -17.900000 19.650000
endloop
endfacet
facet normal 1.000000 0.000000 0.000000
outer loop
vertex 34.349998 -8.950000 9.825000
vertex 34.349998 -17.900000 19.650000
vertex 34.349998 -17.900000 9.825000
endloop
endfacet
facet normal 0.000000 -1.000000 0.000000
outer loop
vertex -28.624998 -17.900000 9.825000
vertex -28.624998 -17.900000 19.650000
vertex -34.349998 -17.900000 19.650000
endloop
endfacet
facet normal 0.000000 -1.000000 0.000000
outer loop
vertex -28.624998 -17.900000 9.825000
vertex -34.349998 -17.900000 19.650000
vertex -34.349998 -17.900000 9.825000
endloop
endfacet
facet normal 0.000000 0.000000 -1.000000
outer loop
vertex 28.624998 -8.950000 -19.650000
vertex 34.349998 -8.950000 -19.650000
vertex 34.349998 -17.900000 -19.650000
endloop
endfacet
facet normal 0.000000 0.000000 -1.000000
outer loop
vertex 28.624998 -8.950000 -19.650000
vertex 34.349998 -17.900000 -19.650000
vertex 28.624998 -17.900000 -19.650000
endloop
endfacet
facet normal 0.000000 0.000000 1.000000
outer loop
vertex -28.624998 -8.950000 19.650000
vertex -34.349998 -8.950000 19.650000
vertex -34.349998 -17.900000 19.650000
endloop
endfacet
facet normal 0.000000 0.000000 1.000000
outer loop
vertex -28.624998 -8.950000 19.650000
vertex -34.349998 -17.900000 19.650000
vertex -28.624998 -17.900000 19.650000
endloop
endfacet
facet normal 0.000000 0.000000 1.000000
outer loop
vertex -28.624998 8.950000 19.650000
vertex -34.349998 8.950000 19.650000
vertex -34.349998 0.000000 19.650000
endloop
endfacet
facet normal 0.000000 0.000000 1.000000
outer loop
vertex -28.624998 8.950000 19.650000
vertex -34.349998 0.000000 19.650000
vertex -28.624998 0.000000 19.650000
endloop
endfacet
facet normal 0.000000 0.000000 -1.000000
outer loop
vertex 28.624998 8.950000 -19.650000
vertex 34.349998 8.950000 -19.650000
vertex 34.349998 0.000000 -19.650000
endloop
endfacet
facet normal 0.000000 0.000000 -1.000000
outer loop
vertex 28.624998 8.950000 -19.650000
vertex 34.349998 0.000000 -19.650000
vertex 28.624998 0.000000 -19.650000
endloop
endfacet
facet normal 0.000000 -1.000000 0.000000
outer loop
vertex -28.624998 -17.900000 -9.825000
vertex -28.624998 -17.900000 0.000000
vertex -34.349998 -17.900000 0.000000
endloop
endfacet
facet normal 0.000000 -1.000000 0.000000
outer loop
vertex -28.624998 -17.900000 -9.825000
vertex -34.349998 -17.900000 0.000000
vertex -34.349998 -17.900000 -9.825000
endloop
endfacet
facet normal 1.000000 0.000000 0.000000
outer loop
vertex 34.349998 -8.950000 -9.825000
vertex 34.349998 -8.950000 0.000000
vertex 34.349998 -17.900000 0.000000
endloop
endfacet
facet normal 1.000000 0.000000 0.000000
outer loop
vertex 34.349998 -8.950000 -9.825000
vertex 34.349998 -17.900000 0.000000
vertex 34.349998 -17.900000 -9.825000
endloop
endfacet
facet normal 1.000000 0.000000 0.000000
outer loop
vertex 34.349998 8.950000 -9.825000
vertex 34.349998 8.950000 0.000000
vertex 34.349998 0.000000 0.000000
endloop
endfacet
facet normal 1.000000 0.000000 0.000000
outer loop
vertex 34.349998 8.950000 -9.825000
vertex 34.349998 0.000000 0.000000
vertex 34.349998 0.000000 -9.825000
endloop
endfacet
facet normal 1.000000 0.000000 0.000000
outer loop
vertex 34.349998 8.950000 9.825000
vertex 34.349998 8.950000 19.650000
vertex 34.349998 0.000000 19.650000
endloop
endfacet
facet normal 1.000000 0.000000 0.000000
outer loop
vertex 34.349998 8.950000 9.825000
vertex 34.349998 0.000000 19.650000
vertex 34.349998 0.000000 9.825000
endloop
endfacet
facet normal 0.000000 1.000000 0.000000
outer loop
vertex 28.624998 17.900000 -9.825000
vertex 28.624998 17.900000 0.000000
vertex 34.349998 17.900000 0.000000
endloop
endfacet
facet normal 0.000000 1.000000 0.000000
outer loop
vertex 28.624998 17.900000 -9.825000
vertex 34.349998 17.900000 0.000000
vertex 34.349998 17.900000 -9.825000
endloop
endfacet
facet normal -1.000000 0.000000 0.000000
outer loop
vertex -34.349998 8.950000 -9.825000
vertex -34.349998 8.950000 0.000000
vertex -34.349998 17.900000 0.000000
endloop
endfacet
facet normal -1.000000 0.000000 0.000000
outer loop
vertex -34.349998 8.950000 -9.825000
vertex -34.349998 17.900000 0.000000
vertex -34.349998 17.900000 -9.825000
endloop
endfacet
facet normal -1.000000 0.000000 0.000000
outer loop
vertex -34.349998 -8.950000 -9.825000
vertex -34.349998 -8.950000 0.000000
vertex -34.349998 0.000000 0.000000
endloop
endfacet
facet normal -1.000000 0.000000 0.000000
outer loop
vertex -34.349998 -8.950000 -9.825000
vertex -34.349998 0.000000 0.000000
vertex -34.349998 0.000000 -9.825000
endloop
endfacet
facet normal -1.000000 0.000000 0.000000
outer loop
vertex -34.349998 -8.950000 9.825000
vertex -34.349998 -8.950000 19.650000
vertex -34.349998 0.000000 19.650000
endloop
endfacet
facet normal -1.000000 0.000000 0.000000
outer loop
vertex -34.349998 -8.950000 9.825000
vertex -34.349998 0.000000 19.650000
vertex -34.349998 0.000000 9.825000
endloop
endfacet
facet normal -1.000000 0.000000 0.000000
outer loop
vertex -34.349998 -8.950000 0.000000
vertex -34.349998 -8.950000 9.825000
vertex -34.349998 0.000000 9.825000
endloop
endfacet
facet normal -1.000000 0.000000 0.000000
outer loop
vertex -34.349998 -8.950000 0.000000
vertex -34.349998 0.000000 9.825000
vertex -34.349998 0.000000 0.000000
endloop
endfacet
facet normal -1.000000 0.000000 0.000000
outer loop
vertex -34.349998 -17.900000 0.000000
vertex -34.349998 -17.900000 9.825000
vertex -34.349998 -8.950000 9.825000
endloop
endfacet
facet normal -1.000000 0.000000 0.000000
outer loop
vertex -34.349998 -17.900000 0.000000
vertex -34.349998 -8.950000 9.825000
vertex -34.349998 -8.950000 0.000000
endloop
endfacet
facet normal -1.000000 0.000000 0.000000
outer loop
vertex -34.349998 -17.900000 9.825000
vertex -34.349998 -17.900000 19.650000
vertex -34.349998 -8.950000 19.650000
endloop
endfacet
facet normal -1.000000 0.000000 0.000000
outer loop
vertex -34.349998 -17.900000 9.825000
vertex -34.349998 -8.950000 19.650000
vertex -34.349998 -8.950000 9.825000
endloop
endfacet
facet normal -1.000000 0.000000 0.000000
outer loop
vertex -34.349998 -8.950000 -19.650000
vertex -34.349998 -8.950000 -9.825000
vertex -34.349998 0.000000 -9.825000
endloop
endfacet
facet normal -1.000000 0.000000 0.000000
outer loop
vertex -34.349998 -8.950000 -19.650000
vertex -34.349998 0.000000 -9.825000
vertex -34.349998 0.000000 -19.650000
endloop
endfacet
facet normal -1.000000 0.000000 0.000000
outer loop
vertex -34.349998 -17.900000 -19.650000
vertex -34.349998 -17.900000 -9.825000
vertex -34.349998 -8.950000 -9.825000
endloop
endfacet
facet normal -1.000000 0.000000 0.000000
outer loop
vertex -34.349998 -17.900000 -19.650000
vertex -34.349998 -8.950000 -9.825000
vertex -34.349998 -8.950000 -19.650000
endloop
endfacet
facet normal -1.000000 0.000000 0.000000
outer loop
vertex -34.349998 -17.900000 -9.825000
vertex -34.349998 -17.900000 0.000000
vertex -34.349998 -8.950000 0.000000
endloop
endfacet
facet normal -1.000000 0.000000 0.000000
outer loop
vertex -34.349998 -17.900000 -9.825000
vertex -34.349998 -8.950000 0.000000
vertex -34.349998 -8.950000 -9.825000
endloop
endfacet
facet normal -1.000000 0.000000 0.000000
outer loop
vertex -34.349998 8.950000 -19.650000
vertex -34.349998 8.950000 -9.825000
vertex -34.349998 17.900000 -9.825000
endloop
endfacet
facet normal -1.000000 0.000000 0.000000
outer loop
vertex -34.349998 8.950000 -19.650000
vertex -34.349998 17.900000 -9.825000
vertex -34.349998 17.900000 -19.650000
endloop
endfacet
facet normal -1.000000 0.000000 0.000000
outer loop
vertex -34.349998 0.000000 -19.650000
vertex -34.349998 0.000000 -9.825000
vertex -34.349998 8.950000 -9.825000
endloop
endfacet
facet normal -1.000000 0.000000 0.000000
outer loop
vertex -34.349998 0.000000 -19.650000
vertex -34.349998 8.950000 -9.825000
vertex -34.349998 8.950000 -19.650000
endloop
endfacet
facet normal -1.000000 0.000000 0.000000
outer loop
vertex -34.349998 0.000000 -9.825000
vertex -34.349998 0.000000 0.000000
vertex -34.349998 8.950000 0.000000
endloop
endfacet
facet normal -1.000000 0.000000 0.000000
outer loop
vertex -34.349998 0.000000 -9.825000
vertex -34.349998 8.950000 0.000000
vertex -34.349998 8.950000 -9.825000
endloop
endfacet
facet normal 0.000000 1.000000 0.000000
outer loop
vertex 28.624998 17.900000 -19.650000
vertex 28.624998 17.900000 -9.825000
vertex 34.349998 17.900000 -9.825000
endloop
endfacet
facet normal 0.000000 1.000000 0.000000
outer loop
vertex 28.624998 17.900000 -19.650000
vertex 34.349998 17.900000 -9.825000
vertex 34.349998 17.900000 -19.650000
endloop
endfacet
facet normal 0.000000 1.000000 0.000000
outer loop
vertex -5.725000 17.900000 -19.650000
vertex -5.724999 17.900000 -9.825000
vertex 0.000000 17.900000 -9.825000
endloop
endfacet
facet normal 0.000000 1.000000 0.000000
outer loop
vertex -5.725000 17.900000 -19.650000
vertex 0.000000 17.900000 -9.825000
vertex 0.000000 17.900000 -19.650000
endloop
endfacet
facet normal 0.000000 1.000000 0.000000
outer loop
vertex -5.724999 17.900000 -9.825000
vertex -5.724999 17.900000 0.000000
vertex 0.000000 17.900000 0.000000
endloop
endfacet
facet normal 0.000000 1.000000 0.000000
outer loop
vertex -5.724999 17.900000 -9.825000
vertex 0.000000 17.900000 0.000000
vertex 0.000000 17.900000 -9.825000
endloop
endfacet
facet normal 1.000000 0.000000 0.000000
outer loop
vertex 34.349998 8.950000 0.000000
vertex 34.349998 8.950000 9.825000
vertex 34.349998 0.000000 9.825000
endloop
endfacet
facet normal 1.000000 0.000000 0.000000
outer loop
vertex 34.349998 8.950000 0.000000
vertex 34.349998 0.000000 9.825000
vertex 34.349998 0.000000 0.000000
endloop
endfacet
facet normal 1.000000 0.000000 0.000000
outer loop
vertex 34.349998 17.900000 0.000000
vertex 34.349998 17.900000 9.825000
vertex 34.349998 8.950000 9.825000
endloop
endfacet
facet normal 1.000000 0.000000 0.000000
outer loop
vertex 34.349998 17.900000 0.000000
vertex 34.349998 8.950000 9.825000
vertex 34.349998 8.950000 0.000000
endloop
endfacet
facet normal 1.000000 0.000000 0.000000
outer loop
vertex 34.349998 17.900000 9.825000
vertex 34.349998 17.900000 19.650000
vertex 34.349998 8.950000 19.650000
endloop
endfacet
facet normal 1.000000 0.000000 0.000000
outer loop
vertex 34.349998 17.900000 9.825000
vertex 34.349998 8.950000 19.650000
vertex 34.349998 8.950000 9.825000
endloop
endfacet
facet normal 1.000000 0.000000 0.000000
outer loop
vertex 34.349998 8.950000 -19.650000
vertex 34.349998 8.950000 -9.825000
vertex 34.349998 0.000000 -9.825000
endloop
endfacet
facet normal 1.000000 0.000000 0.000000
outer loop
vertex 34.349998 8.950000 -19.650000
vertex 34.349998 0.000000 -9.825000
vertex 34.349998 0.000000 -19.650000
endloop
endfacet
facet normal 1.000000 0.000000 0.000000
outer loop
vertex 34.349998 17.900000 -19.650000
vertex 34.349998 17.900000 -9.825000
vertex 34.349998 8.950000 -9.825000
endloop
endfacet
facet normal 1.000000 0.000000 0.000000
outer loop
vertex 34.349998 17.900000 -19.650000
vertex 34.349998 8.950000 -9.825000
vertex 34.349998 8.950000 -19.650000
endloop
endfacet
facet normal 1.000000 0.000000 0.000000
outer loop
vertex 34.349998 17.900000 -9.825000
vertex 34.349998 17.900000 0.000000
vertex 34.349998 8.950000 0.000000
endloop
endfacet
facet normal 1.000000 0.000000 0.000000
outer loop
vertex 34.349998 17.900000 -9.825000
vertex 34.349998 8.950000 0.000000
vertex 34.349998 8.950000 -9.825000
endloop
endfacet
facet normal 1.000000 0.000000 0.000000
outer loop
vertex 34.349998 -8.950000 -19.650000
vertex 34.349998 -8.950000 -9.825000
vertex 34.349998 -17.900000 -9.825000
endloop
endfacet
facet normal 1.000000 0.000000 0.000000
outer loop
vertex 34.349998 -8.950000 -19.650000
vertex 34.349998 -17.900000 -9.825000
vertex 34.349998 -17.900000 -19.650000
endloop
endfacet
facet normal 1.000000 0.000000 0.000000
outer loop
vertex 34.349998 0.000000 -19.650000
vertex 34.349998 0.000000 -9.825000
vertex 34.349998 -8.950000 -9.825000
endloop
endfacet
facet normal 1.000000 0.000000 0.000000
outer loop
vertex 34.349998 0.000000 -19.650000
vertex 34.349998 -8.950000 -9.825000
vertex 34.349998 -8.950000 -19.650000
endloop
endfacet
facet normal 1.000000 0.000000 0.000000
outer loop
vertex 34.349998 0.000000 -9.825000
vertex 34.349998 0.000000 0.000000
vertex 34.349998 -8.950000 0.000000
endloop
endfacet
facet normal 1.000000 0.000000 0.000000
outer loop
vertex 34.349998 0.000000 -9.825000
vertex 34.349998 -8.950000 0.000000
vertex 34.349998 -8.950000 -9.825000
endloop
endfacet
facet normal 0.000000 -1.000000 0.000000
outer loop
vertex -28.624998 -17.900000 -19.650000
vertex -28.624998 -17.900000 -9.825000
vertex -34.349998 -17.900000 -9.825000
endloop
endfacet
facet normal 0.000000 -1.000000 0.000000
outer loop
vertex -28.624998 -17.900000 -19.650000
vertex -34.349998 -17.900000 -9.825000
vertex -34.349998 -17.900000 -19.650000
endloop
endfacet
facet normal 0.000000 -1.000000 0.000000
outer loop
vertex 5.725000 -17.900000 -19.650000
vertex 5.724999 -17.900000 -9.825000
vertex 0.000000 -17.900000 -9.825000
endloop
endfacet
facet normal 0.000000 -1.000000 0.000000
outer loop
vertex 5.725000 -17.900000 -19.650000
vertex 0.000000 -17.900000 -9.825000
vertex 0.000000 -17.900000 -19.650000
endloop
endfacet
facet normal 0.000000 -1.000000 0.000000
outer loop
vertex 5.724999 -17.900000 -9.825000
vertex 5.724999 -17.900000 0.000000
vertex 0.000000 -17.900000 0.000000
endloop
endfacet
facet normal 0.000000 -1.000000 0.000000
outer loop
vertex 5.724999 -17.900000 -9.825000
vertex 0.000000 -17.900000 0.000000
vertex 0.000000 -17.900000 -9.825000
endloop
endfacet
facet normal 0.000000 0.000000 -1.000000
outer loop
vertex -5.725000 8.950000 -19.650000
vertex 0.000000 8.950000 -19.650000
vertex 0.000000 0.000000 -19.650000
endloop
endfacet
facet normal 0.000000 0.000000 -1.000000
outer loop
vertex -5.725000 8.950000 -19.650000
vertex 0.000000 0.000000 -19.650000
vertex -5.725000 0.000000 -19.650000
endloop
endfacet
facet normal 0.000000 0.000000 -1.000000
outer loop
vertex -5.725000 17.900000 -19.650000
vertex 0.000000 17.900000 -19.650000
vertex 0.000000 8.950000 -19.650000
endloop
endfacet
facet normal 0.000000 0.000000 -1.000000
outer loop
vertex -5.725000 17.900000 -19.650000
vertex 0.000000 8.950000 -19.650000
vertex -5.725000 8.950000 -19.650000
endloop
endfacet
facet normal 0.000000 0.000000 -1.000000
outer loop
vertex 28.624998 17.900000 -19.650000
vertex 34.349998 17.900000 -19.650000
vertex 34.349998 8.950000 -19.650000
endloop
endfacet
facet normal 0.000000 0.000000 -1.000000
outer loop
vertex 28.624998 17.900000 -19.650000
vertex 34.349998 8.950000 -19.650000
vertex 28.624998 8.950000 -19.650000
endloop
endfacet
facet normal 0.000000 0.000000 1.000000
outer loop
vertex 5.725000 8.950000 19.650000
vertex 0.000000 8.950000 19.650000
vertex 0.000000 0.000000 19.650000
endloop
endfacet
facet normal 0.000000 0.000000 1.000000
outer loop
vertex 5.725000 8.950000 19.650000
vertex 0.000000 0.000000 19.650000
vertex 5.725000 0.000000 19.650000
endloop
endfacet
facet normal 0.000000 0.000000 1.000000
outer loop
vertex 5.725000 17.900000 19.650000
vertex 0.000000 17.900000 19.650000
vertex 0.000000 8.950000 19.650000
endloop
endfacet
facet normal 0.000000 0.000000 1.000000
outer loop
vertex 5.725000 17.900000 19.650000
vertex 0.000000 8.950000 19.650000
vertex 5.725000 8.950000 19.650000
endloop
endfacet
facet normal 0.000000 0.000000 1.000000
outer loop
vertex -28.624998 17.900000 19.650000
vertex -34.349998 17.900000 19.650000
vertex -34.349998 8.950000 19.650000
endloop
endfacet
facet normal 0.000000 0.000000 1.000000
outer loop
vertex -28.624998 17.900000 19.650000
vertex -34.349998 8.950000 19.650000
vertex -28.624998 8.950000 19.650000
endloop
endfacet
facet normal 0.000000 0.000000 1.000000
outer loop
vertex 5.725000 -8.950000 19.650000
vertex 0.000000 -8.950000 19.650000
vertex 0.000000 -17.900000 19.650000
endloop
endfacet
facet normal 0.000000 0.000000 1.000000
outer loop
vertex 5.725000 -8.950000 19.650000
vertex 0.000000 -17.900000 19.650000
vertex 5.724999 -17.900000 19.650000
endloop
endfacet
facet normal 0.000000 0.000000 1.000000
outer loop
vertex 5.725000 0.000000 19.650000
vertex 0.000000 0.000000 19.650000
vertex 0.000000 -8.950000 19.650000
endloop
endfacet
facet normal 0.000000 0.000000 1.000000
outer loop
vertex 5.725000 0.000000 19.650000
vertex 0.000000 -8.950000 19.650000
vertex 5.725000 -8.950000 19.650000
endloop
endfacet
facet normal 0.000000 0.000000 1.000000
outer loop
vertex -28.624998 0.000000 19.650000
vertex -34.349998 0.000000 19.650000
vertex -34.349998 -8.950000 19.650000
endloop
endfacet
facet normal 0.000000 0.000000 1.000000
outer loop
vertex -28.624998 0.000000 19.650000
vertex -34.349998 -8.950000 19.650000
vertex -28.624998 -8.950000 19.650000
endloop
endfacet
facet normal 0.000000 0.000000 -1.000000
outer loop
vertex -5.725000 -8.950000 -19.650000
vertex 0.000000 -8.950000 -19.650000
vertex 0.000000 -17.900000 -19.650000
endloop
endfacet
facet normal 0.000000 0.000000 -1.000000
outer loop
vertex -5.725000 -8.950000 -19.650000
vertex 0.000000 -17.900000 -19.650000
vertex -5.724999 -17.900000 -19.650000
endloop
endfacet
facet normal 0.000000 0.000000 -1.000000
outer loop
vertex -5.725000 0.000000 -19.650000
vertex 0.000000 0.000000 -19.650000
vertex 0.000000 -8.950000 -19.650000
endloop
endfacet
facet normal 0.000000 0.000000 -1.000000
outer loop
vertex -5.725000 0.000000 -19.650000
vertex 0.000000 -8.950000 -19.650000
vertex -5.725000 -8.950000 -19.650000
endloop
endfacet
facet normal 0.000000 0.000000 -1.000000
outer loop
vertex 28.624998 0.000000 -19.650000
vertex 34.349998 0.000000 -19.650000
vertex 34.349998 -8.950000 -19.650000
endloop
endfacet
facet normal 0.000000 0.000000 -1.000000
outer loop
vertex 28.624998 0.000000 -19.650000
vertex 34.349998 -8.950000 -19.650000
vertex 28.624998 -8.950000 -19.650000
endloop
endfacet
facet normal 0.000000 -1.000000 0.000000
outer loop
vertex -28.624998 -17.900000 0.000000
vertex -28.624998 -17.900000 9.825000
vertex -34.349998 -17.900000 9.825000
endloop
endfacet
facet normal 0.000000 -1.000000 0.000000
outer loop
vertex -28.624998 -17.900000 0.000000
vertex -34.349998 -17.900000 9.825000
vertex -34.349998 -17.900000 0.000000
endloop
endfacet
facet normal 0.000000 -1.000000 0.000000
outer loop
vertex 5.724999 -17.900000 0.000000
vertex 5.724999 -17.900000 9.825000
vertex 0.000000 -17.900000 9.825000
endloop
endfacet
facet normal 0.000000 -1.000000 0.000000
outer loop
vertex 5.724999 -17.900000 0.000000
vertex 0.000000 -17.900000 9.825000
vertex 0.000000 -17.900000 0.000000
endloop
endfacet
facet normal 0.000000 -1.000000 0.000000
outer loop
vertex 5.724999 -17.900000 9.825000
vertex 5.724999 -17.900000 19.650000
vertex 0.000000 -17.900000 19.650000
endloop
endfacet
facet normal 0.000000 -1.000000 0.000000
outer loop
vertex 5.724999 -17.900000 9.825000
vertex 0.000000 -17.900000 19.650000
vertex 0.000000 -17.900000 9.825000
endloop
endfacet
facet normal 1.000000 0.000000 0.000000
outer loop
vertex 34.349998 -8.950000 0.000000
vertex 34.349998 -8.950000 9.825000
vertex 34.349998 -17.900000 9.825000
endloop
endfacet
facet normal 1.000000 0.000000 0.000000
outer loop
vertex 34.349998 -8.950000 0.000000
vertex 34.349998 -17.900000 9.825000
vertex 34.349998 -17.900000 0.000000
endloop
endfacet
facet normal 1.000000 0.000000 0.000000
outer loop
vertex 34.349998 0.000000 0.000000
vertex 34.349998 0.000000 9.825000
vertex 34.349998 -8.950000 9.825000
endloop
endfacet
facet normal 1.000000 0.000000 0.000000
outer loop
vertex 34.349998 0.000000 0.000000
vertex 34.349998 -8.950000 9.825000
vertex 34.349998 -8.950000 0.000000
endloop
endfacet
facet normal 1.000000 0.000000 0.000000
outer loop
vertex 34.349998 0.000000 9.825000
vertex 34.349998 0.000000 19.650000
vertex 34.349998 -8.950000 19.650000
endloop
endfacet
facet normal 1.000000 0.000000 0.000000
outer loop
vertex 34.349998 0.000000 9.825000
vertex 34.349998 -8.950000 19.650000
vertex 34.349998 -8.950000 9.825000
endloop
endfacet
facet normal 0.000000 1.000000 0.000000
outer loop
vertex 28.624998 17.900000 0.000000
vertex 28.624998 17.900000 9.825000
vertex 34.349998 17.900000 9.825000
endloop
endfacet
facet normal 0.000000 1.000000 0.000000
outer loop
vertex 28.624998 17.900000 0.000000
vertex 34.349998 17.900000 9.825000
vertex 34.349998 17.900000 0.000000
endloop
endfacet
facet normal 0.000000 1.000000 0.000000
outer loop
vertex -5.724999 17.900000 0.000000
vertex -5.724999 17.900000 9.825000
vertex 0.000000 17.900000 9.825000
endloop
endfacet
facet normal 0.000000 1.000000 0.000000
outer loop
vertex -5.724999 17.900000 0.000000
vertex 0.000000 17.900000 9.825000
vertex 0.000000 17.900000 0.000000
endloop
endfacet
facet normal 0.000000 1.000000 0.000000
outer loop
vertex -5.724999 17.900000 9.825000
vertex -5.724999 17.900000 19.650000
vertex 0.000000 17.900000 19.650000
endloop
endfacet
facet normal 0.000000 1.000000 0.000000
outer loop
vertex -5.724999 17.900000 9.825000
vertex 0.000000 17.900000 19.650000
vertex 0.000000 17.900000 9.825000
endloop
endfacet
facet normal -1.000000 0.000000 0.000000
outer loop
vertex -34.349998 8.950000 0.000000
vertex -34.349998 8.950000 9.825000
vertex -34.349998 17.900000 9.825000
endloop
endfacet
facet normal -1.000000 0.000000 0.000000
outer loop
vertex -34.349998 8.950000 0.000000
vertex -34.349998 17.900000 9.825000
vertex -34.349998 17.900000 0.000000
endloop
endfacet
facet normal -1.000000 0.000000 0.000000
outer loop
vertex -34.349998 0.000000 0.000000
vertex -34.349998 0.000000 9.825000
vertex -34.349998 8.950000 9.825000
endloop
endfacet
facet normal -1.000000 0.000000 0.000000
outer loop
vertex -34.349998 0.000000 0.000000
vertex -34.349998 8.950000 9.825000
vertex -34.349998 8.950000 0.000000
endloop
endfacet
facet normal -1.000000 0.000000 0.000000
outer loop
vertex -34.349998 0.000000 9.825000
vertex -34.349998 0.000000 19.650000
vertex -34.349998 8.950000 19.650000
endloop
endfacet
facet normal -1.000000 0.000000 0.000000
outer loop
vertex -34.349998 0.000000 9.825000
vertex -34.349998 8.950000 19.650000
vertex -34.349998 8.950000 9.825000
endloop
endfacet
facet normal 0.000000 1.000000 0.000000
outer loop
vertex -28.624998 17.900000 9.825000
vertex -28.624998 17.900000 19.650000
vertex -22.899998 17.900000 19.650000
endloop
endfacet
facet normal 0.000000 1.000000 0.000000
outer loop
vertex -28.624998 17.900000 9.825000
vertex -22.899998 17.900000 19.650000
vertex -22.899998 17.900000 9.825000
endloop
endfacet
facet normal 0.000000 1.000000 0.000000
outer loop
vertex -17.174997 17.900000 9.825000
vertex -17.174997 17.900000 19.650000
vertex -11.449999 17.900000 19.650000
endloop
endfacet
facet normal 0.000000 1.000000 0.000000
outer loop
vertex -17.174997 17.900000 9.825000
vertex -11.449999 17.900000 19.650000
vertex -11.449999 17.900000 9.825000
endloop
endfacet
facet normal 0.000000 1.000000 0.000000
outer loop
vertex -28.624998 17.900000 0.000000
vertex -28.624998 17.900000 9.825000
vertex -22.899998 17.900000 9.825000
endloop
endfacet
facet normal 0.000000 1.000000 0.000000
outer loop
vertex -28.624998 17.900000 0.000000
vertex -22.899998 17.900000 9.825000
vertex -22.899998 17.900000 0.000000
endloop
endfacet
facet normal 0.000000 1.000000 0.000000
outer loop
vertex -17.174997 17.900000 0.000000
vertex -17.174997 17.900000 9.825000
vertex -11.449999 17.900000 9.825000
endloop
endfacet
facet normal 0.000000 1.000000 0.000000
outer loop
vertex -17.174997 17.900000 0.000000
vertex -11.449999 17.900000 9.825000
vertex -11.449999 17.900000 0.000000
endloop
endfacet
facet normal 0.000000 1.000000 0.000000
outer loop
vertex 5.725000 17.900000 0.000000
vertex 5.725000 17.900000 9.825000
vertex 11.450000 17.900000 9.825000
endloop
endfacet
facet normal 0.000000 1.000000 0.000000
outer loop
vertex 5.725000 17.900000 0.000000
vertex 11.450000 17.900000 9.825000
vertex 11.450000 17.900000 0.000000
endloop
endfacet
facet normal 0.000000 1.000000 0.000000
outer loop
vertex 17.174999 17.900000 0.000000
vertex 17.174999 17.900000 9.825000
vertex 22.899998 17.900000 9.825000
endloop
endfacet
facet normal 0.000000 1.000000 0.000000
outer loop
vertex 17.174999 17.900000 0.000000
vertex 22.899998 17.900000 9.825000
vertex 22.899998 17.900000 0.000000
endloop
endfacet
facet normal 0.000000 -1.000000 0.000000
outer loop
vertex 28.624998 -17.900000 9.825000
vertex 28.624998 -17.900000 19.650000
vertex 22.899998 -17.900000 19.650000
endloop
endfacet
facet normal 0.000000 -1.000000 0.000000
outer loop
vertex 28.624998 -17.900000 9.825000
vertex 22.899998 -17.900000 19.650000
vertex 22.899998 -17.900000 9.825000
endloop
endfacet
facet normal 0.000000 -1.000000 0.000000
outer loop
vertex 17.174997 -17.900000 9.825000
vertex 17.174997 -17.900000 19.650000
vertex 11.449999 -17.900000 19.650000
endloop
endfacet
facet normal 0.000000 -1.000000 0.000000
outer loop
vertex 17.174997 -17.900000 9.825000
vertex 11.449999 -17.900000 19.650000
vertex 11.449999 -17.900000 9.825000
endloop
endfacet
facet normal 0.000000 -1.000000 0.000000
outer loop
vertex 28.624998 -17.900000 0.000000
vertex 28.624998 -17.900000 9.825000
vertex 22.899998 -17.900000 9.825000
endloop
endfacet
facet normal 0.000000 -1.000000 0.000000
outer loop
vertex 28.624998 -17.900000 0.000000
vertex 22.899998 -17.900000 9.825000
vertex 22.899998 -17.900000 0.000000
endloop
endfacet
facet normal 0.000000 -1.000000 0.000000
outer loop
vertex 17.174997 -17.900000 0.000000
vertex 17.174997 -17.900000 9.825000
vertex 11.449999 -17.900000 9.825000
endloop
endfacet
facet normal 0.000000 -1.000000 0.000000
outer loop
vertex 17.174997 -17.900000 0.000000
vertex 11.449999 -17.900000 9.825000
vertex 11.449999 -17.900000 0.000000
endloop
endfacet
facet normal 0.000000 -1.000000 0.000000
outer loop
vertex -5.725000 -17.900000 0.000000
vertex -5.725000 -17.900000 9.825000
vertex -11.450000 -17.900000 9.825000
endloop
endfacet
facet normal 0.000000 -1.000000 0.000000
outer loop
vertex -5.725000 -17.900000 0.000000
vertex -11.450000 -17.900000 9.825000
vertex -11.450000 -17.900000 0.000000
endloop
endfacet
facet normal 0.000000 -1.000000 0.000000
outer loop
vertex -17.174999 -17.900000 0.000000
vertex -17.174999 -17.900000 9.825000
vertex -22.899998 -17.900000 9.825000
endloop
endfacet
facet normal 0.000000 -1.000000 0.000000
outer loop
vertex -17.174999 -17.900000 0.000000
vertex -22.899998 -17.900000 9.825000
vertex -22.899998 -17.900000 0.000000
endloop
endfacet
facet normal 0.000000 0.000000 -1.000000
outer loop
vertex 5.724999 0.000000 -19.650000
vertex 11.449999 0.000000 -19.650000
vertex 11.449999 -8.950000 -19.650000
endloop
endfacet
facet normal 0.000000 0.000000 -1.000000
outer loop
vertex 5.724999 0.000000 -19.650000
vertex 11.449999 -8.950000 -19.650000
vertex 5.724999 -8.950000 -19.650000
endloop
endfacet
facet normal 0.000000 0.000000 -1.000000
outer loop
vertex 17.174997 0.000000 -19.650000
vertex 22.899998 0.000000 -19.650000
vertex 22.899998 -8.950000 -19.650000
endloop
endfacet
facet normal 0.000000 0.000000 -1.000000
outer loop
vertex 17.174997 0.000000 -19.650000
vertex 22.899998 -8.950000 -19.650000
vertex 17.174997 -8.950000 -19.650000
endloop
endfacet
facet normal 0.000000 0.000000 -1.000000
outer loop
vertex -28.624998 0.000000 -19.650000
vertex -22.899998 0.000000 -19.650000
vertex -22.899998 -8.950000 -19.650000
endloop
endfacet
facet normal 0.000000 0.000000 -1.000000
outer loop
vertex -28.624998 0.000000 -19.650000
vertex -22.899998 -8.950000 -19.650000
vertex -28.624998 -8.950000 -19.650000
endloop
endfacet
facet normal 0.000000 0.000000 -1.000000
outer loop
vertex -17.174999 0.000000 -19.650000
vertex -11.450000 0.000000 -19.650000
vertex -11.450000 -8.950000 -19.650000
endloop
endfacet
facet normal 0.000000 0.000000 -1.000000
outer loop
vertex -17.174999 0.000000 -19.650000
vertex -11.450000 -8.950000 -19.650000
vertex -17.174999 -8.950000 -19.650000
endloop
endfacet
facet normal 0.000000 0.000000 -1.000000
outer loop
vertex -28.624998 -8.950000 -19.650000
vertex -22.899998 -8.950000 -19.650000
vertex -22.899998 -17.900000 -19.650000
endloop
endfacet
facet normal 0.000000 0.000000 -1.000000
outer loop
vertex -28.624998 -8.950000 -19.650000
vertex -22.899998 -17.900000 -19.650000
vertex -28.624998 -17.900000 -19.650000
endloop
endfacet
facet normal 0.000000 0.000000 -1.000000
outer loop
vertex -17.174999 -8.950000 -19.650000
vertex -11.450000 -8.950000 -19.650000
vertex -11.449999 -17.900000 -19.650000
endloop
endfacet
facet normal 0.000000 0.000000 -1.000000
outer loop
vertex -17.174999 -8.950000 -19.650000
vertex -11.449999 -17.900000 -19.650000
vertex -17.174997 -17.900000 -19.650000
endloop
endfacet
facet normal 0.000000 0.000000 1.000000
outer loop
vertex -5.724999 0.000000 19.650000
vertex -11.449999 0.000000 19.650000
vertex -11.449999 -8.950000 19.650000
endloop
endfacet
facet normal 0.000000 0.000000 1.000000
outer loop
vertex -5.724999 0.000000 19.650000
vertex -11.449999 -8.950000 19.650000
vertex -5.724999 -8.950000 19.650000
endloop
endfacet
facet normal 0.000000 0.000000 1.000000
outer loop
vertex -17.174997 0.000000 19.650000
vertex -22.899998 0.000000 19.650000
vertex -22.899998 -8.950000 19.650000
endloop
endfacet
facet normal 0.000000 0.000000 1.000000
outer loop
vertex -17.174997 0.000000 19.650000
vertex -22.899998 -8.950000 19.650000
vertex -17.174997 -8.950000 19.650000
endloop
endfacet
facet normal 0.000000 0.000000 1.000000
outer loop
vertex 28.624998 0.000000 19.650000
vertex 22.899998 0.000000 19.650000
vertex 22.899998 -8.950000 19.650000
endloop
endfacet
facet normal 0.000000 0.000000 1.000000
outer loop
vertex 28.624998 0.000000 19.650000
vertex 22.899998 -8.950000 19.650000
vertex 28.624998 -8.950000 19.650000
endloop
endfacet
facet normal 0.000000 0.000000 1.000000
outer loop
vertex 17.174999 0.000000 19.650000
vertex 11.450000 0.000000 19.650000
vertex 11.450000 -8.950000 19.650000
endloop
endfacet
facet normal 0.000000 0.000000 1.000000
outer loop
vertex 17.174999 0.000000 19.650000
vertex 11.450000 -8.950000 19.650000
vertex 17.174999 -8.950000 19.650000
endloop
endfacet
facet normal 0.000000 0.000000 1.000000
outer loop
vertex 28.624998 -8.950000 19.650000
vertex 22.899998 -8.950000 19.650000
vertex 22.899998 -17.900000 19.650000
endloop
endfacet
facet normal 0.000000 0.000000 1.000000
outer loop
vertex 28.624998 -8.950000 19.650000
vertex 22.899998 -17.900000 19.650000
vertex 28.624998 -17.900000 19.650000
endloop
endfacet
facet normal 0.000000 0.000000 1.000000
outer loop
vertex 17.174999 -8.950000 19.650000
vertex 11.450000 -8.950000 19.650000
vertex 11.449999 -17.900000 19.650000
endloop
endfacet
facet normal 0.000000 0.000000 1.000000
outer loop
vertex 17.174999 -8.950000 19.650000
vertex 11.449999 -17.900000 19.650000
vertex 17.174997 -17.900000 19.650000
endloop
endfacet
facet normal 0.000000 0.000000 1.000000
outer loop
vertex -5.724999 17.900000 19.650000
vertex -11.449999 17.900000 19.650000
vertex -11.449999 8.950000 19.650000
endloop
endfacet
facet normal 0.000000 0.000000 1.000000
outer loop
vertex -5.724999 17.900000 19.650000
vertex -11.449999 8.950000 19.650000
vertex -5.724999 8.950000 19.650000
endloop
endfacet
facet normal 0.000000 0.000000 1.000000
outer loop
vertex -17.174997 17.900000 19.650000
vertex -22.899998 17.900000 19.650000
vertex -22.899998 8.950000 19.650000
endloop
endfacet
facet normal 0.000000 0.000000 1.000000
outer loop
vertex -17.174997 17.900000 19.650000
vertex -22.899998 8.950000 19.650000
vertex -17.174997 8.950000 19.650000
endloop
endfacet
facet normal 0.000000 0.000000 1.000000
outer loop
vertex 28.624998 17.900000 19.650000
vertex 22.899998 17.900000 19.650000
vertex 22.899998 8.950000 19.650000
endloop
endfacet
facet normal 0.000000 0.000000 1.000000
outer loop
vertex 28.624998 17.900000 19.650000
vertex 22.899998 8.950000 19.650000
vertex 28.624998 8.950000 19.650000
endloop
endfacet
facet normal 0.000000 0.000000 1.000000
outer loop
vertex 17.174999 17.900000 19.650000
vertex 11.450000 17.900000 19.650000
vertex 11.450000 8.950000 19.650000
endloop
endfacet
facet normal 0.000000 0.000000 1.000000
outer loop
vertex 17.174999 17.900000 19.650000
vertex 11.450000 8.950000 19.650000
vertex 17.174999 8.950000 19.650000
endloop
endfacet
facet normal 0.000000 0.000000 1.000000
outer loop
vertex 28.624998 8.950000 19.650000
vertex 22.899998 8.950000 19.650000
vertex 22.899998 0.000000 19.650000
endloop
endfacet
facet normal 0.000000 0.000000 1.000000
outer loop
vertex 28.624998 8.950000 19.650000
vertex 22.899998 0.000000 19.650000
vertex 28.624998 0.000000 19.650000
endloop
endfacet
facet normal 0.000000 0.000000 1.000000
outer loop
vertex 17.174999 8.950000 19.650000
vertex 11.450000 8.950000 19.650000
vertex 11.450000 0.000000 19.650000
endloop
endfacet
facet normal 0.000000 0.000000 1.000000
outer loop
vertex 17.174999 8.950000 19.650000
vertex 11.450000 0.000000 19.650000
vertex 17.174999 0.000000 19.650000
endloop
endfacet
facet normal 0.000000 0.000000 -1.000000
outer loop
vertex 5.724999 17.900000 -19.650000
vertex 11.449999 17.900000 -19.650000
vertex 11.449999 8.950000 -19.650000
endloop
endfacet
facet normal 0.000000 0.000000 -1.000000
outer loop
vertex 5.724999 17.900000 -19.650000
vertex 11.449999 8.950000 -19.650000
vertex 5.724999 8.950000 -19.650000
endloop
endfacet
facet normal 0.000000 0.000000 -1.000000
outer loop
vertex 17.174997 17.900000 -19.650000
vertex 22.899998 17.900000 -19.650000
vertex 22.899998 8.950000 -19.650000
endloop
endfacet
facet normal 0.000000 0.000000 -1.000000
outer loop
vertex 17.174997 17.900000 -19.650000
vertex 22.899998 8.950000 -19.650000
vertex 17.174997 8.950000 -19.650000
endloop
endfacet
facet normal 0.000000 0.000000 -1.000000
outer loop
vertex -28.624998 17.900000 -19.650000
vertex -22.899998 17.900000 -19.650000
vertex -22.899998 8.950000 -19.650000
endloop
endfacet
facet normal 0.000000 0.000000 -1.000000
outer loop
vertex -28.624998 17.900000 -19.650000
vertex -22.899998 8.950000 -19.650000
vertex -28.624998 8.950000 -19.650000
endloop
endfacet
facet normal 0.000000 0.000000 -1.000000
outer loop
vertex -17.174999 17.900000 -19.650000
vertex -11.450000 17.900000 -19.650000
vertex -11.450000 8.950000 -19.650000
endloop
endfacet
facet normal 0.000000 0.000000 -1.000000
outer loop
vertex -17.174999 17.900000 -19.650000
vertex -11.450000 8.950000 -19.650000
vertex -17.174999 8.950000 -19.650000
endloop
endfacet
facet normal 0.000000 0.000000 -1.000000
outer loop
vertex -28.624998 8.950000 -19.650000
vertex -22.899998 8.950000 -19.650000
vertex -22.899998 0.000000 -19.650000
endloop
endfacet
facet normal 0.000000 0.000000 -1.000000
outer loop
vertex -28.624998 8.950000 -19.650000
vertex -22.899998 0.000000 -19.650000
vertex -28.624998 0.000000 -19.650000
endloop
endfacet
facet normal 0.000000 0.000000 -1.000000
outer loop
vertex -17.174999 8.950000 -19.650000
vertex -11.450000 8.950000 -19.650000
vertex -11.450000 0.000000 -19.650000
endloop
endfacet
facet normal 0.000000 0.000000 -1.000000
outer loop
vertex -17.174999 8.950000 -19.650000
vertex -11.450000 0.000000 -19.650000
vertex -17.174999 0.000000 -19.650000
endloop
endfacet
facet normal 0.000000 -1.000000 0.000000
outer loop
vertex 28.624998 -17.900000 -9.825000
vertex 28.624998 -17.900000 0.000000
vertex 22.899998 -17.900000 0.000000
endloop
endfacet
facet normal 0.000000 -1.000000 0.000000
outer loop
vertex 28.624998 -17.900000 -9.825000
vertex 22.899998 -17.900000 0.000000
vertex 22.899998 -17.900000 -9.825000
endloop
endfacet
facet normal 0.000000 -1.000000 0.000000
outer loop
vertex 17.174997 -17.900000 -9.825000
vertex 17.174997 -17.900000 0.000000
vertex 11.449999 -17.900000 0.000000
endloop
endfacet
facet normal 0.000000 -1.000000 0.000000
outer loop
vertex 17.174997 -17.900000 -9.825000
vertex 11.449999 -17.900000 0.000000
vertex 11.449999 -17.900000 -9.825000
endloop
endfacet
facet normal 0.000000 -1.000000 0.000000
outer loop
vertex 28.624998 -17.900000 -19.650000
vertex 28.624998 -17.900000 -9.825000
vertex 22.899998 -17.900000 -9.825000
endloop
endfacet
facet normal 0.000000 -1.000000 0.000000
outer loop
vertex 28.624998 -17.900000 -19.650000
vertex 22.899998 -17.900000 -9.825000
vertex 22.899998 -17.900000 -19.650000
endloop
endfacet
facet normal 0.000000 -1.000000 0.000000
outer loop
vertex 17.174999 -17.900000 -19.650000
vertex 17.174997 -17.900000 -9.825000
vertex 11.449999 -17.900000 -9.825000
endloop
endfacet
facet normal 0.000000 -1.000000 0.000000
outer loop
vertex 17.174999 -17.900000 -19.650000
vertex 11.449999 -17.900000 -9.825000
vertex 11.450000 -17.900000 -19.650000
endloop
endfacet
facet normal 0.000000 -1.000000 0.000000
outer loop
vertex -5.724999 -17.900000 -19.650000
vertex -5.725000 -17.900000 -9.825000
vertex -11.450000 -17.900000 -9.825000
endloop
endfacet
facet normal 0.000000 -1.000000 0.000000
outer loop
vertex -5.724999 -17.900000 -19.650000
vertex -11.450000 -17.900000 -9.825000
vertex -11.449999 -17.900000 -19.650000
endloop
endfacet
facet normal 0.000000 -1.000000 0.000000
outer loop
vertex -17.174997 -17.900000 -19.650000
vertex -17.174999 -17.900000 -9.825000
vertex -22.899998 -17.900000 -9.825000
endloop
endfacet
facet normal 0.000000 -1.000000 0.000000
outer loop
vertex -17.174997 -17.900000 -19.650000
vertex -22.899998 -17.900000 -9.825000
vertex -22.899998 -17.900000 -19.650000
endloop
endfacet
facet normal 0.000000 1.000000 0.000000
outer loop
vertex -28.624998 17.900000 -9.825000
vertex -28.624998 17.900000 0.000000
vertex -22.899998 17.900000 0.000000
endloop
endfacet
facet normal 0.000000 1.000000 0.000000
outer loop
vertex -28.624998 17.900000 -9.825000
vertex -22.899998 17.900000 0.000000
vertex -22.899998 17.900000 -9.825000
endloop
endfacet
facet normal 0.000000 1.000000 0.000000
outer loop
vertex -17.174997 17.900000 -9.825000
vertex -17.174997 17.900000 0.000000
vertex -11.449999 17.900000 0.000000
endloop
endfacet
facet normal 0.000000 1.000000 0.000000
outer loop
vertex -17.174997 17.900000 -9.825000
vertex -11.449999 17.900000 0.000000
vertex -11.449999 17.900000 -9.825000
endloop
endfacet
facet normal 0.000000 1.000000 0.000000
outer loop
vertex -28.624998 17.900000 -19.650000
vertex -28.624998 17.900000 -9.825000
vertex -22.899998 17.900000 -9.825000
endloop
endfacet
facet normal 0.000000 1.000000 0.000000
outer loop
vertex -28.624998 17.900000 -19.650000
vertex -22.899998 17.900000 -9.825000
vertex -22.899998 17.900000 -19.650000
endloop
endfacet
facet normal 0.000000 1.000000 0.000000
outer loop
vertex -17.174999 17.900000 -19.650000
vertex -17.174997 17.900000 -9.825000
vertex -11.449999 17.900000 -9.825000
endloop
endfacet
facet normal 0.000000 1.000000 0.000000
outer loop
vertex -17.174999 17.900000 -19.650000
vertex -11.449999 17.900000 -9.825000
vertex -11.450000 17.900000 -19.650000
endloop
endfacet
facet normal 0.000000 1.000000 0.000000
outer loop
vertex 5.724999 17.900000 -19.650000
vertex 5.725000 17.900000 -9.825000
vertex 11.450000 17.900000 -9.825000
endloop
endfacet
facet normal 0.000000 1.000000 0.000000
outer loop
vertex 5.724999 17.900000 -19.650000
vertex 11.450000 17.900000 -9.825000
vertex 11.449999 17.900000 -19.650000
endloop
endfacet
facet normal 0.000000 1.000000 0.000000
outer loop
vertex 17.174997 17.900000 -19.650000
vertex 17.174999 17.900000 -9.825000
vertex 22.899998 17.900000 -9.825000
endloop
endfacet
facet normal 0.000000 1.000000 0.000000
outer loop
vertex 17.174997 17.900000 -19.650000
vertex 22.899998 17.900000 -9.825000
vertex 22.899998 17.900000 -19.650000
endloop
endfacet
facet normal 0.000000 1.000000 0.000000
outer loop
vertex 5.725000 17.900000 -9.825000
vertex 5.725000 17.900000 0.000000
vertex 11.450000 17.900000 0.000000
endloop
endfacet
facet normal 0.000000 1.000000 0.000000
outer loop
vertex 5.725000 17.900000 -9.825000
vertex 11.450000 17.900000 0.000000
vertex 11.450000 17.900000 -9.825000
endloop
endfacet
facet normal 0.000000 1.000000 0.000000
outer loop
vertex 17.174999 17.900000 -9.825000
vertex 17.174999 17.900000 0.000000
vertex 22.899998 17.900000 0.000000
endloop
endfacet
facet normal 0.000000 1.000000 0.000000
outer loop
vertex 17.174999 17.900000 -9.825000
vertex 22.899998 17.900000 0.000000
vertex 22.899998 17.900000 -9.825000
endloop
endfacet
facet normal 0.000000 -1.000000 0.000000
outer loop
vertex -5.725000 -17.900000 -9.825000
vertex -5.725000 -17.900000 0.000000
vertex -11.450000 -17.900000 0.000000
endloop
endfacet
facet normal 0.000000 -1.000000 0.000000
outer loop
vertex -5.725000 -17.900000 -9.825000
vertex -11.450000 -17.900000 0.000000
vertex -11.450000 -17.900000 -9.825000
endloop
endfacet
facet normal 0.000000 -1.000000 0.000000
outer loop
vertex -17.174999 -17.900000 -9.825000
vertex -17.174999 -17.900000 0.000000
vertex -22.899998 -17.900000 0.000000
endloop
endfacet
facet normal 0.000000 -1.000000 0.000000
outer loop
vertex -17.174999 -17.900000 -9.825000
vertex -22.899998 -17.900000 0.000000
vertex -22.899998 -17.900000 -9.825000
endloop
endfacet
facet normal 0.000000 0.000000 -1.000000
outer loop
vertex 5.724999 8.950000 -19.650000
vertex 11.449999 8.950000 -19.650000
vertex 11.449999 0.000000 -19.650000
endloop
endfacet
facet normal 0.000000 0.000000 -1.000000
outer loop
vertex 5.724999 8.950000 -19.650000
vertex 11.449999 0.000000 -19.650000
vertex 5.724999 0.000000 -19.650000
endloop
endfacet
facet normal 0.000000 0.000000 -1.000000
outer loop
vertex 17.174997 8.950000 -19.650000
vertex 22.899998 8.950000 -19.650000
vertex 22.899998 0.000000 -19.650000
endloop
endfacet
facet normal 0.000000 0.000000 -1.000000
outer loop
vertex 17.174997 8.950000 -19.650000
vertex 22.899998 0.000000 -19.650000
vertex 17.174997 0.000000 -19.650000
endloop
endfacet
facet normal 0.000000 0.000000 1.000000
outer loop
vertex -5.724999 8.950000 19.650000
vertex -11.449999 8.950000 19.650000
vertex -11.449999 0.000000 19.650000
endloop
endfacet
facet normal 0.000000 0.000000 1.000000
outer loop
vertex -5.724999 8.950000 19.650000
vertex -11.449999 0.000000 19.650000
vertex -5.724999 0.000000 19.650000
endloop
endfacet
facet normal 0.000000 0.000000 1.000000
outer loop
vertex -17.174997 8.950000 19.650000
vertex -22.899998 8.950000 19.650000
vertex -22.899998 0.000000 19.650000
endloop
endfacet
facet normal 0.000000 0.000000 1.000000
outer loop
vertex -17.174997 8.950000 19.650000
vertex -22.899998 0.000000 19.650000
vertex -17.174997 0.000000 19.650000
endloop
endfacet
facet normal 0.000000 0.000000 1.000000
outer loop
vertex -5.724999 -8.950000 19.650000
vertex -11.449999 -8.950000 19.650000
vertex -11.450000 -17.900000 19.650000
endloop
endfacet
facet normal 0.000000 0.000000 1.000000
outer loop
vertex -5.724999 -8.950000 19.650000
vertex -11.450000 -17.900000 19.650000
vertex -5.725000 -17.900000 19.650000
endloop
endfacet
facet normal 0.000000 0.000000 1.000000
outer loop
vertex -17.174997 -8.950000 19.650000
vertex -22.899998 -8.950000 19.650000
vertex -22.899998 -17.900000 19.650000
endloop
endfacet
facet normal 0.000000 0.000000 1.000000
outer loop
vertex -17.174997 -8.950000 19.650000
vertex -22.899998 -17.900000 19.650000
vertex -17.174999 -17.900000 19.650000
endloop
endfacet
facet normal 0.000000 0.000000 -1.000000
outer loop
vertex 5.724999 -8.950000 -19.650000
vertex 11.449999 -8.950000 -19.650000
vertex 11.450000 -17.900000 -19.650000
endloop
endfacet
facet normal 0.000000 0.000000 -1.000000
outer loop
vertex 5.724999 -8.950000 -19.650000
vertex 11.450000 -17.900000 -19.650000
vertex 5.725000 -17.900000 -19.650000
endloop
endfacet
facet normal 0.000000 0.000000 -1.000000
outer loop
vertex 17.174997 -8.950000 -19.650000
vertex 22.899998 -8.950000 -19.650000
vertex 22.899998 -17.900000 -19.650000
endloop
endfacet
facet normal 0.000000 0.000000 -1.000000
outer loop
vertex 17.174997 -8.950000 -19.650000
vertex 22.899998 -17.900000 -19.650000
vertex 17.174999 -17.900000 -19.650000
endloop
endfacet
facet normal 0.000000 -1.000000 0.000000
outer loop
vertex -5.725000 -17.900000 9.825000
vertex -5.725000 -17.900000 19.650000
vertex -11.450000 -17.900000 19.650000
endloop
endfacet
facet normal 0.000000 -1.000000 0.000000
outer loop
vertex -5.725000 -17.900000 9.825000
vertex -11.450000 -17.900000 19.650000
vertex -11.450000 -17.900000 9.825000
endloop
endfacet
facet normal 0.000000 -1.000000 0.000000
outer loop
vertex -17.174999 -17.900000 9.825000
vertex -17.174999 -17.900000 19.650000
vertex -22.899998 -17.900000 19.650000
endloop
endfacet
facet normal 0.000000 -1.000000 0.000000
outer loop
vertex -17.174999 -17.900000 9.825000
vertex -22.899998 -17.900000 19.650000
vertex -22.899998 -17.900000 9.825000
endloop
endfacet
facet normal 0.000000 1.000000 0.000000
outer loop
vertex 5.725000 17.900000 9.825000
vertex 5.725000 17.900000 19.650000
vertex 11.450000 17.900000 19.650000
endloop
endfacet
facet normal 0.000000 1.000000 0.000000
outer loop
vertex 5.725000 17.900000 9.825000
vertex 11.450000 17.900000 19.650000
vertex 11.450000 17.900000 9.825000
endloop
endfacet
facet normal 0.000000 1.000000 0.000000
outer loop
vertex 17.174999 17.900000 9.825000
vertex 17.174999 17.900000 19.650000
vertex 22.899998 17.900000 19.650000
endloop
endfacet
facet normal 0.000000 1.000000 0.000000
outer loop
vertex 17.174999 17.900000 9.825000
vertex 22.899998 17.900000 19.650000
vertex 22.899998 17.900000 9.825000
endloop
endfacet
facet normal 0.000000 1.000000 0.000000
outer loop
vertex 11.450000 17.900000 9.825000
vertex 11.450000 17.900000 19.650000
vertex 17.174999 17.900000 19.650000
endloop
endfacet
facet normal 0.000000 1.000000 0.000000
outer loop
vertex 11.450000 17.900000 9.825000
vertex 17.174999 17.900000 19.650000
vertex 17.174999 17.900000 9.825000
endloop
endfacet
facet normal 0.000000 1.000000 0.000000
outer loop
vertex 0.000000 17.900000 9.825000
vertex 0.000000 17.900000 19.650000
vertex 5.725000 17.900000 19.650000
endloop
endfacet
facet normal 0.000000 1.000000 0.000000
outer loop
vertex 0.000000 17.900000 9.825000
vertex 5.725000 17.900000 19.650000
vertex 5.725000 17.900000 9.825000
endloop
endfacet
facet normal 0.000000 -1.000000 0.000000
outer loop
vertex -11.450000 -17.900000 9.825000
vertex -11.450000 -17.900000 19.650000
vertex -17.174999 -17.900000 19.650000
endloop
endfacet
facet normal 0.000000 -1.000000 0.000000
outer loop
vertex -11.450000 -17.900000 9.825000
vertex -17.174999 -17.900000 19.650000
vertex -17.174999 -17.900000 9.825000
endloop
endfacet
facet normal 0.000000 -1.000000 0.000000
outer loop
vertex 0.000000 -17.900000 9.825000
vertex 0.000000 -17.900000 19.650000
vertex -5.725000 -17.900000 19.650000
endloop
endfacet
facet normal 0.000000 -1.000000 0.000000
outer loop
vertex 0.000000 -17.900000 9.825000
vertex -5.725000 -17.900000 19.650000
vertex -5.725000 -17.900000 9.825000
endloop
endfacet
facet normal 0.000000 0.000000 -1.000000
outer loop
vertex 11.449999 -8.950000 -19.650000
vertex 17.174997 -8.950000 -19.650000
vertex 17.174999 -17.900000 -19.650000
endloop
endfacet
facet normal 0.000000 0.000000 -1.000000
outer loop
vertex 11.449999 -8.950000 -19.650000
vertex 17.174999 -17.900000 -19.650000
vertex 11.450000 -17.900000 -19.650000
endloop
endfacet
facet normal 0.000000 0.000000 -1.000000
outer loop
vertex 0.000000 -8.950000 -19.650000
vertex 5.724999 -8.950000 -19.650000
vertex 5.725000 -17.900000 -19.650000
endloop
endfacet
facet normal 0.000000 0.000000 -1.000000
outer loop
vertex 0.000000 -8.950000 -19.650000
vertex 5.725000 -17.900000 -19.650000
vertex 0.000000 -17.900000 -19.650000
endloop
endfacet
facet normal 0.000000 0.000000 1.000000
outer loop
vertex -11.449999 -8.950000 19.650000
vertex -17.174997 -8.950000 19.650000
vertex -17.174999 -17.900000 19.650000
endloop
endfacet
facet normal 0.000000 0.000000 1.000000
outer loop
vertex -11.449999 -8.950000 19.650000
vertex -17.174999 -17.900000 19.650000
vertex -11.450000 -17.900000 19.650000
endloop
endfacet
facet normal 0.000000 0.000000 1.000000
outer loop
vertex 0.000000 -8.950000 19.650000
vertex -5.724999 -8.950000 19.650000
vertex -5.725000 -17.900000 19.650000
endloop
endfacet
facet normal 0.000000 0.000000 1.000000
outer loop
vertex 0.000000 -8.950000 19.650000
vertex -5.725000 -17.900000 19.650000
vertex 0.000000 -17.900000 19.650000
endloop
endfacet
facet normal 0.000000 0.000000 1.000000
outer loop
vertex -11.449999 8.950000 19.650000
vertex -17.174997 8.950000 19.650000
vertex -17.174997 0.000000 19.650000
endloop
endfacet
facet normal 0.000000 0.000000 1.000000
outer loop
vertex -11.449999 8.950000 19.650000
vertex -17.174997 0.000000 19.650000
vertex -11.449999 0.000000 19.650000
endloop
endfacet
facet normal 0.000000 0.000000 1.000000
outer loop
vertex 0.000000 8.950000 19.650000
vertex -5.724999 8.950000 19.650000
vertex -5.724999 0.000000 19.650000
endloop
endfacet
facet normal 0.000000 0.000000 1.000000
outer loop
vertex 0.000000 8.950000 19.650000
vertex -5.724999 0.000000 19.650000
vertex 0.000000 0.000000 19.650000
endloop
endfacet
facet normal 0.000000 0.000000 -1.000000
outer loop
vertex 11.449999 8.950000 -19.650000
vertex 17.174997 8.950000 -19.650000
vertex 17.174997 0.000000 -19.650000
endloop
endfacet
facet normal 0.000000 0.000000 -1.000000
outer loop
vertex 11.449999 8.950000 -19.650000
vertex 17.174997 0.000000 -19.650000
vertex 11.449999 0.000000 -19.650000
endloop
endfacet
facet normal 0.000000 0.000000 -1.000000
outer loop
vertex 0.000000 8.950000 -19.650000
vertex 5.724999 8.950000 -19.650000
vertex 5.724999 0.000000 -19.650000
endloop
endfacet
facet normal 0.000000 0.000000 -1.000000
outer loop
vertex 0.000000 8.950000 -19.650000
vertex 5.724999 0.000000 -19.650000
vertex 0.000000 0.000000 -19.650000
endloop
endfacet
facet normal 0.000000 -1.000000 0.000000
outer loop
vertex -11.450000 -17.900000 -9.825000
vertex -11.450000 -17.900000 0.000000
vertex -17.174999 -17.900000 0.000000
endloop
endfacet
facet normal 0.000000 -1.000000 0.000000
outer loop
vertex -11.450000 -17.900000 -9.825000
vertex -17.174999 -17.900000 0.000000
vertex -17.174999 -17.900000 -9.825000
endloop
endfacet
facet normal 0.000000 -1.000000 0.000000
outer loop
vertex 0.000000 -17.900000 -9.825000
vertex 0.000000 -17.900000 0.000000
vertex -5.725000 -17.900000 0.000000
endloop
endfacet
facet normal 0.000000 -1.000000 0.000000
outer loop
vertex 0.000000 -17.900000 -9.825000
vertex -5.725000 -17.900000 0.000000
vertex -5.725000 -17.900000 -9.825000
endloop
endfacet
facet normal 0.000000 1.000000 0.000000
outer loop
vertex 11.450000 17.900000 -9.825000
vertex 11.450000 17.900000 0.000000
vertex 17.174999 17.900000 0.000000
endloop
endfacet
facet normal 0.000000 1.000000 0.000000
outer loop
vertex 11.450000 17.900000 -9.825000
vertex 17.174999 17.900000 0.000000
vertex 17.174999 17.900000 -9.825000
endloop
endfacet
facet normal 0.000000 1.000000 0.000000
outer loop
vertex 0.000000 17.900000 -9.825000
vertex 0.000000 17.900000 0.000000
vertex 5.725000 17.900000 0.000000
endloop
endfacet
facet normal 0.000000 1.000000 0.000000
outer loop
vertex 0.000000 17.900000 -9.825000
vertex 5.725000 17.900000 0.000000
vertex 5.725000 17.900000 -9.825000
endloop
endfacet
facet normal 0.000000 1.000000 0.000000
outer loop
vertex 11.449999 17.900000 -19.650000
vertex 11.450000 17.900000 -9.825000
vertex 17.174999 17.900000 -9.825000
endloop
endfacet
facet normal 0.000000 1.000000 0.000000
outer loop
vertex 11.449999 17.900000 -19.650000
vertex 17.174999 17.900000 -9.825000
vertex 17.174997 17.900000 -19.650000
endloop
endfacet
facet normal 0.000000 1.000000 0.000000
outer loop
vertex 0.000000 17.900000 -19.650000
vertex 0.000000 17.900000 -9.825000
vertex 5.725000 17.900000 -9.825000
endloop
endfacet
facet normal 0.000000 1.000000 0.000000
outer loop
vertex 0.000000 17.900000 -19.650000
vertex 5.725000 17.900000 -9.825000
vertex 5.724999 17.900000 -19.650000
endloop
endfacet
facet normal 0.000000 1.000000 0.000000
outer loop
vertex -22.899998 17.900000 -19.650000
vertex -22.899998 17.900000 -9.825000
vertex -17.174997 17.900000 -9.825000
endloop
endfacet
facet normal 0.000000 1.000000 0.000000
outer loop
vertex -22.899998 17.900000 -19.650000
vertex -17.174997 17.900000 -9.825000
vertex -17.174999 17.900000 -19.650000
endloop
endfacet
facet normal 0.000000 1.000000 0.000000
outer loop
vertex -34.349998 17.900000 -19.650000
vertex -34.349998 17.900000 -9.825000
vertex -28.624998 17.900000 -9.825000
endloop
endfacet
facet normal 0.000000 1.000000 0.000000
outer loop
vertex -34.349998 17.900000 -19.650000
vertex -28.624998 17.900000 -9.825000
vertex -28.624998 17.900000 -19.650000
endloop
endfacet
facet normal 0.000000 1.000000 0.000000
outer loop
vertex -22.899998 17.900000 -9.825000
vertex -22.899998 17.900000 0.000000
vertex -17.174997 17.900000 0.000000
endloop
endfacet
facet normal 0.000000 1.000000 0.000000
outer loop
vertex -22.899998 17.900000 -9.825000
vertex -17.174997 17.900000 0.000000
vertex -17.174997 17.900000 -9.825000
endloop
endfacet
facet normal 0.000000 1.000000 0.000000
outer loop
vertex -34.349998 17.900000 -9.825000
vertex -34.349998 17.900000 0.000000
vertex -28.624998 17.900000 0.000000
endloop
endfacet
facet normal 0.000000 1.000000 0.000000
outer loop
vertex -34.349998 17.900000 -9.825000
vertex -28.624998 17.900000 0.000000
vertex -28.624998 17.900000 -9.825000
endloop
endfacet
facet normal 0.000000 -1.000000 0.000000
outer loop
vertex -11.449999 -17.900000 -19.650000
vertex -11.450000 -17.900000 -9.825000
vertex -17.174999 -17.900000 -9.825000
endloop
endfacet
facet normal 0.000000 -1.000000 0.000000
outer loop
vertex -11.449999 -17.900000 -19.650000
vertex -17.174999 -17.900000 -9.825000
vertex -17.174997 -17.900000 -19.650000
endloop
endfacet
facet normal 0.000000 -1.000000 0.000000
outer loop
vertex 0.000000 -17.900000 -19.650000
vertex 0.000000 -17.900000 -9.825000
vertex -5.725000 -17.900000 -9.825000
endloop
endfacet
facet normal 0.000000 -1.000000 0.000000
outer loop
vertex 0.000000 -17.900000 -19.650000
vertex -5.725000 -17.900000 -9.825000
vertex -5.724999 -17.900000 -19.650000
endloop
endfacet
facet normal 0.000000 -1.000000 0.000000
outer loop
vertex 22.899998 -17.900000 -19.650000
vertex 22.899998 -17.900000 -9.825000
vertex 17.174997 -17.900000 -9.825000
endloop
endfacet
facet normal 0.000000 -1.000000 0.000000
outer loop
vertex 22.899998 -17.900000 -19.650000
vertex 17.174997 -17.900000 -9.825000
vertex 17.174999 -17.900000 -19.650000
endloop
endfacet
facet normal 0.000000 -1.000000 0.000000
outer loop
vertex 34.349998 -17.900000 -19.650000
vertex 34.349998 -17.900000 -9.825000
vertex 28.624998 -17.900000 -9.825000
endloop
endfacet
facet normal 0.000000 -1.000000 0.000000
outer loop
vertex 34.349998 -17.900000 -19.650000
vertex 28.624998 -17.900000 -9.825000
vertex 28.624998 -17.900000 -19.650000
endloop
endfacet
facet normal 0.000000 -1.000000 0.000000
outer loop
vertex 22.899998 -17.900000 -9.825000
vertex 22.899998 -17.900000 0.000000
vertex 17.174997 -17.900000 0.000000
endloop
endfacet
facet normal 0.000000 -1.000000 0.000000
outer loop
vertex 22.899998 -17.900000 -9.825000
vertex 17.174997 -17.900000 0.000000
vertex 17.174997 -17.900000 -9.825000
endloop
endfacet
facet normal 0.000000 -1.000000 0.000000
outer loop
vertex 34.349998 -17.900000 -9.825000
vertex 34.349998 -17.900000 0.000000
vertex 28.624998 -17.900000 0.000000
endloop
endfacet
facet normal 0.000000 -1.000000 0.000000
outer loop
vertex 34.349998 -17.900000 -9.825000
vertex 28.624998 -17.900000 0.000000
vertex 28.624998 -17.900000 -9.825000
endloop
endfacet
facet normal 0.000000 0.000000 -1.000000
outer loop
vertex -22.899998 8.950000 -19.650000
vertex -17.174999 8.950000 -19.650000
vertex -17.174999 0.000000 -19.650000
endloop
endfacet
facet normal 0.000000 0.000000 -1.000000
outer loop
vertex -22.899998 8.950000 -19.650000
vertex -17.174999 0.000000 -19.650000
vertex -22.899998 0.000000 -19.650000
endloop
endfacet
facet normal 0.000000 0.000000 -1.000000
outer loop
vertex -34.349998 8.950000 -19.650000
vertex -28.624998 8.950000 -19.650000
vertex -28.624998 0.000000 -19.650000
endloop
endfacet
facet normal 0.000000 0.000000 -1.000000
outer loop
vertex -34.349998 8.950000 -19.650000
vertex -28.624998 0.000000 -19.650000
vertex -34.349998 0.000000 -19.650000
endloop
endfacet
facet normal 0.000000 0.000000 -1.000000
outer loop
vertex -22.899998 17.900000 -19.650000
vertex -17.174999 17.900000 -19.650000
vertex -17.174999 8.950000 -19.650000
endloop
endfacet
facet normal 0.000000 0.000000 -1.000000
outer loop
vertex -22.899998 17.900000 -19.650000
vertex -17.174999 8.950000 -19.650000
vertex -22.899998 8.950000 -19.650000
endloop
endfacet
facet normal 0.000000 0.000000 -1.000000
outer loop
vertex -34.349998 17.900000 -19.650000
vertex -28.624998 17.900000 -19.650000
vertex -28.624998 8.950000 -19.650000
endloop
endfacet
facet normal 0.000000 0.000000 -1.000000
outer loop
vertex -34.349998 17.900000 -19.650000
vertex -28.624998 8.950000 -19.650000
vertex -34.349998 8.950000 -19.650000
endloop
endfacet
facet normal 0.000000 0.000000 -1.000000
outer loop
vertex 11.449999 17.900000 -19.650000
vertex 17.174997 17.900000 -19.650000
vertex 17.174997 8.950000 -19.650000
endloop
endfacet
facet normal 0.000000 0.000000 -1.000000
outer loop
vertex 11.449999 17.900000 -19.650000
vertex 17.174997 8.950000 -19.650000
vertex 11.449999 8.950000 -19.650000
endloop
endfacet
facet normal 0.000000 0.000000 -1.000000
outer loop
vertex 0.000000 17.900000 -19.650000
vertex 5.724999 17.900000 -19.650000
vertex 5.724999 8.950000 -19.650000
endloop
endfacet
facet normal 0.000000 0.000000 -1.000000
outer loop
vertex 0.000000 17.900000 -19.650000
vertex 5.724999 8.950000 -19.650000
vertex 0.000000 8.950000 -19.650000
endloop
endfacet
facet normal 0.000000 0.000000 1.000000
outer loop
vertex 22.899998 8.950000 19.650000
vertex 17.174999 8.950000 19.650000
vertex 17.174999 0.000000 19.650000
endloop
endfacet
facet normal 0.000000 0.000000 1.000000
outer loop
vertex 22.899998 8.950000 19.650000
vertex 17.174999 0.000000 19.650000
vertex 22.899998 0.000000 19.650000
endloop
endfacet
facet normal 0.000000 0.000000 1.000000
outer loop
vertex 34.349998 8.950000 19.650000
vertex 28.624998 8.950000 19.650000
vertex 28.624998 0.000000 19.650000
endloop
endfacet
facet normal 0.000000 0.000000 1.000000
outer loop
vertex 34.349998 8.950000 19.650000
vertex 28.624998 0.000000 19.650000
vertex 34.349998 0.000000 19.650000
endloop
endfacet
facet normal 0.000000 0.000000 1.000000
outer loop
vertex 22.899998 17.900000 19.650000
vertex 17.174999 17.900000 19.650000
vertex 17.174999 8.950000 19.650000
endloop
endfacet
facet normal 0.000000 0.000000 1.000000
outer loop
vertex 22.899998 17.900000 19.650000
vertex 17.174999 8.950000 19.650000
vertex 22.899998 8.950000 19.650000
endloop
endfacet
facet normal 0.000000 0.000000 1.000000
outer loop
vertex 34.349998 17.900000 19.650000
vertex 28.624998 17.900000 19.650000
vertex 28.624998 8.950000 19.650000
endloop
endfacet
facet normal 0.000000 0.000000 1.000000
outer loop
vertex 34.349998 17.900000 19.650000
vertex 28.624998 8.950000 19.650000
vertex 34.349998 8.950000 19.650000
endloop
endfacet
facet normal 0.000000 0.000000 1.000000
outer loop
vertex -11.449999 17.900000 19.650000
vertex -17.174997 17.900000 19.650000
vertex -17.174997 8.950000 19.650000
endloop
endfacet
facet normal 0.000000 0.000000 1.000000
outer loop
vertex -11.449999 17.900000 19.650000
vertex -17.174997 8.950000 19.650000
vertex -11.449999 8.950000 19.650000
endloop
endfacet
facet normal 0.000000 0.000000 1.000000
outer loop
vertex 0.000000 17.900000 19.650000
vertex -5.724999 17.900000 19.650000
vertex -5.724999 8.950000 19.650000
endloop
endfacet
facet normal 0.000000 0.000000 1.000000
outer loop
vertex 0.000000 17.900000 19.650000
vertex -5.724999 8.950000 19.650000
vertex 0.000000 8.950000 19.650000
endloop
endfacet
facet normal 0.000000 0.000000 1.000000
outer loop
vertex 22.899998 -8.950000 19.650000
vertex 17.174999 -8.950000 19.650000
vertex 17.174997 -17.900000 19.650000
endloop
endfacet
facet normal 0.000000 0.000000 1.000000
outer loop
vertex 22.899998 -8.950000 19.650000
vertex 17.174997 -17.900000 19.650000
vertex 22.899998 -17.900000 19.650000
endloop
endfacet
facet normal 0.000000 0.000000 1.000000
outer loop
vertex 34.349998 -8.950000 19.650000
vertex 28.624998 -8.950000 19.650000
vertex 28.624998 -17.900000 19.650000
endloop
endfacet
facet normal 0.000000 0.000000 1.000000
outer loop
vertex 34.349998 -8.950000 19.650000
vertex 28.624998 -17.900000 19.650000
vertex 34.349998 -17.900000 19.650000
endloop
endfacet
facet normal 0.000000 0.000000 1.000000
outer loop
vertex 22.899998 0.000000 19.650000
vertex 17.174999 0.000000 19.650000
vertex 17.174999 -8.950000 19.650000
endloop
endfacet
facet normal 0.000000 0.000000 1.000000
outer loop
vertex 22.899998 0.000000 19.650000
vertex 17.174999 -8.950000 19.650000
vertex 22.899998 -8.950000 19.650000
endloop
endfacet
facet normal 0.000000 0.000000 1.000000
outer loop
vertex 34.349998 0.000000 19.650000
vertex 28.624998 0.000000 19.650000
vertex 28.624998 -8.950000 19.650000
endloop
endfacet
facet normal 0.000000 0.000000 1.000000
outer loop
vertex 34.349998 0.000000 19.650000
vertex 28.624998 -8.950000 19.650000
vertex 34.349998 -8.950000 19.650000
endloop
endfacet
facet normal 0.000000 0.000000 1.000000
outer loop
vertex -11.449999 0.000000 19.650000
vertex -17.174997 0.000000 19.650000
vertex -17.174997 -8.950000 19.650000
endloop
endfacet
facet normal 0.000000 0.000000 1.000000
outer loop
vertex -11.449999 0.000000 19.650000
vertex -17.174997 -8.950000 19.650000
vertex -11.449999 -8.950000 19.650000
endloop
endfacet
facet normal 0.000000 0.000000 1.000000
outer loop
vertex 0.000000 0.000000 19.650000
vertex -5.724999 0.000000 19.650000
vertex -5.724999 -8.950000 19.650000
endloop
endfacet
facet normal 0.000000 0.000000 1.000000
outer loop
vertex 0.000000 0.000000 19.650000
vertex -5.724999 -8.950000 19.650000
vertex 0.000000 -8.950000 19.650000
endloop
endfacet
facet normal 0.000000 0.000000 -1.000000
outer loop
vertex -22.899998 -8.950000 -19.650000
vertex -17.174999 -8.950000 -19.650000
vertex -17.174997 -17.900000 -19.650000
endloop
endfacet
facet normal 0.000000 0.000000 -1.000000
outer loop
vertex -22.899998 -8.950000 -19.650000
vertex -17.174997 -17.900000 -19.650000
vertex -22.899998 -17.900000 -19.650000
endloop
endfacet
facet normal 0.000000 0.000000 -1.000000
outer loop
vertex -34.349998 -8.950000 -19.650000
vertex -28.624998 -8.950000 -19.650000
vertex -28.624998 -17.900000 -19.650000
endloop
endfacet
facet normal 0.000000 0.000000 -1.000000
outer loop
vertex -34.349998 -8.950000 -19.650000
vertex -28.624998 -17.900000 -19.650000
vertex -34.349998 -17.900000 -19.650000
endloop
endfacet
facet normal 0.000000 0.000000 -1.000000
outer loop
vertex -22.899998 0.000000 -19.650000
vertex -17.174999 0.000000 -19.650000
vertex -17.174999 -8.950000 -19.650000
endloop
endfacet
facet normal 0.000000 0.000000 -1.000000
outer loop
vertex -22.899998 0.000000 -19.650000
vertex -17.174999 -8.950000 -19.650000
vertex -22.899998 -8.950000 -19.650000
endloop
endfacet
facet normal 0.000000 0.000000 -1.000000
outer loop
vertex -34.349998 0.000000 -19.650000
vertex -28.624998 0.000000 -19.650000
vertex -28.624998 -8.950000 -19.650000
endloop
endfacet
facet normal 0.000000 0.000000 -1.000000
outer loop
vertex -34.349998 0.000000 -19.650000
vertex -28.624998 -8.950000 -19.650000
vertex -34.349998 -8.950000 -19.650000
endloop
endfacet
facet normal 0.000000 0.000000 -1.000000
outer loop
vertex 11.449999 0.000000 -19.650000
vertex 17.174997 0.000000 -19.650000
vertex 17.174997 -8.950000 -19.650000
endloop
endfacet
facet normal 0.000000 0.000000 -1.000000
outer loop
vertex 11.449999 0.000000 -19.650000
vertex 17.174997 -8.950000 -19.650000
vertex 11.449999 -8.950000 -19.650000
endloop
endfacet
facet normal 0.000000 0.000000 -1.000000
outer loop
vertex 0.000000 0.000000 -19.650000
vertex 5.724999 0.000000 -19.650000
vertex 5.724999 -8.950000 -19.650000
endloop
endfacet
facet normal 0.000000 0.000000 -1.000000
outer loop
vertex 0.000000 0.000000 -19.650000
vertex 5.724999 -8.950000 -19.650000
vertex 0.000000 -8.950000 -19.650000
endloop
endfacet
facet normal 0.000000 -1.000000 0.000000
outer loop
vertex -11.450000 -17.900000 0.000000
vertex -11.450000 -17.900000 9.825000
vertex -17.174999 -17.900000 9.825000
endloop
endfacet
facet normal 0.000000 -1.000000 0.000000
outer loop
vertex -11.450000 -17.900000 0.000000
vertex -17.174999 -17.900000 9.825000
vertex -17.174999 -17.900000 0.000000
endloop
endfacet
facet normal 0.000000 -1.000000 0.000000
outer loop
vertex 0.000000 -17.900000 0.000000
vertex 0.000000 -17.900000 9.825000
vertex -5.725000 -17.900000 9.825000
endloop
endfacet
facet normal 0.000000 -1.000000 0.000000
outer loop
vertex 0.000000 -17.900000 0.000000
vertex -5.725000 -17.900000 9.825000
vertex -5.725000 -17.900000 0.000000
endloop
endfacet
facet normal 0.000000 -1.000000 0.000000
outer loop
vertex 22.899998 -17.900000 0.000000
vertex 22.899998 -17.900000 9.825000
vertex 17.174997 -17.900000 9.825000
endloop
endfacet
facet normal 0.000000 -1.000000 0.000000
outer loop
vertex 22.899998 -17.900000 0.000000
vertex 17.174997 -17.900000 9.825000
vertex 17.174997 -17.900000 0.000000
endloop
endfacet
facet normal 0.000000 -1.000000 0.000000
outer loop
vertex 34.349998 -17.900000 0.000000
vertex 34.349998 -17.900000 9.825000
vertex 28.624998 -17.900000 9.825000
endloop
endfacet
facet normal 0.000000 -1.000000 0.000000
outer loop
vertex 34.349998 -17.900000 0.000000
vertex 28.624998 -17.900000 9.825000
vertex 28.624998 -17.900000 0.000000
endloop
endfacet
facet normal 0.000000 -1.000000 0.000000
outer loop
vertex 22.899998 -17.900000 9.825000
vertex 22.899998 -17.900000 19.650000
vertex 17.174997 -17.900000 19.650000
endloop
endfacet
facet normal 0.000000 -1.000000 0.000000
outer loop
vertex 22.899998 -17.900000 9.825000
vertex 17.174997 -17.900000 19.650000
vertex 17.174997 -17.900000 9.825000
endloop
endfacet
facet normal 0.000000 -1.000000 0.000000
outer loop
vertex 34.349998 -17.900000 9.825000
vertex 34.349998 -17.900000 19.650000
vertex 28.624998 -17.900000 19.650000
endloop
endfacet
facet normal 0.000000 -1.000000 0.000000
outer loop
vertex 34.349998 -17.900000 9.825000
vertex 28.624998 -17.900000 19.650000
vertex 28.624998 -17.900000 9.825000
endloop
endfacet
facet normal 0.000000 1.000000 0.000000
outer loop
vertex 11.450000 17.900000 0.000000
vertex 11.450000 17.900000 9.825000
vertex 17.174999 17.900000 9.825000
endloop
endfacet
facet normal 0.000000 1.000000 0.000000
outer loop
vertex 11.450000 17.900000 0.000000
vertex 17.174999 17.900000 9.825000
vertex 17.174999 17.900000 0.000000
endloop
endfacet
facet normal 0.000000 1.000000 0.000000
outer loop
vertex 0.000000 17.900000 0.000000
vertex 0.000000 17.900000 9.825000
vertex 5.725000 17.900000 9.825000
endloop
endfacet
facet normal 0.000000 1.000000 0.000000
outer loop
vertex 0.000000 17.900000 0.000000
vertex 5.725000 17.900000 9.825000
vertex 5.725000 17.900000 0.000000
endloop
endfacet
facet normal 0.000000 1.000000 0.000000
outer loop
vertex -22.899998 17.900000 0.000000
vertex -22.899998 17.900000 9.825000
vertex -17.174997 17.900000 9.825000
endloop
endfacet
facet normal 0.000000 1.000000 0.000000
outer loop
vertex -22.899998 17.900000 0.000000
vertex -17.174997 17.900000 9.825000
vertex -17.174997 17.900000 0.000000
endloop
endfacet
facet normal 0.000000 1.000000 0.000000
outer loop
vertex -34.349998 17.900000 0.000000
vertex -34.349998 17.900000 9.825000
vertex -28.624998 17.900000 9.825000
endloop
endfacet
facet normal 0.000000 1.000000 0.000000
outer loop
vertex -34.349998 17.900000 0.000000
vertex -28.624998 17.900000 9.825000
vertex -28.624998 17.900000 0.000000
endloop
endfacet
facet normal 0.000000 1.000000 0.000000
outer loop
vertex -22.899998 17.900000 9.825000
vertex -22.899998 17.900000 19.650000
vertex -17.174997 17.900000 19.650000
endloop
endfacet
facet normal 0.000000 1.000000 0.000000
outer loop
vertex -22.899998 17.900000 9.825000
vertex -17.174997 17.900000 19.650000
vertex -17.174997 17.900000 9.825000
endloop
endfacet
facet normal 0.000000 1.000000 0.000000
outer loop
vertex -34.349998 17.900000 9.825000
vertex -34.349998 17.900000 19.650000
vertex -28.624998 17.900000 19.650000
endloop
endfacet
facet normal 0.000000 1.000000 0.000000
outer loop
vertex -34.349998 17.900000 9.825000
vertex -28.624998 17.900000 19.650000
vertex -28.624998 17.900000 9.825000
endloop
endfacet
facet normal 0.000000 1.000000 0.000000
outer loop
vertex -11.449999 17.900000 9.825000
vertex -11.449999 17.900000 19.650000
vertex -5.724999 17.900000 19.650000
endloop
endfacet
facet normal 0.000000 1.000000 0.000000
outer loop
vertex -11.449999 17.900000 9.825000
vertex -5.724999 17.900000 19.650000
vertex -5.724999 17.900000 9.825000
endloop
endfacet
facet normal 0.000000 1.000000 0.000000
outer loop
vertex -11.449999 17.900000 0.000000
vertex -11.449999 17.900000 9.825000
vertex -5.724999 17.900000 9.825000
endloop
endfacet
facet normal 0.000000 1.000000 0.000000
outer loop
vertex -11.449999 17.900000 0.000000
vertex -5.724999 17.900000 9.825000
vertex -5.724999 17.900000 0.000000
endloop
endfacet
facet normal 0.000000 1.000000 0.000000
outer loop
vertex 22.899998 17.900000 0.000000
vertex 22.899998 17.900000 9.825000
vertex 28.624998 17.900000 9.825000
endloop
endfacet
facet normal 0.000000 1.000000 0.000000
outer loop
vertex 22.899998 17.900000 0.000000
vertex 28.624998 17.900000 9.825000
vertex 28.624998 17.900000 0.000000
endloop
endfacet
facet normal 0.000000 -1.000000 0.000000
outer loop
vertex 11.449999 -17.900000 9.825000
vertex 11.449999 -17.900000 19.650000
vertex 5.724999 -17.900000 19.650000
endloop
endfacet
facet normal 0.000000 -1.000000 0.000000
outer loop
vertex 11.449999 -17.900000 9.825000
vertex 5.724999 -17.900000 19.650000
vertex 5.724999 -17.900000 9.825000
endloop
endfacet
facet normal 0.000000 -1.000000 0.000000
outer loop
vertex 11.449999 -17.900000 0.000000
vertex 11.449999 -17.900000 9.825000
vertex 5.724999 -17.900000 9.825000
endloop
endfacet
facet normal 0.000000 -1.000000 0.000000
outer loop
vertex 11.449999 -17.900000 0.000000
vertex 5.724999 -17.900000 9.825000
vertex 5.724999 -17.900000 0.000000
endloop
endfacet
facet normal 0.000000 -1.000000 0.000000
outer loop
vertex -22.899998 -17.900000 0.000000
vertex -22.899998 -17.900000 9.825000
vertex -28.624998 -17.900000 9.825000
endloop
endfacet
facet normal 0.000000 -1.000000 0.000000
outer loop
vertex -22.899998 -17.900000 0.000000
vertex -28.624998 -17.900000 9.825000
vertex -28.624998 -17.900000 0.000000
endloop
endfacet
facet normal 0.000000 0.000000 -1.000000
outer loop
vertex 22.899998 0.000000 -19.650000
vertex 28.624998 0.000000 -19.650000
vertex 28.624998 -8.950000 -19.650000
endloop
endfacet
facet normal 0.000000 0.000000 -1.000000
outer loop
vertex 22.899998 0.000000 -19.650000
vertex 28.624998 -8.950000 -19.650000
vertex 22.899998 -8.950000 -19.650000
endloop
endfacet
facet normal 0.000000 0.000000 -1.000000
outer loop
vertex -11.450000 0.000000 -19.650000
vertex -5.725000 0.000000 -19.650000
vertex -5.725000 -8.950000 -19.650000
endloop
endfacet
facet normal 0.000000 0.000000 -1.000000
outer loop
vertex -11.450000 0.000000 -19.650000
vertex -5.725000 -8.950000 -19.650000
vertex -11.450000 -8.950000 -19.650000
endloop
endfacet
facet normal 0.000000 0.000000 -1.000000
outer loop
vertex -11.450000 -8.950000 -19.650000
vertex -5.725000 -8.950000 -19.650000
vertex -5.724999 -17.900000 -19.650000
endloop
endfacet
facet normal 0.000000 0.000000 -1.000000
outer loop
vertex -11.450000 -8.950000 -19.650000
vertex -5.724999 -17.900000 -19.650000
vertex -11.449999 -17.900000 -19.650000
endloop
endfacet
facet normal 0.000000 0.000000 1.000000
outer loop
vertex -22.899998 0.000000 19.650000
vertex -28.624998 0.000000 19.650000
vertex -28.624998 -8.950000 19.650000
endloop
endfacet
facet normal 0.000000 0.000000 1.000000
outer loop
vertex -22.899998 0.000000 19.650000
vertex -28.624998 -8.950000 19.650000
vertex -22.899998 -8.950000 19.650000
endloop
endfacet
facet normal 0.000000 0.000000 1.000000
outer loop
vertex 11.450000 0.000000 19.650000
vertex 5.725000 0.000000 19.650000
vertex 5.725000 -8.950000 19.650000
endloop
endfacet
facet normal 0.000000 0.000000 1.000000
outer loop
vertex 11.450000 0.000000 19.650000
vertex 5.725000 -8.950000 19.650000
vertex 11.450000 -8.950000 19.650000
endloop
endfacet
facet normal 0.000000 0.000000 1.000000
outer loop
vertex 11.450000 -8.950000 19.650000
vertex 5.725000 -8.950000 19.650000
vertex 5.724999 -17.900000 19.650000
endloop
endfacet
facet normal 0.000000 0.000000 1.000000
outer loop
vertex 11.450000 -8.950000 19.650000
vertex 5.724999 -17.900000 19.650000
vertex 11.449999 -17.900000 19.650000
endloop
endfacet
facet normal 0.000000 0.000000 1.000000
outer loop
vertex -22.899998 17.900000 19.650000
vertex -28.624998 17.900000 19.650000
vertex -28.624998 8.950000 19.650000
endloop
endfacet
facet normal 0.000000 0.000000 1.000000
outer loop
vertex -22.899998 17.900000 19.650000
vertex -28.624998 8.950000 19.650000
vertex -22.899998 8.950000 19.650000
endloop
endfacet
facet normal 0.000000 0.000000 1.000000
outer loop
vertex 11.450000 17.900000 19.650000
vertex 5.725000 17.900000 19.650000
vertex 5.725000 8.950000 19.650000
endloop
endfacet
facet normal 0.000000 0.000000 1.000000
outer loop
vertex 11.450000 17.900000 19.650000
vertex 5.725000 8.950000 19.650000
vertex 11.450000 8.950000 19.650000
endloop
endfacet
facet normal 0.000000 0.000000 1.000000
outer loop
vertex 11.450000 8.950000 19.650000
vertex 5.725000 8.950000 19.650000
vertex 5.725000 0.000000 19.650000
endloop
endfacet
facet normal 0.000000 0.000000 1.000000
outer loop
vertex 11.450000 8.950000 19.650000
vertex 5.725000 0.000000 19.650000
vertex 11.450000 0.000000 19.650000
endloop
endfacet
facet normal 0.000000 0.000000 -1.000000
outer loop
vertex 22.899998 17.900000 -19.650000
vertex 28.624998 17.900000 -19.650000
vertex 28.624998 8.950000 -19.650000
endloop
endfacet
facet normal 0.000000 0.000000 -1.000000
outer loop
vertex 22.899998 17.900000 -19.650000
vertex 28.624998 8.950000 -19.650000
vertex 22.899998 8.950000 -19.650000
endloop
endfacet
facet normal 0.000000 0.000000 -1.000000
outer loop
vertex -11.450000 17.900000 -19.650000
vertex -5.725000 17.900000 -19.650000
vertex -5.725000 8.950000 -19.650000
endloop
endfacet
facet normal 0.000000 0.000000 -1.000000
outer loop
vertex -11.450000 17.900000 -19.650000
vertex -5.725000 8.950000 -19.650000
vertex -11.450000 8.950000 -19.650000
endloop
endfacet
facet normal 0.000000 0.000000 -1.000000
outer loop
vertex -11.450000 8.950000 -19.650000
vertex -5.725000 8.950000 -19.650000
vertex -5.725000 0.000000 -19.650000
endloop
endfacet
facet normal 0.000000 0.000000 -1.000000
outer loop
vertex -11.450000 8.950000 -19.650000
vertex -5.725000 0.000000 -19.650000
vertex -11.450000 0.000000 -19.650000
endloop
endfacet
facet normal 0.000000 -1.000000 0.000000
outer loop
vertex 11.449999 -17.900000 -9.825000
vertex 11.449999 -17.900000 0.000000
vertex 5.724999 -17.900000 0.000000
endloop
endfacet
facet normal 0.000000 -1.000000 0.000000
outer loop
vertex 11.449999 -17.900000 -9.825000
vertex 5.724999 -17.900000 0.000000
vertex 5.724999 -17.900000 -9.825000
endloop
endfacet
facet normal 0.000000 -1.000000 0.000000
outer loop
vertex 11.450000 -17.900000 -19.650000
vertex 11.449999 -17.900000 -9.825000
vertex 5.724999 -17.900000 -9.825000
endloop
endfacet
facet normal 0.000000 -1.000000 0.000000
outer loop
vertex 11.450000 -17.900000 -19.650000
vertex 5.724999 -17.900000 -9.825000
vertex 5.725000 -17.900000 -19.650000
endloop
endfacet
facet normal 0.000000 -1.000000 0.000000
outer loop
vertex -22.899998 -17.900000 -19.650000
vertex -22.899998 -17.900000 -9.825000
vertex -28.624998 -17.900000 -9.825000
endloop
endfacet
facet normal 0.000000 -1.000000 0.000000
outer loop
vertex -22.899998 -17.900000 -19.650000
vertex -28.624998 -17.900000 -9.825000
vertex -28.624998 -17.900000 -19.650000
endloop
endfacet
facet normal 0.000000 1.000000 0.000000
outer loop
vertex -11.449999 17.900000 -9.825000
vertex -11.449999 17.900000 0.000000
vertex -5.724999 17.900000 0.000000
endloop
endfacet
facet normal 0.000000 1.000000 0.000000
outer loop
vertex -11.449999 17.900000 -9.825000
vertex -5.724999 17.900000 0.000000
vertex -5.724999 17.900000 -9.825000
endloop
endfacet
facet normal 0.000000 1.000000 0.000000
outer loop
vertex -11.450000 17.900000 -19.650000
vertex -11.449999 17.900000 -9.825000
vertex -5.724999 17.900000 -9.825000
endloop
endfacet
facet normal 0.000000 1.000000 0.000000
outer loop
vertex -11.450000 17.900000 -19.650000
vertex -5.724999 17.900000 -9.825000
vertex -5.725000 17.900000 -19.650000
endloop
endfacet
facet normal 0.000000 1.000000 0.000000
outer loop
vertex 22.899998 17.900000 -19.650000
vertex 22.899998 17.900000 -9.825000
vertex 28.624998 17.900000 -9.825000
endloop
endfacet
facet normal 0.000000 1.000000 0.000000
outer loop
vertex 22.899998 17.900000 -19.650000
vertex 28.624998 17.900000 -9.825000
vertex 28.624998 17.900000 -19.650000
endloop
endfacet
facet normal 0.000000 1.000000 0.000000
outer loop
vertex 22.899998 17.900000 -9.825000
vertex 22.899998 17.900000 0.000000
vertex 28.624998 17.900000 0.000000
endloop
endfacet
facet normal 0.000000 1.000000 0.000000
outer loop
vertex 22.899998 17.900000 -9.825000
vertex 28.624998 17.900000 0.000000
vertex 28.624998 17.900000 -9.825000
endloop
endfacet
facet normal 0.000000 -1.000000 0.000000
outer loop
vertex -22.899998 -17.900000 -9.825000
vertex -22.899998 -17.900000 0.000000
vertex -28.624998 -17.900000 0.000000
endloop
endfacet
facet normal 0.000000 -1.000000 0.000000
outer loop
vertex -22.899998 -17.900000 -9.825000
vertex -28.624998 -17.900000 0.000000
vertex -28.624998 -17.900000 -9.825000
endloop
endfacet
facet normal 0.000000 0.000000 -1.000000
outer loop
vertex 22.899998 8.950000 -19.650000
vertex 28.624998 8.950000 -19.650000
vertex 28.624998 0.000000 -19.650000
endloop
endfacet
facet normal 0.000000 0.000000 -1.000000
outer loop
vertex 22.899998 8.950000 -19.650000
vertex 28.624998 0.000000 -19.650000
vertex 22.899998 0.000000 -19.650000
endloop
endfacet
facet normal 0.000000 0.000000 1.000000
outer loop
vertex -22.899998 8.950000 19.650000
vertex -28.624998 8.950000 19.650000
vertex -28.624998 0.000000 19.650000
endloop
endfacet
facet normal 0.000000 0.000000 1.000000
outer loop
vertex -22.899998 8.950000 19.650000
vertex -28.624998 0.000000 19.650000
vertex -22.899998 0.000000 19.650000
endloop
endfacet
facet normal 0.000000 0.000000 1.000000
outer loop
vertex -22.899998 -8.950000 19.650000
vertex -28.624998 -8.950000 19.650000
vertex -28.624998 -17.900000 19.650000
endloop
endfacet
facet normal 0.000000 0.000000 1.000000
outer loop
vertex -22.899998 -8.950000 19.650000
vertex -28.624998 -17.900000 19.650000
vertex -22.899998 -17.900000 19.650000
endloop
endfacet
facet normal 0.000000 0.000000 -1.000000
outer loop
vertex 22.899998 -8.950000 -19.650000
vertex 28.624998 -8.950000 -19.650000
vertex 28.624998 -17.900000 -19.650000
endloop
endfacet
facet normal 0.000000 0.000000 -1.000000
outer loop
vertex 22.899998 -8.950000 -19.650000
vertex 28.624998 -17.900000 -19.650000
vertex 22.899998 -17.900000 -19.650000
endloop
endfacet
facet normal 0.000000 -1.000000 0.000000
outer loop
vertex -22.899998 -17.900000 9.825000
vertex -22.899998 -17.900000 19.650000
vertex -28.624998 -17.900000 19.650000
endloop
endfacet
facet normal 0.000000 -1.000000 0.000000
outer loop
vertex -22.899998 -17.900000 9.825000
vertex -28.624998 -17.900000 19.650000
vertex -28.624998 -17.900000 9.825000
endloop
endfacet
facet normal 0.000000 1.000000 0.000000
outer loop
vertex 22.899998 17.900000 9.825000
vertex 22.899998 17.900000 19.650000
vertex 28.624998 17.900000 19.650000
endloop
endfacet
facet normal 0.000000 1.000000 0.000000
outer loop
vertex 22.899998 17.900000 9.825000
vertex 28.624998 17.900000 19.650000
vertex 28.624998 17.900000 9.825000
endloop
endfacet
endsolid Exported from Blender-2.81 (sub 16)
